<svg width="396" height="174" viewBox="0 0 396 174" fill="none" xmlns="http://www.w3.org/2000/svg">
<path d="M208 104H0V174H394.5V2L347.5 62L300.5 34.5L260.5 62L208 104Z" fill="#7B61FF" fill-opacity="0.1"/>
<path d="M0 104H205.895C207.258 104 208.58 103.536 209.643 102.685L260.5 62L297.36 36.6589C299.276 35.3413 301.782 35.2499 303.789 36.4245L342.972 59.3509C345.565 60.868 348.88 60.2338 350.73 57.8669L394 2.5" stroke="#7B61FF" stroke-width="2"/>
<circle cx="392" cy="4" r="4" fill="#7B61FF"/>
<circle cx="300" cy="35" r="4" fill="#7B61FF"/>
<circle cx="206" cy="104" r="4" fill="#7B61FF"/>
<circle cx="109" cy="104" r="4" fill="#7B61FF"/>
<circle cx="11" cy="104" r="4" fill="#7B61FF"/>
</svg>
