<svg width="24" height="24" viewBox="0 0 24 24" fill="none" xmlns="http://www.w3.org/2000/svg">
<path d="M4 6.75C4 5.7875 4.72 5 5.6 5H18.4C18.8243 5 19.2313 5.18437 19.5314 5.51256C19.8314 5.84075 20 6.28587 20 6.75V17.25C20 17.7141 19.8314 18.1592 19.5314 18.4874C19.2313 18.8156 18.8243 19 18.4 19H5.6C5.17565 19 4.76869 18.8156 4.46863 18.4874C4.16857 18.1592 4 17.7141 4 17.25V6.75ZM12.8 14.625L10.4 12L5.6 17.25H18.4L14.4 12.875L12.8 14.625ZM16 11.125C16.4243 11.125 16.8313 10.9406 17.1314 10.6124C17.4314 10.2842 17.6 9.83913 17.6 9.375C17.6 8.91087 17.4314 8.46575 17.1314 8.13756C16.8313 7.80937 16.4243 7.625 16 7.625C15.5757 7.625 15.1687 7.80937 14.8686 8.13756C14.5686 8.46575 14.4 8.91087 14.4 9.375C14.4 9.83913 14.5686 10.2842 14.8686 10.6124C15.1687 10.9406 15.5757 11.125 16 11.125Z" fill="white" fill-opacity="0.96"/>
</svg>
