<svg width="24" height="24" viewBox="0 0 24 24" fill="none" xmlns="http://www.w3.org/2000/svg">
<path fill-rule="evenodd" clip-rule="evenodd" d="M20.6479 20.7942L2.95769 3.104L2 4.06169L4.09521 6.1569C4.03367 6.3423 4.00007 6.54204 4.00007 6.74994V17.2499C4.00007 17.7141 4.16864 18.1592 4.4687 18.4874C4.76876 18.8156 5.17573 18.9999 5.60007 18.9999H16.9382L19.6902 21.7519L20.6479 20.7942ZM15.1882 17.2499L10.1795 12.2412L5.60007 17.2499H15.1882ZM20.0001 17.2499C20.0001 17.5827 19.9134 17.9056 19.7538 18.1827L6.57105 4.99994H18.4001C18.8244 4.99994 19.2314 5.18431 19.5314 5.5125C19.8315 5.84069 20.0001 6.28581 20.0001 6.74994V17.2499ZM16.0001 11.1249C16.4244 11.1249 16.8314 10.9406 17.1314 10.6124C17.4315 10.2842 17.6001 9.83907 17.6001 9.37494C17.6001 8.91081 17.4315 8.46569 17.1314 8.1375C16.8314 7.80931 16.4244 7.62494 16.0001 7.62494C15.5757 7.62494 15.1688 7.80931 14.8687 8.1375C14.5686 8.46569 14.4001 8.91081 14.4001 9.37494C14.4001 9.83907 14.5686 10.2842 14.8687 10.6124C15.1688 10.9406 15.5757 11.1249 16.0001 11.1249Z" fill="white" fill-opacity="0.96"/>
</svg>
