<svg width="142" height="138" viewBox="0 0 142 138" fill="none" xmlns="http://www.w3.org/2000/svg">
<g opacity="0.8">
<path d="M71 8C79.7567 8 86.7778 14.8233 86.7778 23.3333C86.7778 31.8433 79.7567 38.6667 71 38.6667C62.2433 38.6667 55.2222 31.8433 55.2222 23.3333C55.2222 14.8233 62.3222 8 71 8ZM142 100V84.6667C124.329 84.6667 109.182 77.3067 97.8222 64.12L87.2511 51.8533C85.7834 50.1243 83.9399 48.7326 81.8529 47.7782C79.766 46.8238 77.4875 46.3303 75.1811 46.3333H67.0556C62.2433 46.3333 57.8256 48.3267 54.8278 51.8533L44.2567 64.12C32.8178 77.3067 17.6711 84.6667 0 84.6667V100C21.8522 100 40.9433 91.03 55.2222 75.0833V92.3333L24.6133 104.217C19.3278 106.287 15.7778 111.5 15.7778 116.943C15.7778 124.533 22.0889 130.667 29.8989 130.667H47.3333V126.833C47.3333 121.75 49.4112 116.875 53.1098 113.28C56.8085 109.686 61.8249 107.667 67.0556 107.667H90.7222C92.9311 107.667 94.6667 109.353 94.6667 111.5C94.6667 113.647 92.9311 115.333 90.7222 115.333H67.0556C60.5078 115.333 55.2222 120.47 55.2222 126.833V130.667H112.101C119.911 130.667 126.222 124.533 126.222 116.943C126.222 111.5 122.672 106.287 117.387 104.217L86.7778 92.3333V75.0833C101.057 91.03 120.148 100 142 100Z" fill="#05AB81"/>
</g>
</svg>
