<svg width="48" height="48" viewBox="0 0 48 48" fill="none" xmlns="http://www.w3.org/2000/svg">
<path d="M39.4375 16.108L20.0938 35.4659C19.7188 35.8417 19.1667 36.0192 18.4375 35.9984C17.7708 35.9775 17.2604 35.8 16.9062 35.4659L8.5625 27.1025C8.1875 26.7267 8 26.2672 8 25.7243C8 25.1814 8.1875 24.722 8.5625 24.3461L11.3438 21.5583C11.7188 21.1824 12.1771 20.9945 12.7188 20.9945C13.2604 20.9945 13.7188 21.1824 14.0938 21.5583L18.5 25.9749L33.9062 10.5638C34.2812 10.1879 34.7396 10 35.2812 10C35.8229 10 36.2812 10.1879 36.6562 10.5638L39.4375 13.3203C39.8125 13.717 40 14.1817 40 14.7142C40 15.2467 39.8125 15.7113 39.4375 16.108Z" fill="white" fill-opacity="0.96"/>
</svg>
