<svg width="169" height="121" viewBox="0 0 169 121" fill="none" xmlns="http://www.w3.org/2000/svg">
<path d="M8.39764 120.298C8.83847 120.631 9.46554 120.543 9.79824 120.102L15.2199 112.918C15.5526 112.478 15.4649 111.851 15.0241 111.518C14.5833 111.185 13.9562 111.273 13.6235 111.714L8.80427 118.099L2.41875 113.28C1.97792 112.947 1.35085 113.035 1.01816 113.476C0.685455 113.917 0.77311 114.544 1.21394 114.876L8.39764 120.298ZM168.5 1.49988C168.507 0.4999 168.506 0.499897 168.505 0.499891C168.505 0.499887 168.504 0.499881 168.502 0.499873C168.5 0.499858 168.496 0.499838 168.491 0.499815C168.482 0.499768 168.468 0.49971 168.449 0.499656C168.412 0.499549 168.357 0.499464 168.285 0.499542C168.141 0.499697 167.928 0.500504 167.648 0.503093C167.09 0.508271 166.266 0.520577 165.204 0.54906C163.078 0.606023 159.994 0.727697 156.152 0.986497C148.467 1.50403 137.742 2.57028 125.572 4.76572C101.259 9.1522 71.0714 18.0654 47.8837 36.2123L49.1163 37.7874C71.9286 19.9342 101.741 11.0974 125.928 6.73395C138.008 4.55441 148.658 3.49568 156.286 2.98198C160.099 2.72516 163.156 2.60465 165.257 2.54834C166.308 2.52019 167.119 2.50808 167.667 2.50301C167.941 2.50047 168.149 2.49969 168.287 2.49954C168.357 2.49947 168.409 2.49955 168.443 2.49965C168.461 2.4997 168.473 2.49975 168.482 2.49979C168.486 2.49981 168.489 2.49983 168.491 2.49984C168.492 2.49985 168.492 2.49985 168.493 2.49985C168.493 2.49985 168.493 2.49985 168.5 1.49988ZM47.8837 36.2123C24.686 54.3671 14.7029 75.1945 10.5312 91.502C8.44681 99.6502 7.81419 106.665 7.70342 111.649C7.64803 114.142 7.72311 116.128 7.81273 117.497C7.85755 118.181 7.90602 118.711 7.94366 119.072C7.96248 119.253 7.9786 119.392 7.9902 119.487C7.99601 119.534 8.00068 119.571 8.004 119.596C8.00566 119.609 8.00698 119.618 8.00794 119.626C8.00842 119.629 8.0088 119.632 8.00909 119.634C8.00924 119.635 8.00939 119.636 8.00946 119.637C8.00958 119.638 8.00968 119.638 9.00005 119.5C9.99042 119.361 9.99047 119.362 9.99049 119.362C9.99047 119.362 9.99046 119.362 9.99042 119.361C9.99032 119.361 9.99012 119.359 9.98983 119.357C9.98926 119.353 9.98831 119.346 9.98703 119.336C9.98445 119.316 9.9805 119.286 9.97541 119.244C9.96523 119.161 9.95046 119.034 9.9329 118.865C9.89779 118.528 9.85153 118.024 9.80846 117.366C9.7223 116.051 9.64894 114.123 9.70293 111.694C9.81091 106.835 10.4283 99.9744 12.4689 91.9977C16.5472 76.0552 26.3141 55.6327 49.1163 37.7874L47.8837 36.2123Z" fill="white" fill-opacity="0.56"/>
</svg>
