<svg width="142" height="138" viewBox="0 0 142 138" fill="none" xmlns="http://www.w3.org/2000/svg">
<g opacity="0.8">
<path d="M86.0738 45.896C77.8711 45.896 77.4692 43.232 77.4692 38.1249V10.2468C77.4692 6.67975 74.5668 3.77734 70.9998 3.77734C67.4327 3.77734 64.5303 6.67975 64.5303 10.2468V38.1249C64.5303 43.232 64.1285 45.896 55.9236 45.896C55.3274 45.896 54.8262 46.3784 54.8262 46.9746V57.7573C54.8262 58.3535 55.3318 58.8359 55.928 58.8359C62.3367 58.8359 67.4085 57.3665 70.9965 54.4663C74.5856 57.3665 79.6662 58.8359 86.0738 58.8359C86.6699 58.8359 87.1733 58.3535 87.1733 57.7573V46.9746C87.1733 46.3784 86.6699 45.896 86.0738 45.896Z" fill="white" fill-opacity="0.56"/>
<path d="M56.5866 75.0864C55.827 68.2703 55.0443 61.2191 55.0443 54.3876C55.0443 37.0493 53.1465 14 36.7521 14C16.8195 14 0.00115308 66.9235 0.00115308 100.155C-0.00657491 101.204 -0.129119 125.928 6.6417 132.753C7.87597 133.996 9.28246 134.627 10.8247 134.627C14.8996 134.627 16.9254 133.071 19.7307 130.919C23.2502 128.217 28.0681 124.517 40.2949 120.992C61.0235 115.015 58.8696 95.6219 56.5866 75.0864Z" fill="white" fill-opacity="0.56"/>
<path d="M141.99 99.759C141.99 66.5198 125.172 13.5952 105.241 13.5952C88.8443 13.5952 86.9498 36.6445 86.9498 53.9828C86.9498 60.8143 86.166 67.8645 85.4086 74.6816C83.1256 95.2171 80.9695 114.61 101.7 120.587C113.925 124.112 118.744 127.813 122.262 130.512C125.068 132.666 127.093 134.222 131.168 134.222C132.709 134.222 134.116 133.591 135.35 132.348C142.12 125.523 141.998 100.8 141.99 99.759Z" fill="white" fill-opacity="0.56"/>
</g>
</svg>
