<svg width="75" height="74" viewBox="0 0 75 74" fill="none" xmlns="http://www.w3.org/2000/svg">
<g clip-path="url(#clip0)" filter="url(#filter0_d)">
<path d="M44.8184 22.2828C40.8359 22.2828 40.6408 20.9895 40.6408 18.5099V4.97488C40.6408 3.24306 39.2317 1.83392 37.4998 1.83392C35.768 1.83392 34.3589 3.24306 34.3589 4.97488V18.5099C34.3589 20.9895 34.1638 22.2828 30.1802 22.2828C29.8908 22.2828 29.6475 22.517 29.6475 22.8065V28.0416C29.6475 28.331 29.8929 28.5653 30.1824 28.5653C33.2939 28.5653 35.7562 27.8518 37.4982 26.4438C39.2408 27.8518 41.7074 28.5653 44.8184 28.5653C45.1078 28.5653 45.3522 28.331 45.3522 28.0416V22.8065C45.3522 22.517 45.1078 22.2828 44.8184 22.2828Z" fill="#0FA8E0"/>
<path d="M31.4732 36.2584C31.1044 32.9492 30.7244 29.5258 30.7244 26.209C30.7244 17.7911 29.803 6.60056 21.8434 6.60056C12.166 6.60056 4.00056 32.2953 4.00056 48.4294C3.99681 48.9386 3.93731 60.9423 7.22459 64.2558C7.82384 64.8593 8.5067 65.1659 9.25549 65.1659C11.2339 65.1659 12.2174 64.4102 13.5794 63.3655C15.2882 62.0539 17.6273 60.2573 23.5634 58.5458C33.6274 55.6439 32.5816 46.2286 31.4732 36.2584Z" fill="#0FA8E0"/>
<path d="M70.9991 48.4337C70.9991 32.2958 62.8342 6.60056 53.1573 6.60056C45.1967 6.60056 44.2769 17.7911 44.2769 26.209C44.2769 29.5258 43.8963 32.9487 43.5286 36.2584C42.4202 46.2286 41.3734 55.6439 51.4384 58.5458C57.3735 60.2573 59.7131 62.0539 61.4213 63.3644C62.7833 64.4102 63.7669 65.1659 65.7453 65.1659C66.4935 65.1659 67.1764 64.8593 67.7756 64.2558C71.0624 60.9423 71.0034 48.9391 70.9991 48.4337Z" fill="#0FA8E0"/>
</g>
<defs>
<filter id="filter0_d" x="0" y="0" width="75" height="75" filterUnits="userSpaceOnUse" color-interpolation-filters="sRGB">
<feFlood flood-opacity="0" result="BackgroundImageFix"/>
<feColorMatrix in="SourceAlpha" type="matrix" values="0 0 0 0 0 0 0 0 0 0 0 0 0 0 0 0 0 0 127 0"/>
<feOffset dy="4"/>
<feGaussianBlur stdDeviation="2"/>
<feColorMatrix type="matrix" values="0 0 0 0 0 0 0 0 0 0 0 0 0 0 0 0 0 0 0.25 0"/>
<feBlend mode="normal" in2="BackgroundImageFix" result="effect1_dropShadow"/>
<feBlend mode="normal" in="SourceGraphic" in2="effect1_dropShadow" result="shape"/>
</filter>
<clipPath id="clip0">
<rect width="67" height="67" fill="white" transform="translate(4)"/>
</clipPath>
</defs>
</svg>
