<svg width="48" height="48" viewBox="0 0 48 48" fill="none" xmlns="http://www.w3.org/2000/svg">
<path d="M24 0C10.7665 0 0 10.7665 0 24C0 37.2335 10.7665 48 24 48C37.2335 48 48 37.2335 48 24C48 10.7665 37.2335 0 24 0ZM37.8462 22.0119H27.5769L31.8323 17.7565L31.1862 17.0054C30.0304 15.8055 28.5953 14.9107 27.0092 14.4011C25.423 13.8914 23.7353 13.7827 22.097 14.0847C20.4586 14.3868 18.9206 15.0901 17.6204 16.1318C16.3203 17.1735 15.2986 18.5212 14.6466 20.0543C13.9946 21.5874 13.7327 23.2582 13.8842 24.9173C14.0358 26.5763 14.5961 28.172 15.5151 29.5616C16.4341 30.9512 17.6831 32.0914 19.1505 32.8803C20.6179 33.6692 22.2579 34.0822 23.9238 34.0823C26.0088 34.0804 28.0421 33.4333 29.7448 32.23C31.4475 31.0266 32.7361 29.3259 33.4338 27.3612L34.0535 25.6154L37.5346 26.8465L36.9231 28.5923C36.0816 30.9737 34.6017 33.0779 32.6452 34.675C30.6886 36.2721 28.3306 37.3006 25.829 37.6482C23.3274 37.9957 20.7784 37.6489 18.4605 36.6456C16.1427 35.6423 14.1453 34.0212 12.6865 31.9594C11.2278 29.8976 10.3639 27.4744 10.1893 24.9548C10.0147 22.4352 10.536 19.9161 11.6964 17.6728C12.8568 15.4295 14.6115 13.5483 16.7687 12.2348C18.926 10.9214 21.4028 10.2263 23.9285 10.2254C25.7925 10.2183 27.6382 10.5929 29.3519 11.3261C31.0656 12.0593 32.6111 13.1357 33.8931 14.4888L33.9577 14.5604L34.455 15.1373L37.8462 11.7473V22.0119Z" fill="white" fill-opacity="0.96"/>
</svg>
