<svg width="48" height="48" viewBox="0 0 48 48" fill="none" xmlns="http://www.w3.org/2000/svg">
<path d="M38.4 6C37.9757 6 37.5687 6.15804 37.2686 6.43934C36.9686 6.72064 36.8 7.10218 36.8 7.5V20.2903L13.523 7.22906C12.9854 6.92246 12.3698 6.75688 11.7405 6.74963C11.1113 6.74237 10.4915 6.89371 9.946 7.18781C8.746 7.82531 8 9.05906 8 10.4062V37.5938C8 38.9409 8.746 40.1747 9.946 40.8122C10.4916 41.1061 11.1114 41.2572 11.7407 41.2498C12.3699 41.2423 12.9854 41.0766 13.523 40.77L36.8 27.7097V40.5C36.8 40.8978 36.9686 41.2794 37.2686 41.5607C37.5687 41.842 37.9757 42 38.4 42C38.8243 42 39.2313 41.842 39.5314 41.5607C39.8314 41.2794 40 40.8978 40 40.5V7.5C40 7.10218 39.8314 6.72064 39.5314 6.43934C39.2313 6.15804 38.8243 6 38.4 6Z" fill="white" fill-opacity="0.96"/>
</svg>
