<svg width="142" height="138" viewBox="0 0 142 138" fill="none" xmlns="http://www.w3.org/2000/svg">
<g opacity="0.8">
<path d="M80.0444 74.0175C74.587 70.628 67.5619 73.1744 63.0709 77.5393C59.3448 81.1605 57.54 85.7548 57.847 89.7146C60.8405 86.6485 65.1388 84.2654 69.1782 82.0733C73.8723 79.5282 78.6601 76.9048 80.0444 74.0175Z" fill="white" fill-opacity="0.56"/>
<path d="M61.8843 96.6019C66.4635 99.4507 73.686 98.0523 78.9288 92.9541C82.655 89.3329 84.4597 84.7386 84.1527 80.7788C81.1592 83.8449 76.8609 86.228 72.8215 88.4201C68.0586 91.0023 63.1861 93.6644 61.8843 96.6019V96.6019Z" fill="white" fill-opacity="0.56"/>
<path d="M101.6 119.859H40.4004L41.4204 131H100.58L101.6 119.859Z" fill="white" fill-opacity="0.56"/>
<path d="M39.7211 112.594H102.28L107.378 58.1016H34.6226L39.7211 112.594ZM57.7856 72.4023C65.9801 64.4386 79.0553 62.2502 86.8582 69.8338C94.1445 76.9149 92.9618 89.5908 84.2153 98.0911C76.0401 106.036 62.8682 108.167 55.1428 100.659C47.8562 93.5782 49.0387 80.9025 57.7856 72.4023Z" fill="white" fill-opacity="0.56"/>
<path d="M26.1426 36.3047H115.857V50.8359H26.1426V36.3047Z" fill="white" fill-opacity="0.56"/>
<path d="M68.3059 7L65.8128 14.2656H42.5226L35.0464 29.0391H107.336L99.861 7H68.3059Z" fill="white" fill-opacity="0.56"/>
</g>
</svg>
