<svg width="142" height="138" viewBox="0 0 142 138" fill="none" xmlns="http://www.w3.org/2000/svg">
<g opacity="0.8">
<path d="M65.6749 69.4587C51.889 43.5261 62.7165 20.6987 68.8107 11.5562C37.0973 12.6487 11.7148 37.8912 11.7148 68.9987C11.7148 69.8037 11.8332 70.6087 11.8332 71.4137C15.5015 69.8612 19.4657 68.9987 23.6665 68.9987C33.4882 68.9987 42.4815 73.7711 47.9249 81.3611C52.8676 82.7449 57.2137 85.6521 60.3085 89.6449C63.4032 93.6378 65.0789 98.4998 65.0832 103.499C65.0832 112.239 59.9357 119.771 52.5399 123.681C58.3382 125.521 64.5507 126.556 70.9407 126.556C91.649 126.556 109.872 116.206 120.463 100.566C106.5 101.889 79.1649 94.9887 65.6749 69.4587V69.4587Z" fill="white" fill-opacity="0.56"/>
<path d="M41.4167 92H40.3517C37.8667 85.33 31.3584 80.5 23.6667 80.5C13.8451 80.5 5.91675 88.205 5.91675 97.75C5.91675 107.295 13.8451 115 23.6667 115H41.4167C47.9251 115 53.2501 109.825 53.2501 103.5C53.2501 97.175 47.9251 92 41.4167 92Z" fill="white" fill-opacity="0.56"/>
</g>
</svg>
