<svg width="142" height="138" viewBox="0 0 142 138" fill="none" xmlns="http://www.w3.org/2000/svg">
<g opacity="0.8">
<path d="M111.771 71.9805C110.407 71.9805 108.828 72.1888 107.013 72.6597C93.6494 78.2729 81.1935 80.1421 70.5194 80.1421C49.1768 80.1421 34.9726 72.6597 34.9726 72.6597C33.2989 72.2268 31.5543 72.0203 30.218 71.995V71.9805V71.9805C30.1825 71.9805 30.1565 71.9913 30.121 71.9913C30.0428 71.9877 29.9496 71.9805 29.875 71.9805L29.8769 72.0131C18.1404 72.35 22.4794 88.7313 22.4794 88.7313C31.3288 115.151 60.8406 117 68.9296 117C70.2454 117 70.9947 116.953 70.9947 116.953C70.9947 116.953 71.7421 117 73.0598 117C81.1488 117 110.661 115.149 119.512 88.7331C119.514 88.7331 123.97 71.9805 111.771 71.9805ZM33.2541 95.0816C31.7575 92.8737 30.4752 90.3687 29.4985 87.5068C28.835 84.8152 28.5778 80.2164 29.8377 78.6424C29.9719 78.4739 30.2888 78.0954 31.6084 78.0682C32.0669 78.0791 32.654 78.1262 33.2541 78.2059V95.0816V95.0816ZM50.6492 107.875C47.2701 106.683 43.8518 105.024 40.7094 102.742V80.9608C43.3579 81.8918 46.7072 82.8935 50.6492 83.7629V107.875ZM68.5121 110.914C66.1543 110.891 62.4099 110.695 58.1063 109.874V85.0725C61.327 85.5053 64.8068 85.7915 68.5121 85.873V110.914ZM85.2865 109.586C81.7303 110.362 78.4854 110.697 75.9674 110.833V85.7426C79.0855 85.5615 82.1944 85.2246 85.2865 84.7301V109.586ZM101.904 102.276C99.021 104.475 95.886 106.127 92.7399 107.359V83.2267C95.8171 82.4805 98.8737 81.5821 101.904 80.5243V102.276ZM112.496 87.505C111.66 89.9611 110.592 92.1491 109.358 94.1198V78.128C109.652 78.0972 109.958 78.0646 110.221 78.0646C111.688 78.0646 112.014 78.4739 112.153 78.6442C113.419 80.2164 113.158 84.8297 112.496 87.505ZM34.1115 32.2318C34.1115 26.0299 39.2873 21 45.6709 21C52.0508 21 57.2266 26.0299 57.2266 32.2318C57.2266 38.4373 52.0508 43.4672 45.6709 43.4672C39.2873 43.4672 34.1115 38.4354 34.1115 32.2318ZM86.5185 32.2318C86.5185 26.0299 91.6999 21 98.0797 21C104.46 21 109.637 26.0299 109.637 32.2318C109.637 38.4373 104.461 43.4672 98.0797 43.4672C91.6999 43.4672 86.5185 38.4354 86.5185 32.2318Z" fill="white" fill-opacity="0.56"/>
</g>
</svg>
