<?xml version="1.0" standalone="no"?>
<!DOCTYPE svg PUBLIC "-//W3C//DTD SVG 1.1//EN" "http://www.w3.org/Graphics/SVG/1.1/DTD/svg11.dtd" >
<svg xmlns="http://www.w3.org/2000/svg" xmlns:xlink="http://www.w3.org/1999/xlink" version="1.1">
<metadata>
Created by FontForge 20170731 at Sat Feb 27 12:24:18 2021
 By Aleksey,,,
Copyright (c) 2018 ParaType Inc., ParaType Ltd. All rights reserved.
</metadata>
<defs>
<font id="SBSansText-Italic" horiz-adv-x="921" >
  <font-face 
    font-family="SB Sans Text"
    font-weight="400"
    font-style="italic"
    font-stretch="normal"
    units-per-em="2048"
    panose-1="2 11 5 3 4 5 4 2 9 4"
    ascent="1640"
    descent="-408"
    x-height="1085"
    cap-height="1434"
    bbox="-434 -489 2753 1923"
    underline-thickness="102"
    underline-position="-333"
    slope="-12"
    unicode-range="U+0020-FEFF"
  />
<missing-glyph horiz-adv-x="659" 
 />
    <glyph glyph-name="f_f" unicode="ff" horiz-adv-x="1536" 
d="M936 0l199 932h-506l-199 -932h-178l199 932h-175l31 153h176l35 158q36 167 129.5 235t263.5 68q106 0 174 -22l-34 -166q-65 35 -162 35q-93 0 -135 -33.5t-64 -138.5l-28 -136h505l35 158q36 168 129 235.5t262 67.5q106 0 174 -22l-34 -166q-65 35 -162 35
q-93 0 -135 -33.5t-64 -138.5l-29 -136h322l-31 -153h-323l-199 -932h-176z" />
    <glyph glyph-name="fi" unicode="fi" horiz-adv-x="1294" 
d="M1110 0h-176l199 932h-504l-199 -932h-178l199 932h-175l31 153h176l35 158q35 167 128.5 235t260.5 68q100 0 168 -22l-37 -166q-56 35 -155 35q-89 0 -130 -33.5t-63 -138.5l-28 -136h679zM1321 1296q-56 0 -85.5 27.5t-29.5 79.5q0 106 115 106t115 -106
q0 -52 -29.5 -79.5t-85.5 -27.5z" />
    <glyph glyph-name="fl" unicode="fl" horiz-adv-x="1419" 
d="M1200 -10q-113 0 -169 39.5t-56 128.5q0 31 10 86l240 1136q-44 1 -156.5 7t-163.5 6q-105 0 -148.5 -33t-66.5 -139l-28 -136h247l-32 -153h-248l-199 -932h-178l199 932h-175l31 153h176l35 158q36 168 132 235.5t276 67.5q41 0 215 -5t295 -5l-265 -1249
q-8 -33 -8 -62q0 -45 24.5 -63.5t82.5 -18.5q55 0 131 29l-31 -149q-78 -33 -170 -33z" />
    <glyph glyph-name="f_f_i" unicode="ffi" horiz-adv-x="1976" 
d="M936 0l199 932h-506l-199 -932h-178l199 932h-175l31 153h176l35 158q36 167 129.5 235t263.5 68q106 0 174 -22l-34 -166q-65 35 -162 35q-93 0 -135 -33.5t-64 -138.5l-28 -136h505l35 158q36 167 128.5 235t258.5 68q100 0 168 -22l-37 -166q-56 35 -155 35
q-89 0 -130 -33.5t-63 -138.5l-29 -136h680l-231 -1085h-176l199 932h-504l-199 -932h-176zM2005 1296q-56 0 -85.5 27.5t-29.5 79.5q0 106 115 106q113 0 113 -106q0 -107 -113 -107z" />
    <glyph glyph-name="f_f_l" unicode="ffl" horiz-adv-x="2101" 
d="M936 0l199 932h-506l-199 -932h-178l199 932h-175l31 153h176l35 158q36 167 129.5 235t263.5 68q106 0 174 -22l-34 -166q-65 35 -162 35q-93 0 -135 -33.5t-64 -138.5l-28 -136h505l35 158q36 168 131.5 235.5t274.5 67.5q36 0 200 -4.5t310 -5.5l-265 -1249
q-8 -33 -8 -62q0 -45 25 -63.5t84 -18.5q55 0 131 29l-33 -149q-78 -33 -170 -33q-113 0 -169 39.5t-56 128.5q0 31 10 86l240 1136q-44 1 -156.5 7t-163.5 6q-105 0 -148.5 -33t-66.5 -139l-29 -136h248l-30 -153h-250l-199 -932h-176z" />
    <glyph glyph-name=".notdef" horiz-adv-x="659" 
 />
    <glyph glyph-name=".null" horiz-adv-x="0" 
 />
    <glyph glyph-name="nonmarkingreturn" horiz-adv-x="682" 
 />
    <glyph glyph-name="space" unicode=" " horiz-adv-x="593" 
 />
    <glyph glyph-name="exclam" unicode="!" horiz-adv-x="788" 
d="M406 461l198 973h193l-217 -973h-174zM420 -10q-131 0 -131 129q0 127 131 127q129 0 129 -127q0 -129 -129 -129z" />
    <glyph glyph-name="quotedbl" unicode="&#x22;" horiz-adv-x="1060" 
d="M594 891h-154l115 543h156zM997 891h-153l114 543h156z" />
    <glyph glyph-name="numbersign" unicode="#" horiz-adv-x="1437" 
d="M891 0l88 412h-342l-88 -412h-156l88 412h-256l33 141h252l72 330h-256l30 141h254l88 410h156l-88 -410h342l88 410h147l-88 -410h263l-31 -141h-260l-72 -330h264l-33 -141h-260l-88 -412h-147zM737 883l-71 -330h342l71 330h-342z" />
    <glyph glyph-name="dollar" unicode="$" horiz-adv-x="1230" 
d="M496 -246l49 226q-110 8 -212.5 39.5t-158.5 76.5l45 205q72 -78 175 -121t218 -43q180 0 273.5 71.5t93.5 209.5q0 64 -33.5 110.5t-86.5 76t-117.5 54.5t-129 54t-117.5 66.5t-86.5 101t-33.5 147.5q0 184 130.5 299t350.5 127l39 184h149l-38 -188q190 -16 307 -84
l-43 -197q-146 127 -357 127q-340 0 -340 -235q0 -63 33.5 -109.5t86.5 -75.5t117 -54.5t128.5 -56t117.5 -69t86.5 -104t33.5 -152.5q0 -202 -126.5 -321.5t-357.5 -136.5l-49 -228h-147z" />
    <glyph glyph-name="percent" unicode="%" horiz-adv-x="1830" 
d="M1348 -10q-136 0 -217.5 74.5t-81.5 207.5q0 180 118.5 287t298.5 107q134 0 212.5 -70t78.5 -201q0 -180 -114.5 -292.5t-294.5 -112.5zM1366 119q120 0 184 69t64 189q0 162 -170 162q-120 0 -186 -66t-66 -186q0 -81 46 -124.5t128 -43.5zM676 768q-137 0 -218 71
t-81 203q0 181 119.5 291.5t298.5 110.5q133 0 211.5 -73.5t78.5 -205.5q0 -180 -114 -288.5t-295 -108.5zM694 897q121 0 184.5 65.5t63.5 184.5q0 83 -44 126.5t-126 43.5q-119 0 -185.5 -69.5t-66.5 -190.5q0 -80 45 -120t129 -40zM508 0h-170l1288 1434h172z" />
    <glyph glyph-name="ampersand" unicode="&#x26;" horiz-adv-x="1751" 
d="M1610 158l-37 -178q-225 43 -375 178q-211 -178 -520 -178q-186 0 -300 107t-114 284q0 91 32 168t92 134t137.5 98t174.5 69q-53 111 -53 243q0 186 109.5 278.5t302.5 92.5q133 0 212 -69t79 -179q0 -69 -23 -127t-62 -101t-100 -80.5t-125.5 -64.5t-150.5 -55
q117 -253 325 -432q137 123 232 297t137 371h166q-45 -209 -156 -409t-264 -337q101 -77 281 -110zM444 381q0 -123 77.5 -188.5t207.5 -65.5q202 0 361 123q-223 198 -340 469q-306 -80 -306 -338zM805 1094q0 -120 39 -197q75 25 120 43t91.5 43.5t71 51.5t40 63t15.5 84
q0 61 -38 97t-116 36q-109 0 -166 -55.5t-57 -165.5z" />
    <glyph glyph-name="quotesingle" unicode="'" horiz-adv-x="655" 
d="M594 891h-154l115 543h156z" />
    <glyph glyph-name="parenleft" unicode="(" horiz-adv-x="753" 
d="M512 -389q-99 104 -176.5 313.5t-77.5 435.5q0 185 53.5 367.5t146 336t205.5 280t242 223.5l82 -82q-80 -71 -154 -153t-150 -193.5t-131.5 -229t-90.5 -261.5t-35 -288q0 -197 54 -385.5t124 -287.5z" />
    <glyph glyph-name="parenright" unicode=")" horiz-adv-x="753" 
d="M489 1567q99 -104 176.5 -314t77.5 -436q0 -185 -53.5 -367.5t-146 -335.5t-205.5 -279.5t-242 -223.5l-82 82q80 71 154 153t150 193.5t131.5 229t90.5 261t35 287.5q0 197 -54.5 386.5t-123.5 287.5z" />
    <glyph glyph-name="asterisk" unicode="*" horiz-adv-x="1101" 
d="M489 782l205 236l-299 78l47 153l289 -127l-26 312h157l-24 -310l286 125l47 -153l-301 -78l209 -236l-131 -90l-166 262l-164 -262z" />
    <glyph glyph-name="plus" unicode="+" horiz-adv-x="1230" 
d="M680 231v365h-365v154h365v364h154v-364h364v-154h-364v-365h-154z" />
    <glyph glyph-name="comma" unicode="," horiz-adv-x="661" 
d="M86 -219q85 19 154 77.5t94 133.5q-57 0 -88 30.5t-31 88.5q0 135 143 135q63 0 99.5 -36t36.5 -99q0 -142 -94 -268.5t-234 -170.5z" />
    <glyph glyph-name="hyphen" unicode="-" horiz-adv-x="972" 
d="M307 477l33 154h565l-33 -154h-565z" />
    <glyph glyph-name="period" unicode="." horiz-adv-x="661" 
d="M356 -10q-131 0 -131 129q0 127 131 127q129 0 129 -127q0 -129 -129 -129z" />
    <glyph glyph-name="slash" unicode="/" horiz-adv-x="763" 
d="M-57 -369l960 1905h166l-960 -1905h-166z" />
    <glyph glyph-name="zero" unicode="0" horiz-adv-x="1230" 
d="M614 -20q-202 0 -300.5 120.5t-98.5 325.5q0 137 26.5 286.5t92 308t160.5 253.5q85 97 190.5 138.5t247.5 41.5q202 0 296.5 -115t94.5 -319q0 -210 -66.5 -447t-193.5 -376q-86 -121 -197 -169t-252 -48zM643 131q95 0 161 35t118 110q102 118 160.5 331.5t58.5 396.5
q0 299 -248 299q-87 0 -149 -32t-119 -106q-107 -113 -167.5 -323t-60.5 -408q0 -303 246 -303z" />
    <glyph glyph-name="one" unicode="1" horiz-adv-x="1230" 
d="M217 154h426l227 1067l-477 -240l37 176l537 277h127l-273 -1280h334l-33 -154h-938z" />
    <glyph glyph-name="two" unicode="2" horiz-adv-x="1230" 
d="M135 0l27 127q253 179 659 494q80 62 130.5 108.5t92 99.5t60 108t18.5 118q0 130 -71.5 183.5t-241.5 53.5q-204 0 -412 -135l41 199q207 98 436 98q200 0 314.5 -91.5t114.5 -268.5q0 -75 -18 -142t-47.5 -120.5t-80.5 -109.5t-103.5 -101.5t-129.5 -104.5
q-298 -225 -490 -358h703l-35 -158h-967z" />
    <glyph glyph-name="three" unicode="3" horiz-adv-x="1230" 
d="M137 84l41 168q66 -52 169 -85.5t233 -33.5q93 0 165 16t131 52t91 102t32 160q0 97 -80 146.5t-251 49.5h-160l33 150h147q201 0 306.5 75.5t105.5 217.5q0 100 -67 149t-214 49q-248 0 -434 -104l43 174q198 84 463 84q103 0 180.5 -23.5t122.5 -65.5t66.5 -94.5
t21.5 -115.5q0 -174 -94 -275.5t-273 -144.5q140 -20 203.5 -89t63.5 -195q0 -244 -199 -375q-80 -53 -180 -74.5t-238 -21.5q-249 0 -428 104z" />
    <glyph glyph-name="four" unicode="4" horiz-adv-x="1230" 
d="M135 375l25 108l870 951h223l-190 -904h197l-31 -155h-201l-80 -375h-176l80 375h-717zM393 530h494l147 701z" />
    <glyph glyph-name="five" unicode="5" horiz-adv-x="1230" 
d="M330 702l211 732h790l-33 -154h-639l-120 -410q133 15 223 15q98 0 177 -18.5t141 -58t96 -108t34 -161.5q0 -116 -33.5 -209.5t-93 -158t-142.5 -108t-178.5 -63.5t-205.5 -20q-236 0 -385 73l39 178q141 -98 360 -98q93 0 173 21t145 63.5t102 116t37 170.5
q0 60 -21 103.5t-53 68t-81.5 39t-95 18.5t-105.5 4q-170 0 -342 -35z" />
    <glyph glyph-name="six" unicode="6" horiz-adv-x="1230" 
d="M1319 1393l-39 -176q-110 83 -297 83q-105 0 -192 -32t-149.5 -87.5t-110 -135t-77 -168t-46.5 -193.5q82 121 185.5 179.5t258.5 58.5q183 0 289 -97.5t106 -275.5q0 -260 -163.5 -414.5t-428.5 -154.5q-200 0 -318 119t-118 337q0 256 80.5 480.5t226.5 359.5
q108 99 227 138.5t275 39.5q179 0 291 -61zM672 133q176 0 284.5 103t108.5 278q0 129 -73.5 194.5t-205.5 65.5q-106 0 -192.5 -40.5t-139.5 -120.5t-53 -185q0 -139 69.5 -217t201.5 -78z" />
    <glyph glyph-name="seven" unicode="7" horiz-adv-x="1230" 
d="M307 0l854 1280h-780l31 154h1003l-20 -101l-877 -1333h-211z" />
    <glyph glyph-name="eight" unicode="8" horiz-adv-x="1230" 
d="M608 -20q-89 0 -165.5 21t-137.5 62.5t-96 112.5t-35 164q0 177 107 288.5t284 141.5q-207 62 -207 252q0 90 31.5 164t84.5 123t124.5 82.5t149 48t161.5 14.5q82 0 155 -18t133.5 -55t96 -100t35.5 -146q0 -156 -86.5 -246.5t-247.5 -132.5q115 -22 172.5 -100
t57.5 -191q0 -120 -49 -218.5t-142 -160.5q-152 -106 -426 -106zM649 133q82 0 151 19t124 57.5t86.5 104t31.5 151.5q0 225 -297 225q-74 0 -141.5 -18.5t-124 -54.5t-90 -97t-33.5 -139q0 -122 83 -185t210 -63zM889 1300q-71 0 -131.5 -15.5t-110.5 -47.5t-79 -89
t-29 -132q0 -69 38 -115t94 -64t128 -18q71 0 131 14.5t110 45t78.5 85.5t28.5 130q0 105 -73.5 155.5t-184.5 50.5z" />
    <glyph glyph-name="nine" unicode="9" horiz-adv-x="1230" 
d="M506 -20q-84 0 -168 17.5t-131 43.5l41 180q43 -35 122 -61.5t169 -26.5q133 0 238.5 50.5t173 139.5t108 196.5t57.5 234.5q-138 -244 -446 -244q-170 0 -278.5 101.5t-108.5 269.5q0 264 172 426q159 147 403 147q227 0 342 -122t115 -351q0 -232 -65.5 -433
t-172.5 -325q-106 -125 -242.5 -184t-328.5 -59zM723 664q112 0 204 40t149 121t57 191q0 135 -79.5 209.5t-215.5 74.5q-172 0 -272.5 -113.5t-100.5 -283.5q0 -118 68.5 -178.5t189.5 -60.5z" />
    <glyph glyph-name="colon" unicode=":" horiz-adv-x="671" 
d="M360 -10q-131 0 -131 129q0 127 131 127q129 0 129 -127q0 -129 -129 -129zM535 799q-132 0 -132 129q0 127 132 127q129 0 129 -127q0 -129 -129 -129z" />
    <glyph glyph-name="semicolon" unicode=";" horiz-adv-x="671" 
d="M90 -219q85 19 154 77.5t94 133.5q-57 0 -88 30.5t-31 88.5q0 135 143 135q63 0 99.5 -36t36.5 -99q0 -142 -94 -268.5t-234 -170.5zM535 799q-132 0 -132 129q0 127 132 127q129 0 129 -127q0 -129 -129 -129z" />
    <glyph glyph-name="less" unicode="&#x3c;" horiz-adv-x="1230" 
d="M1159 248l-880 352v148l880 352v-164l-674 -260v-4l674 -256v-168z" />
    <glyph glyph-name="equal" unicode="=" horiz-adv-x="1230" 
d="M315 541h883v-154h-883v154zM315 958h883v-153h-883v153z" />
    <glyph glyph-name="greater" unicode="&#x3e;" horiz-adv-x="1230" 
d="M354 248v162l674 260v4l-674 258v168l881 -352v-150z" />
    <glyph glyph-name="question" unicode="?" horiz-adv-x="1128" 
d="M647 446h-174q15 83 54 147t89 102.5t106.5 70.5t110 61.5t97 63.5t70 88t26.5 125q0 186 -240 186q-108 0 -190.5 -24t-163.5 -68l39 188q164 68 363 68q192 0 290.5 -79.5t98.5 -227.5q0 -97 -28.5 -171.5t-75.5 -121t-104 -82.5t-116.5 -67t-111 -63.5t-90 -82
t-50.5 -113.5zM492 -12q-130 0 -130 129q0 127 130 127q129 0 129 -127q0 -129 -129 -129z" />
    <glyph glyph-name="at" unicode="@" horiz-adv-x="2058" 
d="M1204 -266q-208 0 -372 60.5t-271.5 172.5t-164 268.5t-56.5 348.5q0 187 57 346t163.5 275.5t270 182.5t365.5 66q239 0 420.5 -90.5t283 -263t101.5 -404.5q0 -154 -55 -283t-151.5 -204.5t-213.5 -75.5q-116 0 -170 49.5t-57 153.5q-73 -203 -328 -203q-133 0 -208 85
t-75 220q0 86 18 178t66.5 191.5t120.5 159.5q103 88 262 88q219 0 236 -174l53 163h127l-121 -557q-20 -98 -20 -127q0 -100 106 -100q89 0 156 68.5t98 165t31 198.5q0 301 -182.5 472t-501.5 171q-347 0 -537 -201t-190 -552q0 -337 189.5 -533t547.5 -196
q104 0 205.5 23.5t163.5 64.5v-136q-164 -71 -367 -71zM891 449q0 -88 43 -136.5t131 -48.5q103 0 169.5 48.5t104.5 152.5q27 66 44.5 149t17.5 148q0 162 -176 162q-119 0 -189 -62q-72 -68 -108.5 -190.5t-36.5 -222.5z" />
    <glyph glyph-name="A" unicode="A" horiz-adv-x="1374" 
d="M51 0l840 1434h203l229 -1434h-186l-58 383h-614l-219 -383h-195zM952 1229l-395 -686h498z" />
    <glyph glyph-name="B" unicode="B" horiz-adv-x="1339" 
d="M215 2l303 1430q220 12 412 12q108 0 189 -14.5t144 -47t95.5 -90t32.5 -139.5q0 -175 -78.5 -278t-245.5 -138q240 -35 240 -264q0 -262 -172 -379q-149 -104 -486 -104q-307 0 -434 12zM541 666l-107 -510q84 -6 252 -6q224 0 323 73t99 242q0 106 -66 153.5t-223 47.5
h-278zM569 805h258q188 0 277.5 71t89.5 220q0 100 -60 144t-212 44q-117 0 -252 -6z" />
    <glyph glyph-name="C" unicode="C" horiz-adv-x="1318" 
d="M1452 1374l-41 -186q-138 102 -348 102q-131 0 -225 -35t-176 -118q-96 -100 -156 -275t-60 -346q0 -373 402 -373q198 0 383 97l-39 -185q-186 -75 -377 -75q-565 0 -565 520q0 121 31 258t100 277.5t164 230.5q199 188 534 188q221 0 373 -80z" />
    <glyph glyph-name="D" unicode="D" horiz-adv-x="1501" 
d="M598 -10q-190 0 -381 14l303 1428q197 12 422 12q140 0 249 -30t189.5 -92t123 -162.5t42.5 -235.5q0 -242 -76.5 -443.5t-203.5 -306.5q-122 -101 -279.5 -142.5t-388.5 -41.5zM434 162q72 -8 184 -8q176 0 295.5 27.5t206.5 101.5q105 87 167.5 246t62.5 372
q0 204 -115 291.5t-332 87.5q-121 0 -233 -8z" />
    <glyph glyph-name="E" unicode="E" horiz-adv-x="1232" 
d="M215 0l305 1434h881l-35 -164h-696l-97 -457h635l-34 -158h-635l-105 -491h696l-34 -164h-881z" />
    <glyph glyph-name="F" unicode="F" horiz-adv-x="1191" 
d="M215 0l305 1434h860l-34 -164h-676l-109 -504h647l-34 -164h-646l-129 -602h-184z" />
    <glyph glyph-name="G" unicode="G" horiz-adv-x="1415" 
d="M848 -20q-282 0 -438 132t-156 406q0 226 96 451t236 334q105 83 230 117t310 34q105 0 201.5 -25t157.5 -55l-39 -188q-59 42 -156 73t-192 31q-131 0 -218 -23t-171 -89q-113 -90 -185.5 -274t-72.5 -369q0 -213 109 -302.5t323 -89.5q141 0 266 47l82 390h-311l32 157
h482l-142 -663q-208 -94 -444 -94z" />
    <glyph glyph-name="H" unicode="H" horiz-adv-x="1579" 
d="M215 0l305 1434h185l-132 -615h781l131 615h184l-305 -1434h-184l137 655h-778l-140 -655h-184z" />
    <glyph glyph-name="I" unicode="I" horiz-adv-x="634" 
d="M225 0l305 1434h185l-305 -1434h-185z" />
    <glyph glyph-name="J" unicode="J" horiz-adv-x="835" 
d="M268 -10q-123 0 -215 51l37 174q89 -61 189 -61q104 0 157.5 51.5t81.5 179.5l223 1049h185l-228 -1076q-41 -196 -142 -282t-288 -86z" />
    <glyph glyph-name="K" unicode="K" horiz-adv-x="1419" 
d="M1155 0l-475 653h-141l-140 -653h-184l305 1434h185l-132 -617h117l676 617h233l-774 -697l539 -737h-209z" />
    <glyph glyph-name="L" unicode="L" horiz-adv-x="1153" 
d="M215 0l305 1434h185l-271 -1270h686l-33 -164h-872z" />
    <glyph glyph-name="M" unicode="M" horiz-adv-x="1806" 
d="M215 0l305 1434h223l271 -889l643 889h237l-303 -1434h-184l205 954q31 140 59 246q-128 -190 -166 -244l-450 -616h-154l-190 614q-40 139 -68 252q-17 -134 -43 -250l-203 -956h-182z" />
    <glyph glyph-name="N" unicode="N" horiz-adv-x="1564" 
d="M215 0l305 1434h189l426 -961q65 -148 94 -231q20 145 37 231l204 961h185l-305 -1434h-189l-426 958q-48 107 -92 234q-14 -108 -39 -234l-203 -958h-186z" />
    <glyph glyph-name="O" unicode="O" horiz-adv-x="1583" 
d="M813 -20q-258 0 -406.5 145.5t-148.5 400.5q0 217 81 431t234 341q105 88 226.5 122t283.5 34q260 0 402.5 -142t142.5 -403q0 -231 -85.5 -447t-225.5 -327q-199 -155 -504 -155zM842 143q236 0 370 131q105 104 162.5 274t57.5 339q0 200 -95.5 301.5t-294.5 101.5
q-105 0 -184 -23.5t-147 -78.5q-124 -99 -190 -283t-66 -362q0 -194 97.5 -297t289.5 -103z" />
    <glyph glyph-name="P" unicode="P" horiz-adv-x="1302" 
d="M213 0l303 1425q222 19 395 19q253 0 369.5 -95.5t116.5 -279.5q0 -318 -209 -477q-153 -115 -486 -115q-101 0 -200 12l-103 -489h-186zM537 651q93 -10 200 -10q120 0 203.5 15t142.5 65q117 102 117 321q0 115 -71.5 176.5t-247.5 61.5q-110 0 -211 -8z" />
    <glyph glyph-name="Q" unicode="Q" horiz-adv-x="1583" 
d="M813 -20q-258 0 -406.5 145.5t-148.5 400.5q0 217 81 431t234 341q105 88 226.5 122t283.5 34q260 0 402.5 -142t142.5 -403q0 -231 -85.5 -447t-225.5 -327q-118 -93 -275 -131l238 -301h-215l-217 277h-35zM842 143q236 0 370 131q105 104 162.5 274t57.5 339
q0 200 -95.5 301.5t-294.5 101.5q-105 0 -184 -23.5t-147 -78.5q-124 -99 -190 -283t-66 -362q0 -194 97.5 -297t289.5 -103z" />
    <glyph glyph-name="R" unicode="R" horiz-adv-x="1357" 
d="M215 0l303 1425q257 19 404 19q216 0 331 -87.5t115 -266.5q0 -194 -96 -318.5t-289 -171.5l309 -600h-198l-299 573h-273l-121 -573h-186zM557 731h215q204 0 301.5 81.5t97.5 258.5q0 209 -276 209q-143 0 -223 -10z" />
    <glyph glyph-name="S" unicode="S" horiz-adv-x="1198" 
d="M596 -20q-122 0 -244.5 32t-187.5 84l45 205q70 -78 172.5 -120t218.5 -42q180 0 273.5 70.5t93.5 208.5q0 56 -26 99.5t-68 70t-96.5 52t-110.5 45.5t-110.5 50.5t-96.5 66t-68 94t-26 132.5q0 195 144 310.5t386 115.5q115 0 224.5 -23.5t178.5 -62.5l-41 -199
q-144 125 -358 125q-338 0 -338 -233q0 -55 26 -98.5t68 -69.5t96.5 -52t110.5 -46.5t110.5 -52.5t96.5 -69t68 -97.5t26 -137.5q0 -218 -149 -338t-418 -120z" />
    <glyph glyph-name="T" unicode="T" horiz-adv-x="1193" 
d="M504 0l270 1270h-452l34 164h1090l-35 -164h-453l-270 -1270h-184z" />
    <glyph glyph-name="U" unicode="U" horiz-adv-x="1505" 
d="M754 -20q-205 0 -326 98.5t-121 290.5q0 110 41 303l162 762h184l-166 -777q-36 -164 -36 -266q0 -133 74.5 -190.5t213.5 -57.5q209 0 308 92t149 324l184 875h187l-189 -877q-45 -212 -123 -336t-208.5 -182.5t-333.5 -58.5z" />
    <glyph glyph-name="V" unicode="V" horiz-adv-x="1343" 
d="M565 0l-205 1434h189l166 -1223l674 1223h202l-807 -1434h-219z" />
    <glyph glyph-name="W" unicode="W" horiz-adv-x="1923" 
d="M399 0l-2 1434h185v-893q0 -87 -9 -281q60 135 136 281l454 893h203l72 -889q13 -178 18 -285q33 98 111 285l375 889h194l-612 -1434h-207l-98 1188l-609 -1188h-211z" />
    <glyph glyph-name="X" unicode="X" horiz-adv-x="1333" 
d="M57 0l643 741l-301 693h201l244 -560l481 560h225l-604 -699l332 -735h-203l-276 604l-516 -604h-226z" />
    <glyph glyph-name="Y" unicode="Y" horiz-adv-x="1265" 
d="M541 0l118 559l-311 875h197l241 -684l527 684h215l-682 -875l-121 -559h-184z" />
    <glyph glyph-name="Z" unicode="Z" horiz-adv-x="1241" 
d="M104 0l25 117l1028 1153h-758l35 164h1014l-25 -117l-1028 -1153h795l-35 -164h-1051z" />
    <glyph glyph-name="bracketleft" unicode="[" horiz-adv-x="753" 
d="M117 -369l403 1905h471l-28 -143h-306l-344 -1618h305l-30 -144h-471z" />
    <glyph glyph-name="backslash" unicode="\" horiz-adv-x="763" 
d="M713 -369l-570 1905h154l569 -1905h-153z" />
    <glyph glyph-name="bracketright" unicode="]" horiz-adv-x="753" 
d="M8 -369l29 144h305l344 1618h-305l31 143h471l-404 -1905h-471z" />
    <glyph glyph-name="asciicircum" unicode="^" horiz-adv-x="1230" 
d="M287 727l383 707h198l383 -707h-164l-317 592l-317 -592h-166z" />
    <glyph glyph-name="underscore" unicode="_" 
d="M-63 -236h919v-133h-919v133z" />
    <glyph glyph-name="grave" unicode="`" horiz-adv-x="497" 
d="M748 1268h-148l-250 291h228z" />
    <glyph glyph-name="a" unicode="a" horiz-adv-x="1314" 
d="M983 0l16 197q-139 -217 -397 -217q-186 0 -286.5 101t-100.5 284q0 114 20 218.5t65 200.5t112 167t168 113t225 42q139 0 228 -64.5t114 -183.5l80 227h135l-229 -1085h-150zM397 397q0 -132 71 -198t202 -66q107 0 188.5 46.5t128 120.5t70.5 175l22 119q11 48 11 98
q0 123 -69.5 191.5t-205.5 68.5q-88 0 -159.5 -32t-119 -86t-79.5 -126.5t-46 -150t-14 -160.5z" />
    <glyph glyph-name="b" unicode="b" horiz-adv-x="1306" 
d="M184 0l328 1536h178l-137 -635q71 105 168.5 155t243.5 50q167 0 261.5 -107.5t94.5 -291.5q0 -109 -19 -210.5t-63.5 -196.5t-110.5 -165t-167 -112.5t-226 -42.5q-138 0 -229 72.5t-109 185.5l-78 -238h-135zM723 133q88 0 159.5 31.5t118.5 84t78.5 124t45.5 147.5
t14 158q0 134 -66.5 204t-189.5 70q-163 0 -264 -95t-132 -247l-22 -116q-33 -162 36 -261.5t222 -99.5z" />
    <glyph glyph-name="c" unicode="c" horiz-adv-x="1122" 
d="M1065 250l-37 -172q-60 -41 -156 -69.5t-208 -28.5q-212 0 -330.5 112.5t-118.5 317.5q0 320 166 508t473 188q106 0 188.5 -21t126.5 -51l-41 -180q-49 40 -125.5 69t-168.5 29q-210 0 -323.5 -136.5t-113.5 -377.5q0 -137 82 -221t244 -84q89 0 181 33t161 84z" />
    <glyph glyph-name="d" unicode="d" horiz-adv-x="1312" 
d="M979 0l20 197q-65 -108 -158 -162.5t-231 -54.5q-193 0 -294 100t-101 285q0 114 20 218.5t65 200.5t112 167t168.5 113t226.5 42q144 0 229 -64.5t103 -179.5l141 674h176l-326 -1536h-151zM397 397q0 -133 71.5 -198.5t205.5 -65.5q156 0 253 94.5t128 247.5l22 117
q33 163 -33 261.5t-225 98.5q-89 0 -161.5 -32.5t-120 -86t-80 -126.5t-46.5 -150t-14 -160z" />
    <glyph glyph-name="e" unicode="e" horiz-adv-x="1173" 
d="M659 -20q-217 0 -327.5 113t-110.5 323q0 197 74 353.5t213 246.5t319 90q212 0 307 -76.5t95 -206.5q0 -321 -559 -321h-260q-11 -63 -11 -109q0 -127 73.5 -196.5t229.5 -69.5q108 0 219.5 35.5t182.5 97.5l-33 -166q-64 -49 -177.5 -81.5t-234.5 -32.5zM688 627
q108 0 182 13.5t111 39t51.5 54t14.5 65.5q0 71 -51.5 115t-168.5 44q-311 0 -393 -331h254z" />
    <glyph glyph-name="f" unicode="f" horiz-adv-x="806" 
d="M276 932l31 153h176l35 158q36 167 129.5 235t263.5 68q106 0 174 -22l-34 -166q-65 35 -162 35q-93 0 -134.5 -34t-64.5 -138l-28 -136h321l-31 -153h-323l-199 -932h-178l199 932h-175z" />
    <glyph glyph-name="g" unicode="g" horiz-adv-x="1306" 
d="M532 -389q-226 0 -370 80l41 190q44 -45 137.5 -81t216.5 -36q187 0 282 71t126 222l39 189q-67 -111 -158.5 -168.5t-229.5 -57.5q-194 0 -293.5 96.5t-99.5 286.5q0 110 19 209t62.5 190.5t109 158t165.5 106t224 39.5q143 0 230.5 -68.5t105.5 -183.5l78 231h135
l-215 -1017q-51 -244 -199.5 -350.5t-405.5 -106.5zM680 174q81 0 148.5 27.5t113 74.5t74.5 105t43 125l18 90q33 163 -34.5 259.5t-225.5 96.5q-89 0 -159.5 -28.5t-116 -76.5t-76 -115t-43 -139.5t-12.5 -154.5q0 -135 67.5 -199.5t202.5 -64.5z" />
    <glyph glyph-name="h" unicode="h" horiz-adv-x="1280" 
d="M184 0l328 1536h174l-137 -647q146 217 416 217q164 0 240.5 -61t76.5 -189q0 -62 -18 -145l-150 -711h-178l143 676q13 67 13 112q0 90 -53 127t-173 37q-152 0 -245.5 -83.5t-122.5 -221.5l-138 -647h-176z" />
    <glyph glyph-name="i" unicode="i" horiz-adv-x="595" 
d="M385 0h-176l231 1085h176zM598 1307q-115 0 -115 106q0 52 29.5 79.5t85.5 27.5q55 0 84 -28t29 -79t-29 -78.5t-84 -27.5z" />
    <glyph glyph-name="j" unicode="j" horiz-adv-x="595" 
d="M-137 -358l35 168q47 -29 129 -29q74 0 113.5 37.5t58.5 126.5l241 1140h176l-241 -1138q-37 -172 -123.5 -249t-243.5 -77q-101 0 -145 21zM598 1307q-115 0 -115 106q0 52 29.5 79.5t85.5 27.5q55 0 84 -28t29 -79t-29 -78.5t-84 -27.5z" />
    <glyph glyph-name="k" unicode="k" horiz-adv-x="1159" 
d="M184 0l326 1536h176l-188 -895h84l485 444h223l-571 -530l385 -555h-213l-344 487h-82l-105 -487h-176z" />
    <glyph glyph-name="l" unicode="l" horiz-adv-x="669" 
d="M451 -10q-113 0 -169.5 39.5t-56.5 128.5q0 26 11 86l276 1292h176l-266 -1251q-8 -33 -8 -62q0 -45 24.5 -62.5t83.5 -17.5q55 0 131 29l-32 -149q-78 -33 -170 -33z" />
    <glyph glyph-name="m" unicode="m" horiz-adv-x="1835" 
d="M184 0l230 1085h149l-18 -194q56 102 152 158.5t221 56.5q132 0 195.5 -56t60.5 -171q115 227 397 227q141 0 206.5 -56.5t65.5 -166.5q0 -58 -14 -121l-160 -762h-176l147 707q13 60 13 96q0 78 -45.5 113.5t-147.5 35.5q-121 0 -198.5 -72.5t-104.5 -201.5l-143 -678
h-176l147 700q10 46 10 99q0 83 -43.5 118t-138.5 35q-128 0 -206.5 -74.5t-104.5 -199.5l-142 -678h-176z" />
    <glyph glyph-name="n" unicode="n" horiz-adv-x="1280" 
d="M184 0l232 1085h149l-16 -192q141 213 412 213q162 0 241.5 -58t79.5 -192q0 -66 -18 -151l-150 -705h-178l141 659q15 77 15 132q0 90 -52.5 125.5t-173.5 35.5q-149 0 -244 -81t-126 -228l-136 -643h-176z" />
    <glyph glyph-name="o" unicode="o" horiz-adv-x="1261" 
d="M215 397q0 324 168 516.5t463 192.5q190 0 307 -106.5t117 -305.5q0 -330 -155 -522t-437 -192q-228 0 -345.5 113t-117.5 304zM397 430q0 -297 293 -297q80 0 146 28.5t112 77.5t78 116.5t46.5 145t14.5 163.5q0 288 -260 288q-196 0 -313 -143t-117 -379z" />
    <glyph glyph-name="p" unicode="p" horiz-adv-x="1314" 
d="M104 -369l312 1454h145l-20 -194q65 108 159.5 161.5t235.5 53.5q192 0 292.5 -100t100.5 -283q0 -114 -20 -218.5t-65 -201t-112 -167.5t-168 -113.5t-225 -42.5q-138 0 -226 66.5t-107 174.5l-125 -590h-177zM725 133q88 0 160 32.5t120 86.5t80.5 127t47 151t14.5 160
q0 262 -275 262q-155 0 -252.5 -94t-130.5 -246l-24 -114q-34 -162 36.5 -263.5t223.5 -101.5z" />
    <glyph glyph-name="q" unicode="q" horiz-adv-x="1312" 
d="M877 -369l122 568q-66 -109 -158 -164t-231 -55q-191 0 -292 101.5t-101 285.5q0 114 20 218t65 200t112 166.5t168 112.5t225 42q143 0 230.5 -64.5t109.5 -177.5l82 221h135l-309 -1454h-178zM399 399q0 -133 71 -199.5t204 -66.5q156 0 257 96.5t130 247.5l24 117
q34 162 -35.5 260t-228.5 98q-89 0 -161.5 -32t-120 -85.5t-80 -126t-46.5 -149.5t-14 -160z" />
    <glyph glyph-name="r" unicode="r" horiz-adv-x="851" 
d="M184 0l232 1085h149l-12 -184q57 103 147 154t201 51q68 0 111 -16l-41 -181q-52 43 -146 43q-132 0 -213 -78.5t-116 -240.5l-136 -633h-176z" />
    <glyph glyph-name="s" unicode="s" horiz-adv-x="1011" 
d="M135 51l41 197q47 -54 135.5 -87.5t184.5 -33.5q282 0 282 207q0 42 -27 71.5t-70 47t-95 32t-104.5 32.5t-95.5 43.5t-70 71t-27 107.5q0 168 114.5 267.5t360.5 99.5q181 0 289 -53l-39 -191q-110 96 -277 96q-266 0 -266 -174q0 -37 21 -64t55.5 -42t78.5 -29.5
t90 -25.5t90 -31t78.5 -45t55.5 -68t21 -100q0 -195 -130.5 -297t-365.5 -102q-204 0 -330 71z" />
    <glyph glyph-name="t" unicode="t" horiz-adv-x="892" 
d="M326 305l131 627h-209l31 153h208l45 205l189 62l-57 -267h358l-33 -153h-356l-129 -613q-10 -52 -10 -77q0 -59 30.5 -79t100.5 -20q117 0 223 58l-33 -160q-37 -21 -105 -36t-141 -15q-135 0 -197.5 44.5t-62.5 151.5q0 39 17 119z" />
    <glyph glyph-name="u" unicode="u" horiz-adv-x="1265" 
d="M250 356l156 729h178l-148 -690q-12 -59 -12 -100q0 -87 50 -124.5t159 -37.5q301 0 368 311l138 641h176l-232 -1085h-151l14 195q-136 -215 -411 -215q-299 0 -299 247q0 63 14 129z" />
    <glyph glyph-name="v" unicode="v" horiz-adv-x="1097" 
d="M639 0h-180l-185 1085h189l127 -876l497 876h195z" />
    <glyph glyph-name="w" unicode="w" horiz-adv-x="1677" 
d="M350 0l-39 1085h174l23 -880l465 880h180l94 -878l393 878h185l-506 -1085h-207l-86 879l-469 -879h-207z" />
    <glyph glyph-name="x" unicode="x" horiz-adv-x="1103" 
d="M55 0l500 563l-240 522h193l180 -401l352 401h207l-463 -516l263 -569h-195l-203 444l-385 -444h-209z" />
    <glyph glyph-name="y" unicode="y" horiz-adv-x="1107" 
d="M135 -365l37 168q54 -39 111 -39q58 0 107.5 56.5t119.5 181.5l-236 1083h193l162 -872l465 872h196l-620 -1099q-65 -116 -119 -190.5t-104 -114.5t-94.5 -55t-100.5 -15q-63 0 -117 24z" />
    <glyph glyph-name="z" unicode="z" horiz-adv-x="1052" 
d="M92 0l25 117l792 815h-608l35 153h842l-23 -116l-793 -815h631l-32 -154h-869z" />
    <glyph glyph-name="braceleft" unicode="{" horiz-adv-x="800" 
d="M635 -369h-131q-76 0 -131 20t-83.5 54.5t-41 71.5t-12.5 80q0 42 16 120l61 304q19 76 19 112q0 63 -38.5 90.5t-113.5 32.5l29 135q86 4 148.5 68.5t84.5 169.5l68 309q17 83 43 141.5t70.5 105t114 69t165.5 22.5h135l-28 -143h-123q-94 0 -141.5 -46.5t-71.5 -152.5
l-66 -313q-54 -247 -260 -299q79 -18 111.5 -63t32.5 -122q0 -55 -11 -112l-63 -305q-12 -87 -12 -89q0 -57 30.5 -86.5t102.5 -29.5h125z" />
    <glyph glyph-name="bar" unicode="|" horiz-adv-x="614" 
d="M313 -369h-166l404 1905h166z" />
    <glyph glyph-name="braceright" unicode="}" horiz-adv-x="800" 
d="M8 -369l29 144h123q94 0 141.5 46t71.5 152l65 314q54 247 260 299q-79 18 -111 62.5t-32 121.5q0 61 10 113l64 305q12 87 12 88q0 57 -30.5 87t-102.5 30h-125l29 143h131q76 0 131 -20t83.5 -54t41 -71t12.5 -80t-16 -121l-62 -303q-18 -72 -18 -113q0 -63 38 -90.5
t113 -32.5l-28 -135q-86 -4 -149 -68.5t-85 -168.5l-67 -310q-17 -83 -43.5 -141.5t-71 -105t-114 -69t-165.5 -22.5h-135z" />
    <glyph glyph-name="asciitilde" unicode="~" horiz-adv-x="1230" 
d="M981 518q-58 0 -123 24.5t-112.5 53.5t-103.5 53.5t-99 24.5q-68 0 -127.5 -30.5t-100.5 -76.5v170q40 44 101.5 67t130.5 23q56 0 120 -24t113 -53.5t109 -53.5t108 -24q58 0 113 30t88 78v-178q-36 -39 -94.5 -61.5t-122.5 -22.5z" />
    <glyph glyph-name="uni00A0" unicode="&#xa0;" horiz-adv-x="593" 
 />
    <glyph glyph-name="exclamdown" unicode="&#xa1;" horiz-adv-x="788" 
d="M610 614l-200 -983h-193l219 983h174zM600 840q-129 0 -129 127q0 129 129 129t129 -129q0 -127 -129 -127z" />
    <glyph glyph-name="cent" unicode="&#xa2;" horiz-adv-x="1230" 
d="M1147 248l-39 -174q-58 -39 -151.5 -66.5t-211.5 -30.5l-47 -223h-151l49 234q-164 29 -252 140t-88 286q0 301 147.5 484t430.5 206l38 186h152l-39 -184q180 -11 266 -70l-41 -180q-120 98 -315 98q-224 0 -340.5 -134.5t-116.5 -377.5q0 -140 85.5 -225.5t260.5 -85.5
q102 0 197.5 33t165.5 84z" />
    <glyph glyph-name="sterling" unicode="&#xa3;" horiz-adv-x="1230" 
d="M299 696l27 125h192l33 154q105 479 569 479q147 0 260 -37l-37 -166q-128 39 -233 39q-161 0 -249.5 -76.5t-125.5 -246.5l-33 -146h369l-27 -125h-368l-115 -532h553l-35 -164h-927l32 164h193l115 532h-193z" />
    <glyph glyph-name="currency" unicode="&#xa4;" horiz-adv-x="1230" 
d="M381 250l-88 88l133 139q-82 102 -82 256t82 256l-133 141l88 91l133 -140q100 84 256 84q153 0 256 -82l135 140l88 -90l-133 -144q82 -108 82 -256q0 -145 -82 -256l133 -139l-90 -90l-131 137q-108 -84 -258 -84q-155 0 -256 84zM471 733q0 -134 87.5 -219.5
t211.5 -85.5q126 0 213.5 85.5t87.5 219.5q0 132 -88 219.5t-213 87.5q-124 0 -211.5 -88t-87.5 -219z" />
    <glyph glyph-name="yen" unicode="&#xa5;" horiz-adv-x="1230" 
d="M301 575l31 148h262l-246 711h197l229 -680l500 680h217l-549 -711h264l-30 -148h-347l-32 -153h346l-31 -148h-348l-57 -274h-185l58 274h-342l30 148h344l33 151l-2 2h-342z" />
    <glyph glyph-name="brokenbar" unicode="&#xa6;" horiz-adv-x="614" 
d="M147 -369l170 799h166l-170 -799h-166zM381 737l170 799h166l-170 -799h-166z" />
    <glyph glyph-name="section" unicode="&#xa7;" horiz-adv-x="1046" 
d="M1157 1405l-33 -154q-136 60 -268 60q-47 0 -91.5 -9.5t-86 -29.5t-67 -57t-25.5 -87q0 -43 39 -77.5t139 -89.5l108 -58q91 -46 142 -99.5t51 -135.5q0 -105 -72.5 -197.5t-177.5 -161.5q92 -76 92 -170q0 -109 -68.5 -193.5t-176.5 -127.5t-234 -43q-177 0 -307 59
l33 158q74 -41 140.5 -57.5t147.5 -16.5q121 0 202 49.5t81 138.5q0 42 -44 82.5t-151 98.5l-110 61q-82 43 -126 98t-44 132q0 204 252 346q-99 68 -99 174q0 91 43.5 162t115 112t153.5 61.5t168 20.5q134 0 274 -49zM606 866q-184 -111 -184 -241q0 -52 38 -92t120 -87
l137 -77q176 134 176 254q0 48 -36 87.5t-109 77.5z" />
    <glyph glyph-name="dieresis" unicode="&#xa8;" horiz-adv-x="620" 
d="M430 1309q-108 0 -108 104q0 105 108 105q111 0 111 -105q0 -104 -111 -104zM784 1309q-108 0 -108 104q0 105 108 105q111 0 111 -105q0 -104 -111 -104z" />
    <glyph glyph-name="copyright" unicode="&#xa9;" horiz-adv-x="1861" 
d="M1071 -113q-224 0 -401 99.5t-275 274t-98 392.5q0 219 98 394.5t275 275.5t401 100q167 0 311 -58.5t245 -160.5t158.5 -244.5t57.5 -306.5q0 -163 -57.5 -305t-158.5 -243.5t-245 -159.5t-311 -58zM1069 4q187 0 336 84.5t231 232.5t82 332q0 186 -82 334.5t-230.5 233
t-336.5 84.5q-186 0 -334 -84.5t-230.5 -233.5t-82.5 -334q0 -184 82.5 -332t230.5 -232.5t334 -84.5zM1098 258q-197 0 -292 104.5t-95 296.5q0 201 99.5 304.5t289.5 103.5q99 0 172 -25v-110q-57 22 -158 22q-274 0 -274 -290q0 -291 274 -291q101 0 162 30v-116
q-72 -29 -178 -29z" />
    <glyph glyph-name="ordfeminine" unicode="&#xaa;" horiz-adv-x="729" 
d="M457 766q-87 0 -131.5 40.5t-44.5 117.5q0 88 45 145.5t116 81t166 23.5h154l6 32q4 36 4 41q0 43 -32.5 62.5t-108.5 19.5q-111 0 -219 -51l24 129q107 39 240 39q124 0 179.5 -40.5t55.5 -127.5q0 -27 -10 -82l-90 -418h-119l8 109q-91 -121 -243 -121zM520 879
q81 0 139 44.5t72 110.5l8 45h-135q-81 0 -129.5 -25.5t-48.5 -92.5q0 -43 23 -62.5t71 -19.5z" />
    <glyph glyph-name="guillemotleft" unicode="&#xab;" horiz-adv-x="1169" 
d="M457 137l-199 426l367 426h182l-379 -434l197 -418h-168zM887 137l-199 426l367 426h182l-379 -434l197 -418h-168z" />
    <glyph glyph-name="logicalnot" unicode="&#xac;" horiz-adv-x="1230" 
d="M315 750h883v-463h-154v309h-729v154z" />
    <glyph glyph-name="uni00AD" unicode="&#xad;" horiz-adv-x="972" 
d="M307 477l33 154h565l-33 -154h-565z" />
    <glyph glyph-name="registered" unicode="&#xae;" horiz-adv-x="1228" 
d="M840 553q-228 0 -370 140.5t-142 365.5q0 226 142 367t370 141q230 0 372 -141t142 -367q0 -225 -142 -365.5t-372 -140.5zM840 641q186 0 303 117t117 303t-117 302t-303 116q-185 0 -302.5 -116.5t-117.5 -301.5q0 -186 117.5 -303t302.5 -117zM641 797v551h217
q36 0 64 -5.5t59.5 -21.5t49.5 -52t18 -91q0 -59 -29 -101t-72 -55l139 -225h-118l-125 209h-96v-209h-107zM748 1092h98q94 0 94 84q0 48 -24.5 64.5t-69.5 16.5h-98v-165z" />
    <glyph glyph-name="macron" unicode="&#xaf;" horiz-adv-x="702" 
d="M360 1352v123h576v-123h-576z" />
    <glyph glyph-name="degree" unicode="&#xb0;" horiz-adv-x="819" 
d="M655 858q-134 0 -219.5 84.5t-85.5 214.5t85.5 213.5t219.5 83.5q136 0 222 -83.5t86 -213.5t-86 -214.5t-222 -84.5zM655 975q83 0 135 51t52 131t-52 131t-135 51q-81 0 -132.5 -51t-51.5 -131t51.5 -131t132.5 -51z" />
    <glyph glyph-name="plusminus" unicode="&#xb1;" horiz-adv-x="1230" 
d="M694 492v339h-364v154h364v365h154v-365h364v-154h-364v-339h-154zM330 274h882v-153h-882v153z" />
    <glyph glyph-name="twosuperior" unicode="&#xb2;" 
d="M281 778l28 135l287 177q188 116 257 183.5t69 139.5q0 107 -185 107q-151 0 -274 -54l29 133q143 50 292 50q154 0 228.5 -48.5t74.5 -148.5q0 -107 -95 -204.5t-333 -237.5l-167 -101v-2h495l-29 -129h-677z" />
    <glyph glyph-name="threesuperior" unicode="&#xb3;" 
d="M569 768q-181 0 -282 41l28 131q90 -45 269 -45q49 0 92 6.5t85.5 23t67.5 50t25 80.5q0 62 -44.5 87t-141.5 25h-162l22 109h150q42 0 79.5 6.5t74.5 21t59 44t22 71.5q0 58 -44.5 80.5t-147.5 22.5q-168 0 -275 -41l27 127q114 41 320 41q282 0 282 -183
q0 -175 -260 -237l-2 -2q108 -16 151.5 -60t43.5 -114q0 -60 -28.5 -109.5t-73.5 -81.5t-104 -53.5t-117.5 -31t-115.5 -9.5z" />
    <glyph glyph-name="acute" unicode="&#xb4;" horiz-adv-x="438" 
d="M291 1270l229 286h230l-314 -286h-145z" />
    <glyph glyph-name="mu" unicode="&#xb5;" horiz-adv-x="1275" 
d="M283 -369h-177l310 1454h176l-148 -690l-2 -10q-10 -44 -10 -90q0 -87 50.5 -124.5t160.5 -37.5q302 0 369 311l135 641h178l-231 -1085h-152l14 195q-139 -215 -411 -215q-108 0 -180 43z" />
    <glyph glyph-name="mu" unicode="&#x3bc;" horiz-adv-x="1275" 
d="M283 -369h-177l310 1454h176l-148 -690l-2 -10q-10 -44 -10 -90q0 -87 50.5 -124.5t160.5 -37.5q302 0 369 311l135 641h178l-231 -1085h-152l14 195q-139 -215 -411 -215q-108 0 -180 43z" />
    <glyph glyph-name="paragraph" unicode="&#xb6;" horiz-adv-x="1212" 
d="M383 -369l238 1127q-138 0 -208.5 66.5t-70.5 179.5q0 102 38 184.5t104 135.5t153 81.5t186 28.5h477l-380 -1803h-166l350 1649h-205l-350 -1649h-166z" />
    <glyph glyph-name="periodcentered" unicode="&#xb7;" horiz-adv-x="661" 
d="M483 590q-131 0 -131 129q0 127 131 127q129 0 129 -127q0 -129 -129 -129z" />
    <glyph glyph-name="cedilla" unicode="&#xb8;" horiz-adv-x="423" 
d="M43 -182l68 182h102l-37 -98q176 -3 176 -123q0 -100 -80.5 -167t-187.5 -67q-90 0 -154 33l35 92q60 -26 115 -26q51 0 93 30.5t42 83.5q0 62 -104 62q-50 0 -68 -2z" />
    <glyph glyph-name="onesuperior" unicode="&#xb9;" 
d="M629 778l147 697l-276 -132l-35 113l379 182h121l-183 -860h-153z" />
    <glyph glyph-name="ordmasculine" unicode="&#xba;" horiz-adv-x="825" 
d="M301 1010q0 92 22 168t68 137.5t127.5 96t192.5 34.5q134 0 209 -64.5t75 -179.5q0 -208 -105.5 -322t-307.5 -114q-127 0 -204 65.5t-77 178.5zM690 1331q-126 0 -185 -81.5t-59 -217.5q0 -151 166 -151q112 0 176 80t64 219q0 151 -162 151z" />
    <glyph glyph-name="guillemotright" unicode="&#xbb;" horiz-adv-x="1169" 
d="M170 137l377 443l-195 409h168l199 -422l-369 -430h-180zM600 137l377 443l-195 409h168l199 -422l-369 -430h-180z" />
    <glyph glyph-name="onequarter" unicode="&#xbc;" horiz-adv-x="1945" 
d="M532 0h-170l1289 1434h172zM467 573l147 697l-276 -131l-35 112l379 183h121l-182 -861h-154zM1075 195l23 116l631 549h178l-117 -543h113l-25 -122h-113l-41 -195h-143l41 195h-547zM1649 317l86 410h-2l-471 -410h387z" />
    <glyph glyph-name="onehalf" unicode="&#xbd;" horiz-adv-x="1945" 
d="M471 0h-170l1288 1434h172zM467 573l147 697l-276 -131l-35 112l379 183h121l-182 -861h-154zM1194 0l29 135l286 176q188 116 257 184t69 140q0 106 -184 106q-154 0 -275 -53l29 133q140 49 293 49q154 0 228.5 -48t74.5 -148q0 -107 -95 -205t-333 -238l-168 -100v-2
h496l-29 -129h-678z" />
    <glyph glyph-name="threequarters" unicode="&#xbe;" horiz-adv-x="1945" 
d="M614 0h-170l1289 1434h172zM498 563q-182 0 -283 41l29 131q90 -45 268 -45q49 0 92 6.5t85.5 23t67.5 50t25 80.5q0 63 -44.5 88t-141.5 25h-162l23 108h149q42 0 80 6.5t75 21t59 44t22 71.5q0 58 -45 80.5t-148 22.5q-167 0 -274 -41l26 127q114 41 320 41
q283 0 283 -182q0 -176 -261 -238l-2 -2q108 -16 151.5 -60t43.5 -114q0 -60 -28.5 -109.5t-73.5 -81.5t-103.5 -53.5t-117 -31t-115.5 -9.5zM1075 195l23 116l631 549h178l-117 -543h113l-25 -122h-113l-41 -195h-143l41 195h-547zM1649 317l86 410h-2l-471 -410h387z" />
    <glyph glyph-name="questiondown" unicode="&#xbf;" horiz-adv-x="1124" 
d="M469 -389q-190 0 -289.5 79.5t-99.5 227.5q0 86 22.5 154.5t59.5 112.5t85.5 82t100 63.5t102.5 55t93.5 58t74 72.5t41.5 98h175q-15 -81 -54.5 -143t-89 -100t-106.5 -70t-110.5 -61.5t-97.5 -64.5t-70.5 -89t-26.5 -125q0 -186 239 -186q107 0 188 24.5t166 69.5
l-38 -188q-173 -70 -365 -70zM817 840q-129 0 -129 127q0 129 129 129t129 -129q0 -127 -129 -127z" />
    <glyph glyph-name="Agrave" unicode="&#xc0;" horiz-adv-x="1374" 
d="M51 0l840 1434h203l229 -1434h-186l-58 383h-614l-219 -383h-195zM952 1229l-395 -686h498zM952 1591l-184 287h225l105 -287h-146z" />
    <glyph glyph-name="Aacute" unicode="&#xc1;" horiz-adv-x="1374" 
d="M51 0l840 1434h203l229 -1434h-186l-58 383h-614l-219 -383h-195zM952 1229l-395 -686h498zM946 1567l250 307h234l-334 -307h-150z" />
    <glyph glyph-name="Acircumflex" unicode="&#xc2;" horiz-adv-x="1374" 
d="M51 0l840 1434h203l229 -1434h-186l-58 383h-614l-219 -383h-195zM952 1229l-395 -686h498zM672 1567l315 307h197l186 -307h-145l-154 207l-242 -207h-157z" />
    <glyph glyph-name="Atilde" unicode="&#xc3;" horiz-adv-x="1374" 
d="M51 0l840 1434h203l229 -1434h-186l-58 383h-614l-219 -383h-195zM952 1229l-395 -686h498zM834 1614l-107 22q7 89 58 141t126 52q10 0 20 -1t17.5 -2.5t19.5 -5t17.5 -5.5t19.5 -8t18 -8t21 -9.5t21 -9.5q12 -5 36 -16.5t33.5 -16t25 -8.5t28.5 -4q29 0 51.5 22.5
t32.5 67.5l102 -23q-9 -89 -60 -139.5t-120 -50.5q-35 0 -64 9t-92 38q-13 6 -34 17.5t-31 16t-24.5 9t-26.5 4.5q-31 0 -54.5 -22t-33.5 -70z" />
    <glyph glyph-name="Adieresis" unicode="&#xc4;" horiz-adv-x="1374" 
d="M51 0l840 1434h203l229 -1434h-186l-58 383h-614l-219 -383h-195zM952 1229l-395 -686h498zM844 1612q-113 0 -113 108q0 53 29 81t84 28q112 0 112 -109q0 -108 -112 -108zM1255 1612q-112 0 -112 108q0 109 112 109q113 0 113 -109q0 -108 -113 -108z" />
    <glyph glyph-name="Aring" unicode="&#xc5;" horiz-adv-x="1374" 
d="M51 0l840 1434h203l229 -1434h-186l-58 383h-614l-219 -383h-195zM952 1229l-395 -686h498zM1051 1518q-89 0 -146 56.5t-57 145.5t57 146t146 57t145.5 -57t56.5 -146t-56.5 -145.5t-145.5 -56.5zM1051 1618q49 0 75.5 26t26.5 76t-26.5 76.5t-75.5 26.5
q-48 0 -75.5 -27t-27.5 -76t27.5 -75.5t75.5 -26.5z" />
    <glyph glyph-name="AE" unicode="&#xc6;" horiz-adv-x="2015" 
d="M997 0l82 383h-528l-305 -383h-195l1151 1434h981l-35 -164h-696l-96 -457h635l-35 -158h-637l-102 -491h696l-35 -164h-881zM680 543h432l158 737z" />
    <glyph glyph-name="Ccedilla" unicode="&#xc7;" horiz-adv-x="1318" 
d="M719 -489q-104 0 -166 32l35 97q58 -27 129 -27q60 0 103.5 30.5t43.5 88.5q0 38 -33.5 54.5t-82.5 16.5q-52 0 -70 -4l63 183q-491 29 -491 518q0 121 31 258t100 277.5t164 230.5q199 188 534 188q217 0 373 -82l-41 -186q-141 104 -348 104q-131 0 -225 -35t-176 -118
q-96 -100 -156 -275t-60 -346q0 -375 402 -375q194 0 383 99l-39 -185q-172 -70 -342 -75l-33 -91q90 0 142.5 -32.5t52.5 -100.5q0 -111 -89 -178t-204 -67z" />
    <glyph glyph-name="Egrave" unicode="&#xc8;" horiz-adv-x="1232" 
d="M215 0l305 1434h881l-35 -164h-696l-97 -457h635l-34 -158h-635l-105 -491h696l-34 -164h-881zM922 1591l-185 287h226l104 -287h-145z" />
    <glyph glyph-name="Eacute" unicode="&#xc9;" horiz-adv-x="1232" 
d="M215 0l305 1434h881l-35 -164h-696l-97 -457h635l-34 -158h-635l-105 -491h696l-34 -164h-881zM915 1567l250 307h234l-334 -307h-150z" />
    <glyph glyph-name="Ecircumflex" unicode="&#xca;" horiz-adv-x="1232" 
d="M215 0l305 1434h881l-35 -164h-696l-97 -457h635l-34 -158h-635l-105 -491h696l-34 -164h-881zM641 1567l315 307h197l186 -307h-145l-154 207l-241 -207h-158z" />
    <glyph glyph-name="Edieresis" unicode="&#xcb;" horiz-adv-x="1232" 
d="M215 0l305 1434h881l-35 -164h-696l-97 -457h635l-34 -158h-635l-105 -491h696l-34 -164h-881zM813 1612q-113 0 -113 108q0 53 29 81t84 28q113 0 113 -109q0 -108 -113 -108zM1225 1612q-113 0 -113 108q0 53 29 81t84 28q112 0 112 -109q0 -108 -112 -108z" />
    <glyph glyph-name="Igrave" unicode="&#xcc;" horiz-adv-x="634" 
d="M225 0l305 1434h185l-305 -1434h-185zM586 1591l-185 287h226l104 -287h-145z" />
    <glyph glyph-name="Iacute" unicode="&#xcd;" horiz-adv-x="634" 
d="M225 0l305 1434h185l-305 -1434h-185zM578 1567l249 307h234l-334 -307h-149z" />
    <glyph glyph-name="Icircumflex" unicode="&#xce;" horiz-adv-x="634" 
d="M225 0l305 1434h185l-305 -1434h-185zM303 1567l315 307h197l186 -307h-145l-154 207l-241 -207h-158z" />
    <glyph glyph-name="Idieresis" unicode="&#xcf;" horiz-adv-x="634" 
d="M225 0l305 1434h185l-305 -1434h-185zM477 1612q-112 0 -112 108q0 109 112 109q113 0 113 -109q0 -108 -113 -108zM889 1612q-113 0 -113 108q0 53 29 81t84 28q112 0 112 -109q0 -108 -112 -108z" />
    <glyph glyph-name="Eth" unicode="&#xd0;" horiz-adv-x="1521" 
d="M182 666l31 143h193l133 623q197 12 422 12q140 0 249 -30t189.5 -92t123 -162.5t42.5 -235.5q0 -242 -76.5 -443t-204.5 -307q-122 -101 -279.5 -142.5t-388.5 -41.5q-189 0 -380 14l139 662h-193zM453 162q72 -8 184 -8q176 0 295.5 27.5t206.5 101.5q105 87 167 246
t62 372q0 204 -114.5 291.5t-331.5 87.5q-122 0 -234 -8l-98 -463h377l-31 -143h-377z" />
    <glyph glyph-name="Ntilde" unicode="&#xd1;" horiz-adv-x="1564" 
d="M215 0l305 1434h189l426 -961q65 -148 94 -231q20 145 37 231l204 961h185l-305 -1434h-189l-426 958q-48 107 -92 234q-14 -108 -39 -234l-203 -958h-186zM930 1614l-107 22q7 89 58.5 141t126.5 52q11 0 21.5 -1t22.5 -4.5t19 -5t22.5 -8t20 -8.5t24 -11t23.5 -11
q12 -5 36 -16.5t33.5 -16t25 -8.5t28.5 -4q29 0 51.5 22.5t32.5 67.5l102 -23q-9 -89 -60 -139.5t-120 -50.5q-35 0 -63.5 9t-91.5 38q-12 6 -34 17.5t-32 16t-24.5 9t-26.5 4.5q-31 0 -54.5 -22t-33.5 -70z" />
    <glyph glyph-name="Ograve" unicode="&#xd2;" horiz-adv-x="1583" 
d="M813 -20q-258 0 -406.5 145.5t-148.5 400.5q0 217 81 431t234 341q105 88 226.5 122t283.5 34q260 0 402.5 -142t142.5 -403q0 -231 -85.5 -447t-225.5 -327q-199 -155 -504 -155zM842 143q236 0 370 131q105 104 162.5 274t57.5 339q0 200 -95.5 301.5t-294.5 101.5
q-105 0 -184 -23.5t-147 -78.5q-124 -99 -190 -283t-66 -362q0 -194 97.5 -297t289.5 -103zM1059 1591l-185 287h226l104 -287h-145z" />
    <glyph glyph-name="Oacute" unicode="&#xd3;" horiz-adv-x="1583" 
d="M813 -20q-258 0 -406.5 145.5t-148.5 400.5q0 217 81 431t234 341q105 88 226.5 122t283.5 34q260 0 402.5 -142t142.5 -403q0 -231 -85.5 -447t-225.5 -327q-199 -155 -504 -155zM842 143q236 0 370 131q105 104 162.5 274t57.5 339q0 200 -95.5 301.5t-294.5 101.5
q-105 0 -184 -23.5t-147 -78.5q-124 -99 -190 -283t-66 -362q0 -194 97.5 -297t289.5 -103zM1051 1567l249 307h234l-334 -307h-149z" />
    <glyph glyph-name="Ocircumflex" unicode="&#xd4;" horiz-adv-x="1583" 
d="M813 -20q-258 0 -406.5 145.5t-148.5 400.5q0 217 81 431t234 341q105 88 226.5 122t283.5 34q260 0 402.5 -142t142.5 -403q0 -231 -85.5 -447t-225.5 -327q-199 -155 -504 -155zM842 143q236 0 370 131q105 104 162.5 274t57.5 339q0 200 -95.5 301.5t-294.5 101.5
q-105 0 -184 -23.5t-147 -78.5q-124 -99 -190 -283t-66 -362q0 -194 97.5 -297t289.5 -103zM776 1567l316 307h196l187 -307h-146l-153 207l-242 -207h-158z" />
    <glyph glyph-name="Otilde" unicode="&#xd5;" horiz-adv-x="1583" 
d="M813 -20q-258 0 -406.5 145.5t-148.5 400.5q0 217 81 431t234 341q105 88 226.5 122t283.5 34q260 0 402.5 -142t142.5 -403q0 -231 -85.5 -447t-225.5 -327q-199 -155 -504 -155zM842 143q236 0 370 131q105 104 162.5 274t57.5 339q0 200 -95.5 301.5t-294.5 101.5
q-105 0 -184 -23.5t-147 -78.5q-124 -99 -190 -283t-66 -362q0 -194 97.5 -297t289.5 -103zM940 1614l-106 22q7 89 58 141t126 52q11 0 21.5 -1t22.5 -4.5t19 -5t22.5 -8t20 -8.5t24 -11t23.5 -11q12 -5 36 -16.5t33.5 -16t25 -8.5t28.5 -4q29 0 51.5 22.5t32.5 67.5
l103 -23q-9 -89 -60.5 -139.5t-120.5 -50.5q-35 0 -63.5 9t-91.5 38q-12 6 -34 17.5t-32 16t-24.5 9t-26.5 4.5q-31 0 -54.5 -22t-33.5 -70z" />
    <glyph glyph-name="Odieresis" unicode="&#xd6;" horiz-adv-x="1583" 
d="M813 -20q-258 0 -406.5 145.5t-148.5 400.5q0 217 81 431t234 341q105 88 226.5 122t283.5 34q260 0 402.5 -142t142.5 -403q0 -231 -85.5 -447t-225.5 -327q-199 -155 -504 -155zM842 143q236 0 370 131q105 104 162.5 274t57.5 339q0 200 -95.5 301.5t-294.5 101.5
q-105 0 -184 -23.5t-147 -78.5q-124 -99 -190 -283t-66 -362q0 -194 97.5 -297t289.5 -103zM950 1612q-112 0 -112 108q0 109 112 109q113 0 113 -109q0 -108 -113 -108zM1362 1612q-113 0 -113 108q0 53 29 81t84 28q113 0 113 -109q0 -108 -113 -108z" />
    <glyph glyph-name="multiply" unicode="&#xd7;" horiz-adv-x="1230" 
d="M479 289l-106 106l276 279l-276 276l106 109l279 -279l276 279l109 -109l-279 -276l279 -279l-109 -106l-276 276z" />
    <glyph glyph-name="Oslash" unicode="&#xd8;" horiz-adv-x="1583" 
d="M813 -20q-242 0 -383 120l-168 -174l-84 72l178 184q-98 137 -98 344q0 217 81 431t234 341q105 88 226.5 122t283.5 34q248 0 385 -125l162 168l82 -74l-172 -178q88 -133 88 -336q0 -231 -85.5 -447t-225.5 -327q-199 -155 -504 -155zM455 543q0 -134 41 -217l837 866
q-94 98 -291 98q-105 0 -184 -23.5t-147 -78.5q-124 -99 -190 -283t-66 -362zM842 143q236 0 370 131q104 106 162 275.5t58 337.5q0 125 -37 209l-834 -860q96 -93 281 -93z" />
    <glyph glyph-name="Ugrave" unicode="&#xd9;" horiz-adv-x="1505" 
d="M754 -20q-205 0 -326 98.5t-121 290.5q0 110 41 303l162 762h184l-166 -777q-36 -164 -36 -266q0 -133 74.5 -190.5t213.5 -57.5q209 0 308 92t149 324l184 875h187l-189 -877q-45 -212 -123 -336t-208.5 -182.5t-333.5 -58.5zM1022 1591l-184 287h225l104 -287h-145z
" />
    <glyph glyph-name="Uacute" unicode="&#xda;" horiz-adv-x="1505" 
d="M754 -20q-205 0 -326 98.5t-121 290.5q0 110 41 303l162 762h184l-166 -777q-36 -164 -36 -266q0 -133 74.5 -190.5t213.5 -57.5q209 0 308 92t149 324l184 875h187l-189 -877q-45 -212 -123 -336t-208.5 -182.5t-333.5 -58.5zM1012 1567l250 307h233l-334 -307h-149z
" />
    <glyph glyph-name="Ucircumflex" unicode="&#xdb;" horiz-adv-x="1505" 
d="M754 -20q-205 0 -326 98.5t-121 290.5q0 110 41 303l162 762h184l-166 -777q-36 -164 -36 -266q0 -133 74.5 -190.5t213.5 -57.5q209 0 308 92t149 324l184 875h187l-189 -877q-45 -212 -123 -336t-208.5 -182.5t-333.5 -58.5zM737 1567l316 307h196l187 -307h-146
l-153 207l-242 -207h-158z" />
    <glyph glyph-name="Udieresis" unicode="&#xdc;" horiz-adv-x="1505" 
d="M754 -20q-205 0 -326 98.5t-121 290.5q0 110 41 303l162 762h184l-166 -777q-36 -164 -36 -266q0 -133 74.5 -190.5t213.5 -57.5q209 0 308 92t149 324l184 875h187l-189 -877q-45 -212 -123 -336t-208.5 -182.5t-333.5 -58.5zM911 1612q-112 0 -112 108q0 109 112 109
q113 0 113 -109q0 -108 -113 -108zM1323 1612q-113 0 -113 108q0 53 29 81t84 28q113 0 113 -109q0 -108 -113 -108z" />
    <glyph glyph-name="Yacute" unicode="&#xdd;" horiz-adv-x="1265" 
d="M541 0l118 559l-311 875h197l241 -684l527 684h215l-682 -875l-121 -559h-184zM889 1567l250 307h233l-334 -307h-149z" />
    <glyph glyph-name="Thorn" unicode="&#xde;" horiz-adv-x="1302" 
d="M215 0l303 1434h184l-45 -217q183 6 209 6q486 0 486 -375q0 -162 -47 -278t-139.5 -184.5t-217 -100t-291.5 -31.5q-119 0 -202 6l-56 -260h-184zM489 424q89 -6 201 -6q117 0 199.5 19t143.5 63.5t90.5 123t29.5 193.5q0 118 -71 180t-248 62q-112 0 -211 -8z" />
    <glyph glyph-name="germandbls" unicode="&#xdf;" horiz-adv-x="1294" 
d="M186 0l215 1022q55 262 196.5 398t403.5 136q159 0 254 -69.5t95 -210.5q0 -151 -83 -271t-227 -165l-2 -6q115 -15 173.5 -84t58.5 -185q0 -154 -69.5 -288.5t-197.5 -217t-284 -82.5q-98 0 -166 23l31 154q68 -21 141 -21q112 0 196 60.5t125 153.5t41 202
q0 111 -64.5 155t-176.5 44h-105l33 147h88q87 0 157.5 48t108 124.5t37.5 161.5q0 84 -54.5 129t-154.5 45q-297 0 -374 -365l-220 -1038h-176z" />
    <glyph glyph-name="agrave" unicode="&#xe0;" horiz-adv-x="1314" 
d="M983 0l16 197q-139 -217 -397 -217q-186 0 -286.5 101t-100.5 284q0 114 20 218.5t65 200.5t112 167t168 113t225 42q139 0 228 -64.5t114 -183.5l80 227h135l-229 -1085h-150zM397 397q0 -132 71 -198t202 -66q107 0 188.5 46.5t128 120.5t70.5 175l22 119q11 48 11 98
q0 123 -69.5 191.5t-205.5 68.5q-88 0 -159.5 -32t-119 -86t-79.5 -126.5t-46 -150t-14 -160.5zM965 1268h-148l-250 291h228z" />
    <glyph glyph-name="aacute" unicode="&#xe1;" horiz-adv-x="1314" 
d="M983 0l16 197q-139 -217 -397 -217q-186 0 -286.5 101t-100.5 284q0 114 20 218.5t65 200.5t112 167t168 113t225 42q139 0 228 -64.5t114 -183.5l80 227h135l-229 -1085h-150zM397 397q0 -132 71 -198t202 -66q107 0 188.5 46.5t128 120.5t70.5 175l22 119q11 48 11 98
q0 123 -69.5 191.5t-205.5 68.5q-88 0 -159.5 -32t-119 -86t-79.5 -126.5t-46 -150t-14 -160.5zM817 1270l230 286h229l-313 -286h-146z" />
    <glyph glyph-name="acircumflex" unicode="&#xe2;" horiz-adv-x="1314" 
d="M983 0l16 197q-139 -217 -397 -217q-186 0 -286.5 101t-100.5 284q0 114 20 218.5t65 200.5t112 167t168 113t225 42q139 0 228 -64.5t114 -183.5l80 227h135l-229 -1085h-150zM397 397q0 -132 71 -198t202 -66q107 0 188.5 46.5t128 120.5t70.5 175l22 119q11 48 11 98
q0 123 -69.5 191.5t-205.5 68.5q-88 0 -159.5 -32t-119 -86t-79.5 -126.5t-46 -150t-14 -160.5zM567 1270l287 286h190l166 -286h-141l-133 188l-213 -188h-156z" />
    <glyph glyph-name="atilde" unicode="&#xe3;" horiz-adv-x="1314" 
d="M983 0l16 197q-139 -217 -397 -217q-186 0 -286.5 101t-100.5 284q0 114 20 218.5t65 200.5t112 167t168 113t225 42q139 0 228 -64.5t114 -183.5l80 227h135l-229 -1085h-150zM397 397q0 -132 71 -198t202 -66q107 0 188.5 46.5t128 120.5t70.5 175l22 119q11 48 11 98
q0 123 -69.5 191.5t-205.5 68.5q-88 0 -159.5 -32t-119 -86t-79.5 -126.5t-46 -150t-14 -160.5zM713 1307l-105 22q6 90 53 141.5t121 51.5q9 0 19 -1t17.5 -2.5t19 -5t17 -5.5t19 -8t18.5 -8t21 -9.5t21 -9.5q8 -4 29 -13.5t28.5 -12.5t21 -8.5t23.5 -7t21 -1.5q57 0 73 90
l105 -25q-9 -90 -56.5 -140t-115.5 -50q-35 0 -65 9.5t-91 39.5q-14 6 -33.5 16t-30 15.5t-24.5 9.5t-28 4q-59 0 -78 -92z" />
    <glyph glyph-name="adieresis" unicode="&#xe4;" horiz-adv-x="1314" 
d="M983 0l16 197q-139 -217 -397 -217q-186 0 -286.5 101t-100.5 284q0 114 20 218.5t65 200.5t112 167t168 113t225 42q139 0 228 -64.5t114 -183.5l80 227h135l-229 -1085h-150zM397 397q0 -132 71 -198t202 -66q107 0 188.5 46.5t128 120.5t70.5 175l22 119q11 48 11 98
q0 123 -69.5 191.5t-205.5 68.5q-88 0 -159.5 -32t-119 -86t-79.5 -126.5t-46 -150t-14 -160.5zM741 1309q-108 0 -108 104q0 105 108 105q111 0 111 -105q0 -104 -111 -104zM1096 1309q-109 0 -109 104q0 105 109 105q110 0 110 -105q0 -104 -110 -104z" />
    <glyph glyph-name="aring" unicode="&#xe5;" horiz-adv-x="1314" 
d="M983 0l16 197q-139 -217 -397 -217q-186 0 -286.5 101t-100.5 284q0 114 20 218.5t65 200.5t112 167t168 113t225 42q139 0 228 -64.5t114 -183.5l80 227h135l-229 -1085h-150zM397 397q0 -132 71 -198t202 -66q107 0 188.5 46.5t128 120.5t70.5 175l22 119q11 48 11 98
q0 123 -69.5 191.5t-205.5 68.5q-88 0 -159.5 -32t-119 -86t-79.5 -126.5t-46 -150t-14 -160.5zM918 1214q-89 0 -144 55t-55 144t55 144t144 55t143.5 -55t54.5 -144t-54.5 -144t-143.5 -55zM918 1315q46 0 73 26t27 72t-27 73t-73 27t-72.5 -27t-26.5 -73t26.5 -72
t72.5 -26z" />
    <glyph glyph-name="ae" unicode="&#xe6;" horiz-adv-x="1859" 
d="M1350 500h-258q-5 -49 -5 -109q0 -266 312 -266q101 0 207 39t182 96l-33 -168q-62 -43 -160.5 -77.5t-203.5 -34.5q-78 0 -140 9.5t-121 33.5t-104 69.5t-74 112.5q-60 -74 -119 -120t-152.5 -75.5t-215.5 -29.5q-145 0 -224 66t-79 183q0 91 26.5 160t72.5 113.5
t115 73t147 40t175 11.5h244q3 12 9.5 39t10.5 43.5t7.5 42.5t3.5 51q0 83 -56 119t-174 36q-96 0 -201.5 -34.5t-172.5 -81.5l39 186q64 31 171 54t205 24q47 0 70 -2q120 -6 185 -43t87 -111q149 156 410 156q188 0 282.5 -76t94.5 -209q0 -321 -563 -321zM1503 958
q-147 0 -245.5 -83.5t-139.5 -249.5h252q187 0 277 41t90 127q0 44 -19.5 77t-53.5 51.5t-74 27.5t-87 9zM688 502q-62 0 -108.5 -5t-92 -19.5t-74.5 -39t-47 -66t-18 -98.5q0 -71 50.5 -110t146.5 -39q144 0 236.5 80t119.5 215l17 82h-230z" />
    <glyph glyph-name="ccedilla" unicode="&#xe7;" horiz-adv-x="1122" 
d="M557 -182l59 162q-190 12 -295.5 125t-105.5 307q0 211 71.5 365.5t217 241.5t350.5 87q106 0 188.5 -21t126.5 -51l-41 -180q-49 40 -125.5 69t-168.5 29q-210 0 -323.5 -136t-113.5 -376q0 -138 82 -223.5t244 -85.5q89 0 181 33t161 84l-37 -172q-52 -35 -133 -62
t-176 -34l-29 -78q176 -3 176 -123q0 -100 -80.5 -167t-187.5 -67q-90 0 -154 33l35 92q60 -26 115 -26q51 0 93 30.5t42 83.5q0 62 -104 62q-50 0 -68 -2z" />
    <glyph glyph-name="egrave" unicode="&#xe8;" horiz-adv-x="1173" 
d="M659 -20q-217 0 -327.5 113t-110.5 323q0 197 74 353.5t213 246.5t319 90q212 0 307 -76.5t95 -206.5q0 -321 -559 -321h-260q-11 -63 -11 -109q0 -127 73.5 -196.5t229.5 -69.5q108 0 219.5 35.5t182.5 97.5l-33 -166q-64 -49 -177.5 -81.5t-234.5 -32.5zM688 627
q108 0 182 13.5t111 39t51.5 54t14.5 65.5q0 71 -51.5 115t-168.5 44q-311 0 -393 -331h254zM930 1268h-148l-250 291h228z" />
    <glyph glyph-name="eacute" unicode="&#xe9;" horiz-adv-x="1173" 
d="M659 -20q-217 0 -327.5 113t-110.5 323q0 197 74 353.5t213 246.5t319 90q212 0 307 -76.5t95 -206.5q0 -321 -559 -321h-260q-11 -63 -11 -109q0 -127 73.5 -196.5t229.5 -69.5q108 0 219.5 35.5t182.5 97.5l-33 -166q-64 -49 -177.5 -81.5t-234.5 -32.5zM688 627
q108 0 182 13.5t111 39t51.5 54t14.5 65.5q0 71 -51.5 115t-168.5 44q-311 0 -393 -331h254zM782 1270l230 286h229l-313 -286h-146z" />
    <glyph glyph-name="ecircumflex" unicode="&#xea;" horiz-adv-x="1173" 
d="M659 -20q-217 0 -327.5 113t-110.5 323q0 197 74 353.5t213 246.5t319 90q212 0 307 -76.5t95 -206.5q0 -321 -559 -321h-260q-11 -63 -11 -109q0 -127 73.5 -196.5t229.5 -69.5q108 0 219.5 35.5t182.5 97.5l-33 -166q-64 -49 -177.5 -81.5t-234.5 -32.5zM688 627
q108 0 182 13.5t111 39t51.5 54t14.5 65.5q0 71 -51.5 115t-168.5 44q-311 0 -393 -331h254zM532 1270l287 286h191l166 -286h-142l-133 188l-213 -188h-156z" />
    <glyph glyph-name="edieresis" unicode="&#xeb;" horiz-adv-x="1173" 
d="M659 -20q-217 0 -327.5 113t-110.5 323q0 197 74 353.5t213 246.5t319 90q212 0 307 -76.5t95 -206.5q0 -321 -559 -321h-260q-11 -63 -11 -109q0 -127 73.5 -196.5t229.5 -69.5q108 0 219.5 35.5t182.5 97.5l-33 -166q-64 -49 -177.5 -81.5t-234.5 -32.5zM688 627
q108 0 182 13.5t111 39t51.5 54t14.5 65.5q0 71 -51.5 115t-168.5 44q-311 0 -393 -331h254zM707 1309q-109 0 -109 104q0 105 109 105q110 0 110 -105q0 -104 -110 -104zM1061 1309q-109 0 -109 104q0 105 109 105q110 0 110 -105q0 -104 -110 -104z" />
    <glyph glyph-name="igrave" unicode="&#xec;" horiz-adv-x="595" 
d="M385 0h-176l231 1085h176zM641 1268h-147l-250 291h227z" />
    <glyph glyph-name="iacute" unicode="&#xed;" horiz-adv-x="595" 
d="M385 0h-176l231 1085h176zM498 1270l229 286h229l-313 -286h-145z" />
    <glyph glyph-name="icircumflex" unicode="&#xee;" horiz-adv-x="595" 
d="M385 0h-176l231 1085h176zM246 1270l286 286h191l166 -286h-141l-134 188l-213 -188h-155z" />
    <glyph glyph-name="idieresis" unicode="&#xef;" horiz-adv-x="595" 
d="M385 0h-176l231 1085h176zM418 1309q-109 0 -109 104q0 105 109 105q110 0 110 -105q0 -104 -110 -104zM772 1309q-108 0 -108 104q0 105 108 105q111 0 111 -105q0 -104 -111 -104z" />
    <glyph glyph-name="eth" unicode="&#xf0;" horiz-adv-x="1210" 
d="M643 1157l-33 86l226 105q-104 68 -252 104l80 123q198 -47 333 -152l293 136l33 -89l-250 -114q193 -202 193 -522q0 -393 -179 -623.5t-479 -230.5q-197 0 -299 93t-102 273q0 209 76.5 373.5t213 255t308.5 90.5q90 0 165 -43t113 -115l7 4q-6 217 -172 373zM643 133
q118 0 216 71t154 195.5t56 274.5q0 119 -65.5 181.5t-192.5 62.5q-185 0 -303.5 -149.5t-118.5 -387.5q0 -126 67 -187t187 -61z" />
    <glyph glyph-name="ntilde" unicode="&#xf1;" horiz-adv-x="1280" 
d="M184 0l232 1085h149l-16 -192q141 213 412 213q162 0 241.5 -58t79.5 -192q0 -66 -18 -151l-150 -705h-178l141 659q15 77 15 132q0 90 -52.5 125.5t-173.5 35.5q-149 0 -244 -81t-126 -228l-136 -643h-176zM737 1307l-104 22q6 90 53 141.5t121 51.5q11 0 21 -1
t21.5 -4.5t19 -5t22 -8t20 -8.5t24 -11t23.5 -11q8 -4 29 -13.5t28.5 -12.5t21 -8.5t23.5 -7t21 -1.5q58 0 74 90l105 -25q-9 -90 -57 -140t-116 -50q-34 0 -64 9.5t-91 39.5q-14 6 -33.5 16t-30 15.5t-25 9.5t-28.5 4q-59 0 -78 -92z" />
    <glyph glyph-name="ograve" unicode="&#xf2;" horiz-adv-x="1261" 
d="M215 397q0 324 168 516.5t463 192.5q190 0 307 -106.5t117 -305.5q0 -330 -155 -522t-437 -192q-228 0 -345.5 113t-117.5 304zM397 430q0 -297 293 -297q80 0 146 28.5t112 77.5t78 116.5t46.5 145t14.5 163.5q0 288 -260 288q-196 0 -313 -143t-117 -379zM971 1268
h-148l-250 291h228z" />
    <glyph glyph-name="oacute" unicode="&#xf3;" horiz-adv-x="1261" 
d="M215 397q0 324 168 516.5t463 192.5q190 0 307 -106.5t117 -305.5q0 -330 -155 -522t-437 -192q-228 0 -345.5 113t-117.5 304zM397 430q0 -297 293 -297q80 0 146 28.5t112 77.5t78 116.5t46.5 145t14.5 163.5q0 288 -260 288q-196 0 -313 -143t-117 -379zM827 1270
l230 286h229l-313 -286h-146z" />
    <glyph glyph-name="ocircumflex" unicode="&#xf4;" horiz-adv-x="1261" 
d="M215 397q0 324 168 516.5t463 192.5q190 0 307 -106.5t117 -305.5q0 -330 -155 -522t-437 -192q-228 0 -345.5 113t-117.5 304zM397 430q0 -297 293 -297q80 0 146 28.5t112 77.5t78 116.5t46.5 145t14.5 163.5q0 288 -260 288q-196 0 -313 -143t-117 -379zM573 1270
l287 286h191l166 -286h-142l-133 188l-213 -188h-156z" />
    <glyph glyph-name="otilde" unicode="&#xf5;" horiz-adv-x="1261" 
d="M215 397q0 324 168 516.5t463 192.5q190 0 307 -106.5t117 -305.5q0 -330 -155 -522t-437 -192q-228 0 -345.5 113t-117.5 304zM397 430q0 -297 293 -297q80 0 146 28.5t112 77.5t78 116.5t46.5 145t14.5 163.5q0 288 -260 288q-196 0 -313 -143t-117 -379zM719 1307
l-105 22q6 90 53 141.5t121 51.5q9 0 19 -1t17.5 -2.5t19 -5t17 -5.5t19 -8t18.5 -8t21 -9.5t21 -9.5q8 -4 29 -13.5t28.5 -12.5t21 -8.5t23.5 -7t21 -1.5q58 0 74 90l104 -25q-9 -90 -56.5 -140t-115.5 -50q-35 0 -65 9.5t-91 39.5q-14 6 -33.5 16t-30 15.5t-24.5 9.5
t-28 4q-59 0 -78 -92z" />
    <glyph glyph-name="odieresis" unicode="&#xf6;" horiz-adv-x="1261" 
d="M215 397q0 324 168 516.5t463 192.5q190 0 307 -106.5t117 -305.5q0 -330 -155 -522t-437 -192q-228 0 -345.5 113t-117.5 304zM397 430q0 -297 293 -297q80 0 146 28.5t112 77.5t78 116.5t46.5 145t14.5 163.5q0 288 -260 288q-196 0 -313 -143t-117 -379zM748 1309
q-109 0 -109 104q0 105 109 105q110 0 110 -105q0 -104 -110 -104zM1102 1309q-109 0 -109 104q0 105 109 105q110 0 110 -105q0 -104 -110 -104z" />
    <glyph glyph-name="divide" unicode="&#xf7;" horiz-adv-x="1230" 
d="M315 750h883v-154h-883v154zM758 205q-131 0 -131 129q0 127 131 127q129 0 129 -127q0 -129 -129 -129zM758 885q-131 0 -131 129q0 127 131 127q129 0 129 -127q0 -129 -129 -129z" />
    <glyph glyph-name="oslash" unicode="&#xf8;" horiz-adv-x="1265" 
d="M219 397q0 324 168 516.5t463 192.5q173 0 289 -90l133 141l74 -65l-142 -146q70 -98 70 -248q0 -218 -68 -378.5t-202 -250t-322 -89.5q-206 0 -322 90l-137 -142l-73 64l143 147q-74 103 -74 258zM1092 668q0 75 -23 139l-586 -612q71 -62 211 -62q80 0 146.5 28.5
t112.5 78.5t77.5 118.5t46.5 146t15 163.5zM401 430q0 -90 25 -154l590 615q-64 61 -185 61q-196 0 -313 -143t-117 -379z" />
    <glyph glyph-name="ugrave" unicode="&#xf9;" horiz-adv-x="1265" 
d="M250 356l156 729h178l-148 -690q-12 -59 -12 -100q0 -87 50 -124.5t159 -37.5q301 0 368 311l138 641h176l-232 -1085h-151l14 195q-136 -215 -411 -215q-299 0 -299 247q0 63 14 129zM969 1268h-148l-250 291h228z" />
    <glyph glyph-name="uacute" unicode="&#xfa;" horiz-adv-x="1265" 
d="M250 356l156 729h178l-148 -690q-12 -59 -12 -100q0 -87 50 -124.5t159 -37.5q301 0 368 311l138 641h176l-232 -1085h-151l14 195q-136 -215 -411 -215q-299 0 -299 247q0 63 14 129zM827 1270l230 286h229l-313 -286h-146z" />
    <glyph glyph-name="ucircumflex" unicode="&#xfb;" horiz-adv-x="1265" 
d="M250 356l156 729h178l-148 -690q-12 -59 -12 -100q0 -87 50 -124.5t159 -37.5q301 0 368 311l138 641h176l-232 -1085h-151l14 195q-136 -215 -411 -215q-299 0 -299 247q0 63 14 129zM573 1270l287 286h191l166 -286h-142l-133 188l-213 -188h-156z" />
    <glyph glyph-name="udieresis" unicode="&#xfc;" horiz-adv-x="1265" 
d="M250 356l156 729h178l-148 -690q-12 -59 -12 -100q0 -87 50 -124.5t159 -37.5q301 0 368 311l138 641h176l-232 -1085h-151l14 195q-136 -215 -411 -215q-299 0 -299 247q0 63 14 129zM748 1309q-109 0 -109 104q0 105 109 105q110 0 110 -105q0 -104 -110 -104z
M1102 1309q-109 0 -109 104q0 105 109 105q110 0 110 -105q0 -104 -110 -104z" />
    <glyph glyph-name="yacute" unicode="&#xfd;" horiz-adv-x="1107" 
d="M135 -365l37 168q54 -39 111 -39q58 0 107.5 56.5t119.5 181.5l-236 1083h193l162 -872l465 872h196l-620 -1099q-65 -116 -119 -190.5t-104 -114.5t-94.5 -55t-100.5 -15q-63 0 -117 24zM752 1270l229 286h229l-313 -286h-145z" />
    <glyph glyph-name="thorn" unicode="&#xfe;" horiz-adv-x="1314" 
d="M104 -369l408 1905h176l-139 -647q66 109 156 163t227 54q193 0 294 -100.5t101 -284.5q0 -114 -19.5 -218.5t-64.5 -200.5t-111.5 -167t-166.5 -113t-224 -42q-141 0 -228.5 65.5t-106.5 173.5l-125 -588h-177zM733 133q85 0 155.5 32.5t117.5 86t79 125.5t46 149
t14 158q0 135 -69 201.5t-197 66.5q-161 0 -260 -95t-130 -247l-24 -114q-36 -161 37 -262t231 -101z" />
    <glyph glyph-name="ydieresis" unicode="&#xff;" horiz-adv-x="1107" 
d="M135 -365l37 168q54 -39 111 -39q58 0 107.5 56.5t119.5 181.5l-236 1083h193l162 -872l465 872h196l-620 -1099q-65 -116 -119 -190.5t-104 -114.5t-94.5 -55t-100.5 -15q-63 0 -117 24zM674 1309q-109 0 -109 104q0 105 109 105q110 0 110 -105q0 -104 -110 -104z
M1028 1309q-108 0 -108 104q0 105 108 105q111 0 111 -105q0 -104 -111 -104z" />
    <glyph glyph-name="Amacron" unicode="&#x100;" horiz-adv-x="1374" 
d="M51 0l840 1434h203l229 -1434h-186l-58 383h-614l-219 -383h-195zM952 1229l-395 -686h498zM748 1655v131h610v-131h-610z" />
    <glyph glyph-name="amacron" unicode="&#x101;" horiz-adv-x="1314" 
d="M983 0l16 197q-139 -217 -397 -217q-186 0 -286.5 101t-100.5 284q0 114 20 218.5t65 200.5t112 167t168 113t225 42q139 0 228 -64.5t114 -183.5l80 227h135l-229 -1085h-150zM397 397q0 -132 71 -198t202 -66q107 0 188.5 46.5t128 120.5t70.5 175l22 119q11 48 11 98
q0 123 -69.5 191.5t-205.5 68.5q-88 0 -159.5 -32t-119 -86t-79.5 -126.5t-46 -150t-14 -160.5zM631 1352v123h575v-123h-575z" />
    <glyph glyph-name="Abreve" unicode="&#x102;" horiz-adv-x="1374" 
d="M51 0l840 1434h203l229 -1434h-186l-58 383h-614l-219 -383h-195zM952 1229l-395 -686h498zM760 1831l121 33q8 -80 47 -121t121 -41q81 0 137.5 40.5t99.5 121.5l107 -33q-125 -254 -371 -254q-122 0 -188 64.5t-74 189.5z" />
    <glyph glyph-name="abreve" unicode="&#x103;" horiz-adv-x="1314" 
d="M983 0l16 197q-139 -217 -397 -217q-186 0 -286.5 101t-100.5 284q0 114 20 218.5t65 200.5t112 167t168 113t225 42q139 0 228 -64.5t114 -183.5l80 227h135l-229 -1085h-150zM397 397q0 -132 71 -198t202 -66q107 0 188.5 46.5t128 120.5t70.5 175l22 119q11 48 11 98
q0 123 -69.5 191.5t-205.5 68.5q-88 0 -159.5 -32t-119 -86t-79.5 -126.5t-46 -150t-14 -160.5zM629 1522l116 34q8 -80 48 -121.5t122 -41.5q154 0 242 163l103 -34q-128 -252 -371 -252q-242 0 -260 252z" />
    <glyph glyph-name="Aogonek" unicode="&#x104;" horiz-adv-x="1374" 
d="M1087 -489q-93 0 -138.5 38.5t-45.5 104.5q0 180 268 346h-34l-58 383h-614l-219 -383h-195l840 1434h203l229 -1434h-39q-54 -35 -102 -76.5t-88.5 -102.5t-40.5 -116q0 -38 28 -59t78 -21q73 0 135 33l-22 -107q-89 -40 -185 -40zM952 1229l-395 -686h498z" />
    <glyph glyph-name="aogonek" unicode="&#x105;" horiz-adv-x="1314" 
d="M983 0l16 197q-139 -217 -397 -217q-186 0 -286.5 101t-100.5 284q0 114 20 218.5t65.5 200.5t112.5 167t168.5 113t225.5 42q139 0 228 -64.5t114 -183.5l80 227h135l-231 -1085h-31q-85 -54 -146 -123.5t-61 -148.5q0 -76 90 -76q61 0 123 33l-21 -101
q-88 -39 -165 -39q-88 0 -132.5 39t-44.5 101q0 164 244 315h-6zM397 397q0 -132 71 -198t202 -66q107 0 188.5 46.5t128 120.5t70.5 175l24 119q11 48 11 98q0 123 -69.5 191.5t-205.5 68.5q-109 0 -192.5 -48.5t-131.5 -129.5t-72 -176.5t-24 -200.5z" />
    <glyph glyph-name="Cacute" unicode="&#x106;" horiz-adv-x="1318" 
d="M1452 1374l-41 -186q-138 102 -348 102q-131 0 -225 -35t-176 -118q-96 -100 -156 -275t-60 -346q0 -373 402 -373q198 0 383 97l-39 -185q-186 -75 -377 -75q-565 0 -565 520q0 121 31 258t100 277.5t164 230.5q199 188 534 188q221 0 373 -80zM1032 1567l250 307h234
l-334 -307h-150z" />
    <glyph glyph-name="cacute" unicode="&#x107;" horiz-adv-x="1122" 
d="M1065 250l-37 -172q-60 -41 -156 -69.5t-208 -28.5q-212 0 -330.5 112.5t-118.5 317.5q0 320 166 508t473 188q106 0 188.5 -21t126.5 -51l-41 -180q-49 40 -125.5 69t-168.5 29q-210 0 -323.5 -136.5t-113.5 -377.5q0 -137 82 -221t244 -84q89 0 181 33t161 84z
M819 1270l230 286h229l-313 -286h-146z" />
    <glyph glyph-name="Ccircumflex" unicode="&#x108;" horiz-adv-x="1318" 
d="M1452 1374l-41 -186q-138 102 -348 102q-131 0 -225 -35t-176 -118q-96 -100 -156 -275t-60 -346q0 -373 402 -373q198 0 383 97l-39 -185q-186 -75 -377 -75q-565 0 -565 520q0 121 31 258t100 277.5t164 230.5q199 188 534 188q221 0 373 -80zM758 1567l315 307h197
l186 -307h-145l-154 207l-242 -207h-157z" />
    <glyph glyph-name="ccircumflex" unicode="&#x109;" horiz-adv-x="1122" 
d="M1065 250l-37 -172q-60 -41 -156 -69.5t-208 -28.5q-212 0 -330.5 112.5t-118.5 317.5q0 320 166 508t473 188q106 0 188.5 -21t126.5 -51l-41 -180q-49 40 -125.5 69t-168.5 29q-210 0 -323.5 -136.5t-113.5 -377.5q0 -137 82 -221t244 -84q89 0 181 33t161 84z
M573 1270l287 286h191l166 -286h-142l-133 188l-213 -188h-156z" />
    <glyph glyph-name="Cdotaccent" unicode="&#x10a;" horiz-adv-x="1318" 
d="M1452 1374l-41 -186q-138 102 -348 102q-131 0 -225 -35t-176 -118q-96 -100 -156 -275t-60 -346q0 -373 402 -373q198 0 383 97l-39 -185q-186 -75 -377 -75q-565 0 -565 520q0 121 31 258t100 277.5t164 230.5q199 188 534 188q221 0 373 -80zM1139 1610
q-115 0 -115 110q0 111 115 111q114 0 114 -111q0 -110 -114 -110z" />
    <glyph glyph-name="cdotaccent" unicode="&#x10b;" horiz-adv-x="1122" 
d="M1065 250l-37 -172q-60 -41 -156 -69.5t-208 -28.5q-212 0 -330.5 112.5t-118.5 317.5q0 320 166 508t473 188q106 0 188.5 -21t126.5 -51l-41 -180q-49 40 -125.5 69t-168.5 29q-210 0 -323.5 -136.5t-113.5 -377.5q0 -137 82 -221t244 -84q89 0 181 33t161 84z
M926 1307q-115 0 -115 106q0 52 29.5 79.5t85.5 27.5q55 0 83.5 -27.5t28.5 -79.5q0 -106 -112 -106z" />
    <glyph glyph-name="Ccaron" unicode="&#x10c;" horiz-adv-x="1318" 
d="M1452 1374l-41 -186q-138 102 -348 102q-131 0 -225 -35t-176 -118q-96 -100 -156 -275t-60 -346q0 -373 402 -373q198 0 383 97l-39 -185q-186 -75 -377 -75q-565 0 -565 520q0 121 31 258t100 277.5t164 230.5q199 188 534 188q221 0 373 -80zM1008 1573l-185 307h144
l155 -209l242 209h158l-316 -307h-198z" />
    <glyph glyph-name="ccaron" unicode="&#x10d;" horiz-adv-x="1122" 
d="M1065 250l-37 -172q-60 -41 -156 -69.5t-208 -28.5q-212 0 -330.5 112.5t-118.5 317.5q0 320 166 508t473 188q106 0 188.5 -21t126.5 -51l-41 -180q-49 40 -125.5 69t-168.5 29q-210 0 -323.5 -136.5t-113.5 -377.5q0 -137 82 -221t244 -84q89 0 181 33t161 84z
M803 1270l-166 286h141l133 -186l213 186h154l-287 -286h-188z" />
    <glyph glyph-name="Dcaron" unicode="&#x10e;" horiz-adv-x="1501" 
d="M598 -10q-190 0 -381 14l303 1428q197 12 422 12q140 0 249 -30t189.5 -92t123 -162.5t42.5 -235.5q0 -242 -76.5 -443.5t-203.5 -306.5q-122 -101 -279.5 -142.5t-388.5 -41.5zM434 162q72 -8 184 -8q176 0 295.5 27.5t206.5 101.5q105 87 167.5 246t62.5 372
q0 204 -115 291.5t-332 87.5q-121 0 -233 -8zM905 1573l-184 307h143l156 -209l242 209h157l-315 -307h-199z" />
    <glyph glyph-name="dcaron" unicode="&#x10f;" horiz-adv-x="1449" 
d="M979 0l20 197q-65 -108 -158 -162.5t-231 -54.5q-193 0 -294 100t-101 285q0 114 20 218.5t65 200.5t112 167t168.5 113t226.5 42q144 0 229 -64.5t103 -179.5l141 674h176l-326 -1536h-151zM397 397q0 -133 71.5 -198.5t205.5 -65.5q156 0 253 94.5t128 247.5l22 117
q33 163 -33 261.5t-225 98.5q-89 0 -161.5 -32.5t-120 -86t-80 -126.5t-46.5 -150t-14 -160zM1561 1116l196 420h185l-248 -420h-133z" />
    <glyph glyph-name="Dcroat" unicode="&#x110;" horiz-adv-x="1521" 
d="M182 666l31 143h193l133 623q197 12 422 12q140 0 249 -30t189.5 -92t123 -162.5t42.5 -235.5q0 -242 -76.5 -443t-204.5 -307q-122 -101 -279.5 -142.5t-388.5 -41.5q-189 0 -380 14l139 662h-193zM453 162q72 -8 184 -8q176 0 295.5 27.5t206.5 101.5q105 87 167 246
t62 372q0 204 -114.5 291.5t-331.5 87.5q-122 0 -234 -8l-98 -463h377l-31 -143h-377z" />
    <glyph glyph-name="dcroat" unicode="&#x111;" horiz-adv-x="1312" 
d="M795 1235l28 131h420l37 170h176l-39 -170h197l-29 -131h-194l-261 -1235h-151l20 197q-65 -108 -158 -162.5t-231 -54.5q-193 0 -294 100t-101 285q0 114 20 218.5t65 200.5t112 167t168.5 113t226.5 42q144 0 229 -64.5t103 -179.5l75 373h-419zM397 397
q0 -133 71.5 -198.5t205.5 -65.5q156 0 253 94.5t128 247.5l22 117q33 163 -33 261.5t-225 98.5q-89 0 -161.5 -32.5t-120 -86t-80 -126.5t-46.5 -150t-14 -160z" />
    <glyph glyph-name="Emacron" unicode="&#x112;" horiz-adv-x="1232" 
d="M215 0l305 1434h881l-35 -164h-696l-97 -457h635l-34 -158h-635l-105 -491h696l-34 -164h-881zM717 1655v131h610v-131h-610z" />
    <glyph glyph-name="emacron" unicode="&#x113;" horiz-adv-x="1173" 
d="M659 -20q-217 0 -327.5 113t-110.5 323q0 197 74 353.5t213 246.5t319 90q212 0 307 -76.5t95 -206.5q0 -321 -559 -321h-260q-11 -63 -11 -109q0 -127 73.5 -196.5t229.5 -69.5q108 0 219.5 35.5t182.5 97.5l-33 -166q-64 -49 -177.5 -81.5t-234.5 -32.5zM688 627
q108 0 182 13.5t111 39t51.5 54t14.5 65.5q0 71 -51.5 115t-168.5 44q-311 0 -393 -331h254zM596 1352v123h575v-123h-575z" />
    <glyph glyph-name="Edotaccent" unicode="&#x116;" horiz-adv-x="1232" 
d="M215 0l305 1434h881l-35 -164h-696l-97 -457h635l-34 -158h-635l-105 -491h696l-34 -164h-881zM1020 1610q-115 0 -115 110q0 111 115 111t115 -111q0 -110 -115 -110z" />
    <glyph glyph-name="edotaccent" unicode="&#x117;" horiz-adv-x="1173" 
d="M659 -20q-217 0 -327.5 113t-110.5 323q0 197 74 353.5t213 246.5t319 90q212 0 307 -76.5t95 -206.5q0 -321 -559 -321h-260q-11 -63 -11 -109q0 -127 73.5 -196.5t229.5 -69.5q108 0 219.5 35.5t182.5 97.5l-33 -166q-64 -49 -177.5 -81.5t-234.5 -32.5zM688 627
q108 0 182 13.5t111 39t51.5 54t14.5 65.5q0 71 -51.5 115t-168.5 44q-311 0 -393 -331h254zM885 1307q-115 0 -115 106q0 52 29.5 79.5t85.5 27.5q55 0 83.5 -27.5t28.5 -79.5q0 -106 -112 -106z" />
    <glyph glyph-name="Eogonek" unicode="&#x118;" horiz-adv-x="1232" 
d="M215 0l305 1434h881l-35 -164h-696l-97 -457h635l-34 -158h-635l-105 -491h696l-34 -164h-84q-39 -25 -76 -55t-74 -69t-59.5 -84t-22.5 -87q0 -38 28.5 -59t78.5 -21q73 0 135 33l-23 -107q-89 -40 -184 -40q-93 0 -138.5 38.5t-45.5 104.5q0 180 268 346h-684z" />
    <glyph glyph-name="eogonek" unicode="&#x119;" horiz-adv-x="1173" 
d="M659 -20q-217 0 -327.5 113t-110.5 323q0 197 74 353.5t213 246.5t319 90q212 0 307 -77.5t95 -207.5q0 -158 -139.5 -240.5t-419.5 -82.5h-260q-11 -63 -11 -105q0 -127 73.5 -196.5t229.5 -69.5q108 0 219.5 35.5t182.5 97.5l-33 -166q-93 -74 -268 -102
q-191 -131 -191 -264q0 -76 90 -76q61 0 123 33l-20 -101q-88 -39 -166 -39q-88 0 -132 39t-44 101q0 157 207 295h-11zM688 623q87 0 152.5 9.5t104 25.5t62.5 39.5t32 47t8 52.5q0 71 -51.5 116t-168.5 45q-310 0 -393 -335h254z" />
    <glyph glyph-name="Ecaron" unicode="&#x11a;" horiz-adv-x="1232" 
d="M215 0l305 1434h881l-35 -164h-696l-97 -457h635l-34 -158h-635l-105 -491h696l-34 -164h-881zM889 1573l-184 307h143l156 -209l241 209h158l-316 -307h-198z" />
    <glyph glyph-name="ecaron" unicode="&#x11b;" horiz-adv-x="1173" 
d="M659 -20q-217 0 -327.5 113t-110.5 323q0 197 74 353.5t213 246.5t319 90q212 0 307 -76.5t95 -206.5q0 -321 -559 -321h-260q-11 -63 -11 -109q0 -127 73.5 -196.5t229.5 -69.5q108 0 219.5 35.5t182.5 97.5l-33 -166q-64 -49 -177.5 -81.5t-234.5 -32.5zM688 627
q108 0 182 13.5t111 39t51.5 54t14.5 65.5q0 71 -51.5 115t-168.5 44q-311 0 -393 -331h254zM760 1270l-166 286h141l133 -186l213 186h154l-287 -286h-188z" />
    <glyph glyph-name="Gcircumflex" unicode="&#x11c;" horiz-adv-x="1415" 
d="M848 -20q-282 0 -438 132t-156 406q0 226 96 451t236 334q105 83 230 117t310 34q105 0 201.5 -25t157.5 -55l-39 -188q-59 42 -156 73t-192 31q-131 0 -218 -23t-171 -89q-113 -90 -185.5 -274t-72.5 -369q0 -213 109 -302.5t323 -89.5q141 0 266 47l82 390h-311l32 157
h482l-142 -663q-208 -94 -444 -94zM780 1567l316 307h196l187 -307h-146l-153 207l-242 -207h-158z" />
    <glyph glyph-name="gcircumflex" unicode="&#x11d;" horiz-adv-x="1306" 
d="M532 -389q-226 0 -370 80l41 190q44 -45 137.5 -81t216.5 -36q187 0 282 71t126 222l39 189q-67 -111 -158.5 -168.5t-229.5 -57.5q-194 0 -293.5 96.5t-99.5 286.5q0 110 19 209t62.5 190.5t109 158t165.5 106t224 39.5q143 0 230.5 -68.5t105.5 -183.5l78 231h135
l-215 -1017q-51 -244 -199.5 -350.5t-405.5 -106.5zM680 174q81 0 148.5 27.5t113 74.5t74.5 105t43 125l18 90q33 163 -34.5 259.5t-225.5 96.5q-89 0 -159.5 -28.5t-116 -76.5t-76 -115t-43 -139.5t-12.5 -154.5q0 -135 67.5 -199.5t202.5 -64.5zM565 1270l287 286h190
l166 -286h-141l-133 188l-213 -188h-156z" />
    <glyph glyph-name="Gbreve" unicode="&#x11e;" horiz-adv-x="1415" 
d="M848 -20q-282 0 -438 132t-156 406q0 226 96 451t236 334q105 83 230 117t310 34q105 0 201.5 -25t157.5 -55l-39 -188q-59 42 -156 73t-192 31q-131 0 -218 -23t-171 -89q-113 -90 -185.5 -274t-72.5 -369q0 -213 109 -302.5t323 -89.5q141 0 266 47l82 390h-311l32 157
h482l-142 -663q-208 -94 -444 -94zM866 1831l121 33q8 -80 47 -121t121 -41q81 0 138 41t100 121l106 -33q-125 -254 -371 -254q-122 0 -188 64.5t-74 189.5z" />
    <glyph glyph-name="gbreve" unicode="&#x11f;" horiz-adv-x="1306" 
d="M532 -389q-226 0 -370 80l41 190q44 -45 137.5 -81t216.5 -36q187 0 282 71t126 222l39 189q-67 -111 -158.5 -168.5t-229.5 -57.5q-194 0 -293.5 96.5t-99.5 286.5q0 110 19 209t62.5 190.5t109 158t165.5 106t224 39.5q143 0 230.5 -68.5t105.5 -183.5l78 231h135
l-215 -1017q-51 -244 -199.5 -350.5t-405.5 -106.5zM680 174q81 0 148.5 27.5t113 74.5t74.5 105t43 125l18 90q33 163 -34.5 259.5t-225.5 96.5q-89 0 -159.5 -28.5t-116 -76.5t-76 -115t-43 -139.5t-12.5 -154.5q0 -135 67.5 -199.5t202.5 -64.5zM623 1522l116 34
q8 -80 48 -121.5t122 -41.5q154 0 242 163l102 -34q-128 -252 -370 -252t-260 252z" />
    <glyph glyph-name="Gdotaccent" unicode="&#x120;" horiz-adv-x="1415" 
d="M848 -20q-282 0 -438 132t-156 406q0 226 96 451t236 334q105 83 230 117t310 34q105 0 201.5 -25t157.5 -55l-39 -188q-59 42 -156 73t-192 31q-131 0 -218 -23t-171 -89q-113 -90 -185.5 -274t-72.5 -369q0 -213 109 -302.5t323 -89.5q141 0 266 47l82 390h-311l32 157
h482l-142 -663q-208 -94 -444 -94zM1159 1610q-115 0 -115 110q0 111 115 111t115 -111q0 -110 -115 -110z" />
    <glyph glyph-name="gdotaccent" unicode="&#x121;" horiz-adv-x="1306" 
d="M532 -389q-226 0 -370 80l41 190q44 -45 137.5 -81t216.5 -36q187 0 282 71t126 222l39 189q-67 -111 -158.5 -168.5t-229.5 -57.5q-194 0 -293.5 96.5t-99.5 286.5q0 110 19 209t62.5 190.5t109 158t165.5 106t224 39.5q143 0 230.5 -68.5t105.5 -183.5l78 231h135
l-215 -1017q-51 -244 -199.5 -350.5t-405.5 -106.5zM680 174q81 0 148.5 27.5t113 74.5t74.5 105t43 125l18 90q33 163 -34.5 259.5t-225.5 96.5q-89 0 -159.5 -28.5t-116 -76.5t-76 -115t-43 -139.5t-12.5 -154.5q0 -135 67.5 -199.5t202.5 -64.5zM918 1307
q-115 0 -115 106q0 52 29.5 79.5t85.5 27.5q55 0 83.5 -27.5t28.5 -79.5q0 -106 -112 -106z" />
    <glyph glyph-name="Gcommaaccent" unicode="&#x122;" horiz-adv-x="1415" 
d="M848 -20q-282 0 -438 132t-156 406q0 226 96 451t236 334q105 83 230 117t310 34q105 0 201.5 -25t157.5 -55l-39 -188q-59 42 -156 73t-192 31q-131 0 -218 -23t-171 -89q-113 -90 -185.5 -274t-72.5 -369q0 -213 109 -302.5t323 -89.5q141 0 266 47l82 390h-311l32 157
h482l-142 -663q-208 -94 -444 -94zM578 -483l16 82q65 15 102.5 41.5t51.5 78.5h-25q-49 0 -75.5 19t-26.5 53q0 55 40 82t109 27q50 0 79.5 -24t29.5 -73q0 -103 -86.5 -186t-214.5 -100z" />
    <glyph glyph-name="gcommaaccent" unicode="&#x123;" horiz-adv-x="1306" 
d="M532 -389q-226 0 -370 80l41 190q44 -45 137.5 -81t216.5 -36q187 0 282 71t126 222l39 189q-67 -111 -158.5 -168.5t-229.5 -57.5q-194 0 -293.5 96.5t-99.5 286.5q0 110 19 209t62.5 190.5t109 158t165.5 106t224 39.5q143 0 230.5 -68.5t105.5 -183.5l78 231h135
l-215 -1017q-51 -244 -199.5 -350.5t-405.5 -106.5zM680 174q81 0 148.5 27.5t113 74.5t74.5 105t43 125l18 90q33 163 -34.5 259.5t-225.5 96.5q-89 0 -159.5 -28.5t-116 -76.5t-76 -115t-43 -139.5t-12.5 -154.5q0 -135 67.5 -199.5t202.5 -64.5zM1075 1673l-2 -76
q-129 -32 -155 -127q21 3 32 3q41 0 65.5 -19t24.5 -53q0 -51 -42 -78t-105 -27q-48 0 -76.5 24.5t-28.5 74.5q0 105 88.5 182t198.5 96z" />
    <glyph glyph-name="Hcircumflex" unicode="&#x124;" horiz-adv-x="1579" 
d="M215 0l305 1434h185l-132 -615h781l131 615h184l-305 -1434h-184l137 655h-778l-140 -655h-184zM774 1567l316 307h196l187 -307h-146l-153 207l-242 -207h-158z" />
    <glyph glyph-name="hcircumflex" unicode="&#x125;" horiz-adv-x="1280" 
d="M184 0l328 1536h174l-137 -647q146 217 416 217q164 0 240.5 -61t76.5 -189q0 -62 -18 -145l-150 -711h-178l143 676q13 67 13 112q0 90 -53 127t-173 37q-152 0 -245.5 -83.5t-122.5 -221.5l-138 -647h-176zM289 1597l286 287h191l166 -287h-141l-134 189l-213 -189
h-155z" />
    <glyph glyph-name="Hbar" unicode="&#x126;" horiz-adv-x="1648" 
d="M281 1055l30 143h193l51 236h184l-51 -236h780l52 236h184l-51 -236h194l-30 -143h-195l-223 -1055h-185l138 655h-779l-139 -655h-184l223 1055h-192zM608 819h781l49 236h-781z" />
    <glyph glyph-name="hbar" unicode="&#x127;" horiz-adv-x="1280" 
d="M254 1235l29 131h192l37 170h174l-37 -170h424l-29 -131h-421l-74 -346q146 217 416 217q164 0 240.5 -61t76.5 -189q0 -62 -18 -145l-150 -711h-178l143 676q13 67 13 112q0 90 -53 127t-173 37q-152 0 -245.5 -83.5t-122.5 -221.5l-138 -647h-176l265 1235h-195z" />
    <glyph glyph-name="Imacron" unicode="&#x12a;" horiz-adv-x="634" 
d="M225 0l305 1434h185l-305 -1434h-185zM381 1655v131h610v-131h-610z" />
    <glyph glyph-name="imacron" unicode="&#x12b;" horiz-adv-x="595" 
d="M385 0h-176l231 1085h176zM309 1352v123h576v-123h-576z" />
    <glyph glyph-name="Iogonek" unicode="&#x12e;" horiz-adv-x="634" 
d="M225 0l305 1434h185l-305 -1434h-39q-39 -25 -76 -55t-74 -69t-59.5 -84t-22.5 -87q0 -38 28.5 -59t78.5 -21q73 0 135 33l-23 -107q-89 -40 -184 -40q-93 0 -138.5 38.5t-45.5 104.5q0 180 268 346h-33z" />
    <glyph glyph-name="iogonek" unicode="&#x12f;" horiz-adv-x="595" 
d="M172 -455q-88 0 -132 39t-44 101q0 164 244 315h-31l231 1085h176l-231 -1085h-33q-85 -54 -146 -123.5t-61 -148.5q0 -36 23 -56t68 -20q60 0 122 33l-20 -101q-88 -39 -166 -39zM598 1296q-56 0 -85.5 27.5t-29.5 79.5q0 106 115 106q55 0 84 -27.5t29 -78.5t-29 -79
t-84 -28z" />
    <glyph glyph-name="Idotaccent" unicode="&#x130;" horiz-adv-x="634" 
d="M225 0l305 1434h185l-305 -1434h-185zM680 1610q-115 0 -115 110q0 111 115 111t115 -111q0 -110 -115 -110z" />
    <glyph glyph-name="dotlessi" unicode="&#x131;" horiz-adv-x="595" 
d="M385 0h-176l231 1085h176z" />
    <glyph glyph-name="Jcircumflex" unicode="&#x134;" horiz-adv-x="835" 
d="M268 -10q-123 0 -215 51l37 174q89 -61 189 -61q104 0 157.5 51.5t81.5 179.5l223 1049h185l-228 -1076q-41 -196 -142 -282t-288 -86zM512 1567l315 307h197l186 -307h-145l-154 207l-241 -207h-158z" />
    <glyph glyph-name="jcircumflex" unicode="&#x135;" horiz-adv-x="595" 
d="M-137 -358l35 168q47 -29 129 -29q74 0 113.5 37.5t58.5 126.5l241 1140h176l-241 -1138q-37 -172 -123.5 -249t-243.5 -77q-101 0 -145 21zM246 1270l286 286h191l166 -286h-141l-134 188l-213 -188h-155z" />
    <glyph glyph-name="Kcommaaccent" unicode="&#x136;" horiz-adv-x="1419" 
d="M1155 0l-475 653h-141l-140 -653h-184l305 1434h185l-132 -617h117l676 617h233l-774 -697l539 -737h-209zM569 -483l17 82q65 15 102 41.5t51 78.5h-24q-49 0 -76 19t-27 53q0 55 40.5 82t109.5 27q50 0 79 -24t29 -73q0 -103 -86.5 -186t-214.5 -100z" />
    <glyph glyph-name="kcommaaccent" unicode="&#x137;" horiz-adv-x="1159" 
d="M184 0l326 1536h176l-188 -895h84l485 444h223l-571 -530l385 -555h-213l-344 487h-82l-105 -487h-176zM393 -477l2 76q130 33 156 127q-14 -2 -33 -2q-42 0 -66 19t-24 52q0 51 42 78t105 27q48 0 76.5 -24.5t28.5 -74.5q0 -105 -88.5 -182t-198.5 -96z" />
    <glyph glyph-name="Lacute" unicode="&#x139;" horiz-adv-x="1153" 
d="M215 0l305 1434h185l-271 -1270h686l-33 -164h-872zM565 1567l250 307h234l-334 -307h-150z" />
    <glyph glyph-name="lacute" unicode="&#x13a;" horiz-adv-x="669" 
d="M451 -10q-113 0 -169.5 39.5t-56.5 128.5q0 26 11 86l276 1292h176l-266 -1251q-8 -33 -8 -62q0 -45 24.5 -62.5t83.5 -17.5q55 0 131 29l-32 -149q-78 -33 -170 -33zM532 1591l230 287h229l-313 -287h-146z" />
    <glyph glyph-name="Lcommaaccent" unicode="&#x13b;" horiz-adv-x="1153" 
d="M215 0l305 1434h185l-271 -1270h686l-33 -164h-872zM434 -483l17 82q65 15 102 41.5t51 78.5h-24q-49 0 -76 19t-27 53q0 55 40.5 82t109.5 27q50 0 79 -24t29 -73q0 -103 -86.5 -186t-214.5 -100z" />
    <glyph glyph-name="lcommaaccent" unicode="&#x13c;" horiz-adv-x="669" 
d="M451 -10q-113 0 -169.5 39.5t-56.5 128.5q0 26 11 86l276 1292h176l-266 -1251q-8 -33 -8 -62q0 -45 24.5 -62.5t83.5 -17.5q55 0 131 29l-32 -149q-78 -33 -170 -33zM190 -477l3 76q129 32 155 127q-14 -2 -33 -2q-42 0 -66 19t-24 52q0 51 42.5 78t105.5 27
q48 0 76 -24.5t28 -74.5q0 -105 -88.5 -182t-198.5 -96z" />
    <glyph glyph-name="Lcaron" unicode="&#x13d;" horiz-adv-x="1153" 
d="M215 0l305 1434h185l-271 -1270h686l-33 -164h-872zM807 1014l197 420h184l-248 -420h-133z" />
    <glyph glyph-name="lcaron" unicode="&#x13e;" horiz-adv-x="679" 
d="M451 -10q-113 0 -169.5 39.5t-56.5 128.5q0 26 11 86l276 1292h176l-266 -1251q-8 -33 -8 -62q0 -45 24.5 -62.5t83.5 -17.5q55 0 131 29l-32 -149q-78 -33 -170 -33zM791 1116l196 420h184l-247 -420h-133z" />
    <glyph glyph-name="Ldot" unicode="&#x13f;" horiz-adv-x="1153" 
d="M215 0l305 1434h185l-271 -1270h686l-33 -164h-872zM1049 647q-131 0 -131 129q0 127 131 127q129 0 129 -127q0 -129 -129 -129z" />
    <glyph glyph-name="ldot" unicode="&#x140;" horiz-adv-x="741" 
d="M451 -10q-113 0 -169.5 39.5t-56.5 128.5q0 26 11 86l276 1292h176l-266 -1251q-8 -33 -8 -62q0 -45 24.5 -62.5t83.5 -17.5q55 0 131 29l-32 -149q-78 -33 -170 -33zM813 651q-131 0 -131 129q0 127 131 127q129 0 129 -127q0 -129 -129 -129z" />
    <glyph glyph-name="Lslash" unicode="&#x141;" horiz-adv-x="1189" 
d="M172 539l35 161l219 113l131 621h184l-108 -514l362 186l-32 -160l-365 -188l-127 -594h686l-33 -164h-872l139 651z" />
    <glyph glyph-name="lslash" unicode="&#x142;" horiz-adv-x="747" 
d="M184 604l33 156l229 117l140 659h176l-117 -557l248 127l-33 -154l-248 -129l-114 -538q-9 -38 -9 -62q0 -45 24.5 -62.5t84.5 -17.5q55 0 131 29l-33 -149q-78 -33 -170 -33q-113 0 -169 39.5t-56 128.5q0 31 10 86l103 477z" />
    <glyph glyph-name="Nacute" unicode="&#x143;" horiz-adv-x="1564" 
d="M215 0l305 1434h189l426 -961q65 -148 94 -231q20 145 37 231l204 961h185l-305 -1434h-189l-426 958q-48 107 -92 234q-14 -108 -39 -234l-203 -958h-186zM1038 1567l250 307h234l-334 -307h-150z" />
    <glyph glyph-name="nacute" unicode="&#x144;" horiz-adv-x="1280" 
d="M184 0l232 1085h149l-16 -192q141 213 412 213q162 0 241.5 -58t79.5 -192q0 -66 -18 -151l-150 -705h-178l141 659q15 77 15 132q0 90 -52.5 125.5t-173.5 35.5q-149 0 -244 -81t-126 -228l-136 -643h-176zM846 1270l229 286h230l-314 -286h-145z" />
    <glyph glyph-name="Ncommaaccent" unicode="&#x145;" horiz-adv-x="1564" 
d="M215 0l305 1434h189l426 -961q65 -148 94 -231q20 145 37 231l204 961h185l-305 -1434h-189l-426 958q-48 107 -92 234q-14 -108 -39 -234l-203 -958h-186zM563 -483l17 82q65 15 102 41.5t51 78.5h-24q-49 0 -76 19t-27 53q0 55 40.5 82t109.5 27q50 0 79 -24t29 -73
q0 -103 -86.5 -186t-214.5 -100z" />
    <glyph glyph-name="ncommaaccent" unicode="&#x146;" horiz-adv-x="1280" 
d="M184 0l232 1085h149l-16 -192q141 213 412 213q162 0 241.5 -58t79.5 -192q0 -66 -18 -151l-150 -705h-178l141 659q15 77 15 132q0 90 -52.5 125.5t-173.5 35.5q-149 0 -244 -81t-126 -228l-136 -643h-176zM444 -477l2 76q130 33 156 127q-14 -2 -33 -2q-42 0 -66 19
t-24 52q0 51 42.5 78t105.5 27q48 0 76 -24.5t28 -74.5q0 -105 -88.5 -182t-198.5 -96z" />
    <glyph glyph-name="Ncaron" unicode="&#x147;" horiz-adv-x="1564" 
d="M215 0l305 1434h189l426 -961q65 -148 94 -231q20 145 37 231l204 961h185l-305 -1434h-189l-426 958q-48 107 -92 234q-14 -108 -39 -234l-203 -958h-186zM1016 1573l-185 307h144l155 -209l242 209h158l-316 -307h-198z" />
    <glyph glyph-name="ncaron" unicode="&#x148;" horiz-adv-x="1280" 
d="M184 0l232 1085h149l-16 -192q141 213 412 213q162 0 241.5 -58t79.5 -192q0 -66 -18 -151l-150 -705h-178l141 659q15 77 15 132q0 90 -52.5 125.5t-173.5 35.5q-149 0 -244 -81t-126 -228l-136 -643h-176zM823 1270l-166 286h142l133 -186l213 186h153l-286 -286h-189z
" />
    <glyph glyph-name="Omacron" unicode="&#x14c;" horiz-adv-x="1583" 
d="M813 -20q-258 0 -406.5 145.5t-148.5 400.5q0 217 81 431t234 341q105 88 226.5 122t283.5 34q260 0 402.5 -142t142.5 -403q0 -231 -85.5 -447t-225.5 -327q-199 -155 -504 -155zM842 143q236 0 370 131q105 104 162.5 274t57.5 339q0 200 -95.5 301.5t-294.5 101.5
q-105 0 -184 -23.5t-147 -78.5q-124 -99 -190 -283t-66 -362q0 -194 97.5 -297t289.5 -103zM852 1655v131h610v-131h-610z" />
    <glyph glyph-name="omacron" unicode="&#x14d;" horiz-adv-x="1261" 
d="M215 397q0 324 168 516.5t463 192.5q190 0 307 -106.5t117 -305.5q0 -330 -155 -522t-437 -192q-228 0 -345.5 113t-117.5 304zM397 430q0 -297 293 -297q80 0 146 28.5t112 77.5t78 116.5t46.5 145t14.5 163.5q0 288 -260 288q-196 0 -313 -143t-117 -379zM639 1352v123
h575v-123h-575z" />
    <glyph glyph-name="Ohungarumlaut" unicode="&#x150;" horiz-adv-x="1583" 
d="M813 -20q-258 0 -406.5 145.5t-148.5 400.5q0 217 81 431t234 341q105 88 226.5 122t283.5 34q260 0 402.5 -142t142.5 -403q0 -231 -85.5 -447t-225.5 -327q-199 -155 -504 -155zM842 143q236 0 370 131q105 104 162.5 274t57.5 339q0 200 -95.5 301.5t-294.5 101.5
q-105 0 -184 -23.5t-147 -78.5q-124 -99 -190 -283t-66 -362q0 -194 97.5 -297t289.5 -103zM860 1567l195 307h219l-264 -307h-150zM1204 1567l264 307h240l-342 -307h-162z" />
    <glyph glyph-name="ohungarumlaut" unicode="&#x151;" horiz-adv-x="1261" 
d="M215 397q0 324 168 516.5t463 192.5q190 0 307 -106.5t117 -305.5q0 -330 -155 -522t-437 -192q-228 0 -345.5 113t-117.5 304zM397 430q0 -297 293 -297q80 0 146 28.5t112 77.5t78 116.5t46.5 145t14.5 163.5q0 288 -260 288q-196 0 -313 -143t-117 -379zM659 1264
l191 286h215l-258 -286h-148zM967 1264l260 286h235l-338 -286h-157z" />
    <glyph glyph-name="OE" unicode="&#x152;" horiz-adv-x="1959" 
d="M1823 0h-815q-95 -20 -191 -20q-567 0 -567 520q0 191 78.5 411.5t218.5 354.5q199 188 534 188q110 0 205 -20h842l-35 -164h-670l-96 -457h608l-34 -158h-611l-102 -491h667zM850 143q84 0 151 17l238 1110q-76 20 -174 20q-131 0 -225 -35t-174 -118
q-97 -100 -157 -275t-60 -346q0 -373 401 -373z" />
    <glyph glyph-name="oe" unicode="&#x153;" horiz-adv-x="2035" 
d="M1530 500h-260q-8 -46 -8 -103q0 -127 73 -198.5t228 -71.5q108 0 219 35.5t182 97.5l-33 -166q-64 -49 -177 -81.5t-234 -32.5q-305 0 -390 221q-154 -221 -452 -221q-229 0 -346 113.5t-117 305.5q0 324 168 515.5t463 191.5q140 0 239.5 -58.5t141.5 -170.5
q79 109 196.5 169t264.5 60q109 0 188.5 -21.5t125 -61.5t66.5 -90t21 -112q0 -321 -559 -321zM397 432q0 -299 293 -299q80 0 146.5 28.5t113 78.5t78.5 118t47 146t15 164q0 284 -261 284q-198 0 -315 -142t-117 -378zM1548 625q88 0 153 9.5t104 25t62.5 39t31.5 47
t8 53.5q0 159 -221 159q-309 0 -390 -333h252z" />
    <glyph glyph-name="Racute" unicode="&#x154;" horiz-adv-x="1357" 
d="M215 0l303 1425q257 19 404 19q216 0 331 -87.5t115 -266.5q0 -194 -96 -318.5t-289 -171.5l309 -600h-198l-299 573h-273l-121 -573h-186zM557 731h215q204 0 301.5 81.5t97.5 258.5q0 209 -276 209q-143 0 -223 -10zM887 1567l250 307h233l-334 -307h-149z" />
    <glyph glyph-name="racute" unicode="&#x155;" horiz-adv-x="851" 
d="M184 0l232 1085h149l-12 -184q57 103 147 154t201 51q68 0 111 -16l-41 -181q-52 43 -146 43q-132 0 -213 -78.5t-116 -240.5l-136 -633h-176zM680 1270l229 286h230l-314 -286h-145z" />
    <glyph glyph-name="Rcommaaccent" unicode="&#x156;" horiz-adv-x="1357" 
d="M215 0l303 1425q257 19 404 19q216 0 331 -87.5t115 -266.5q0 -194 -96 -318.5t-289 -171.5l309 -600h-198l-299 573h-273l-121 -573h-186zM557 731h215q204 0 301.5 81.5t97.5 258.5q0 209 -276 209q-143 0 -223 -10zM535 -483l16 82q65 15 102.5 41.5t51.5 78.5h-25
q-49 0 -75.5 19t-26.5 53q0 55 40 82t109 27q50 0 79.5 -24t29.5 -73q0 -103 -86.5 -186t-214.5 -100z" />
    <glyph glyph-name="rcommaaccent" unicode="&#x157;" horiz-adv-x="851" 
d="M184 0l232 1085h149l-12 -184q57 103 147 154t201 51q68 0 111 -16l-41 -181q-52 43 -146 43q-132 0 -213 -78.5t-116 -240.5l-136 -633h-176zM63 -477l3 76q129 32 155 127q-14 -2 -33 -2q-42 0 -66 19t-24 52q0 51 42.5 78t105.5 27q48 0 76 -24.5t28 -74.5
q0 -105 -88.5 -182t-198.5 -96z" />
    <glyph glyph-name="Rcaron" unicode="&#x158;" horiz-adv-x="1357" 
d="M215 0l303 1425q257 19 404 19q216 0 331 -87.5t115 -266.5q0 -194 -96 -318.5t-289 -171.5l309 -600h-198l-299 573h-273l-121 -573h-186zM557 731h215q204 0 301.5 81.5t97.5 258.5q0 209 -276 209q-143 0 -223 -10zM858 1573l-184 307h143l156 -209l241 209h158
l-315 -307h-199z" />
    <glyph glyph-name="rcaron" unicode="&#x159;" horiz-adv-x="851" 
d="M184 0l232 1085h149l-12 -184q57 103 147 154t201 51q68 0 111 -16l-41 -181q-52 43 -146 43q-132 0 -213 -78.5t-116 -240.5l-136 -633h-176zM655 1270l-166 286h142l133 -186l213 186h153l-286 -286h-189z" />
    <glyph glyph-name="Sacute" unicode="&#x15a;" horiz-adv-x="1198" 
d="M596 -20q-122 0 -244.5 32t-187.5 84l45 205q70 -78 172.5 -120t218.5 -42q180 0 273.5 70.5t93.5 208.5q0 56 -26 99.5t-68 70t-96.5 52t-110.5 45.5t-110.5 50.5t-96.5 66t-68 94t-26 132.5q0 195 144 310.5t386 115.5q115 0 224.5 -23.5t178.5 -62.5l-41 -199
q-144 125 -358 125q-338 0 -338 -233q0 -55 26 -98.5t68 -69.5t96.5 -52t110.5 -46.5t110.5 -52.5t96.5 -69t68 -97.5t26 -137.5q0 -218 -149 -338t-418 -120zM825 1567l250 307h234l-334 -307h-150z" />
    <glyph glyph-name="sacute" unicode="&#x15b;" horiz-adv-x="1011" 
d="M135 51l41 197q47 -54 135.5 -87.5t184.5 -33.5q282 0 282 207q0 42 -27 71.5t-70 47t-95 32t-104.5 32.5t-95.5 43.5t-70 71t-27 107.5q0 168 114.5 267.5t360.5 99.5q181 0 289 -53l-39 -191q-110 96 -277 96q-266 0 -266 -174q0 -37 21 -64t55.5 -42t78.5 -29.5
t90 -25.5t90 -31t78.5 -45t55.5 -68t21 -100q0 -195 -130.5 -297t-365.5 -102q-204 0 -330 71zM702 1270l230 286h229l-313 -286h-146z" />
    <glyph glyph-name="Scircumflex" unicode="&#x15c;" horiz-adv-x="1198" 
d="M596 -20q-122 0 -244.5 32t-187.5 84l45 205q70 -78 172.5 -120t218.5 -42q180 0 273.5 70.5t93.5 208.5q0 56 -26 99.5t-68 70t-96.5 52t-110.5 45.5t-110.5 50.5t-96.5 66t-68 94t-26 132.5q0 195 144 310.5t386 115.5q115 0 224.5 -23.5t178.5 -62.5l-41 -199
q-144 125 -358 125q-338 0 -338 -233q0 -55 26 -98.5t68 -69.5t96.5 -52t110.5 -46.5t110.5 -52.5t96.5 -69t68 -97.5t26 -137.5q0 -218 -149 -338t-418 -120zM592 1567l315 307h197l186 -307h-145l-154 207l-241 -207h-158z" />
    <glyph glyph-name="scircumflex" unicode="&#x15d;" horiz-adv-x="1011" 
d="M135 51l41 197q47 -54 135.5 -87.5t184.5 -33.5q282 0 282 207q0 42 -27 71.5t-70 47t-95 32t-104.5 32.5t-95.5 43.5t-70 71t-27 107.5q0 168 114.5 267.5t360.5 99.5q181 0 289 -53l-39 -191q-110 96 -277 96q-266 0 -266 -174q0 -37 21 -64t55.5 -42t78.5 -29.5
t90 -25.5t90 -31t78.5 -45t55.5 -68t21 -100q0 -195 -130.5 -297t-365.5 -102q-204 0 -330 71zM453 1270l286 286h191l166 -286h-142l-133 188l-213 -188h-155z" />
    <glyph glyph-name="Scedilla" unicode="&#x15e;" horiz-adv-x="1198" 
d="M520 -489q-104 0 -166 32l35 97q59 -27 129 -27q60 0 104 30.5t44 88.5q0 38 -33.5 54.5t-83.5 16.5q-52 0 -70 -4l64 181q-111 6 -216 38t-163 78l45 205q71 -78 173.5 -121t217.5 -43q180 0 273.5 71.5t93.5 209.5q0 56 -26 99.5t-68 70t-96.5 52t-110.5 45.5
t-110.5 50.5t-96.5 66t-68 94t-26 132.5q0 195 144 310.5t386 115.5q115 0 224.5 -23.5t178.5 -62.5l-41 -199q-144 125 -358 125q-338 0 -338 -233q0 -55 26 -98.5t68 -69.5t96.5 -52t110.5 -46.5t110.5 -52.5t96.5 -69t68 -97.5t26 -137.5q0 -207 -134.5 -326.5
t-377.5 -131.5l-33 -91q90 0 142.5 -32.5t52.5 -100.5q0 -111 -89 -178t-204 -67z" />
    <glyph glyph-name="scedilla" unicode="&#x15f;" horiz-adv-x="1011" 
d="M385 -182l59 159q-193 6 -309 72l41 197q47 -54 135.5 -87.5t184.5 -33.5q282 0 282 207q0 42 -27 72t-70 47t-95 32t-104.5 33.5t-95.5 44t-70 71t-27 107.5q0 168 114.5 267.5t360.5 99.5q181 0 289 -53l-39 -191q-110 96 -277 96q-266 0 -266 -174q0 -37 21 -64
t55.5 -42t78.5 -30t90 -26t90 -31.5t78.5 -45.5t55.5 -68t21 -100q0 -178 -108 -279t-306 -116l-29 -80q206 -3 170 -170q-17 -83 -89.5 -135t-172.5 -52q-90 0 -154 33l35 92q60 -26 115 -26q52 0 87.5 24t45.5 72q9 45 -21.5 62.5t-80.5 17.5t-68 -2z" />
    <glyph glyph-name="Scaron" unicode="&#x160;" horiz-adv-x="1198" 
d="M596 -20q-122 0 -244.5 32t-187.5 84l45 205q70 -78 172.5 -120t218.5 -42q180 0 273.5 70.5t93.5 208.5q0 56 -26 99.5t-68 70t-96.5 52t-110.5 45.5t-110.5 50.5t-96.5 66t-68 94t-26 132.5q0 195 144 310.5t386 115.5q115 0 224.5 -23.5t178.5 -62.5l-41 -199
q-144 125 -358 125q-338 0 -338 -233q0 -55 26 -98.5t68 -69.5t96.5 -52t110.5 -46.5t110.5 -52.5t96.5 -69t68 -97.5t26 -137.5q0 -218 -149 -338t-418 -120zM844 1573l-185 307h144l155 -209l242 209h158l-316 -307h-198z" />
    <glyph glyph-name="scaron" unicode="&#x161;" horiz-adv-x="1011" 
d="M135 51l41 197q47 -54 135.5 -87.5t184.5 -33.5q282 0 282 207q0 42 -27 71.5t-70 47t-95 32t-104.5 32.5t-95.5 43.5t-70 71t-27 107.5q0 168 114.5 267.5t360.5 99.5q181 0 289 -53l-39 -191q-110 96 -277 96q-266 0 -266 -174q0 -37 21 -64t55.5 -42t78.5 -29.5
t90 -25.5t90 -31t78.5 -45t55.5 -68t21 -100q0 -195 -130.5 -297t-365.5 -102q-204 0 -330 71zM680 1270l-166 286h141l133 -186l213 186h154l-287 -286h-188z" />
    <glyph glyph-name="Tcedilla" unicode="&#x162;" horiz-adv-x="1193" 
d="M504 0l270 1270h-452l34 164h1090l-35 -164h-453l-270 -1270h-37l-41 -111q90 0 142.5 -32.5t52.5 -100.5q0 -111 -89 -178t-204 -67q-104 0 -166 32l35 97q59 -27 129 -27q60 0 103.5 30.5t43.5 88.5q0 38 -33.5 54.5t-82.5 16.5q-52 0 -70 -4l72 201h-39z" />
    <glyph glyph-name="tcedilla" unicode="&#x163;" horiz-adv-x="892" 
d="M457 -182l63 172q-108 6 -159.5 52t-51.5 144q0 39 17 119l131 627h-209l31 153h208l48 205l188 62l-59 -267h358l-33 -153h-356l-129 -613q-10 -52 -10 -77q0 -60 31 -80.5t100 -20.5q117 0 223 58l-33 -160q-68 -40 -192 -49l-33 -88q206 -3 170 -170
q-17 -83 -89.5 -135t-172.5 -52q-90 0 -154 33l35 92q60 -26 115 -26q52 0 87.5 24t45.5 72q9 45 -21.5 62.5t-81.5 17.5q-49 0 -67 -2z" />
    <glyph glyph-name="Tcaron" unicode="&#x164;" horiz-adv-x="1193" 
d="M504 0l270 1270h-452l34 164h1090l-35 -164h-453l-270 -1270h-184zM831 1573l-184 307h144l155 -209l242 209h158l-316 -307h-199z" />
    <glyph glyph-name="tcaron" unicode="&#x165;" horiz-adv-x="892" 
d="M326 305l131 627h-209l31 153h208l45 205l189 62l-57 -267h358l-33 -153h-356l-129 -613q-10 -52 -10 -77q0 -59 30.5 -79t100.5 -20q117 0 223 58l-33 -160q-37 -21 -105 -36t-141 -15q-135 0 -197.5 44.5t-62.5 151.5q0 39 17 119zM874 1188l197 420h184l-247 -420
h-134z" />
    <glyph glyph-name="Umacron" unicode="&#x16a;" horiz-adv-x="1505" 
d="M754 -20q-205 0 -326 98.5t-121 290.5q0 110 41 303l162 762h184l-166 -777q-36 -164 -36 -266q0 -133 74.5 -190.5t213.5 -57.5q209 0 308 92t149 324l184 875h187l-189 -877q-45 -212 -123 -336t-208.5 -182.5t-333.5 -58.5zM813 1655v131h610v-131h-610z" />
    <glyph glyph-name="umacron" unicode="&#x16b;" horiz-adv-x="1265" 
d="M250 356l156 729h178l-148 -690q-12 -59 -12 -100q0 -87 50 -124.5t159 -37.5q301 0 368 311l138 641h176l-232 -1085h-151l14 195q-136 -215 -411 -215q-299 0 -299 247q0 63 14 129zM637 1352v123h575v-123h-575z" />
    <glyph glyph-name="Ubreve" unicode="&#x16c;" horiz-adv-x="1505" 
d="M754 -20q-205 0 -326 98.5t-121 290.5q0 110 41 303l162 762h184l-166 -777q-36 -164 -36 -266q0 -133 74.5 -190.5t213.5 -57.5q209 0 308 92t149 324l184 875h187l-189 -877q-45 -212 -123 -336t-208.5 -182.5t-333.5 -58.5zM825 1831l121 33q8 -80 47 -121t121 -41
q81 0 138 41t100 121l106 -33q-125 -254 -371 -254q-122 0 -188 64.5t-74 189.5z" />
    <glyph glyph-name="ubreve" unicode="&#x16d;" horiz-adv-x="1265" 
d="M250 356l156 729h178l-148 -690q-12 -59 -12 -100q0 -87 50 -124.5t159 -37.5q301 0 368 311l138 641h176l-232 -1085h-151l14 195q-136 -215 -411 -215q-299 0 -299 247q0 63 14 129zM635 1522l117 34q8 -80 48 -121.5t122 -41.5q153 0 241 163l103 -34
q-128 -252 -371 -252q-242 0 -260 252z" />
    <glyph glyph-name="Uring" unicode="&#x16e;" horiz-adv-x="1505" 
d="M754 -20q-205 0 -326 98.5t-121 290.5q0 110 41 303l162 762h184l-166 -777q-36 -164 -36 -266q0 -133 74.5 -190.5t213.5 -57.5q209 0 308 92t149 324l184 875h187l-189 -877q-45 -212 -123 -336t-208.5 -182.5t-333.5 -58.5zM1116 1518q-89 0 -146 56.5t-57 145.5
t57 146t146 57t146 -57t57 -146t-57 -145.5t-146 -56.5zM1116 1618q50 0 76.5 26.5t26.5 75.5q0 50 -26.5 76.5t-76.5 26.5q-48 0 -75 -27t-27 -76t27 -75.5t75 -26.5z" />
    <glyph glyph-name="uring" unicode="&#x16f;" horiz-adv-x="1265" 
d="M250 356l156 729h178l-148 -690q-12 -59 -12 -100q0 -87 50 -124.5t159 -37.5q301 0 368 311l138 641h176l-232 -1085h-151l14 195q-136 -215 -411 -215q-299 0 -299 247q0 63 14 129zM926 1214q-89 0 -144 55t-55 144t55 144t144 55t143.5 -55t54.5 -144t-54.5 -144
t-143.5 -55zM926 1315q46 0 73 26t27 72t-27 73t-73 27t-72.5 -27t-26.5 -73t26.5 -72t72.5 -26z" />
    <glyph glyph-name="Uhungarumlaut" unicode="&#x170;" horiz-adv-x="1505" 
d="M754 -20q-205 0 -326 98.5t-121 290.5q0 110 41 303l162 762h184l-166 -777q-36 -164 -36 -266q0 -133 74.5 -190.5t213.5 -57.5q209 0 308 92t149 324l184 875h187l-189 -877q-45 -212 -123 -336t-208.5 -182.5t-333.5 -58.5zM858 1620l191 287h215l-258 -287h-148z
M1165 1620l260 287h236l-338 -287h-158z" />
    <glyph glyph-name="uhungarumlaut" unicode="&#x171;" horiz-adv-x="1265" 
d="M250 356l156 729h178l-148 -690q-12 -59 -12 -100q0 -87 50 -124.5t159 -37.5q301 0 368 311l138 641h176l-232 -1085h-151l14 195q-136 -215 -411 -215q-299 0 -299 247q0 63 14 129zM664 1264l190 286h215l-258 -286h-147zM971 1264l260 286h235l-338 -286h-157z" />
    <glyph glyph-name="Uogonek" unicode="&#x172;" horiz-adv-x="1505" 
d="M754 -20q-205 0 -326 98.5t-121 290.5q0 110 41 303l162 762h184l-166 -777q-36 -164 -36 -266q0 -133 74.5 -190.5t213.5 -57.5q209 0 308 92t149 324l184 875h187l-189 -877q-59 -276 -178.5 -409t-343.5 -160q-186 -128 -186 -260q0 -76 90 -76q61 0 123 33l-21 -101
q-88 -39 -166 -39q-88 0 -132 39t-44 101q0 157 207 295h-14z" />
    <glyph glyph-name="uogonek" unicode="&#x173;" horiz-adv-x="1265" 
d="M870 -455q-88 0 -132 39t-44 101q0 164 244 315h-6l14 195q-136 -215 -411 -215q-299 0 -299 247q0 63 14 129l156 729h178l-148 -690q-12 -59 -12 -100q0 -87 50 -124.5t159 -37.5q301 0 368 311l138 641h176l-232 -1085h-32q-85 -54 -146 -123.5t-61 -148.5
q0 -76 90 -76q61 0 123 33l-21 -101q-88 -39 -166 -39z" />
    <glyph glyph-name="Ydieresis" unicode="&#x178;" horiz-adv-x="1265" 
d="M541 0l118 559l-311 875h197l241 -684l527 684h215l-682 -875l-121 -559h-184zM793 1612q-113 0 -113 108q0 53 29 81t84 28q112 0 112 -109q0 -108 -112 -108zM1204 1612q-112 0 -112 108q0 109 112 109q113 0 113 -109q0 -108 -113 -108z" />
    <glyph glyph-name="Zacute" unicode="&#x179;" horiz-adv-x="1241" 
d="M104 0l25 117l1028 1153h-758l35 164h1014l-25 -117l-1028 -1153h795l-35 -164h-1051zM891 1567l250 307h233l-334 -307h-149z" />
    <glyph glyph-name="zacute" unicode="&#x17a;" horiz-adv-x="1052" 
d="M92 0l25 117l792 815h-608l35 153h842l-23 -116l-793 -815h631l-32 -154h-869zM723 1270l229 286h230l-314 -286h-145z" />
    <glyph glyph-name="Zdotaccent" unicode="&#x17b;" horiz-adv-x="1241" 
d="M104 0l25 117l1028 1153h-758l35 164h1014l-25 -117l-1028 -1153h795l-35 -164h-1051zM993 1610q-114 0 -114 110q0 111 114 111q115 0 115 -111q0 -110 -115 -110z" />
    <glyph glyph-name="zdotaccent" unicode="&#x17c;" horiz-adv-x="1052" 
d="M92 0l25 117l792 815h-608l35 153h842l-23 -116l-793 -815h631l-32 -154h-869zM825 1307q-114 0 -114 106q0 107 114 107q55 0 84 -28t29 -79t-29 -78.5t-84 -27.5z" />
    <glyph glyph-name="Zcaron" unicode="&#x17d;" horiz-adv-x="1241" 
d="M104 0l25 117l1028 1153h-758l35 164h1014l-25 -117l-1028 -1153h795l-35 -164h-1051zM864 1573l-184 307h143l156 -209l242 209h157l-315 -307h-199z" />
    <glyph glyph-name="zcaron" unicode="&#x17e;" horiz-adv-x="1052" 
d="M92 0l25 117l792 815h-608l35 153h842l-23 -116l-793 -815h631l-32 -154h-869zM700 1270l-165 286h141l133 -186l213 186h154l-287 -286h-189z" />
    <glyph glyph-name="uni018F" unicode="&#x18f;" horiz-adv-x="1425" 
d="M694 -20q-219 0 -337.5 112t-118.5 340q0 131 49 340h983q18 95 18 162q0 75 -19 135.5t-62 112t-123.5 80t-192.5 28.5q-214 0 -377 -59l35 170q189 53 395 53q541 0 541 -481q0 -116 -22.5 -233t-66 -228.5t-111.5 -207.5t-153.5 -168.5t-198 -114t-239.5 -41.5z
M727 139q176 0 312 119.5t198 364.5h-795q-22 -93 -22 -187q0 -297 307 -297z" />
    <glyph glyph-name="florin" unicode="&#x192;" horiz-adv-x="1230" 
d="M489 932l31 153h207l23 109q39 190 128.5 276t254.5 86q76 0 145 -14l-31 -147q-60 12 -114 12q-98 0 -143.5 -47.5t-74.5 -181.5l-20 -93h285l-31 -153h-287l-194 -932q-44 -214 -128.5 -301.5t-248.5 -87.5q-59 0 -92 8l32 150q31 -7 58 -7q82 0 131 53t76 183l198 934
h-205z" />
    <glyph glyph-name="uni01DD" unicode="&#x1dd;" horiz-adv-x="1173" 
d="M735 588h260q9 52 9 102q0 127 -73.5 197.5t-228.5 70.5q-110 0 -221 -35t-182 -98l35 166q64 49 176.5 82t232.5 33q218 0 328.5 -113t110.5 -325q0 -197 -73.5 -353t-212 -245.5t-318.5 -89.5q-212 0 -307 77t-95 207q0 158 139.5 241t419.5 83zM715 463
q-87 0 -152 -9.5t-104 -25.5t-62.5 -39.5t-32 -47.5t-8.5 -54q0 -71 52 -115.5t170 -44.5q312 0 391 336h-254z" />
    <glyph glyph-name="Gcaron" unicode="&#x1e6;" horiz-adv-x="1415" 
d="M848 -20q-282 0 -438 132t-156 406q0 226 96 451t236 334q105 83 230 117t310 34q105 0 201.5 -25t157.5 -55l-39 -188q-59 42 -156 73t-192 31q-131 0 -218 -23t-171 -89q-113 -90 -185.5 -274t-72.5 -369q0 -213 109 -302.5t323 -89.5q141 0 266 47l82 390h-311l32 157
h482l-142 -663q-208 -94 -444 -94zM1030 1573l-184 307h143l156 -209l241 209h158l-315 -307h-199z" />
    <glyph glyph-name="gcaron" unicode="&#x1e7;" horiz-adv-x="1306" 
d="M532 -389q-226 0 -370 80l41 190q44 -45 137.5 -81t216.5 -36q187 0 282 71t126 222l39 189q-67 -111 -158.5 -168.5t-229.5 -57.5q-194 0 -293.5 96.5t-99.5 286.5q0 110 19 209t62.5 190.5t109 158t165.5 106t224 39.5q143 0 230.5 -68.5t105.5 -183.5l78 231h135
l-215 -1017q-51 -244 -199.5 -350.5t-405.5 -106.5zM680 174q81 0 148.5 27.5t113 74.5t74.5 105t43 125l18 90q33 163 -34.5 259.5t-225.5 96.5q-89 0 -159.5 -28.5t-116 -76.5t-76 -115t-43 -139.5t-12.5 -154.5q0 -135 67.5 -199.5t202.5 -64.5zM793 1270l-166 286h141
l133 -186l213 186h154l-287 -286h-188z" />
    <glyph glyph-name="Scommaaccent" unicode="&#x218;" horiz-adv-x="1198" 
d="M596 -20q-122 0 -244.5 32t-187.5 84l45 205q70 -78 172.5 -120t218.5 -42q180 0 273.5 70.5t93.5 208.5q0 56 -26 99.5t-68 70t-96.5 52t-110.5 45.5t-110.5 50.5t-96.5 66t-68 94t-26 132.5q0 195 144 310.5t386 115.5q115 0 224.5 -23.5t178.5 -62.5l-41 -199
q-144 125 -358 125q-338 0 -338 -233q0 -55 26 -98.5t68 -69.5t96.5 -52t110.5 -46.5t110.5 -52.5t96.5 -69t68 -97.5t26 -137.5q0 -218 -149 -338t-418 -120zM389 -483l17 82q65 15 102 41.5t51 78.5h-24q-49 0 -76 19t-27 53q0 55 40.5 82t109.5 27q50 0 79 -24t29 -73
q0 -103 -86.5 -186t-214.5 -100z" />
    <glyph glyph-name="scommaaccent" unicode="&#x219;" horiz-adv-x="1011" 
d="M135 51l41 197q47 -54 135.5 -87.5t184.5 -33.5q282 0 282 207q0 42 -27 71.5t-70 47t-95 32t-104.5 32.5t-95.5 43.5t-70 71t-27 107.5q0 168 114.5 267.5t360.5 99.5q181 0 289 -53l-39 -191q-110 96 -277 96q-266 0 -266 -174q0 -37 21 -64t55.5 -42t78.5 -29.5
t90 -25.5t90 -31t78.5 -45t55.5 -68t21 -100q0 -195 -130.5 -297t-365.5 -102q-204 0 -330 71zM301 -477l2 76q130 33 156 127q-14 -2 -33 -2q-42 0 -66 19t-24 52q0 51 42 78t105 27q48 0 76.5 -24.5t28.5 -74.5q0 -105 -88.5 -182t-198.5 -96z" />
    <glyph glyph-name="Tcommaaccent" unicode="&#x21a;" horiz-adv-x="1193" 
d="M504 0l270 1270h-452l34 164h1090l-35 -164h-453l-270 -1270h-184zM385 -483l16 82q65 15 102.5 41.5t51.5 78.5h-25q-49 0 -75.5 19t-26.5 53q0 55 40.5 82t109.5 27q50 0 79 -24t29 -73q0 -103 -86.5 -186t-214.5 -100z" />
    <glyph glyph-name="tcommaaccent" unicode="&#x21b;" horiz-adv-x="892" 
d="M326 305l131 627h-209l31 153h208l45 205l189 62l-57 -267h358l-33 -153h-356l-129 -613q-10 -52 -10 -77q0 -59 30.5 -79t100.5 -20q117 0 223 58l-33 -160q-37 -21 -105 -36t-141 -15q-135 0 -197.5 44.5t-62.5 151.5q0 39 17 119zM373 -477l2 76q129 32 155 127
q-14 -2 -32 -2q-42 0 -66 19t-24 52q0 51 42 78t105 27q48 0 76 -24.5t28 -74.5q0 -105 -88 -182t-198 -96z" />
    <glyph glyph-name="uni0237" unicode="&#x237;" horiz-adv-x="595" 
d="M-137 -358l35 168q47 -29 129 -29q74 0 113.5 37.5t58.5 126.5l241 1140h176l-241 -1138q-37 -172 -123.5 -249t-243.5 -77q-101 0 -145 21z" />
    <glyph glyph-name="uni0259" unicode="&#x259;" horiz-adv-x="1173" 
d="M735 588h260q9 52 9 102q0 127 -73.5 197.5t-228.5 70.5q-110 0 -221 -35t-182 -98l35 166q64 49 176.5 82t232.5 33q218 0 328.5 -113t110.5 -325q0 -197 -73.5 -353t-212 -245.5t-318.5 -89.5q-212 0 -307 77t-95 207q0 158 139.5 241t419.5 83zM715 463
q-87 0 -152 -9.5t-104 -25.5t-62.5 -39.5t-32 -47.5t-8.5 -54q0 -71 52 -115.5t170 -44.5q312 0 391 336h-254z" />
    <glyph glyph-name="afii57929" unicode="&#x2bc;" horiz-adv-x="532" 
d="M336 1014l196 420h185l-248 -420h-133z" />
    <glyph glyph-name="circumflex" unicode="&#x2c6;" horiz-adv-x="684" 
d="M289 1270l286 286h191l166 -286h-141l-134 188l-213 -188h-155z" />
    <glyph glyph-name="caron" unicode="&#x2c7;" horiz-adv-x="684" 
d="M516 1270l-166 286h142l133 -186l213 186h153l-286 -286h-189z" />
    <glyph glyph-name="breve" unicode="&#x2d8;" horiz-adv-x="671" 
d="M344 1522l117 34q8 -80 48 -121.5t122 -41.5q153 0 241 163l103 -34q-128 -252 -371 -252q-242 0 -260 252z" />
    <glyph glyph-name="dotaccent" unicode="&#x2d9;" horiz-adv-x="276" 
d="M438 1307q-114 0 -114 106q0 107 114 107q55 0 84 -28t29 -79t-29 -78.5t-84 -27.5z" />
    <glyph glyph-name="ring" unicode="&#x2da;" horiz-adv-x="448" 
d="M522 1214q-89 0 -143.5 55t-54.5 144t54.5 144t143.5 55t144 -55t55 -144t-55 -144t-144 -55zM522 1315q46 0 73.5 26.5t27.5 71.5q0 46 -27.5 73t-73.5 27t-72 -27t-26 -73t26 -72t72 -26z" />
    <glyph glyph-name="ogonek" unicode="&#x2db;" horiz-adv-x="411" 
d="M135 -455q-88 0 -132 39t-44 101q0 176 279 335l88 -14q-217 -137 -217 -278q0 -76 90 -76q61 0 123 33l-21 -101q-88 -39 -166 -39z" />
    <glyph glyph-name="tilde" unicode="&#x2dc;" horiz-adv-x="638" 
d="M410 1307l-105 22q6 90 53 141.5t121 51.5q9 0 19 -1t17.5 -2.5t19 -5t17 -5.5t19 -8t18.5 -8t21 -9.5t21 -9.5q8 -4 29 -13.5t28.5 -12.5t21 -8.5t23.5 -7t21 -1.5q57 0 73 90l105 -25q-9 -90 -56.5 -140t-115.5 -50q-35 0 -65 9.5t-91 39.5q-14 6 -33.5 16t-30 15.5
t-25 9.5t-28.5 4q-58 0 -77 -92z" />
    <glyph glyph-name="hungarumlaut" unicode="&#x2dd;" horiz-adv-x="784" 
d="M289 1264l190 286h215l-258 -286h-147zM596 1264l260 286h236l-338 -286h-158z" />
    <glyph glyph-name="acutecomb" unicode="&#x301;" horiz-adv-x="0" 
d="M-434 1270l229 286h230l-314 -286h-145z" />
    <glyph glyph-name="uni0394" unicode="&#x394;" horiz-adv-x="1325" 
d="M51 0l516 1434h193l516 -1434h-1225zM289 166h739l-366 1057h-5z" />
    <glyph glyph-name="uni0394" unicode="&#x2206;" horiz-adv-x="1325" 
d="M51 0l516 1434h193l516 -1434h-1225zM289 166h739l-366 1057h-5z" />
    <glyph glyph-name="uni03A9" unicode="&#x3a9;" horiz-adv-x="1824" 
d="M391 0v160h365v125q-83 27 -150 72t-122 111t-85 160.5t-30 209.5q0 277 178.5 446.5t474.5 169.5q300 0 475.5 -167.5t175.5 -448.5q0 -111 -32 -205.5t-87.5 -161t-121 -112.5t-142.5 -74v-125h361v-160h-529v393q121 21 205.5 88.5t122 156t37.5 189.5q0 211 -127 338
t-338 127t-339 -127t-128 -338q0 -164 92 -283.5t277 -150.5v-393h-533z" />
    <glyph glyph-name="uni03A9" unicode="&#x2126;" horiz-adv-x="1824" 
d="M391 0v160h365v125q-83 27 -150 72t-122 111t-85 160.5t-30 209.5q0 277 178.5 446.5t474.5 169.5q300 0 475.5 -167.5t175.5 -448.5q0 -111 -32 -205.5t-87.5 -161t-121 -112.5t-142.5 -74v-125h361v-160h-529v393q121 21 205.5 88.5t122 156t37.5 189.5q0 211 -127 338
t-338 127t-339 -127t-128 -338q0 -164 92 -283.5t277 -150.5v-393h-533z" />
    <glyph glyph-name="pi" unicode="&#x3c0;" horiz-adv-x="1370" 
d="M295 0l194 926q-100 0 -194 -62l-29 148q119 73 332 73h889l-35 -155h-156l-137 -643q-10 -52 -10 -76q0 -37 16 -54.5t52 -17.5q29 0 53 6l-33 -157q-64 -11 -100 -11q-91 0 -133.5 38t-42.5 120q0 53 14 113l145 682h-452l-199 -930h-174z" />
    <glyph glyph-name="afii10023" unicode="&#x401;" horiz-adv-x="1232" 
d="M215 0l305 1434h881l-35 -164h-696l-97 -457h635l-34 -158h-635l-105 -491h696l-34 -164h-881zM813 1612q-113 0 -113 108q0 53 29 81t84 28q113 0 113 -109q0 -108 -113 -108zM1225 1612q-113 0 -113 108q0 53 29 81t84 28q112 0 112 -109q0 -108 -112 -108z" />
    <glyph glyph-name="afii10051" unicode="&#x402;" horiz-adv-x="1630" 
d="M504 0l270 1270h-452l34 164h1090l-35 -164h-453l-94 -439q185 82 381 82q191 0 281 -78.5t90 -213.5q0 -57 -10 -101l-29 -133q-42 -197 -160 -303.5t-307 -106.5q-88 0 -156 21l35 158q49 -27 125 -27q107 0 176.5 65t95.5 189l19 88q12 58 12 92q0 189 -248 189
q-155 0 -338 -78l-143 -674h-184z" />
    <glyph glyph-name="afii10052" unicode="&#x403;" horiz-adv-x="1130" 
d="M215 0l305 1434h842l-37 -164h-655l-271 -1270h-184zM893 1567l250 307h233l-334 -307h-149z" />
    <glyph glyph-name="afii10053" unicode="&#x404;" horiz-adv-x="1331" 
d="M1495 1372l-41 -186q-68 50 -171 77t-218 27q-131 0 -225 -35t-174 -118q-116 -122 -177 -328h685l-33 -150h-682q-10 -61 -10 -143q0 -373 401 -373q111 0 225.5 30.5t184.5 68.5l-39 -185q-76 -31 -186 -54t-218 -23q-133 0 -235.5 29.5t-177.5 91t-114.5 162
t-39.5 237.5q0 191 78.5 411.5t218.5 354.5q199 188 534 188q123 0 236.5 -24.5t177.5 -57.5z" />
    <glyph glyph-name="afii10054" unicode="&#x405;" horiz-adv-x="1198" 
d="M596 -20q-122 0 -244.5 32t-187.5 84l45 205q70 -78 172.5 -120t218.5 -42q180 0 273.5 70.5t93.5 208.5q0 56 -26 99.5t-68 70t-96.5 52t-110.5 45.5t-110.5 50.5t-96.5 66t-68 94t-26 132.5q0 195 144 310.5t386 115.5q115 0 224.5 -23.5t178.5 -62.5l-41 -199
q-144 125 -358 125q-338 0 -338 -233q0 -55 26 -98.5t68 -69.5t96.5 -52t110.5 -46.5t110.5 -52.5t96.5 -69t68 -97.5t26 -137.5q0 -218 -149 -338t-418 -120z" />
    <glyph glyph-name="afii10055" unicode="&#x406;" horiz-adv-x="634" 
d="M225 0l305 1434h185l-305 -1434h-185z" />
    <glyph glyph-name="afii10056" unicode="&#x407;" horiz-adv-x="634" 
d="M225 0l305 1434h185l-305 -1434h-185zM477 1612q-112 0 -112 108q0 109 112 109q113 0 113 -109q0 -108 -113 -108zM889 1612q-113 0 -113 108q0 53 29 81t84 28q112 0 112 -109q0 -108 -112 -108z" />
    <glyph glyph-name="afii10057" unicode="&#x408;" horiz-adv-x="835" 
d="M268 -10q-123 0 -215 51l37 174q89 -61 189 -61q104 0 157.5 51.5t81.5 179.5l223 1049h185l-228 -1076q-41 -196 -142 -282t-288 -86z" />
    <glyph glyph-name="afii10058" unicode="&#x409;" horiz-adv-x="2129" 
d="M125 -14q-40 0 -84 14l41 195q24 -17 63 -17q82 0 148 85t139 294t168 590l72 287h884l-112 -527q143 13 227 13q213 0 331 -94.5t118 -260.5q0 -137 -34.5 -239t-93 -165.5t-149.5 -102.5t-191 -53.5t-229 -14.5q-191 0 -354 18l268 1262h-526l-59 -223
q-55 -206 -98 -349t-90.5 -269.5t-92 -204t-98.5 -134.5t-114 -80.5t-134 -23.5zM1286 160q57 -4 187 -4q87 0 153 9.5t123.5 34.5t94 66.5t57 107t20.5 154.5q0 67 -24 113.5t-69.5 70.5t-98.5 34t-123 10q-58 0 -197 -11z" />
    <glyph glyph-name="afii10059" unicode="&#x40a;" horiz-adv-x="2193" 
d="M1485 -10q-189 0 -352 18l137 647h-731l-140 -655h-184l305 1434h185l-132 -615h732l131 615h184l-113 -527q143 13 228 13q213 0 330.5 -94.5t117.5 -260.5q0 -137 -34.5 -239t-93 -165.5t-149.5 -102.5t-191 -53.5t-230 -14.5zM1350 160q57 -4 186 -4q109 0 186.5 16
t139.5 56.5t92.5 115t30.5 184.5q0 67 -24.5 113.5t-70 70.5t-98.5 34t-123 10q-60 0 -196 -11z" />
    <glyph glyph-name="afii10060" unicode="&#x40b;" horiz-adv-x="1634" 
d="M504 0l270 1270h-452l34 164h1090l-35 -164h-453l-92 -436q158 77 357 77q183 0 286 -81t103 -222q0 -68 -25 -196l-88 -412h-184l80 375q28 123 28 182q0 101 -68.5 146t-201.5 45q-177 0 -322 -70l-143 -678h-184z" />
    <glyph glyph-name="afii10061" unicode="&#x40c;" horiz-adv-x="1419" 
d="M1155 0l-475 653h-141l-140 -653h-184l305 1434h185l-132 -617h117l676 617h233l-774 -697l539 -737h-209zM967 1567l250 307h233l-334 -307h-149z" />
    <glyph glyph-name="afii10062" unicode="&#x40e;" horiz-adv-x="1357" 
d="M309 20l39 179q60 -56 133 -56q111 0 224 191l-345 1100h203l271 -906l567 906h207l-742 -1155q-107 -170 -195.5 -234.5t-207.5 -64.5q-90 0 -154 40zM1012 1577q-273 0 -273 223q0 18 4 64h152q-6 -21 -6 -49q0 -64 35.5 -92.5t111.5 -28.5q89 0 140.5 39.5t78.5 130.5
h146q-39 -145 -139.5 -216t-249.5 -71z" />
    <glyph glyph-name="afii10145" unicode="&#x40f;" horiz-adv-x="1531" 
d="M215 0l305 1434h185l-269 -1270h731l271 1270h184l-305 -1434h-467l-57 -276h-172l57 276h-463z" />
    <glyph glyph-name="afii10017" unicode="&#x410;" horiz-adv-x="1374" 
d="M51 0l840 1434h203l229 -1434h-186l-58 383h-614l-219 -383h-195zM952 1229l-395 -686h498z" />
    <glyph glyph-name="afii10018" unicode="&#x411;" horiz-adv-x="1337" 
d="M610 -10q-240 0 -393 14l305 1430h867l-37 -164h-680l-88 -414q133 10 262 10q224 0 338 -83.5t114 -270.5q0 -177 -85.5 -295.5t-237 -172.5t-365.5 -54zM434 164q76 -10 219 -10q237 0 343 82t106 266q0 112 -76.5 161.5t-249.5 49.5q-81 0 -227 -13z" />
    <glyph glyph-name="afii10019" unicode="&#x412;" horiz-adv-x="1339" 
d="M215 2l303 1430q220 12 412 12q108 0 189 -14.5t144 -47t95.5 -90t32.5 -139.5q0 -175 -78.5 -278t-245.5 -138q240 -35 240 -264q0 -262 -172 -379q-149 -104 -486 -104q-307 0 -434 12zM541 666l-107 -510q84 -6 252 -6q224 0 323 73t99 242q0 106 -66 153.5t-223 47.5
h-278zM569 805h258q188 0 277.5 71t89.5 220q0 100 -60 144t-212 44q-117 0 -252 -6z" />
    <glyph glyph-name="afii10020" unicode="&#x413;" horiz-adv-x="1130" 
d="M215 0l305 1434h842l-37 -164h-655l-271 -1270h-184z" />
    <glyph glyph-name="afii10021" unicode="&#x414;" horiz-adv-x="1513" 
d="M2 -276l94 440h140q141 194 237.5 453.5t171.5 601.5l47 215h869l-271 -1270h174l-94 -440h-168l60 276h-1033l-59 -276h-168zM1106 164l233 1106h-510l-24 -111q-146 -639 -381 -995h682z" />
    <glyph glyph-name="afii10022" unicode="&#x415;" horiz-adv-x="1232" 
d="M215 0l305 1434h881l-35 -164h-696l-97 -457h635l-34 -158h-635l-105 -491h696l-34 -164h-881z" />
    <glyph glyph-name="afii10024" unicode="&#x416;" horiz-adv-x="1861" 
d="M55 0l656 741l-320 693h193l284 -623h146l131 623h184l-131 -623h119l553 623h207l-607 -693l336 -741h-202l-293 657h-146l-141 -657h-184l139 657h-119l-579 -657h-226z" />
    <glyph glyph-name="afii10025" unicode="&#x417;" horiz-adv-x="1210" 
d="M143 76l41 200q150 -133 402 -133q182 0 282 68q119 85 119 248q0 96 -75 149.5t-224 53.5h-199l33 145h178q174 0 274.5 72.5t100.5 210.5q0 92 -65.5 146t-204.5 54q-218 0 -393 -104l41 200q187 68 413 68q199 0 302.5 -80.5t103.5 -222.5q0 -162 -88.5 -265.5
t-255.5 -146.5q121 -17 188.5 -86t67.5 -180q0 -263 -201 -395q-148 -98 -432 -98q-120 0 -233 28.5t-175 67.5z" />
    <glyph glyph-name="afii10026" unicode="&#x418;" horiz-adv-x="1579" 
d="M215 0l305 1434h182l-194 -918q-31 -154 -68 -270q83 114 187 233l846 955h196l-305 -1434h-184l194 918q13 64 66 270q-117 -156 -185 -232l-843 -956h-197z" />
    <glyph glyph-name="afii10027" unicode="&#x419;" horiz-adv-x="1579" 
d="M215 0l305 1434h182l-194 -918q-31 -154 -68 -270q83 114 187 233l846 955h196l-305 -1434h-184l194 918q13 64 66 270q-117 -156 -185 -232l-843 -956h-197zM1124 1577q-272 0 -272 223q0 18 4 64h152q-7 -24 -7 -49q0 -64 36 -92.5t112 -28.5q89 0 140.5 39.5
t78.5 130.5h145q-39 -145 -139.5 -216t-249.5 -71z" />
    <glyph glyph-name="afii10028" unicode="&#x41a;" horiz-adv-x="1419" 
d="M1155 0l-475 653h-141l-140 -653h-184l305 1434h185l-132 -617h117l676 617h233l-774 -697l539 -737h-209z" />
    <glyph glyph-name="afii10029" unicode="&#x41b;" horiz-adv-x="1470" 
d="M125 -10q-40 0 -84 14l41 195q30 -17 63 -17q82 0 147.5 84t138.5 291.5t169 589.5l72 287h889l-306 -1434h-184l268 1270h-528l-59 -223q-55 -206 -98 -349t-90.5 -269t-92 -203t-98.5 -133.5t-114 -79.5t-134 -23z" />
    <glyph glyph-name="afii10030" unicode="&#x41c;" horiz-adv-x="1806" 
d="M215 0l305 1434h223l271 -889l643 889h237l-303 -1434h-184l205 954q31 140 59 246q-128 -190 -166 -244l-450 -616h-154l-190 614q-40 139 -68 252q-17 -134 -43 -250l-203 -956h-182z" />
    <glyph glyph-name="afii10031" unicode="&#x41d;" horiz-adv-x="1579" 
d="M215 0l305 1434h185l-132 -615h781l131 615h184l-305 -1434h-184l137 655h-778l-140 -655h-184z" />
    <glyph glyph-name="afii10032" unicode="&#x41e;" horiz-adv-x="1583" 
d="M813 -20q-258 0 -406.5 145.5t-148.5 400.5q0 217 81 431t234 341q105 88 226.5 122t283.5 34q260 0 402.5 -142t142.5 -403q0 -231 -85.5 -447t-225.5 -327q-199 -155 -504 -155zM842 143q236 0 370 131q105 104 162.5 274t57.5 339q0 200 -95.5 301.5t-294.5 101.5
q-105 0 -184 -23.5t-147 -78.5q-124 -99 -190 -283t-66 -362q0 -194 97.5 -297t289.5 -103z" />
    <glyph glyph-name="afii10033" unicode="&#x41f;" horiz-adv-x="1552" 
d="M215 0l305 1434h1122l-305 -1434h-184l268 1270h-751l-271 -1270h-184z" />
    <glyph glyph-name="afii10034" unicode="&#x420;" horiz-adv-x="1302" 
d="M213 0l303 1425q222 19 395 19q253 0 369.5 -95.5t116.5 -279.5q0 -318 -209 -477q-153 -115 -486 -115q-101 0 -200 12l-103 -489h-186zM537 651q93 -10 200 -10q120 0 203.5 15t142.5 65q117 102 117 321q0 115 -71.5 176.5t-247.5 61.5q-110 0 -211 -8z" />
    <glyph glyph-name="afii10035" unicode="&#x421;" horiz-adv-x="1318" 
d="M1452 1374l-41 -186q-138 102 -348 102q-131 0 -225 -35t-176 -118q-96 -100 -156 -275t-60 -346q0 -373 402 -373q198 0 383 97l-39 -185q-186 -75 -377 -75q-565 0 -565 520q0 121 31 258t100 277.5t164 230.5q199 188 534 188q221 0 373 -80z" />
    <glyph glyph-name="afii10036" unicode="&#x422;" horiz-adv-x="1193" 
d="M504 0l270 1270h-452l34 164h1090l-35 -164h-453l-270 -1270h-184z" />
    <glyph glyph-name="afii10037" unicode="&#x423;" horiz-adv-x="1357" 
d="M309 20l39 179q60 -56 133 -56q111 0 224 191l-345 1100h203l271 -906l567 906h207l-742 -1155q-107 -170 -195.5 -234.5t-207.5 -64.5q-90 0 -154 40z" />
    <glyph glyph-name="afii10038" unicode="&#x424;" horiz-adv-x="1851" 
d="M821 -41l37 168h-33q-265 0 -412 114t-147 351q0 198 78.5 363t208.5 253q188 127 516 127h45l31 140h184l-31 -140h43q120 0 216.5 -24t174 -76.5t120 -145t42.5 -219.5q0 -186 -67 -351t-191 -259q-97 -72 -228 -102.5t-321 -30.5h-43l-36 -168h-187zM1075 291h43
q163 0 244.5 17.5t144.5 64.5q89 69 140 196t51 279q0 179 -99.5 251t-293.5 72h-41zM895 291l188 880h-34q-130 0 -224 -19t-161 -71q-84 -66 -142.5 -195t-58.5 -280q0 -172 100.5 -243.5t288.5 -71.5h43z" />
    <glyph glyph-name="afii10039" unicode="&#x425;" horiz-adv-x="1333" 
d="M57 0l643 741l-301 693h201l244 -560l481 560h225l-604 -699l332 -735h-203l-276 604l-516 -604h-226z" />
    <glyph glyph-name="afii10040" unicode="&#x426;" horiz-adv-x="1554" 
d="M1243 -276l60 276h-1088l305 1434h185l-271 -1270h711l272 1270h185l-271 -1270h174l-94 -440h-168z" />
    <glyph glyph-name="afii10041" unicode="&#x427;" horiz-adv-x="1345" 
d="M946 0l127 600q-139 -78 -356 -78q-183 0 -286 81t-103 222q0 64 26 197l86 412h185l-80 -375q-27 -135 -27 -182q0 -102 67.5 -146.5t200.5 -44.5q195 0 322 72l143 676h185l-306 -1434h-184z" />
    <glyph glyph-name="afii10042" unicode="&#x428;" horiz-adv-x="1957" 
d="M215 0l305 1434h185l-271 -1270h488l270 1270h184l-270 -1270h487l271 1270h186l-305 -1434h-1530z" />
    <glyph glyph-name="afii10043" unicode="&#x429;" horiz-adv-x="2002" 
d="M215 0l305 1434h185l-271 -1270h488l270 1270h184l-270 -1270h487l271 1270h186l-270 -1270h172l-92 -440h-170l59 276h-1534z" />
    <glyph glyph-name="afii10044" unicode="&#x42a;" horiz-adv-x="1421" 
d="M322 1270l34 164h492l-113 -527q143 13 228 13q213 0 329.5 -94.5t116.5 -260.5q0 -137 -34 -239t-92.5 -165.5t-149 -102.5t-190.5 -53.5t-230 -14.5q-189 0 -353 18l269 1262h-307zM578 160q57 -4 186 -4q109 0 186.5 16t139 56.5t92 115t30.5 184.5q0 67 -24 113.5
t-69.5 70.5t-98.5 34t-123 10q-61 0 -197 -11z" />
    <glyph glyph-name="afii10045" unicode="&#x42b;" horiz-adv-x="1744" 
d="M1343 -2l306 1436h184l-305 -1436h-185zM569 -10q-170 0 -352 20l303 1424h185l-113 -525q143 13 227 13q213 0 330 -94.5t117 -260.5q0 -137 -34.5 -239t-93.5 -166t-149.5 -103t-190.5 -54t-229 -15zM434 164q95 -10 187 -10q86 0 152 10t123.5 35.5t94 68t57.5 108
t21 154.5q0 67 -24 113.5t-69.5 70.5t-98.5 34t-123 10q-74 0 -197 -10z" />
    <glyph glyph-name="afii10046" unicode="&#x42c;" horiz-adv-x="1277" 
d="M569 -10q-207 0 -352 16l303 1428h185l-113 -527q143 13 227 13q213 0 330 -94t117 -261q0 -138 -34.5 -240t-93 -165.5t-149.5 -102t-191 -53t-229 -14.5zM432 160q89 -6 189 -6q109 0 186.5 16.5t139 56.5t92 115t30.5 186q0 68 -24 114.5t-70 70.5t-98.5 33.5
t-122.5 9.5q-95 0 -197 -11z" />
    <glyph glyph-name="afii10047" unicode="&#x42d;" horiz-adv-x="1341" 
d="M477 659l31 150h674q4 70 4 98q0 194 -99.5 288.5t-300.5 94.5q-227 0 -411 -106l43 202q181 68 411 68q275 0 408 -127q145 -136 145 -399q0 -249 -72.5 -453t-207.5 -321q-114 -98 -248 -136t-319 -38q-122 0 -225 27.5t-165 62.5l41 192q148 -119 379 -119
q260 0 410 129q132 116 186 387h-684z" />
    <glyph glyph-name="afii10048" unicode="&#x42e;" horiz-adv-x="2082" 
d="M1335 -20q-255 0 -391.5 139.5t-136.5 400.5q0 66 6 133h-274l-140 -653h-184l305 1434h185l-132 -617h269q37 155 106.5 281t161.5 200q104 84 222.5 120t271.5 36q263 0 393.5 -141.5t130.5 -399.5q0 -249 -89 -466.5t-237 -327.5q-97 -74 -210 -106.5t-257 -32.5z
M1366 143q258 0 410.5 202.5t152.5 545.5q0 209 -88 304t-280 95q-202 0 -334 -123q-107 -101 -166.5 -265t-59.5 -363q0 -396 365 -396z" />
    <glyph glyph-name="afii10049" unicode="&#x42f;" horiz-adv-x="1353" 
d="M86 0l508 567q-98 24 -163.5 105.5t-65.5 197.5q0 157 58 284.5t171 197.5q146 92 477 92q175 0 369 -14l-303 -1430h-185l115 539h-287l-473 -539h-221zM1102 696l123 578q-129 6 -217 6q-212 0 -312 -66q-135 -88 -135 -315q0 -104 69 -153.5t214 -49.5h258z" />
    <glyph glyph-name="afii10065" unicode="&#x430;" horiz-adv-x="1314" 
d="M983 0l16 197q-139 -217 -397 -217q-186 0 -286.5 101t-100.5 284q0 114 20 218.5t65 200.5t112 167t168 113t225 42q139 0 228 -64.5t114 -183.5l80 227h135l-229 -1085h-150zM397 397q0 -132 71 -198t202 -66q107 0 188.5 46.5t128 120.5t70.5 175l22 119q11 48 11 98
q0 123 -69.5 191.5t-205.5 68.5q-88 0 -159.5 -32t-119 -86t-79.5 -126.5t-46 -150t-14 -160.5z" />
    <glyph glyph-name="afii10066" unicode="&#x431;" horiz-adv-x="1302" 
d="M707 -20q-218 0 -336.5 101t-118.5 312q0 113 14 199q24 153 56.5 275t70.5 213t88 160t103.5 115t122.5 78t138.5 49.5t158.5 28.5q15 2 75.5 8.5t82 9.5t70 9.5t74.5 12t58 13.5t55 17l-41 -184q-40 -16 -111 -26.5t-253 -29.5q-93 -9 -160.5 -25t-131 -48.5
t-109 -83.5t-83 -129t-63.5 -185l-21 -79q165 274 500 274q168 0 267.5 -95.5t99.5 -273.5q0 -215 -72 -376t-209.5 -250.5t-324.5 -89.5zM709 133q105 0 186.5 39t132 109t76.5 162.5t26 203.5q0 133 -71 198.5t-185 65.5q-213 0 -326.5 -134t-113.5 -359q0 -285 275 -285z
" />
    <glyph glyph-name="afii10067" unicode="&#x432;" horiz-adv-x="1183" 
d="M229 211l187 874q300 11 395 11q147 0 230.5 -25.5t114 -70.5t30.5 -121q0 -111 -62.5 -192t-195.5 -112q102 -12 150 -61.5t48 -148.5q0 -178 -133.5 -276.5t-417.5 -98.5q-208 0 -289.5 51.5t-56.5 169.5zM465 498l-53 -254q-12 -61 34 -85t177 -24q171 0 247 49.5
t76 171.5q0 77 -50.5 109.5t-166.5 32.5h-264zM492 625h256q258 0 258 202q0 68 -46.5 95.5t-175.5 27.5q-119 0 -221 -6z" />
    <glyph glyph-name="afii10068" unicode="&#x433;" horiz-adv-x="954" 
d="M184 0l232 1085h698l-33 -157h-522l-197 -928h-178z" />
    <glyph glyph-name="afii10069" unicode="&#x434;" horiz-adv-x="1286" 
d="M674 -20q-222 0 -337.5 111t-115.5 302q0 323 155 502.5t421 179.5q131 0 228 -55.5t126 -145.5q4 31 4 70q0 123 -30.5 210t-94.5 142t-150.5 84.5t-209.5 40.5l32 135q168 -6 288.5 -50t190.5 -123.5t102 -181.5t32 -234q0 -194 -49 -437q-52 -274 -201 -412t-391 -138
zM682 133q104 0 186 42.5t132 115t76 161.5t26 187q0 137 -76.5 210t-216.5 73q-187 0 -296.5 -130t-109.5 -366q0 -293 279 -293z" />
    <glyph glyph-name="afii10070" unicode="&#x435;" horiz-adv-x="1173" 
d="M659 -20q-217 0 -327.5 113t-110.5 323q0 197 74 353.5t213 246.5t319 90q212 0 307 -76.5t95 -206.5q0 -321 -559 -321h-260q-11 -63 -11 -109q0 -127 73.5 -196.5t229.5 -69.5q108 0 219.5 35.5t182.5 97.5l-33 -166q-64 -49 -177.5 -81.5t-234.5 -32.5zM688 627
q108 0 182 13.5t111 39t51.5 54t14.5 65.5q0 71 -51.5 115t-168.5 44q-311 0 -393 -331h254z" />
    <glyph glyph-name="afii10072" unicode="&#x436;" horiz-adv-x="1595" 
d="M55 0l498 588l-236 497h181l204 -446h144l96 446h178l-96 -446h145l377 446h197l-443 -536l240 -549h-194l-205 485h-152l-100 -485h-178l102 485h-139l-412 -485h-207z" />
    <glyph glyph-name="afii10073" unicode="&#x437;" horiz-adv-x="1058" 
d="M125 51l41 195q56 -50 146.5 -83.5t207.5 -33.5q314 0 314 227q0 70 -55.5 104t-186.5 34h-164l27 127h180q134 0 197 58.5t63 154.5q0 63 -50 92.5t-171 29.5q-187 0 -359 -104l41 186q174 68 379 68q186 0 268 -52t82 -157q0 -268 -266 -326q99 -6 151 -55.5t52 -134.5
q0 -186 -134.5 -293.5t-410.5 -107.5q-96 0 -192.5 18t-159.5 53z" />
    <glyph glyph-name="afii10074" unicode="&#x438;" horiz-adv-x="1265" 
d="M250 356l156 729h178l-148 -690q-12 -59 -12 -100q0 -87 50 -124.5t159 -37.5q301 0 368 311l138 641h176l-232 -1085h-151l14 195q-136 -215 -411 -215q-299 0 -299 247q0 63 14 129z" />
    <glyph glyph-name="afii10075" unicode="&#x439;" horiz-adv-x="1265" 
d="M250 356l156 729h178l-148 -690q-12 -59 -12 -100q0 -87 50 -124.5t159 -37.5q301 0 368 311l138 641h176l-232 -1085h-151l14 195q-136 -215 -411 -215q-299 0 -299 247q0 63 14 129zM893 1270q-123 0 -190.5 56.5t-67.5 168.5q0 38 4 61h145q-2 -16 -2 -45
q0 -127 136 -127q159 0 210 172h142q-39 -141 -138.5 -213.5t-238.5 -72.5z" />
    <glyph glyph-name="afii10076" unicode="&#x43a;" horiz-adv-x="1179" 
d="M184 0l232 1085h176l-96 -446h135l471 446h217l-543 -520l348 -565h-213l-295 485h-153l-103 -485h-176z" />
    <glyph glyph-name="afii10077" unicode="&#x43b;" horiz-adv-x="1245" 
d="M59 0l41 195q29 -11 50 -11q66 0 117.5 58t112 229.5t130.5 482.5l31 131h753l-231 -1085h-178l198 932h-413l-19 -80q-56 -247 -113.5 -415t-121 -266t-130.5 -139.5t-149 -41.5q-40 0 -78 10z" />
    <glyph glyph-name="afii10078" unicode="&#x43c;" horiz-adv-x="1478" 
d="M184 0l232 1085h223l195 -643l460 643h232l-232 -1085h-170l144 682q13 67 63 242q-104 -163 -153 -228l-322 -436h-121l-133 434q-27 89 -63 230q-23 -170 -39 -246l-146 -678h-170z" />
    <glyph glyph-name="afii10079" unicode="&#x43d;" horiz-adv-x="1282" 
d="M184 0l232 1085h176l-96 -454h561l96 454h176l-231 -1085h-176l100 477h-561l-101 -477h-176z" />
    <glyph glyph-name="afii10080" unicode="&#x43e;" horiz-adv-x="1261" 
d="M215 397q0 324 168 516.5t463 192.5q190 0 307 -106.5t117 -305.5q0 -330 -155 -522t-437 -192q-228 0 -345.5 113t-117.5 304zM397 430q0 -297 293 -297q80 0 146 28.5t112 77.5t78 116.5t46.5 145t14.5 163.5q0 288 -260 288q-196 0 -313 -143t-117 -379z" />
    <glyph glyph-name="afii10081" unicode="&#x43f;" horiz-adv-x="1280" 
d="M184 0l232 1085h149l-16 -192q141 213 412 213q162 0 241.5 -58t79.5 -192q0 -66 -18 -151l-150 -705h-178l141 659q15 77 15 132q0 90 -52.5 125.5t-173.5 35.5q-149 0 -244 -81t-126 -228l-136 -643h-176z" />
    <glyph glyph-name="afii10082" unicode="&#x440;" horiz-adv-x="1314" 
d="M104 -369l312 1454h145l-20 -194q65 108 159.5 161.5t235.5 53.5q192 0 292.5 -100t100.5 -283q0 -114 -20 -218.5t-65 -201t-112 -167.5t-168 -113.5t-225 -42.5q-138 0 -226 66.5t-107 174.5l-125 -590h-177zM725 133q88 0 160 32.5t120 86.5t80.5 127t47 151t14.5 160
q0 262 -275 262q-155 0 -252.5 -94t-130.5 -246l-24 -114q-34 -162 36.5 -263.5t223.5 -101.5z" />
    <glyph glyph-name="afii10083" unicode="&#x441;" horiz-adv-x="1122" 
d="M1065 250l-37 -172q-60 -41 -156 -69.5t-208 -28.5q-212 0 -330.5 112.5t-118.5 317.5q0 320 166 508t473 188q106 0 188.5 -21t126.5 -51l-41 -180q-49 40 -125.5 69t-168.5 29q-210 0 -323.5 -136.5t-113.5 -377.5q0 -137 82 -221t244 -84q89 0 181 33t161 84z" />
    <glyph glyph-name="afii10084" unicode="&#x442;" horiz-adv-x="1835" 
d="M184 0l230 1085h149l-18 -194q56 102 152 158.5t221 56.5q132 0 195.5 -56t60.5 -171q115 227 397 227q141 0 206.5 -56.5t65.5 -166.5q0 -58 -14 -121l-160 -762h-176l147 707q13 60 13 96q0 78 -45.5 113.5t-147.5 35.5q-121 0 -198.5 -72.5t-104.5 -201.5l-143 -678
h-176l147 700q10 46 10 99q0 83 -43.5 118t-138.5 35q-128 0 -206.5 -74.5t-104.5 -199.5l-142 -678h-176z" />
    <glyph glyph-name="afii10085" unicode="&#x443;" horiz-adv-x="1107" 
d="M135 -365l37 168q54 -39 111 -39q58 0 107.5 56.5t119.5 181.5l-236 1083h193l162 -872l465 872h196l-620 -1099q-65 -116 -119 -190.5t-104 -114.5t-94.5 -55t-100.5 -15q-63 0 -117 24z" />
    <glyph glyph-name="afii10086" unicode="&#x444;" horiz-adv-x="1589" 
d="M625 -369l77 367q-37 -8 -114 -8q-193 0 -284 86t-91 268q0 360 165 556t466 196q52 0 92 -9l92 449h176l-92 -451q51 11 115 11q195 0 287 -85t92 -266q0 -366 -163 -560.5t-470 -194.5q-51 0 -94 6l-78 -365h-176zM1081 936l-170 -789q46 -4 70 -4q215 0 326.5 144
t111.5 420q0 127 -60.5 181t-199.5 54q-41 0 -78 -6zM733 147l170 789q-27 6 -72 6q-211 0 -322.5 -143t-111.5 -414q0 -125 61 -183.5t189 -58.5q61 0 86 4z" />
    <glyph glyph-name="afii10087" unicode="&#x445;" horiz-adv-x="1103" 
d="M55 0l500 563l-240 522h193l180 -401l352 401h207l-463 -516l263 -569h-195l-203 444l-385 -444h-209z" />
    <glyph glyph-name="afii10088" unicode="&#x446;" horiz-adv-x="1298" 
d="M184 0l232 1085h174l-199 -931h531l198 931h174l-198 -931h157l-92 -430h-166l60 276h-871z" />
    <glyph glyph-name="afii10089" unicode="&#x447;" horiz-adv-x="1167" 
d="M805 0l90 422q-49 -21 -132.5 -36t-160.5 -15q-163 0 -247.5 53.5t-84.5 173.5q0 48 11 96l81 391h177l-78 -356q-8 -46 -8 -63q0 -73 52 -107.5t161 -34.5q146 0 260 43l110 518h176l-231 -1085h-176z" />
    <glyph glyph-name="afii10090" unicode="&#x448;" horiz-adv-x="1683" 
d="M184 0l232 1085h176l-199 -931h393l197 931h178l-198 -931h393l198 931h177l-232 -1085h-1315z" />
    <glyph glyph-name="afii10091" unicode="&#x449;" horiz-adv-x="1734" 
d="M184 0l232 1085h176l-199 -931h393l197 931h178l-198 -931h393l198 931h177l-199 -931h158l-93 -430h-163l57 276h-1307z" />
    <glyph glyph-name="afii10092" unicode="&#x44a;" horiz-adv-x="1259" 
d="M250 932l33 153h446l-78 -366q107 8 211 8q207 0 299 -59.5t92 -196.5q0 -241 -139 -361t-442 -120q-176 0 -247 34t-71 109q0 25 6 55l158 744h-268zM719 137q183 0 267.5 68.5t84.5 224.5q0 86 -62.5 118t-220.5 32q-67 0 -172 -9l-71 -335q-4 -24 -4 -35
q0 -35 37.5 -49.5t140.5 -14.5z" />
    <glyph glyph-name="afii10093" unicode="&#x44b;" horiz-adv-x="1517" 
d="M516 -10q-171 0 -235 33.5t-64 109.5q0 28 6 55l193 897h176l-78 -366q107 8 191 8q193 0 281.5 -60t88.5 -196q0 -240 -135 -360.5t-424 -120.5zM561 137q169 0 251.5 68.5t82.5 222.5q0 87 -59.5 119.5t-204.5 32.5q-59 0 -152 -11l-71 -333q-5 -30 -5 -35
q0 -36 30.5 -50t127.5 -14zM1333 0h-176l232 1085h176z" />
    <glyph glyph-name="afii10094" unicode="&#x44c;" horiz-adv-x="1120" 
d="M535 -10q-176 0 -247 34t-71 109q0 25 6 55l191 897h178l-78 -366q107 8 211 8q207 0 299 -59.5t92 -196.5q0 -241 -139 -361t-442 -120zM582 137q183 0 267.5 68.5t84.5 224.5q0 86 -62.5 118t-220.5 32q-67 0 -172 -9l-71 -335q-5 -30 -5 -35q0 -35 38 -49.5t141 -14.5
z" />
    <glyph glyph-name="afii10095" unicode="&#x44d;" horiz-adv-x="1122" 
d="M414 485l28 136h506v24q0 147 -80.5 226t-236.5 79q-93 0 -186.5 -30t-163.5 -82l34 168q65 44 165 72t206 28q205 0 324.5 -111.5t119.5 -318.5q0 -329 -169 -512.5t-467 -183.5q-100 0 -187 20t-133 53l37 176q124 -96 315 -96q165 0 269.5 91t138.5 261h-520z" />
    <glyph glyph-name="afii10096" unicode="&#x44e;" horiz-adv-x="1673" 
d="M184 0l232 1085h176l-98 -454h188q48 220 202 348.5t382 128.5q188 0 301.5 -106.5t113.5 -303.5q0 -334 -151.5 -526t-425.5 -192q-442 0 -442 450v47h-201l-101 -477h-176zM1108 133q99 0 175.5 43t122.5 118t69.5 169.5t23.5 204.5q0 286 -252 286q-195 0 -303 -136
t-108 -367q0 -318 272 -318z" />
    <glyph glyph-name="afii10097" unicode="&#x44f;" horiz-adv-x="1189" 
d="M86 0l383 416q-174 39 -174 233q0 227 138.5 337t449.5 110q177 0 247 -31.5t70 -116.5q0 -22 -12 -84l-182 -864h-179l84 389h-276l-352 -389h-197zM942 532l59 289q7 28 7 45q0 44 -34.5 62t-121.5 18q-96 0 -161.5 -11.5t-116 -40.5t-74 -82t-23.5 -132
q0 -83 56.5 -115.5t171.5 -32.5h237z" />
    <glyph glyph-name="afii10071" unicode="&#x451;" horiz-adv-x="1173" 
d="M659 -20q-217 0 -327.5 113t-110.5 323q0 197 74 353.5t213 246.5t319 90q212 0 307 -76.5t95 -206.5q0 -321 -559 -321h-260q-11 -63 -11 -109q0 -127 73.5 -196.5t229.5 -69.5q108 0 219.5 35.5t182.5 97.5l-33 -166q-64 -49 -177.5 -81.5t-234.5 -32.5zM688 627
q108 0 182 13.5t111 39t51.5 54t14.5 65.5q0 71 -51.5 115t-168.5 44q-311 0 -393 -331h254zM707 1309q-109 0 -109 104q0 105 109 105q110 0 110 -105q0 -104 -110 -104zM1061 1309q-109 0 -109 104q0 105 109 105q110 0 110 -105q0 -104 -110 -104z" />
    <glyph glyph-name="afii10099" unicode="&#x452;" horiz-adv-x="1345" 
d="M274 954l29 131h195l96 457h176l-96 -457h420l-29 -131h-418l-86 -411q141 215 414 215q164 0 241.5 -60t77.5 -188q0 -74 -18 -145l-16 -68q-115 -430 -527 -653l-98 86q198 135 297.5 259.5t146.5 301.5l8 33q17 66 17 118q0 90 -52.5 126t-172.5 36
q-153 0 -246.5 -82.5t-122.5 -220.5l-66 -301h-176l201 954h-195z" />
    <glyph glyph-name="afii10100" unicode="&#x453;" horiz-adv-x="954" 
d="M184 0l232 1085h698l-33 -157h-522l-197 -928h-178zM731 1270l230 286h229l-313 -286h-146z" />
    <glyph glyph-name="afii10101" unicode="&#x454;" horiz-adv-x="1132" 
d="M1085 250l-38 -174q-60 -41 -164 -68.5t-211 -27.5q-209 0 -329 113t-120 321q0 329 168.5 510.5t468.5 181.5q103 0 194 -20.5t134 -51.5l-41 -180q-53 44 -139.5 71t-178.5 27q-159 0 -263.5 -85t-141.5 -244h520l-29 -136h-509v-45q0 -143 83 -226t230 -83
q92 0 192 32t174 85z" />
    <glyph glyph-name="afii10102" unicode="&#x455;" horiz-adv-x="1011" 
d="M135 51l41 197q47 -54 135.5 -87.5t184.5 -33.5q282 0 282 207q0 42 -27 71.5t-70 47t-95 32t-104.5 32.5t-95.5 43.5t-70 71t-27 107.5q0 168 114.5 267.5t360.5 99.5q181 0 289 -53l-39 -191q-110 96 -277 96q-266 0 -266 -174q0 -37 21 -64t55.5 -42t78.5 -29.5
t90 -25.5t90 -31t78.5 -45t55.5 -68t21 -100q0 -195 -130.5 -297t-365.5 -102q-204 0 -330 71z" />
    <glyph glyph-name="afii10103" unicode="&#x456;" horiz-adv-x="595" 
d="M385 0h-176l231 1085h176zM598 1307q-115 0 -115 106q0 52 29.5 79.5t85.5 27.5q55 0 84 -28t29 -79t-29 -78.5t-84 -27.5z" />
    <glyph glyph-name="afii10104" unicode="&#x457;" horiz-adv-x="595" 
d="M385 0h-176l231 1085h176zM420 1309q-109 0 -109 104q0 105 109 105q110 0 110 -105q0 -104 -110 -104zM774 1309q-108 0 -108 104q0 105 108 105q111 0 111 -105q0 -104 -111 -104z" />
    <glyph glyph-name="afii10105" unicode="&#x458;" horiz-adv-x="595" 
d="M-137 -358l35 168q47 -29 129 -29q74 0 113.5 37.5t58.5 126.5l241 1140h176l-241 -1138q-37 -172 -123.5 -249t-243.5 -77q-101 0 -145 21zM596 1307q-115 0 -115 106q0 52 29.5 79.5t85.5 27.5q55 0 84 -28t29 -79t-29 -78.5t-84 -27.5z" />
    <glyph glyph-name="afii10106" unicode="&#x459;" horiz-adv-x="1804" 
d="M1221 -10q-178 0 -249 34t-71 109q0 28 6 55l160 744h-397l-21 -86q-56 -248 -113 -415t-120.5 -263.5t-130 -137t-148.5 -40.5q-43 0 -78 12l41 195q26 -13 50 -13q49 0 88 30t82.5 111.5t89 233.5t98.5 387l33 139h735l-78 -366q107 8 211 8q207 0 299 -59.5t92 -196.5
q0 -241 -138.5 -361t-440.5 -120zM1266 137q184 0 268 68t84 223q0 88 -62.5 120t-220.5 32q-76 0 -172 -11l-71 -333q-5 -30 -5 -35q0 -35 38 -49.5t141 -14.5z" />
    <glyph glyph-name="afii10107" unicode="&#x45a;" horiz-adv-x="1818" 
d="M1233 -10q-178 0 -249 33.5t-71 107.5q0 15 9 55l59 289h-522l-99 -475h-176l232 1085h176l-98 -456h520l98 456h176l-78 -362q107 8 211 8q207 0 300.5 -59.5t93.5 -196.5q0 -242 -139.5 -363.5t-442.5 -121.5zM1280 137q182 0 267 70t85 225q0 88 -62.5 120t-221.5 32
q-73 0 -172 -11l-70 -340q-4 -24 -4 -34q0 -35 37.5 -48.5t140.5 -13.5z" />
    <glyph glyph-name="afii10108" unicode="&#x45b;" horiz-adv-x="1343" 
d="M274 954l29 131h193l98 457h176l-96 -457h418l-29 -131h-418l-86 -411q144 215 414 215q165 0 241 -60t76 -188q0 -72 -16 -145l-78 -365h-178l72 330q12 62 12 112q0 90 -52.5 126t-172.5 36q-152 0 -245 -82.5t-124 -220.5l-66 -301h-176l203 954h-195z" />
    <glyph glyph-name="afii10109" unicode="&#x45c;" horiz-adv-x="1179" 
d="M184 0l232 1085h176l-96 -446h135l471 446h217l-543 -520l348 -565h-213l-295 485h-153l-103 -485h-176zM801 1270l229 286h230l-314 -286h-145z" />
    <glyph glyph-name="afii10110" unicode="&#x45e;" horiz-adv-x="1107" 
d="M135 -365l37 168q54 -39 111 -39q58 0 107.5 56.5t119.5 181.5l-236 1083h193l162 -872l465 872h196l-620 -1099q-65 -116 -119 -190.5t-104 -114.5t-94.5 -55t-100.5 -15q-63 0 -117 24zM819 1270q-123 0 -190.5 56.5t-67.5 168.5q0 38 4 61h146q-2 -16 -2 -45
q0 -127 135 -127q160 0 211 172h141q-39 -141 -138.5 -213.5t-238.5 -72.5z" />
    <glyph glyph-name="afii10193" unicode="&#x45f;" horiz-adv-x="1261" 
d="M184 0l232 1085h176l-199 -931h541l199 931h176l-232 -1085h-366l-58 -276h-161l59 276h-367z" />
    <glyph glyph-name="afii10050" unicode="&#x490;" horiz-adv-x="1130" 
d="M215 0l305 1434h670l59 276h170l-92 -440h-657l-271 -1270h-184z" />
    <glyph glyph-name="afii10098" unicode="&#x491;" horiz-adv-x="954" 
d="M184 0l232 1085h538l60 277h160l-93 -434h-522l-197 -928h-178z" />
    <glyph glyph-name="uni0492" unicode="&#x492;" horiz-adv-x="1165" 
d="M193 645l30 143h195l137 646h842l-37 -164h-655l-103 -482h436l-30 -143h-437l-137 -645h-184l137 645h-194z" />
    <glyph glyph-name="uni0493" unicode="&#x493;" horiz-adv-x="1005" 
d="M141 477l29 131h190l105 477h698l-33 -157h-522l-69 -320h333l-28 -131h-332l-100 -477h-179l101 477h-193z" />
    <glyph glyph-name="uni049A" unicode="&#x49a;" horiz-adv-x="1460" 
d="M215 0l305 1434h185l-132 -617h117l676 617h233l-774 -697l418 -573h240l-92 -440h-170l59 276h-125l-475 653h-141l-140 -653h-184z" />
    <glyph glyph-name="uni049B" unicode="&#x49b;" horiz-adv-x="1220" 
d="M184 0l232 1085h176l-96 -446h135l469 446h217l-541 -520l252 -411h199l-94 -430h-164l59 276h-117l-295 485h-153l-103 -485h-176z" />
    <glyph glyph-name="uni04A2" unicode="&#x4a2;" horiz-adv-x="1622" 
d="M215 0l305 1434h185l-132 -615h781l131 615h184l-270 -1270h174l-92 -440h-170l59 276h-190l137 655h-778l-140 -655h-184z" />
    <glyph glyph-name="uni04A3" unicode="&#x4a3;" horiz-adv-x="1333" 
d="M184 0l232 1085h176l-96 -454h561l96 454h176l-199 -931h156l-94 -430h-164l59 276h-165l100 477h-561l-101 -477h-176z" />
    <glyph glyph-name="uni04AE" unicode="&#x4ae;" horiz-adv-x="1265" 
d="M541 0l118 559l-311 875h197l241 -684l527 684h215l-682 -875l-121 -559h-184z" />
    <glyph glyph-name="uni04AF" unicode="&#x4af;" horiz-adv-x="1097" 
d="M557 -369h-176l78 369l-185 1085h189l127 -876l495 876h197l-645 -1083z" />
    <glyph glyph-name="uni04B0" unicode="&#x4b0;" horiz-adv-x="1265" 
d="M317 477l31 146h289l-289 811h197l241 -684l527 684h215l-633 -811h285l-29 -146h-324l-102 -477h-184l100 477h-324z" />
    <glyph glyph-name="uni04B1" unicode="&#x4b1;" horiz-adv-x="1097" 
d="M166 -94l29 133h258l-179 1046h189l127 -876l495 876h197l-625 -1046h273l-27 -133h-287l-59 -275h-176l59 275h-274z" />
    <glyph glyph-name="uni04BA" unicode="&#x4ba;" horiz-adv-x="1345" 
d="M705 1434l-127 -600q137 77 356 77q183 0 286 -81t103 -222q0 -58 -27 -196l-86 -412h-184l80 375q27 135 27 182q0 102 -68 146.5t-201 44.5q-194 0 -321 -72l-144 -676h-184l305 1434h185z" />
    <glyph glyph-name="uni04BB" unicode="&#x4bb;" horiz-adv-x="1280" 
d="M184 0l328 1536h174l-137 -647q146 217 416 217q164 0 240.5 -61t76.5 -189q0 -62 -18 -145l-150 -711h-178l143 676q13 67 13 112q0 90 -53 127t-173 37q-152 0 -245.5 -83.5t-122.5 -221.5l-138 -647h-176z" />
    <glyph glyph-name="uni04C0" unicode="&#x4c0;" horiz-adv-x="634" 
d="M225 0l305 1434h185l-305 -1434h-185z" />
    <glyph glyph-name="uni04CF" unicode="&#x4cf;" horiz-adv-x="595" 
d="M387 0h-178l328 1536h176z" />
    <glyph glyph-name="uni04D8" unicode="&#x4d8;" horiz-adv-x="1425" 
d="M694 -20q-219 0 -337.5 112t-118.5 340q0 131 49 340h983q18 95 18 162q0 75 -19 135.5t-62 112t-123.5 80t-192.5 28.5q-214 0 -377 -59l35 170q189 53 395 53q541 0 541 -481q0 -116 -22.5 -233t-66 -228.5t-111.5 -207.5t-153.5 -168.5t-198 -114t-239.5 -41.5z
M727 139q176 0 312 119.5t198 364.5h-795q-22 -93 -22 -187q0 -297 307 -297z" />
    <glyph glyph-name="afii10846" unicode="&#x4d9;" horiz-adv-x="1173" 
d="M735 588h260q9 52 9 102q0 127 -73.5 197.5t-228.5 70.5q-110 0 -221 -35t-182 -98l35 166q64 49 176.5 82t232.5 33q218 0 328.5 -113t110.5 -325q0 -197 -73.5 -353t-212 -245.5t-318.5 -89.5q-212 0 -307 77t-95 207q0 158 139.5 241t419.5 83zM715 463
q-87 0 -152 -9.5t-104 -25.5t-62.5 -39.5t-32 -47.5t-8.5 -54q0 -71 52 -115.5t170 -44.5q312 0 391 336h-254z" />
    <glyph glyph-name="uni04E8" unicode="&#x4e8;" horiz-adv-x="1583" 
d="M813 -20q-258 0 -406.5 145.5t-148.5 400.5q0 217 81 431t234 341q105 88 226.5 122t283.5 34q260 0 402.5 -142t142.5 -403q0 -231 -85.5 -447t-225.5 -327q-199 -155 -504 -155zM842 143q236 0 370 131q69 69 119 172t76 218h-946q-6 -64 -6 -121q0 -194 97.5 -297
t289.5 -103zM711 1188q-153 -121 -222 -381h938q5 68 5 80q0 200 -95.5 301.5t-294.5 101.5q-105 0 -184 -23.5t-147 -78.5z" />
    <glyph glyph-name="uni04E9" unicode="&#x4e9;" horiz-adv-x="1265" 
d="M219 395q0 214 74.5 374t217.5 248.5t339 88.5q190 0 307 -105.5t117 -304.5q0 -330 -155 -523t-437 -193q-228 0 -345.5 112t-117.5 303zM401 428q0 -295 293 -295q150 0 245.5 94.5t131.5 249.5h-670v-49zM831 952q-155 0 -262.5 -91.5t-146.5 -250.5h668q0 9 1 28
t1 28q0 286 -261 286z" />
    <glyph glyph-name="uni1E9E" unicode="&#x1e9e;" horiz-adv-x="1417" 
d="M197 0l204 967q51 240 210 363.5t386 123.5q304 0 443 -231l-404 -389v-3q336 -17 336 -286q0 -162 -80.5 -292.5t-216.5 -201.5t-299 -71q-100 0 -168 16l35 164q64 -17 143 -17q175 0 281.5 98.5t106.5 270.5q0 98 -75.5 145.5t-236.5 47.5h-57l22 106l392 381
q-45 53 -104 75.5t-150 22.5q-84 0 -151 -27t-112 -75t-74 -106t-44 -128l-203 -954h-184z" />
    <glyph glyph-name="figuredash" unicode="&#x2012;" horiz-adv-x="1230" 
d="M322 805h868l-27 -156h-868z" />
    <glyph glyph-name="endash" unicode="&#x2013;" horiz-adv-x="1474" 
d="M352 641h1041l-33 -156h-1041z" />
    <glyph glyph-name="emdash" unicode="&#x2014;" horiz-adv-x="1816" 
d="M330 641h1427l-33 -156h-1427z" />
    <glyph glyph-name="quoteleft" unicode="&#x2018;" horiz-adv-x="661" 
d="M813 1346q-85 -19 -154 -77.5t-94 -133.5q57 0 88 -30.5t31 -88.5q0 -135 -143 -135q-63 0 -99 36t-36 99q0 143 94 268.5t233 169.5z" />
    <glyph glyph-name="quoteright" unicode="&#x2019;" horiz-adv-x="661" 
d="M342 989q85 19 154 77.5t94 133.5q-57 0 -88 30.5t-31 88.5q0 135 143 135q63 0 99.5 -36t36.5 -99q0 -142 -94 -268t-234 -170z" />
    <glyph glyph-name="quotesinglbase" unicode="&#x201a;" horiz-adv-x="661" 
d="M86 -219q85 19 154 77.5t94 133.5q-57 0 -88 30.5t-31 88.5q0 135 143 135q63 0 99.5 -36t36.5 -99q0 -142 -94 -268.5t-234 -170.5z" />
    <glyph glyph-name="quotedblleft" unicode="&#x201c;" horiz-adv-x="1124" 
d="M813 1346q-85 -19 -154 -77.5t-94 -133.5q57 0 88 -30.5t31 -88.5q0 -135 -143 -135q-63 0 -99 36t-36 99q0 143 94 268.5t233 169.5zM1276 1346q-85 -19 -154 -77.5t-94 -133.5q57 0 88 -30.5t31 -88.5q0 -135 -143 -135q-63 0 -99.5 36t-36.5 99q0 142 94 268t234 170z
" />
    <glyph glyph-name="quotedblright" unicode="&#x201d;" horiz-adv-x="1124" 
d="M342 989q85 19 154 77.5t94 133.5q-57 0 -88 30.5t-31 88.5q0 135 143 135q63 0 99.5 -36t36.5 -99q0 -142 -94 -268t-234 -170zM807 989q85 19 154 77.5t94 133.5q-57 0 -88 30.5t-31 88.5q0 135 143 135q63 0 99 -36t36 -99q0 -143 -94 -268.5t-233 -169.5z" />
    <glyph glyph-name="quotedblbase" unicode="&#x201e;" horiz-adv-x="1124" 
d="M86 -219q85 19 154 77.5t94 133.5q-57 0 -88 30.5t-31 88.5q0 135 143 135q63 0 99.5 -36t36.5 -99q0 -142 -94 -268.5t-234 -170.5zM549 -219q85 19 154 77.5t94 133.5q-57 0 -88 30.5t-31 88.5q0 135 143 135q63 0 99 -36t36 -99q0 -143 -94 -269t-233 -170z" />
    <glyph glyph-name="dagger" unicode="&#x2020;" horiz-adv-x="1087" 
d="M305 930l31 145h352l78 359h166l-78 -359h354l-30 -145h-355l-196 -930h-166l196 930h-352z" />
    <glyph glyph-name="daggerdbl" unicode="&#x2021;" horiz-adv-x="1087" 
d="M305 930l31 145h352l78 359h166l-78 -359h356l-32 -145h-355l-90 -426h354l-30 -146h-355l-75 -358h-166l76 358h-355l33 146h352l90 426h-352z" />
    <glyph glyph-name="bullet" unicode="&#x2022;" horiz-adv-x="800" 
d="M553 500q-98 0 -157.5 59.5t-59.5 157.5t59.5 157.5t157.5 59.5q97 0 156 -59.5t59 -157.5t-59 -157.5t-156 -59.5z" />
    <glyph glyph-name="ellipsis" unicode="&#x2026;" horiz-adv-x="2021" 
d="M356 -10q-131 0 -131 129q0 127 131 127q129 0 129 -127q0 -129 -129 -129zM1036 -10q-131 0 -131 129q0 127 131 127q129 0 129 -127q0 -129 -129 -129zM1714 -10q-131 0 -131 129q0 127 131 127q129 0 129 -127q0 -129 -129 -129z" />
    <glyph glyph-name="perthousand" unicode="&#x2030;" horiz-adv-x="2650" 
d="M682 778q-136 0 -218.5 73.5t-82.5 205.5q0 180 120 288.5t300 108.5q133 0 211 -72.5t78 -203.5q0 -178 -114.5 -289t-293.5 -111zM524 1071q0 -80 46.5 -122t129.5 -42q119 0 182.5 67t63.5 187q0 82 -43.5 124t-126.5 42q-119 0 -185.5 -68.5t-66.5 -187.5zM1346 -20
q-137 0 -219.5 73t-82.5 205q0 180 120 288.5t300 108.5q133 0 211 -72.5t78 -203.5q0 -178 -114 -288.5t-293 -110.5zM1188 272q0 -80 46.5 -121.5t129.5 -41.5q119 0 182.5 66.5t63.5 186.5q0 82 -43.5 124t-126.5 42q-119 0 -185.5 -68.5t-66.5 -187.5zM2167 -20
q-137 0 -219 73t-82 205q0 180 120 288.5t300 108.5q133 0 210.5 -72.5t77.5 -203.5q0 -178 -114 -288.5t-293 -110.5zM2009 272q0 -80 46.5 -121.5t129.5 -41.5q119 0 182.5 66.5t63.5 186.5q0 82 -43.5 124t-126.5 42q-119 0 -185.5 -68.5t-66.5 -187.5zM508 0h-170
l1288 1434h172z" />
    <glyph glyph-name="guilsinglleft" unicode="&#x2039;" horiz-adv-x="737" 
d="M457 137l-199 426l367 426h182l-379 -434l197 -418h-168z" />
    <glyph glyph-name="guilsinglright" unicode="&#x203a;" horiz-adv-x="737" 
d="M170 137l377 443l-195 409h168l199 -422l-369 -430h-180z" />
    <glyph glyph-name="fraction" unicode="&#x2044;" horiz-adv-x="518" 
d="M-147 0h-170l1288 1434h172z" />
    <glyph glyph-name="uni2070" unicode="&#x2070;" 
d="M625 768q-316 0 -316 272q0 75 23 172q49 234 168 335.5t311 101.5q159 0 237 -66t78 -209q0 -79 -22 -166q-49 -232 -169 -336t-310 -104zM649 891q119 0 189 72.5t110 240.5q19 83 19 144q0 95 -42.5 136.5t-138.5 41.5q-116 0 -187.5 -64t-111.5 -225
q-22 -93 -22 -170q0 -176 184 -176z" />
    <glyph glyph-name="uni2074" unicode="&#x2074;" 
d="M254 973l22 117l631 548h178l-116 -542h112l-24 -123h-113l-41 -195h-143l41 195h-547zM827 1096l86 409h-2l-471 -409h387z" />
    <glyph glyph-name="uni2075" unicode="&#x2075;" 
d="M596 768q-173 0 -291 37l27 129q121 -39 284 -39q111 0 187 52t76 140q0 67 -47.5 97t-155.5 30q-141 0 -281 -10l119 434h598l-27 -125h-487l-51 -192q89 6 211 6q143 0 210.5 -52t67.5 -159q0 -152 -124 -250t-316 -98z" />
    <glyph glyph-name="uni2076" unicode="&#x2076;" 
d="M631 768q-152 0 -229.5 69.5t-77.5 206.5q0 267 156 436t401 169q108 0 219 -27l-27 -127q-92 29 -227 29q-138 0 -232 -75t-129 -214q145 104 330 104q126 0 191 -53.5t65 -157.5q0 -158 -124 -259t-316 -101zM662 885q108 0 182 59.5t74 149.5q0 131 -168 131
q-74 0 -148 -25.5t-131 -71.5q-8 -27 -8 -63q0 -86 52.5 -133t146.5 -47z" />
    <glyph glyph-name="uni2077" unicode="&#x2077;" 
d="M428 778l553 735h-563l28 125h728l-23 -100l-563 -760h-160z" />
    <glyph glyph-name="uni2078" unicode="&#x2078;" 
d="M623 768q-330 0 -330 199q0 100 70 171.5t184 90.5q-69 15 -105 57t-36 105q0 118 113.5 188t301.5 70q149 0 226 -47t77 -138q0 -84 -63.5 -149.5t-165.5 -85.5q164 -28 164 -178q0 -130 -118.5 -206.5t-317.5 -76.5zM647 887q119 0 192.5 45.5t73.5 120.5
q0 118 -196 118q-126 0 -198.5 -43.5t-72.5 -119.5q0 -121 201 -121zM795 1530q-118 0 -184 -38t-66 -106q0 -108 182 -108q114 0 182 40.5t68 108.5q0 54 -44.5 78.5t-137.5 24.5z" />
    <glyph glyph-name="uni2079" unicode="&#x2079;" 
d="M592 768q-149 0 -270 33l28 129q104 -35 258 -35q127 0 216 78.5t126 224.5q-67 -57 -152.5 -88t-172.5 -31q-120 0 -186 58.5t-66 165.5q0 150 123 248t311 98q303 0 303 -265q0 -268 -147.5 -442t-370.5 -174zM682 1190q143 0 285 117q4 24 4 51q0 83 -52 128.5
t-145 45.5q-109 0 -178.5 -57t-69.5 -148q0 -67 40.5 -102t115.5 -35z" />
    <glyph glyph-name="uni2080" unicode="&#x2080;" 
d="M418 -215q-316 0 -316 272q0 75 23 172q49 234 168 335.5t311 101.5q159 0 237.5 -66t78.5 -209q0 -75 -23 -166q-49 -232 -169 -336t-310 -104zM442 -92q119 0 189 72.5t110 240.5q19 83 19 144q0 95 -42 136.5t-138 41.5q-116 0 -187.5 -64t-111.5 -225
q-23 -98 -23 -170q0 -176 184 -176z" />
    <glyph glyph-name="uni2081" unicode="&#x2081;" 
d="M420 -205l147 697l-276 -132l-35 113l379 182h121l-183 -860h-153z" />
    <glyph glyph-name="uni2082" unicode="&#x2082;" 
d="M72 -205l28 135l287 176q188 116 257 184t69 140q0 107 -185 107q-151 0 -274 -54l29 133q143 50 292 50q304 0 304 -197q0 -107 -95 -204.5t-333 -237.5l-168 -101v-2h495l-28 -129h-678z" />
    <glyph glyph-name="uni2083" unicode="&#x2083;" 
d="M360 -215q-181 0 -282 41l28 131q90 -45 269 -45q49 0 92 6.5t85.5 23t67.5 50t25 80.5q0 62 -44.5 87t-141.5 25h-162l22 109h150q42 0 80 6.5t75 21t59 44t22 71.5q0 58 -45 80.5t-148 22.5q-167 0 -274 -41l26 127q114 41 320 41q282 0 282 -183q0 -175 -260 -237
l-2 -2q108 -16 151.5 -60t43.5 -114q0 -60 -28.5 -109.5t-73.5 -81.5t-104 -53.5t-117.5 -31t-115.5 -9.5z" />
    <glyph glyph-name="uni2084" unicode="&#x2084;" 
d="M49 -10l23 116l630 549h179l-117 -542h113l-25 -123h-113l-41 -195h-143l41 195h-547zM623 113l86 409h-2l-471 -409h387z" />
    <glyph glyph-name="uni2085" unicode="&#x2085;" 
d="M387 -215q-173 0 -291 37l27 129q121 -39 285 -39q111 0 186.5 52t75.5 140q0 67 -47.5 97t-155.5 30q-141 0 -281 -10l119 434h598l-26 -125h-488l-51 -192q89 6 211 6q143 0 210.5 -52t67.5 -159q0 -152 -124 -250t-316 -98z" />
    <glyph glyph-name="uni2086" unicode="&#x2086;" 
d="M436 -215q-152 0 -229.5 69.5t-77.5 206.5q0 267 156 436t401 169q108 0 219 -27l-26 -127q-92 29 -228 29q-138 0 -231.5 -75t-128.5 -214q145 104 330 104q126 0 191 -53.5t65 -157.5q0 -158 -124.5 -259t-316.5 -101zM467 -98q108 0 182 59.5t74 149.5q0 131 -168 131
q-74 0 -148 -25.5t-131 -71.5q-8 -27 -8 -63q0 -86 52.5 -133t146.5 -47z" />
    <glyph glyph-name="uni2087" unicode="&#x2087;" 
d="M219 -205l553 735h-563l29 125h727l-23 -100l-563 -760h-160z" />
    <glyph glyph-name="uni2088" unicode="&#x2088;" 
d="M414 -215q-330 0 -330 199q0 100 70 171.5t184 90.5q-69 15 -105 57t-36 105q0 118 113.5 188t301.5 70q149 0 226 -47t77 -138q0 -84 -63.5 -149.5t-165.5 -85.5q164 -28 164 -178q0 -130 -118.5 -206.5t-317.5 -76.5zM438 -96q119 0 193 45.5t74 120.5q0 118 -197 118
q-126 0 -198 -43.5t-72 -119.5q0 -62 49 -91.5t151 -29.5zM586 547q-118 0 -184 -38t-66 -106q0 -108 182 -108q114 0 182 40.5t68 108.5q0 54 -44.5 78.5t-137.5 24.5z" />
    <glyph glyph-name="uni2089" unicode="&#x2089;" 
d="M428 -10q-149 0 -270 33l28 129q104 -35 258 -35q127 0 216 78.5t126 224.5q-67 -57 -152.5 -88t-172.5 -31q-120 0 -186 58t-66 165q0 150 123 248t311 98q303 0 303 -264q0 -268 -147.5 -442t-370.5 -174zM518 412q144 0 285 116q4 24 4 52q0 83 -52 128.5t-145 45.5
q-109 0 -178.5 -57t-69.5 -148q0 -67 40.5 -102t115.5 -35z" />
    <glyph glyph-name="Euro" unicode="&#x20ac;" horiz-adv-x="1230" 
d="M229 809l70 145h123q87 237 263.5 368.5t418.5 131.5q114 0 190 -16.5t148 -53.5l-78 -157q-105 63 -266 63q-166 0 -290 -87t-192 -249h615l-72 -145h-588q-18 -73 -24 -154h538l-71 -147h-473q2 -188 83.5 -276.5t262.5 -88.5q167 0 327 84l-38 -184q-149 -63 -328 -63
q-249 0 -374.5 132t-125.5 388v8h-178l74 147h110q8 71 25 154h-150z" />
    <glyph glyph-name="uni20B4" unicode="&#x20b4;" horiz-adv-x="1230" 
d="M334 811l31 147h565q149 125 149 226q0 114 -184 114q-91 0 -162.5 -11.5t-171.5 -41.5l35 162q169 47 350 47q163 0 247.5 -57t84.5 -166q0 -137 -129 -273h123l-31 -147h-258q-79 -62 -211 -154h436l-30 -147h-588q-125 -118 -125 -223q0 -73 67.5 -112.5t188.5 -39.5
q183 0 313 55l-35 -161q-155 -49 -348 -49q-179 0 -281 72.5t-102 199.5q0 128 105 258h-103l31 147h223q119 93 209 154h-399z" />
    <glyph glyph-name="uni20B8" unicode="&#x20b8;" horiz-adv-x="1230" 
d="M522 0l211 987h-452l30 148h1092l-31 -148h-454l-209 -987h-187zM344 1288l31 148h1089l-30 -148h-1090z" />
    <glyph glyph-name="uni20BD" unicode="&#x20bd;" horiz-adv-x="1230" 
d="M141 303l31 148h188l33 153h-188l35 166h188l141 660q186 14 363 14q442 0 442 -342q0 -250 -151.5 -374t-462.5 -124h-182l-33 -153h422l-31 -148h-422l-63 -303h-187l64 303h-187zM721 1276l-109 -506h172q207 0 300.5 72.5t93.5 230.5q0 207 -269 207q-118 0 -188 -4z
" />
    <glyph glyph-name="afii61352" unicode="&#x2116;" horiz-adv-x="2269" 
d="M1649 473l30 139h566l-29 -139h-567zM215 0l305 1434h189l426 -961q65 -148 94 -231q20 145 37 231l204 961h185l-305 -1434h-189l-426 958q-48 107 -92 234q-14 -108 -39 -234l-203 -958h-186zM1720 1010q0 92 22 168t68 137t127.5 95t192.5 34q134 0 209.5 -63.5
t75.5 -178.5q0 -208 -106 -321t-308 -113q-128 0 -204.5 64.5t-76.5 177.5zM2109 1329q-126 0 -184.5 -80.5t-58.5 -216.5q0 -149 166 -149q112 0 175.5 79.5t63.5 217.5q0 149 -162 149z" />
    <glyph glyph-name="uni2120" unicode="&#x2120;" horiz-adv-x="1746" 
d="M637 768q-142 0 -231 41v129q37 -29 100 -46.5t131 -17.5q94 0 134 21t40 74q0 31 -22.5 51t-58.5 30.5t-79.5 19t-87 21t-79.5 31.5t-58.5 55.5t-22.5 88.5q0 44 13.5 75t46 55t90 36t141.5 12q100 0 201 -33v-123q-84 53 -203 53q-91 0 -127.5 -16.5t-36.5 -56.5
q0 -31 22.5 -50.5t58.5 -29.5t79.5 -17.5t87 -19.5t79.5 -30.5t58.5 -55t22.5 -88.5q0 -108 -69.5 -158.5t-229.5 -50.5zM1077 778v656h140l213 -375h2l208 375h142v-656h-119v482h-2l-195 -334h-77l-191 334h-2v-482h-119z" />
    <glyph glyph-name="trademark" unicode="&#x2122;" horiz-adv-x="1675" 
d="M600 778v545h-213v111h555v-111h-215v-545h-127zM1053 778v656h141l213 -375h2l209 375h141v-656h-119v482h-2l-194 -334h-78l-190 334h-2v-482h-121z" />
    <glyph glyph-name="onethird" unicode="&#x2153;" horiz-adv-x="1945" 
d="M451 0h-170l1288 1434h172zM467 573l147 697l-276 -131l-35 112l379 183h121l-182 -861h-154zM1438 -10q-182 0 -283 41l29 131q90 -45 268 -45q49 0 91.5 6.5t85.5 22.5t68 49.5t25 80.5q0 63 -44.5 88t-141.5 25h-162l23 109h149q42 0 80 6.5t75 21t59 44t22 71.5
q0 58 -44.5 80t-148.5 22q-167 0 -274 -41l26 127q114 41 320 41q283 0 283 -182q0 -175 -261 -237l-2 -2q107 -16 151 -60.5t44 -114.5q0 -74 -42 -131.5t-109.5 -89.5t-140.5 -47.5t-146 -15.5z" />
    <glyph glyph-name="twothirds" unicode="&#x2154;" horiz-adv-x="1945" 
d="M584 0h-170l1288 1434h172zM172 573l29 136l286 176q188 116 257 183.5t69 139.5q0 107 -184 107q-154 0 -275 -53l29 133q140 49 293 49q154 0 228.5 -48.5t74.5 -148.5q0 -107 -95 -204.5t-333 -237.5l-168 -100v-3h496l-29 -129h-678zM1497 -10q-182 0 -283 41l29 131
q90 -45 268 -45q38 0 72.5 3.5t72 14t64.5 27.5t44.5 46.5t17.5 67.5q0 63 -45 88t-142 25h-161l22 109h150q42 0 79.5 6.5t74.5 21t59 44t22 71.5q0 58 -44.5 80t-147.5 22q-168 0 -275 -41l27 127q114 41 319 41q283 0 283 -182q0 -175 -260 -237l-2 -2
q107 -16 150.5 -60.5t43.5 -114.5q0 -74 -42 -131.5t-109.5 -89.5t-140.5 -47.5t-146 -15.5z" />
    <glyph glyph-name="oneeighth" unicode="&#x215b;" horiz-adv-x="1945" 
d="M467 0h-170l1288 1434h172zM483 573l148 697l-277 -131l-35 112l379 183h121l-182 -861h-154zM1481 -10q-167 0 -248.5 48.5t-81.5 149.5q0 100 70 172t184 91q-141 31 -141 161q0 118 113.5 188t301.5 70q149 0 226 -46.5t77 -137.5q0 -84 -63.5 -149.5t-165.5 -85.5
q164 -28 164 -179q0 -130 -118.5 -206t-317.5 -76zM1505 109q119 0 193 45t74 120q0 119 -197 119q-126 0 -198 -43.5t-72 -120.5q0 -62 48.5 -91t151.5 -29zM1653 752q-118 0 -184 -38t-66 -106q0 -108 182 -108q114 0 182 40.5t68 108.5q0 54 -44.5 78.5t-137.5 24.5z" />
    <glyph glyph-name="threeeighths" unicode="&#x215c;" horiz-adv-x="1945" 
d="M522 0h-170l1288 1434h172zM481 563q-181 0 -282 41l28 131q90 -45 269 -45q49 0 92 6.5t85.5 23t67.5 50t25 80.5q0 63 -44.5 88t-141.5 25h-162l22 108h150q42 0 79.5 6.5t74.5 21t59 44t22 71.5q0 58 -44.5 80.5t-147.5 22.5q-168 0 -275 -41l27 127q114 41 320 41
q282 0 282 -182q0 -176 -260 -238l-2 -2q108 -16 151.5 -60t43.5 -114q0 -60 -28.5 -109.5t-73.5 -81.5t-104 -53.5t-117.5 -31t-115.5 -9.5zM1481 -10q-167 0 -248.5 48.5t-81.5 149.5q0 100 70 172t184 91q-141 31 -141 161q0 118 113.5 188t301.5 70q149 0 226 -46.5
t77 -137.5q0 -84 -63.5 -149.5t-165.5 -85.5q164 -28 164 -179q0 -130 -118.5 -206t-317.5 -76zM1505 109q119 0 193 45t74 120q0 119 -197 119q-126 0 -198 -43.5t-72 -120.5q0 -62 48.5 -91t151.5 -29zM1653 752q-118 0 -184 -38t-66 -106q0 -108 182 -108q114 0 182 40.5
t68 108.5q0 54 -44.5 78.5t-137.5 24.5z" />
    <glyph glyph-name="fiveeighths" unicode="&#x215d;" horiz-adv-x="1945" 
d="M512 0h-170l1288 1434h172zM498 563q-173 0 -291 37l26 129q121 -39 285 -39q111 0 186.5 52.5t75.5 140.5q0 67 -47 97t-155 30q-127 0 -281 -11l119 435h598l-27 -125h-487l-51 -193q89 6 210 6q144 0 211.5 -52t67.5 -159q0 -152 -124 -250t-316 -98zM1464 -10
q-166 0 -247.5 48.5t-81.5 149.5q0 100 70 172t184 91q-69 15 -105.5 56.5t-36.5 104.5q0 118 114 188t302 70q149 0 226 -46.5t77 -137.5q0 -84 -63.5 -149.5t-165.5 -85.5q164 -28 164 -179q0 -130 -119 -206t-318 -76zM1489 109q119 0 192.5 45t73.5 120q0 119 -196 119
q-126 0 -198.5 -44t-72.5 -120q0 -61 49 -90.5t152 -29.5zM1636 752q-118 0 -184 -38t-66 -106q0 -108 183 -108q114 0 182 40.5t68 108.5q0 53 -45 78t-138 25z" />
    <glyph glyph-name="seveneighths" unicode="&#x215e;" horiz-adv-x="1945" 
d="M434 0h-170l1288 1434h172zM375 573l553 736h-563l28 125h727l-22 -101l-563 -760h-160zM1475 -10q-167 0 -248.5 48.5t-81.5 149.5q0 100 70 172t184 91q-69 15 -105.5 56.5t-36.5 104.5q0 118 114 188t302 70q149 0 226 -46.5t77 -137.5q0 -84 -63.5 -149.5
t-165.5 -85.5q164 -28 164 -179q0 -130 -118.5 -206t-317.5 -76zM1499 109q119 0 192.5 45t73.5 120q0 119 -196 119q-126 0 -198.5 -44t-72.5 -120q0 -61 49 -90.5t152 -29.5zM1647 752q-118 0 -184 -38t-66 -106q0 -108 182 -108q114 0 182 40.5t68 108.5q0 54 -44.5 78.5
t-137.5 24.5z" />
    <glyph glyph-name="minus" unicode="&#x2212;" horiz-adv-x="1230" 
d="M315 750h883v-154h-883v154z" />
    <glyph glyph-name="infinity" unicode="&#x221e;" horiz-adv-x="1435" 
d="M981 512l-111 113l-110 -115q-95 -98 -236 -98q-73 0 -129.5 27.5t-89 72.5t-49 96.5t-16.5 106.5t16.5 107t49 98t89 74t129.5 28q140 0 236 -98l110 -115l115 119q89 94 234 94q93 0 158.5 -45t94.5 -112.5t29 -149.5q0 -41 -9.5 -82.5t-31.5 -81.5t-54 -70.5
t-80 -49.5t-107 -19q-138 0 -238 100zM952 715l103 -103q67 -67 153 -67q78 0 119 49t41 121q0 76 -43.5 125t-114.5 49q-98 0 -170 -80zM791 715l-107 108q-66 66 -147 66t-120.5 -51t-39.5 -123q0 -74 42.5 -121t112.5 -47q90 0 166 76z" />
    <glyph glyph-name="approxequal" unicode="&#x2248;" horiz-adv-x="1230" 
d="M981 309q-58 0 -123 24.5t-112.5 53.5t-103.5 53.5t-99 24.5q-68 0 -127.5 -30.5t-100.5 -76.5v170q40 44 101.5 67t130.5 23q56 0 120 -24t113 -53.5t109 -53.5t108 -24q58 0 113 30t88 78v-178q-36 -39 -94.5 -61.5t-122.5 -22.5zM981 727q-58 0 -123 24.5t-112.5 53.5
t-103.5 53.5t-99 24.5q-68 0 -127.5 -30.5t-100.5 -76.5v170q40 44 101.5 67t130.5 23q56 0 120 -24t113 -53.5t109 -53.5t108 -24q58 0 113 30t88 78v-178q-36 -39 -94.5 -61.5t-122.5 -22.5z" />
    <glyph glyph-name="notequal" unicode="&#x2260;" horiz-adv-x="1230" 
d="M315 958h519l108 207h143l-108 -207h221v-153h-301l-137 -264h438v-154h-518l-107 -207h-145l107 207h-220v154h299l140 264h-439v153z" />
    <glyph glyph-name="lessequal" unicode="&#x2264;" horiz-adv-x="1230" 
d="M1171 453l-880 352v147l880 353v-164l-673 -260v-4l673 -256v-168zM291 299h883v-154h-883v154z" />
    <glyph glyph-name="greaterequal" unicode="&#x2265;" horiz-adv-x="1230" 
d="M328 453v161l673 260v5l-673 258v168l880 -353v-149zM326 299h882v-154h-882v154z" />
    <glyph glyph-name="lozenge" unicode="&#x25ca;" horiz-adv-x="1230" 
d="M766 -20l-514 737l514 737l516 -737zM766 244l330 473l-330 471l-330 -471z" />
    <glyph glyph-name="uniF406" unicode="&#xf406;" horiz-adv-x="671" 
d="M410 1831l120 33q8 -80 47 -121t121 -41q81 0 138 41t100 121l106 -33q-125 -254 -370 -254q-122 0 -188 64.5t-74 189.5z" />
    <glyph glyph-name="uniF407" unicode="&#xf407;" horiz-adv-x="458" 
d="M90 -489q-104 0 -166 32l35 97q59 -27 129 -27q60 0 104 30.5t44 88.5q0 38 -33.5 54.5t-83.5 16.5q-52 0 -70 -4l72 201h108l-41 -111q90 0 142.5 -32.5t52.5 -100.5q0 -111 -89 -178t-204 -67z" />
    <glyph glyph-name="uniF408" unicode="&#xf408;" horiz-adv-x="739" 
d="M354 1567l316 307h196l187 -307h-146l-153 207l-242 -207h-158z" />
    <glyph glyph-name="uniF409" unicode="&#xf409;" horiz-adv-x="301" 
d="M-68 -483l17 82q65 15 102 41.5t51 78.5h-24q-49 0 -76 19t-27 53q0 55 40.5 82t109.5 27q50 0 79 -24t29 -73q0 -103 -86.5 -186t-214.5 -100z" />
    <glyph glyph-name="uniF40A" unicode="&#xf40a;" horiz-adv-x="532" 
d="M336 1014l196 420h185l-248 -420h-133z" />
    <glyph glyph-name="uniF40B" unicode="&#xf40b;" horiz-adv-x="278" 
d="M504 1610q-115 0 -115 110q0 111 115 111q114 0 114 -111q0 -110 -114 -110z" />
    <glyph glyph-name="uniF40C" unicode="&#xf40c;" horiz-adv-x="456" 
d="M594 1518q-89 0 -146 56.5t-57 145.5t57 146t146 57t146 -57t57 -146t-57 -145.5t-146 -56.5zM594 1618q50 0 76 26t26 76t-26.5 76.5t-75.5 26.5q-48 0 -75 -27t-27 -76t27 -75.5t75 -26.5z" />
    <glyph glyph-name="uniF40D" unicode="&#xf40d;" horiz-adv-x="659" 
d="M477 1614l-106 22q7 89 58 141t126 52q10 0 20 -1t17.5 -2.5t19.5 -5t17.5 -5.5t19.5 -8t18 -8t21 -9.5t21 -9.5q13 -6 36 -17t33 -15.5t25 -8.5t28 -4q29 0 51.5 22.5t32.5 67.5l103 -23q-9 -89 -60 -139.5t-120 -50.5q-35 0 -64 9t-92 38q-12 6 -34 17.5t-32 16
t-24.5 9t-26.5 4.5q-31 0 -54.5 -22t-33.5 -70z" />
    <glyph glyph-name="uniF40E" unicode="&#xf40e;" horiz-adv-x="438" 
d="M137 -489q-93 0 -138.5 38.5t-45.5 104.5q0 189 301 364l90 -12q-39 -24 -77.5 -54.5t-77.5 -70.5t-63 -86t-24 -90q0 -38 28.5 -59t78.5 -21q73 0 135 33l-22 -107q-89 -40 -185 -40z" />
    <glyph glyph-name="zero.tab" unicode="&#xf4e0;" horiz-adv-x="1323" 
d="M659 -20q-202 0 -300.5 120.5t-98.5 325.5q0 137 26.5 286.5t92 308t160.5 253.5q85 97 190.5 138.5t247.5 41.5q202 0 296.5 -115t94.5 -319q0 -210 -66.5 -447t-193.5 -376q-86 -121 -197 -169t-252 -48zM688 131q95 0 161 35t118 110q102 118 160.5 331.5t58.5 396.5
q0 299 -248 299q-87 0 -149 -32t-119 -106q-107 -113 -167.5 -323t-60.5 -408q0 -303 246 -303z" />
    <glyph glyph-name="one.tab" unicode="&#xf4e1;" horiz-adv-x="1323" 
d="M240 154h426l227 1067l-477 -240l37 176l536 277h127l-272 -1280h334l-33 -154h-938z" />
    <glyph glyph-name="two.tab" unicode="&#xf4e2;" horiz-adv-x="1323" 
d="M180 0l27 127q253 179 659 494q80 62 130.5 108.5t92 99.5t60 108t18.5 118q0 130 -71.5 183.5t-241.5 53.5q-204 0 -412 -135l41 199q207 98 437 98q200 0 314 -91.5t114 -268.5q0 -75 -18 -142t-47.5 -120.5t-80.5 -109.5t-103.5 -101.5t-129.5 -104.5
q-298 -225 -490 -358h703l-35 -158h-967z" />
    <glyph glyph-name="three.tab" unicode="&#xf4e3;" horiz-adv-x="1323" 
d="M137 84l41 168q66 -52 169 -85.5t233 -33.5q93 0 165 16t131 52t91 102t32 160q0 97 -80 146.5t-251 49.5h-160l33 150h147q201 0 306.5 75.5t105.5 217.5q0 100 -67 149t-214 49q-248 0 -434 -104l43 174q198 84 463 84q103 0 180.5 -23.5t122.5 -65.5t66.5 -94.5
t21.5 -115.5q0 -174 -94 -275.5t-273 -144.5q140 -20 203.5 -89t63.5 -195q0 -244 -199 -375q-80 -53 -180 -74.5t-238 -21.5q-249 0 -428 104z" />
    <glyph glyph-name="four.tab" unicode="&#xf4e4;" horiz-adv-x="1323" 
d="M145 375l25 108l870 951h224l-191 -904h197l-31 -155h-201l-80 -375h-176l80 375h-717zM403 530h494l147 701z" />
    <glyph glyph-name="five.tab" unicode="&#xf4e5;" horiz-adv-x="1323" 
d="M346 702l211 732h791l-33 -154h-639l-121 -410q133 15 223 15q98 0 177 -18.5t141.5 -58t96.5 -108t34 -161.5q0 -116 -34 -209.5t-93 -158t-142 -108t-179 -63.5t-206 -20q-236 0 -385 73l39 178q141 -98 361 -98q93 0 173 21t144.5 63.5t101.5 116t37 170.5
q0 60 -21 103.5t-53 68t-81.5 39t-95 18.5t-105.5 4q-170 0 -342 -35z" />
    <glyph glyph-name="six.tab" unicode="&#xf4e6;" horiz-adv-x="1331" 
d="M1368 1393l-39 -176q-110 83 -297 83q-105 0 -192 -32t-149.5 -87.5t-110 -135t-77 -168t-46.5 -193.5q82 121 185.5 179.5t258.5 58.5q183 0 289 -97.5t106 -275.5q0 -260 -163 -414.5t-428 -154.5q-200 0 -318.5 119.5t-118.5 336.5q0 256 80.5 480.5t226.5 359.5
q108 99 227 138.5t275 39.5q179 0 291 -61zM721 133q176 0 284.5 103t108.5 278q0 129 -73 194.5t-205 65.5q-106 0 -192.5 -40.5t-139.5 -120.5t-53 -185q0 -139 69.5 -217t200.5 -78z" />
    <glyph glyph-name="seven.tab" unicode="&#xf4e7;" horiz-adv-x="1331" 
d="M356 0l854 1280h-780l31 154h1003l-20 -101l-877 -1333h-211z" />
    <glyph glyph-name="eight.tab" unicode="&#xf4e8;" horiz-adv-x="1331" 
d="M657 -20q-89 0 -165.5 21t-137.5 62.5t-96 112.5t-35 164q0 177 107 288.5t284 141.5q-206 62 -206 252q0 90 31.5 164t84 123t124 82.5t149 48t161.5 14.5q82 0 155 -18t133.5 -55t96 -100t35.5 -146q0 -156 -86.5 -246.5t-247.5 -132.5q115 -22 172.5 -100t57.5 -191
q0 -120 -49 -218.5t-142 -160.5q-152 -106 -426 -106zM698 133q82 0 151 19t124.5 57.5t87 104t31.5 151.5q0 225 -297 225q-74 0 -141.5 -18.5t-124 -54.5t-90 -97t-33.5 -139q0 -123 82.5 -185.5t209.5 -62.5zM938 1300q-71 0 -131.5 -15.5t-110.5 -47.5t-79 -89t-29 -132
q0 -69 38 -115t94 -64t128 -18q71 0 131 14.5t110 45t78.5 85.5t28.5 130q0 105 -73.5 155.5t-184.5 50.5z" />
    <glyph glyph-name="nine.tab" unicode="&#xf4e9;" horiz-adv-x="1331" 
d="M555 -20q-84 0 -168 17.5t-131 43.5l41 180q43 -35 122 -61.5t169 -26.5q133 0 238.5 50.5t173 139.5t108 196.5t57.5 234.5q-138 -244 -446 -244q-170 0 -278.5 101.5t-108.5 269.5q0 264 172 426q159 147 403 147q227 0 342 -122t115 -351q0 -232 -65.5 -433
t-172.5 -325q-106 -125 -242.5 -184t-328.5 -59zM772 664q112 0 204 40t149 121t57 191q0 135 -79.5 209.5t-215.5 74.5q-172 0 -272.5 -113.5t-100.5 -283.5q0 -118 68.5 -178.5t189.5 -60.5z" />
    <glyph glyph-name="dollar.tab" unicode="&#xf4ec;" horiz-adv-x="1331" 
d="M543 -246l49 226q-110 8 -212.5 39.5t-158.5 76.5l45 205q72 -78 175 -121t218 -43q180 0 273.5 71.5t93.5 209.5q0 64 -33.5 110.5t-86.5 76t-117.5 54.5t-129 54t-117.5 66.5t-86.5 101t-33.5 147.5q0 184 130.5 299t350.5 127l39 184h150l-39 -188q190 -16 307 -84
l-43 -197q-146 127 -356 127q-340 0 -340 -235q0 -55 26 -98.5t68 -69.5t96.5 -52t110.5 -46.5t110.5 -52t96.5 -68.5t68 -97t26 -137q0 -202 -126.5 -321.5t-357.5 -136.5l-49 -228h-147z" />
    <glyph glyph-name="Euro.tab" unicode="&#xf4ed;" horiz-adv-x="1331" 
d="M279 809l69 145h123q87 237 263.5 368.5t418.5 131.5q114 0 190 -16.5t148 -53.5l-78 -157q-105 63 -266 63q-166 0 -289.5 -87t-191.5 -249h614l-72 -145h-587q-19 -79 -25 -154h539l-72 -147h-473q2 -188 83.5 -276.5t262.5 -88.5q168 0 328 84l-39 -184
q-149 -63 -328 -63q-249 0 -374.5 132t-125.5 388v8h-178l74 147h110q8 71 25 154h-149z" />
    <glyph glyph-name="cent.tab" unicode="&#xf4ee;" horiz-adv-x="1331" 
d="M1196 248l-39 -174q-139 -92 -362 -97l-47 -223h-152l49 234q-164 29 -252 140t-88 286q0 301 147.5 484t430.5 206l39 186h151l-39 -184q180 -11 266 -70l-40 -180q-120 98 -316 98q-224 0 -340.5 -134.5t-116.5 -377.5q0 -67 20 -122.5t61 -98t108.5 -66.5t157.5 -24
q101 0 196.5 33t165.5 84z" />
    <glyph glyph-name="sterling.tab" unicode="&#xf4ef;" horiz-adv-x="1331" 
d="M350 696l27 125h192l33 154q105 479 569 479q148 0 261 -37l-37 -166q-128 39 -234 39q-161 0 -249.5 -76.5t-125.5 -246.5l-32 -146h368l-26 -125h-369l-115 -532h553l-35 -164h-927l33 164h192l115 532h-193z" />
    <glyph glyph-name="yen.tab" unicode="&#xf4fa;" horiz-adv-x="1331" 
d="M350 575l31 148h262l-246 711h197l229 -680l500 680h217l-549 -711h264l-30 -148h-346l-33 -153h346l-31 -148h-348l-57 -274h-185l58 274h-342l30 148h345l32 151l-2 2h-342z" />
    <glyph glyph-name="florin.tab" unicode="&#xf4fb;" horiz-adv-x="1331" 
d="M541 932l30 153h207l23 109q39 190 128.5 276t254.5 86q76 0 145 -14l-31 -147q-60 12 -114 12q-98 0 -143 -47.5t-74 -181.5l-21 -93h285l-31 -153h-287l-194 -932q-44 -214 -128.5 -301.5t-248.5 -87.5q-59 0 -92 8l33 150q31 -7 57 -7q82 0 131 53t76 183l198 934
h-204z" />
    <glyph glyph-name="uni20B4.tab" unicode="&#xf4fc;" horiz-adv-x="1337" 
d="M387 811l31 147h565q150 126 150 226q0 114 -185 114q-91 0 -162.5 -11.5t-171.5 -41.5l35 162q169 47 350 47q163 0 247.5 -57t84.5 -166q0 -137 -129 -273h123l-31 -147h-258q-79 -62 -211 -154h437l-31 -147h-588q-125 -118 -125 -223q0 -73 67.5 -112.5t188.5 -39.5
q183 0 313 55l-34 -161q-155 -49 -348 -49q-179 0 -281 72.5t-102 199.5q0 129 104 258h-102l30 147h224q126 98 208 154h-399z" />
    <glyph glyph-name="uni20BD.tab" unicode="&#xf4fd;" horiz-adv-x="1331" 
d="M190 303l31 148h189l32 153h-188l35 166h188l141 660q186 14 363 14q442 0 442 -342q0 -250 -151.5 -374t-462.5 -124h-182l-33 -153h422l-31 -148h-422l-63 -303h-187l64 303h-187zM770 1276l-108 -506h172q207 0 300 72t93 231q0 207 -269 207q-118 0 -188 -4z" />
    <glyph glyph-name="uni20B8.tab" unicode="&#xf5f3;" horiz-adv-x="1331" 
d="M571 0l211 987h-452l30 148h1092l-31 -148h-454l-209 -987h-187zM393 1288l31 148h1089l-30 -148h-1090z" />
    <glyph glyph-name="zero.denominator" unicode="&#xf655;" 
d="M461 -10q-316 0 -316 272q0 75 23 172q49 234 168 335t311 101q159 0 237.5 -65.5t78.5 -208.5q0 -75 -23 -166q-49 -232 -169 -336t-310 -104zM485 113q119 0 189 72.5t110 240.5q19 83 19 143q0 95 -42.5 137t-137.5 42q-116 0 -187.5 -64t-111.5 -225
q-23 -98 -23 -170q0 -176 184 -176z" />
    <glyph glyph-name="one.denominator" unicode="&#xf656;" 
d="M463 0l147 696l-276 -131l-35 113l379 182h121l-183 -860h-153z" />
    <glyph glyph-name="two.denominator" unicode="&#xf657;" 
d="M115 0l28 135l287 176q188 116 257 184t69 140q0 106 -185 106q-153 0 -274 -53l29 133q140 49 292 49q154 0 229 -48t75 -148q0 -107 -95 -205t-333 -238l-168 -100v-2h495l-28 -129h-678z" />
    <glyph glyph-name="three.denominator" unicode="&#xf658;" 
d="M406 -10q-182 0 -283 41l29 131q90 -45 268 -45q49 0 91.5 6.5t85.5 22.5t68 49.5t25 80.5q0 63 -44.5 88t-141.5 25h-162l23 109h149q42 0 80 6.5t75 21t59 44t22 71.5q0 58 -44.5 80t-148.5 22q-167 0 -274 -41l26 127q114 41 320 41q282 0 282 -182q0 -175 -260 -237
l-2 -2q107 -16 151 -60.5t44 -114.5q0 -74 -42 -131.5t-109.5 -89.5t-140.5 -47.5t-146 -15.5z" />
    <glyph glyph-name="four.denominator" unicode="&#xf659;" 
d="M88 195l23 116l630 549h179l-117 -543h112l-24 -122h-113l-41 -195h-143l41 195h-547zM662 317l86 410h-3l-471 -410h388z" />
    <glyph glyph-name="five.denominator" unicode="&#xf65a;" 
d="M432 -10q-173 0 -291 37l27 129q121 -39 285 -39q111 0 186.5 52t75.5 140q0 67 -47.5 97t-155.5 30q-141 0 -281 -10l119 434h598l-26 -125h-488l-51 -192q88 6 211 6q143 0 210.5 -52t67.5 -159q0 -152 -124 -250t-316 -98z" />
    <glyph glyph-name="six.denominator" unicode="&#xf65b;" 
d="M465 -10q-152 0 -229.5 69.5t-77.5 206.5q0 267 156 435.5t401 168.5q112 0 219 -26l-27 -127q-89 28 -227 28t-232 -74.5t-129 -213.5q145 104 330 104q126 0 191 -53.5t65 -157.5q0 -158 -124 -259t-316 -101zM496 106q108 0 182 59.5t74 149.5q0 131 -168 131
q-74 0 -148 -25.5t-131 -70.5q-8 -27 -8 -63q0 -86 52.5 -133.5t146.5 -47.5z" />
    <glyph glyph-name="seven.denominator" unicode="&#xf65c;" 
d="M264 0l553 735h-563l29 125h727l-23 -100l-563 -760h-160z" />
    <glyph glyph-name="eight.denominator" unicode="&#xf65d;" 
d="M459 -10q-167 0 -248.5 48.5t-81.5 149.5q0 100 70 172t184 91q-141 31 -141 161q0 118 113.5 188t301.5 70q149 0 226.5 -46.5t77.5 -137.5q0 -84 -64 -149.5t-166 -85.5q164 -28 164 -179q0 -130 -118.5 -206t-317.5 -76zM483 109q119 0 193 45t74 120q0 119 -197 119
q-126 0 -198 -43.5t-72 -120.5q0 -62 48.5 -91t151.5 -29zM631 752q-118 0 -184 -38t-66 -106q0 -108 182 -108q114 0 182 40.5t68 108.5q0 54 -44.5 78.5t-137.5 24.5z" />
    <glyph glyph-name="nine.denominator" unicode="&#xf65e;" 
d="M428 -10q-149 0 -270 33l28 129q104 -35 258 -35q127 0 216 78.5t126 224.5q-67 -57 -152.5 -88t-172.5 -31q-120 0 -186 58t-66 165q0 150 123 248t311 98q303 0 303 -264q0 -268 -147.5 -442t-370.5 -174zM518 412q144 0 285 116q4 24 4 52q0 83 -52 128.5t-145 45.5
q-109 0 -178.5 -57t-69.5 -148q0 -67 40.5 -102t115.5 -35z" />
    <glyph glyph-name="zero.numerator" unicode="&#xf661;" 
d="M584 563q-316 0 -316 273q0 75 23 172q49 234 168 335t311 101q159 0 237 -66t78 -209q0 -78 -22 -165q-49 -232 -169 -336.5t-310 -104.5zM608 686q119 0 189 72.5t110 240.5q19 83 19 144q0 95 -42.5 136.5t-138.5 41.5q-116 0 -187.5 -64t-111.5 -225
q-22 -94 -22 -170q0 -176 184 -176z" />
    <glyph glyph-name="one.numerator" unicode="&#xf662;" 
d="M586 573l147 697l-276 -131l-35 112l379 183h121l-183 -861h-153z" />
    <glyph glyph-name="two.numerator" unicode="&#xf663;" 
d="M238 573l28 136l287 176q188 116 257 183.5t69 139.5q0 107 -185 107q-153 0 -274 -53l29 133q140 49 292 49q154 0 228.5 -48.5t74.5 -148.5q0 -107 -95 -204.5t-333 -237.5l-167 -100v-3h495l-29 -129h-677z" />
    <glyph glyph-name="three.numerator" unicode="&#xf664;" 
d="M526 563q-181 0 -282 41l28 131q90 -45 269 -45q49 0 92 6.5t85.5 23t67.5 50t25 80.5q0 63 -44.5 88t-141.5 25h-162l22 108h150q42 0 79.5 6.5t74.5 21t59 44t22 71.5q0 58 -44.5 80.5t-147.5 22.5q-168 0 -275 -41l27 127q114 41 320 41q282 0 282 -182
q0 -176 -260 -238l-2 -2q108 -16 151.5 -60t43.5 -114q0 -60 -28.5 -109.5t-73.5 -81.5t-104 -53.5t-117.5 -31t-115.5 -9.5z" />
    <glyph glyph-name="four.numerator" unicode="&#xf665;" 
d="M211 768l22 117l631 549h178l-116 -543h112l-24 -123h-113l-41 -195h-143l41 195h-547zM784 891l86 409h-2l-471 -409h387z" />
    <glyph glyph-name="five.numerator" unicode="&#xf666;" 
d="M553 563q-173 0 -291 37l27 129q121 -39 284 -39q111 0 187 52.5t76 140.5q0 67 -47.5 97t-155.5 30q-127 0 -281 -11l119 435h598l-27 -125h-487l-51 -193q89 6 211 6q143 0 210.5 -52t67.5 -159q0 -152 -124 -250t-316 -98z" />
    <glyph glyph-name="six.numerator" unicode="&#xf667;" 
d="M586 563q-152 0 -229.5 70t-77.5 207q0 267 156 435.5t401 168.5q108 0 219 -27l-27 -127q-92 29 -227 29q-138 0 -232 -75t-129 -214q146 105 330 105q126 0 191 -53.5t65 -157.5q0 -158 -124 -259.5t-316 -101.5zM616 680q108 0 182 59.5t74 149.5q0 131 -167 131
q-74 0 -148 -25.5t-131 -70.5q-8 -27 -8 -64q0 -86 52 -133t146 -47z" />
    <glyph glyph-name="seven.numerator" unicode="&#xf668;" 
d="M385 573l553 736h-563l28 125h727l-22 -101l-563 -760h-160z" />
    <glyph glyph-name="eight.numerator" unicode="&#xf669;" 
d="M580 563q-330 0 -330 199q0 100 70 171.5t184 90.5q-69 15 -105.5 57t-36.5 105q0 118 114 188t302 70q149 0 226 -46.5t77 -137.5q0 -85 -64 -150.5t-165 -85.5q164 -28 164 -178q0 -130 -118.5 -206.5t-317.5 -76.5zM604 682q119 0 192.5 45.5t73.5 120.5
q0 119 -196 119q-126 0 -198.5 -44t-72.5 -120q0 -121 201 -121zM752 1325q-118 0 -184 -37.5t-66 -105.5q0 -109 182 -109q114 0 182 41t68 109q0 53 -44.5 77.5t-137.5 24.5z" />
    <glyph glyph-name="nine.numerator" unicode="&#xf66a;" 
d="M549 563q-149 0 -270 33l28 129q104 -35 258 -35q127 0 216 78.5t126 224.5q-67 -57 -152.5 -88t-172.5 -31q-120 0 -186 58.5t-66 165.5q0 150 123 248t311 98q303 0 303 -264q0 -268 -147.5 -442.5t-370.5 -174.5zM639 985q143 0 285 117q4 24 4 51q0 83 -52 128.5
t-145 45.5q-109 0 -178.5 -57t-69.5 -148q0 -67 40.5 -102t115.5 -35z" />
    <glyph glyph-name="uniF6BA" unicode="&#xf6ba;" horiz-adv-x="972" 
d="M340 639l33 154h565l-33 -154h-565z" />
    <glyph glyph-name="uniF6BB" unicode="&#xf6bb;" horiz-adv-x="1474" 
d="M383 797h1040l-32 -156h-1041z" />
    <glyph glyph-name="uniF6BC" unicode="&#xf6bc;" horiz-adv-x="1816" 
d="M360 797h1428l-33 -156h-1427z" />
    <glyph glyph-name="uniF6C3" unicode="&#xf6c3;" horiz-adv-x="294" 
d="M-55 -477l2 76q129 32 155 127q-14 -2 -32 -2q-42 0 -66 19t-24 52q0 51 42 78t105 27q48 0 76 -24.5t28 -74.5q0 -105 -88 -182t-198 -96z" />
    <glyph glyph-name="uniF6C9" unicode="&#xf6c9;" horiz-adv-x="460" 
d="M354 1567l250 307h234l-334 -307h-150z" />
    <glyph glyph-name="uniF6CA" unicode="&#xf6ca;" horiz-adv-x="739" 
d="M604 1573l-184 307h143l156 -209l242 209h157l-315 -307h-199z" />
    <glyph glyph-name="uniF6CB" unicode="&#xf6cb;" horiz-adv-x="686" 
d="M502 1612q-113 0 -113 108q0 53 29 81t84 28q112 0 112 -109q0 -108 -112 -108zM913 1612q-112 0 -112 108q0 109 112 109q113 0 113 -109q0 -108 -113 -108z" />
    <glyph glyph-name="uniF6CE" unicode="&#xf6ce;" horiz-adv-x="432" 
d="M604 1591l-184 287h225l105 -287h-146z" />
    <glyph glyph-name="uniF6CF" unicode="&#xf6cf;" horiz-adv-x="823" 
d="M354 1567l195 307h219l-264 -307h-150zM698 1567l265 307h239l-342 -307h-162z" />
    <glyph glyph-name="uniF6D0" unicode="&#xf6d0;" horiz-adv-x="681" 
d="M401 1655v131h611v-131h-611z" />
    <glyph glyph-name="uniF6D1" unicode="&#xf6d1;" horiz-adv-x="698" 
d="M684 1577q-272 0 -272 223q0 18 4 64h151q-6 -21 -6 -49q0 -64 36 -92.5t112 -28.5q89 0 140.5 39.5t78.5 130.5h145q-39 -145 -139.5 -216t-249.5 -71z" />
    <glyph glyph-name="uniF6D4" unicode="&#xf6d4;" horiz-adv-x="671" 
d="M602 1270q-123 0 -190.5 56.5t-67.5 168.5q0 38 4 61h146q-2 -16 -2 -45q0 -127 135 -127q160 0 211 172h141q-39 -141 -138.5 -213.5t-238.5 -72.5z" />
    <glyph glyph-name="uniFEFF" unicode="&#xfeff;" horiz-adv-x="0" 
 />
    <glyph glyph-name="percent.tab" horiz-adv-x="1331" 
d="M780 205q0 81 21 160t61.5 147.5t109.5 111t156 42.5q103 0 157 -54t54 -161q0 -81 -21.5 -160.5t-62.5 -148t-110 -110.5t-156 -42q-209 0 -209 215zM1016 117q46 0 83 32.5t58 82t32 100.5t11 96q0 58 -23 84.5t-73 26.5q-40 0 -72.5 -21t-52.5 -53t-34 -74
t-19.5 -81.5t-5.5 -76.5q0 -116 96 -116zM297 981q0 64 12.5 128t40.5 124.5t67.5 107t98.5 75t129 28.5q102 0 156.5 -55.5t54.5 -163.5q0 -81 -21.5 -160t-62.5 -146.5t-110 -109t-156 -41.5q-209 0 -209 213zM532 895q46 0 83 32t58.5 80.5t32.5 99.5t11 95
q0 115 -96 115q-49 0 -87 -31t-58 -79.5t-30 -98.5t-10 -98q0 -115 96 -115zM262 0h-170l1288 1434h172z" />
    <glyph glyph-name="plus.tab" horiz-adv-x="1331" 
d="M731 231v365h-364v154h364v364h154v-364h364v-154h-364v-365h-154z" />
    <glyph glyph-name="less.tab" horiz-adv-x="1331" 
d="M1208 248l-880 352v148l880 352v-164l-673 -260v-4l673 -256v-168z" />
    <glyph glyph-name="equal.tab" horiz-adv-x="1331" 
d="M365 541h882v-154h-882v154zM365 958h882v-153h-882v153z" />
    <glyph glyph-name="greater.tab" horiz-adv-x="1331" 
d="M403 248v162l674 260v4l-674 258v168l881 -352v-150z" />
    <glyph glyph-name="multiply.tab" horiz-adv-x="1331" 
d="M528 289l-106 106l276 279l-276 276l106 109l279 -279l276 279l109 -109l-279 -276l279 -279l-109 -106l-276 276z" />
    <glyph glyph-name="divide.tab" horiz-adv-x="1331" 
d="M367 750h882v-154h-882v154zM809 205q-131 0 -131 129q0 127 131 127q129 0 129 -127q0 -129 -129 -129zM809 885q-131 0 -131 129q0 127 131 127q129 0 129 -127q0 -129 -129 -129z" />
    <glyph glyph-name="perthousand.tab" horiz-adv-x="1331" 
d="M1036 -10q-200 0 -200 180q0 45 12 106q30 145 108.5 216t196.5 71q201 0 201 -184q0 -40 -13 -103q-60 -286 -305 -286zM1063 115q60 0 95 34t56 127q11 57 11 78q0 46 -23.5 65t-71.5 19q-61 0 -98 -36.5t-55 -125.5q-10 -48 -10 -73q0 -49 24 -68.5t72 -19.5zM483 -10
q-200 0 -200 180q0 45 12 106q30 145 108.5 216t196.5 71q201 0 201 -184q0 -40 -13 -103q-60 -286 -305 -286zM510 115q60 0 95.5 34t56.5 127q10 52 10 78q0 46 -23 65t-71 19q-62 0 -99 -36.5t-55 -125.5q-10 -48 -10 -73q0 -49 24 -68.5t72 -19.5zM227 532l-37 91
l1047 446l37 -92zM483 870q-99 0 -149.5 43t-50.5 136q0 47 12 108q30 144 108.5 215.5t196.5 71.5q201 0 201 -184q0 -40 -13 -103q-60 -287 -305 -287zM510 995q60 0 95.5 34.5t56.5 127.5q10 48 10 76q0 46 -23.5 66t-70.5 20q-61 0 -98.5 -37t-55.5 -125
q-10 -48 -10 -74q0 -49 24 -68.5t72 -19.5z" />
    <glyph glyph-name="minus.tab" horiz-adv-x="1331" 
d="M365 750h882v-154h-882v154z" />
    <glyph glyph-name="f_b" horiz-adv-x="2056" 
d="M934 0l293 1380q-46 1 -158.5 7t-163.5 6q-105 0 -148.5 -33t-66.5 -139l-28 -136h247l-32 -153h-248l-199 -932h-178l199 932h-175l31 153h176l35 158q36 168 132 235.5t276 67.5q42 0 216 -5t294 -5l-136 -633q69 104 166.5 153.5t245.5 49.5q168 0 262 -103t94 -286
q0 -110 -19 -212.5t-63.5 -199t-110 -168t-166 -114.5t-224.5 -43q-139 0 -229.5 72.5t-108.5 185.5l-78 -238h-135zM1473 133q87 0 158.5 32.5t118 86t78.5 126t46 149.5t14 159q0 134 -67 200t-191 66q-165 0 -263.5 -93.5t-129.5 -248.5l-23 -116q-33 -161 36.5 -261
t222.5 -100z" />
    <glyph glyph-name="f_f_b" horiz-adv-x="2740" 
d="M936 0l199 932h-506l-199 -932h-178l199 932h-175l31 153h176l35 158q36 167 129.5 235t263.5 68q106 0 174 -22l-34 -166q-65 35 -162 35q-93 0 -135 -33.5t-64 -138.5l-28 -136h505l35 158q36 168 131.5 235.5t274.5 67.5q41 0 216 -5t296 -5l-138 -633
q71 104 168.5 153.5t243.5 49.5q169 0 264 -103t95 -286q0 -91 -14 -177t-42 -170t-76 -154t-111 -123t-151 -83t-192 -30q-138 0 -229 72.5t-109 185.5l-78 -238h-135l293 1380q-43 1 -157 7t-165 6q-105 0 -148.5 -33t-66.5 -139l-29 -136h248l-30 -153h-250l-199 -932
h-176zM2154 133q88 0 159.5 32.5t118.5 86t78.5 126t45.5 149.5t14 159q0 134 -67 200t-191 66q-164 0 -263 -94t-130 -248l-23 -116q-33 -161 36 -261t222 -100z" />
    <glyph glyph-name="f_f_h" horiz-adv-x="2711" 
d="M936 0l199 932h-506l-199 -932h-178l199 932h-175l31 153h176l35 158q36 167 129.5 235t263.5 68q106 0 174 -22l-34 -166q-65 35 -162 35q-93 0 -135 -33.5t-64 -138.5l-28 -136h505l35 158q36 168 131.5 235.5t274.5 67.5q41 0 214 -5t294 -5l-136 -647
q146 217 414 217q165 0 242.5 -60.5t77.5 -187.5q0 -60 -19 -147l-149 -711h-179l144 676q12 62 12 115q0 89 -52.5 125t-172.5 36q-153 0 -246.5 -83.5t-122.5 -221.5l-137 -647h-176l291 1380q-44 1 -156.5 7t-163.5 6q-105 0 -148.5 -33t-66.5 -139l-29 -136h248
l-30 -153h-250l-199 -932h-176z" />
    <glyph glyph-name="f_f_j" horiz-adv-x="1976" 
d="M936 0l199 932h-506l-199 -932h-178l199 932h-175l31 153h176l35 158q36 167 129.5 235t263.5 68q106 0 174 -22l-34 -166q-65 35 -162 35q-93 0 -135 -33.5t-64 -138.5l-28 -136h505l35 158q36 167 128.5 235t258.5 68q100 0 168 -22l-37 -166q-56 35 -155 35
q-89 0 -130 -33.5t-63 -138.5l-29 -136h680l-243 -1138q-37 -172 -123.5 -249t-241.5 -77q-95 0 -147 23l37 168q50 -31 127 -31q74 0 113.5 37.5t58.5 126.5l211 987h-504l-199 -932h-176zM2005 1296q-56 0 -85.5 27.5t-29.5 79.5q0 106 115 106q113 0 113 -106
q0 -107 -113 -107z" />
    <glyph glyph-name="f_f_k" horiz-adv-x="2590" 
d="M936 0l199 932h-506l-199 -932h-178l199 932h-175l31 153h176l35 158q36 167 129.5 235t263.5 68q106 0 174 -22l-34 -166q-65 35 -162 35q-93 0 -135 -33.5t-64 -138.5l-28 -136h505l35 158q36 168 131.5 235.5t274.5 67.5q44 0 190 -4.5t240 -5.5h80l-189 -895h82
l486 444h225l-572 -530l385 -555h-213l-344 487h-82l-104 -487h-176l291 1380q-44 1 -156.5 7t-163.5 6q-105 0 -148.5 -33t-66.5 -139l-29 -136h248l-30 -153h-250l-199 -932h-176z" />
    <glyph glyph-name="f_h" horiz-adv-x="2027" 
d="M934 0l291 1380q-44 1 -156.5 7t-163.5 6q-105 0 -148.5 -33t-66.5 -139l-28 -136h247l-32 -153h-248l-199 -932h-178l199 932h-175l31 153h176l35 158q36 168 132 235.5t276 67.5q41 0 214 -5t294 -5l-136 -647q146 217 414 217q165 0 241.5 -60.5t76.5 -187.5
q0 -69 -17 -147l-151 -711h-176l143 676q12 62 12 115q0 89 -52.5 125t-172.5 36q-153 0 -246.5 -83.5t-122.5 -221.5l-137 -647h-176z" />
    <glyph glyph-name="f_j" horiz-adv-x="1294" 
d="M586 -356l37 168q50 -31 127 -31q74 0 113.5 37.5t58.5 126.5l211 987h-504l-199 -932h-178l199 932h-175l31 153h176l35 158q35 167 128.5 235t260.5 68q100 0 168 -22l-37 -166q-56 35 -155 35q-89 0 -130 -33.5t-63 -138.5l-28 -136h679l-243 -1138
q-37 -172 -123.5 -249t-241.5 -77q-99 0 -147 23zM1321 1296q-113 0 -113 107q0 106 113 106q115 0 115 -106q0 -52 -29.5 -79.5t-85.5 -27.5z" />
    <glyph glyph-name="f_k" horiz-adv-x="1908" 
d="M934 0l291 1380q-44 1 -156.5 7t-163.5 6q-105 0 -148.5 -33t-66.5 -139l-28 -136h247l-32 -153h-248l-199 -932h-178l199 932h-175l31 153h176l35 158q36 168 132 235.5t276 67.5q41 0 215 -5t295 -5l-191 -895h82l488 444h225l-574 -530l387 -555h-213l-346 487h-82
l-102 -487h-176z" />
    </font>
</defs>
</svg>
