<?xml version="1.0" standalone="no"?>
<!DOCTYPE svg PUBLIC "-//W3C//DTD SVG 1.1//EN" "http://www.w3.org/Graphics/SVG/1.1/DTD/svg11.dtd" >
<svg xmlns="http://www.w3.org/2000/svg" xmlns:xlink="http://www.w3.org/1999/xlink" version="1.1">
<metadata>
Created by FontForge 20170731 at Sat Feb 27 12:24:20 2021
 By Aleksey,,,
Copyright (c) 2018 ParaType Inc., ParaType Ltd. All rights reserved.
</metadata>
<defs>
<font id="SBSansText-Heavy" horiz-adv-x="1331" >
  <font-face 
    font-family="SB Sans Text Heavy"
    font-weight="900"
    font-stretch="normal"
    units-per-em="2048"
    panose-1="2 11 9 3 4 5 4 2 2 4"
    ascent="1640"
    descent="-408"
    x-height="1126"
    cap-height="1434"
    bbox="-881 -545 3078 2011"
    underline-thickness="102"
    underline-position="-307"
    unicode-range="U+0020-FEFF"
  />
<missing-glyph horiz-adv-x="1024" 
 />
    <glyph glyph-name="f_f" unicode="ff" horiz-adv-x="1757" 
d="M1024 0v797h-360v-797h-408v797h-195v329h195v86q0 101 21 170.5t71.5 118.5t134.5 71.5t209 22.5q120 0 256 -22v-324q-67 15 -153 15q-68 0 -99.5 -18.5t-31.5 -74.5v-45h360v86q0 101 21 170.5t71.5 118.5t134.5 71.5t209 22.5q120 0 256 -22v-324q-68 15 -153 15
q-68 0 -99.5 -18.5t-31.5 -74.5v-45h268v-329h-268v-797h-408z" />
    <glyph glyph-name="fi" unicode="fi" horiz-adv-x="1562" 
d="M999 1430q0 82 55.5 132t166.5 50q117 0 172 -49t55 -133t-55 -135.5t-170 -51.5q-113 0 -168.5 52t-55.5 135zM256 1126v86q0 135 40 217t136.5 124t261.5 42q48 0 195 -16v-324q-7 1 -22.5 3.5t-33 4t-36.5 1.5q-67 0 -98.5 -18.5t-32.5 -74.5v-45h770v-1126h-410v797
h-360v-797h-410v797h-195v329h195z" />
    <glyph glyph-name="fl" unicode="fl" horiz-adv-x="1685" 
d="M256 1126v86q0 203 97 293t341 90q74 0 131 -3t118 -8.5t83 -6.5h408v-1186q0 -44 18 -61t61 -17q21 0 103 15v-320q-72 -28 -205 -28q-99 0 -166 15.5t-118.5 54.5t-76 110.5t-24.5 179.5v909q-180 15 -229 15q-67 0 -98.5 -18.5t-32.5 -74.5v-45h200v-329h-200v-797
h-410v797h-195v329h195z" />
    <glyph glyph-name="f_f_i" unicode="ffi" horiz-adv-x="2330" 
d="M256 0v797h-195v329h195v86q0 101 21 170.5t71.5 118.5t134.5 71.5t209 22.5q120 0 256 -22v-324q-67 15 -153 15q-68 0 -99.5 -18.5t-31.5 -74.5v-45h360v86q0 135 40 217t136.5 124t261.5 42q48 0 195 -16v-324q-7 1 -22.5 3.5t-33 4t-36.5 1.5q-67 0 -98.5 -18.5
t-32.5 -74.5v-45h770v-1126h-410v797h-360v-797h-410v797h-360v-797h-408zM1767 1430q0 82 55.5 132t166.5 50q117 0 172 -49t55 -133t-55 -135.5t-170 -51.5q-113 0 -168.5 52t-55.5 135z" />
    <glyph glyph-name="f_f_l" unicode="ffl" horiz-adv-x="2453" 
d="M256 0v797h-195v329h195v86q0 101 21 170.5t71.5 118.5t134.5 71.5t209 22.5q120 0 256 -22v-324q-67 15 -153 15q-68 0 -99.5 -18.5t-31.5 -74.5v-45h360v86q0 203 97 293t341 90q74 0 131 -3t118 -8.5t83 -6.5h408v-1186q0 -44 18 -61t61 -17q21 0 103 15v-320
q-72 -28 -205 -28q-99 0 -166 15.5t-118.5 54.5t-76 110.5t-24.5 179.5v909q-180 15 -229 15q-67 0 -98.5 -18.5t-32.5 -74.5v-45h200v-329h-200v-797h-410v797h-360v-797h-408z" />
    <glyph glyph-name=".notdef" horiz-adv-x="1024" 
 />
    <glyph glyph-name=".null" horiz-adv-x="0" 
 />
    <glyph glyph-name="nonmarkingreturn" horiz-adv-x="682" 
 />
    <glyph glyph-name="space" unicode=" " horiz-adv-x="491" 
 />
    <glyph glyph-name="exclam" unicode="!" horiz-adv-x="833" 
d="M184 180q0 99 59.5 154t172.5 55q104 0 168.5 -57.5t64.5 -151.5q0 -97 -61.5 -153t-171.5 -56q-104 0 -168 57.5t-64 151.5zM242 522l-39 912h424l-39 -912h-346z" />
    <glyph glyph-name="quotedbl" unicode="&#x22;" horiz-adv-x="1050" 
d="M164 848v586h270v-586h-270zM616 848v586h271v-586h-271z" />
    <glyph glyph-name="numbersign" unicode="#" 
d="M180 0l51 369h-200l41 245h194l29 205h-182l41 246h176l51 369h289l-52 -369h193l51 369h289l-51 -369h200l-40 -246h-195l-29 -205h183l-41 -245h-174l-52 -369h-288l51 369h-193l-51 -369h-291zM555 614h193l28 205h-192z" />
    <glyph glyph-name="dollar" unicode="$" 
d="M799 406q0 35 -38.5 59.5t-100 42.5t-135.5 39t-148.5 57t-136 87.5t-100 140.5t-38.5 206q0 360 420 416v184h316v-178q207 -15 336 -63v-387q-92 55 -207 89t-230 34q-117 0 -167 -29.5t-50 -71.5q0 -27 25 -47t67.5 -35t98 -29.5t116.5 -33t121.5 -42.5t116 -61.5
t98 -85.5t67.5 -120t25 -160q0 -367 -417 -434v-230h-316v217q-255 16 -401 84v394q110 -68 191 -98q135 -50 282 -50q102 0 153.5 30t51.5 75z" />
    <glyph glyph-name="percent" unicode="%" horiz-adv-x="1986" 
d="M369 0l1009 1434h238l-1010 -1434h-237zM1077 338q0 185 104.5 276t299.5 91q205 0 304 -90.5t99 -276.5q0 -195 -105 -281t-298 -86q-404 0 -404 367zM1626 338q0 91 -35 127.5t-110 36.5q-74 0 -110 -37t-36 -127q0 -91 36.5 -127.5t109.5 -36.5t109 37.5t36 126.5z
M102 1096q0 185 104.5 275.5t299.5 90.5q205 0 304 -90t99 -276q0 -195 -105 -281t-298 -86q-404 0 -404 367zM651 1096q0 91 -35 127.5t-110 36.5q-74 0 -110 -37t-36 -127q0 -91 36.5 -127.5t109.5 -36.5t109 37.5t36 126.5z" />
    <glyph glyph-name="ampersand" unicode="&#x26;" horiz-adv-x="1796" 
d="M1276 973h332q0 -177 -63.5 -342.5t-174.5 -302.5q145 -39 283 -13v-315q-135 -21 -280 13t-253 108q-88 -70 -205 -110t-227 -40q-270 0 -417.5 118.5t-147.5 320.5q0 264 297 421q-96 150 -96 297q0 163 113.5 248.5t305.5 85.5q108 0 189 -19t128.5 -49.5t76.5 -75
t39 -87.5t10 -96q0 -40 -8.5 -75.5t-28 -66.5t-38.5 -55.5t-54 -50t-59 -42t-69 -39.5t-68.5 -34t-72.5 -33q71 -96 148 -166.5t180 -130.5q157 194 160 531zM870 291q-170 116 -307 336q-45 -25 -68.5 -70.5t-23.5 -91.5q0 -101 63 -153t181 -52q73 0 155 31zM668 950
q106 48 155 85.5t49 88.5q0 36 -28.5 60t-91.5 24q-64 0 -97.5 -31.5t-33.5 -89.5q0 -73 47 -137z" />
    <glyph glyph-name="quotesingle" unicode="'" horiz-adv-x="598" 
d="M164 848v586h270v-586h-270z" />
    <glyph glyph-name="parenleft" unicode="(" horiz-adv-x="821" 
d="M780 -233l-168 -168q-149 99 -266.5 247t-190.5 347t-73 411q0 309 147.5 582t384.5 424l166 -166q-338 -348 -338 -840q0 -234 87 -449t251 -388z" />
    <glyph glyph-name="parenright" unicode=")" horiz-adv-x="821" 
d="M41 -233q164 173 251 388t87 449q0 492 -338 840l166 166q237 -151 384.5 -424t147.5 -582q0 -212 -73 -411t-190.5 -347t-266.5 -247z" />
    <glyph glyph-name="asterisk" unicode="*" horiz-adv-x="1150" 
d="M201 715l221 223l-299 53l76 269l286 -132l-45 306h275l-45 -304l284 130l74 -269l-299 -53l223 -223l-225 -152l-152 266l-151 -266z" />
    <glyph glyph-name="plus" unicode="+" 
d="M160 524v285h362v362h287v-362h360v-285h-360v-362h-287v362h-362z" />
    <glyph glyph-name="comma" unicode="," horiz-adv-x="800" 
d="M82 -211q115 18 197 69t94 117q-120 0 -178 59t-58 152q0 103 63.5 157t184.5 54q143 0 207.5 -71t64.5 -222q0 -206 -106.5 -346t-294.5 -180z" />
    <glyph glyph-name="hyphen" unicode="-" horiz-adv-x="1040" 
d="M164 430v287h713v-287h-713z" />
    <glyph glyph-name="period" unicode="." horiz-adv-x="759" 
d="M143 203q0 117 57 174t177 57q124 0 181.5 -53t57.5 -178q0 -232 -239 -232q-234 0 -234 232z" />
    <glyph glyph-name="slash" unicode="/" horiz-adv-x="929" 
d="M20 -369l570 1946h319l-569 -1946h-320z" />
    <glyph glyph-name="zero" unicode="0" 
d="M84 715q0 386 140 566.5t438 180.5q163 0 275 -44t181 -139t99 -231.5t30 -332.5q0 -387 -139 -565.5t-440 -178.5q-307 0 -445.5 179.5t-138.5 564.5zM498 709q0 -88 3.5 -147t14.5 -111.5t30.5 -82t51 -46.5t76.5 -17q97 0 128.5 91t31.5 313q0 76 -2 126.5t-8 102.5
t-17.5 83.5t-30.5 57.5t-47 37.5t-67 11.5q-37 0 -64 -12t-45 -38.5t-29 -58.5t-16.5 -84t-7.5 -101.5t-2 -124.5z" />
    <glyph glyph-name="one" unicode="1" 
d="M150 0v334h425v657l-425 -233v356l555 320h284v-1100h238v-334h-1077z" />
    <glyph glyph-name="two" unicode="2" 
d="M115 0v264q213 134 308 206q312 238 312 431q0 102 -45 148.5t-153 46.5q-236 0 -396 -154v432q205 88 486 88q132 0 232 -23t162 -62t101 -96t53.5 -118.5t14.5 -136.5q0 -69 -17 -134.5t-42.5 -118t-68 -106t-81 -91.5t-94.5 -82.5t-95 -71.5t-96 -64h500v-358h-1081z
" />
    <glyph glyph-name="three" unicode="3" 
d="M408 565v318h155q79 0 120 12t55 35.5t14 68.5q0 37 -15 58.5t-62.5 35t-133.5 13.5q-104 0 -214.5 -31t-197.5 -86v391q113 37 261.5 59.5t260.5 22.5q135 0 233.5 -20t157.5 -52.5t94.5 -83.5t47.5 -104t12 -123q0 -261 -281 -340q316 -53 316 -333q0 -81 -18 -145
t-62.5 -120t-115.5 -92.5t-181.5 -57t-257.5 -20.5q-118 0 -254.5 22t-239.5 62v398q92 -58 209.5 -91.5t227.5 -33.5q80 0 130.5 8.5t75.5 26t33 37.5t8 51q0 42 -12.5 64.5t-54 36t-121.5 13.5h-190z" />
    <glyph glyph-name="four" unicode="4" 
d="M59 274v220l549 940h529v-799h147v-361h-147v-274h-416v274h-662zM727 631v426l-229 -426h229z" />
    <glyph glyph-name="five" unicode="5" 
d="M139 602l43 832h948v-336h-641l-10 -183q97 19 228 19q138 0 234 -30t152.5 -90t81.5 -140.5t25 -190.5q0 -98 -17 -172.5t-60.5 -140.5t-115 -108.5t-184 -66.5t-264.5 -24q-91 0 -209.5 18.5t-224.5 51.5v395q74 -43 186 -76.5t238 -33.5q130 0 181.5 36.5t51.5 124.5
q0 53 -20 85.5t-77 51.5t-157 19q-90 0 -205.5 -13t-183.5 -28z" />
    <glyph glyph-name="six" unicode="6" 
d="M682 -29q-141 0 -246 29t-176.5 84t-116 142t-63.5 194.5t-19 249.5q0 149 23.5 269t77 219t136.5 165.5t206 102.5t282 36q197 0 390 -61v-391q-155 108 -388 108q-99 0 -180.5 -34t-133.5 -104.5t-52 -166.5v-33q127 160 369 160q244 0 356.5 -114.5t112.5 -346.5
q0 -261 -141 -384.5t-437 -123.5zM475 541q-7 -139 39.5 -198.5t142.5 -59.5q86 0 132.5 44t46.5 144q0 111 -38 153t-130 42q-86 0 -129 -32t-64 -93z" />
    <glyph glyph-name="seven" unicode="7" 
d="M285 0l506 1079h-693v355h1149v-238l-522 -1196h-440z" />
    <glyph glyph-name="eight" unicode="8" 
d="M53 389q0 153 66 241t221 130q-136 41 -194 117.5t-58 209.5q0 184 139 279.5t447 95.5q301 0 435 -89.5t134 -285.5q0 -123 -56.5 -202t-191.5 -125q161 -35 222 -122t61 -245q0 -99 -33 -175t-103.5 -132.5t-188 -85.5t-279.5 -29q-173 0 -293 26.5t-192 80.5
t-104 129.5t-32 181.5zM477 451q0 -95 50 -136t147 -41q83 0 131.5 44.5t48.5 136.5q0 86 -44 124.5t-144 38.5q-94 0 -141.5 -43.5t-47.5 -123.5zM496 1010q0 -82 41.5 -117t130.5 -35q92 0 130 38t38 116q0 80 -38.5 113.5t-133.5 33.5q-91 0 -129.5 -36.5t-38.5 -112.5z
" />
    <glyph glyph-name="nine" unicode="9" 
d="M639 1462q141 0 246 -29t176.5 -84t116 -141.5t63.5 -194t19 -249.5q0 -149 -23.5 -269t-77 -219.5t-136.5 -165.5t-206 -102.5t-282 -36.5q-193 0 -390 62v391q156 -109 387 -109q99 0 181 34t134 105t52 167v32q-126 -159 -369 -159q-244 0 -356.5 114t-112.5 346
q0 261 141 384.5t437 123.5zM846 893q7 139 -39.5 198.5t-142.5 59.5q-86 0 -132.5 -44t-46.5 -144q0 -104 39.5 -149.5t128.5 -45.5q86 0 129 32t64 93z" />
    <glyph glyph-name="colon" unicode=":" horiz-adv-x="759" 
d="M164 203q0 117 57 174t176 57q124 0 182 -53t58 -178q0 -232 -240 -232q-233 0 -233 232zM164 877q0 117 57 174t176 57q124 0 182 -53t58 -178q0 -232 -240 -232q-233 0 -233 232z" />
    <glyph glyph-name="semicolon" unicode=";" horiz-adv-x="800" 
d="M168 877q0 117 57 174t176 57q124 0 182 -53t58 -178q0 -232 -240 -232q-233 0 -233 232zM102 -211q115 18 197 69t94 117q-120 0 -177.5 58.5t-57.5 152.5q0 103 63.5 157t184.5 54q143 0 207.5 -71t64.5 -222q0 -206 -106.5 -346t-295.5 -180z" />
    <glyph glyph-name="less" unicode="&#x3c;" horiz-adv-x="1208" 
d="M102 516v272l1004 345v-291l-631 -189v-4l631 -186v-291z" />
    <glyph glyph-name="equal" unicode="=" horiz-adv-x="1214" 
d="M102 311v285h1010v-285h-1010zM102 750v284h1010v-284h-1010z" />
    <glyph glyph-name="greater" unicode="&#x3e;" horiz-adv-x="1208" 
d="M102 172v291l631 186v4l-631 189v291l1004 -345v-272z" />
    <glyph glyph-name="question" unicode="?" horiz-adv-x="1157" 
d="M336 506q0 84 22.5 150.5t55.5 105.5t72.5 74t72.5 58.5t55.5 56.5t22.5 71q0 48 -32 68t-99 20q-104 0 -206.5 -37.5t-176.5 -93.5v407q173 76 455 76q497 0 497 -358q0 -84 -21 -150t-54 -108t-73 -75.5t-80.5 -60.5t-73.5 -54t-54 -65t-21 -85h-362zM285 180
q0 99 59 154t172 55q104 0 169 -57.5t65 -151.5q0 -97 -62 -153t-172 -56q-104 0 -167.5 57.5t-63.5 151.5z" />
    <glyph glyph-name="at" unicode="@" horiz-adv-x="1947" 
d="M1401 131q-122 0 -184 41t-89 129q-25 -87 -91 -128.5t-160 -41.5q-162 0 -243 109t-81 346q0 243 81.5 357t254.5 114q145 0 205 -117l20 96h268v-579q0 -66 18.5 -95.5t57.5 -29.5q75 0 121.5 75t46.5 242q0 287 -153 446.5t-455 159.5q-141 0 -255 -38t-189.5 -102
t-126.5 -152.5t-73 -186t-22 -205.5q0 -65 9 -126.5t31 -126.5t55.5 -121.5t87.5 -107t122.5 -86t163 -56.5t207.5 -21q97 0 207 22t186 66v-227q-201 -63 -395 -63q-182 0 -332 44t-254.5 121.5t-176.5 184.5t-106 232t-34 265t35 269.5t108 242t177.5 196t252.5 131.5
t324 48q378 0 601.5 -210.5t223.5 -579.5q0 -260 -114.5 -398.5t-329.5 -138.5zM864 594q0 -134 20.5 -188t86.5 -54q56 0 78 45t22 138v112q0 102 -21 145.5t-79 43.5q-64 0 -85.5 -52.5t-21.5 -189.5z" />
    <glyph glyph-name="A" unicode="A" horiz-adv-x="1478" 
d="M1053 0l-80 258h-477l-80 -258h-408l481 1434h506l475 -1434h-417zM733 1028l-135 -434h270z" />
    <glyph glyph-name="B" unicode="B" horiz-adv-x="1454" 
d="M164 0v1434q340 10 586 10q141 0 240.5 -14t166.5 -41.5t105.5 -74t54.5 -106t16 -143.5q0 -263 -280 -317q162 -4 240.5 -85.5t78.5 -238.5q0 -98 -18.5 -166t-64 -122t-126.5 -85t-201.5 -47t-293.5 -16q-185 0 -504 12zM578 326h151q95 0 141 12t62 37.5t16 77.5
q0 56 -15.5 82.5t-59.5 38.5t-136 12h-159v-260zM578 862h202q84 0 116 29.5t32 97.5q0 66 -34.5 92.5t-131.5 26.5q-64 0 -184 -6v-240z" />
    <glyph glyph-name="C" unicode="C" horiz-adv-x="1341" 
d="M1237 1403v-414q-104 55 -158 72q-98 31 -221 31q-178 0 -257 -84.5t-79 -290.5q0 -210 80.5 -292.5t271.5 -82.5q222 0 365 107v-408q-161 -74 -403 -74q-204 0 -348 44.5t-233.5 137t-131 227t-41.5 322.5q0 197 41.5 338.5t132 238.5t236 144t352.5 47
q90 0 179.5 -13.5t121.5 -22.5t92 -27z" />
    <glyph glyph-name="D" unicode="D" horiz-adv-x="1552" 
d="M164 0v1434q219 10 532 10q149 0 266.5 -21t202 -63.5t144 -101t95 -139t51 -172t15.5 -204.5q0 -379 -191.5 -566t-612.5 -187q-293 0 -502 10zM578 348q47 -4 118 -4q184 0 267.5 93.5t83.5 291.5q0 187 -80 274t-256 87q-69 0 -133 -5v-737z" />
    <glyph glyph-name="E" unicode="E" 
d="M164 0v1434h1065v-357h-651v-190h561v-326h-561v-205h651v-356h-1065z" />
    <glyph glyph-name="F" unicode="F" horiz-adv-x="1282" 
d="M164 0v1434h1016v-357h-602v-215h577v-356h-577v-506h-414z" />
    <glyph glyph-name="G" unicode="G" horiz-adv-x="1476" 
d="M788 530v326h586v-764q-89 -50 -242 -87.5t-329 -37.5q-374 0 -547.5 176t-173.5 555q0 160 24.5 280t80 214.5t145.5 153.5t220 89.5t304 30.5q267 0 426 -65v-385q-159 96 -385 96q-220 0 -305.5 -90.5t-85.5 -304.5q0 -206 79 -300.5t255 -94.5q84 0 178 24v184h-230z
" />
    <glyph glyph-name="H" unicode="H" horiz-adv-x="1656" 
d="M164 0v1434h414v-529h501v529h414v-1434h-414v551h-501v-551h-414z" />
    <glyph glyph-name="I" unicode="I" horiz-adv-x="741" 
d="M164 0v1434h414v-1434h-414z" />
    <glyph glyph-name="J" unicode="J" horiz-adv-x="1017" 
d="M440 567v867h414v-928q0 -147 -25.5 -244.5t-86.5 -161.5t-157.5 -92t-242.5 -28q-159 0 -281 32v394q35 -27 92.5 -46.5t112.5 -19.5q64 0 100 17.5t55 67.5t19 142z" />
    <glyph glyph-name="K" unicode="K" horiz-adv-x="1507" 
d="M164 0v1434h414v-539h110l299 539h471l-420 -670l453 -764h-485l-316 559h-112v-559h-414z" />
    <glyph glyph-name="L" unicode="L" horiz-adv-x="1210" 
d="M164 0v1434h414v-1053h591v-381h-1005z" />
    <glyph glyph-name="M" unicode="M" horiz-adv-x="1976" 
d="M164 0v1434h608l227 -664l228 664h585v-1434h-399v780q0 86 8 246q-15 -39 -42.5 -120t-41.5 -120l-180 -499h-338l-180 495q-14 38 -41.5 119t-42.5 119q8 -156 8 -240v-780h-399z" />
    <glyph glyph-name="N" unicode="N" horiz-adv-x="1648" 
d="M164 0v1434h450l379 -652q22 -37 57 -114.5t44 -94.5q-9 158 -9 222v639h400v-1434h-430l-406 690q-21 35 -55.5 111t-38.5 84q8 -122 8 -201v-684h-399z" />
    <glyph glyph-name="O" unicode="O" horiz-adv-x="1628" 
d="M82 717q0 393 176 571t551 178q207 0 347.5 -42.5t227.5 -135.5t124.5 -231t37.5 -340q0 -203 -45 -346.5t-137.5 -232.5t-226 -130t-318.5 -41q-378 0 -557.5 182.5t-179.5 567.5zM522 717q0 -119 19 -197.5t59.5 -121t93 -59.5t129.5 -17q75 0 125.5 18t87.5 62
t54.5 121.5t17.5 193.5q0 153 -32.5 240t-95.5 121t-171 34q-102 0 -162.5 -34.5t-92.5 -121.5t-32 -239z" />
    <glyph glyph-name="P" unicode="P" horiz-adv-x="1425" 
d="M164 0v1434q375 10 549 10q348 0 489 -115t141 -405q0 -283 -154 -416t-482 -133q-27 0 -129 4v-379h-414zM578 717q82 -6 129 -6q115 0 164 51t49 145q0 50 -9 84t-32.5 62t-67.5 41.5t-111 13.5q-71 0 -122 -6v-385z" />
    <glyph glyph-name="Q" unicode="Q" horiz-adv-x="1628" 
d="M82 717q0 393 176 571t551 178q207 0 347.5 -42.5t227.5 -135.5t124.5 -231t37.5 -340q0 -289 -93 -459t-282 -240l285 -346h-500l-231 299q-329 22 -486 204t-157 542zM522 717q0 -119 19 -197.5t59.5 -121t93 -59.5t129.5 -17q75 0 125.5 18t87.5 62t54.5 121.5
t17.5 193.5q0 153 -32.5 240t-95.5 121t-171 34q-102 0 -162.5 -34.5t-92.5 -121.5t-32 -239z" />
    <glyph glyph-name="R" unicode="R" horiz-adv-x="1476" 
d="M578 0h-414v1434q82 1 189 4t188 4.5t164 1.5q149 0 258 -21t180.5 -60.5t115 -102.5t61 -139t17.5 -179q0 -190 -48 -298.5t-163 -166.5l289 -477h-444l-244 436h-149v-436zM567 762h148q115 0 156.5 36t41.5 124q0 86 -44 120.5t-167 34.5q-56 0 -135 -6v-309z" />
    <glyph glyph-name="S" unicode="S" horiz-adv-x="1368" 
d="M819 406q0 28 -24 49t-64 36t-92.5 29t-110 33t-115 42.5t-110 62.5t-92.5 88.5t-64 124.5t-24 167q0 206 140 317t454 111q297 0 477 -69v-387q-93 55 -207 89t-229 34q-117 0 -167 -29.5t-50 -71.5q0 -27 25 -47t67.5 -35t98 -29.5t116.5 -33t121.5 -42.5t116 -61.5
t98 -85.5t67.5 -120t25 -160q0 -451 -633 -451q-146 0 -280.5 24.5t-221.5 63.5v394q110 -68 191 -98q135 -50 282 -50q102 0 153.5 30t51.5 75z" />
    <glyph glyph-name="T" unicode="T" horiz-adv-x="1318" 
d="M453 0v1079h-392v355h1196v-355h-391v-1079h-413z" />
    <glyph glyph-name="U" unicode="U" horiz-adv-x="1550" 
d="M154 596v838h415v-805q0 -181 40.5 -242t166.5 -61q68 0 107.5 13t62.5 51t30 91.5t7 147.5v805h414v-842q0 -142 -25.5 -247t-74 -176.5t-125.5 -115.5t-173 -63t-223 -19q-126 0 -220 17t-172.5 59.5t-127.5 113.5t-75.5 179t-26.5 256z" />
    <glyph glyph-name="V" unicode="V" horiz-adv-x="1443" 
d="M444 0l-424 1434h451l262 -1002l268 1002h422l-424 -1434h-555z" />
    <glyph glyph-name="W" unicode="W" horiz-adv-x="2160" 
d="M348 0l-317 1434h446l144 -717q8 -40 20.5 -122t20.5 -122q8 40 20 124t20 124l138 713h477l137 -701q8 -42 21.5 -129t21.5 -129q10 47 24.5 135t20.5 121l144 703h444l-324 -1434h-551l-178 903l-178 -903h-551z" />
    <glyph glyph-name="X" unicode="X" horiz-adv-x="1507" 
d="M41 0l387 737l-356 697h479l207 -430l211 430h471l-377 -693l403 -741h-489l-238 457l-223 -457h-475z" />
    <glyph glyph-name="Y" unicode="Y" horiz-adv-x="1411" 
d="M500 0v500l-490 934h475l224 -463l217 463h475l-488 -934v-500h-413z" />
    <glyph glyph-name="Z" unicode="Z" horiz-adv-x="1378" 
d="M102 0v238l611 839h-586v357h1137v-236l-609 -842h621v-356h-1174z" />
    <glyph glyph-name="bracketleft" unicode="[" horiz-adv-x="837" 
d="M164 -369v1946h633v-231h-305v-1483h305v-232h-633z" />
    <glyph glyph-name="backslash" unicode="\" horiz-adv-x="929" 
d="M573 -369l-553 1946h336l553 -1946h-336z" />
    <glyph glyph-name="bracketright" unicode="]" horiz-adv-x="837" 
d="M41 -369v232h305v1483h-305v231h633v-1946h-633z" />
    <glyph glyph-name="asciicircum" unicode="^" horiz-adv-x="1140" 
d="M61 705l377 729h267l376 -729h-290l-220 428l-219 -428h-291z" />
    <glyph glyph-name="underscore" unicode="_" horiz-adv-x="1052" 
d="M0 -432v207h1053v-207h-1053z" />
    <glyph glyph-name="grave" unicode="`" horiz-adv-x="819" 
d="M752 1280h-287l-410 348h471z" />
    <glyph glyph-name="a" unicode="a" horiz-adv-x="1327" 
d="M842 0l-15 162q-37 -71 -136.5 -128t-258.5 -57q-103 0 -178.5 27.5t-118.5 77t-62.5 111t-19.5 137.5q0 179 128 257t399 75l217 -3v37q0 69 -48 102t-174 33q-116 0 -229 -38.5t-180 -92.5v375q81 35 208.5 58.5t278.5 23.5q162 0 267 -23t170 -77t91.5 -135.5
t26.5 -206.5v-715h-366zM467 369q0 -97 133 -97q197 0 197 146v43h-152q-100 0 -139 -19.5t-39 -72.5z" />
    <glyph glyph-name="b" unicode="b" horiz-adv-x="1499" 
d="M133 0v1577h408v-604q45 80 141 129t248 49q255 0 371 -130.5t116 -436.5q0 -313 -121 -460t-381 -147q-285 0 -383 162l-10 -139h-389zM541 584v-49q0 -122 54.5 -180t174.5 -58q112 0 164.5 65t52.5 213q0 76 -15.5 127.5t-46 79t-67.5 38.5t-88 11
q-120 0 -174.5 -61.5t-54.5 -185.5z" />
    <glyph glyph-name="c" unicode="c" horiz-adv-x="1247" 
d="M1133 1085v-364q-71 49 -147.5 75.5t-188.5 26.5q-157 0 -225 -57.5t-68 -190.5q0 -92 27 -149t98.5 -89t193.5 -32q92 0 183 26t139 62v-342q-175 -80 -400 -80q-244 0 -389.5 64t-209.5 194t-64 344q0 295 155.5 439.5t491.5 144.5q237 0 404 -72z" />
    <glyph glyph-name="d" unicode="d" horiz-adv-x="1501" 
d="M979 0l-10 166q-52 -92 -142 -140.5t-254 -48.5q-254 0 -372.5 139t-118.5 429q0 301 122.5 453.5t393.5 152.5q147 0 230.5 -38.5t129.5 -108.5v573h408v-1577h-387zM735 297q119 0 171 59t52 172v68q0 118 -51 176.5t-168 58.5q-127 0 -178 -62t-51 -216
q0 -78 15.5 -130t47 -79t69.5 -37t93 -10z" />
    <glyph glyph-name="e" unicode="e" horiz-adv-x="1374" 
d="M1303 475h-809q7 -104 76 -149t216 -45q128 0 253.5 36t189.5 89v-332q-47 -40 -187 -71.5t-323 -31.5q-178 0 -302 38.5t-197.5 118.5t-105.5 190.5t-32 265.5q0 290 162 431.5t467 141.5q132 0 233 -24.5t168.5 -69t110.5 -111.5t61.5 -148t18.5 -183v-146zM702 864
q-103 0 -152.5 -45t-57.5 -137h405q2 88 -42 135t-153 47z" />
    <glyph glyph-name="f" unicode="f" horiz-adv-x="989" 
d="M256 0v797h-195v329h195v86q0 101 21 170.5t71.5 118.5t134.5 71.5t209 22.5q120 0 256 -22v-324q-67 15 -153 15q-68 0 -99.5 -18.5t-31.5 -74.5v-45h268v-329h-268v-797h-408z" />
    <glyph glyph-name="g" unicode="g" horiz-adv-x="1501" 
d="M207 -324v363q166 -90 471 -90q84 0 140 14.5t86 43.5t42 65t12 88v61q-114 -141 -376 -141q-258 0 -379 117.5t-121 388.5q0 296 118 430.5t384 134.5q114 0 195.5 -26.5t122 -63t67.5 -88.5l10 153h387v-942q0 -133 -27 -229t-79.5 -162t-139 -105t-197 -56t-261.5 -17
q-128 0 -255 18.5t-200 42.5zM733 397q120 0 172.5 47t52.5 164v19q0 115 -51 159.5t-178 44.5q-120 0 -169.5 -47.5t-49.5 -169.5q0 -120 53.5 -168.5t169.5 -48.5z" />
    <glyph glyph-name="h" unicode="h" horiz-adv-x="1441" 
d="M133 0v1577h408v-606q91 180 381 180q214 0 307.5 -103.5t93.5 -326.5v-721h-408v621q0 108 -40.5 152t-141.5 44q-110 0 -151 -50t-41 -161v-606h-408z" />
    <glyph glyph-name="i" unicode="i" horiz-adv-x="677" 
d="M133 0v1126h410v-1126h-410zM113 1454q0 93 53 138.5t172 45.5t172 -45.5t53 -138.5t-53 -138.5t-172 -45.5t-172 45.5t-53 138.5z" />
    <glyph glyph-name="j" unicode="j" horiz-adv-x="698" 
d="M154 -4v1130h409v-1167q0 -108 -24 -179.5t-74.5 -110.5t-114.5 -54.5t-157 -15.5q-150 0 -222 28v316q42 -11 92 -11t70.5 14.5t20.5 49.5zM133 1454q0 93 53 138.5t172 45.5t172.5 -45.5t53.5 -138.5t-53.5 -138.5t-172.5 -45.5t-172 45.5t-53 138.5z" />
    <glyph glyph-name="k" unicode="k" horiz-adv-x="1372" 
d="M133 1577h408v-815h98l227 364h455l-358 -530l385 -596h-459l-248 412h-100v-412h-408v1577z" />
    <glyph glyph-name="l" unicode="l" horiz-adv-x="792" 
d="M541 391q0 -44 18.5 -61t61.5 -17q19 0 102 15v-320q-72 -28 -205 -28q-99 0 -166 15.5t-118.5 54.5t-76 110.5t-24.5 179.5v1237h408v-1186z" />
    <glyph glyph-name="m" unicode="m" horiz-adv-x="2058" 
d="M133 0v1126h383l10 -170q94 195 359 195q259 0 325 -223q47 123 139.5 173t235.5 50q354 0 354 -389v-762h-405v659q0 85 -32 121.5t-116 36.5q-79 0 -113 -36t-34 -130v-651h-405v655q0 90 -31.5 126t-114.5 36q-80 0 -114.5 -39t-34.5 -133v-645h-406z" />
    <glyph glyph-name="n" unicode="n" horiz-adv-x="1441" 
d="M133 0v1126h397l11 -155q88 180 360 180q422 0 422 -393v-758h-408v608q0 119 -41 164t-147 45q-105 0 -145.5 -48.5t-40.5 -160.5v-608h-408z" />
    <glyph glyph-name="o" unicode="o" horiz-adv-x="1445" 
d="M82 563q0 299 157 446.5t482 147.5q346 0 494.5 -143t148.5 -451q0 -303 -150.5 -447.5t-492.5 -144.5q-345 0 -492 138.5t-147 453.5zM504 563v-10q0 -143 46.5 -204.5t170.5 -61.5q126 0 173.5 59.5t47.5 204.5v12q0 80 -8 128t-32 84t-67.5 50.5t-113.5 14.5
q-130 0 -173.5 -61.5t-43.5 -215.5z" />
    <glyph glyph-name="p" unicode="p" horiz-adv-x="1499" 
d="M133 -369v1495h387l12 -157q118 182 392 182q266 0 379.5 -134t113.5 -444q0 -304 -120 -450t-398 -146q-239 0 -358 158v-504h-408zM541 553q0 -129 51.5 -192.5t175.5 -63.5t171.5 64.5t47.5 213.5q0 136 -51 196t-172 60q-119 0 -171 -62.5t-52 -193.5v-22z" />
    <glyph glyph-name="q" unicode="q" horiz-adv-x="1501" 
d="M958 -369v527q-53 -89 -142 -135t-238 -46q-119 0 -206 26.5t-154.5 89t-101.5 174.5t-34 274q0 323 126.5 466.5t385.5 143.5q83 0 148 -15t108 -43.5t69 -55.5t50 -64l10 153h387v-1495h-408zM739 297q120 0 169.5 66.5t49.5 201.5v29q0 126 -55 181.5t-172 55.5
q-119 0 -170 -66.5t-51 -207.5q0 -142 54 -201t175 -59z" />
    <glyph glyph-name="r" unicode="r" horiz-adv-x="1054" 
d="M133 0v1126h383l12 -182q46 112 121.5 159.5t190.5 47.5q41 0 135 -16v-400q-74 64 -215 64q-119 0 -169 -56.5t-50 -189.5v-553h-408z" />
    <glyph glyph-name="s" unicode="s" horiz-adv-x="1187" 
d="M1026 1110v-340q-184 94 -371 94q-81 0 -108 -14.5t-27 -46.5q0 -26 32.5 -41.5t84 -26t114 -22t125 -35.5t114 -60.5t84 -103.5t32.5 -158q0 -76 -15 -133.5t-53 -106.5t-100.5 -80t-159.5 -48t-229 -17q-226 0 -416 62v352q76 -51 181 -86t225 -35q91 0 120 16t29 54
q0 26 -32.5 43t-84 28.5t-114 25t-125 39t-114 62.5t-84 103.5t-32.5 155.5q0 132 50 210.5t168.5 117t322.5 38.5q205 0 383 -47z" />
    <glyph glyph-name="t" unicode="t" horiz-adv-x="1083" 
d="M256 383v414h-195v329h195v162l408 131v-293h317v-329h-317v-326q0 -74 28.5 -107.5t98.5 -33.5q46 0 99.5 13.5t90.5 35.5v-346q-125 -53 -313 -53q-227 0 -319.5 91.5t-92.5 311.5z" />
    <glyph glyph-name="u" unicode="u" horiz-adv-x="1445" 
d="M913 0l-10 158q-60 -96 -149.5 -138.5t-231.5 -42.5q-210 0 -304.5 104t-94.5 329v716h407v-624q0 -103 41.5 -146t143.5 -43q96 0 142 46.5t46 146.5v620h408v-1126h-398z" />
    <glyph glyph-name="v" unicode="v" horiz-adv-x="1341" 
d="M446 0l-421 1126h460l195 -675l201 675h436l-428 -1126h-443z" />
    <glyph glyph-name="w" unicode="w" horiz-adv-x="1933" 
d="M307 0l-266 1126h428l127 -704l182 704h377l184 -710l129 710h424l-274 -1126h-504l-151 594l-150 -594h-506z" />
    <glyph glyph-name="x" unicode="x" horiz-adv-x="1333" 
d="M20 0l357 582l-328 544h449l176 -303l184 303h438l-340 -544l357 -582h-453l-203 324l-194 -324h-443z" />
    <glyph glyph-name="y" unicode="y" horiz-adv-x="1306" 
d="M430 -55q78 0 86 51l-496 1130h459l221 -645l170 645h416l-375 -1101q-80 -236 -171.5 -325t-258.5 -89q-55 0 -118.5 9.5t-98.5 23.5l4 344q84 -43 162 -43z" />
    <glyph glyph-name="z" unicode="z" horiz-adv-x="1265" 
d="M102 0v258l512 535h-491v333h1038v-258l-512 -534h522v-334h-1069z" />
    <glyph glyph-name="braceleft" unicode="{" horiz-adv-x="876" 
d="M258 18v254q0 197 -176 215v234q176 18 176 215v254q0 32 0.5 52.5t4 55.5t9.5 58.5t18.5 55t30.5 53t45 44.5t62 36.5t83 22.5t105 9h220v-229h-103q-87 0 -117 -50t-30 -153v-244q0 -115 -50.5 -194.5t-160.5 -98.5q75 -13 123.5 -59t68 -106.5t19.5 -135.5v-241
q0 -103 30 -154t117 -51h103v-230h-220q-57 0 -105 9t-83 22.5t-62 36.5t-45 44.5t-30.5 53t-18.5 55t-9.5 58.5t-4 55.5t-0.5 52.5z" />
    <glyph glyph-name="bar" unicode="|" horiz-adv-x="577" 
d="M125 -369v1946h328v-1946h-328z" />
    <glyph glyph-name="braceright" unicode="}" horiz-adv-x="876" 
d="M618 18q0 -32 -0.5 -52.5t-4 -55.5t-9.5 -58.5t-18.5 -55t-30.5 -53t-45 -44.5t-62 -36.5t-83 -22.5t-105 -9h-219v230h102q87 0 117.5 51t30.5 154v241q0 75 19.5 135.5t68 106.5t123.5 59q-110 19 -160.5 98.5t-50.5 194.5v244q0 103 -30.5 153t-117.5 50h-102v229h219
q57 0 105 -9t83 -22.5t62 -36.5t45 -44.5t30.5 -53t18.5 -55t9.5 -58.5t4 -55.5t0.5 -52.5v-254q0 -197 177 -215v-234q-177 -18 -177 -215v-254z" />
    <glyph glyph-name="asciitilde" unicode="~" 
d="M197 467v266q106 135 239 135q58 0 130 -21.5t128 -48t122 -48t114 -21.5q63 0 113.5 23.5t101.5 76.5v-264q-97 -119 -240 -119q-57 0 -121.5 22t-113 48t-113 48t-121.5 22q-64 0 -138.5 -38t-100.5 -81z" />
    <glyph glyph-name="uni00A0" unicode="&#xa0;" horiz-adv-x="491" 
 />
    <glyph glyph-name="exclamdown" unicode="&#xa1;" horiz-adv-x="833" 
d="M184 938q0 94 64 151.5t168 57.5q110 0 171.5 -56t61.5 -153q0 -94 -64.5 -151.5t-168.5 -57.5q-113 0 -172.5 55t-59.5 154zM242 596h346l39 -911h-424z" />
    <glyph glyph-name="cent" unicode="&#xa2;" horiz-adv-x="1148" 
d="M553 -246v228q-122 16 -213 68t-144 132t-78.5 177t-25.5 212q0 110 27 205t81.5 173t144.5 129.5t208 66.5v186h215v-180q164 -12 279 -64v-301q-75 30 -138.5 44t-156.5 14q-130 0 -202.5 -73t-72.5 -198q0 -130 78 -210t236 -80q156 0 266 63v-299q-129 -61 -289 -72
v-221h-215z" />
    <glyph glyph-name="sterling" unicode="&#xa3;" horiz-adv-x="1277" 
d="M109 0v330h176v262h-176v282h176v99q0 226 145 357.5t410 131.5q172 0 356 -43v-325q-134 39 -260 39q-116 0 -177 -52.5t-61 -156.5v-50h324v-282h-324v-262h502v-330h-1091z" />
    <glyph glyph-name="currency" unicode="&#xa4;" horiz-adv-x="1189" 
d="M193 168l-146 147l127 129q-80 124 -80 273q0 150 82 272l-129 129l148 148l131 -129q124 80 268 80q148 0 272 -80l131 129l148 -148l-129 -129q80 -124 80 -272q0 -149 -80 -273l129 -129l-146 -147l-131 129q-125 -82 -274 -82q-148 0 -272 80zM344 715
q0 -102 75 -178t177 -76t178 76t76 178q0 104 -75.5 180t-178.5 76t-177.5 -76t-74.5 -180z" />
    <glyph glyph-name="yen" unicode="&#xa5;" horiz-adv-x="1363" 
d="M166 250v199h309v65l-24 47h-285v199h186l-336 674h473l197 -473l188 473h476l-336 -674h186v-199h-287l-22 -47v-65h309v-199h-309v-250h-416v250h-309z" />
    <glyph glyph-name="brokenbar" unicode="&#xa6;" horiz-adv-x="577" 
d="M125 -369v820h328v-820h-328zM125 758v819h328v-819h-328z" />
    <glyph glyph-name="section" unicode="&#xa7;" horiz-adv-x="1196" 
d="M1024 1407v-260q-204 57 -317 57q-28 0 -54 -3.5t-55.5 -12.5t-47.5 -28.5t-18 -47.5q0 -42 47 -70q20 -12 136 -61q8 -3 41 -17t49 -20q56 -23 94 -41t84.5 -48.5t74 -63t47 -80.5t19.5 -105q0 -158 -178 -268q121 -86 121 -229q0 -52 -15.5 -100.5t-55 -96.5t-99 -83
t-154.5 -57t-215 -22q-188 0 -391 57v269q108 -39 182 -53.5t156 -14.5q193 0 193 92q0 46 -41.5 73t-145.5 67q-21 8 -32 12q-13 5 -46 18.5t-45 18.5q-63 26 -109 53t-89 66.5t-65.5 93.5t-22.5 121q0 86 51.5 157.5t142.5 112.5q-131 73 -131 229q0 50 17 97t56 91.5
t96 78t144 53.5t193 20q189 0 383 -55zM414 670q0 -35 18 -64.5t53 -53.5t72 -41t90 -36q17 -11 76 -31q61 57 61 117t-50 99t-152 83q-2 1 -44.5 18.5t-48.5 20.5q-75 -49 -75 -112z" />
    <glyph glyph-name="dieresis" unicode="&#xa8;" horiz-adv-x="819" 
d="M-72 1454q0 193 217 193t217 -193q0 -192 -217 -192t-217 192zM457 1454q0 193 217 193t217 -193q0 -192 -217 -192t-217 192z" />
    <glyph glyph-name="copyright" unicode="&#xa9;" horiz-adv-x="1652" 
d="M82 715q0 152 59 290t158.5 238.5t237 159.5t288.5 59q152 0 290 -59t238 -159.5t159 -238.5t59 -290q0 -150 -59 -288t-159 -237.5t-238 -159t-290 -59.5q-151 0 -288.5 59.5t-237 159t-158.5 237.5t-59 288zM246 713q0 -156 77.5 -288.5t210.5 -210t289 -77.5
q159 0 293.5 77.5t212.5 210t78 288.5q0 160 -78 294.5t-212 211.5t-294 77q-117 0 -223.5 -45.5t-184 -123t-123.5 -186t-46 -228.5zM1083 1081v-204q-78 32 -170 32q-101 0 -151.5 -43t-50.5 -141q0 -99 50.5 -142.5t153.5 -43.5q84 0 170 39v-207q-88 -39 -219 -39
q-204 0 -299.5 102.5t-95.5 284.5q0 395 408 395q97 0 204 -33z" />
    <glyph glyph-name="ordfeminine" unicode="&#xaa;" horiz-adv-x="905" 
d="M557 707v106h-2q-25 -50 -82 -86.5t-149 -36.5q-127 0 -196 61t-69 169q0 119 84 174t256 55q73 0 146 -10v22q0 82 -146 82q-141 0 -266 -59v219q139 59 320 59q190 0 279 -70.5t89 -238.5v-446h-264zM338 952q0 -63 92 -63q56 0 85.5 26t29.5 68v21q-48 10 -101 10
q-58 0 -82 -15t-24 -47z" />
    <glyph glyph-name="guillemotleft" unicode="&#xab;" horiz-adv-x="1339" 
d="M336 117l-254 434l254 436h354l-229 -436l229 -434h-354zM903 117l-254 434l254 436h354l-229 -436l229 -434h-354z" />
    <glyph glyph-name="logicalnot" unicode="&#xac;" horiz-adv-x="1404" 
d="M92 588v262h1182v-604h-273v342h-909z" />
    <glyph glyph-name="uni00AD" unicode="&#xad;" horiz-adv-x="1040" 
d="M164 430v287h713v-287h-713z" />
    <glyph glyph-name="registered" unicode="&#xae;" horiz-adv-x="1247" 
d="M102 1124q0 144 65.5 263.5t185.5 190.5t270 71q151 0 271.5 -71t185.5 -190.5t65 -263.5q0 -142 -65 -260.5t-185.5 -189t-271.5 -70.5q-150 0 -270 70.5t-185.5 189t-65.5 260.5zM238 1124q0 -162 107.5 -272.5t277.5 -110.5q173 0 280 110.5t107 272.5
q0 166 -106.5 276.5t-280.5 110.5q-171 0 -278 -111t-107 -276zM408 866v531h225q99 0 159 -44.5t60 -140.5q0 -112 -88 -155l117 -191h-170l-93 160h-49v-160h-161zM563 1149h51q72 0 72 57q0 58 -74 58h-49v-115z" />
    <glyph glyph-name="macron" unicode="&#xaf;" horiz-adv-x="819" 
d="M41 1337v234h737v-234h-737z" />
    <glyph glyph-name="degree" unicode="&#xb0;" horiz-adv-x="802" 
d="M76 1135q0 138 95.5 232.5t231.5 94.5t231 -94t95 -233q0 -133 -95.5 -227.5t-230.5 -94.5t-231 94.5t-96 227.5zM287 1133q0 -48 32.5 -81.5t83.5 -33.5q55 0 87 33t32 82q0 57 -33.5 90.5t-85.5 33.5t-84 -34.5t-32 -89.5z" />
    <glyph glyph-name="plusminus" unicode="&#xb1;" horiz-adv-x="1214" 
d="M102 76v286h1010v-286h-1010zM102 764v287h363v290h287v-290h360v-287h-360v-289h-287v289h-363z" />
    <glyph glyph-name="twosuperior" unicode="&#xb2;" horiz-adv-x="921" 
d="M90 780v230l287 159q164 90 164 170q0 95 -154 95q-156 0 -274 -52v232q158 47 319 47q90 0 159.5 -16.5t111.5 -43.5t69 -64t37 -73.5t10 -77.5q0 -102 -75 -187t-246 -159l-80 -34v-2h405v-224h-733z" />
    <glyph glyph-name="threesuperior" unicode="&#xb3;" horiz-adv-x="921" 
d="M233 1124v185h150q152 0 152 65q0 66 -166 66q-169 0 -260 -35v217q137 39 335 39q90 0 159 -14.5t109 -37.5t65 -54.5t33.5 -60.5t8.5 -62q0 -74 -52.5 -123t-160.5 -82v-2q234 -39 234 -201q0 -50 -22 -94t-69.5 -82.5t-136 -61t-209.5 -22.5q-168 0 -309 39v223
q55 -20 112.5 -29.5t84 -10.5t78.5 -1q186 0 186 72q0 36 -33 51.5t-114 15.5h-175z" />
    <glyph glyph-name="acute" unicode="&#xb4;" horiz-adv-x="819" 
d="M102 1280l226 348h471l-410 -348h-287z" />
    <glyph glyph-name="mu" unicode="&#xb5;" horiz-adv-x="1445" 
d="M913 0l-10 158q-60 -96 -149.5 -138.5t-231.5 -42.5h-28v-407h-371v1556h407v-624q0 -103 41.5 -146t143.5 -43q96 0 142 46.5t46 146.5v620h408v-1126h-398z" />
    <glyph glyph-name="mu" unicode="&#x3bc;" horiz-adv-x="1445" 
d="M913 0l-10 158q-60 -96 -149.5 -138.5t-231.5 -42.5h-28v-407h-371v1556h407v-624q0 -103 41.5 -146t143.5 -43q96 0 142 46.5t46 146.5v620h408v-1126h-398z" />
    <glyph glyph-name="paragraph" unicode="&#xb6;" horiz-adv-x="1216" 
d="M469 -430v1073q-178 0 -283.5 107.5t-105.5 281.5q0 82 23 147.5t62.5 108t86.5 72.5t102.5 45.5t101.5 22t91 6.5h549v-1864h-238v1642h-149v-1642h-240z" />
    <glyph glyph-name="periodcentered" unicode="&#xb7;" horiz-adv-x="512" 
d="M41 752q0 97 57 153t158 56q100 0 158.5 -57t58.5 -152q0 -100 -56.5 -156.5t-160.5 -56.5q-99 0 -157 58t-58 155z" />
    <glyph glyph-name="cedilla" unicode="&#xb8;" horiz-adv-x="819" 
d="M221 -215l43 215h201l-29 -104q66 -1 117.5 -18.5t88 -63t36.5 -115.5q0 -101 -82 -162t-217 -61q-143 0 -236 35l29 151q63 -24 123 -24q119 0 119 77q0 72 -129 72q-44 0 -64 -2z" />
    <glyph glyph-name="onesuperior" unicode="&#xb9;" horiz-adv-x="921" 
d="M432 780v582l-211 -113l-106 185l362 204h225v-858h-270z" />
    <glyph glyph-name="ordmasculine" unicode="&#xba;" horiz-adv-x="905" 
d="M31 1077q0 188 112.5 286.5t309.5 98.5q201 0 311 -97t110 -288t-108.5 -289t-312.5 -98t-313 95t-109 292zM313 1077q0 -86 37.5 -129t102.5 -43q71 0 106 41t35 131t-35 131t-106 41q-140 0 -140 -172z" />
    <glyph glyph-name="guillemotright" unicode="&#xbb;" horiz-adv-x="1339" 
d="M1257 551l-253 -434h-355l230 434l-230 436h355zM690 551l-254 -434h-354l229 434l-229 436h354z" />
    <glyph glyph-name="onequarter" unicode="&#xbc;" horiz-adv-x="1945" 
d="M367 -45l886 1520h224l-889 -1520h-221zM991 162v203l434 495h310v-487h123v-211h-123v-160h-269v160h-475zM1470 369v286h-2l-251 -286h253zM354 575v582l-211 -113l-106 185l362 205h226v-859h-271z" />
    <glyph glyph-name="onehalf" unicode="&#xbd;" horiz-adv-x="1945" 
d="M342 -45l887 1520h223l-889 -1520h-221zM1143 2v229l287 160q163 90 163 170q0 94 -153 94q-159 0 -275 -51v232q158 47 320 47q90 0 159.5 -16.5t111.5 -43.5t69 -64t37 -73.5t10 -77.5q0 -102 -75.5 -187t-246.5 -159l-80 -35v-2h406v-223h-733zM336 575v582l-211 -113
l-107 185l363 205h225v-859h-270z" />
    <glyph glyph-name="threequarters" unicode="&#xbe;" horiz-adv-x="1945" 
d="M418 -45l887 1520h223l-889 -1520h-221zM1036 162v203l434 495h310v-487h123v-211h-123v-160h-269v160h-475zM1516 369v286h-3l-251 -286h254zM184 920v184h150q151 0 151 65q0 66 -166 66q-169 0 -260 -35v217q137 39 336 39q90 0 159 -14.5t109 -37.5t65 -54.5
t33.5 -60.5t8.5 -62q0 -74 -52.5 -123t-160.5 -82v-2q234 -39 234 -201q0 -50 -22 -94t-69.5 -82.5t-136 -61t-209.5 -22.5q-168 0 -309 39v223q55 -20 112.5 -29.5t83.5 -10.5t78 -1q187 0 187 72q0 36 -34 52t-114 16h-174z" />
    <glyph glyph-name="questiondown" unicode="&#xbf;" horiz-adv-x="1157" 
d="M842 612q0 -84 -22.5 -150.5t-55.5 -105.5t-72.5 -74t-72.5 -58.5t-55.5 -56.5t-22.5 -71q0 -48 32 -68t99 -20q104 0 206.5 37.5t176.5 93.5v-407q-173 -76 -455 -76q-498 0 -498 358q0 84 21 150t54 108t73 75.5t80.5 60.5t73.5 54t54 65t21 85h363zM893 938
q0 -99 -59 -154t-172 -55q-104 0 -169 57.5t-65 151.5q0 97 62 153t172 56q104 0 167.5 -57.5t63.5 -151.5z" />
    <glyph glyph-name="Agrave" unicode="&#xc0;" horiz-adv-x="1478" 
d="M1053 0l-80 258h-477l-80 -258h-408l481 1434h506l475 -1434h-417zM733 1028l-135 -434h270zM160 1915h475l242 -389h-291z" />
    <glyph glyph-name="Aacute" unicode="&#xc1;" horiz-adv-x="1478" 
d="M1053 0l-80 258h-477l-80 -258h-408l481 1434h506l475 -1434h-417zM733 1028l-135 -434h270zM573 1526l242 389h475l-426 -389h-291z" />
    <glyph glyph-name="Acircumflex" unicode="&#xc2;" horiz-adv-x="1478" 
d="M1053 0l-80 258h-477l-80 -258h-408l481 1434h506l475 -1434h-417zM733 1028l-135 -434h270zM268 1536l277 369h393l272 -369h-292l-177 199l-178 -199h-295z" />
    <glyph glyph-name="Atilde" unicode="&#xc3;" horiz-adv-x="1478" 
d="M1053 0l-80 258h-477l-80 -258h-408l481 1434h506l475 -1434h-417zM733 1028l-135 -434h270zM483 1554l-194 25q6 148 76.5 227.5t181.5 79.5q12 0 23 -0.5t24 -3t22 -4t23.5 -6t21 -6.5t24 -8t22.5 -8t25 -9.5t24 -9.5q71 -28 96.5 -35.5t52.5 -7.5q38 0 62 27.5
t30 70.5l193 -24q-6 -140 -74.5 -224t-183.5 -84q-23 0 -42 2t-44 9.5t-34 10.5t-44.5 17t-42.5 17q-13 5 -43.5 18t-41.5 16.5t-30 8t-37 4.5q-31 0 -57.5 -29.5t-32.5 -73.5z" />
    <glyph glyph-name="Adieresis" unicode="&#xc4;" horiz-adv-x="1478" 
d="M1053 0l-80 258h-477l-80 -258h-408l481 1434h506l475 -1434h-417zM733 1028l-135 -434h270zM248 1720q0 193 217 193t217 -193q0 -192 -217 -192t-217 192zM797 1720q0 193 217 193t217 -193q0 -192 -217 -192t-217 192z" />
    <glyph glyph-name="Aring" unicode="&#xc5;" horiz-adv-x="1478" 
d="M1053 0l-80 258h-477l-80 -258h-408l481 1434h506l475 -1434h-417zM733 1028l-135 -434h270zM457 1741q0 115 80 192.5t202 77.5q121 0 202 -78t81 -192q0 -117 -80.5 -194t-202.5 -77q-123 0 -202.5 77t-79.5 194zM641 1741q0 -39 26 -62.5t72 -23.5t72.5 23.5
t26.5 62.5t-26.5 62.5t-72.5 23.5t-72 -23.5t-26 -62.5z" />
    <glyph glyph-name="AE" unicode="&#xc6;" horiz-adv-x="2211" 
d="M1087 0v258h-509l-152 -258h-420l871 1434h1232v-357h-608v-190h518v-326h-518v-205h608v-356h-1022zM788 612h299v506z" />
    <glyph glyph-name="Ccedilla" unicode="&#xc7;" horiz-adv-x="1341" 
d="M627 -236l39 213q-309 35 -446.5 211t-137.5 510q0 197 41.5 338.5t132 238.5t236 144t352.5 47q90 0 179.5 -13.5t121.5 -22.5t92 -27v-414q-104 55 -158 72q-98 31 -221 31q-178 0 -257 -84.5t-79 -290.5q0 -210 80.5 -292.5t271.5 -82.5q222 0 365 107v-408
q-151 -69 -371 -74l-16 -73q48 0 90.5 -11.5t79.5 -34.5t58.5 -64t21.5 -95q0 -108 -91 -171t-233 -63q-145 0 -233 35l26 158q61 -25 129 -25q129 0 129 74q0 29 -21 45t-48 20.5t-68 4.5q-35 0 -65 -3z" />
    <glyph glyph-name="Egrave" unicode="&#xc8;" 
d="M164 0v1434h1065v-357h-651v-190h561v-326h-561v-205h651v-356h-1065zM106 1915h476l241 -389h-291z" />
    <glyph glyph-name="Eacute" unicode="&#xc9;" 
d="M164 0v1434h1065v-357h-651v-190h561v-326h-561v-205h651v-356h-1065zM530 1526l242 389h475l-426 -389h-291z" />
    <glyph glyph-name="Ecircumflex" unicode="&#xca;" 
d="M164 0v1434h1065v-357h-651v-190h561v-326h-561v-205h651v-356h-1065zM225 1536l277 369h393l272 -369h-293l-176 199l-178 -199h-295z" />
    <glyph glyph-name="Edieresis" unicode="&#xcb;" 
d="M164 0v1434h1065v-357h-651v-190h561v-326h-561v-205h651v-356h-1065zM205 1720q0 193 217 193t217 -193q0 -192 -217 -192t-217 192zM754 1720q0 193 217 193t217 -193q0 -192 -217 -192t-217 192z" />
    <glyph glyph-name="Igrave" unicode="&#xcc;" horiz-adv-x="741" 
d="M164 0v1434h414v-1434h-414zM-209 1915h475l242 -389h-291z" />
    <glyph glyph-name="Iacute" unicode="&#xcd;" horiz-adv-x="741" 
d="M164 0v1434h414v-1434h-414zM223 1526l242 389h475l-426 -389h-291z" />
    <glyph glyph-name="Icircumflex" unicode="&#xce;" horiz-adv-x="741" 
d="M164 0v1434h414v-1434h-414zM-100 1536l276 369h393l273 -369h-293l-176 199l-178 -199h-295z" />
    <glyph glyph-name="Idieresis" unicode="&#xcf;" horiz-adv-x="741" 
d="M164 0v1434h414v-1434h-414zM-121 1720q0 193 217 193t217 -193q0 -192 -217 -192t-217 192zM428 1720q0 193 217 193t217 -193q0 -192 -217 -192t-217 192z" />
    <glyph glyph-name="Eth" unicode="&#xd0;" horiz-adv-x="1552" 
d="M33 573v310h131v551q219 10 532 10q149 0 266.5 -21t202 -63.5t144 -101t95 -139t51 -172t15.5 -204.5q0 -379 -191.5 -566t-612.5 -187q-293 0 -502 10v573h-131zM578 348q47 -4 118 -4q184 0 267.5 93.5t83.5 291.5q0 187 -80 274t-256 87q-69 0 -133 -5v-202h292v-310
h-292v-225z" />
    <glyph glyph-name="Ntilde" unicode="&#xd1;" horiz-adv-x="1648" 
d="M164 0v1434h450l379 -652q22 -37 57 -114.5t44 -94.5q-9 158 -9 222v639h400v-1434h-430l-406 690q-21 35 -55.5 111t-38.5 84q8 -122 8 -201v-684h-399zM567 1554l-194 25q6 148 76.5 227.5t181.5 79.5q12 0 23 -0.5t24 -3t22 -4t23.5 -6t21 -6.5t24 -8t22.5 -8t25 -9.5
t24 -9.5q71 -28 96.5 -35.5t52.5 -7.5q38 0 62 27.5t30 70.5l193 -24q-6 -140 -74.5 -224t-183.5 -84q-23 0 -42 2t-44 9.5t-34 10.5t-44.5 17t-42.5 17q-13 5 -43.5 18t-41.5 16.5t-30 8t-37 4.5q-31 0 -57.5 -29.5t-32.5 -73.5z" />
    <glyph glyph-name="Ograve" unicode="&#xd2;" horiz-adv-x="1628" 
d="M82 717q0 393 176 571t551 178q207 0 347.5 -42.5t227.5 -135.5t124.5 -231t37.5 -340q0 -203 -45 -346.5t-137.5 -232.5t-226 -130t-318.5 -41q-378 0 -557.5 182.5t-179.5 567.5zM522 717q0 -119 19 -197.5t59.5 -121t93 -59.5t129.5 -17q75 0 125.5 18t87.5 62
t54.5 121.5t17.5 193.5q0 153 -32.5 240t-95.5 121t-171 34q-102 0 -162.5 -34.5t-92.5 -121.5t-32 -239zM236 1915h475l241 -389h-290z" />
    <glyph glyph-name="Oacute" unicode="&#xd3;" horiz-adv-x="1628" 
d="M82 717q0 393 176 571t551 178q207 0 347.5 -42.5t227.5 -135.5t124.5 -231t37.5 -340q0 -203 -45 -346.5t-137.5 -232.5t-226 -130t-318.5 -41q-378 0 -557.5 182.5t-179.5 567.5zM522 717q0 -119 19 -197.5t59.5 -121t93 -59.5t129.5 -17q75 0 125.5 18t87.5 62
t54.5 121.5t17.5 193.5q0 153 -32.5 240t-95.5 121t-171 34q-102 0 -162.5 -34.5t-92.5 -121.5t-32 -239zM647 1526l242 389h475l-426 -389h-291z" />
    <glyph glyph-name="Ocircumflex" unicode="&#xd4;" horiz-adv-x="1628" 
d="M82 717q0 393 176 571t551 178q207 0 347.5 -42.5t227.5 -135.5t124.5 -231t37.5 -340q0 -203 -45 -346.5t-137.5 -232.5t-226 -130t-318.5 -41q-378 0 -557.5 182.5t-179.5 567.5zM522 717q0 -119 19 -197.5t59.5 -121t93 -59.5t129.5 -17q75 0 125.5 18t87.5 62
t54.5 121.5t17.5 193.5q0 153 -32.5 240t-95.5 121t-171 34q-102 0 -162.5 -34.5t-92.5 -121.5t-32 -239zM344 1536l277 369h393l272 -369h-293l-176 199l-178 -199h-295z" />
    <glyph glyph-name="Otilde" unicode="&#xd5;" horiz-adv-x="1628" 
d="M82 717q0 393 176 571t551 178q207 0 347.5 -42.5t227.5 -135.5t124.5 -231t37.5 -340q0 -203 -45 -346.5t-137.5 -232.5t-226 -130t-318.5 -41q-378 0 -557.5 182.5t-179.5 567.5zM522 717q0 -119 19 -197.5t59.5 -121t93 -59.5t129.5 -17q75 0 125.5 18t87.5 62
t54.5 121.5t17.5 193.5q0 153 -32.5 240t-95.5 121t-171 34q-102 0 -162.5 -34.5t-92.5 -121.5t-32 -239zM559 1554l-194 25q6 148 76.5 227.5t181.5 79.5q13 0 27 -1.5t24.5 -3t26.5 -5.5t23.5 -6t26.5 -9t24.5 -9t28 -10.5t27.5 -10.5q71 -28 97 -35.5t53 -7.5
q38 0 62 27.5t30 70.5l193 -24q-6 -140 -74.5 -224t-183.5 -84q-23 0 -42 2t-44 9.5t-34 10.5t-44.5 17t-42.5 17q-13 5 -43.5 18t-41.5 16.5t-30 8t-37 4.5q-31 0 -57.5 -29.5t-32.5 -73.5z" />
    <glyph glyph-name="Odieresis" unicode="&#xd6;" horiz-adv-x="1628" 
d="M82 717q0 393 176 571t551 178q207 0 347.5 -42.5t227.5 -135.5t124.5 -231t37.5 -340q0 -203 -45 -346.5t-137.5 -232.5t-226 -130t-318.5 -41q-378 0 -557.5 182.5t-179.5 567.5zM522 717q0 -119 19 -197.5t59.5 -121t93 -59.5t129.5 -17q75 0 125.5 18t87.5 62
t54.5 121.5t17.5 193.5q0 153 -32.5 240t-95.5 121t-171 34q-102 0 -162.5 -34.5t-92.5 -121.5t-32 -239zM322 1720q0 193 217 193t217 -193q0 -192 -217 -192t-217 192zM870 1720q0 193 217 193q218 0 218 -193q0 -192 -218 -192q-217 0 -217 192z" />
    <glyph glyph-name="multiply" unicode="&#xd7;" horiz-adv-x="1163" 
d="M109 393l272 273l-272 274l200 201l273 -273l274 273l201 -201l-273 -274l273 -273l-201 -200l-274 272l-273 -272z" />
    <glyph glyph-name="Oslash" unicode="&#xd8;" horiz-adv-x="1628" 
d="M82 717q0 393 176 571t551 178q234 0 383 -55l108 141l162 -127l-92 -122q176 -170 176 -586q0 -203 -45 -346.5t-137.5 -232.5t-226 -130t-318.5 -41q-240 0 -405 74l-121 -160l-164 123l119 158q-166 181 -166 555zM1108 717q0 121 -23 211l-432 -572q57 -34 170 -34
q75 0 125.5 18t87.5 62t54.5 121.5t17.5 193.5zM522 717q0 -82 15 -174l413 547q-54 22 -141 22q-102 0 -162.5 -34.5t-92.5 -121.5t-32 -239z" />
    <glyph glyph-name="Ugrave" unicode="&#xd9;" horiz-adv-x="1550" 
d="M154 596v838h415v-805q0 -181 40.5 -242t166.5 -61q68 0 107.5 13t62.5 51t30 91.5t7 147.5v805h414v-842q0 -142 -25.5 -247t-74 -176.5t-125.5 -115.5t-173 -63t-223 -19q-126 0 -220 17t-172.5 59.5t-127.5 113.5t-75.5 179t-26.5 256zM197 1915h475l241 -389h-290z
" />
    <glyph glyph-name="Uacute" unicode="&#xda;" horiz-adv-x="1550" 
d="M154 596v838h415v-805q0 -181 40.5 -242t166.5 -61q68 0 107.5 13t62.5 51t30 91.5t7 147.5v805h414v-842q0 -142 -25.5 -247t-74 -176.5t-125.5 -115.5t-173 -63t-223 -19q-126 0 -220 17t-172.5 59.5t-127.5 113.5t-75.5 179t-26.5 256zM608 1526l242 389h475
l-426 -389h-291z" />
    <glyph glyph-name="Ucircumflex" unicode="&#xdb;" horiz-adv-x="1550" 
d="M154 596v838h415v-805q0 -181 40.5 -242t166.5 -61q68 0 107.5 13t62.5 51t30 91.5t7 147.5v805h414v-842q0 -142 -25.5 -247t-74 -176.5t-125.5 -115.5t-173 -63t-223 -19q-126 0 -220 17t-172.5 59.5t-127.5 113.5t-75.5 179t-26.5 256zM305 1536l277 369h393l272 -369
h-293l-176 199l-178 -199h-295z" />
    <glyph glyph-name="Udieresis" unicode="&#xdc;" horiz-adv-x="1550" 
d="M154 596v838h415v-805q0 -181 40.5 -242t166.5 -61q68 0 107.5 13t62.5 51t30 91.5t7 147.5v805h414v-842q0 -142 -25.5 -247t-74 -176.5t-125.5 -115.5t-173 -63t-223 -19q-126 0 -220 17t-172.5 59.5t-127.5 113.5t-75.5 179t-26.5 256zM283 1720q0 193 217 193
t217 -193q0 -192 -217 -192t-217 192zM831 1720q0 193 218 193q217 0 217 -193q0 -192 -217 -192q-218 0 -218 192z" />
    <glyph glyph-name="Yacute" unicode="&#xdd;" horiz-adv-x="1411" 
d="M500 0v500l-490 934h475l224 -463l217 463h475l-488 -934v-500h-413zM539 1526l241 389h475l-426 -389h-290z" />
    <glyph glyph-name="Thorn" unicode="&#xde;" horiz-adv-x="1325" 
d="M100 -23v1479h414v-190h162q604 0 604 -496q0 -534 -637 -534h-129v-259h-414zM504 592h139q108 0 160.5 38.5t52.5 121.5q0 88 -52 122.5t-167 34.5h-133v-317z" />
    <glyph glyph-name="germandbls" unicode="&#xdf;" horiz-adv-x="1441" 
d="M96 0v1098q0 579 637 579q153 0 269 -36.5t184 -99t101.5 -139.5t33.5 -165q0 -79 -24 -145t-64.5 -109.5t-86 -72t-97.5 -44.5v-8q340 -61 340 -407q0 -73 -19.5 -141t-62.5 -129t-105.5 -106t-154 -71.5t-201.5 -26.5q-117 0 -209 25v295q67 -18 129 -18q96 0 148.5 52
t52.5 158q0 116 -60.5 160.5t-165.5 44.5h-86v293h70q86 0 130 50.5t44 144.5q0 95 -53.5 136.5t-134.5 41.5q-114 0 -160.5 -71.5t-46.5 -198.5v-1090h-408z" />
    <glyph glyph-name="agrave" unicode="&#xe0;" horiz-adv-x="1327" 
d="M842 0l-15 162q-37 -71 -136.5 -128t-258.5 -57q-103 0 -178.5 27.5t-118.5 77t-62.5 111t-19.5 137.5q0 179 128 257t399 75l217 -3v37q0 69 -48 102t-174 33q-116 0 -229 -38.5t-180 -92.5v375q81 35 208.5 58.5t278.5 23.5q162 0 267 -23t170 -77t91.5 -135.5
t26.5 -206.5v-715h-366zM467 369q0 -97 133 -97q197 0 197 146v43h-152q-100 0 -139 -19.5t-39 -72.5zM842 1280h-287l-410 348h471z" />
    <glyph glyph-name="aacute" unicode="&#xe1;" horiz-adv-x="1327" 
d="M842 0l-15 162q-37 -71 -136.5 -128t-258.5 -57q-103 0 -178.5 27.5t-118.5 77t-62.5 111t-19.5 137.5q0 179 128 257t399 75l217 -3v37q0 69 -48 102t-174 33q-116 0 -229 -38.5t-180 -92.5v375q81 35 208.5 58.5t278.5 23.5q162 0 267 -23t170 -77t91.5 -135.5
t26.5 -206.5v-715h-366zM467 369q0 -97 133 -97q197 0 197 146v43h-152q-100 0 -139 -19.5t-39 -72.5zM500 1280l225 348h471l-410 -348h-286z" />
    <glyph glyph-name="acircumflex" unicode="&#xe2;" horiz-adv-x="1327" 
d="M842 0l-15 162q-37 -71 -136.5 -128t-258.5 -57q-103 0 -178.5 27.5t-118.5 77t-62.5 111t-19.5 137.5q0 179 128 257t399 75l217 -3v37q0 69 -48 102t-174 33q-116 0 -229 -38.5t-180 -92.5v375q81 35 208.5 58.5t278.5 23.5q162 0 267 -23t170 -77t91.5 -135.5
t26.5 -206.5v-715h-366zM467 369q0 -97 133 -97q197 0 197 146v43h-152q-100 0 -139 -19.5t-39 -72.5zM213 1280l258 348h385l258 -348h-291l-157 174l-160 -174h-293z" />
    <glyph glyph-name="atilde" unicode="&#xe3;" horiz-adv-x="1327" 
d="M842 0l-15 162q-37 -71 -136.5 -128t-258.5 -57q-103 0 -178.5 27.5t-118.5 77t-62.5 111t-19.5 137.5q0 179 128 257t399 75l217 -3v37q0 69 -48 102t-174 33q-116 0 -229 -38.5t-180 -92.5v375q81 35 208.5 58.5t278.5 23.5q162 0 267 -23t170 -77t91.5 -135.5
t26.5 -206.5v-715h-366zM467 369q0 -97 133 -97q197 0 197 146v43h-152q-100 0 -139 -19.5t-39 -72.5zM418 1288l-185 23q6 152 72 231.5t172 79.5q66 0 199 -55q17 -7 44 -18t35.5 -14.5t23.5 -8.5t24.5 -6.5t21.5 -1.5q37 0 59 29.5t27 74.5l183 -25q-6 -144 -70 -227.5
t-172 -83.5q-50 0 -96 13.5t-111 41.5q-19 8 -42.5 19t-36 16.5t-30 10t-34.5 4.5q-31 0 -55.5 -29.5t-28.5 -73.5z" />
    <glyph glyph-name="adieresis" unicode="&#xe4;" horiz-adv-x="1327" 
d="M842 0l-15 162q-37 -71 -136.5 -128t-258.5 -57q-103 0 -178.5 27.5t-118.5 77t-62.5 111t-19.5 137.5q0 179 128 257t399 75l217 -3v37q0 69 -48 102t-174 33q-116 0 -229 -38.5t-180 -92.5v375q81 35 208.5 58.5t278.5 23.5q162 0 267 -23t170 -77t91.5 -135.5
t26.5 -206.5v-715h-366zM467 369q0 -97 133 -97q197 0 197 146v43h-152q-100 0 -139 -19.5t-39 -72.5zM182 1454q0 193 217 193t217 -193q0 -192 -217 -192t-217 192zM711 1454q0 193 217 193t217 -193q0 -192 -217 -192t-217 192z" />
    <glyph glyph-name="aring" unicode="&#xe5;" horiz-adv-x="1327" 
d="M842 0l-15 162q-37 -71 -136.5 -128t-258.5 -57q-103 0 -178.5 27.5t-118.5 77t-62.5 111t-19.5 137.5q0 179 128 257t399 75l217 -3v37q0 69 -48 102t-174 33q-116 0 -229 -38.5t-180 -92.5v375q81 35 208.5 58.5t278.5 23.5q162 0 267 -23t170 -77t91.5 -135.5
t26.5 -206.5v-715h-366zM467 369q0 -97 133 -97q197 0 197 146v43h-152q-100 0 -139 -19.5t-39 -72.5zM385 1475q0 117 76.5 191.5t202.5 74.5t202 -74.5t76 -191.5q0 -119 -75.5 -193t-202.5 -74t-203 74t-76 193zM565 1475q0 -86 99 -86q98 0 98 86t-98 86q-99 0 -99 -86z
" />
    <glyph glyph-name="ae" unicode="&#xe6;" horiz-adv-x="2093" 
d="M2021 467h-809q7 -99 76.5 -142.5t216.5 -43.5q128 0 253.5 36t189.5 89v-332q-47 -40 -187 -71.5t-323 -31.5q-313 0 -465 125q-133 -119 -438 -119q-131 0 -227 27.5t-150.5 77t-79.5 111t-25 137.5q0 181 128 260t399 76l217 -2v32q0 69 -48 102t-174 33
q-116 0 -229 -38.5t-180 -92.5v375q81 35 208.5 58.5t278.5 23.5q281 0 404 -76q149 76 373 76q164 0 280 -36.5t183.5 -108.5t97.5 -167.5t30 -223.5v-154zM1421 864q-103 0 -153 -48.5t-58 -147.5h406q2 95 -42 145.5t-153 50.5zM467 369q0 -97 133 -97q197 0 197 146v47
h-152q-100 0 -139 -20t-39 -76z" />
    <glyph glyph-name="ccedilla" unicode="&#xe7;" horiz-adv-x="1247" 
d="M580 -215l36 190q-289 23 -411.5 165t-122.5 433q0 295 155.5 439.5t491.5 144.5q237 0 404 -72v-364q-71 49 -147.5 75.5t-188.5 26.5q-157 0 -225 -57.5t-68 -190.5q0 -92 27 -149t98.5 -89t193.5 -32q92 0 183 26t139 62v-342q-146 -67 -330 -78l-20 -77
q48 -1 89 -11.5t76.5 -32.5t55.5 -61t20 -92q0 -101 -82 -162t-217 -61q-142 0 -235 35l28 151q63 -24 123 -24q119 0 119 77q0 72 -129 72q-43 0 -63 -2z" />
    <glyph glyph-name="egrave" unicode="&#xe8;" horiz-adv-x="1374" 
d="M1303 475h-809q7 -104 76 -149t216 -45q128 0 253.5 36t189.5 89v-332q-47 -40 -187 -71.5t-323 -31.5q-178 0 -302 38.5t-197.5 118.5t-105.5 190.5t-32 265.5q0 290 162 431.5t467 141.5q132 0 233 -24.5t168.5 -69t110.5 -111.5t61.5 -148t18.5 -183v-146zM702 864
q-103 0 -152.5 -45t-57.5 -137h405q2 88 -42 135t-153 47zM887 1280h-287l-410 348h472z" />
    <glyph glyph-name="eacute" unicode="&#xe9;" horiz-adv-x="1374" 
d="M1303 475h-809q7 -104 76 -149t216 -45q128 0 253.5 36t189.5 89v-332q-47 -40 -187 -71.5t-323 -31.5q-178 0 -302 38.5t-197.5 118.5t-105.5 190.5t-32 265.5q0 290 162 431.5t467 141.5q132 0 233 -24.5t168.5 -69t110.5 -111.5t61.5 -148t18.5 -183v-146zM702 864
q-103 0 -152.5 -45t-57.5 -137h405q2 88 -42 135t-153 47zM549 1280l225 348h471l-409 -348h-287z" />
    <glyph glyph-name="ecircumflex" unicode="&#xea;" horiz-adv-x="1374" 
d="M1303 475h-809q7 -104 76 -149t216 -45q128 0 253.5 36t189.5 89v-332q-47 -40 -187 -71.5t-323 -31.5q-178 0 -302 38.5t-197.5 118.5t-105.5 190.5t-32 265.5q0 290 162 431.5t467 141.5q132 0 233 -24.5t168.5 -69t110.5 -111.5t61.5 -148t18.5 -183v-146zM702 864
q-103 0 -152.5 -45t-57.5 -137h405q2 88 -42 135t-153 47zM258 1280l258 348h385l258 -348h-291l-157 174l-160 -174h-293z" />
    <glyph glyph-name="edieresis" unicode="&#xeb;" horiz-adv-x="1374" 
d="M1303 475h-809q7 -104 76 -149t216 -45q128 0 253.5 36t189.5 89v-332q-47 -40 -187 -71.5t-323 -31.5q-178 0 -302 38.5t-197.5 118.5t-105.5 190.5t-32 265.5q0 290 162 431.5t467 141.5q132 0 233 -24.5t168.5 -69t110.5 -111.5t61.5 -148t18.5 -183v-146zM702 864
q-103 0 -152.5 -45t-57.5 -137h405q2 88 -42 135t-153 47zM231 1454q0 193 218 193q217 0 217 -193q0 -192 -217 -192q-218 0 -218 192zM760 1454q0 193 217 193t217 -193q0 -192 -217 -192t-217 192z" />
    <glyph glyph-name="igrave" unicode="&#xec;" horiz-adv-x="677" 
d="M133 0v1126h410v-1126h-410zM518 1280h-287l-409 348h471z" />
    <glyph glyph-name="iacute" unicode="&#xed;" horiz-adv-x="677" 
d="M133 0v1126h410v-1126h-410zM195 1280l225 348h471l-410 -348h-286z" />
    <glyph glyph-name="icircumflex" unicode="&#xee;" horiz-adv-x="677" 
d="M133 0v1126h410v-1126h-410zM-113 1280l258 348h385l258 -348h-290l-158 174l-160 -174h-293z" />
    <glyph glyph-name="idieresis" unicode="&#xef;" horiz-adv-x="677" 
d="M133 0v1126h410v-1126h-410zM-143 1454q0 193 217 193t217 -193q0 -192 -217 -192t-217 192zM385 1454q0 193 217 193t217 -193q0 -192 -217 -192t-217 192z" />
    <glyph glyph-name="eth" unicode="&#xf0;" horiz-adv-x="1413" 
d="M381 1139l-74 145l162 80q-159 57 -270 70l139 243q240 -43 457 -151l299 145l75 -145l-208 -105q397 -331 397 -821q0 -114 -24.5 -207.5t-64.5 -157.5t-98 -113t-117 -77t-129.5 -45t-128.5 -23t-120 -6q-137 0 -244.5 29t-178 80t-116 124t-65 155.5t-19.5 181.5
q0 259 144.5 400.5t410.5 141.5q180 0 299 -110l8 4q-53 158 -258 297zM475 547q0 -128 62 -194t168 -66q116 0 173.5 63.5t57.5 196.5q0 115 -59.5 185.5t-171.5 70.5q-230 0 -230 -256z" />
    <glyph glyph-name="ntilde" unicode="&#xf1;" horiz-adv-x="1441" 
d="M133 0v1126h397l11 -155q88 180 360 180q422 0 422 -393v-758h-408v608q0 119 -41 164t-147 45q-105 0 -145.5 -48.5t-40.5 -160.5v-608h-408zM481 1288l-184 23q6 152 72 231.5t172 79.5q65 0 198 -55q15 -6 37.5 -15.5t31.5 -13t23 -9t21.5 -7t17 -3t19.5 -1.5
q37 0 59 29.5t27 74.5l182 -25q-6 -144 -70 -227.5t-172 -83.5q-50 0 -95 13.5t-111 41.5q-19 8 -43 19t-36.5 16.5t-30 10t-34.5 4.5q-31 0 -55.5 -29.5t-28.5 -73.5z" />
    <glyph glyph-name="ograve" unicode="&#xf2;" horiz-adv-x="1445" 
d="M82 563q0 299 157 446.5t482 147.5q346 0 494.5 -143t148.5 -451q0 -303 -150.5 -447.5t-492.5 -144.5q-345 0 -492 138.5t-147 453.5zM504 563v-10q0 -143 46.5 -204.5t170.5 -61.5q126 0 173.5 59.5t47.5 204.5v12q0 80 -8 128t-32 84t-67.5 50.5t-113.5 14.5
q-130 0 -173.5 -61.5t-43.5 -215.5zM901 1280h-287l-409 348h471z" />
    <glyph glyph-name="oacute" unicode="&#xf3;" horiz-adv-x="1445" 
d="M82 563q0 299 157 446.5t482 147.5q346 0 494.5 -143t148.5 -451q0 -303 -150.5 -447.5t-492.5 -144.5q-345 0 -492 138.5t-147 453.5zM504 563v-10q0 -143 46.5 -204.5t170.5 -61.5q126 0 173.5 59.5t47.5 204.5v12q0 80 -8 128t-32 84t-67.5 50.5t-113.5 14.5
q-130 0 -173.5 -61.5t-43.5 -215.5zM559 1280l225 348h471l-409 -348h-287z" />
    <glyph glyph-name="ocircumflex" unicode="&#xf4;" horiz-adv-x="1445" 
d="M82 563q0 299 157 446.5t482 147.5q346 0 494.5 -143t148.5 -451q0 -303 -150.5 -447.5t-492.5 -144.5q-345 0 -492 138.5t-147 453.5zM504 563v-10q0 -143 46.5 -204.5t170.5 -61.5q126 0 173.5 59.5t47.5 204.5v12q0 80 -8 128t-32 84t-67.5 50.5t-113.5 14.5
q-130 0 -173.5 -61.5t-43.5 -215.5zM272 1280l258 348h385l259 -348h-291l-158 174l-160 -174h-293z" />
    <glyph glyph-name="otilde" unicode="&#xf5;" horiz-adv-x="1445" 
d="M82 563q0 299 157 446.5t482 147.5q346 0 494.5 -143t148.5 -451q0 -303 -150.5 -447.5t-492.5 -144.5q-345 0 -492 138.5t-147 453.5zM504 563v-10q0 -143 46.5 -204.5t170.5 -61.5q126 0 173.5 59.5t47.5 204.5v12q0 80 -8 128t-32 84t-67.5 50.5t-113.5 14.5
q-130 0 -173.5 -61.5t-43.5 -215.5zM477 1288l-184 23q6 152 72 231.5t172 79.5q65 0 198 -55q15 -6 37.5 -15.5t31.5 -13t23 -9t21.5 -7t17 -3t19.5 -1.5q37 0 59 29.5t27 74.5l182 -25q-6 -144 -70 -227.5t-172 -83.5q-50 0 -95 13.5t-111 41.5q-19 8 -43 19t-36.5 16.5
t-30 10t-34.5 4.5q-31 0 -55.5 -29.5t-28.5 -73.5z" />
    <glyph glyph-name="odieresis" unicode="&#xf6;" horiz-adv-x="1445" 
d="M82 563q0 299 157 446.5t482 147.5q346 0 494.5 -143t148.5 -451q0 -303 -150.5 -447.5t-492.5 -144.5q-345 0 -492 138.5t-147 453.5zM504 563v-10q0 -143 46.5 -204.5t170.5 -61.5q126 0 173.5 59.5t47.5 204.5v12q0 80 -8 128t-32 84t-67.5 50.5t-113.5 14.5
q-130 0 -173.5 -61.5t-43.5 -215.5zM242 1454q0 193 217 193t217 -193q0 -192 -217 -192t-217 192zM770 1454q0 193 217 193t217 -193q0 -192 -217 -192t-217 192z" />
    <glyph glyph-name="divide" unicode="&#xf7;" horiz-adv-x="1214" 
d="M430 254q0 80 47 126t133 46q78 0 127 -47t49 -125q0 -83 -45.5 -128.5t-130.5 -45.5q-84 0 -132 46.5t-48 127.5zM430 1079q0 82 47 128t133 46q79 0 127.5 -47.5t48.5 -126.5q0 -82 -46 -127t-130 -45q-83 0 -131.5 47t-48.5 125zM102 524v285h1010v-285h-1010z" />
    <glyph glyph-name="oslash" unicode="&#xf8;" horiz-adv-x="1445" 
d="M82 563q0 299 157 446.5t482 147.5q182 0 303 -39l125 162l141 -106l-104 -136q178 -137 178 -475q0 -303 -150.5 -447.5t-492.5 -144.5q-200 0 -330 43l-131 -168l-139 107l117 149q-156 137 -156 461zM942 563q0 87 -12 146l-316 -406q39 -16 107 -16q126 0 173.5 59.5
t47.5 204.5v12zM504 563v-10q0 -55 6 -98l293 379q-37 6 -82 6q-130 0 -173.5 -61.5t-43.5 -215.5z" />
    <glyph glyph-name="ugrave" unicode="&#xf9;" horiz-adv-x="1445" 
d="M913 0l-10 158q-60 -96 -149.5 -138.5t-231.5 -42.5q-210 0 -304.5 104t-94.5 329v716h407v-624q0 -103 41.5 -146t143.5 -43q96 0 142 46.5t46 146.5v620h408v-1126h-398zM901 1280h-287l-409 348h471z" />
    <glyph glyph-name="uacute" unicode="&#xfa;" horiz-adv-x="1445" 
d="M913 0l-10 158q-60 -96 -149.5 -138.5t-231.5 -42.5q-210 0 -304.5 104t-94.5 329v716h407v-624q0 -103 41.5 -146t143.5 -43q96 0 142 46.5t46 146.5v620h408v-1126h-398zM553 1280l225 348h471l-409 -348h-287z" />
    <glyph glyph-name="ucircumflex" unicode="&#xfb;" horiz-adv-x="1445" 
d="M913 0l-10 158q-60 -96 -149.5 -138.5t-231.5 -42.5q-210 0 -304.5 104t-94.5 329v716h407v-624q0 -103 41.5 -146t143.5 -43q96 0 142 46.5t46 146.5v620h408v-1126h-398zM272 1280l258 348h385l259 -348h-291l-158 174l-160 -174h-293z" />
    <glyph glyph-name="udieresis" unicode="&#xfc;" horiz-adv-x="1445" 
d="M913 0l-10 158q-60 -96 -149.5 -138.5t-231.5 -42.5q-210 0 -304.5 104t-94.5 329v716h407v-624q0 -103 41.5 -146t143.5 -43q96 0 142 46.5t46 146.5v620h408v-1126h-398zM236 1454q0 193 217 193t217 -193q0 -192 -217 -192t-217 192zM764 1454q0 193 217 193t217 -193
q0 -192 -217 -192t-217 192z" />
    <glyph glyph-name="yacute" unicode="&#xfd;" horiz-adv-x="1306" 
d="M430 -55q78 0 86 51l-496 1130h459l221 -645l170 645h416l-375 -1101q-80 -236 -171.5 -325t-258.5 -89q-55 0 -118.5 9.5t-98.5 23.5l4 344q84 -43 162 -43zM489 1280l226 348h471l-410 -348h-287z" />
    <glyph glyph-name="thorn" unicode="&#xfe;" horiz-adv-x="1499" 
d="M133 -369v1946h408v-608q118 182 383 182q266 0 379.5 -134t113.5 -444q0 -304 -120 -450t-398 -146q-239 0 -358 158v-504h-408zM541 553q0 -129 51.5 -192.5t175.5 -63.5t171.5 64.5t47.5 213.5q0 136 -51 196t-172 60q-119 0 -171 -62.5t-52 -193.5v-22z" />
    <glyph glyph-name="ydieresis" unicode="&#xff;" horiz-adv-x="1306" 
d="M430 -55q78 0 86 51l-496 1130h459l221 -645l170 645h416l-375 -1101q-80 -236 -171.5 -325t-258.5 -89q-55 0 -118.5 9.5t-98.5 23.5l4 344q84 -43 162 -43zM172 1454q0 193 217 193t217 -193q0 -192 -217 -192t-217 192zM700 1454q0 193 218 193q217 0 217 -193
q0 -192 -217 -192q-218 0 -218 192z" />
    <glyph glyph-name="Amacron" unicode="&#x100;" horiz-adv-x="1478" 
d="M1053 0l-80 258h-477l-80 -258h-408l481 1434h506l475 -1434h-417zM733 1028l-135 -434h270zM360 1602v237h758v-237h-758z" />
    <glyph glyph-name="amacron" unicode="&#x101;" horiz-adv-x="1327" 
d="M842 0l-15 162q-37 -71 -136.5 -128t-258.5 -57q-103 0 -178.5 27.5t-118.5 77t-62.5 111t-19.5 137.5q0 179 128 257t399 75l217 -3v37q0 69 -48 102t-174 33q-116 0 -229 -38.5t-180 -92.5v375q81 35 208.5 58.5t278.5 23.5q162 0 267 -23t170 -77t91.5 -135.5
t26.5 -206.5v-715h-366zM467 369q0 -97 133 -97q197 0 197 146v43h-152q-100 0 -139 -19.5t-39 -72.5zM295 1337v234h737v-234h-737z" />
    <glyph glyph-name="Abreve" unicode="&#x102;" horiz-adv-x="1478" 
d="M1053 0l-80 258h-477l-80 -258h-408l481 1434h506l475 -1434h-417zM733 1028l-135 -434h270zM350 1847l221 58q43 -140 168 -140t168 140l221 -58q-57 -311 -389 -311t-389 311z" />
    <glyph glyph-name="abreve" unicode="&#x103;" horiz-adv-x="1327" 
d="M842 0l-15 162q-37 -71 -136.5 -128t-258.5 -57q-103 0 -178.5 27.5t-118.5 77t-62.5 111t-19.5 137.5q0 179 128 257t399 75l217 -3v37q0 69 -48 102t-174 33q-116 0 -229 -38.5t-180 -92.5v375q81 35 208.5 58.5t278.5 23.5q162 0 267 -23t170 -77t91.5 -135.5
t26.5 -206.5v-715h-366zM467 369q0 -97 133 -97q197 0 197 146v43h-152q-100 0 -139 -19.5t-39 -72.5zM274 1581l218 57q22 -73 68 -108t104 -35t104 35t68 108l217 -57q-57 -311 -389 -311q-333 0 -390 311z" />
    <glyph glyph-name="Aogonek" unicode="&#x104;" horiz-adv-x="1478" 
d="M1053 0l-80 258h-477l-80 -258h-408l481 1434h506l475 -1434h-96q-99 -60 -142.5 -117.5t-43.5 -134.5q0 -59 36 -87t93 -28q63 0 131 37v-170q-106 -45 -217 -45q-73 0 -129 15t-89 38t-54 55t-28 61t-7 61q0 97 68.5 177.5t178.5 137.5h-118zM733 1028l-135 -434h270z
" />
    <glyph glyph-name="aogonek" unicode="&#x105;" horiz-adv-x="1327" 
d="M842 0l-15 162q-37 -71 -136.5 -128t-258.5 -57q-103 0 -178.5 27.5t-118.5 77t-62.5 111t-19.5 137.5q0 179 128 257t399 75l217 -3v37q0 69 -48 102t-174 33q-116 0 -229 -38.5t-180 -92.5v375q81 35 208.5 58.5t278.5 23.5q162 0 267 -23t170 -77t91.5 -135.5
t26.5 -206.5v-715h-73q-94 -57 -136.5 -113t-42.5 -129q0 -55 35 -82.5t90 -27.5q68 0 129 35v-162q-101 -45 -211 -45q-71 0 -125.5 14.5t-87 37t-53 53.5t-28 59.5t-7.5 58.5q0 94 65.5 172t168.5 129h-90zM467 369q0 -97 133 -97q197 0 197 146v43h-152
q-100 0 -139 -19.5t-39 -72.5z" />
    <glyph glyph-name="Cacute" unicode="&#x106;" horiz-adv-x="1341" 
d="M1237 1403v-414q-104 55 -158 72q-98 31 -221 31q-178 0 -257 -84.5t-79 -290.5q0 -210 80.5 -292.5t271.5 -82.5q222 0 365 107v-408q-161 -74 -403 -74q-204 0 -348 44.5t-233.5 137t-131 227t-41.5 322.5q0 197 41.5 338.5t132 238.5t236 144t352.5 47
q90 0 179.5 -13.5t121.5 -22.5t92 -27zM616 1526l242 389h475l-426 -389h-291z" />
    <glyph glyph-name="cacute" unicode="&#x107;" horiz-adv-x="1247" 
d="M1133 1085v-364q-71 49 -147.5 75.5t-188.5 26.5q-157 0 -225 -57.5t-68 -190.5q0 -92 27 -149t98.5 -89t193.5 -32q92 0 183 26t139 62v-342q-175 -80 -400 -80q-244 0 -389.5 64t-209.5 194t-64 344q0 295 155.5 439.5t491.5 144.5q237 0 404 -72zM563 1280l225 348
h472l-410 -348h-287z" />
    <glyph glyph-name="Ccircumflex" unicode="&#x108;" horiz-adv-x="1341" 
d="M1237 1403v-414q-104 55 -158 72q-98 31 -221 31q-178 0 -257 -84.5t-79 -290.5q0 -210 80.5 -292.5t271.5 -82.5q222 0 365 107v-408q-161 -74 -403 -74q-204 0 -348 44.5t-233.5 137t-131 227t-41.5 322.5q0 197 41.5 338.5t132 238.5t236 144t352.5 47
q90 0 179.5 -13.5t121.5 -22.5t92 -27zM303 1536l277 369h393l272 -369h-293l-176 199l-178 -199h-295z" />
    <glyph glyph-name="ccircumflex" unicode="&#x109;" horiz-adv-x="1247" 
d="M1133 1085v-364q-71 49 -147.5 75.5t-188.5 26.5q-157 0 -225 -57.5t-68 -190.5q0 -92 27 -149t98.5 -89t193.5 -32q92 0 183 26t139 62v-342q-175 -80 -400 -80q-244 0 -389.5 64t-209.5 194t-64 344q0 295 155.5 439.5t491.5 144.5q237 0 404 -72zM276 1280l259 348
h385l258 -348h-291l-158 174l-160 -174h-293z" />
    <glyph glyph-name="Cdotaccent" unicode="&#x10a;" horiz-adv-x="1341" 
d="M1237 1403v-414q-104 55 -158 72q-98 31 -221 31q-178 0 -257 -84.5t-79 -290.5q0 -210 80.5 -292.5t271.5 -82.5q222 0 365 107v-408q-161 -74 -403 -74q-204 0 -348 44.5t-233.5 137t-131 227t-41.5 322.5q0 197 41.5 338.5t132 238.5t236 144t352.5 47
q90 0 179.5 -13.5t121.5 -22.5t92 -27zM553 1720q0 205 229 205q230 0 230 -205q0 -204 -230 -204q-229 0 -229 204z" />
    <glyph glyph-name="cdotaccent" unicode="&#x10b;" horiz-adv-x="1247" 
d="M1133 1085v-364q-71 49 -147.5 75.5t-188.5 26.5q-157 0 -225 -57.5t-68 -190.5q0 -92 27 -149t98.5 -89t193.5 -32q92 0 183 26t139 62v-342q-175 -80 -400 -80q-244 0 -389.5 64t-209.5 194t-64 344q0 295 155.5 439.5t491.5 144.5q237 0 404 -72zM502 1454
q0 201 225 201t225 -201t-225 -201t-225 201z" />
    <glyph glyph-name="Ccaron" unicode="&#x10c;" horiz-adv-x="1341" 
d="M1237 1403v-414q-104 55 -158 72q-98 31 -221 31q-178 0 -257 -84.5t-79 -290.5q0 -210 80.5 -292.5t271.5 -82.5q222 0 365 107v-408q-161 -74 -403 -74q-204 0 -348 44.5t-233.5 137t-131 227t-41.5 322.5q0 197 41.5 338.5t132 238.5t236 144t352.5 47
q90 0 179.5 -13.5t121.5 -22.5t92 -27zM588 1536l-277 369h295l178 -197l177 197h292l-272 -369h-393z" />
    <glyph glyph-name="ccaron" unicode="&#x10d;" horiz-adv-x="1247" 
d="M1133 1085v-364q-71 49 -147.5 75.5t-188.5 26.5q-157 0 -225 -57.5t-68 -190.5q0 -92 27 -149t98.5 -89t193.5 -32q92 0 183 26t139 62v-342q-175 -80 -400 -80q-244 0 -389.5 64t-209.5 194t-64 344q0 295 155.5 439.5t491.5 144.5q237 0 404 -72zM537 1280l-261 348
h293l158 -174l160 174h291l-256 -348h-385z" />
    <glyph glyph-name="Dcaron" unicode="&#x10e;" horiz-adv-x="1552" 
d="M164 0v1434q219 10 532 10q149 0 266.5 -21t202 -63.5t144 -101t95 -139t51 -172t15.5 -204.5q0 -379 -191.5 -566t-612.5 -187q-293 0 -502 10zM578 348q47 -4 118 -4q184 0 267.5 93.5t83.5 291.5q0 187 -80 274t-256 87q-69 0 -133 -5v-737zM582 1536l-277 369h295
l178 -197l176 197h293l-272 -369h-393z" />
    <glyph glyph-name="dcaron" unicode="&#x10f;" horiz-adv-x="1847" 
d="M979 0l-10 166q-52 -92 -142 -140.5t-254 -48.5q-254 0 -372.5 139t-118.5 429q0 301 122.5 453.5t393.5 152.5q147 0 230.5 -38.5t129.5 -108.5v573h408v-1577h-387zM735 297q119 0 171 59t52 172v68q0 118 -51 176.5t-168 58.5q-127 0 -178 -62t-51 -216
q0 -78 15.5 -130t47 -79t69.5 -37t93 -10zM1468 1147l95 430h356l-197 -430h-254z" />
    <glyph glyph-name="Dcroat" unicode="&#x110;" horiz-adv-x="1579" 
d="M33 573v310h131v551q219 10 532 10q149 0 266.5 -21t202 -63.5t144 -101t95 -139t51 -172t15.5 -204.5q0 -379 -191.5 -566t-612.5 -187q-293 0 -502 10v573h-131zM578 348q47 -4 118 -4q184 0 267.5 93.5t83.5 291.5q0 187 -80 274t-256 87q-69 0 -133 -5v-202h292v-310
h-292v-225z" />
    <glyph glyph-name="dcroat" unicode="&#x111;" horiz-adv-x="1525" 
d="M979 0l-10 166q-52 -92 -142 -140.5t-254 -48.5q-254 0 -372.5 139t-118.5 429q0 301 122.5 453.5t393.5 152.5q147 0 230.5 -38.5t129.5 -108.5v256h-499v215h499v102h408v-102h160v-215h-160v-1260h-387zM735 297q119 0 171 59t52 172v68q0 118 -51 176.5t-168 58.5
q-127 0 -178 -62t-51 -216q0 -78 15.5 -130t47 -79t69.5 -37t93 -10z" />
    <glyph glyph-name="Emacron" unicode="&#x112;" 
d="M164 0v1434h1065v-357h-651v-190h561v-326h-561v-205h651v-356h-1065zM317 1602v237h758v-237h-758z" />
    <glyph glyph-name="emacron" unicode="&#x113;" horiz-adv-x="1374" 
d="M1303 475h-809q7 -104 76 -149t216 -45q128 0 253.5 36t189.5 89v-332q-47 -40 -187 -71.5t-323 -31.5q-178 0 -302 38.5t-197.5 118.5t-105.5 190.5t-32 265.5q0 290 162 431.5t467 141.5q132 0 233 -24.5t168.5 -69t110.5 -111.5t61.5 -148t18.5 -183v-146zM702 864
q-103 0 -152.5 -45t-57.5 -137h405q2 88 -42 135t-153 47zM340 1337v234h737v-234h-737z" />
    <glyph glyph-name="Edotaccent" unicode="&#x116;" 
d="M164 0v1434h1065v-357h-651v-190h561v-326h-561v-205h651v-356h-1065zM467 1720q0 205 229 205q230 0 230 -205q0 -204 -230 -204q-229 0 -229 204z" />
    <glyph glyph-name="edotaccent" unicode="&#x117;" horiz-adv-x="1374" 
d="M1303 475h-809q7 -104 76 -149t216 -45q128 0 253.5 36t189.5 89v-332q-47 -40 -187 -71.5t-323 -31.5q-178 0 -302 38.5t-197.5 118.5t-105.5 190.5t-32 265.5q0 290 162 431.5t467 141.5q132 0 233 -24.5t168.5 -69t110.5 -111.5t61.5 -148t18.5 -183v-146zM702 864
q-103 0 -152.5 -45t-57.5 -137h405q2 88 -42 135t-153 47zM487 1454q0 201 226 201q225 0 225 -201t-225 -201q-226 0 -226 201z" />
    <glyph glyph-name="Eogonek" unicode="&#x118;" 
d="M164 0v1434h1065v-357h-651v-190h561v-326h-561v-205h651v-356h-92q-99 -60 -143 -118t-44 -134q0 -59 36 -87t93 -28q63 0 131 37v-170q-106 -45 -217 -45q-73 0 -129 15t-89 38t-54 55t-28 61t-7 61q0 97 68.5 177.5t179.5 137.5h-770z" />
    <glyph glyph-name="eogonek" unicode="&#x119;" horiz-adv-x="1374" 
d="M1051 -317v-162q-101 -45 -211 -45q-71 0 -125.5 14.5t-87 37t-53 53.5t-28 59.5t-7.5 58.5q0 82 50.5 151.5t133.5 120.5h-4q-178 0 -302 38.5t-197.5 118.5t-105.5 190.5t-32 265.5q0 290 162 431.5t467 141.5q132 0 233 -24.5t168.5 -69t110.5 -111.5t61.5 -148
t18.5 -183v-146h-809q7 -104 76 -149t216 -45q128 0 253.5 36t189.5 89v-332q-70 -59 -275 -86q-82 -51 -119.5 -105.5t-37.5 -124.5q0 -55 35 -82.5t90 -27.5q68 0 129 35zM702 864q-103 0 -152.5 -45t-57.5 -137h405q2 88 -42 135t-153 47z" />
    <glyph glyph-name="Ecaron" unicode="&#x11a;" 
d="M164 0v1434h1065v-357h-651v-190h561v-326h-561v-205h651v-356h-1065zM492 1536l-277 369h295l178 -197l176 197h293l-272 -369h-393z" />
    <glyph glyph-name="ecaron" unicode="&#x11b;" horiz-adv-x="1374" 
d="M1303 475h-809q7 -104 76 -149t216 -45q128 0 253.5 36t189.5 89v-332q-47 -40 -187 -71.5t-323 -31.5q-178 0 -302 38.5t-197.5 118.5t-105.5 190.5t-32 265.5q0 290 162 431.5t467 141.5q132 0 233 -24.5t168.5 -69t110.5 -111.5t61.5 -148t18.5 -183v-146zM702 864
q-103 0 -152.5 -45t-57.5 -137h405q2 88 -42 135t-153 47zM518 1280l-260 348h293l158 -174l159 174h291l-256 -348h-385z" />
    <glyph glyph-name="Gcircumflex" unicode="&#x11c;" horiz-adv-x="1476" 
d="M788 530v326h586v-764q-89 -50 -242 -87.5t-329 -37.5q-374 0 -547.5 176t-173.5 555q0 160 24.5 280t80 214.5t145.5 153.5t220 89.5t304 30.5q267 0 426 -65v-385q-159 96 -385 96q-220 0 -305.5 -90.5t-85.5 -304.5q0 -206 79 -300.5t255 -94.5q84 0 178 24v184h-230z
M268 1536l277 369h393l272 -369h-292l-177 199l-178 -199h-295z" />
    <glyph glyph-name="gcircumflex" unicode="&#x11d;" horiz-adv-x="1501" 
d="M207 -324v363q166 -90 471 -90q84 0 140 14.5t86 43.5t42 65t12 88v61q-114 -141 -376 -141q-258 0 -379 117.5t-121 388.5q0 296 118 430.5t384 134.5q114 0 195.5 -26.5t122 -63t67.5 -88.5l10 153h387v-942q0 -133 -27 -229t-79.5 -162t-139 -105t-197 -56t-261.5 -17
q-128 0 -255 18.5t-200 42.5zM733 397q120 0 172.5 47t52.5 164v19q0 115 -51 159.5t-178 44.5q-120 0 -169.5 -47.5t-49.5 -169.5q0 -120 53.5 -168.5t169.5 -48.5zM301 1280l258 348h385l258 -348h-291l-157 174l-160 -174h-293z" />
    <glyph glyph-name="Gbreve" unicode="&#x11e;" horiz-adv-x="1476" 
d="M788 530v326h586v-764q-89 -50 -242 -87.5t-329 -37.5q-374 0 -547.5 176t-173.5 555q0 160 24.5 280t80 214.5t145.5 153.5t220 89.5t304 30.5q267 0 426 -65v-385q-159 96 -385 96q-220 0 -305.5 -90.5t-85.5 -304.5q0 -206 79 -300.5t255 -94.5q84 0 178 24v184h-230z
M399 1847l222 58q43 -140 167 -140q125 0 168 140l222 -58q-57 -311 -390 -311q-332 0 -389 311z" />
    <glyph glyph-name="gbreve" unicode="&#x11f;" horiz-adv-x="1501" 
d="M207 -324v363q166 -90 471 -90q84 0 140 14.5t86 43.5t42 65t12 88v61q-114 -141 -376 -141q-258 0 -379 117.5t-121 388.5q0 296 118 430.5t384 134.5q114 0 195.5 -26.5t122 -63t67.5 -88.5l10 153h387v-942q0 -133 -27 -229t-79.5 -162t-139 -105t-197 -56t-261.5 -17
q-128 0 -255 18.5t-200 42.5zM733 397q120 0 172.5 47t52.5 164v19q0 115 -51 159.5t-178 44.5q-120 0 -169.5 -47.5t-49.5 -169.5q0 -120 53.5 -168.5t169.5 -48.5zM334 1581l217 57q22 -73 68 -108t104 -35t104 35t68 108l217 -57q-57 -311 -389 -311t-389 311z" />
    <glyph glyph-name="Gdotaccent" unicode="&#x120;" horiz-adv-x="1476" 
d="M788 530v326h586v-764q-89 -50 -242 -87.5t-329 -37.5q-374 0 -547.5 176t-173.5 555q0 160 24.5 280t80 214.5t145.5 153.5t220 89.5t304 30.5q267 0 426 -65v-385q-159 96 -385 96q-220 0 -305.5 -90.5t-85.5 -304.5q0 -206 79 -300.5t255 -94.5q84 0 178 24v184h-230z
M510 1720q0 205 229 205q230 0 230 -205q0 -204 -230 -204q-229 0 -229 204z" />
    <glyph glyph-name="gdotaccent" unicode="&#x121;" horiz-adv-x="1501" 
d="M207 -324v363q166 -90 471 -90q84 0 140 14.5t86 43.5t42 65t12 88v61q-114 -141 -376 -141q-258 0 -379 117.5t-121 388.5q0 296 118 430.5t384 134.5q114 0 195.5 -26.5t122 -63t67.5 -88.5l10 153h387v-942q0 -133 -27 -229t-79.5 -162t-139 -105t-197 -56t-261.5 -17
q-128 0 -255 18.5t-200 42.5zM733 397q120 0 172.5 47t52.5 164v19q0 115 -51 159.5t-178 44.5q-120 0 -169.5 -47.5t-49.5 -169.5q0 -120 53.5 -168.5t169.5 -48.5zM526 1454q0 201 226 201q225 0 225 -201t-225 -201q-226 0 -226 201z" />
    <glyph glyph-name="Gcommaaccent" unicode="&#x122;" horiz-adv-x="1476" 
d="M788 530v326h586v-764q-89 -50 -242 -87.5t-329 -37.5q-374 0 -547.5 176t-173.5 555q0 160 24.5 280t80 214.5t145.5 153.5t220 89.5t304 30.5q267 0 426 -65v-385q-159 96 -385 96q-220 0 -305.5 -90.5t-85.5 -304.5q0 -206 79 -300.5t255 -94.5q84 0 178 24v184h-230z
M567 -412q20 -2 60 -2q128 0 145 74q-250 0 -250 121q0 60 59.5 94.5t155.5 34.5q107 0 172.5 -51t65.5 -148q0 -116 -93 -186t-239 -70q-49 0 -76 4v129z" />
    <glyph glyph-name="gcommaaccent" unicode="&#x123;" horiz-adv-x="1501" 
d="M207 -324v363q166 -90 471 -90q84 0 140 14.5t86 43.5t42 65t12 88v61q-114 -141 -376 -141q-258 0 -379 117.5t-121 388.5q0 296 118 430.5t384 134.5q114 0 195.5 -26.5t122 -63t67.5 -88.5l10 153h387v-942q0 -133 -27 -229t-79.5 -162t-139 -105t-197 -56t-261.5 -17
q-128 0 -255 18.5t-200 42.5zM733 397q120 0 172.5 47t52.5 164v19q0 115 -51 159.5t-178 44.5q-120 0 -169.5 -47.5t-49.5 -169.5q0 -120 53.5 -168.5t169.5 -48.5zM860 1544q-20 2 -55 2q-53 0 -87.5 -21t-43.5 -57q227 0 227 -114q0 -56 -54 -88.5t-142 -32.5
q-97 0 -156.5 48t-59.5 138q0 108 85.5 178t216.5 70q33 0 69 -4v-119z" />
    <glyph glyph-name="Hcircumflex" unicode="&#x124;" horiz-adv-x="1656" 
d="M164 0v1434h414v-529h501v529h414v-1434h-414v551h-501v-551h-414zM356 1536l277 369h393l272 -369h-292l-177 199l-178 -199h-295z" />
    <glyph glyph-name="hcircumflex" unicode="&#x125;" horiz-adv-x="1441" 
d="M133 0v1577h408v-606q91 180 381 180q214 0 307.5 -103.5t93.5 -326.5v-721h-408v621q0 108 -40.5 152t-141.5 44q-110 0 -151 -50t-41 -161v-606h-408zM-117 1649l258 348h385l258 -348h-290l-158 174l-160 -174h-293z" />
    <glyph glyph-name="Hbar" unicode="&#x126;" horiz-adv-x="1656" 
d="M164 0v1026h-121v250h121v158h414v-158h501v158h414v-158h121v-250h-121v-1026h-414v551h-501v-551h-414zM578 905h501v121h-501v-121z" />
    <glyph glyph-name="hbar" unicode="&#x127;" horiz-adv-x="1441" 
d="M133 0v1260h-160v215h160v102h408v-102h499v-215h-499v-330q91 180 381 180q214 0 307.5 -103.5t93.5 -326.5v-680h-408v580q0 108 -40.5 152t-141.5 44q-110 0 -151 -50t-41 -161v-565h-408z" />
    <glyph glyph-name="Imacron" unicode="&#x12a;" horiz-adv-x="741" 
d="M164 0v1434h414v-1434h-414zM-8 1602v237h758v-237h-758z" />
    <glyph glyph-name="imacron" unicode="&#x12b;" horiz-adv-x="677" 
d="M133 0v1126h410v-1126h-410zM-31 1337v234h738v-234h-738z" />
    <glyph glyph-name="Iogonek" unicode="&#x12e;" horiz-adv-x="741" 
d="M164 0v1434h414v-1434h-125q-99 -60 -143 -118t-44 -134q0 -59 36 -87t93 -28q63 0 131 37v-170q-106 -45 -217 -45q-73 0 -129 15t-89 38t-54 55t-28 61t-7 61q0 97 68.5 177.5t179.5 137.5h-86z" />
    <glyph glyph-name="iogonek" unicode="&#x12f;" horiz-adv-x="677" 
d="M133 0v1126h410v-1126h-121q-93 -57 -135.5 -113t-42.5 -129q0 -55 35 -82.5t90 -27.5q68 0 129 35v-162q-101 -45 -211 -45q-71 0 -125.5 14.5t-87 37t-53 53.5t-28 59.5t-7.5 58.5q0 94 65 172t168 129h-86zM113 1454q0 93 53 138.5t172 45.5t172 -45.5t53 -138.5
t-53 -138.5t-172 -45.5t-172 45.5t-53 138.5z" />
    <glyph glyph-name="Idotaccent" unicode="&#x130;" horiz-adv-x="741" 
d="M164 0v1434h414v-1434h-414zM141 1720q0 205 230 205q229 0 229 -205q0 -204 -229 -204q-230 0 -230 204z" />
    <glyph glyph-name="dotlessi" unicode="&#x131;" horiz-adv-x="677" 
d="M133 0v1126h410v-1126h-410z" />
    <glyph glyph-name="Jcircumflex" unicode="&#x134;" horiz-adv-x="1017" 
d="M440 567v867h414v-928q0 -147 -25.5 -244.5t-86.5 -161.5t-157.5 -92t-242.5 -28q-159 0 -281 32v394q35 -27 92.5 -46.5t112.5 -19.5q64 0 100 17.5t55 67.5t19 142zM176 1536l277 369h393l272 -369h-293l-176 199l-178 -199h-295z" />
    <glyph glyph-name="jcircumflex" unicode="&#x135;" horiz-adv-x="698" 
d="M154 12v1114h409v-1151q0 -108 -24 -179.5t-74.5 -110.5t-114.5 -54.5t-157 -15.5q-147 0 -222 29v315q38 -10 92 -10q50 0 70.5 14t20.5 49zM-100 1280l258 348h385l258 -348h-291l-158 174l-159 -174h-293z" />
    <glyph glyph-name="Kcommaaccent" unicode="&#x136;" horiz-adv-x="1507" 
d="M164 0v1434h414v-539h110l299 539h471l-420 -670l453 -764h-485l-316 559h-112v-559h-414zM582 -412q20 -2 59 -2q128 0 145 74q-249 0 -249 121q0 60 59.5 94.5t155.5 34.5q107 0 172 -51t65 -148q0 -116 -93 -186t-239 -70q-48 0 -75 4v129z" />
    <glyph glyph-name="kcommaaccent" unicode="&#x137;" horiz-adv-x="1372" 
d="M133 1577h408v-815h98l227 364h455l-358 -530l385 -596h-459l-248 412h-100v-412h-408v1577zM528 -401q20 -2 56 -2q53 0 87.5 20.5t43.5 56.5q-228 0 -228 115q0 56 54.5 88.5t142.5 32.5q97 0 156 -48t59 -138q0 -108 -85 -178t-216 -70q-34 0 -70 4v119z" />
    <glyph glyph-name="Lacute" unicode="&#x139;" horiz-adv-x="1210" 
d="M164 0v1434h414v-1053h591v-381h-1005zM225 1526l242 389h475l-426 -389h-291z" />
    <glyph glyph-name="lacute" unicode="&#x13a;" horiz-adv-x="792" 
d="M541 391q0 -44 18.5 -61t61.5 -17q19 0 102 15v-320q-72 -28 -205 -28q-99 0 -166 15.5t-118.5 54.5t-76 110.5t-24.5 179.5v1237h408v-1186zM193 1659l225 348h471l-410 -348h-286z" />
    <glyph glyph-name="Lcommaaccent" unicode="&#x13b;" horiz-adv-x="1210" 
d="M164 0v1434h414v-1053h591v-381h-1005zM496 -412q20 -2 59 -2q128 0 145 74q-249 0 -249 121q0 60 59.5 94.5t155.5 34.5q107 0 172 -51t65 -148q0 -116 -93 -186t-239 -70q-48 0 -75 4v129z" />
    <glyph glyph-name="lcommaaccent" unicode="&#x13c;" horiz-adv-x="792" 
d="M541 391q0 -44 18.5 -61t61.5 -17q19 0 102 15v-320q-72 -28 -205 -28q-99 0 -166 15.5t-118.5 54.5t-76 110.5t-24.5 179.5v1237h408v-1186zM301 -401q20 -2 55 -2q53 0 87.5 20.5t43.5 56.5q-227 0 -227 115q0 56 54.5 88.5t142.5 32.5q97 0 156 -48t59 -138
q0 -108 -85 -178t-216 -70q-34 0 -70 4v119z" />
    <glyph glyph-name="Lcaron" unicode="&#x13d;" horiz-adv-x="1210" 
d="M164 0v1434h414v-1053h591v-381h-1005zM721 1004l94 430h356l-196 -430h-254z" />
    <glyph glyph-name="lcaron" unicode="&#x13e;" horiz-adv-x="894" 
d="M541 391q0 -44 18.5 -61t61.5 -17q19 0 102 15v-320q-72 -28 -205 -28q-99 0 -166 15.5t-118.5 54.5t-76 110.5t-24.5 179.5v1237h408v-1186zM643 1147l94 430h357l-197 -430h-254z" />
    <glyph glyph-name="Ldot" unicode="&#x13f;" horiz-adv-x="1210" 
d="M164 0v1434h414v-1053h591v-381h-1005zM743 782q0 97 57 153t158 56q100 0 159 -57t59 -152q0 -100 -57 -156.5t-161 -56.5q-99 0 -157 58t-58 155z" />
    <glyph glyph-name="ldot" unicode="&#x140;" horiz-adv-x="1110" 
d="M541 391q0 -44 18.5 -61t61.5 -17q19 0 102 15v-320q-72 -28 -205 -28q-99 0 -166 15.5t-118.5 54.5t-76 110.5t-24.5 179.5v1237h408v-1186zM664 811q0 105 62.5 166t172.5 61t175 -62t65 -165q0 -107 -62 -168t-178 -61q-108 0 -171.5 62t-63.5 167z" />
    <glyph glyph-name="Lslash" unicode="&#x141;" horiz-adv-x="1273" 
d="M227 0v479l-207 -125v250l207 125v705h414v-453l313 190v-247l-313 -193v-350h592v-381h-1006z" />
    <glyph glyph-name="lslash" unicode="&#x142;" horiz-adv-x="915" 
d="M623 391q0 -44 18 -61t61 -17q20 0 103 15v-320q-72 -28 -205 -28q-99 0 -166 15.5t-118.5 54.5t-76 110.5t-24.5 179.5v121l-174 -107v250l174 105v868h408v-621l217 134v-248l-217 -133v-318z" />
    <glyph glyph-name="Nacute" unicode="&#x143;" horiz-adv-x="1648" 
d="M164 0v1434h450l379 -652q22 -37 57 -114.5t44 -94.5q-9 158 -9 222v639h400v-1434h-430l-406 690q-21 35 -55.5 111t-38.5 84q8 -122 8 -201v-684h-399zM657 1526l242 389h475l-426 -389h-291z" />
    <glyph glyph-name="nacute" unicode="&#x144;" horiz-adv-x="1441" 
d="M133 0v1126h397l11 -155q88 180 360 180q422 0 422 -393v-758h-408v608q0 119 -41 164t-147 45q-105 0 -145.5 -48.5t-40.5 -160.5v-608h-408zM563 1280l225 348h472l-410 -348h-287z" />
    <glyph glyph-name="Ncommaaccent" unicode="&#x145;" horiz-adv-x="1648" 
d="M164 0v1434h450l379 -652q22 -37 57 -114.5t44 -94.5q-9 158 -9 222v639h400v-1434h-430l-406 690q-21 35 -55.5 111t-38.5 84q8 -122 8 -201v-684h-399zM653 -412q20 -2 60 -2q128 0 145 74q-250 0 -250 121q0 60 59.5 94.5t155.5 34.5q107 0 172.5 -51t65.5 -148
q0 -116 -93 -186t-239 -70q-49 0 -76 4v129z" />
    <glyph glyph-name="ncommaaccent" unicode="&#x146;" horiz-adv-x="1441" 
d="M133 0v1126h397l11 -155q88 180 360 180q422 0 422 -393v-758h-408v608q0 119 -41 164t-147 45q-105 0 -145.5 -48.5t-40.5 -160.5v-608h-408zM563 -401q20 -2 55 -2q53 0 88 20.5t44 56.5q-228 0 -228 115q0 56 54.5 88.5t142.5 32.5q97 0 156 -48t59 -138
q0 -108 -85 -178t-216 -70q-34 0 -70 4v119z" />
    <glyph glyph-name="Ncaron" unicode="&#x147;" horiz-adv-x="1648" 
d="M164 0v1434h450l379 -652q22 -37 57 -114.5t44 -94.5q-9 158 -9 222v639h400v-1434h-430l-406 690q-21 35 -55.5 111t-38.5 84q8 -122 8 -201v-684h-399zM629 1536l-277 369h295l178 -197l176 197h293l-272 -369h-393z" />
    <glyph glyph-name="ncaron" unicode="&#x148;" horiz-adv-x="1441" 
d="M133 0v1126h397l11 -155q88 180 360 180q422 0 422 -393v-758h-408v608q0 119 -41 164t-147 45q-105 0 -145.5 -48.5t-40.5 -160.5v-608h-408zM537 1280l-261 348h293l158 -174l160 174h291l-256 -348h-385z" />
    <glyph glyph-name="Omacron" unicode="&#x14c;" horiz-adv-x="1628" 
d="M82 717q0 393 176 571t551 178q207 0 347.5 -42.5t227.5 -135.5t124.5 -231t37.5 -340q0 -203 -45 -346.5t-137.5 -232.5t-226 -130t-318.5 -41q-378 0 -557.5 182.5t-179.5 567.5zM522 717q0 -119 19 -197.5t59.5 -121t93 -59.5t129.5 -17q75 0 125.5 18t87.5 62
t54.5 121.5t17.5 193.5q0 153 -32.5 240t-95.5 121t-171 34q-102 0 -162.5 -34.5t-92.5 -121.5t-32 -239zM434 1602v237h758v-237h-758z" />
    <glyph glyph-name="omacron" unicode="&#x14d;" horiz-adv-x="1445" 
d="M82 563q0 299 157 446.5t482 147.5q346 0 494.5 -143t148.5 -451q0 -303 -150.5 -447.5t-492.5 -144.5q-345 0 -492 138.5t-147 453.5zM504 563v-10q0 -143 46.5 -204.5t170.5 -61.5q126 0 173.5 59.5t47.5 204.5v12q0 80 -8 128t-32 84t-67.5 50.5t-113.5 14.5
q-130 0 -173.5 -61.5t-43.5 -215.5zM354 1337v234h738v-234h-738z" />
    <glyph glyph-name="Ohungarumlaut" unicode="&#x150;" horiz-adv-x="1628" 
d="M82 717q0 393 176 571t551 178q207 0 347.5 -42.5t227.5 -135.5t124.5 -231t37.5 -340q0 -203 -45 -346.5t-137.5 -232.5t-226 -130t-318.5 -41q-378 0 -557.5 182.5t-179.5 567.5zM522 717q0 -119 19 -197.5t59.5 -121t93 -59.5t129.5 -17q75 0 125.5 18t87.5 62
t54.5 121.5t17.5 193.5q0 153 -32.5 240t-95.5 121t-171 34q-102 0 -162.5 -34.5t-92.5 -121.5t-32 -239zM444 1536l82 369h373l-205 -369h-250zM850 1536l205 369h454l-368 -369h-291z" />
    <glyph glyph-name="ohungarumlaut" unicode="&#x151;" horiz-adv-x="1445" 
d="M82 563q0 299 157 446.5t482 147.5q346 0 494.5 -143t148.5 -451q0 -303 -150.5 -447.5t-492.5 -144.5q-345 0 -492 138.5t-147 453.5zM504 563v-10q0 -143 46.5 -204.5t170.5 -61.5q126 0 173.5 59.5t47.5 204.5v12q0 80 -8 128t-32 84t-67.5 50.5t-113.5 14.5
q-130 0 -173.5 -61.5t-43.5 -215.5zM354 1280l82 348h369l-205 -348h-246zM764 1280l205 348h450l-368 -348h-287z" />
    <glyph glyph-name="OE" unicode="&#x152;" horiz-adv-x="2007" 
d="M788 1466q121 0 256 -32h900v-357h-609v-190h518v-326h-518v-205h609v-356h-889q-139 -33 -256 -33q-378 0 -558 182.5t-180 567.5q0 393 176 571t551 178zM803 322q35 0 117 20v750q-58 20 -132 20q-101 0 -161.5 -34.5t-92.5 -121.5t-32 -239q0 -119 19 -197.5
t59.5 -121t93 -59.5t129.5 -17z" />
    <glyph glyph-name="oe" unicode="&#x153;" horiz-adv-x="2244" 
d="M82 563q0 299 157 446.5t482 147.5q295 0 444 -102q152 102 416 102q132 0 233 -24.5t168.5 -69t110.5 -111.5t61.5 -148t18.5 -183v-146h-809q7 -104 76.5 -149t216.5 -45q128 0 253 36t189 89v-332q-47 -40 -187 -71.5t-323 -31.5q-282 0 -432 101q-152 -101 -436 -101
q-345 0 -492 138.5t-147 453.5zM1573 864q-103 0 -153 -45t-58 -137h405q2 89 -41.5 135.5t-152.5 46.5zM504 563v-10q0 -143 46.5 -204.5t170.5 -61.5q126 0 173.5 59.5t47.5 204.5v12q0 80 -8 128t-32 84t-67.5 50.5t-113.5 14.5q-130 0 -173.5 -61.5t-43.5 -215.5z" />
    <glyph glyph-name="Racute" unicode="&#x154;" horiz-adv-x="1476" 
d="M578 0h-414v1434q82 1 189 4t188 4.5t164 1.5q149 0 258 -21t180.5 -60.5t115 -102.5t61 -139t17.5 -179q0 -190 -48 -298.5t-163 -166.5l289 -477h-444l-244 436h-149v-436zM567 762h148q115 0 156.5 36t41.5 124q0 86 -44 120.5t-167 34.5q-56 0 -135 -6v-309z
M530 1526l242 389h475l-426 -389h-291z" />
    <glyph glyph-name="racute" unicode="&#x155;" horiz-adv-x="1054" 
d="M133 0v1126h383l12 -182q46 112 121.5 159.5t190.5 47.5q41 0 135 -16v-400q-74 64 -215 64q-119 0 -169 -56.5t-50 -189.5v-553h-408zM389 1280l225 348h471l-409 -348h-287z" />
    <glyph glyph-name="Rcommaaccent" unicode="&#x156;" horiz-adv-x="1476" 
d="M578 0h-414v1434q82 1 189 4t188 4.5t164 1.5q149 0 258 -21t180.5 -60.5t115 -102.5t61 -139t17.5 -179q0 -190 -48 -298.5t-163 -166.5l289 -477h-444l-244 436h-149v-436zM567 762h148q115 0 156.5 36t41.5 124q0 86 -44 120.5t-167 34.5q-56 0 -135 -6v-309z
M567 -412q20 -2 60 -2q128 0 145 74q-250 0 -250 121q0 60 59.5 94.5t155.5 34.5q107 0 172.5 -51t65.5 -148q0 -116 -93 -186t-239 -70q-49 0 -76 4v129z" />
    <glyph glyph-name="rcommaaccent" unicode="&#x157;" horiz-adv-x="1054" 
d="M133 0v1126h383l12 -182q46 112 121.5 159.5t190.5 47.5q41 0 135 -16v-400q-74 64 -215 64q-119 0 -169 -56.5t-50 -189.5v-553h-408zM178 -401q20 -2 55 -2q53 0 88 20.5t44 56.5q-228 0 -228 115q0 56 54.5 88.5t142.5 32.5q97 0 156 -48t59 -138q0 -108 -85 -178
t-216 -70q-34 0 -70 4v119z" />
    <glyph glyph-name="Rcaron" unicode="&#x158;" horiz-adv-x="1476" 
d="M578 0h-414v1434q82 1 189 4t188 4.5t164 1.5q149 0 258 -21t180.5 -60.5t115 -102.5t61 -139t17.5 -179q0 -190 -48 -298.5t-163 -166.5l289 -477h-444l-244 436h-149v-436zM567 762h148q115 0 156.5 36t41.5 124q0 86 -44 120.5t-167 34.5q-56 0 -135 -6v-309z
M545 1536l-277 369h295l178 -197l177 197h292l-272 -369h-393z" />
    <glyph glyph-name="rcaron" unicode="&#x159;" horiz-adv-x="1054" 
d="M133 0v1126h383l12 -182q46 112 121.5 159.5t190.5 47.5q41 0 135 -16v-400q-74 64 -215 64q-119 0 -169 -56.5t-50 -189.5v-553h-408zM338 1280l-260 348h293l157 -174l160 174h291l-256 -348h-385z" />
    <glyph glyph-name="Sacute" unicode="&#x15a;" horiz-adv-x="1368" 
d="M819 406q0 28 -24 49t-64 36t-92.5 29t-110 33t-115 42.5t-110 62.5t-92.5 88.5t-64 124.5t-24 167q0 206 140 317t454 111q297 0 477 -69v-387q-93 55 -207 89t-229 34q-117 0 -167 -29.5t-50 -71.5q0 -27 25 -47t67.5 -35t98 -29.5t116.5 -33t121.5 -42.5t116 -61.5
t98 -85.5t67.5 -120t25 -160q0 -451 -633 -451q-146 0 -280.5 24.5t-221.5 63.5v394q110 -68 191 -98q135 -50 282 -50q102 0 153.5 30t51.5 75zM532 1526l242 389h475l-426 -389h-291z" />
    <glyph glyph-name="sacute" unicode="&#x15b;" horiz-adv-x="1187" 
d="M1026 1110v-340q-184 94 -371 94q-81 0 -108 -14.5t-27 -46.5q0 -26 32.5 -41.5t84 -26t114 -22t125 -35.5t114 -60.5t84 -103.5t32.5 -158q0 -76 -15 -133.5t-53 -106.5t-100.5 -80t-159.5 -48t-229 -17q-226 0 -416 62v352q76 -51 181 -86t225 -35q91 0 120 16t29 54
q0 26 -32.5 43t-84 28.5t-114 25t-125 39t-114 62.5t-84 103.5t-32.5 155.5q0 132 50 210.5t168.5 117t322.5 38.5q205 0 383 -47zM440 1280l226 348h471l-410 -348h-287z" />
    <glyph glyph-name="Scircumflex" unicode="&#x15c;" horiz-adv-x="1368" 
d="M819 406q0 28 -24 49t-64 36t-92.5 29t-110 33t-115 42.5t-110 62.5t-92.5 88.5t-64 124.5t-24 167q0 206 140 317t454 111q297 0 477 -69v-387q-93 55 -207 89t-229 34q-117 0 -167 -29.5t-50 -71.5q0 -27 25 -47t67.5 -35t98 -29.5t116.5 -33t121.5 -42.5t116 -61.5
t98 -85.5t67.5 -120t25 -160q0 -451 -633 -451q-146 0 -280.5 24.5t-221.5 63.5v394q110 -68 191 -98q135 -50 282 -50q102 0 153.5 30t51.5 75zM213 1536l276 369h394l272 -369h-293l-176 199l-178 -199h-295z" />
    <glyph glyph-name="scircumflex" unicode="&#x15d;" horiz-adv-x="1187" 
d="M1026 1110v-340q-184 94 -371 94q-81 0 -108 -14.5t-27 -46.5q0 -26 32.5 -41.5t84 -26t114 -22t125 -35.5t114 -60.5t84 -103.5t32.5 -158q0 -76 -15 -133.5t-53 -106.5t-100.5 -80t-159.5 -48t-229 -17q-226 0 -416 62v352q76 -51 181 -86t225 -35q91 0 120 16t29 54
q0 26 -32.5 43t-84 28.5t-114 25t-125 39t-114 62.5t-84 103.5t-32.5 155.5q0 132 50 210.5t168.5 117t322.5 38.5q205 0 383 -47zM143 1280l258 348h385l258 -348h-290l-158 174l-160 -174h-293z" />
    <glyph glyph-name="Scedilla" unicode="&#x15e;" horiz-adv-x="1368" 
d="M537 -236l36 205q-127 4 -241.5 27.5t-190.5 58.5v394q110 -68 191 -98q135 -50 282 -50q102 0 153.5 30t51.5 75q0 28 -24 49t-64 36t-92.5 29t-110 33t-115 42.5t-110 62.5t-92.5 88.5t-64 124.5t-24 167q0 206 140 317t454 111q297 0 477 -69v-387q-93 55 -207 89
t-229 34q-117 0 -167 -29.5t-50 -71.5q0 -27 25 -47t67.5 -35t98 -29.5t116.5 -33t121.5 -42.5t116 -61.5t98 -85.5t67.5 -120t25 -160q0 -401 -496 -445l-18 -79q48 0 90.5 -11.5t79.5 -34.5t58.5 -64t21.5 -95q0 -108 -91 -171t-233 -63q-145 0 -233 35l26 158
q61 -25 129 -25q129 0 129 74q0 29 -21 45t-48 20.5t-68 4.5q-35 0 -65 -3z" />
    <glyph glyph-name="scedilla" unicode="&#x15f;" horiz-adv-x="1187" 
d="M446 -215l37 188q-191 8 -350 60v352q76 -51 181 -86t225 -35q91 0 120 16t29 54q0 26 -32.5 43t-84 28.5t-114 25t-125 39t-114 62.5t-84 103.5t-32.5 155.5q0 132 50 210.5t168.5 117t322.5 38.5q205 0 383 -47v-340q-184 94 -371 94q-81 0 -108 -14.5t-27 -46.5
q0 -26 32.5 -41.5t84 -26t114 -22t125 -35.5t114 -60.5t84 -103.5t32.5 -158q0 -85 -19.5 -147t-66 -112.5t-130 -80t-206.5 -39.5l-22 -81q48 -1 89 -11.5t76.5 -32.5t55.5 -61t20 -92q0 -101 -82 -162t-217 -61q-142 0 -235 35l28 151q63 -24 123 -24q119 0 119 77
q0 72 -129 72q-44 0 -64 -2z" />
    <glyph glyph-name="Scaron" unicode="&#x160;" horiz-adv-x="1368" 
d="M819 406q0 28 -24 49t-64 36t-92.5 29t-110 33t-115 42.5t-110 62.5t-92.5 88.5t-64 124.5t-24 167q0 206 140 317t454 111q297 0 477 -69v-387q-93 55 -207 89t-229 34q-117 0 -167 -29.5t-50 -71.5q0 -27 25 -47t67.5 -35t98 -29.5t116.5 -33t121.5 -42.5t116 -61.5
t98 -85.5t67.5 -120t25 -160q0 -451 -633 -451q-146 0 -280.5 24.5t-221.5 63.5v394q110 -68 191 -98q135 -50 282 -50q102 0 153.5 30t51.5 75zM489 1536l-276 369h295l178 -197l176 197h293l-272 -369h-394z" />
    <glyph glyph-name="scaron" unicode="&#x161;" horiz-adv-x="1187" 
d="M1026 1110v-340q-184 94 -371 94q-81 0 -108 -14.5t-27 -46.5q0 -26 32.5 -41.5t84 -26t114 -22t125 -35.5t114 -60.5t84 -103.5t32.5 -158q0 -76 -15 -133.5t-53 -106.5t-100.5 -80t-159.5 -48t-229 -17q-226 0 -416 62v352q76 -51 181 -86t225 -35q91 0 120 16t29 54
q0 26 -32.5 43t-84 28.5t-114 25t-125 39t-114 62.5t-84 103.5t-32.5 155.5q0 132 50 210.5t168.5 117t322.5 38.5q205 0 383 -47zM403 1280l-260 348h293l158 -174l160 174h290l-256 -348h-385z" />
    <glyph glyph-name="Tcedilla" unicode="&#x162;" horiz-adv-x="1318" 
d="M453 0v1079h-392v355h1196v-355h-391v-1079h-104l-25 -106q48 0 90.5 -11.5t79.5 -34.5t58.5 -64t21.5 -95q0 -108 -91 -171t-232 -63q-146 0 -234 35l27 158q61 -25 129 -25q129 0 129 74q0 29 -21 45t-48 20.5t-68 4.5q-36 0 -66 -3l43 236h-102z" />
    <glyph glyph-name="tcedilla" unicode="&#x163;" horiz-adv-x="1083" 
d="M520 -215l39 201q-165 19 -234 111.5t-69 285.5v414h-195v329h195v162l408 131v-293h317v-329h-317v-326q0 -74 28.5 -107.5t98.5 -33.5q46 0 99.5 13.5t90.5 35.5v-346q-90 -39 -223 -49l-23 -88q66 -1 117.5 -18.5t88 -63t36.5 -115.5q0 -101 -82 -162t-217 -61
q-143 0 -236 35l29 151q63 -24 123 -24q119 0 119 77q0 72 -129 72q-44 0 -64 -2z" />
    <glyph glyph-name="Tcaron" unicode="&#x164;" horiz-adv-x="1318" 
d="M453 0v1079h-392v355h1196v-355h-391v-1079h-413zM465 1536l-277 369h295l179 -197l176 197h292l-272 -369h-393z" />
    <glyph glyph-name="tcaron" unicode="&#x165;" horiz-adv-x="1200" 
d="M256 383v414h-195v329h195v162l408 131v-293h317v-329h-317v-326q0 -74 28.5 -107.5t98.5 -33.5q46 0 99.5 13.5t90.5 35.5v-346q-125 -53 -313 -53q-227 0 -319.5 91.5t-92.5 311.5zM766 1229l94 430h357l-197 -430h-254z" />
    <glyph glyph-name="Umacron" unicode="&#x16a;" horiz-adv-x="1550" 
d="M154 596v838h415v-805q0 -181 40.5 -242t166.5 -61q68 0 107.5 13t62.5 51t30 91.5t7 147.5v805h414v-842q0 -142 -25.5 -247t-74 -176.5t-125.5 -115.5t-173 -63t-223 -19q-126 0 -220 17t-172.5 59.5t-127.5 113.5t-75.5 179t-26.5 256zM395 1602v237h758v-237h-758z
" />
    <glyph glyph-name="umacron" unicode="&#x16b;" horiz-adv-x="1445" 
d="M913 0l-10 158q-60 -96 -149.5 -138.5t-231.5 -42.5q-210 0 -304.5 104t-94.5 329v716h407v-624q0 -103 41.5 -146t143.5 -43q96 0 142 46.5t46 146.5v620h408v-1126h-398zM348 1337v234h737v-234h-737z" />
    <glyph glyph-name="Ubreve" unicode="&#x16c;" horiz-adv-x="1550" 
d="M154 596v838h415v-805q0 -181 40.5 -242t166.5 -61q68 0 107.5 13t62.5 51t30 91.5t7 147.5v805h414v-842q0 -142 -25.5 -247t-74 -176.5t-125.5 -115.5t-173 -63t-223 -19q-126 0 -220 17t-172.5 59.5t-127.5 113.5t-75.5 179t-26.5 256zM385 1847l221 58
q43 -140 168 -140t168 140l221 -58q-57 -311 -389 -311t-389 311z" />
    <glyph glyph-name="ubreve" unicode="&#x16d;" horiz-adv-x="1445" 
d="M913 0l-10 158q-60 -96 -149.5 -138.5t-231.5 -42.5q-210 0 -304.5 104t-94.5 329v716h407v-624q0 -103 41.5 -146t143.5 -43q96 0 142 46.5t46 146.5v620h408v-1126h-398zM328 1581l217 57q22 -73 68 -108t104 -35t104 35t68 108l217 -57q-57 -311 -389 -311t-389 311z
" />
    <glyph glyph-name="Uring" unicode="&#x16e;" horiz-adv-x="1550" 
d="M154 596v838h415v-805q0 -181 40.5 -242t166.5 -61q68 0 107.5 13t62.5 51t30 91.5t7 147.5v805h414v-842q0 -142 -25.5 -247t-74 -176.5t-125.5 -115.5t-173 -63t-223 -19q-126 0 -220 17t-172.5 59.5t-127.5 113.5t-75.5 179t-26.5 256zM492 1741q0 115 80 192.5
t202 77.5q121 0 202 -78t81 -192q0 -117 -80.5 -194t-202.5 -77q-123 0 -202.5 77t-79.5 194zM676 1741q0 -39 26 -62.5t72 -23.5t72 23.5t26 62.5t-26 62.5t-72 23.5t-72 -23.5t-26 -62.5z" />
    <glyph glyph-name="uring" unicode="&#x16f;" horiz-adv-x="1445" 
d="M913 0l-10 158q-60 -96 -149.5 -138.5t-231.5 -42.5q-210 0 -304.5 104t-94.5 329v716h407v-624q0 -103 41.5 -146t143.5 -43q96 0 142 46.5t46 146.5v620h408v-1126h-398zM438 1475q0 117 76.5 191.5t202.5 74.5t202 -74.5t76 -191.5q0 -119 -75.5 -193t-202.5 -74
t-203 74t-76 193zM618 1475q0 -86 99 -86q98 0 98 86t-98 86q-99 0 -99 -86z" />
    <glyph glyph-name="Uhungarumlaut" unicode="&#x170;" horiz-adv-x="1550" 
d="M154 596v838h415v-805q0 -181 40.5 -242t166.5 -61q68 0 107.5 13t62.5 51t30 91.5t7 147.5v805h414v-842q0 -142 -25.5 -247t-74 -176.5t-125.5 -115.5t-173 -63t-223 -19q-126 0 -220 17t-172.5 59.5t-127.5 113.5t-75.5 179t-26.5 256zM406 1536l81 369h373l-205 -369
h-249zM811 1536l205 369h454l-368 -369h-291z" />
    <glyph glyph-name="uhungarumlaut" unicode="&#x171;" horiz-adv-x="1445" 
d="M913 0l-10 158q-60 -96 -149.5 -138.5t-231.5 -42.5q-210 0 -304.5 104t-94.5 329v716h407v-624q0 -103 41.5 -146t143.5 -43q96 0 142 46.5t46 146.5v620h408v-1126h-398zM348 1280l82 348h369l-205 -348h-246zM758 1280l205 348h450l-369 -348h-286z" />
    <glyph glyph-name="Uogonek" unicode="&#x172;" horiz-adv-x="1550" 
d="M154 596v838h415v-805q0 -181 40.5 -242t166.5 -61q68 0 107.5 13t62.5 51t30 91.5t7 147.5v805h414v-842q0 -199 -51 -327.5t-146.5 -194t-247.5 -86.5q-83 -55 -120 -110t-37 -126q0 -59 36 -87t93 -28q63 0 131 37v-170q-106 -45 -217 -45q-61 0 -110.5 10t-82.5 28.5
t-56 40.5t-35.5 49t-18 51.5t-5.5 50.5q0 164 197 288q-146 4 -248 35t-177.5 101t-111.5 190t-36 297z" />
    <glyph glyph-name="uogonek" unicode="&#x173;" horiz-adv-x="1445" 
d="M913 0l-10 158q-60 -96 -149.5 -138.5t-231.5 -42.5q-210 0 -304.5 104t-94.5 329v716h407v-624q0 -103 41.5 -146t143.5 -43q96 0 142 46.5t46 146.5v620h408v-1126h-76q-93 -57 -135.5 -113t-42.5 -129q0 -55 35 -82.5t90 -27.5q68 0 129 35v-162q-101 -45 -211 -45
q-71 0 -125.5 14.5t-87 37t-53 53.5t-28 59.5t-7.5 58.5q0 94 65 172t168 129h-119z" />
    <glyph glyph-name="Ydieresis" unicode="&#x178;" horiz-adv-x="1411" 
d="M500 0v500l-490 934h475l224 -463l217 463h475l-488 -934v-500h-413zM213 1720q0 193 217 193t217 -193q0 -192 -217 -192t-217 192zM762 1720q0 193 217 193t217 -193q0 -192 -217 -192t-217 192z" />
    <glyph glyph-name="Zacute" unicode="&#x179;" horiz-adv-x="1378" 
d="M102 0v238l611 839h-586v357h1137v-236l-609 -842h621v-356h-1174zM528 1526l242 389h475l-426 -389h-291z" />
    <glyph glyph-name="zacute" unicode="&#x17a;" horiz-adv-x="1265" 
d="M102 0v258l512 535h-491v333h1038v-258l-512 -534h522v-334h-1069zM477 1280l225 348h472l-410 -348h-287z" />
    <glyph glyph-name="Zdotaccent" unicode="&#x17b;" horiz-adv-x="1378" 
d="M102 0v238l611 839h-586v357h1137v-236l-609 -842h621v-356h-1174zM461 1720q0 205 229 205q230 0 230 -205q0 -204 -230 -204q-229 0 -229 204z" />
    <glyph glyph-name="zdotaccent" unicode="&#x17c;" horiz-adv-x="1265" 
d="M102 0v258l512 535h-491v333h1038v-258l-512 -534h522v-334h-1069zM408 1454q0 201 225 201t225 -201t-225 -201t-225 201z" />
    <glyph glyph-name="Zcaron" unicode="&#x17d;" horiz-adv-x="1378" 
d="M102 0v238l611 839h-586v357h1137v-236l-609 -842h621v-356h-1174zM496 1536l-277 369h295l178 -197l176 197h293l-272 -369h-393z" />
    <glyph glyph-name="zcaron" unicode="&#x17e;" horiz-adv-x="1265" 
d="M102 0v258l512 535h-491v333h1038v-258l-512 -534h522v-334h-1069zM442 1280l-260 348h293l158 -174l160 174h290l-256 -348h-385z" />
    <glyph glyph-name="uni018F" unicode="&#x18f;" horiz-adv-x="1480" 
d="M61 829h932q-13 128 -112 208.5t-283 80.5q-237 0 -401 -82v367q225 59 469 59q145 0 261.5 -27.5t194 -71t134.5 -108.5t88 -128t49 -142.5t23 -139.5t5 -130q0 -125 -27 -236t-83.5 -204.5t-138 -161t-196.5 -105t-253 -37.5q-319 0 -490.5 190.5t-171.5 561.5v106z
M461 551q10 -248 268 -248q110 0 183.5 66.5t82.5 191.5h-534v-10z" />
    <glyph glyph-name="florin" unicode="&#x192;" horiz-adv-x="1181" 
d="M-102 -438l63 305q46 -8 90 -8q29 0 52 6t48 22.5t43.5 51.5t28.5 88l144 708h-177l64 309h176l25 117q36 186 158 288.5t331 102.5q103 0 215 -22l-59 -297q-48 12 -99 12q-91 0 -131.5 -37.5t-58.5 -126.5l-8 -37h244l-64 -309h-244l-143 -704q-51 -249 -182 -367.5
t-355 -118.5q-99 0 -161 17z" />
    <glyph glyph-name="uni01DD" unicode="&#x1dd;" horiz-adv-x="1374" 
d="M72 653h809q-7 104 -76.5 149.5t-216.5 45.5q-128 0 -253.5 -36t-189.5 -89v332q47 40 187 71t323 31q179 0 302.5 -38.5t197 -118t105.5 -190t32 -265.5q0 -290 -162 -432t-466 -142q-164 0 -280 37t-183.5 108.5t-98 167.5t-30.5 224v145zM672 264q103 0 153 45t58 137
h-406q-2 -88 42 -135t153 -47z" />
    <glyph glyph-name="Gcaron" unicode="&#x1e6;" horiz-adv-x="1476" 
d="M788 530v326h586v-764q-89 -50 -242 -87.5t-329 -37.5q-374 0 -547.5 176t-173.5 555q0 160 24.5 280t80 214.5t145.5 153.5t220 89.5t304 30.5q267 0 426 -65v-385q-159 96 -385 96q-220 0 -305.5 -90.5t-85.5 -304.5q0 -206 79 -300.5t255 -94.5q84 0 178 24v184h-230z
M545 1536l-277 369h295l178 -197l177 197h292l-272 -369h-393z" />
    <glyph glyph-name="gcaron" unicode="&#x1e7;" horiz-adv-x="1501" 
d="M207 -324v363q166 -90 471 -90q84 0 140 14.5t86 43.5t42 65t12 88v61q-114 -141 -376 -141q-258 0 -379 117.5t-121 388.5q0 296 118 430.5t384 134.5q114 0 195.5 -26.5t122 -63t67.5 -88.5l10 153h387v-942q0 -133 -27 -229t-79.5 -162t-139 -105t-197 -56t-261.5 -17
q-128 0 -255 18.5t-200 42.5zM733 397q120 0 172.5 47t52.5 164v19q0 115 -51 159.5t-178 44.5q-120 0 -169.5 -47.5t-49.5 -169.5q0 -120 53.5 -168.5t169.5 -48.5zM477 1280l-260 348h293l158 -174l159 174h291l-256 -348h-385z" />
    <glyph glyph-name="Scommaaccent" unicode="&#x218;" horiz-adv-x="1368" 
d="M819 406q0 28 -24 49t-64 36t-92.5 29t-110 33t-115 42.5t-110 62.5t-92.5 88.5t-64 124.5t-24 167q0 206 140 317t454 111q297 0 477 -69v-387q-93 55 -207 89t-229 34q-117 0 -167 -29.5t-50 -71.5q0 -27 25 -47t67.5 -35t98 -29.5t116.5 -33t121.5 -42.5t116 -61.5
t98 -85.5t67.5 -120t25 -160q0 -451 -633 -451q-146 0 -280.5 24.5t-221.5 63.5v394q110 -68 191 -98q135 -50 282 -50q102 0 153.5 30t51.5 75zM512 -412q20 -2 59 -2q129 0 146 74q-250 0 -250 121q0 60 59.5 94.5t155.5 34.5q107 0 172.5 -51t65.5 -148q0 -116 -93 -186
t-239 -70q-49 0 -76 4v129z" />
    <glyph glyph-name="scommaaccent" unicode="&#x219;" horiz-adv-x="1187" 
d="M1026 1110v-340q-184 94 -371 94q-81 0 -108 -14.5t-27 -46.5q0 -26 32.5 -41.5t84 -26t114 -22t125 -35.5t114 -60.5t84 -103.5t32.5 -158q0 -76 -15 -133.5t-53 -106.5t-100.5 -80t-159.5 -48t-229 -17q-226 0 -416 62v352q76 -51 181 -86t225 -35q91 0 120 16t29 54
q0 26 -32.5 43t-84 28.5t-114 25t-125 39t-114 62.5t-84 103.5t-32.5 155.5q0 132 50 210.5t168.5 117t322.5 38.5q205 0 383 -47zM436 -401q20 -2 56 -2q53 0 87.5 20.5t43.5 56.5q-228 0 -228 115q0 56 54.5 88.5t142.5 32.5q97 0 156 -48t59 -138q0 -108 -85 -178
t-216 -70q-34 0 -70 4v119z" />
    <glyph glyph-name="Tcommaaccent" unicode="&#x21a;" horiz-adv-x="1318" 
d="M453 0v1079h-392v355h1196v-355h-391v-1079h-413zM487 -412q20 -2 60 -2q128 0 145 74q-250 0 -250 121q0 60 59.5 94.5t155.5 34.5q107 0 172.5 -51t65.5 -148q0 -116 -93 -186t-239 -70q-49 0 -76 4v129z" />
    <glyph glyph-name="tcommaaccent" unicode="&#x21b;" horiz-adv-x="1083" 
d="M256 383v414h-195v329h195v162l408 131v-293h317v-329h-317v-326q0 -74 28.5 -107.5t98.5 -33.5q46 0 99.5 13.5t90.5 35.5v-346q-125 -53 -313 -53q-227 0 -319.5 91.5t-92.5 311.5zM510 -401q20 -2 55 -2q53 0 87.5 20.5t43.5 56.5q-227 0 -227 115q0 56 54.5 88.5
t142.5 32.5q97 0 156 -48t59 -138q0 -108 -85 -178t-216 -70q-34 0 -70 4v119z" />
    <glyph glyph-name="uni0237" unicode="&#x237;" horiz-adv-x="698" 
d="M154 12v1114h409v-1151q0 -108 -24 -179.5t-74.5 -110.5t-114.5 -54.5t-157 -15.5q-147 0 -222 29v315q38 -10 92 -10q50 0 70.5 14t20.5 49z" />
    <glyph glyph-name="uni0259" unicode="&#x259;" horiz-adv-x="1374" 
d="M72 653h809q-7 104 -76.5 149.5t-216.5 45.5q-128 0 -253.5 -36t-189.5 -89v332q47 40 187 71t323 31q179 0 302.5 -38.5t197 -118t105.5 -190t32 -265.5q0 -290 -162 -432t-466 -142q-164 0 -280 37t-183.5 108.5t-98 167.5t-30.5 224v145zM672 264q103 0 153 45t58 137
h-406q-2 -88 42 -135t153 -47z" />
    <glyph glyph-name="afii57929" unicode="&#x2bc;" horiz-adv-x="542" 
d="M92 1004l94 430h357l-197 -430h-254z" />
    <glyph glyph-name="circumflex" unicode="&#x2c6;" horiz-adv-x="819" 
d="M-41 1280l258 348h385l258 -348h-291l-157 174l-160 -174h-293z" />
    <glyph glyph-name="caron" unicode="&#x2c7;" horiz-adv-x="819" 
d="M219 1280l-260 348h293l158 -174l159 174h291l-256 -348h-385z" />
    <glyph glyph-name="breve" unicode="&#x2d8;" horiz-adv-x="819" 
d="M20 1581l218 57q22 -73 68 -108t104 -35t104 35t68 108l217 -57q-57 -311 -389 -311q-333 0 -390 311z" />
    <glyph glyph-name="dotaccent" unicode="&#x2d9;" horiz-adv-x="819" 
d="M184 1454q0 201 226 201q225 0 225 -201t-225 -201q-226 0 -226 201z" />
    <glyph glyph-name="ring" unicode="&#x2da;" horiz-adv-x="819" 
d="M131 1475q0 117 76.5 191.5t202.5 74.5t202 -74.5t76 -191.5q0 -119 -75.5 -193t-202.5 -74t-203 74t-76 193zM311 1475q0 -86 99 -86q98 0 98 86t-98 86q-99 0 -99 -86z" />
    <glyph glyph-name="ogonek" unicode="&#x2db;" horiz-adv-x="819" 
d="M666 -317v-162q-101 -45 -211 -45q-71 0 -125.5 14.5t-87 37t-53 53.5t-28 59.5t-7.5 58.5q0 106 80.5 190t203.5 134l152 -23q-93 -57 -135.5 -113t-42.5 -129q0 -55 35 -82.5t90 -27.5q68 0 129 35z" />
    <glyph glyph-name="tilde" unicode="&#x2dc;" horiz-adv-x="819" 
d="M164 1288l-184 23q6 152 71.5 231.5t171.5 79.5q66 0 199 -55q17 -7 44 -18t35.5 -14.5t23.5 -8.5t24.5 -6.5t21.5 -1.5q37 0 59 29.5t27 74.5l183 -25q-6 -144 -70 -227.5t-172 -83.5q-50 0 -96 13.5t-111 41.5q-19 8 -42.5 19t-36 16.5t-30 10t-34.5 4.5
q-31 0 -55.5 -29.5t-28.5 -73.5z" />
    <glyph glyph-name="hungarumlaut" unicode="&#x2dd;" horiz-adv-x="819" 
d="M-102 1280l82 348h368l-205 -348h-245zM307 1280l205 348h451l-369 -348h-287z" />
    <glyph glyph-name="acutecomb" unicode="&#x301;" horiz-adv-x="0" 
d="M-881 1280l226 348h471l-410 -348h-287z" />
    <glyph glyph-name="uni0394" unicode="&#x394;" horiz-adv-x="1490" 
d="M6 0l455 1434h573l453 -1434h-1481zM512 356h453l-224 738h-4z" />
    <glyph glyph-name="uni0394" unicode="&#x2206;" horiz-adv-x="1490" 
d="M6 0l455 1434h573l453 -1434h-1481zM512 356h453l-224 738h-4z" />
    <glyph glyph-name="uni03A9" unicode="&#x3a9;" horiz-adv-x="1617" 
d="M86 0v330h350v61q-166 32 -270.5 157t-104.5 318q0 274 196 435t552 161q355 0 551 -161t196 -435q0 -193 -104 -318t-270 -157v-61h350v-330h-649v506q59 9 104 35t69 56.5t39 69t19 66.5t4 55q0 65 -15.5 119.5t-50 100.5t-96.5 72t-147 26t-147 -26t-95.5 -72
t-49 -100.5t-15.5 -119.5q0 -27 4 -55t19 -66.5t39 -69t69 -56.5t104 -35v-506h-651z" />
    <glyph glyph-name="uni03A9" unicode="&#x2126;" horiz-adv-x="1617" 
d="M86 0v330h350v61q-166 32 -270.5 157t-104.5 318q0 274 196 435t552 161q355 0 551 -161t196 -435q0 -193 -104 -318t-270 -157v-61h350v-330h-649v506q59 9 104 35t69 56.5t39 69t19 66.5t4 55q0 65 -15.5 119.5t-50 100.5t-96.5 72t-147 26t-147 -26t-95.5 -72
t-49 -100.5t-15.5 -119.5q0 -27 4 -55t19 -66.5t39 -69t69 -56.5t104 -35v-506h-651z" />
    <glyph glyph-name="pi" unicode="&#x3c0;" horiz-adv-x="1642" 
d="M307 0v770q-89 0 -196 -80l-113 322q122 114 438 114h1149v-350h-182v-301q0 -95 19.5 -128.5t68.5 -33.5q31 0 68 9l2 -326q-98 -27 -215 -27q-171 0 -262 82t-91 268v457h-278v-776h-408z" />
    <glyph glyph-name="afii10023" unicode="&#x401;" 
d="M164 0v1434h1065v-357h-651v-190h561v-326h-561v-205h651v-356h-1065zM205 1720q0 193 217 193t217 -193q0 -192 -217 -192t-217 192zM754 1720q0 193 217 193t217 -193q0 -192 -217 -192t-217 192z" />
    <glyph glyph-name="afii10051" unicode="&#x402;" horiz-adv-x="1765" 
d="M453 0v1079h-392v355h1196v-355h-391v-235q174 49 336 49q102 0 182.5 -19t133 -54t88.5 -77t54.5 -95t26 -100t7.5 -99v-21q0 -99 -29.5 -180t-89 -144t-159 -98t-230.5 -35q-94 0 -187 19v284q40 -12 97 -12q157 0 157 137v11q0 67 -45 99t-123 32q-48 0 -93.5 -8.5
t-66 -15t-59.5 -21.5v-496h-413z" />
    <glyph glyph-name="afii10052" unicode="&#x403;" horiz-adv-x="1241" 
d="M164 0v1434h1016v-371h-602v-1063h-414zM506 1526l242 389h475l-426 -389h-291z" />
    <glyph glyph-name="afii10053" unicode="&#x404;" horiz-adv-x="1396" 
d="M821 328q256 0 453 114v-391q-73 -34 -194 -57t-255 -23q-393 0 -568 174.5t-175 575.5q0 188 34 321t112.5 229.5t212.5 143.5t329 47q289 0 504 -76v-399q-92 57 -194 88t-259 31q-151 0 -220 -49t-89 -187h535v-292h-539q15 -145 82.5 -197.5t230.5 -52.5z" />
    <glyph glyph-name="afii10054" unicode="&#x405;" horiz-adv-x="1368" 
d="M819 406q0 28 -24 49t-64 36t-92.5 29t-110 33t-115 42.5t-110 62.5t-92.5 88.5t-64 124.5t-24 167q0 206 140 317t454 111q297 0 477 -69v-387q-93 55 -207 89t-229 34q-117 0 -167 -29.5t-50 -71.5q0 -27 25 -47t67.5 -35t98 -29.5t116.5 -33t121.5 -42.5t116 -61.5
t98 -85.5t67.5 -120t25 -160q0 -451 -633 -451q-146 0 -280.5 24.5t-221.5 63.5v394q110 -68 191 -98q135 -50 282 -50q102 0 153.5 30t51.5 75z" />
    <glyph glyph-name="afii10055" unicode="&#x406;" horiz-adv-x="741" 
d="M164 0v1434h414v-1434h-414z" />
    <glyph glyph-name="afii10056" unicode="&#x407;" horiz-adv-x="741" 
d="M164 0v1434h414v-1434h-414zM-121 1720q0 193 217 193t217 -193q0 -192 -217 -192t-217 192zM428 1720q0 193 217 193t217 -193q0 -192 -217 -192t-217 192z" />
    <glyph glyph-name="afii10057" unicode="&#x408;" horiz-adv-x="1017" 
d="M440 567v867h414v-928q0 -147 -25.5 -244.5t-86.5 -161.5t-157.5 -92t-242.5 -28q-159 0 -281 32v394q35 -27 92.5 -46.5t112.5 -19.5q64 0 100 17.5t55 67.5t19 142z" />
    <glyph glyph-name="afii10058" unicode="&#x409;" horiz-adv-x="2246" 
d="M51 -8v403q28 -4 43 -4q40 0 67 11t49.5 44t35.5 79t24 131.5t17.5 185t13.5 254.5l14 338h1102v-406q117 10 230 10q259 0 383 -121t124 -393q0 -105 -19 -186t-64.5 -147.5t-118 -110t-180.5 -67t-252 -23.5q-321 0 -516 20v1067h-324l-10 -143q-11 -151 -22 -261
t-28 -210t-36.5 -168t-48 -125.5t-63 -91.5t-82.5 -58t-103.5 -33.5t-128.5 -9.5q-45 0 -107 15zM1417 336q82 -8 103 -8q118 0 164.5 43.5t46.5 146.5q0 110 -44 144t-169 34q-23 0 -101 -4v-356z" />
    <glyph glyph-name="afii10059" unicode="&#x40a;" horiz-adv-x="2322" 
d="M164 0v1434h414v-529h501v529h414v-406q117 10 229 10q259 0 383.5 -121t124.5 -393q0 -132 -31.5 -227t-103.5 -166t-196.5 -106t-303.5 -35q-321 0 -516 20v541h-501v-551h-414zM1493 336q82 -8 102 -8q118 0 164.5 43.5t46.5 146.5q0 110 -44 144t-169 34
q-22 0 -100 -4v-356z" />
    <glyph glyph-name="afii10060" unicode="&#x40b;" horiz-adv-x="1728" 
d="M453 0v1079h-392v355h1196v-355h-391v-225q154 39 297 39q494 0 494 -467v-426h-414v336q0 114 -53.5 154t-157.5 40q-84 0 -166 -28v-502h-413z" />
    <glyph glyph-name="afii10061" unicode="&#x40c;" horiz-adv-x="1507" 
d="M164 0v1434h414v-539h110l299 539h471l-420 -670l453 -764h-485l-316 559h-112v-559h-414zM645 1526l242 389h475l-426 -389h-291z" />
    <glyph glyph-name="afii10062" unicode="&#x40e;" horiz-adv-x="1449" 
d="M303 18v400q21 -21 64 -36t82 -15q32 0 49.5 2t37.5 14.5t29 36.5l-545 1014h486l289 -621l213 621h432l-439 -1080q-87 -215 -183.5 -294.5t-280.5 -79.5q-134 0 -234 38zM319 1905h295q0 -92 25 -124t90 -32q70 0 96.5 32t26.5 124h287q0 -196 -107 -282.5t-303 -86.5
t-303 86.5t-107 282.5z" />
    <glyph glyph-name="afii10145" unicode="&#x40f;" horiz-adv-x="1595" 
d="M616 -266v266h-452v1434h414v-1078h440v1078h414v-1434h-453v-266h-363z" />
    <glyph glyph-name="afii10017" unicode="&#x410;" horiz-adv-x="1478" 
d="M1053 0l-80 258h-477l-80 -258h-408l481 1434h506l475 -1434h-417zM733 1028l-135 -434h270z" />
    <glyph glyph-name="afii10018" unicode="&#x411;" horiz-adv-x="1454" 
d="M164 0v1434h1087v-357h-673v-180q150 6 231 6q148 0 245 -19t166.5 -67.5t100.5 -132.5t31 -213q0 -120 -31 -205.5t-104.5 -149.5t-201.5 -95t-315 -31q-238 0 -536 10zM567 356q63 -6 164 -6q116 0 156.5 30.5t40.5 111.5q0 76 -35.5 103.5t-136.5 27.5q-60 0 -189 -7
v-260z" />
    <glyph glyph-name="afii10019" unicode="&#x412;" horiz-adv-x="1454" 
d="M164 0v1434q340 10 586 10q141 0 240.5 -14t166.5 -41.5t105.5 -74t54.5 -106t16 -143.5q0 -263 -280 -317q162 -4 240.5 -85.5t78.5 -238.5q0 -98 -18.5 -166t-64 -122t-126.5 -85t-201.5 -47t-293.5 -16q-185 0 -504 12zM578 326h151q95 0 141 12t62 37.5t16 77.5
q0 56 -15.5 82.5t-59.5 38.5t-136 12h-159v-260zM578 862h202q84 0 116 29.5t32 97.5q0 66 -34.5 92.5t-131.5 26.5q-64 0 -184 -6v-240z" />
    <glyph glyph-name="afii10020" unicode="&#x413;" horiz-adv-x="1241" 
d="M164 0v1434h1016v-371h-602v-1063h-414z" />
    <glyph glyph-name="afii10021" unicode="&#x414;" horiz-adv-x="1638" 
d="M41 -266v622h143q66 117 102.5 369.5t43.5 531.5l4 177h1063v-1078h180v-622h-365v266h-806v-266h-365zM983 356v721h-285l-2 -61q-6 -183 -35 -361t-77 -299h399z" />
    <glyph glyph-name="afii10022" unicode="&#x415;" 
d="M164 0v1434h1065v-357h-651v-190h561v-326h-561v-205h651v-356h-1065z" />
    <glyph glyph-name="afii10024" unicode="&#x416;" horiz-adv-x="2099" 
d="M532 1434l248 -551h66v551h414v-551h63l248 551h454l-348 -678l381 -756h-471l-256 547h-71v-547h-414v547h-76l-258 -547h-471l383 756l-350 678h458z" />
    <glyph glyph-name="afii10025" unicode="&#x417;" horiz-adv-x="1294" 
d="M371 575v293h170q131 0 176 25t45 96q0 44 -14 67.5t-56.5 36.5t-124.5 13q-123 0 -222 -24.5t-206 -75.5v395q180 61 496 61q131 0 227.5 -18.5t156.5 -50.5t96 -82t49.5 -105.5t13.5 -128.5q0 -133 -70.5 -219.5t-202.5 -120.5q142 -17 224.5 -105.5t82.5 -225.5
q0 -87 -16.5 -152.5t-57.5 -120.5t-108.5 -89.5t-171 -53.5t-244.5 -19q-295 0 -491 72v406q78 -57 194.5 -89t249.5 -32q66 0 108 8.5t63 27t28.5 40t7.5 53.5q0 31 -7 51t-27.5 36t-61 23.5t-103.5 7.5h-204z" />
    <glyph glyph-name="afii10026" unicode="&#x418;" horiz-adv-x="1648" 
d="M164 0v1434h414v-637q0 -145 -5 -252q94 193 125 248l355 641h432v-1434h-414v645q0 168 4 250q-13 -25 -52.5 -111t-64.5 -131l-362 -653h-432z" />
    <glyph glyph-name="afii10027" unicode="&#x419;" horiz-adv-x="1648" 
d="M164 0v1434h414v-637q0 -145 -5 -252q94 193 125 248l355 641h432v-1434h-414v645q0 168 4 250q-13 -25 -52.5 -111t-64.5 -131l-362 -653h-432zM414 1905h295q0 -92 24.5 -124t89.5 -32q70 0 96.5 32t26.5 124h287q0 -196 -107 -282.5t-303 -86.5t-302.5 86.5
t-106.5 282.5z" />
    <glyph glyph-name="afii10028" unicode="&#x41a;" horiz-adv-x="1507" 
d="M164 0v1434h414v-539h110l299 539h471l-420 -670l453 -764h-485l-316 559h-112v-559h-414z" />
    <glyph glyph-name="afii10029" unicode="&#x41b;" horiz-adv-x="1581" 
d="M51 -8v403q28 -4 43 -4q40 0 67 11t49.5 44t35.5 79t24 131.5t17.5 185t13.5 254.5l14 338h1102v-1434h-413v1077h-324l-10 -143q-11 -151 -22 -261t-28 -210t-36.5 -168t-48 -125.5t-63 -91.5t-82.5 -58t-103.5 -33.5t-128.5 -9.5q-45 0 -107 15z" />
    <glyph glyph-name="afii10030" unicode="&#x41c;" horiz-adv-x="1976" 
d="M164 0v1434h608l227 -664l228 664h585v-1434h-399v780q0 86 8 246q-15 -39 -42.5 -120t-41.5 -120l-180 -499h-338l-180 495q-14 38 -41.5 119t-42.5 119q8 -156 8 -240v-780h-399z" />
    <glyph glyph-name="afii10031" unicode="&#x41d;" horiz-adv-x="1656" 
d="M164 0v1434h414v-529h501v529h414v-1434h-414v551h-501v-551h-414z" />
    <glyph glyph-name="afii10032" unicode="&#x41e;" horiz-adv-x="1628" 
d="M82 717q0 393 176 571t551 178q207 0 347.5 -42.5t227.5 -135.5t124.5 -231t37.5 -340q0 -203 -45 -346.5t-137.5 -232.5t-226 -130t-318.5 -41q-378 0 -557.5 182.5t-179.5 567.5zM522 717q0 -119 19 -197.5t59.5 -121t93 -59.5t129.5 -17q75 0 125.5 18t87.5 62
t54.5 121.5t17.5 193.5q0 153 -32.5 240t-95.5 121t-171 34q-102 0 -162.5 -34.5t-92.5 -121.5t-32 -239z" />
    <glyph glyph-name="afii10033" unicode="&#x41f;" horiz-adv-x="1593" 
d="M164 0v1434h1266v-1434h-414v1065h-438v-1065h-414z" />
    <glyph glyph-name="afii10034" unicode="&#x420;" horiz-adv-x="1425" 
d="M164 0v1434q375 10 549 10q348 0 489 -115t141 -405q0 -283 -154 -416t-482 -133q-27 0 -129 4v-379h-414zM578 717q82 -6 129 -6q115 0 164 51t49 145q0 50 -9 84t-32.5 62t-67.5 41.5t-111 13.5q-71 0 -122 -6v-385z" />
    <glyph glyph-name="afii10035" unicode="&#x421;" horiz-adv-x="1341" 
d="M1237 1403v-414q-104 55 -158 72q-98 31 -221 31q-178 0 -257 -84.5t-79 -290.5q0 -210 80.5 -292.5t271.5 -82.5q222 0 365 107v-408q-161 -74 -403 -74q-204 0 -348 44.5t-233.5 137t-131 227t-41.5 322.5q0 197 41.5 338.5t132 238.5t236 144t352.5 47
q90 0 179.5 -13.5t121.5 -22.5t92 -27z" />
    <glyph glyph-name="afii10036" unicode="&#x422;" horiz-adv-x="1318" 
d="M453 0v1079h-392v355h1196v-355h-391v-1079h-413z" />
    <glyph glyph-name="afii10037" unicode="&#x423;" horiz-adv-x="1449" 
d="M303 18v400q21 -21 64 -36t82 -15q32 0 49.5 2t37.5 14.5t29 36.5l-545 1014h486l289 -621l213 621h432l-439 -1080q-87 -215 -183.5 -294.5t-280.5 -79.5q-134 0 -234 38z" />
    <glyph glyph-name="afii10038" unicode="&#x424;" horiz-adv-x="1931" 
d="M758 -41v152h-25q-188 0 -311.5 31t-203 104t-113 186.5t-33.5 286.5q0 171 35.5 286t115.5 188t202.5 104.5t303.5 31.5h29v146h416v-146h24q190 0 313.5 -30t203 -102.5t112.5 -187t33 -290.5q0 -330 -154.5 -469t-507.5 -139h-24v-152h-416zM774 436v570h-33
q-92 0 -139.5 -22.5t-69.5 -83.5t-22 -181q0 -91 10.5 -145t39.5 -85.5t70.5 -42t112.5 -10.5h31zM1157 436h29q137 0 186 59t49 224q0 124 -20.5 184t-67.5 81.5t-145 21.5h-31v-570z" />
    <glyph glyph-name="afii10039" unicode="&#x425;" horiz-adv-x="1507" 
d="M41 0l387 737l-356 697h479l207 -430l211 430h471l-377 -693l403 -741h-489l-238 457l-223 -457h-475z" />
    <glyph glyph-name="afii10040" unicode="&#x426;" horiz-adv-x="1671" 
d="M164 0v1434h414v-1078h440v1078h414v-1078h178v-622h-363v266h-1083z" />
    <glyph glyph-name="afii10041" unicode="&#x427;" horiz-adv-x="1505" 
d="M928 0v494q-123 -43 -314 -43q-141 0 -235 26.5t-151 86t-81 145.5t-24 213v512h414v-435q0 -106 43.5 -147t138.5 -41q133 0 209 29v594h413v-1434h-413z" />
    <glyph glyph-name="afii10042" unicode="&#x428;" horiz-adv-x="2158" 
d="M164 0v1434h414v-1078h294v1078h414v-1078h295v1078h414v-1434h-1831z" />
    <glyph glyph-name="afii10043" unicode="&#x429;" horiz-adv-x="2234" 
d="M164 0v1434h414v-1078h294v1078h414v-1078h295v1078h414v-1078h178v-622h-363v266h-1646z" />
    <glyph glyph-name="afii10044" unicode="&#x42a;" horiz-adv-x="1601" 
d="M356 10v1067h-295v357h709v-406q117 10 231 10q259 0 383.5 -121t124.5 -393q0 -132 -31.5 -227t-103.5 -166t-196.5 -106t-303.5 -35q-323 0 -518 20zM772 336q82 -8 102 -8q118 0 164.5 43.5t46.5 146.5q0 110 -44 144t-169 34q-22 0 -100 -4v-356z" />
    <glyph glyph-name="afii10045" unicode="&#x42b;" horiz-adv-x="1986" 
d="M164 10v1424h414v-406q117 10 229 10q244 0 365.5 -122t121.5 -392q0 -131 -31 -226.5t-101 -166.5t-190 -106t-292 -35q-321 0 -516 20zM578 336q82 -8 102 -8q103 0 146.5 44t43.5 146q0 109 -41 143.5t-151 34.5q-22 0 -100 -4v-356zM1409 0v1434h414v-1434h-414z" />
    <glyph glyph-name="afii10046" unicode="&#x42c;" horiz-adv-x="1406" 
d="M164 10v1424h414v-406q117 10 229 10q259 0 383.5 -121t124.5 -393q0 -132 -31.5 -227t-103.5 -166t-196.5 -106t-303.5 -35q-321 0 -516 20zM578 336q82 -8 102 -8q118 0 164.5 43.5t46.5 146.5q0 110 -44 144t-169 34q-22 0 -100 -4v-356z" />
    <glyph glyph-name="afii10047" unicode="&#x42d;" horiz-adv-x="1396" 
d="M575 328q163 0 231 52.5t83 197.5h-539v292h535q-20 138 -89.5 187t-220.5 49q-157 0 -258.5 -31t-193.5 -88v399q215 76 504 76q195 0 329 -47t212.5 -143.5t112.5 -229.5t34 -321q0 -401 -175 -575.5t-569 -174.5q-134 0 -254 23t-194 57v391q197 -114 452 -114z" />
    <glyph glyph-name="afii10048" unicode="&#x42e;" horiz-adv-x="2230" 
d="M1430 1462q190 0 323 -40t222.5 -129t131 -230.5t41.5 -345.5q0 -202 -46.5 -346.5t-139 -232t-221 -127.5t-301.5 -40q-327 0 -491.5 136.5t-196.5 437.5h-174v-545h-414v1434h414v-523h178q40 275 205.5 413t468.5 138zM1161 717q0 -219 62 -304t221 -85
q98 0 153.5 33.5t83 118.5t27.5 237q0 225 -57.5 307t-212.5 82q-157 0 -217 -85t-60 -304z" />
    <glyph glyph-name="afii10049" unicode="&#x42f;" horiz-adv-x="1501" 
d="M82 0l280 479q-114 56 -168.5 172t-54.5 273q0 263 153.5 391.5t491.5 128.5q267 0 553 -10v-1434h-413v408h-181l-217 -408h-444zM934 733v348q-61 4 -131 4q-97 0 -150.5 -21t-71.5 -57.5t-18 -99.5q0 -87 43.5 -130.5t141.5 -43.5h186z" />
    <glyph glyph-name="afii10065" unicode="&#x430;" horiz-adv-x="1327" 
d="M842 0l-15 162q-37 -71 -136.5 -128t-258.5 -57q-103 0 -178.5 27.5t-118.5 77t-62.5 111t-19.5 137.5q0 179 128 257t399 75l217 -3v37q0 69 -48 102t-174 33q-116 0 -229 -38.5t-180 -92.5v375q81 35 208.5 58.5t278.5 23.5q162 0 267 -23t170 -77t91.5 -135.5
t26.5 -206.5v-715h-366zM467 369q0 -97 133 -97q197 0 197 146v43h-152q-100 0 -139 -19.5t-39 -72.5z" />
    <glyph glyph-name="afii10066" unicode="&#x431;" horiz-adv-x="1488" 
d="M1288 1630v-362q-109 -51 -364 -74q-217 -21 -280 -34q-167 -34 -223 -123q-36 -58 -36 -144v-41q93 99 210 150t290 51q150 0 252.5 -34t161 -104.5t83.5 -167t25 -233.5q0 -147 -43.5 -253t-129 -169.5t-201 -93t-269.5 -29.5q-93 0 -166.5 8t-145.5 29t-125 56t-99 91
t-75 131.5t-45 179t-16 232.5q0 118 12 217.5t33 177t55.5 140.5t72.5 108.5t91 81t105 58t120 39t130 25.5t141 16q191 17 278.5 31.5t157.5 39.5zM764 285q120 0 171.5 56.5t51.5 172.5t-51.5 167.5t-177.5 51.5q-127 0 -179.5 -53t-52.5 -166q0 -110 56 -169.5t182 -59.5
z" />
    <glyph glyph-name="afii10067" unicode="&#x432;" horiz-adv-x="1353" 
d="M133 0v1126q403 13 561 13q207 0 323.5 -33.5t160 -95.5t43.5 -168q0 -57 -17 -104t-45 -76t-57.5 -46.5t-59.5 -23.5q106 -10 168 -71t62 -183q0 -129 -59 -204.5t-192 -110.5t-362 -35q-166 0 -526 12zM541 289q88 -8 141 -8q94 0 130 22t36 76q0 55 -25 72.5
t-100 17.5h-182v-180zM541 674h131q88 0 119.5 17.5t31.5 74.5q0 47 -29.5 65.5t-123.5 18.5q-63 0 -129 -8v-168z" />
    <glyph glyph-name="afii10068" unicode="&#x433;" horiz-adv-x="1095" 
d="M133 0v1126h891v-350h-483v-776h-408z" />
    <glyph glyph-name="afii10069" unicode="&#x434;" horiz-adv-x="1509" 
d="M51 -266v600h135q54 105 75 273.5t24 406.5l2 112h997v-792h164v-600h-375v266h-645v-266h-377zM877 334v459h-230l-2 -66q-3 -100 -21 -212t-42 -181h295z" />
    <glyph glyph-name="afii10070" unicode="&#x435;" horiz-adv-x="1374" 
d="M1303 475h-809q7 -104 76 -149t216 -45q128 0 253.5 36t189.5 89v-332q-47 -40 -187 -71.5t-323 -31.5q-178 0 -302 38.5t-197.5 118.5t-105.5 190.5t-32 265.5q0 290 162 431.5t467 141.5q132 0 233 -24.5t168.5 -69t110.5 -111.5t61.5 -148t18.5 -183v-146zM702 864
q-103 0 -152.5 -45t-57.5 -137h405q2 88 -42 135t-153 47z" />
    <glyph glyph-name="afii10072" unicode="&#x436;" horiz-adv-x="1918" 
d="M485 0h-454l331 571l-299 555h443l192 -405h58v405h407v-405h58l192 405h445l-302 -555l332 -571h-454l-209 412h-62v-412h-407v412h-62z" />
    <glyph glyph-name="afii10073" unicode="&#x437;" horiz-adv-x="1247" 
d="M113 55v348q84 -52 200 -84t222 -32q110 0 159 21.5t49 70.5q0 72 -145 72h-233v237h206q140 0 140 78q0 41 -46 57.5t-165 16.5q-189 0 -377 -105v342q199 80 485 80q132 0 226.5 -15.5t149.5 -40.5t86.5 -65t41.5 -79.5t10 -94.5q0 -107 -58.5 -178t-152.5 -90
q254 -40 254 -260q0 -84 -29.5 -148t-94.5 -113.5t-178.5 -75.5t-272.5 -26q-138 0 -265.5 22.5t-211.5 61.5z" />
    <glyph glyph-name="afii10074" unicode="&#x438;" horiz-adv-x="1462" 
d="M133 0v1126h408v-473q0 -24 -9 -161h5q14 23 38 65.5t43 71.5l318 497h391v-1126h-407v479q0 38 8 160h-4q-55 -98 -82 -141l-316 -498h-393z" />
    <glyph glyph-name="afii10075" unicode="&#x439;" horiz-adv-x="1462" 
d="M133 0v1126h408v-473q0 -24 -9 -161h5q14 23 38 65.5t43 71.5l318 497h391v-1126h-407v479q0 38 8 160h-4q-55 -98 -82 -141l-316 -498h-393zM340 1638h287q0 -96 23 -129.5t79 -33.5q62 0 86.5 33t24.5 130h278q0 -368 -389 -368t-389 368z" />
    <glyph glyph-name="afii10076" unicode="&#x43a;" horiz-adv-x="1388" 
d="M872 0l-210 395h-121v-395h-408v1126h408v-403h106l193 403h473l-316 -536l371 -590h-496z" />
    <glyph glyph-name="afii10077" unicode="&#x43b;" horiz-adv-x="1413" 
d="M53 -8l-2 391q27 -6 45 -6q60 0 89 42t44.5 160t20.5 363l4 184h1024v-1126h-408v776h-243l-2 -53q-6 -159 -22.5 -276t-48.5 -210t-80.5 -150t-118 -86.5t-162.5 -29.5q-86 0 -140 21z" />
    <glyph glyph-name="afii10078" unicode="&#x43c;" horiz-adv-x="1716" 
d="M133 0v1126h524l199 -508l201 508h524v-1126h-383v629q0 29 4 135q-8 -20 -21.5 -62t-21.5 -61l-178 -455h-248l-178 455q-2 6 -18 49.5t-25 65.5q4 -98 4 -127v-629h-383z" />
    <glyph glyph-name="afii10079" unicode="&#x43d;" horiz-adv-x="1452" 
d="M133 0v1126h408v-397h370v397h408v-1126h-408v395h-370v-395h-408z" />
    <glyph glyph-name="afii10080" unicode="&#x43e;" horiz-adv-x="1445" 
d="M82 563q0 299 157 446.5t482 147.5q346 0 494.5 -143t148.5 -451q0 -303 -150.5 -447.5t-492.5 -144.5q-345 0 -492 138.5t-147 453.5zM504 563v-10q0 -143 46.5 -204.5t170.5 -61.5q126 0 173.5 59.5t47.5 204.5v12q0 80 -8 128t-32 84t-67.5 50.5t-113.5 14.5
q-130 0 -173.5 -61.5t-43.5 -215.5z" />
    <glyph glyph-name="afii10081" unicode="&#x43f;" horiz-adv-x="1427" 
d="M133 0v1126h1159v-1126h-407v776h-344v-776h-408z" />
    <glyph glyph-name="afii10082" unicode="&#x440;" horiz-adv-x="1499" 
d="M133 -369v1495h387l12 -157q118 182 392 182q266 0 379.5 -134t113.5 -444q0 -304 -120 -450t-398 -146q-239 0 -358 158v-504h-408zM541 553q0 -129 51.5 -192.5t175.5 -63.5t171.5 64.5t47.5 213.5q0 136 -51 196t-172 60q-119 0 -171 -62.5t-52 -193.5v-22z" />
    <glyph glyph-name="afii10083" unicode="&#x441;" horiz-adv-x="1247" 
d="M1133 1085v-364q-71 49 -147.5 75.5t-188.5 26.5q-157 0 -225 -57.5t-68 -190.5q0 -92 27 -149t98.5 -89t193.5 -32q92 0 183 26t139 62v-342q-175 -80 -400 -80q-244 0 -389.5 64t-209.5 194t-64 344q0 295 155.5 439.5t491.5 144.5q237 0 404 -72z" />
    <glyph glyph-name="afii10084" unicode="&#x442;" horiz-adv-x="1255" 
d="M424 0v776h-363v350h1133v-350h-363v-776h-407z" />
    <glyph glyph-name="afii10085" unicode="&#x443;" horiz-adv-x="1306" 
d="M430 -55q78 0 86 51l-496 1130h459l221 -645l170 645h416l-375 -1101q-80 -236 -171.5 -325t-258.5 -89q-55 0 -118.5 9.5t-98.5 23.5l4 344q84 -43 162 -43z" />
    <glyph glyph-name="afii10086" unicode="&#x444;" horiz-adv-x="1847" 
d="M1126 -369h-405v357q-62 -11 -131 -11q-94 0 -168.5 16.5t-139.5 57.5t-108 106.5t-67.5 167.5t-24.5 236q0 133 25.5 235t69.5 168.5t109.5 109t140.5 60t167 17.5q53 0 127 -12v438h405v-436q72 10 134 10q125 0 214 -27t156.5 -91.5t101 -179.5t33.5 -282
q0 -594 -512 -594q-63 0 -127 11v-357zM678 295q7 0 21.5 1t21.5 1v534q-21 3 -51 3q-90 0 -125 -57t-35 -214q0 -159 35.5 -213.5t132.5 -54.5zM1126 297q12 -2 50 -2q91 0 126 58t35 216q0 109 -16 165t-50.5 78t-101.5 22q-7 0 -22 -1.5t-21 -1.5v-534z" />
    <glyph glyph-name="afii10087" unicode="&#x445;" horiz-adv-x="1333" 
d="M20 0l357 582l-328 544h449l176 -303l184 303h438l-340 -544l357 -582h-453l-203 324l-194 -324h-443z" />
    <glyph glyph-name="afii10088" unicode="&#x446;" horiz-adv-x="1501" 
d="M133 0v1126h408v-792h319v792h408v-792h172v-600h-375v266h-932z" />
    <glyph glyph-name="afii10089" unicode="&#x447;" horiz-adv-x="1333" 
d="M92 680v446h410v-313q0 -84 35 -117.5t122 -33.5q74 0 132 20v444h407v-1126h-407v362q-46 -15 -122.5 -24.5t-138.5 -9.5q-101 0 -177.5 17t-137 56.5t-92 109.5t-31.5 169z" />
    <glyph glyph-name="afii10090" unicode="&#x448;" horiz-adv-x="1957" 
d="M133 0v1126h408v-792h233v792h408v-792h233v792h408v-1126h-1690z" />
    <glyph glyph-name="afii10091" unicode="&#x449;" horiz-adv-x="2058" 
d="M133 0v1126h408v-792h233v792h408v-792h233v792h408v-792h174v-600h-377v266h-1487z" />
    <glyph glyph-name="afii10092" unicode="&#x44a;" horiz-adv-x="1521" 
d="M352 0v776h-291v350h699v-305q144 8 182 8q154 0 255.5 -25t159 -79.5t80.5 -128t23 -182.5q0 -149 -57.5 -240.5t-200.5 -140.5t-387 -49q-155 0 -463 16zM754 287q54 -4 92 -4q107 0 146.5 31.5t39.5 101.5q0 64 -38 93.5t-134 29.5q-12 0 -106 -4v-248z" />
    <glyph glyph-name="afii10093" unicode="&#x44b;" horiz-adv-x="1843" 
d="M541 823q108 6 161 6q144 0 241 -25.5t153.5 -79.5t80 -128t23.5 -182q0 -111 -32 -189t-104.5 -133t-193 -81.5t-295.5 -26.5q-134 0 -442 16v1126h408v-303zM535 287q54 -4 92 -4q87 0 116 31t29 102q0 64 -28.5 93.5t-102.5 29.5q-12 0 -106 -4v-248zM1300 0v1126h408
v-1126h-408z" />
    <glyph glyph-name="afii10094" unicode="&#x44c;" horiz-adv-x="1302" 
d="M133 0v1126h408v-303q108 6 182 6q154 0 255.5 -25t159 -79.5t80.5 -128t23 -182.5q0 -149 -57.5 -240.5t-200.5 -140.5t-387 -49q-155 0 -463 16zM535 287q54 -4 92 -4q107 0 146.5 31.5t39.5 101.5q0 64 -38 93.5t-134 29.5q-12 0 -106 -4v-248z" />
    <glyph glyph-name="afii10095" unicode="&#x44d;" horiz-adv-x="1290" 
d="M528 287q135 0 196.5 36.5t76.5 127.5h-449v241h447q-17 82 -73.5 115t-182.5 33q-36 0 -71 -3t-61.5 -6.5t-60 -12t-51.5 -13.5t-51 -17t-43.5 -16t-44.5 -18.5t-39 -16.5v350q67 26 178 48t244 22q158 0 272.5 -22.5t190.5 -65.5t120.5 -113.5t63 -158t18.5 -207.5
q0 -126 -19.5 -220.5t-66 -172t-123.5 -126t-193 -74.5t-274 -26q-245 0 -419 66v348q74 -35 188.5 -66.5t226.5 -31.5z" />
    <glyph glyph-name="afii10096" unicode="&#x44e;" horiz-adv-x="1988" 
d="M1266 1157q343 0 492 -139t149 -455q0 -302 -156 -447t-473 -145q-272 0 -418 99t-182 325h-137v-395h-408v1126h408v-397h139q35 222 179 325t407 103zM1047 563q0 -153 51 -214.5t168 -61.5t167 61.5t50 214.5q0 111 -25.5 172.5t-70.5 83t-121 21.5
q-124 0 -171.5 -58.5t-47.5 -218.5z" />
    <glyph glyph-name="afii10097" unicode="&#x44f;" horiz-adv-x="1376" 
d="M74 0l235 360q-65 34 -106 75.5t-66.5 112t-25.5 167.5q0 117 30.5 194t106 129.5t200.5 75.5t316 23q158 0 477 -11v-1126h-407v303h-152l-170 -303h-438zM840 586v231q-66 4 -121 4q-100 0 -139 -26t-39 -86q0 -65 32.5 -94t102.5 -29h164z" />
    <glyph glyph-name="afii10071" unicode="&#x451;" horiz-adv-x="1374" 
d="M1303 475h-809q7 -104 76 -149t216 -45q128 0 253.5 36t189.5 89v-332q-47 -40 -187 -71.5t-323 -31.5q-178 0 -302 38.5t-197.5 118.5t-105.5 190.5t-32 265.5q0 290 162 431.5t467 141.5q132 0 233 -24.5t168.5 -69t110.5 -111.5t61.5 -148t18.5 -183v-146zM702 864
q-103 0 -152.5 -45t-57.5 -137h405q2 88 -42 135t-153 47zM231 1454q0 193 218 193q217 0 217 -193q0 -192 -217 -192q-218 0 -218 192zM760 1454q0 193 217 193t217 -193q0 -192 -217 -192t-217 192z" />
    <glyph glyph-name="afii10099" unicode="&#x452;" horiz-adv-x="1392" 
d="M1040 1260h-499v-330q91 180 381 180q214 0 307.5 -103.5t93.5 -326.5v-137q0 -167 -36 -323t-93.5 -271.5t-121 -198.5t-128.5 -131l-278 197q249 193 249 663v101q0 108 -40.5 152t-141.5 44q-110 0 -151 -50t-41 -161v-565h-408v1260h-160v215h160v102h408v-102h499
v-215z" />
    <glyph glyph-name="afii10100" unicode="&#x453;" horiz-adv-x="1095" 
d="M133 0v1126h891v-350h-483v-776h-408zM414 1280l225 348h471l-410 -348h-286z" />
    <glyph glyph-name="afii10101" unicode="&#x454;" horiz-adv-x="1290" 
d="M762 287q112 0 227 31.5t189 66.5v-348q-174 -66 -420 -66q-158 0 -274 26t-193 74.5t-123.5 126t-66 172t-19.5 220.5q0 120 18.5 207.5t63.5 158t121 113.5t190.5 65.5t272.5 22.5q133 0 243.5 -21.5t177.5 -48.5v-350q-7 3 -39.5 16.5t-44 18t-43.5 16.5t-50.5 17
t-51.5 13.5t-59.5 12t-61.5 6.5t-71 3q-126 0 -182.5 -33t-73.5 -115h446v-241h-449q15 -91 76.5 -127.5t196.5 -36.5z" />
    <glyph glyph-name="afii10102" unicode="&#x455;" horiz-adv-x="1187" 
d="M1026 1110v-340q-184 94 -371 94q-81 0 -108 -14.5t-27 -46.5q0 -26 32.5 -41.5t84 -26t114 -22t125 -35.5t114 -60.5t84 -103.5t32.5 -158q0 -76 -15 -133.5t-53 -106.5t-100.5 -80t-159.5 -48t-229 -17q-226 0 -416 62v352q76 -51 181 -86t225 -35q91 0 120 16t29 54
q0 26 -32.5 43t-84 28.5t-114 25t-125 39t-114 62.5t-84 103.5t-32.5 155.5q0 132 50 210.5t168.5 117t322.5 38.5q205 0 383 -47z" />
    <glyph glyph-name="afii10103" unicode="&#x456;" horiz-adv-x="677" 
d="M133 0v1126h410v-1126h-410zM113 1454q0 93 53 138.5t172 45.5t172 -45.5t53 -138.5t-53 -138.5t-172 -45.5t-172 45.5t-53 138.5z" />
    <glyph glyph-name="afii10104" unicode="&#x457;" horiz-adv-x="677" 
d="M133 0v1126h410v-1126h-410zM-141 1454q0 193 217 193t217 -193q0 -192 -217 -192t-217 192zM387 1454q0 193 217 193t217 -193q0 -192 -217 -192t-217 192z" />
    <glyph glyph-name="afii10105" unicode="&#x458;" horiz-adv-x="698" 
d="M154 -4v1130h409v-1167q0 -108 -24 -179.5t-74.5 -110.5t-114.5 -54.5t-157 -15.5q-150 0 -222 28v316q42 -11 92 -11t70.5 14.5t20.5 49.5zM133 1454q0 93 53 138.5t172 45.5t172.5 -45.5t53.5 -138.5t-53.5 -138.5t-172.5 -45.5t-172 45.5t-53 138.5z" />
    <glyph glyph-name="afii10106" unicode="&#x459;" horiz-adv-x="2039" 
d="M53 -8l-2 391q27 -6 45 -6q60 0 89 42t44.5 160t20.5 363l4 184h1024v-303q108 6 182 6q154 0 255.5 -25t159 -79.5t80.5 -128t23 -182.5q0 -149 -57.5 -240.5t-200.5 -140.5t-387 -49q-155 0 -463 16v776h-243l-2 -53q-6 -159 -22.5 -276t-48.5 -210t-80.5 -150
t-118 -86.5t-162.5 -29.5q-86 0 -140 21zM1272 287q54 -4 92 -4q107 0 146.5 31.5t39.5 101.5q0 64 -38 93.5t-134 29.5q-12 0 -106 -4v-248z" />
    <glyph glyph-name="afii10107" unicode="&#x45a;" horiz-adv-x="2080" 
d="M133 0v1126h408v-397h370v397h408v-303q108 6 182 6q154 0 255.5 -25t159 -79.5t80.5 -128t23 -182.5q0 -149 -57.5 -240.5t-200.5 -140.5t-387 -49q-155 0 -463 16v395h-370v-395h-408zM1313 287q54 -4 92 -4q107 0 146.5 31.5t39.5 101.5q0 64 -38 93.5t-134 29.5
q-12 0 -106 -4v-248z" />
    <glyph glyph-name="afii10108" unicode="&#x45b;" horiz-adv-x="1441" 
d="M133 0v1260h-160v215h160v102h408v-102h499v-215h-499v-330q91 180 381 180q214 0 307.5 -103.5t93.5 -326.5v-680h-408v580q0 108 -40.5 152t-141.5 44q-110 0 -151 -50t-41 -161v-565h-408z" />
    <glyph glyph-name="afii10109" unicode="&#x45c;" horiz-adv-x="1388" 
d="M872 0l-210 395h-121v-395h-408v1126h408v-403h106l193 403h473l-316 -536l371 -590h-496zM559 1280l225 348h471l-409 -348h-287z" />
    <glyph glyph-name="afii10110" unicode="&#x45e;" horiz-adv-x="1306" 
d="M430 -55q78 0 86 51l-496 1130h459l221 -645l170 645h416l-375 -1101q-80 -236 -171.5 -325t-258.5 -89q-55 0 -118.5 9.5t-98.5 23.5l4 344q84 -43 162 -43zM264 1638h287q0 -96 23 -129.5t79 -33.5q62 0 86.5 33t24.5 130h278q0 -368 -389 -368t-389 368z" />
    <glyph glyph-name="afii10193" unicode="&#x45f;" horiz-adv-x="1400" 
d="M512 -266v266h-379v1126h408v-792h319v792h408v-1126h-379v-266h-377z" />
    <glyph glyph-name="afii10050" unicode="&#x490;" horiz-adv-x="1241" 
d="M164 0v1434h635v266h381v-637h-602v-1063h-414z" />
    <glyph glyph-name="afii10098" unicode="&#x491;" horiz-adv-x="1095" 
d="M133 0v1126h533v267h358v-617h-483v-776h-408z" />
    <glyph glyph-name="uni0492" unicode="&#x492;" horiz-adv-x="1241" 
d="M33 573v310h131v551h1016v-371h-602v-180h376v-310h-376v-573h-414v573h-131z" />
    <glyph glyph-name="uni0493" unicode="&#x493;" horiz-adv-x="1095" 
d="M133 0v358h-160v215h160v553h891v-350h-483v-203h336v-215h-336v-358h-408z" />
    <glyph glyph-name="uni049A" unicode="&#x49a;" horiz-adv-x="1507" 
d="M164 0v1434h414v-539h110l299 539h471l-420 -670l242 -408h213v-622h-363v266h-124l-316 559h-112v-559h-414z" />
    <glyph glyph-name="uni049B" unicode="&#x49b;" horiz-adv-x="1388" 
d="M872 0l-210 395h-121v-395h-408v1126h408v-403h106l193 403h473l-316 -536l160 -256h213v-600h-377v266h-121z" />
    <glyph glyph-name="uni04A2" unicode="&#x4a2;" horiz-adv-x="1732" 
d="M164 0v1434h414v-529h501v529h414v-1078h178v-622h-362v266h-230v551h-501v-551h-414z" />
    <glyph glyph-name="uni04A3" unicode="&#x4a3;" horiz-adv-x="1552" 
d="M133 0v1126h408v-397h370v397h408v-792h172v-600h-377v266h-203v395h-370v-395h-408z" />
    <glyph glyph-name="uni04AE" unicode="&#x4ae;" horiz-adv-x="1411" 
d="M500 0v500l-490 934h475l224 -463l217 463h475l-488 -934v-500h-413z" />
    <glyph glyph-name="uni04AF" unicode="&#x4af;" horiz-adv-x="1341" 
d="M463 0l-438 1126h460l195 -675l201 675h436l-445 -1126v-369h-409v369z" />
    <glyph glyph-name="uni04B0" unicode="&#x4b0;" horiz-adv-x="1411" 
d="M246 356v310h166l-402 768h475l224 -463l217 463h475l-402 -768h168v-310h-254v-356h-413v356h-254z" />
    <glyph glyph-name="uni04B1" unicode="&#x4b1;" horiz-adv-x="1341" 
d="M463 0h-248v215h164l-354 911h460l195 -675l201 675h436l-361 -911h164v-215h-248v-369h-409v369z" />
    <glyph glyph-name="uni04BA" unicode="&#x4ba;" horiz-adv-x="1439" 
d="M164 0v1434h414v-580q154 39 296 39q494 0 494 -467v-426h-414v336q0 114 -53.5 154t-157.5 40q-83 0 -165 -28v-502h-414z" />
    <glyph glyph-name="uni04BB" unicode="&#x4bb;" horiz-adv-x="1441" 
d="M133 0v1577h408v-606q91 180 381 180q214 0 307.5 -103.5t93.5 -326.5v-721h-408v621q0 108 -40.5 152t-141.5 44q-110 0 -151 -50t-41 -161v-606h-408z" />
    <glyph glyph-name="uni04C0" unicode="&#x4c0;" horiz-adv-x="741" 
d="M164 0v1434h414v-1434h-414z" />
    <glyph glyph-name="uni04CF" unicode="&#x4cf;" horiz-adv-x="673" 
d="M541 0h-408v1577h408v-1577z" />
    <glyph glyph-name="uni04D8" unicode="&#x4d8;" horiz-adv-x="1480" 
d="M61 829h932q-13 128 -112 208.5t-283 80.5q-237 0 -401 -82v367q225 59 469 59q145 0 261.5 -27.5t194 -71t134.5 -108.5t88 -128t49 -142.5t23 -139.5t5 -130q0 -125 -27 -236t-83.5 -204.5t-138 -161t-196.5 -105t-253 -37.5q-319 0 -490.5 190.5t-171.5 561.5v106z
M461 551q10 -248 268 -248q110 0 183.5 66.5t82.5 191.5h-534v-10z" />
    <glyph glyph-name="afii10846" unicode="&#x4d9;" horiz-adv-x="1374" 
d="M72 653h809q-7 104 -76.5 149.5t-216.5 45.5q-128 0 -253.5 -36t-189.5 -89v332q47 40 187 71t323 31q179 0 302.5 -38.5t197 -118t105.5 -190t32 -265.5q0 -290 -162 -432t-466 -142q-164 0 -280 37t-183.5 108.5t-98 167.5t-30.5 224v145zM672 264q103 0 153 45t58 137
h-406q-2 -88 42 -135t153 -47z" />
    <glyph glyph-name="uni04E8" unicode="&#x4e8;" horiz-adv-x="1628" 
d="M82 717q0 393 176 571t551 178q207 0 347.5 -42.5t227.5 -135.5t124.5 -231t37.5 -340q0 -203 -45 -346.5t-137.5 -232.5t-226 -130t-318.5 -41q-378 0 -557.5 182.5t-179.5 567.5zM823 322q125 0 191.5 54.5t85.5 196.5h-570q22 -144 92.5 -197.5t200.5 -53.5zM809 1112
q-120 0 -186 -51.5t-88 -177.5h561q-24 127 -92 178t-195 51z" />
    <glyph glyph-name="uni04E9" unicode="&#x4e9;" horiz-adv-x="1445" 
d="M82 563q0 299 157 446.5t482 147.5q346 0 494.5 -143t148.5 -451q0 -303 -150.5 -447.5t-492.5 -144.5q-345 0 -492 138.5t-147 453.5zM721 840q-105 0 -153 -39.5t-60 -130.5h428q-11 93 -58 131.5t-157 38.5zM721 287q103 0 152 39t63 129h-426q12 -89 60.5 -128.5
t150.5 -39.5z" />
    <glyph glyph-name="uni1E9E" unicode="&#x1e9e;" horiz-adv-x="1409" 
d="M100 0v922q0 143 47 250t130.5 169t188 91.5t230.5 29.5q185 0 338.5 -82.5t253.5 -234.5l-264 -316v-2q84 -11 147 -41.5t99.5 -69.5t58.5 -90t29.5 -94.5t7.5 -91.5q0 -102 -28 -183t-75 -133t-112 -86.5t-135 -48.5t-148 -14q-130 0 -239 33v295q58 -18 121 -18
q176 0 176 157q0 80 -47 116t-144 36h-78v197l201 260q-55 55 -156 55q-90 0 -139 -56t-49 -157v-893h-414z" />
    <glyph glyph-name="figuredash" unicode="&#x2012;" horiz-adv-x="1492" 
d="M164 600v260h1165v-260h-1165z" />
    <glyph glyph-name="endash" unicode="&#x2013;" horiz-adv-x="1492" 
d="M164 467v260h1165v-260h-1165z" />
    <glyph glyph-name="emdash" unicode="&#x2014;" horiz-adv-x="1820" 
d="M164 467v260h1493v-260h-1493z" />
    <glyph glyph-name="quoteleft" unicode="&#x2018;" horiz-adv-x="800" 
d="M719 1260q-115 -18 -197 -69.5t-94 -117.5q120 0 178 -59t58 -152q0 -103 -63.5 -157t-184.5 -54q-143 0 -208 71t-65 222q0 206 106.5 346t295.5 180z" />
    <glyph glyph-name="quoteright" unicode="&#x2019;" horiz-adv-x="800" 
d="M82 854q115 18 197 69t94 117q-120 0 -178 59t-58 152q0 103 63.5 157t184.5 54q143 0 207.5 -71t64.5 -222q0 -206 -106.5 -346t-294.5 -180z" />
    <glyph glyph-name="quotesinglbase" unicode="&#x201a;" horiz-adv-x="800" 
d="M82 -211q115 18 197 69t94 117q-120 0 -178 59t-58 152q0 103 63.5 157t184.5 54q143 0 207.5 -71t64.5 -222q0 -206 -106.5 -346t-294.5 -180z" />
    <glyph glyph-name="quotedblleft" unicode="&#x201c;" horiz-adv-x="1431" 
d="M719 1260q-115 -18 -197 -69.5t-94 -117.5q120 0 178 -59t58 -152q0 -103 -63.5 -157t-184.5 -54q-143 0 -208 71t-65 222q0 206 106.5 346t295.5 180zM1350 1260q-115 -18 -197 -69.5t-94 -117.5q120 0 177.5 -58.5t57.5 -152.5q0 -103 -63 -157t-184 -54
q-143 0 -208 71t-65 222q0 206 106.5 346t295.5 180z" />
    <glyph glyph-name="quotedblright" unicode="&#x201d;" horiz-adv-x="1431" 
d="M713 854q115 18 197 69t94 117q-120 0 -178 59t-58 152q0 103 63.5 157t184.5 54q143 0 207.5 -71t64.5 -222q0 -206 -106.5 -346t-294.5 -180zM82 854q115 18 197 69t94 117q-120 0 -178 59t-58 152q0 103 63.5 157t184.5 54q143 0 207.5 -71t64.5 -222
q0 -206 -106.5 -346t-294.5 -180z" />
    <glyph glyph-name="quotedblbase" unicode="&#x201e;" horiz-adv-x="1429" 
d="M711 -211q115 18 196.5 69t93.5 117q-120 0 -177.5 58.5t-57.5 152.5q0 103 63.5 157t184.5 54q143 0 207.5 -71t64.5 -222q0 -206 -106.5 -346t-294.5 -180zM82 -211q115 18 197 69t94 117q-120 0 -178 59t-58 152q0 103 63.5 157t184.5 54q143 0 207.5 -71t64.5 -222
q0 -206 -106.5 -346t-294.5 -180z" />
    <glyph glyph-name="dagger" unicode="&#x2020;" horiz-adv-x="1173" 
d="M387 0v811h-330v315h330v308h401v-308h330v-315h-330v-811h-401z" />
    <glyph glyph-name="daggerdbl" unicode="&#x2021;" horiz-adv-x="1173" 
d="M57 307v314h330v190h-330v315h330v308h401v-308h330v-315h-330v-190h330v-314h-330v-307h-401v307h-330z" />
    <glyph glyph-name="bullet" unicode="&#x2022;" horiz-adv-x="958" 
d="M123 717q0 146 105 251t251 105t251.5 -105t105.5 -251t-105.5 -251.5t-251.5 -105.5t-251 105.5t-105 251.5z" />
    <glyph glyph-name="ellipsis" unicode="&#x2026;" horiz-adv-x="2301" 
d="M143 203q0 117 57 174t177 57q124 0 181.5 -53t57.5 -178q0 -232 -239 -232q-234 0 -234 232zM915 203q0 117 57 174t177 57q124 0 182 -53t58 -178q0 -232 -240 -232q-234 0 -234 232zM1686 203q0 117 57 174t176 57q124 0 182 -53t58 -178q0 -232 -240 -232
q-233 0 -233 232z" />
    <glyph glyph-name="perthousand" unicode="&#x2030;" horiz-adv-x="2756" 
d="M319 0l1010 1434h238l-1010 -1434h-238zM1028 420q0 185 104.5 275.5t299.5 90.5q205 0 304 -90t99 -276q0 -195 -105 -281t-298 -86q-404 0 -404 367zM1286 420q0 -91 36.5 -127.5t109.5 -36.5t109 37.5t36 126.5q0 91 -35 127.5t-110 36.5q-74 0 -110 -37t-36 -127z
M1898 420q0 185 104.5 275.5t299.5 90.5q205 0 304 -90t99 -276q0 -195 -105 -281t-298 -86q-404 0 -404 367zM2157 420q0 -91 36 -127.5t109 -36.5t109 37.5t36 126.5q0 91 -35 127.5t-110 36.5q-74 0 -109.5 -37t-35.5 -127zM53 1096q0 185 104.5 275.5t299.5 90.5
q205 0 304 -90t99 -276q0 -195 -105 -281t-298 -86q-404 0 -404 367zM311 1096q0 -91 36.5 -127.5t109.5 -36.5t109 37.5t36 126.5q0 91 -35 127.5t-110 36.5q-74 0 -110 -37t-36 -127z" />
    <glyph glyph-name="guilsinglleft" unicode="&#x2039;" horiz-adv-x="772" 
d="M336 117l-254 434l254 436h354l-229 -436l229 -434h-354z" />
    <glyph glyph-name="guilsinglright" unicode="&#x203a;" horiz-adv-x="772" 
d="M82 117l229 434l-229 436h354l254 -436l-254 -434h-354z" />
    <glyph glyph-name="fraction" unicode="&#x2044;" horiz-adv-x="354" 
d="M-377 -45l887 1520h223l-889 -1520h-221z" />
    <glyph glyph-name="uni2070" unicode="&#x2070;" horiz-adv-x="921" 
d="M35 1210q0 451 424 451q221 0 324.5 -110t103.5 -341q0 -446 -424 -446q-213 0 -320.5 109t-107.5 337zM315 1208q0 -123 32.5 -176t117.5 -53q78 0 108.5 52.5t30.5 176.5q0 127 -30 183.5t-115 56.5q-84 0 -114 -57.5t-30 -182.5z" />
    <glyph glyph-name="uni2074" unicode="&#x2074;" horiz-adv-x="921" 
d="M39 940v203l434 495h309v-487h123v-211h-123v-160h-268v160h-475zM518 1147v287h-2l-252 -287h254z" />
    <glyph glyph-name="uni2075" unicode="&#x2075;" horiz-adv-x="921" 
d="M115 1159l26 479h654v-208h-457l-4 -89q123 5 153 5q359 0 359 -273q0 -47 -12 -89t-44 -83t-81.5 -70.5t-129.5 -48t-184 -18.5q-168 0 -291 39v215q87 -33 248 -33q111 0 162 22t51 68q0 44 -50 68t-148 24q-88 0 -252 -8z" />
    <glyph glyph-name="uni2076" unicode="&#x2076;" horiz-adv-x="921" 
d="M485 764q-221 0 -325.5 113t-104.5 317q0 76 15 142t51 126.5t90.5 104t139.5 69t192 25.5q170 0 266 -25v-217q-125 29 -262 29q-53 0 -101 -14.5t-87 -53.5t-44 -98q119 61 244 61q156 0 241 -69t85 -201q0 -141 -104 -225t-296 -84zM317 1130q4 -84 48.5 -128
t117.5 -44q62 0 96.5 28.5t34.5 80.5q0 48 -33 74t-96 26q-118 0 -168 -37z" />
    <glyph glyph-name="uni2077" unicode="&#x2077;" horiz-adv-x="921" 
d="M199 780l338 650h-463v208h774v-180l-342 -678h-307z" />
    <glyph glyph-name="uni2078" unicode="&#x2078;" horiz-adv-x="921" 
d="M461 764q-424 0 -424 252q0 82 50.5 141t141.5 76q-85 18 -128.5 70t-43.5 129q0 229 404 229q403 0 403 -229q0 -77 -43.5 -129t-128.5 -70q92 -17 142.5 -76t50.5 -141q0 -252 -424 -252zM461 954q72 0 110.5 27.5t38.5 75.5q0 96 -149 96q-150 0 -150 -96
q0 -48 39 -75.5t111 -27.5zM461 1473q-65 0 -101 -24t-36 -65q0 -92 137 -92t137 92q0 41 -36 65t-101 24z" />
    <glyph glyph-name="uni2079" unicode="&#x2079;" horiz-adv-x="921" 
d="M438 1661q221 0 325.5 -113t104.5 -317q0 -95 -24.5 -176t-75.5 -147.5t-139.5 -105t-206.5 -38.5q-185 0 -307 24v218q125 -29 262 -29q86 0 155 40.5t76 125.5q-60 -36 -112.5 -53t-122.5 -17q-153 0 -243.5 72t-90.5 207q0 142 103.5 225.5t295.5 83.5zM606 1294
q-4 84 -48.5 128t-117.5 44q-62 0 -96.5 -28t-34.5 -80q0 -53 38 -81t108 -28q86 0 151 45z" />
    <glyph glyph-name="uni2080" unicode="&#x2080;" horiz-adv-x="921" 
d="M35 227q0 451 424 451q221 0 324.5 -110t103.5 -341q0 -446 -424 -446q-213 0 -320.5 109t-107.5 337zM315 225q0 -123 32.5 -176t117.5 -53q78 0 108.5 52.5t30.5 176.5q0 127 -30 183.5t-115 56.5q-84 0 -114 -57.5t-30 -182.5z" />
    <glyph glyph-name="uni2081" unicode="&#x2081;" horiz-adv-x="921" 
d="M432 -203v582l-211 -113l-106 185l362 204h225v-858h-270z" />
    <glyph glyph-name="uni2082" unicode="&#x2082;" horiz-adv-x="921" 
d="M90 -203v230l287 159q164 90 164 170q0 95 -154 95q-156 0 -274 -52v232q158 47 319 47q90 0 159.5 -16.5t111.5 -43.5t69 -64t37 -73.5t10 -77.5q0 -102 -75 -187t-246 -159l-80 -34v-3h405v-223h-733z" />
    <glyph glyph-name="uni2083" unicode="&#x2083;" horiz-adv-x="921" 
d="M233 141v185h150q152 0 152 65q0 66 -166 66q-169 0 -260 -35v217q137 39 335 39q90 0 159 -14.5t109 -37.5t65 -54.5t33.5 -60.5t8.5 -62q0 -74 -52.5 -123t-160.5 -82v-2q234 -39 234 -201q0 -50 -22 -94t-69.5 -82.5t-136 -61t-209.5 -22.5q-168 0 -309 39v223
q55 -20 112.5 -29.5t84 -10.5t78.5 -1q186 0 186 72q0 36 -33 51.5t-114 15.5h-175z" />
    <glyph glyph-name="uni2084" unicode="&#x2084;" horiz-adv-x="921" 
d="M39 -43v203l434 495h309v-487h123v-211h-123v-160h-268v160h-475zM518 164v287h-2l-252 -287h254z" />
    <glyph glyph-name="uni2085" unicode="&#x2085;" horiz-adv-x="921" 
d="M115 176l26 479h654v-209h-457l-4 -88q98 4 153 4q359 0 359 -272q0 -47 -12 -89t-44 -83t-81.5 -70.5t-129.5 -48t-184 -18.5q-168 0 -291 39v215q87 -33 248 -33q111 0 162 22t51 68q0 44 -50 68t-148 24q-88 0 -252 -8z" />
    <glyph glyph-name="uni2086" unicode="&#x2086;" horiz-adv-x="921" 
d="M485 -219q-221 0 -325.5 113t-104.5 317q0 76 15 142t51 126.5t90.5 104t139.5 69t192 25.5q170 0 266 -25v-217q-125 29 -262 29q-53 0 -101 -14.5t-87 -53.5t-44 -98q119 61 244 61q156 0 241 -69t85 -201q0 -141 -104 -225t-296 -84zM317 147q4 -84 48.5 -128
t117.5 -44q62 0 96.5 28.5t34.5 80.5q0 48 -33 74t-96 26q-118 0 -168 -37z" />
    <glyph glyph-name="uni2087" unicode="&#x2087;" horiz-adv-x="921" 
d="M199 -203l338 649h-463v209h774v-180l-342 -678h-307z" />
    <glyph glyph-name="uni2088" unicode="&#x2088;" horiz-adv-x="921" 
d="M461 -219q-424 0 -424 252q0 82 50.5 141t141.5 76q-85 18 -128.5 70t-43.5 129q0 229 404 229q403 0 403 -229q0 -77 -43.5 -129t-128.5 -70q92 -17 142.5 -76t50.5 -141q0 -252 -424 -252zM461 -29q72 0 110.5 27.5t38.5 75.5q0 96 -149 96q-150 0 -150 -96
q0 -48 39 -75.5t111 -27.5zM461 489q-65 0 -101 -24t-36 -64q0 -92 137 -92t137 92q0 40 -36 64t-101 24z" />
    <glyph glyph-name="uni2089" unicode="&#x2089;" horiz-adv-x="921" 
d="M438 678q221 0 325.5 -113t104.5 -317q0 -95 -24.5 -176t-75.5 -147.5t-139.5 -105t-206.5 -38.5q-185 0 -307 24v218q125 -29 262 -29q86 0 155 40.5t76 125.5q-60 -36 -112.5 -53t-122.5 -17q-153 0 -243.5 72t-90.5 207q0 142 103.5 225.5t295.5 83.5zM606 311
q-4 84 -48.5 128t-117.5 44q-62 0 -96.5 -28t-34.5 -80q0 -53 38 -81t108 -28q86 0 151 45z" />
    <glyph glyph-name="Euro" unicode="&#x20ac;" 
d="M844 1466q299 0 420 -104l-123 -346q-79 76 -254 76q-100 0 -154.5 -29t-79.5 -96h471l-57 -197h-442v-53v-51h405l-55 -199h-322q26 -68 77.5 -96.5t143.5 -28.5q202 0 345 107v-408q-161 -74 -383 -74q-288 0 -440.5 122.5t-194.5 377.5h-160l53 199h90v32q0 49 2 72
h-145l55 197h109q46 255 199.5 377t439.5 122z" />
    <glyph glyph-name="uni20B4" unicode="&#x20b4;" horiz-adv-x="1288" 
d="M70 489v183h245q12 8 72 56t72 56h-389v183h583q43 46 43 94q0 96 -137 96q-102 0 -173.5 -9t-145.5 -36v313q212 37 432 37q109 0 194.5 -22t136.5 -56t83.5 -79.5t44.5 -86.5t12 -83q0 -94 -45 -168h123v-183h-267q-10 -7 -69.5 -55t-73.5 -57h410v-183h-594
q-31 -33 -31 -88q0 -125 207 -125q166 0 319 60v-316q-203 -49 -448 -49q-97 0 -177.5 16.5t-133.5 42.5t-93.5 61.5t-62.5 69.5t-35.5 71t-17.5 61.5t-4 44.5q0 77 32 151h-112z" />
    <glyph glyph-name="uni20B8" unicode="&#x20b8;" horiz-adv-x="1280" 
d="M432 0v909h-391v213h1198v-213h-391v-909h-416zM41 1219v215h1198v-215h-1198z" />
    <glyph glyph-name="uni20BD" unicode="&#x20bd;" 
d="M727 532h-129v-108h389v-256h-389v-168h-414v168h-106v256h106v108h-106v263h106v639q375 10 549 10q161 0 263.5 -23.5t168 -81t91.5 -146.5t26 -228q0 -239 -127 -336t-428 -97zM696 1108q-52 0 -98 -6v-309h92q90 0 129 34.5t39 120.5q0 92 -34 126t-128 34z" />
    <glyph glyph-name="afii61352" unicode="&#x2116;" horiz-adv-x="2322" 
d="M100 0v1434h451l213 -408l213 -410v410v408h399v-1434h-430l-223 422l-223 422v-422v-422h-400zM1530 223v283h733v-283h-733zM1509 1034q0 428 379 428q91 0 162 -25t114.5 -65.5t71.5 -97.5t39 -115.5t11 -124.5q0 -65 -10.5 -123t-37.5 -115t-70 -98t-112.5 -66.5
t-159.5 -25.5t-159.5 25.5t-111.5 66.5t-69 98.5t-37 115t-10 122.5zM1800 1034q0 -85 20 -133.5t76 -48.5t76.5 48.5t20.5 133.5t-20.5 134t-76.5 49q-29 0 -49 -14.5t-30 -42.5t-13.5 -57.5t-3.5 -68.5z" />
    <glyph glyph-name="uni2120" unicode="&#x2120;" horiz-adv-x="1781" 
d="M817 768v666h250l160 -318h4l160 318h247v-666h-215v356l-120 -225h-150l-119 225h-2v-356h-215zM694 1419v-200q-105 57 -227 57q-58 0 -80 -9t-22 -28t28 -30t69.5 -16t90.5 -18t90.5 -32t69.5 -61.5t28 -104.5q0 -46 -9.5 -80.5t-33.5 -64t-63.5 -48t-101 -29
t-144.5 -10.5q-130 0 -252 41v207q98 -67 246 -67q66 0 90.5 9t24.5 30q0 16 -21 26.5t-54.5 17t-73.5 14t-80.5 22t-74 36t-54.5 60.5t-21 92q0 118 76.5 168.5t269.5 50.5q100 0 229 -33z" />
    <glyph glyph-name="trademark" unicode="&#x2122;" horiz-adv-x="1761" 
d="M293 770v467h-199v197h627v-197h-199v-467h-229zM797 770v664h250l159 -318h4l158 318h250v-664h-215v354h-2l-119 -223h-149l-119 223h-2v-354h-215z" />
    <glyph glyph-name="onethird" unicode="&#x2153;" horiz-adv-x="1945" 
d="M350 -45l887 1520h223l-889 -1520h-221zM1294 346v184h150q151 0 151 66q0 33 -38.5 49.5t-126.5 16.5q-170 0 -261 -35v217q137 39 336 39q111 0 189.5 -21.5t116.5 -57.5t53.5 -72.5t15.5 -78.5q0 -74 -52.5 -122.5t-160.5 -81.5v-3q234 -39 234 -200q0 -50 -22 -94
t-69.5 -82.5t-136 -61t-209.5 -22.5q-168 0 -309 39v223q55 -20 112.5 -29.5t84 -10.5t78.5 -1q186 0 186 72q0 36 -33.5 51.5t-114.5 15.5h-174zM336 575v582l-211 -113l-107 185l363 205h225v-859h-270z" />
    <glyph glyph-name="twothirds" unicode="&#x2154;" horiz-adv-x="1945" 
d="M434 -45l887 1520h223l-889 -1520h-221zM1343 346v184h150q152 0 152 66t-166 66q-169 0 -260 -35v217q137 39 335 39q111 0 189.5 -21.5t116.5 -57.5t53.5 -72.5t15.5 -78.5q0 -74 -52.5 -122.5t-160.5 -81.5v-3q234 -39 234 -200q0 -50 -22 -94t-69.5 -82.5t-136 -61
t-209.5 -22.5q-168 0 -309 39v223q55 -20 112.5 -29.5t84 -10.5t78.5 -1q186 0 186 72q0 36 -33 51.5t-114 15.5h-175zM4 575v230l287 160q164 90 164 170q0 94 -154 94q-158 0 -274 -51v231q158 47 319 47q90 0 159.5 -16.5t111.5 -43t69 -63.5t37 -73.5t10 -77.5
q0 -102 -75 -187t-246 -159l-80 -35v-2h405v-224h-733z" />
    <glyph glyph-name="oneeighth" unicode="&#x215b;" horiz-adv-x="1945" 
d="M332 -45l887 1520h223l-889 -1520h-221zM1501 -14q-424 0 -424 252q0 82 50.5 141t142.5 76q-85 18 -128.5 70t-43.5 128q0 230 403 230q404 0 404 -230q0 -76 -43.5 -128t-128.5 -70q91 -17 141.5 -76t50.5 -141q0 -252 -424 -252zM1501 176q72 0 111 27.5t39 75.5
q0 96 -150 96q-149 0 -149 -96q0 -48 38.5 -75.5t110.5 -27.5zM1501 694q-65 0 -101 -24t-36 -64q0 -92 137 -92t137 92q0 40 -36 64t-101 24zM336 575v582l-211 -113l-107 185l363 205h225v-859h-270z" />
    <glyph glyph-name="threeeighths" unicode="&#x215c;" horiz-adv-x="1945" 
d="M362 -45l887 1520h224l-889 -1520h-222zM1526 -14q-424 0 -424 252q0 82 50.5 141t141.5 76q-85 18 -128.5 70t-43.5 128q0 230 404 230q403 0 403 -230q0 -76 -43.5 -128t-128.5 -70q92 -17 142.5 -76t50.5 -141q0 -252 -424 -252zM1526 176q72 0 110.5 27.5t38.5 75.5
q0 96 -149 96q-150 0 -150 -96q0 -48 39 -75.5t111 -27.5zM1526 694q-65 0 -101 -24t-36 -64q0 -92 137 -92t137 92q0 40 -36 64t-101 24zM150 920v184h149q152 0 152 65q0 66 -166 66q-169 0 -260 -35v217q137 39 335 39q90 0 159 -14.5t109 -37.5t65 -54.5t33.5 -60.5
t8.5 -62q0 -74 -52.5 -123t-160.5 -82v-2q234 -39 234 -201q0 -50 -22 -94t-69.5 -82.5t-136 -61t-209.5 -22.5q-168 0 -309 39v223q55 -20 112.5 -29.5t84 -10.5t78.5 -1q186 0 186 72q0 36 -33.5 52t-113.5 16h-174z" />
    <glyph glyph-name="fiveeighths" unicode="&#x215d;" horiz-adv-x="1945" 
d="M365 -45l886 1520h224l-889 -1520h-221zM1526 -14q-424 0 -424 252q0 82 50.5 141t141.5 76q-85 18 -128.5 70t-43.5 128q0 230 404 230q403 0 403 -230q0 -76 -43.5 -128t-128.5 -70q92 -17 142.5 -76t50.5 -141q0 -252 -424 -252zM1526 176q72 0 110.5 27.5t38.5 75.5
q0 96 -149 96q-150 0 -150 -96q0 -48 39 -75.5t111 -27.5zM1526 694q-65 0 -101 -24t-36 -64q0 -92 137 -92t137 92q0 40 -36 64t-101 24zM23 954l26 480h653v-209h-456l-4 -88q98 4 153 4q359 0 359 -273q0 -47 -12 -89t-44 -83t-81.5 -70.5t-129.5 -48t-184 -18.5
q-168 0 -291 39v215q87 -33 248 -33q111 0 162 22t51 68q0 44 -50.5 68.5t-148.5 24.5q-67 0 -251 -9z" />
    <glyph glyph-name="seveneighths" unicode="&#x215e;" horiz-adv-x="1945" 
d="M309 -45l887 1520h223l-889 -1520h-221zM1511 -14q-424 0 -424 252q0 82 50.5 141t142.5 76q-85 18 -128.5 70t-43.5 128q0 230 403 230q404 0 404 -230q0 -76 -43.5 -128t-128.5 -70q91 -17 141.5 -76t50.5 -141q0 -252 -424 -252zM1511 176q72 0 111 27.5t39 75.5
q0 96 -150 96q-149 0 -149 -96q0 -48 38.5 -75.5t110.5 -27.5zM1511 694q-65 0 -101 -24t-36 -64q0 -92 137 -92q138 0 138 92q0 40 -36.5 64t-101.5 24zM168 575l338 650h-463v209h774v-181l-342 -678h-307z" />
    <glyph glyph-name="minus" unicode="&#x2212;" horiz-adv-x="1214" 
d="M102 524v285h1010v-285h-1010z" />
    <glyph glyph-name="infinity" unicode="&#x221e;" horiz-adv-x="1587" 
d="M907 444l-112 111l-105 -111q-100 -108 -262 -108q-71 0 -131 23.5t-100.5 62.5t-68.5 89.5t-41 103.5t-13 106q0 54 13 108.5t41 106.5t68.5 92.5t100.5 65t131 24.5q155 0 262 -112l105 -111l112 111q112 112 258 112q105 0 187 -54.5t125 -144.5t43 -198
q0 -53 -12.5 -105.5t-41 -103.5t-69 -89.5t-101 -62.5t-133.5 -24q-148 0 -256 108zM938 721l76 -72q35 -33 63 -48t66 -15q49 0 84 36.5t35 96.5q0 69 -34 109t-81 40q-40 0 -73.5 -16t-72.5 -61zM657 721l-79 84q-33 36 -59.5 49.5t-67.5 13.5q-55 0 -86 -42.5t-31 -104.5
t33.5 -98.5t78.5 -36.5q72 0 148 73z" />
    <glyph glyph-name="approxequal" unicode="&#x2248;" horiz-adv-x="1218" 
d="M135 256v266q106 135 240 135q58 0 130 -21.5t127.5 -48t121.5 -48t114 -21.5q63 0 113.5 23.5t101.5 76.5v-264q-97 -118 -239 -118q-57 0 -121.5 21.5t-113 48t-113 48t-121.5 21.5q-64 0 -139.5 -38.5t-100.5 -80.5zM135 705v266q106 135 240 135q58 0 130 -21.5
t127.5 -48t121.5 -48t114 -21.5q63 0 113.5 23.5t101.5 76.5v-264q-97 -119 -239 -119q-57 0 -121.5 21.5t-113 48t-113 48t-121.5 21.5q-65 0 -140 -38t-100 -80z" />
    <glyph glyph-name="notequal" unicode="&#x2260;" horiz-adv-x="1214" 
d="M102 750v284h598l115 197h232l-115 -197h180v-284h-344l-90 -154h434v-285h-598l-115 -198h-231l115 198h-181v285h344l91 154h-435z" />
    <glyph glyph-name="lessequal" unicode="&#x2264;" horiz-adv-x="1208" 
d="M102 57v285h1004v-285h-1004zM102 741v273l1004 344v-291l-631 -188v-5l631 -186v-291z" />
    <glyph glyph-name="greaterequal" unicode="&#x2265;" horiz-adv-x="1208" 
d="M102 57v285h1004v-285h-1004zM102 397v291l631 186v5l-631 188v291l1004 -344v-273z" />
    <glyph glyph-name="lozenge" unicode="&#x25ca;" horiz-adv-x="1245" 
d="M623 -29l-572 746l572 745l571 -745zM623 424l227 293l-227 291l-228 -291z" />
    <glyph glyph-name="uniF406" unicode="&#xf406;" horiz-adv-x="819" 
d="M20 1847l222 58q43 -140 168 -140t168 140l221 -58q-57 -311 -389 -311q-333 0 -390 311z" />
    <glyph glyph-name="uniF407" unicode="&#xf407;" horiz-adv-x="819" 
d="M213 -236l43 236h207l-25 -106q48 0 90.5 -11.5t79.5 -34.5t58.5 -64t21.5 -95q0 -108 -91 -171t-232 -63q-146 0 -234 35l27 158q61 -25 129 -25q129 0 129 74q0 29 -21 45t-48 20.5t-68 4.5q-36 0 -66 -3z" />
    <glyph glyph-name="uniF408" unicode="&#xf408;" horiz-adv-x="819" 
d="M-61 1536l276 369h393l273 -369h-293l-176 199l-179 -199h-294z" />
    <glyph glyph-name="uniF409" unicode="&#xf409;" horiz-adv-x="819" 
d="M229 -412q20 -2 60 -2q128 0 145 74q-250 0 -250 121q0 60 59.5 94.5t155.5 34.5q107 0 172.5 -51t65.5 -148q0 -116 -93 -186t-239 -70q-49 0 -76 4v129z" />
    <glyph glyph-name="uniF40A" unicode="&#xf40a;" horiz-adv-x="542" 
d="M92 1004l94 430h357l-197 -430h-254z" />
    <glyph glyph-name="uniF40B" unicode="&#xf40b;" horiz-adv-x="819" 
d="M180 1720q0 205 230 205q229 0 229 -205q0 -204 -229 -204q-230 0 -230 204z" />
    <glyph glyph-name="uniF40C" unicode="&#xf40c;" horiz-adv-x="819" 
d="M127 1741q0 115 80.5 192.5t202.5 77.5q121 0 201.5 -77.5t80.5 -192.5q0 -117 -80 -194t-202 -77q-123 0 -203 77t-80 194zM311 1741q0 -39 26.5 -62.5t72.5 -23.5t72 23.5t26 62.5t-26 62.5t-72 23.5t-72.5 -23.5t-26.5 -62.5z" />
    <glyph glyph-name="uniF40D" unicode="&#xf40d;" horiz-adv-x="819" 
d="M154 1554l-195 25q6 148 76.5 227.5t181.5 79.5q12 0 23 -0.5t24 -3t22 -4t23.5 -6t21 -6.5t24 -8t22.5 -8t25 -9.5t24 -9.5q71 -28 96.5 -35.5t52.5 -7.5q38 0 62.5 27.5t30.5 70.5l192 -24q-6 -140 -74.5 -224t-183.5 -84q-23 0 -42 2t-44 9.5t-34 10.5t-44.5 17
t-42.5 17q-14 6 -43.5 18t-41 16t-30.5 8.5t-36 4.5q-31 0 -57.5 -29.5t-32.5 -73.5z" />
    <glyph glyph-name="uniF40E" unicode="&#xf40e;" horiz-adv-x="819" 
d="M438 20l160 -20q-99 -60 -142.5 -117.5t-43.5 -134.5q0 -59 36 -87t93 -28q63 0 131 37v-170q-106 -45 -217 -45q-61 0 -110.5 10t-82.5 28.5t-56 40.5t-35.5 49t-18 51.5t-5.5 50.5q0 107 82 193t209 142z" />
    <glyph glyph-name="zero.tab" unicode="&#xf4e0;" 
d="M84 715q0 386 140 566.5t438 180.5q163 0 275 -44t181 -139t99 -231.5t30 -332.5q0 -387 -139 -565.5t-440 -178.5q-307 0 -445.5 179.5t-138.5 564.5zM498 709q0 -88 3.5 -147t14.5 -111.5t30.5 -82t51 -46.5t76.5 -17q97 0 128.5 91t31.5 313q0 76 -2 126.5t-8 102.5
t-17.5 83.5t-30.5 57.5t-47 37.5t-67 11.5q-37 0 -64 -12t-45 -38.5t-29 -58.5t-16.5 -84t-7.5 -101.5t-2 -124.5z" />
    <glyph glyph-name="one.tab" unicode="&#xf4e1;" 
d="M150 0v334h425v657l-425 -233v356l555 320h284v-1100h238v-334h-1077z" />
    <glyph glyph-name="two.tab" unicode="&#xf4e2;" 
d="M115 0v264q213 134 308 206q312 238 312 431q0 102 -45 148.5t-153 46.5q-236 0 -396 -154v432q205 88 486 88q132 0 232 -23t162 -62t101 -96t53.5 -118.5t14.5 -136.5q0 -69 -17 -134.5t-42.5 -118t-68 -106t-81 -91.5t-94.5 -82.5t-95 -71.5t-96 -64h500v-358h-1081z
" />
    <glyph glyph-name="three.tab" unicode="&#xf4e3;" 
d="M408 565v318h155q79 0 120 12t55 35.5t14 68.5q0 37 -15 58.5t-62.5 35t-133.5 13.5q-104 0 -214.5 -31t-197.5 -86v391q113 37 261.5 59.5t260.5 22.5q135 0 233.5 -20t157.5 -52.5t94.5 -83.5t47.5 -104t12 -123q0 -261 -281 -340q316 -53 316 -333q0 -81 -18 -145
t-62.5 -120t-115.5 -92.5t-181.5 -57t-257.5 -20.5q-118 0 -254.5 22t-239.5 62v398q92 -58 209.5 -91.5t227.5 -33.5q80 0 130.5 8.5t75.5 26t33 37.5t8 51q0 42 -12.5 64.5t-54 36t-121.5 13.5h-190z" />
    <glyph glyph-name="four.tab" unicode="&#xf4e4;" 
d="M59 274v220l549 940h529v-799h147v-361h-147v-274h-416v274h-662zM727 631v426l-229 -426h229z" />
    <glyph glyph-name="five.tab" unicode="&#xf4e5;" 
d="M139 602l43 832h948v-336h-641l-10 -183q97 19 228 19q138 0 234 -30t152.5 -90t81.5 -140.5t25 -190.5q0 -98 -17 -172.5t-60.5 -140.5t-115 -108.5t-184 -66.5t-264.5 -24q-91 0 -209.5 18.5t-224.5 51.5v395q74 -43 186 -76.5t238 -33.5q130 0 181.5 36.5t51.5 124.5
q0 53 -20 85.5t-77 51.5t-157 19q-90 0 -205.5 -13t-183.5 -28z" />
    <glyph glyph-name="six.tab" unicode="&#xf4e6;" 
d="M682 -29q-141 0 -246 29t-176.5 84t-116 142t-63.5 194.5t-19 249.5q0 149 23.5 269t77 219t136.5 165.5t206 102.5t282 36q197 0 390 -61v-391q-155 108 -388 108q-99 0 -180.5 -34t-133.5 -104.5t-52 -166.5v-33q127 160 369 160q244 0 356.5 -114.5t112.5 -346.5
q0 -261 -141 -384.5t-437 -123.5zM475 541q-7 -139 39.5 -198.5t142.5 -59.5q86 0 132.5 44t46.5 144q0 111 -38 153t-130 42q-86 0 -129 -32t-64 -93z" />
    <glyph glyph-name="seven.tab" unicode="&#xf4e7;" 
d="M285 0l506 1079h-693v355h1149v-238l-522 -1196h-440z" />
    <glyph glyph-name="eight.tab" unicode="&#xf4e8;" 
d="M53 389q0 153 66 241t221 130q-136 41 -194 117.5t-58 209.5q0 184 139 279.5t447 95.5q301 0 435 -89.5t134 -285.5q0 -123 -56.5 -202t-191.5 -125q161 -35 222 -122t61 -245q0 -99 -33 -175t-103.5 -132.5t-188 -85.5t-279.5 -29q-173 0 -293 26.5t-192 80.5
t-104 129.5t-32 181.5zM477 451q0 -95 50 -136t147 -41q83 0 131.5 44.5t48.5 136.5q0 86 -44 124.5t-144 38.5q-94 0 -141.5 -43.5t-47.5 -123.5zM496 1010q0 -82 41.5 -117t130.5 -35q92 0 130 38t38 116q0 80 -38.5 113.5t-133.5 33.5q-91 0 -129.5 -36.5t-38.5 -112.5z
" />
    <glyph glyph-name="nine.tab" unicode="&#xf4e9;" 
d="M639 1462q141 0 246 -29t176.5 -84t116 -141.5t63.5 -194t19 -249.5q0 -149 -23.5 -269t-77 -219.5t-136.5 -165.5t-206 -102.5t-282 -36.5q-193 0 -390 62v391q156 -109 387 -109q99 0 181 34t134 105t52 167v32q-126 -159 -369 -159q-244 0 -356.5 114t-112.5 346
q0 261 141 384.5t437 123.5zM846 893q7 139 -39.5 198.5t-142.5 59.5q-86 0 -132.5 -44t-46.5 -144q0 -104 39.5 -149.5t128.5 -45.5q86 0 129 32t64 93z" />
    <glyph glyph-name="dollar.tab" unicode="&#xf4ec;" 
d="M799 406q0 35 -38.5 59.5t-100 42.5t-135.5 39t-148.5 57t-136 87.5t-100 140.5t-38.5 206q0 360 420 416v184h316v-178q207 -15 336 -63v-387q-92 55 -207 89t-230 34q-117 0 -167 -29.5t-50 -71.5q0 -27 25 -47t67.5 -35t98 -29.5t116.5 -33t121.5 -42.5t116 -61.5
t98 -85.5t67.5 -120t25 -160q0 -367 -417 -434v-230h-316v217q-255 16 -401 84v394q110 -68 191 -98q135 -50 282 -50q102 0 153.5 30t51.5 75z" />
    <glyph glyph-name="Euro.tab" unicode="&#xf4ed;" 
d="M844 1466q299 0 420 -104l-123 -346q-79 76 -254 76q-100 0 -154.5 -29t-79.5 -96h471l-57 -197h-442v-104h405l-55 -199h-322q26 -68 77.5 -96.5t143.5 -28.5q202 0 345 107v-408q-161 -74 -383 -74q-288 0 -440.5 122.5t-194.5 377.5h-160l53 199h90v32q0 49 2 72h-145
l55 197h109q46 255 199.5 377t439.5 122z" />
    <glyph glyph-name="cent.tab" unicode="&#xf4ee;" 
d="M639 -246v228q-122 16 -213 68t-144 132t-78.5 177t-25.5 212q0 110 27 205t81.5 173t144.5 129.5t208 66.5v186h215v-180q164 -12 279 -64v-301q-75 30 -138.5 44t-156.5 14q-130 0 -202.5 -73t-72.5 -198q0 -130 78 -210t236 -80q156 0 266 63v-299q-129 -61 -289 -72
v-221h-215z" />
    <glyph glyph-name="sterling.tab" unicode="&#xf4ef;" 
d="M129 0v330h176v262h-176v282h176v99q0 226 145 357.5t410 131.5q173 0 357 -43v-325q-134 39 -261 39q-115 0 -176 -52.5t-61 -156.5v-50h323v-282h-323v-262h502v-330h-1092z" />
    <glyph glyph-name="yen.tab" unicode="&#xf4fa;" 
d="M150 250v199h309v65l-25 47h-284v199h186l-336 674h473l197 -473l188 473h475l-336 -674h187v-199h-287l-23 -47v-65h310v-199h-310v-250h-415v250h-309z" />
    <glyph glyph-name="florin.tab" unicode="&#xf4fb;" 
d="M-14 -438l63 305q46 -8 90 -8q29 0 52 6t48 22.5t43.5 51.5t28.5 88l144 708h-176l63 309h176l25 117q36 186 158 288.5t331 102.5q103 0 215 -22l-59 -297q-48 12 -98 12q-91 0 -132 -37.5t-59 -126.5l-8 -37h244l-64 -309h-244l-143 -704q-51 -249 -182 -367.5
t-355 -118.5q-99 0 -161 17z" />
    <glyph glyph-name="uni20B4.tab" unicode="&#xf4fc;" 
d="M92 489v183h246q12 8 71.5 55.5t71.5 56.5h-389v183h584q43 46 43 94q0 96 -137 96q-102 0 -174 -9t-146 -36v313q212 37 432 37q109 0 194.5 -22t136.5 -56t83.5 -79.5t44.5 -86.5t12 -83q0 -94 -45 -168h123v-183h-266q-10 -7 -69.5 -55t-73.5 -57h409v-183h-594
q-31 -33 -31 -88q0 -125 207 -125q167 0 320 60v-316q-203 -49 -449 -49q-97 0 -177.5 16.5t-133.5 42.5t-93.5 61.5t-62.5 69.5t-35.5 71t-17.5 61.5t-4 44.5q0 75 33 151h-113z" />
    <glyph glyph-name="uni20BD.tab" unicode="&#xf4fd;" 
d="M690 532h-129v-108h389v-256h-389v-168h-414v168h-106v256h106v108h-106v263h106v639q375 10 549 10q161 0 263.5 -23.5t168 -81t91.5 -146.5t26 -228q0 -239 -127 -336t-428 -97zM659 1108q-51 0 -98 -6v-309h92q90 0 129 34.5t39 120.5q0 92 -34 126t-128 34z" />
    <glyph glyph-name="uni20B8.tab" unicode="&#xf5f3;" 
d="M459 0v909h-391v213h1198v-213h-392v-909h-415zM68 1219v215h1198v-215h-1198z" />
    <glyph glyph-name="zero.denominator" unicode="&#xf655;" horiz-adv-x="921" 
d="M35 430q0 451 424 451q221 0 324.5 -110t103.5 -341q0 -446 -424 -446q-213 0 -320.5 109t-107.5 337zM315 428q0 -123 32.5 -176t117.5 -53q78 0 108.5 52.5t30.5 176.5q0 127 -30 183.5t-115 56.5q-84 0 -114 -57.5t-30 -182.5z" />
    <glyph glyph-name="one.denominator" unicode="&#xf656;" horiz-adv-x="921" 
d="M432 0v582l-211 -113l-106 184l362 205h225v-858h-270z" />
    <glyph glyph-name="two.denominator" unicode="&#xf657;" horiz-adv-x="921" 
d="M90 0v229l287 160q164 90 164 170q0 94 -154 94q-158 0 -274 -51v232q158 47 319 47q90 0 159.5 -16.5t111.5 -43.5t69 -64t37 -73.5t10 -77.5q0 -102 -75 -187t-246 -159l-80 -35v-2h405v-223h-733z" />
    <glyph glyph-name="three.denominator" unicode="&#xf658;" horiz-adv-x="921" 
d="M233 344v184h150q152 0 152 66q0 33 -38.5 49t-127.5 16q-172 0 -260 -34v217q137 39 335 39q111 0 189.5 -21.5t116.5 -57.5t53.5 -72.5t15.5 -78.5q0 -74 -52.5 -123t-160.5 -82v-2q234 -39 234 -200q0 -50 -22 -94t-69.5 -82.5t-136 -61t-209.5 -22.5q-168 0 -309 39
v223q55 -20 112.5 -29.5t84 -10.5t78.5 -1q102 0 144 18t42 53q0 36 -33.5 52t-113.5 16h-175z" />
    <glyph glyph-name="four.denominator" unicode="&#xf659;" horiz-adv-x="921" 
d="M39 160v202l434 496h309v-487h123v-211h-123v-160h-268v160h-475zM518 367v286h-2l-252 -286h254z" />
    <glyph glyph-name="five.denominator" unicode="&#xf65a;" horiz-adv-x="921" 
d="M115 379l26 479h654v-209h-457l-4 -88q98 4 153 4q359 0 359 -272q0 -47 -12 -89t-44 -83t-81.5 -70.5t-129.5 -48t-184 -18.5q-168 0 -291 39v215q87 -33 248 -33q111 0 162 22t51 68q0 44 -50 68t-148 24q-88 0 -252 -8z" />
    <glyph glyph-name="six.denominator" unicode="&#xf65b;" horiz-adv-x="921" 
d="M485 -16q-221 0 -325.5 113t-104.5 317q0 76 15 142t51 126.5t90.5 104t139.5 69t192 25.5q170 0 266 -25v-217q-125 29 -262 29q-53 0 -101 -14.5t-87 -53.5t-44 -98q119 61 244 61q156 0 241 -69t85 -201q0 -141 -104 -225t-296 -84zM317 350q4 -84 48.5 -128
t117.5 -44q62 0 96.5 28.5t34.5 80.5q0 48 -33 74t-96 26q-118 0 -168 -37z" />
    <glyph glyph-name="seven.denominator" unicode="&#xf65c;" horiz-adv-x="921" 
d="M199 0l338 649h-463v209h774v-180l-342 -678h-307z" />
    <glyph glyph-name="eight.denominator" unicode="&#xf65d;" horiz-adv-x="921" 
d="M461 -16q-424 0 -424 252q0 82 50.5 141t141.5 76q-85 18 -128.5 70t-43.5 128q0 230 404 230q403 0 403 -230q0 -76 -43.5 -128t-128.5 -70q92 -17 142.5 -76t50.5 -141q0 -252 -424 -252zM461 174q72 0 110.5 27t38.5 75q0 97 -149 97q-150 0 -150 -97q0 -48 38.5 -75
t111.5 -27zM461 692q-65 0 -101 -24t-36 -64q0 -92 137 -92t137 92q0 40 -36 64t-101 24z" />
    <glyph glyph-name="nine.denominator" unicode="&#xf65e;" horiz-adv-x="921" 
d="M438 881q221 0 325.5 -113t104.5 -317q0 -95 -24.5 -176t-75.5 -147.5t-139.5 -105t-206.5 -38.5q-185 0 -307 24v217q120 -28 262 -28q53 0 101 14t86.5 53t43.5 98q-59 -35 -112 -52t-123 -17q-153 0 -243.5 71.5t-90.5 206.5q0 142 103.5 226t295.5 84zM606 514
q-4 84 -48.5 128t-117.5 44q-62 0 -96.5 -28t-34.5 -80q0 -53 38 -81t108 -28q86 0 151 45z" />
    <glyph glyph-name="zero.numerator" unicode="&#xf661;" horiz-adv-x="921" 
d="M35 1006q0 450 424 450q221 0 324.5 -109.5t103.5 -340.5q0 -447 -424 -447q-213 0 -320.5 109.5t-107.5 337.5zM315 1004q0 -123 32.5 -176.5t117.5 -53.5q78 0 108.5 53t30.5 177q0 127 -30 183t-115 56q-84 0 -114 -57t-30 -182z" />
    <glyph glyph-name="one.numerator" unicode="&#xf662;" horiz-adv-x="921" 
d="M432 575v582l-211 -113l-106 185l362 205h225v-859h-270z" />
    <glyph glyph-name="two.numerator" unicode="&#xf663;" horiz-adv-x="921" 
d="M90 575v230l287 160q164 90 164 170q0 94 -154 94q-158 0 -274 -51v231q158 47 319 47q90 0 159.5 -16.5t111.5 -43t69 -63.5t37 -73.5t10 -77.5q0 -102 -75 -187t-246 -159l-80 -35v-2h405v-224h-733z" />
    <glyph glyph-name="three.numerator" unicode="&#xf664;" horiz-adv-x="921" 
d="M233 920v184h150q152 0 152 65q0 66 -166 66q-169 0 -260 -35v217q137 39 335 39q90 0 159 -14.5t109 -37.5t65 -54.5t33.5 -60.5t8.5 -62q0 -74 -52.5 -123t-160.5 -82v-2q234 -39 234 -201q0 -50 -22 -94t-69.5 -82.5t-136 -61t-209.5 -22.5q-168 0 -309 39v223
q55 -20 112.5 -29.5t84 -10.5t78.5 -1q186 0 186 72q0 36 -33.5 52t-113.5 16h-175z" />
    <glyph glyph-name="four.numerator" unicode="&#xf665;" horiz-adv-x="921" 
d="M39 735v203l434 496h309v-488h123v-211h-123v-160h-268v160h-475zM518 942v287h-2l-252 -287h254z" />
    <glyph glyph-name="five.numerator" unicode="&#xf666;" horiz-adv-x="921" 
d="M115 954l26 480h654v-209h-457l-4 -88q98 4 153 4q359 0 359 -273q0 -47 -12 -89t-44 -83t-81.5 -70.5t-129.5 -48t-184 -18.5q-168 0 -291 39v215q87 -33 248 -33q111 0 162 22t51 68q0 44 -50 68.5t-148 24.5q-67 0 -252 -9z" />
    <glyph glyph-name="six.numerator" unicode="&#xf667;" horiz-adv-x="921" 
d="M485 559q-221 0 -325.5 113t-104.5 317q0 76 15 142t51 126.5t90.5 104t139.5 69t192 25.5q174 0 266 -24v-218q-125 29 -262 29q-53 0 -101 -14.5t-87 -53.5t-44 -98q121 62 244 62q155 0 240.5 -69.5t85.5 -201.5q0 -141 -104 -225t-296 -84zM317 926q4 -84 48.5 -128
t117.5 -44q62 0 96.5 28t34.5 80q0 48 -33.5 74.5t-95.5 26.5q-118 0 -168 -37z" />
    <glyph glyph-name="seven.numerator" unicode="&#xf668;" horiz-adv-x="921" 
d="M199 575l338 650h-463v209h774v-181l-342 -678h-307z" />
    <glyph glyph-name="eight.numerator" unicode="&#xf669;" horiz-adv-x="921" 
d="M461 559q-424 0 -424 252q0 82 50.5 141t141.5 76q-85 18 -128.5 70t-43.5 129q0 229 404 229q403 0 403 -229q0 -77 -43.5 -129t-128.5 -70q92 -17 142.5 -76t50.5 -141q0 -252 -424 -252zM461 750q72 0 110.5 27t38.5 75q0 96 -149 96q-150 0 -150 -96q0 -48 38.5 -75
t111.5 -27zM461 1268q-65 0 -101 -24t-36 -64q0 -93 137 -93t137 93q0 40 -36 64t-101 24z" />
    <glyph glyph-name="nine.numerator" unicode="&#xf66a;" horiz-adv-x="921" 
d="M438 1456q221 0 325.5 -113t104.5 -317q0 -95 -24.5 -176t-75.5 -147.5t-139.5 -105t-206.5 -38.5q-180 0 -307 25v217q125 -29 262 -29q86 0 155 40.5t76 125.5q-60 -36 -112.5 -53t-122.5 -17q-153 0 -243.5 72t-90.5 207q0 142 103.5 225.5t295.5 83.5zM606 1090
q-4 84 -48.5 128t-117.5 44q-62 0 -96.5 -28.5t-34.5 -80.5q0 -53 38 -81t108 -28q85 0 151 46z" />
    <glyph glyph-name="uniF6BA" unicode="&#xf6ba;" horiz-adv-x="1040" 
d="M164 588v286h713v-286h-713z" />
    <glyph glyph-name="uniF6BB" unicode="&#xf6bb;" horiz-adv-x="1492" 
d="M164 600v260h1165v-260h-1165z" />
    <glyph glyph-name="uniF6BC" unicode="&#xf6bc;" horiz-adv-x="1820" 
d="M164 600v260h1493v-260h-1493z" />
    <glyph glyph-name="uniF6C3" unicode="&#xf6c3;" horiz-adv-x="819" 
d="M246 -401q20 -2 55 -2q53 0 87.5 20.5t43.5 56.5q-227 0 -227 115q0 56 54 88.5t142 32.5q97 0 156 -48t59 -138q0 -108 -85 -178t-216 -70q-33 0 -69 4v119z" />
    <glyph glyph-name="uniF6C9" unicode="&#xf6c9;" horiz-adv-x="819" 
d="M59 1526l242 389h475l-426 -389h-291z" />
    <glyph glyph-name="uniF6CA" unicode="&#xf6ca;" horiz-adv-x="819" 
d="M215 1536l-276 369h294l179 -197l176 197h293l-273 -369h-393z" />
    <glyph glyph-name="uniF6CB" unicode="&#xf6cb;" horiz-adv-x="819" 
d="M-82 1720q0 193 217 193t217 -193q0 -192 -217 -192t-217 192zM467 1720q0 193 217 193t217 -193q0 -192 -217 -192t-217 192z" />
    <glyph glyph-name="uniF6CE" unicode="&#xf6ce;" horiz-adv-x="819" 
d="M35 1915h475l242 -389h-291z" />
    <glyph glyph-name="uniF6CF" unicode="&#xf6cf;" horiz-adv-x="819" 
d="M-143 1536l82 369h372l-205 -369h-249zM262 1536l205 369h455l-369 -369h-291z" />
    <glyph glyph-name="uniF6D0" unicode="&#xf6d0;" horiz-adv-x="819" 
d="M31 1602v237h757v-237h-757z" />
    <glyph glyph-name="uniF6D1" unicode="&#xf6d1;" horiz-adv-x="819" 
d="M0 1905h295q0 -92 25 -124t90 -32q70 0 96 32t26 124h287q0 -196 -106.5 -282.5t-302.5 -86.5t-303 86.5t-107 282.5z" />
    <glyph glyph-name="uniF6D4" unicode="&#xf6d4;" horiz-adv-x="819" 
d="M20 1638h287q0 -96 23 -129.5t80 -33.5q62 0 86 33t24 130h279q0 -368 -389 -368q-390 0 -390 368z" />
    <glyph glyph-name="uniFEFF" unicode="&#xfeff;" horiz-adv-x="0" 
 />
    <glyph glyph-name="percent.tab" 
d="M41 0l1018 1434h239l-1017 -1434h-240zM18 1104q0 177 81.5 266.5t230.5 89.5q299 0 299 -356q0 -182 -82 -269t-228 -87q-144 0 -222.5 89t-78.5 267zM408 1104q0 158 -82 158q-84 0 -84 -158t84 -158q82 0 82 158zM715 326q0 177 81 266.5t230 89.5q299 0 299 -356
q0 -182 -81.5 -269.5t-227.5 -87.5q-144 0 -222.5 89.5t-78.5 267.5zM1104 326q0 157 -82 157q-42 0 -63 -37t-21 -120q0 -158 84 -158q82 0 82 158z" />
    <glyph glyph-name="plus.tab" 
d="M160 524v285h362v362h287v-362h360v-285h-360v-362h-287v362h-362z" />
    <glyph glyph-name="less.tab" 
d="M143 516v272l1004 345v-291l-631 -189v-4l631 -186v-291z" />
    <glyph glyph-name="equal.tab" 
d="M160 311v285h1009v-285h-1009zM160 750v284h1009v-284h-1009z" />
    <glyph glyph-name="greater.tab" 
d="M184 172v291l631 186v4l-631 189v291l1004 -345v-272z" />
    <glyph glyph-name="multiply.tab" 
d="M193 393l272 273l-272 274l200 201l273 -273l274 273l201 -201l-273 -274l273 -273l-201 -200l-274 272l-273 -272z" />
    <glyph glyph-name="divide.tab" 
d="M487 254q0 80 47.5 126t133.5 46q78 0 127 -47t49 -125q0 -83 -45.5 -128.5t-130.5 -45.5q-84 0 -132.5 46.5t-48.5 127.5zM487 1079q0 82 47.5 128t133.5 46q79 0 127.5 -47.5t48.5 -126.5q0 -82 -46 -127t-130 -45q-83 0 -132 47t-49 125zM160 524v285h1009v-285h-1009
z" />
    <glyph glyph-name="perthousand.tab" 
d="M1036 942l-952 -444l-76 159l957 447zM4 1161q0 148 66 220.5t188 72.5q262 0 262 -293q0 -297 -250 -297q-131 0 -198.5 70.5t-67.5 226.5zM193 1161q0 -61 18 -84.5t57 -23.5q33 0 49 22t17 86q0 57 -17 81t-53 24q-37 0 -54 -24t-17 -81zM211 276q0 148 66 220.5
t188 72.5q262 0 262 -293q0 -296 -250 -296q-131 0 -198.5 70t-67.5 226zM399 276q0 -60 18.5 -84t57.5 -24q33 0 49 22t17 86q0 57 -17 81t-53 24q-38 0 -55 -24t-17 -81zM784 276q0 148 66 220.5t188 72.5q262 0 262 -293q0 -296 -249 -296q-131 0 -199 70t-68 226z
M973 276q0 -60 18.5 -84t57.5 -24q33 0 48.5 22t16.5 86q0 57 -17 81t-53 24q-37 0 -54 -24t-17 -81z" />
    <glyph glyph-name="minus.tab" 
d="M160 524v285h1009v-285h-1009z" />
    <glyph glyph-name="f_b" horiz-adv-x="2392" 
d="M1026 0v1249q-180 15 -229 15q-67 0 -98.5 -18.5t-32.5 -74.5v-45h200v-329h-200v-797h-410v797h-195v329h195v86q0 203 97 293t341 90q74 0 131 -3t118 -8.5t83 -6.5h408v-604q45 80 141 129t248 49q255 0 371 -130.5t116 -436.5q0 -313 -121 -460t-381 -147
q-285 0 -383 162l-10 -139h-389zM1434 584v-49q0 -122 54.5 -180t174.5 -58q112 0 164.5 65t52.5 213q0 76 -15.5 127.5t-46 79t-67.5 38.5t-88 11q-120 0 -174.5 -61.5t-54.5 -185.5z" />
    <glyph glyph-name="f_f_b" horiz-adv-x="3160" 
d="M256 0v797h-195v329h195v86q0 101 21 170.5t71.5 118.5t134.5 71.5t209 22.5q120 0 256 -22v-324q-67 15 -153 15q-68 0 -99.5 -18.5t-31.5 -74.5v-45h360v86q0 203 97 293t341 90q74 0 131 -3t118 -8.5t83 -6.5h408v-604q45 80 141 129t248 49q255 0 371 -130.5
t116 -436.5q0 -313 -121 -460t-381 -147q-285 0 -383 162l-10 -139h-389v1249q-180 15 -229 15q-67 0 -98.5 -18.5t-32.5 -74.5v-45h200v-329h-200v-797h-410v797h-360v-797h-408zM2202 584v-49q0 -122 54.5 -180t174.5 -58q112 0 164.5 65t52.5 213q0 76 -15.5 127.5
t-46 79t-67.5 38.5t-88 11q-120 0 -174.5 -61.5t-54.5 -185.5z" />
    <glyph glyph-name="f_f_h" horiz-adv-x="3102" 
d="M256 0v797h-195v329h195v86q0 101 21 170.5t71.5 118.5t134.5 71.5t209 22.5q120 0 256 -22v-324q-67 15 -153 15q-68 0 -99.5 -18.5t-31.5 -74.5v-45h360v86q0 203 97 293t341 90q74 0 131 -3t118 -8.5t83 -6.5h408v-606q91 180 381 180q214 0 307.5 -103.5t93.5 -326.5
v-721h-408v621q0 108 -40.5 152t-141.5 44q-110 0 -151 -50t-41 -161v-606h-408v1249q-180 15 -229 15q-67 0 -98.5 -18.5t-32.5 -74.5v-45h200v-329h-200v-797h-410v797h-360v-797h-408z" />
    <glyph glyph-name="f_f_j" horiz-adv-x="2334" 
d="M256 0v797h-195v329h195v86q0 101 21 170.5t71.5 118.5t134.5 71.5t209 22.5q120 0 256 -22v-324q-67 15 -153 15q-68 0 -99.5 -18.5t-31.5 -74.5v-45h360v86q0 135 40 217t136.5 124t261.5 42q48 0 195 -16v-324q-7 1 -22.5 3.5t-33 4t-36.5 1.5q-67 0 -98.5 -18.5
t-32.5 -74.5v-45h770v-1146q0 -108 -24.5 -180t-74.5 -111t-114.5 -54.5t-157.5 -15.5q-146 0 -221 29v315q38 -10 92 -10q50 0 70 14t20 49v781h-360v-797h-410v797h-360v-797h-408zM1767 1430q0 82 55.5 132t166.5 50q117 0 172 -49t55 -133t-55 -135.5t-170 -51.5
q-113 0 -168.5 52t-55.5 135z" />
    <glyph glyph-name="f_f_k" horiz-adv-x="3033" 
d="M256 0v797h-195v329h195v86q0 101 21 170.5t71.5 118.5t134.5 71.5t209 22.5q120 0 256 -22v-324q-67 15 -153 15q-68 0 -99.5 -18.5t-31.5 -74.5v-45h360v86q0 203 97 293t341 90q74 0 131 -3t118 -8.5t83 -6.5h408v-815h98l227 364h455l-359 -530l386 -596h-459
l-248 412h-100v-412h-408v1249q-180 15 -229 15q-67 0 -98.5 -18.5t-32.5 -74.5v-45h200v-329h-200v-797h-410v797h-360v-797h-408z" />
    <glyph glyph-name="f_h" horiz-adv-x="2334" 
d="M1026 0v1249q-180 15 -229 15q-67 0 -98.5 -18.5t-32.5 -74.5v-45h200v-329h-200v-797h-410v797h-195v329h195v86q0 203 97 293t341 90q74 0 131 -3t118 -8.5t83 -6.5h408v-606q91 180 381 180q214 0 307.5 -103.5t93.5 -326.5v-721h-408v621q0 108 -40.5 152t-141.5 44
q-110 0 -151 -50t-41 -161v-606h-408z" />
    <glyph glyph-name="f_j" horiz-adv-x="1566" 
d="M999 1430q0 82 55.5 132t166.5 50q117 0 172 -49t55 -133t-55 -135.5t-170 -51.5q-113 0 -168.5 52t-55.5 135zM1026 16v781h-360v-797h-410v797h-195v329h195v86q0 135 40 217t136.5 124t261.5 42q48 0 195 -16v-324q-7 1 -22.5 3.5t-33 4t-36.5 1.5q-67 0 -98.5 -18.5
t-32.5 -74.5v-45h770v-1146q0 -108 -24.5 -180t-74.5 -111t-114.5 -54.5t-157.5 -15.5q-146 0 -221 29v315q38 -10 92 -10q50 0 70 14t20 49z" />
    <glyph glyph-name="f_k" horiz-adv-x="2265" 
d="M1026 1577h408v-815h98l227 364h455l-359 -530l386 -596h-459l-248 412h-100v-412h-408v1249q-180 15 -229 15q-67 0 -98.5 -18.5t-32.5 -74.5v-45h200v-329h-200v-797h-410v797h-195v329h195v86q0 203 97 293t341 90q74 0 131 -3t118 -8.5t83 -6.5z" />
    </font>
</defs>
</svg>
