<?xml version="1.0" standalone="no"?>
<!DOCTYPE svg PUBLIC "-//W3C//DTD SVG 1.1//EN" "http://www.w3.org/Graphics/SVG/1.1/DTD/svg11.dtd" >
<svg xmlns="http://www.w3.org/2000/svg" xmlns:xlink="http://www.w3.org/1999/xlink" version="1.1">
<metadata>
Created by FontForge 20170731 at Sat Feb 27 12:24:17 2021
 By Aleksey,,,
Copyright (c) 2018 ParaType Inc., ParaType Ltd. All rights reserved.
</metadata>
<defs>
<font id="SBSansText-Thin" horiz-adv-x="921" >
  <font-face 
    font-family="SB Sans Text Thin"
    font-weight="250"
    font-stretch="normal"
    units-per-em="2048"
    panose-1="2 11 1 3 4 5 4 2 2 4"
    ascent="1640"
    descent="-408"
    x-height="1044"
    cap-height="1434"
    bbox="-614 -512 2415 1909"
    underline-thickness="102"
    underline-position="-311"
    unicode-range="U+0020-FEFF"
  />
<missing-glyph horiz-adv-x="1024" 
 />
    <glyph glyph-name="f_f" unicode="ff" horiz-adv-x="1327" 
d="M887 0v975h-549v-975h-78v975h-192v72h192v237q0 140 63.5 204t198.5 64q68 0 133 -24v-92q-62 45 -149 45q-99 0 -133.5 -49.5t-34.5 -169.5v-215h549v237q0 140 63.5 204t196.5 64q71 0 135 -24v-92q-62 45 -149 45q-99 0 -133.5 -49.5t-34.5 -169.5v-215h317v-72h-317
v-975h-78z" />
    <glyph glyph-name="fi" unicode="fi" horiz-adv-x="1183" 
d="M858 1395q0 30 18 47.5t50 17.5q29 0 48 -18t19 -47q0 -31 -19 -50.5t-48 -19.5q-32 0 -50 19.5t-18 50.5zM260 1047v237q0 140 63.5 204t196.5 64q72 0 133 -24v-92q-62 45 -149 45q-97 0 -131.5 -50t-34.5 -169v-215h627v-1047h-78v975h-549v-975h-78v975h-192v72h192z
" />
    <glyph glyph-name="fl" unicode="fl" horiz-adv-x="1267" 
d="M260 1047v200q0 158 66 231.5t204 73.5q55 0 172 -8t201 -8h62v-1327q0 -83 32 -114.5t101 -31.5q58 0 114 33v-86q-59 -22 -122 -22q-111 0 -157 54t-46 155v1273q-68 1 -177 7t-175 6q-115 0 -156 -60.5t-41 -197.5v-178h317v-72h-317v-975h-78v975h-192v72h192z" />
    <glyph glyph-name="f_f_i" unicode="ffi" horiz-adv-x="1810" 
d="M260 0v975h-192v72h192v237q0 140 63.5 204t198.5 64q68 0 133 -24v-92q-62 45 -149 45q-99 0 -133.5 -49.5t-34.5 -169.5v-215h549v237q0 140 63.5 204t196.5 64q69 0 133 -24v-92q-62 45 -150 45q-97 0 -131 -49.5t-34 -169.5v-215h626v-1047h-80v975h-546v-975h-78
v975h-549v-975h-78zM1483 1395q0 30 18 47.5t51 17.5q30 0 49 -18t19 -47q0 -31 -19.5 -50.5t-48.5 -19.5q-33 0 -51 19t-18 51z" />
    <glyph glyph-name="f_f_l" unicode="ffl" horiz-adv-x="1894" 
d="M260 0v975h-192v72h192v237q0 140 63.5 204t198.5 64q68 0 133 -24v-92q-62 45 -149 45q-99 0 -133.5 -49.5t-34.5 -169.5v-215h549v200q0 158 66 231.5t204 73.5q55 0 172 -8t201 -8h61v-1327q0 -83 31 -114.5t102 -31.5q61 0 113 33v-86q-55 -22 -121 -22
q-111 0 -158 54t-47 155v1273q-68 1 -176.5 7t-173.5 6q-115 0 -155.5 -60.5t-40.5 -197.5v-178h317v-72h-317v-975h-78v975h-549v-975h-78z" />
    <glyph glyph-name=".notdef" horiz-adv-x="1024" 
 />
    <glyph glyph-name=".null" horiz-adv-x="0" 
 />
    <glyph glyph-name="nonmarkingreturn" horiz-adv-x="682" 
 />
    <glyph glyph-name="space" unicode=" " horiz-adv-x="606" 
 />
    <glyph glyph-name="exclam" unicode="!" horiz-adv-x="755" 
d="M303 55q0 34 21 54t57 20q35 0 56.5 -20t21.5 -54t-20.5 -53.5t-57.5 -19.5q-35 0 -56.5 20.5t-21.5 52.5zM338 430v1004h84v-1004h-84z" />
    <glyph glyph-name="quotedbl" unicode="&#x22;" horiz-adv-x="894" 
d="M236 915v519h75v-519h-75zM580 915v519h75v-519h-75z" />
    <glyph glyph-name="numbersign" unicode="#" horiz-adv-x="1366" 
d="M281 0l69 455h-209l4 69h220l57 385h-217l4 72h225l70 453h71l-67 -453h436l68 453h71l-67 -453h209l-4 -72h-217l-60 -385h213l-2 -69h-223l-70 -455h-71l69 455h-436l-70 -455h-73zM436 524h436l58 385h-436z" />
    <glyph glyph-name="dollar" unicode="$" horiz-adv-x="1189" 
d="M913 367q0 73 -25 128t-68 89t-98 60.5t-116.5 46.5t-122.5 41.5t-116 52t-98 71t-68 104.5t-25 148q0 166 93.5 249t281.5 95v186h65v-184h7q96 0 184 -20t131 -43v-113q-53 43 -143 70.5t-181 27.5q-178 0 -266 -60t-88 -204q0 -72 25.5 -126.5t68 -88t98.5 -59.5
t117 -46t122.5 -41t117.5 -51.5t98.5 -71t68 -105.5t25.5 -150q0 -368 -385 -391v-228h-65v226q-118 1 -214.5 27.5t-156.5 66.5v129q50 -53 153 -99.5t210 -46.5q201 0 285.5 79t84.5 231z" />
    <glyph glyph-name="percent" unicode="%" horiz-adv-x="1675" 
d="M285 0l1026 1434h80l-1022 -1434h-84zM915 313q0 151 80 242.5t230 91.5q153 0 233 -90t80 -244q0 -153 -81.5 -244.5t-233.5 -91.5q-150 0 -229 90.5t-79 245.5zM1456 313q0 129 -56 194.5t-177 65.5q-228 0 -228 -260q0 -262 228 -262q121 0 177 66t56 196zM139 1120
q0 152 80 243t230 91q153 0 233 -89.5t80 -244.5q0 -153 -80.5 -243.5t-232.5 -90.5t-231 89.5t-79 244.5zM680 1120q0 129 -55.5 194.5t-175.5 65.5q-115 0 -172.5 -67t-57.5 -193q0 -127 58 -194.5t172 -67.5q119 0 175 66t56 196z" />
    <glyph glyph-name="ampersand" unicode="&#x26;" horiz-adv-x="1787" 
d="M1444 1047h80q-1 -236 -89.5 -446.5t-240.5 -362.5q184 -129 332 -175v-83q-180 50 -391 200q-240 -203 -510 -203q-192 0 -308 105t-116 283q0 82 26 148.5t76 117t104 86t130 71.5q-156 236 -156 383q0 126 85.5 204.5t256.5 78.5q142 0 233 -74t91 -213
q0 -45 -12 -85.5t-30 -71.5t-50 -62t-60.5 -52t-74.5 -46t-78.5 -41t-85.5 -40q-2 -1 -3.5 -1.5t-3.5 -1.5l-4 -2q184 -247 488 -483q152 150 231.5 352t79.5 414zM1071 227q-315 248 -496 504q-66 -33 -113 -64t-90 -73.5t-65 -98t-22 -122.5q0 -61 19.5 -116.5
t59.5 -102.5t110 -75t161 -28q212 0 436 176zM606 819q54 24 79.5 36t71.5 36t69 41t54 44.5t46 53t26 60.5t11 73q0 98 -61.5 158.5t-182.5 60.5q-110 0 -182 -56t-72 -157q0 -139 141 -350z" />
    <glyph glyph-name="quotesingle" unicode="'" horiz-adv-x="548" 
d="M236 915v519h75v-519h-75z" />
    <glyph glyph-name="parenleft" unicode="(" horiz-adv-x="651" 
d="M553 -348l-43 -41q-96 95 -167 218.5t-109.5 254.5t-56 254.5t-17.5 245.5q0 121 17.5 244.5t56 254t109.5 254.5t167 219l39 -43q-307 -344 -307 -929q0 -272 82 -518.5t229 -413.5z" />
    <glyph glyph-name="parenright" unicode=")" horiz-adv-x="651" 
d="M98 -348q146 167 228 413.5t82 518.5q0 588 -308 929l41 43q96 -95 167 -219t109.5 -254.5t56.5 -254t18 -244.5t-18 -245t-57 -255t-109.5 -254.5t-166.5 -218.5z" />
    <glyph glyph-name="asterisk" unicode="*" horiz-adv-x="983" 
d="M252 842l199 235l-291 97l24 77l285 -123l-16 306h79l-14 -306l281 123l26 -77l-290 -99l198 -233l-67 -45l-174 250l-175 -250z" />
    <glyph glyph-name="plus" unicode="+" horiz-adv-x="1189" 
d="M141 629v73h416v412h74v-412h416v-73h-416v-412h-74v412h-416z" />
    <glyph glyph-name="comma" unicode="," horiz-adv-x="550" 
d="M129 -223q144 67 158 203q-90 0 -90 75q0 33 20 54.5t62 21.5q83 0 83 -113q0 -80 -42.5 -161.5t-131.5 -128.5z" />
    <glyph glyph-name="hyphen" unicode="-" horiz-adv-x="960" 
d="M219 551v74h520v-74h-520z" />
    <glyph glyph-name="period" unicode="." horiz-adv-x="548" 
d="M197 55q0 36 20.5 56t58.5 20q34 0 55 -21t21 -55q0 -32 -20.5 -51.5t-55.5 -19.5q-37 0 -58 19.5t-21 51.5z" />
    <glyph glyph-name="slash" unicode="/" horiz-adv-x="778" 
d="M14 -369l672 1803h78l-672 -1803h-78z" />
    <glyph glyph-name="zero" unicode="0" horiz-adv-x="1189" 
d="M115 717q0 388 112 562.5t365 174.5q140 0 233 -42t148.5 -135t78.5 -227t23 -333q0 -400 -109.5 -568.5t-371.5 -168.5q-259 0 -369 174.5t-110 562.5zM201 717q0 -360 89 -510t312 -150q218 0 302.5 149t84.5 511q0 186 -18.5 307t-65 202t-122.5 115.5t-193 34.5
q-214 0 -301.5 -151.5t-87.5 -507.5z" />
    <glyph glyph-name="one" unicode="1" horiz-adv-x="1189" 
d="M209 0v78h418v1268l-418 -265v90l438 275h60v-1368h311v-78h-809z" />
    <glyph glyph-name="two" unicode="2" horiz-adv-x="1189" 
d="M129 0v80q115 111 242.5 228.5t197.5 180.5t145 135.5t110.5 115t67 95.5t42 101t10.5 108q0 169 -90.5 249.5t-284.5 80.5q-101 0 -210.5 -38.5t-174.5 -92.5v121q83 43 196.5 66.5t201.5 23.5q223 0 335.5 -98t112.5 -309q0 -58 -12.5 -110t-32.5 -97t-60.5 -97
t-82 -96.5t-112.5 -111t-135.5 -124.5t-167.5 -152.5t-194 -180.5h818v-78h-922z" />
    <glyph glyph-name="three" unicode="3" horiz-adv-x="1189" 
d="M369 707v75h194q180 0 279.5 81t99.5 214q0 162 -85.5 229.5t-281.5 67.5q-227 0 -405 -104v116q77 29 195.5 48.5t226.5 19.5q124 0 210 -24t135 -72t70 -111.5t21 -150.5q0 -293 -305 -346q177 -19 258.5 -108.5t81.5 -266.5q0 -395 -490 -395q-111 0 -231.5 20.5
t-194.5 54.5v117q175 -111 414 -111q91 0 159.5 11.5t113.5 35t74 52t43.5 69.5t20 80t5.5 92q0 150 -106 228t-304 78h-198z" />
    <glyph glyph-name="four" unicode="4" horiz-adv-x="1189" 
d="M80 389v72l749 973h91v-965h204v-80h-204v-389h-80v389h-760zM840 469v860l-658 -860h658z" />
    <glyph glyph-name="five" unicode="5" horiz-adv-x="1189" 
d="M184 739l43 695h783v-80h-711l-33 -525q151 21 334 21q232 0 348.5 -93t116.5 -304q0 -112 -26 -195t-85 -147.5t-162.5 -97.5t-250.5 -33q-108 0 -209.5 18.5t-169.5 48.5v111q151 -99 377 -99q227 0 333.5 90t106.5 293q0 179 -98.5 255.5t-305.5 76.5q-204 0 -391 -35
z" />
    <glyph glyph-name="six" unicode="6" horiz-adv-x="1189" 
d="M621 -20q-253 0 -373.5 155.5t-120.5 497.5q0 422 139.5 621.5t431.5 199.5q157 0 267 -47v-111q-116 78 -273 78q-489 0 -489 -672q0 -30 4 -88q54 133 169 211t269 78q218 0 327 -108.5t109 -339.5q0 -121 -36.5 -214t-101 -149t-146 -84t-176.5 -28zM223 557
q0 -500 402 -500q170 0 271 97.5t101 294.5q0 205 -92.5 291.5t-269.5 86.5q-77 0 -143 -19t-110 -47t-78 -66t-52.5 -71.5t-28.5 -66.5z" />
    <glyph glyph-name="seven" unicode="7" horiz-adv-x="1189" 
d="M360 0l623 1350h-864v84h954v-72l-624 -1362h-89z" />
    <glyph glyph-name="eight" unicode="8" horiz-adv-x="1189" 
d="M121 371q0 164 75.5 259.5t264.5 121.5q-167 19 -236 110.5t-69 245.5q0 161 117.5 253.5t330.5 92.5q223 0 328.5 -82t105.5 -250q0 -152 -67.5 -243t-229.5 -123q96 -9 163.5 -40.5t105.5 -83t54.5 -114t16.5 -143.5q0 -184 -118 -289.5t-357 -105.5q-485 0 -485 391z
M201 381q0 -160 96 -241t311 -81q393 0 393 318q0 176 -101 261t-290 79q-100 -4 -173 -22t-118 -46.5t-72 -71.5t-36.5 -89t-9.5 -107zM238 1085q0 -153 95.5 -231.5t287.5 -71.5q80 3 140.5 21.5t97 46.5t59 68.5t30.5 82.5t8 95q0 147 -82 213.5t-274 66.5
q-362 0 -362 -291z" />
    <glyph glyph-name="nine" unicode="9" horiz-adv-x="1189" 
d="M575 1454q269 0 381.5 -156.5t112.5 -523.5q0 -404 -139.5 -599t-431.5 -195q-157 0 -267 47v110q116 -78 273 -78q112 0 198 36t151.5 113.5t101 209t38.5 313.5q0 59 -2 88q-47 -138 -164 -213.5t-276 -75.5q-217 0 -326.5 109t-109.5 340q0 121 36.5 214t101 149
t146 84t176.5 28zM979 899q-2 235 -98 356t-310 121q-170 0 -271 -97t-101 -294q0 -205 93 -292t271 -87q101 0 179.5 28t125.5 74t73.5 93t37.5 98z" />
    <glyph glyph-name="colon" unicode=":" horiz-adv-x="548" 
d="M197 55q0 36 20.5 56t58.5 20q34 0 55 -21t21 -55q0 -32 -20.5 -51.5t-55.5 -19.5q-37 0 -58 19.5t-21 51.5zM197 979q0 36 20.5 56t58.5 20q34 0 55 -21t21 -55q0 -33 -20.5 -52.5t-55.5 -19.5q-36 0 -57.5 19.5t-21.5 52.5z" />
    <glyph glyph-name="semicolon" unicode=";" horiz-adv-x="550" 
d="M197 979q0 36 20.5 56t58.5 20q34 0 55 -21t21 -55q0 -33 -20.5 -52.5t-55.5 -19.5q-36 0 -57.5 19.5t-21.5 52.5zM129 -223q144 67 158 203q-90 0 -90 75q0 33 20 54.5t62 21.5q83 0 83 -113q0 -80 -42.5 -161.5t-131.5 -128.5z" />
    <glyph glyph-name="less" unicode="&#x3c;" horiz-adv-x="1189" 
d="M150 614v68l911 358v-77l-811 -312v-4l811 -311v-80z" />
    <glyph glyph-name="equal" unicode="=" horiz-adv-x="1189" 
d="M141 430v76h906v-76h-906zM141 821v76h906v-76h-906z" />
    <glyph glyph-name="greater" unicode="&#x3e;" horiz-adv-x="1189" 
d="M129 256v80l809 311v4l-809 312v77l911 -358v-68z" />
    <glyph glyph-name="question" unicode="?" horiz-adv-x="1003" 
d="M381 385q0 85 22.5 151t59 108t80 77.5t87 68.5t80 70.5t59 94t22.5 128.5q0 162 -76.5 226.5t-239.5 64.5q-197 0 -342 -108v114q154 74 328 74q218 0 315.5 -85.5t97.5 -283.5q0 -82 -23 -145t-59.5 -104t-81 -75.5t-88.5 -68t-80.5 -72t-59.5 -98.5t-23 -137h-78z
M344 55q0 34 20.5 54t55.5 20q36 0 57 -20t21 -54t-20.5 -53.5t-57.5 -19.5q-35 0 -55.5 20t-20.5 53z" />
    <glyph glyph-name="at" unicode="@" horiz-adv-x="2000" 
d="M1477 127q-50 0 -83 9t-58.5 34t-37 70.5t-12.5 115.5q-29 -119 -105 -174t-229 -55q-83 0 -144.5 21.5t-99.5 59t-61.5 96.5t-32 124t-8.5 150q0 125 27.5 216.5t78.5 144.5t115 78t144 25q82 0 138 -13.5t90.5 -43t53.5 -66.5t33 -94l12 199h64v-662q0 -87 23 -127
t96 -40q38 0 72 14t68 49.5t58 90.5t39 144t15 203q0 321 -185.5 497.5t-527.5 176.5q-356 0 -551 -213.5t-195 -591.5q0 -381 203 -578.5t567 -197.5q92 0 188 18t163 48v-70q-67 -27 -162.5 -44t-181.5 -17q-415 0 -631.5 218.5t-216.5 622.5q0 193 54 353t156.5 275.5
t258.5 179t352 63.5q366 0 570 -196t204 -538q0 -137 -20 -241.5t-51.5 -166.5t-75.5 -101t-85.5 -52.5t-88.5 -13.5zM686 575q0 -73 6.5 -126t24.5 -102.5t49 -80.5t82 -49t121 -18q171 0 243 82t72 266v102q0 155 -70.5 238.5t-216.5 83.5q-107 0 -173 -34.5t-102 -122.5
t-36 -239z" />
    <glyph glyph-name="A" unicode="A" horiz-adv-x="1296" 
d="M1143 0l-160 434h-672l-159 -434h-86l546 1434h82l537 -1434h-88zM649 1343l-309 -833h614z" />
    <glyph glyph-name="B" unicode="B" horiz-adv-x="1261" 
d="M221 0v1434q245 10 408 10q132 0 218 -20.5t136 -67.5t70 -114t20 -169q0 -141 -62 -218t-210 -107q313 -29 313 -326q0 -101 -24.5 -177t-81 -135t-156.5 -89.5t-242 -30.5q-161 0 -389 10zM303 78q185 -10 305 -10t203 23t130 70t67 108.5t20 146.5q0 149 -89.5 219
t-274.5 70h-361v-627zM303 776h307q208 0 294.5 70t86.5 217q0 89 -14 143t-55 92t-112.5 53t-188.5 15q-126 0 -318 -10v-580z" />
    <glyph glyph-name="C" unicode="C" horiz-adv-x="1304" 
d="M1106 1405v-96q-147 67 -334 67q-266 0 -401 -157t-135 -504q0 -344 137.5 -501t406.5 -157q87 0 176 21t154 53v-92q-143 -59 -342 -59q-305 0 -461.5 173.5t-156.5 546.5q0 396 155.5 575t470.5 179q185 0 330 -49z" />
    <glyph glyph-name="D" unicode="D" horiz-adv-x="1413" 
d="M221 0v1434q235 10 357 10q161 0 278 -27.5t195.5 -81t125.5 -140t67 -194.5t20 -256q0 -403 -163.5 -579t-547.5 -176q-114 0 -332 10zM303 78q167 -10 244 -10q182 0 304 40t193.5 126t101.5 207t30 298q0 116 -11 201.5t-37.5 158t-70.5 121t-112 82.5t-160.5 49
t-215.5 15q-84 0 -266 -10v-1278z" />
    <glyph glyph-name="E" unicode="E" horiz-adv-x="1208" 
d="M221 0v1434h819v-78h-737v-582h682v-76h-682v-620h737v-78h-819z" />
    <glyph glyph-name="F" unicode="F" horiz-adv-x="1138" 
d="M221 0v1434h799v-78h-717v-613h690v-75h-690v-668h-82z" />
    <glyph glyph-name="G" unicode="G" horiz-adv-x="1368" 
d="M774 621v77h426v-637q-69 -34 -173 -57.5t-212 -23.5q-341 0 -503 173t-162 547q0 390 164.5 572t514.5 182q161 0 306 -55v-99q-52 32 -144 54t-168 22q-307 0 -447 -158.5t-140 -502.5q0 -348 139.5 -503t447.5 -155q160 0 297 54v510h-346z" />
    <glyph glyph-name="H" unicode="H" horiz-adv-x="1501" 
d="M221 0v1434h82v-658h895v658h82v-1434h-82v698h-895v-698h-82z" />
    <glyph glyph-name="I" unicode="I" horiz-adv-x="546" 
d="M231 0v1434h82v-1434h-82z" />
    <glyph glyph-name="J" unicode="J" horiz-adv-x="794" 
d="M492 358v1076h81v-1092q0 -362 -331 -362q-122 0 -205 32v97q37 -22 95 -37t108 -15q128 0 190 72t62 229z" />
    <glyph glyph-name="K" unicode="K" horiz-adv-x="1343" 
d="M221 0v1434h82v-652h105l722 652h107l-762 -682l795 -752h-113l-754 715h-100v-715h-82z" />
    <glyph glyph-name="L" unicode="L" horiz-adv-x="1105" 
d="M221 0v1434h82v-1356h709v-78h-791z" />
    <glyph glyph-name="M" unicode="M" horiz-adv-x="1683" 
d="M221 0v1434h96l527 -920l526 920h92v-1434h-82v1133q0 162 2 170q-2 -5 -45.5 -84t-44.5 -80l-409 -719h-80l-410 715q-1 4 -46 85t-46 83q2 -8 2 -173v-1130h-82z" />
    <glyph glyph-name="N" unicode="N" horiz-adv-x="1482" 
d="M221 0v1434h96l725 -1088l16 -23q15 -23 34 -52t39.5 -59t34 -51t14.5 -22v209v1086h80v-1434h-84l-750 1124q-1 1 -20.5 30.5t-41.5 63t-42 64t-21 31.5q2 -6 2 -183v-1130h-82z" />
    <glyph glyph-name="O" unicode="O" horiz-adv-x="1505" 
d="M150 717q0 363 152 550t446 187q322 0 465 -183.5t143 -553.5q0 -737 -604 -737q-602 0 -602 737zM236 717q0 -332 126.5 -496t395.5 -164q259 0 385.5 161.5t126.5 498.5q0 336 -122 497.5t-403 161.5q-509 0 -509 -659z" />
    <glyph glyph-name="P" unicode="P" horiz-adv-x="1226" 
d="M221 0v1434q218 10 344 10q282 0 398 -97.5t116 -330.5q0 -116 -25.5 -198.5t-84.5 -143.5t-161 -91t-249 -30q-125 0 -256 8v-561h-82zM303 639q122 -10 256 -10q243 0 338.5 85.5t95.5 297.5q0 55 -5.5 95.5t-20.5 83.5t-45 72.5t-76.5 54t-118 36.5t-166.5 12
q-135 0 -258 -10v-717z" />
    <glyph glyph-name="Q" unicode="Q" horiz-adv-x="1505" 
d="M150 717q0 363 152 550t446 187q322 0 465 -183.5t143 -553.5q0 -665 -492 -729l289 -250h-115l-276 242h-10q-602 0 -602 737zM236 717q0 -332 126.5 -496t395.5 -164q259 0 385.5 161.5t126.5 498.5q0 336 -122 497.5t-403 161.5q-509 0 -509 -659z" />
    <glyph glyph-name="R" unicode="R" horiz-adv-x="1308" 
d="M303 0h-82v1432q214 12 379 12q246 0 355.5 -94t109.5 -287q0 -171 -81 -268.5t-249 -128.5l441 -666h-97l-436 653h-340v-653zM303 731h299q107 0 183 26t117.5 72.5t60 101.5t18.5 124q0 78 -18.5 133.5t-61.5 96.5t-118 61t-185 20q-209 0 -295 -6v-629z" />
    <glyph glyph-name="S" unicode="S" horiz-adv-x="1114" 
d="M887 367q0 73 -25 128t-68 89t-98 60.5t-116.5 46.5t-122.5 41.5t-116 52t-98 71t-68 104.5t-25 148q0 181 111 263.5t337 82.5q95 0 184 -20.5t129 -42.5v-113q-53 43 -141.5 70.5t-179.5 27.5q-178 0 -266 -60t-88 -204q0 -72 25.5 -126.5t68 -88t98 -59.5t116.5 -46
t122.5 -41t117 -51.5t98 -71t68 -105.5t25.5 -150q0 -393 -436 -393q-122 0 -222 26.5t-163 67.5v129q50 -53 152.5 -99.5t209.5 -46.5q201 0 286 79t85 231z" />
    <glyph glyph-name="T" unicode="T" horiz-adv-x="1140" 
d="M528 0v1356h-471v78h1026v-78h-473v-1356h-82z" />
    <glyph glyph-name="U" unicode="U" horiz-adv-x="1439" 
d="M203 545v889h80v-885q0 -89 11 -160t30 -122.5t49.5 -89t65.5 -61t82 -37.5t94 -19t106 -5q72 0 125.5 7.5t105.5 26.5t87.5 54.5t63 89.5t41 133.5t13.5 184.5v883h82v-881q0 -311 -119.5 -442t-398.5 -131q-280 0 -399 129.5t-119 435.5z" />
    <glyph glyph-name="V" unicode="V" horiz-adv-x="1263" 
d="M586 0l-520 1434h90l483 -1348l475 1348h84l-510 -1434h-102z" />
    <glyph glyph-name="W" unicode="W" horiz-adv-x="1820" 
d="M432 0l-323 1434h86l215 -973q2 -6 34.5 -157.5t32.5 -156.5q1 4 46 157t46 157l289 973h103l286 -973q1 -3 46 -157t46 -157q2 5 36 157.5t34 156.5l221 973h82l-332 -1434h-75l-398 1329l-397 -1329h-78z" />
    <glyph glyph-name="X" unicode="X" horiz-adv-x="1230" 
d="M57 0l504 750l-459 684h103l409 -627l414 627h96l-458 -682l508 -752h-103l-459 686l-456 -686h-99z" />
    <glyph glyph-name="Y" unicode="Y" horiz-adv-x="1175" 
d="M549 0v596l-494 838h97l438 -754l432 754h98l-489 -838v-596h-82z" />
    <glyph glyph-name="Z" unicode="Z" horiz-adv-x="1159" 
d="M88 0v76l877 1280h-852v78h946v-76l-873 -1280h885v-78h-983z" />
    <glyph glyph-name="bracketleft" unicode="[" horiz-adv-x="704" 
d="M248 -369v1905h366v-66h-286v-1773h286v-66h-366z" />
    <glyph glyph-name="backslash" unicode="\" horiz-adv-x="778" 
d="M688 -369l-674 1905h78l672 -1905h-76z" />
    <glyph glyph-name="bracketright" unicode="]" horiz-adv-x="704" 
d="M90 -369v66h287v1773h-287v66h367v-1905h-367z" />
    <glyph glyph-name="asciicircum" unicode="^" horiz-adv-x="1189" 
d="M166 745l393 689h74l393 -689h-84l-346 609l-348 -609h-82z" />
    <glyph glyph-name="underscore" unicode="_" horiz-adv-x="1028" 
d="M14 -424v66h1000v-66h-1000z" />
    <glyph glyph-name="grave" unicode="`" horiz-adv-x="1189" 
d="M637 1245h-74l-213 266h115z" />
    <glyph glyph-name="a" unicode="a" horiz-adv-x="1075" 
d="M834 0l-15 250q-73 -270 -354 -270q-177 0 -261.5 77t-84.5 234t96.5 227t339.5 70h260v127q0 147 -72.5 213.5t-228.5 66.5q-90 0 -179.5 -33t-144.5 -77v102q50 30 143 54t189 24q205 0 289 -88.5t84 -278.5v-698h-61zM201 299q0 -124 66 -186t218 -62q148 0 239 98.5
t91 268.5v104h-252q-88 0 -151.5 -9.5t-104 -27t-64.5 -46t-33 -61.5t-9 -79z" />
    <glyph glyph-name="b" unicode="b" horiz-adv-x="1226" 
d="M190 0v1536h78v-729q77 258 404 258q218 0 320 -124.5t102 -397.5q0 -284 -106.5 -423.5t-330.5 -139.5q-148 0 -249 67.5t-142 200.5l-14 -248h-62zM268 573v-90q0 -80 21 -154t64 -137.5t118.5 -102t173.5 -38.5q195 0 282 123t87 367q0 238 -81 346t-274 108
q-185 0 -288 -108.5t-103 -313.5z" />
    <glyph glyph-name="c" unicode="c" horiz-adv-x="1024" 
d="M885 1018v-92q-45 27 -116.5 47t-143.5 20q-212 0 -312 -115.5t-100 -340.5q0 -486 426 -486q67 0 147 23t119 53v-94q-45 -20 -123.5 -36.5t-160.5 -16.5q-488 0 -488 552q0 258 119 395.5t364 137.5q146 0 269 -47z" />
    <glyph glyph-name="d" unicode="d" horiz-adv-x="1226" 
d="M971 0l-13 252q-43 -138 -139.5 -205t-255.5 -67q-214 0 -322 136.5t-108 399.5q0 287 114 418t333 131q159 0 253.5 -71t124.5 -185v727h78v-1536h-65zM580 51q185 0 281.5 103.5t96.5 330.5v105q0 64 -11 120.5t-37.5 109.5t-68 91t-107 61t-148.5 23
q-195 0 -284 -114.5t-89 -366.5q0 -229 92 -346t275 -117z" />
    <glyph glyph-name="e" unicode="e" horiz-adv-x="1128" 
d="M999 514h-786q2 -235 97.5 -349t303.5 -114q196 0 318 107v-92q-47 -36 -132.5 -61t-187.5 -25q-247 0 -363 136.5t-116 418.5q0 272 116 401t326 129q120 0 203 -33.5t131 -101.5t69 -159.5t21 -219.5v-37zM578 997q-350 0 -365 -415h705q1 71 -7 128.5t-30.5 112.5
t-59.5 92t-99 59.5t-144 22.5z" />
    <glyph glyph-name="f" unicode="f" horiz-adv-x="702" 
d="M260 0v973h-192v71h192v244q0 140 63.5 204t198.5 64q68 0 133 -24v-92q-62 45 -149 45q-99 0 -133.5 -49.5t-34.5 -169.5v-222h317v-71h-317v-973h-78z" />
    <glyph glyph-name="g" unicode="g" horiz-adv-x="1226" 
d="M236 -309v106q43 -46 140 -80t216 -34q204 0 285 79.5t81 247.5v244q-43 -138 -140 -206t-255 -68q-214 0 -322 137t-108 399q0 287 114.5 418t334.5 131q157 0 251.5 -71t124.5 -185l13 238h65v-1029q0 -220 -108.5 -313.5t-331.5 -93.5q-221 0 -360 80zM580 51
q185 0 281.5 104t96.5 332v101q0 65 -11 122t-38.5 110.5t-69 91.5t-106.5 60.5t-147 22.5q-194 0 -283.5 -115t-89.5 -366q0 -228 93 -345.5t274 -117.5z" />
    <glyph glyph-name="h" unicode="h" horiz-adv-x="1212" 
d="M190 0v1536h78v-729q32 124 133.5 191t253.5 67q108 0 181 -24t116 -75t61.5 -124t18.5 -178v-664h-78v645q0 198 -73.5 274t-251.5 76q-95 0 -166.5 -27.5t-113 -77t-61.5 -111.5t-20 -138v-641h-78z" />
    <glyph glyph-name="i" unicode="i" horiz-adv-x="518" 
d="M219 0v1044h78v-1044h-78zM193 1372q0 31 17 48.5t48 17.5t48.5 -17.5t17.5 -48.5t-17.5 -48t-48.5 -17t-48 17t-17 48z" />
    <glyph glyph-name="j" unicode="j" horiz-adv-x="462" 
d="M193 -121v1165h77v-1175q0 -116 -50 -182t-175 -66q-83 0 -121 14v97q52 -35 119 -35q75 0 112.5 38.5t37.5 143.5zM166 1372q0 31 17 48.5t48 17.5t48.5 -17.5t17.5 -48.5t-17.5 -48t-48.5 -17t-48 17t-17 48z" />
    <glyph glyph-name="k" unicode="k" horiz-adv-x="1028" 
d="M190 1536h78v-926h66l510 434h102l-551 -462l576 -582h-101l-540 545h-62v-545h-78v1536z" />
    <glyph glyph-name="l" unicode="l" horiz-adv-x="573" 
d="M268 201q0 -83 32 -114.5t103 -31.5q61 0 113 33v-86q-55 -22 -121 -22q-112 0 -158.5 53.5t-46.5 154.5v1348h78v-1335z" />
    <glyph glyph-name="m" unicode="m" horiz-adv-x="1734" 
d="M190 0v1044h62l14 -239q26 126 113.5 193t216.5 67q144 0 215.5 -62.5t85.5 -197.5q28 138 118.5 199t223.5 61q173 0 244 -82t71 -240v-743h-77v721q0 142 -60.5 207t-210.5 65q-144 0 -219.5 -87.5t-75.5 -225.5v-680h-77v684q0 166 -57.5 237.5t-201.5 71.5
q-82 0 -144 -28.5t-96 -76.5t-50.5 -103.5t-16.5 -118.5v-666h-78z" />
    <glyph glyph-name="n" unicode="n" horiz-adv-x="1212" 
d="M190 0v1044h66l12 -237q93 258 379 258q200 0 292.5 -88.5t92.5 -302.5v-674h-78v664q0 186 -74.5 258.5t-246.5 72.5q-174 0 -269.5 -99.5t-95.5 -268.5v-627h-78z" />
    <glyph glyph-name="o" unicode="o" horiz-adv-x="1185" 
d="M133 524q0 541 461 541q244 0 351.5 -134.5t107.5 -406.5q0 -262 -113.5 -403t-347.5 -141q-242 0 -350.5 136.5t-108.5 407.5zM213 530v-6q0 -240 91 -356.5t290 -116.5q198 0 288.5 118t90.5 357v6q0 236 -87 349.5t-294 113.5q-197 0 -288 -116t-91 -349z" />
    <glyph glyph-name="p" unicode="p" horiz-adv-x="1226" 
d="M190 -369v1413h64l14 -239q77 260 404 260q219 0 320.5 -124.5t101.5 -397.5q0 -284 -106.5 -423.5t-330.5 -139.5q-147 0 -247.5 68t-141.5 200v-617h-78zM268 479q0 -64 12.5 -124t41.5 -116t71.5 -97t107.5 -66t144 -25q195 0 282 123t87 367q0 237 -81 345.5
t-274 108.5q-185 0 -288 -108.5t-103 -311.5v-96z" />
    <glyph glyph-name="q" unicode="q" horiz-adv-x="1226" 
d="M958 -369v619q-43 -137 -139.5 -203.5t-253.5 -66.5q-215 0 -323.5 136t-108.5 398q0 289 114.5 420t334.5 131q157 0 251.5 -71t124.5 -185l13 235h65v-1413h-78zM580 51q185 0 281.5 102.5t96.5 327.5v109q0 64 -11 120.5t-38 109.5t-68.5 91t-106.5 61t-148 23
q-195 0 -284 -114.5t-89 -366.5q0 -463 367 -463z" />
    <glyph glyph-name="r" unicode="r" horiz-adv-x="794" 
d="M190 0v1044h60l14 -235q54 256 336 256q79 0 127 -25v-94q-51 45 -156 45q-144 0 -223.5 -92t-79.5 -283v-616h-78z" />
    <glyph glyph-name="s" unicode="s" horiz-adv-x="903" 
d="M717 1016v-105q-113 84 -254 84q-136 0 -198 -48t-62 -144q0 -54 19.5 -92.5t52.5 -61t76 -38t90.5 -27t94.5 -24t90 -34t76 -51.5t52.5 -81.5t19.5 -119.5q0 -148 -90.5 -221t-277.5 -73q-82 0 -156 16t-119 43v106q49 -43 125.5 -68.5t153.5 -25.5q143 0 212.5 52.5
t69.5 166.5q0 70 -31.5 117.5t-82 71.5t-111.5 41t-121.5 36t-111 46.5t-82 82t-31.5 134.5q0 266 346 266q77 0 147 -16t103 -33z" />
    <glyph glyph-name="t" unicode="t" horiz-adv-x="790" 
d="M281 242v733h-215v69h215v224l77 30v-254h326v-69h-326v-735q0 -102 38 -145.5t118 -43.5q91 0 180 51v-88q-55 -34 -170 -34q-130 0 -186.5 59t-56.5 203z" />
    <glyph glyph-name="u" unicode="u" horiz-adv-x="1196" 
d="M940 0l-12 250q-74 -270 -393 -270q-355 0 -355 348v716h78v-712q0 -150 72 -215.5t217 -65.5q183 0 282 102.5t99 264.5v626h78v-1044h-66z" />
    <glyph glyph-name="v" unicode="v" horiz-adv-x="1036" 
d="M475 0l-407 1044h86l364 -954l369 954h82l-408 -1044h-86z" />
    <glyph glyph-name="w" unicode="w" horiz-adv-x="1570" 
d="M375 0l-279 1044h82l250 -968l311 968h97l303 -966l258 966h76l-285 -1044h-101l-303 971l-311 -971h-98z" />
    <glyph glyph-name="x" unicode="x" horiz-adv-x="1011" 
d="M66 0l395 549l-357 495h95l311 -438l311 438h88l-356 -493l393 -551h-94l-348 487l-346 -487h-92z" />
    <glyph glyph-name="y" unicode="y" horiz-adv-x="1062" 
d="M322 -309q34 0 61 13t44 31t34 52t26.5 60t24.5 71.5t25 71.5l-461 1054h86l416 -958l337 958h82l-411 -1130q-61 -169 -117.5 -232t-161.5 -63q-59 0 -106 21v88q46 -37 121 -37z" />
    <glyph glyph-name="z" unicode="z" horiz-adv-x="972" 
d="M106 0v74l662 901h-643v69h733v-71l-661 -901h669v-72h-760z" />
    <glyph glyph-name="braceleft" unicode="{" horiz-adv-x="731" 
d="M332 -84v399q0 101 -48.5 164t-138.5 70v69q90 7 138.5 70.5t48.5 163.5v399q0 285 248 285h71v-66h-63q-180 0 -180 -229v-395q0 -98 -44 -168.5t-133 -91.5q89 -21 133 -93.5t44 -170.5v-396q0 -229 180 -229h63v-66h-71q-248 0 -248 285z" />
    <glyph glyph-name="bar" unicode="|" horiz-adv-x="575" 
d="M252 -369v1905h78v-1905h-78z" />
    <glyph glyph-name="braceright" unicode="}" horiz-adv-x="731" 
d="M399 -84q0 -285 -247 -285h-72v66h65q46 0 79.5 14.5t52 36t29.5 53.5t14.5 60.5t3.5 64.5v416q0 97 44 168t132 92q-88 21 -132 93.5t-44 170.5v375q0 36 -3.5 64.5t-14.5 60.5t-29.5 53.5t-52 36t-79.5 14.5h-65v66h72q247 0 247 -285v-379q0 -100 48.5 -164t136.5 -71
v-68q-88 -9 -136.5 -72.5t-48.5 -162.5v-418z" />
    <glyph glyph-name="asciitilde" unicode="~" horiz-adv-x="1189" 
d="M182 578v110q70 82 209 82q48 0 106.5 -22t104.5 -48.5t102.5 -48.5t100.5 -22q71 0 123 35.5t82 83.5v-111q-68 -82 -203 -82q-54 0 -116.5 22t-108.5 48.5t-100 48.5t-93 22q-125 0 -207 -118z" />
    <glyph glyph-name="uni00A0" unicode="&#xa0;" horiz-adv-x="606" 
 />
    <glyph glyph-name="exclamdown" unicode="&#xa1;" horiz-adv-x="755" 
d="M303 993q0 33 21.5 53.5t56.5 20.5q36 0 57 -20t21 -54t-21.5 -53.5t-56.5 -19.5q-37 0 -57.5 19.5t-20.5 53.5zM338 618h84v-1003h-84v1003z" />
    <glyph glyph-name="cent" unicode="&#xa2;" horiz-adv-x="1140" 
d="M633 -246v232q-434 25 -434 546q0 244 107.5 380.5t326.5 148.5v188h57v-186q125 -2 256 -45v-92q-43 27 -113 46t-141 19q-212 0 -311.5 -115t-99.5 -337q0 -484 424 -484q64 0 144 22.5t118 49.5v-90q-44 -20 -121.5 -36.5t-155.5 -16.5v-230h-57z" />
    <glyph glyph-name="sterling" unicode="&#xa3;" horiz-adv-x="1198" 
d="M168 0v78h199v659h-199v58h199v174q0 39 4 78t16 88.5t31.5 92.5t54 85.5t80 73t112.5 49t148 18.5q139 0 250 -39v-78q-128 41 -258 41q-176 0 -266 -115t-90 -300v-168h434v-58h-434v-659h624v-78h-905z" />
    <glyph glyph-name="currency" unicode="&#xa4;" horiz-adv-x="1146" 
d="M170 266l-49 47l143 146q-96 103 -96 258q0 151 96 258l-143 143l49 51l143 -143q109 94 260 94q75 0 144 -25.5t117 -68.5l145 143l47 -49l-141 -145q92 -109 92 -258q0 -143 -92 -258l141 -146l-49 -49l-143 144q-110 -95 -261 -95q-150 0 -260 95zM236 717
q0 -139 99.5 -239.5t237.5 -100.5q139 0 238.5 100t99.5 240q0 141 -99 240.5t-239 99.5q-138 0 -237.5 -100.5t-99.5 -239.5z" />
    <glyph glyph-name="yen" unicode="&#xa5;" horiz-adv-x="1253" 
d="M258 362v58h328v194l-6 11h-322v57h285l-457 752h98l445 -736l442 736h96l-458 -752h288v-57h-323l-4 -11v-194h327v-58h-327v-362h-84v362h-328z" />
    <glyph glyph-name="brokenbar" unicode="&#xa6;" horiz-adv-x="579" 
d="M254 -369v799h76v-799h-76zM254 737v799h76v-799h-76z" />
    <glyph glyph-name="section" unicode="&#xa7;" horiz-adv-x="1140" 
d="M877 1399v-84q-132 63 -269 63q-121 0 -193.5 -51t-72.5 -141q0 -67 49.5 -116t179.5 -114q7 -3 42.5 -21t67.5 -34t44 -20q111 -55 168 -118t57 -169q0 -163 -215 -336q81 -52 116.5 -104t35.5 -123q0 -88 -51 -151.5t-128.5 -92.5t-170.5 -29q-161 0 -289 60v86
q141 -72 284 -72q122 0 195.5 53.5t73.5 143.5q0 40 -15 72t-52.5 62t-73.5 51.5t-105 57.5q-81 39 -158 82q-99 48 -151.5 114.5t-52.5 168.5q0 90 55.5 164.5t171.5 148.5q-166 91 -166 234q0 70 31.5 124t84 84.5t114.5 46t130 15.5q77 0 148.5 -17t114.5 -38zM276 651
q0 -84 41.5 -138t143.5 -107q24 -14 112 -60.5t107 -56.5q57 50 93.5 89.5t64.5 94.5t28 109q0 77 -40 129.5t-138 105.5q-19 11 -99 49.5t-110 55.5q-98 -64 -150.5 -128t-52.5 -143z" />
    <glyph glyph-name="dieresis" unicode="&#xa8;" horiz-adv-x="1200" 
d="M373 1372q0 31 17 48.5t48 17.5t48.5 -17.5t17.5 -48.5t-17.5 -48t-48.5 -17t-48 17t-17 48zM692 1372q0 31 17.5 48.5t48.5 17.5t48 -17.5t17 -48.5t-17 -48t-48 -17t-48.5 17t-17.5 48z" />
    <glyph glyph-name="copyright" unicode="&#xa9;" horiz-adv-x="1873" 
d="M188 702q0 205 95 375t266.5 269.5t384.5 99.5q214 0 386 -99.5t266.5 -269t94.5 -375.5q0 -204 -94.5 -372.5t-266.5 -267.5t-386 -99q-213 0 -384.5 99t-266.5 268t-95 372zM252 702q0 -186 86.5 -340.5t243.5 -245.5t352 -91q197 0 355 91t244.5 245.5t86.5 340.5
q0 188 -86.5 343.5t-244.5 247t-355 91.5q-195 0 -352 -91t-243.5 -247t-86.5 -344zM1135 1092v-62q-76 25 -170 25q-157 0 -239.5 -89t-82.5 -259q0 -178 83.5 -263.5t236.5 -85.5q105 0 176 31l-2 -65q-89 -27 -181 -27q-192 0 -288.5 106.5t-96.5 298.5q0 200 100 306
t287 106q94 0 177 -22z" />
    <glyph glyph-name="ordfeminine" unicode="&#xaa;" horiz-adv-x="808" 
d="M586 764l-6 133h-2q-25 -60 -86.5 -101.5t-147.5 -41.5q-111 0 -168 51t-57 145q0 100 64.5 152.5t191.5 52.5h198v70q0 89 -47.5 131.5t-150.5 42.5q-94 0 -195 -60v72q101 43 205 43q139 0 198.5 -60t59.5 -184v-446h-57zM186 954q0 -67 45.5 -105t128.5 -38
q94 0 153.5 59t59.5 154v80h-192q-102 0 -148.5 -37.5t-46.5 -112.5z" />
    <glyph glyph-name="guillemotleft" unicode="&#xab;" horiz-adv-x="1069" 
d="M457 156l-283 395l283 395h86l-279 -395l279 -395h-86zM829 156l-282 395l282 395h86l-278 -395l278 -395h-86z" />
    <glyph glyph-name="logicalnot" unicode="&#xac;" horiz-adv-x="1437" 
d="M137 709v71h1102v-430h-74v359h-1028z" />
    <glyph glyph-name="uni00AD" unicode="&#xad;" horiz-adv-x="960" 
d="M219 551v74h520v-74h-520z" />
    <glyph glyph-name="registered" unicode="&#xae;" horiz-adv-x="1224" 
d="M102 1065q0 227 140.5 365.5t369.5 138.5t369.5 -138.5t140.5 -365.5t-140.5 -365.5t-369.5 -138.5t-369.5 138.5t-140.5 365.5zM166 1065q0 -197 124.5 -320.5t321.5 -123.5t322 123.5t125 320.5t-125 320.5t-322 123.5t-321.5 -123.5t-124.5 -320.5zM422 803v555h188
q30 0 53.5 -2.5t54 -12t51.5 -26.5t35.5 -49.5t14.5 -77.5q0 -60 -29.5 -101t-76.5 -57l143 -229h-82l-133 217h-147v-217h-72zM494 1081h122q129 0 129 109q0 62 -33.5 84t-97.5 22h-120v-215z" />
    <glyph glyph-name="macron" unicode="&#xaf;" horiz-adv-x="1189" 
d="M338 1337v70h512v-70h-512z" />
    <glyph glyph-name="degree" unicode="&#xb0;" horiz-adv-x="862" 
d="M137 1163q0 126 81.5 208.5t211.5 82.5q132 0 212.5 -82.5t80.5 -208.5q0 -128 -80.5 -210.5t-212.5 -82.5q-131 0 -212 83t-81 210zM199 1161q0 -97 63 -163t166 -66q107 0 170.5 65.5t63.5 163.5q0 99 -63.5 165.5t-170.5 66.5q-104 0 -166.5 -67t-62.5 -165z" />
    <glyph glyph-name="plusminus" unicode="&#xb1;" horiz-adv-x="1208" 
d="M152 219v74h905v-74h-905zM152 836v73h415v367h74v-367h416v-73h-416v-369h-74v369h-415z" />
    <glyph glyph-name="twosuperior" unicode="&#xb2;" 
d="M123 782v74l235 174q81 59 131.5 101t95.5 89t65 92t20 93q0 96 -66 139t-174 43q-156 0 -272 -53v70q124 51 284 51q143 0 225.5 -58t82.5 -178q0 -111 -80 -207t-262 -229l-183 -131v-2h539v-68h-641z" />
    <glyph glyph-name="threesuperior" unicode="&#xb3;" 
d="M293 1200v57h137q121 0 189.5 45.5t68.5 118.5q0 92 -64.5 129t-189.5 37q-174 0 -270 -41v68q108 41 291 41q154 0 232.5 -57t78.5 -160q0 -84 -60 -134.5t-163 -68.5v-4q125 -14 185 -71.5t60 -135.5q0 -68 -31 -118.5t-83.5 -79.5t-113.5 -42.5t-128 -13.5
q-177 0 -282 45v68q99 -47 276 -47q147 0 215 55t68 133q0 88 -70.5 132t-202.5 44h-143z" />
    <glyph glyph-name="acute" unicode="&#xb4;" horiz-adv-x="1189" 
d="M578 1239l172 266h114l-213 -266h-73z" />
    <glyph glyph-name="mu" unicode="&#xb5;" horiz-adv-x="1200" 
d="M942 0l-12 250q-73 -266 -393 -266q-192 0 -279 100v-514h-78v1477h80v-715q0 -149 71.5 -213t217.5 -64q183 0 282 101.5t99 261.5v629h80v-1047h-68z" />
    <glyph glyph-name="mu" unicode="&#x3bc;" horiz-adv-x="1200" 
d="M942 0l-12 250q-73 -266 -393 -266q-192 0 -279 100v-514h-78v1477h80v-715q0 -149 71.5 -213t217.5 -64q183 0 282 101.5t99 261.5v629h80v-1047h-68z" />
    <glyph glyph-name="paragraph" unicode="&#xb6;" horiz-adv-x="1064" 
d="M463 -430v1266q-169 0 -254.5 84t-85.5 213q0 100 52 170t131 100.5t175 30.5h365v-1864h-66v1804h-250v-1804h-67z" />
    <glyph glyph-name="periodcentered" unicode="&#xb7;" horiz-adv-x="374" 
d="M117 709q0 33 18 51t51 18q32 0 53 -19t21 -50q0 -34 -20 -53t-54 -19q-33 0 -51 19.5t-18 52.5z" />
    <glyph glyph-name="cedilla" unicode="&#xb8;" horiz-adv-x="884" 
d="M365 -154l22 154h53l-12 -104q205 0 205 -146q0 -69 -53.5 -114.5t-139.5 -45.5q-71 0 -131 29l8 51q55 -24 119 -24q59 0 93 28.5t34 79.5q0 36 -23 58.5t-52 30t-64 7.5q-43 0 -59 -4z" />
    <glyph glyph-name="onesuperior" unicode="&#xb9;" 
d="M516 782v768l-272 -151l-35 57l326 182h61v-856h-80z" />
    <glyph glyph-name="ordmasculine" unicode="&#xba;" horiz-adv-x="813" 
d="M94 1104q0 162 84.5 256t229.5 94q147 0 229 -91t82 -259q0 -160 -85.5 -255t-225.5 -95q-149 0 -231.5 91t-82.5 259zM166 1104q0 -141 65 -216t177 -75q109 0 174 77t65 214q0 136 -60.5 213.5t-178.5 77.5q-113 0 -177.5 -76.5t-64.5 -214.5z" />
    <glyph glyph-name="guillemotright" unicode="&#xbb;" horiz-adv-x="1069" 
d="M895 551l-283 -395h-86l279 395l-279 395h86zM522 551l-282 -395h-86l278 395l-278 395h86z" />
    <glyph glyph-name="onequarter" unicode="&#xbc;" horiz-adv-x="1945" 
d="M387 -43l936 1516h74l-936 -1516h-74zM457 578v768l-273 -152l-34 57l325 183h62v-856h-80zM1022 221v60l553 575h100v-571h111v-64h-111v-221h-78v221h-575zM1597 285v503h-2l-479 -503h481z" />
    <glyph glyph-name="onehalf" unicode="&#xbd;" horiz-adv-x="1945" 
d="M348 -43l936 1516h74l-936 -1516h-74zM457 578v768l-273 -152l-34 57l325 183h62v-856h-80zM1124 0v74l236 174q163 119 237 201.5t74 173.5q0 96 -65.5 139t-173.5 43q-157 0 -273 -53v69q124 51 285 51q143 0 225 -57.5t82 -177.5q0 -111 -80 -207t-262 -229l-182 -131
v-2h538v-68h-641z" />
    <glyph glyph-name="threequarters" unicode="&#xbe;" horiz-adv-x="1945" 
d="M496 -43l936 1516h73l-936 -1516h-73zM1024 221v60l553 575h100v-571h111v-64h-111v-221h-78v221h-575zM1599 285v503h-2l-479 -503h481zM299 995v58h137q121 0 189.5 45.5t68.5 118.5q0 92 -64 128.5t-190 36.5q-174 0 -270 -41v68q108 41 291 41q154 0 232.5 -57
t78.5 -160q0 -84 -60 -134.5t-163 -68.5v-4q125 -14 185.5 -71.5t60.5 -135.5q0 -67 -31.5 -118.5t-84 -79.5t-113.5 -42t-128 -14q-177 0 -282 45v68q99 -47 276 -47q147 0 215 55t68 133q0 88 -70.5 132t-202.5 44h-143z" />
    <glyph glyph-name="questiondown" unicode="&#xbf;" horiz-adv-x="1003" 
d="M627 664q0 -85 -22.5 -151t-59 -108.5t-80 -78t-87 -68.5t-80 -70.5t-59 -94t-22.5 -128.5q0 -162 76 -226.5t239 -64.5q191 0 342 109v-113q-153 -76 -327 -76q-218 0 -316 86t-98 283q0 82 23 145.5t59.5 104t81 75.5t89 68.5t81 72.5t59.5 98.5t23 136.5h78zM664 993
q0 -34 -20.5 -53.5t-55.5 -19.5q-37 0 -57.5 19.5t-20.5 53.5t21 54t57 20q35 0 55.5 -20.5t20.5 -53.5z" />
    <glyph glyph-name="Agrave" unicode="&#xc0;" horiz-adv-x="1296" 
d="M1143 0l-160 434h-672l-159 -434h-86l546 1434h82l537 -1434h-88zM649 1343l-309 -833h614zM381 1864h119l188 -287h-78z" />
    <glyph glyph-name="Aacute" unicode="&#xc1;" horiz-adv-x="1296" 
d="M1143 0l-160 434h-672l-159 -434h-86l546 1434h82l537 -1434h-88zM649 1343l-309 -833h614zM610 1577l189 287h119l-230 -287h-78z" />
    <glyph glyph-name="Acircumflex" unicode="&#xc2;" horiz-adv-x="1296" 
d="M1143 0l-160 434h-672l-159 -434h-86l546 1434h82l537 -1434h-88zM649 1343l-309 -833h614zM340 1577l260 287h98l256 -287h-84l-221 225l-221 -225h-88z" />
    <glyph glyph-name="Atilde" unicode="&#xc3;" horiz-adv-x="1296" 
d="M1143 0l-160 434h-672l-159 -434h-86l546 1434h82l537 -1434h-88zM649 1343l-309 -833h614zM422 1642l-62 17q11 62 52.5 103.5t99.5 41.5q7 0 14.5 -1t13.5 -1.5t14.5 -3t13 -4t14.5 -5.5t13.5 -5.5t15 -7t14 -7t16 -8.5t16.5 -8q13 -6 36 -17.5l34 -17t27 -10t30 -4.5
q65 0 88 92l62 -16q-15 -65 -57 -104.5t-95 -39.5q-19 0 -41 7t-37 13.5t-65 31.5q-14 7 -34 18t-30.5 16.5t-26 10t-30.5 4.5q-67 0 -96 -95z" />
    <glyph glyph-name="Adieresis" unicode="&#xc4;" horiz-adv-x="1296" 
d="M1143 0l-160 434h-672l-159 -434h-86l546 1434h82l537 -1434h-88zM649 1343l-309 -833h614zM360 1720q0 70 70 70t70 -70q0 -69 -70 -69t-70 69zM795 1720q0 70 69 70q70 0 70 -70q0 -69 -70 -69q-69 0 -69 69z" />
    <glyph glyph-name="Aring" unicode="&#xc5;" horiz-adv-x="1296" 
d="M1143 0l-160 434h-672l-159 -434h-86l546 1434h82l537 -1434h-88zM649 1343l-309 -833h614zM459 1720q0 86 47.5 137.5t140.5 51.5t141 -51.5t48 -137.5q0 -87 -47.5 -137.5t-141.5 -50.5t-141 50.5t-47 137.5zM524 1720q0 -58 32 -90.5t91 -32.5t91 32.5t32 90.5
t-32 90.5t-91 32.5t-91 -32.5t-32 -90.5z" />
    <glyph glyph-name="AE" unicode="&#xc6;" horiz-adv-x="1953" 
d="M1012 0v434h-590l-277 -434h-94l916 1434h843v-78h-718v-582h665v-76h-665v-620h720v-78h-800zM469 510h543v852z" />
    <glyph glyph-name="Ccedilla" unicode="&#xc7;" horiz-adv-x="1304" 
d="M686 -174l21 156q-274 15 -415.5 189.5t-141.5 528.5q0 396 155.5 575t470.5 179q185 0 330 -49v-96q-147 67 -334 67q-266 0 -401 -157t-135 -504q0 -344 137.5 -501t406.5 -157q87 0 176 21t154 53v-92q-143 -59 -342 -59h-2l-14 -99q235 -3 235 -162
q0 -79 -60.5 -124.5t-152.5 -45.5q-97 0 -156 33l9 53q55 -28 141 -28q63 0 104 27t41 85t-48 84.5t-117 26.5q-48 0 -62 -4z" />
    <glyph glyph-name="Egrave" unicode="&#xc8;" horiz-adv-x="1208" 
d="M221 0v1434h819v-78h-737v-582h682v-76h-682v-620h737v-78h-819zM358 1864h119l189 -287h-78z" />
    <glyph glyph-name="Eacute" unicode="&#xc9;" horiz-adv-x="1208" 
d="M221 0v1434h819v-78h-737v-582h682v-76h-682v-620h737v-78h-819zM590 1577l188 287h119l-229 -287h-78z" />
    <glyph glyph-name="Ecircumflex" unicode="&#xca;" horiz-adv-x="1208" 
d="M221 0v1434h819v-78h-737v-582h682v-76h-682v-620h737v-78h-819zM324 1577l260 287h98l256 -287h-84l-221 225l-221 -225h-88z" />
    <glyph glyph-name="Edieresis" unicode="&#xcb;" horiz-adv-x="1208" 
d="M221 0v1434h819v-78h-737v-582h682v-76h-682v-620h737v-78h-819zM344 1720q0 70 70 70q69 0 69 -70q0 -69 -69 -69q-70 0 -70 69zM778 1720q0 70 70 70t70 -70q0 -69 -70 -69t-70 69z" />
    <glyph glyph-name="Igrave" unicode="&#xcc;" horiz-adv-x="546" 
d="M231 0v1434h82v-1434h-82zM6 1864h119l188 -287h-77z" />
    <glyph glyph-name="Iacute" unicode="&#xcd;" horiz-adv-x="546" 
d="M231 0v1434h82v-1434h-82zM236 1577l188 287h119l-230 -287h-77z" />
    <glyph glyph-name="Icircumflex" unicode="&#xce;" horiz-adv-x="546" 
d="M231 0v1434h82v-1434h-82zM-35 1577l260 287h99l256 -287h-84l-222 225l-221 -225h-88z" />
    <glyph glyph-name="Idieresis" unicode="&#xcf;" horiz-adv-x="546" 
d="M231 0v1434h82v-1434h-82zM-14 1720q0 70 69 70q70 0 70 -70q0 -69 -70 -69q-69 0 -69 69zM420 1720q0 70 69 70q70 0 70 -70q0 -69 -70 -69q-69 0 -69 69z" />
    <glyph glyph-name="Eth" unicode="&#xd0;" horiz-adv-x="1431" 
d="M25 696v74h217v664q188 8 356 8q160 0 276.5 -27.5t195 -80.5t125.5 -139t67 -194t20 -256q0 -403 -163.5 -578t-547.5 -175q-157 0 -329 8v696h-217zM322 78q136 -8 243 -8q182 0 304.5 39.5t194.5 125.5t102 206.5t30 297.5q0 115 -11 200.5t-37.5 158t-71 120.5
t-112 82t-159.5 49t-215 15q-120 0 -268 -8v-586h442v-74h-442v-618z" />
    <glyph glyph-name="Ntilde" unicode="&#xd1;" horiz-adv-x="1482" 
d="M221 0v1434h96l725 -1088l138 -207v1295h80v-1434h-84l-750 1124q-1 1 -20.5 30.5t-41.5 63t-42 64t-21 31.5q2 -6 2 -183v-1130h-82zM514 1642l-61 17q11 62 52 103.5t99 41.5q23 0 49.5 -8t41.5 -15t55 -28q13 -6 36 -17.5l34 -17t27 -10t30 -4.5q65 0 88 92l61 -16
q-15 -65 -57 -104.5t-95 -39.5q-19 0 -41 7t-37 13.5t-65 31.5q-14 7 -34 18t-30.5 16.5t-26 10t-30.5 4.5q-67 0 -96 -95z" />
    <glyph glyph-name="Ograve" unicode="&#xd2;" horiz-adv-x="1505" 
d="M150 717q0 363 152 550t446 187q322 0 465 -183.5t143 -553.5q0 -737 -604 -737q-602 0 -602 737zM236 717q0 -332 126.5 -496t395.5 -164q259 0 385.5 161.5t126.5 498.5q0 336 -122 497.5t-403 161.5q-509 0 -509 -659zM485 1864h119l189 -287h-78z" />
    <glyph glyph-name="Oacute" unicode="&#xd3;" horiz-adv-x="1505" 
d="M150 717q0 363 152 550t446 187q322 0 465 -183.5t143 -553.5q0 -737 -604 -737q-602 0 -602 737zM236 717q0 -332 126.5 -496t395.5 -164q259 0 385.5 161.5t126.5 498.5q0 336 -122 497.5t-403 161.5q-509 0 -509 -659zM715 1577l188 287h119l-229 -287h-78z" />
    <glyph glyph-name="Ocircumflex" unicode="&#xd4;" horiz-adv-x="1505" 
d="M150 717q0 363 152 550t446 187q322 0 465 -183.5t143 -553.5q0 -737 -604 -737q-602 0 -602 737zM236 717q0 -332 126.5 -496t395.5 -164q259 0 385.5 161.5t126.5 498.5q0 336 -122 497.5t-403 161.5q-509 0 -509 -659zM444 1577l261 287h98l256 -287h-84l-221 225
l-222 -225h-88z" />
    <glyph glyph-name="Otilde" unicode="&#xd5;" horiz-adv-x="1505" 
d="M150 717q0 363 152 550t446 187q322 0 465 -183.5t143 -553.5q0 -737 -604 -737q-602 0 -602 737zM236 717q0 -332 126.5 -496t395.5 -164q259 0 385.5 161.5t126.5 498.5q0 336 -122 497.5t-403 161.5q-509 0 -509 -659zM526 1642l-61 17q11 62 52 103.5t99 41.5
q23 0 49.5 -8t41.5 -15t55 -28q13 -6 36 -17.5l34 -17t27 -10t30 -4.5q65 0 88 92l61 -16q-15 -66 -56.5 -105t-94.5 -39q-19 0 -40.5 6.5t-38.5 14t-65 31.5q-14 7 -33.5 18t-30 16.5t-26 10t-30.5 4.5q-68 0 -97 -95z" />
    <glyph glyph-name="Odieresis" unicode="&#xd6;" horiz-adv-x="1505" 
d="M150 717q0 363 152 550t446 187q322 0 465 -183.5t143 -553.5q0 -737 -604 -737q-602 0 -602 737zM236 717q0 -332 126.5 -496t395.5 -164q259 0 385.5 161.5t126.5 498.5q0 336 -122 497.5t-403 161.5q-509 0 -509 -659zM465 1720q0 70 70 70q69 0 69 -70q0 -69 -69 -69
q-70 0 -70 69zM899 1720q0 70 70 70q69 0 69 -70q0 -69 -69 -69q-70 0 -70 69z" />
    <glyph glyph-name="multiply" unicode="&#xd7;" horiz-adv-x="1085" 
d="M172 344l322 320l-322 319l53 51l318 -319l319 319l51 -51l-319 -319l319 -320l-51 -51l-319 319l-318 -319z" />
    <glyph glyph-name="Oslash" unicode="&#xd8;" horiz-adv-x="1505" 
d="M150 717q0 363 152 550t446 187t442 -160l143 181l49 -37l-151 -193q125 -179 125 -528q0 -737 -604 -737q-264 0 -412 139l-129 -162l-49 33l137 174q-149 186 -149 553zM236 717q0 -325 116 -486l785 996q-125 149 -392 149q-509 0 -509 -659zM1270 717q0 302 -96 459
l-781 -990q126 -129 365 -129q259 0 385.5 161.5t126.5 498.5z" />
    <glyph glyph-name="Ugrave" unicode="&#xd9;" horiz-adv-x="1439" 
d="M203 545v889h80v-885q0 -89 11 -160t30 -122.5t49.5 -89t65.5 -61t82 -37.5t94 -19t106 -5q72 0 125.5 7.5t105.5 26.5t87.5 54.5t63 89.5t41 133.5t13.5 184.5v883h82v-881q0 -311 -119.5 -442t-398.5 -131q-280 0 -399 129.5t-119 435.5zM453 1864h118l189 -287h-78z
" />
    <glyph glyph-name="Uacute" unicode="&#xda;" horiz-adv-x="1439" 
d="M203 545v889h80v-885q0 -89 11 -160t30 -122.5t49.5 -89t65.5 -61t82 -37.5t94 -19t106 -5q72 0 125.5 7.5t105.5 26.5t87.5 54.5t63 89.5t41 133.5t13.5 184.5v883h82v-881q0 -311 -119.5 -442t-398.5 -131q-280 0 -399 129.5t-119 435.5zM682 1577l188 287h119
l-229 -287h-78z" />
    <glyph glyph-name="Ucircumflex" unicode="&#xdb;" horiz-adv-x="1439" 
d="M203 545v889h80v-885q0 -89 11 -160t30 -122.5t49.5 -89t65.5 -61t82 -37.5t94 -19t106 -5q72 0 125.5 7.5t105.5 26.5t87.5 54.5t63 89.5t41 133.5t13.5 184.5v883h82v-881q0 -311 -119.5 -442t-398.5 -131q-280 0 -399 129.5t-119 435.5zM414 1577l260 287h98l256 -287
h-84l-221 225l-221 -225h-88z" />
    <glyph glyph-name="Udieresis" unicode="&#xdc;" horiz-adv-x="1439" 
d="M203 545v889h80v-885q0 -89 11 -160t30 -122.5t49.5 -89t65.5 -61t82 -37.5t94 -19t106 -5q72 0 125.5 7.5t105.5 26.5t87.5 54.5t63 89.5t41 133.5t13.5 184.5v883h82v-881q0 -311 -119.5 -442t-398.5 -131q-280 0 -399 129.5t-119 435.5zM434 1720q0 70 70 70
q69 0 69 -70q0 -69 -69 -69q-70 0 -70 69zM868 1720q0 70 70 70t70 -70q0 -69 -70 -69t-70 69z" />
    <glyph glyph-name="Yacute" unicode="&#xdd;" horiz-adv-x="1175" 
d="M549 0v596l-494 838h97l438 -754l432 754h98l-489 -838v-596h-82zM551 1577l188 287h119l-229 -287h-78z" />
    <glyph glyph-name="Thorn" unicode="&#xde;" horiz-adv-x="1206" 
d="M221 0v1434h82v-224h285q250 0 377 -95t127 -316q0 -441 -512 -441h-277v-358h-82zM303 434h277q102 0 179 21t123 54.5t75 82.5t39 98.5t10 108.5q0 60 -10.5 106.5t-38.5 91t-74.5 73t-123 46t-179.5 17.5h-277v-699z" />
    <glyph glyph-name="germandbls" unicode="&#xdf;" horiz-adv-x="1210" 
d="M184 0v1051q0 86 12 156.5t42 136t78.5 110.5t126.5 71.5t180 26.5q74 0 139.5 -20t121.5 -61t89 -113t33 -168q0 -131 -60.5 -222t-173.5 -128v-4q159 -18 236 -125.5t77 -270.5q0 -116 -35.5 -206t-96.5 -143.5t-136 -80t-160 -26.5q-95 0 -147 14v72q70 -15 141 -15
q47 0 92.5 9.5t94 36.5t84.5 68t59 110t23 157q0 82 -19.5 145t-51 102t-77 64t-92.5 34.5t-102 9.5h-121v71h102q52 0 100.5 19.5t90.5 57t67 101t25 144.5q0 132 -79.5 214.5t-230.5 82.5q-352 0 -352 -420v-1061h-80z" />
    <glyph glyph-name="agrave" unicode="&#xe0;" horiz-adv-x="1075" 
d="M834 0l-15 250q-73 -270 -354 -270q-177 0 -261.5 77t-84.5 234t96.5 227t339.5 70h260v127q0 147 -72.5 213.5t-228.5 66.5q-90 0 -179.5 -33t-144.5 -77v102q50 30 143 54t189 24q205 0 289 -88.5t84 -278.5v-698h-61zM201 299q0 -124 66 -186t218 -62q148 0 239 98.5
t91 268.5v104h-252q-88 0 -151.5 -9.5t-104 -27t-64.5 -46t-33 -61.5t-9 -79zM573 1245h-73l-213 266h114z" />
    <glyph glyph-name="aacute" unicode="&#xe1;" horiz-adv-x="1075" 
d="M834 0l-15 250q-73 -270 -354 -270q-177 0 -261.5 77t-84.5 234t96.5 227t339.5 70h260v127q0 147 -72.5 213.5t-228.5 66.5q-90 0 -179.5 -33t-144.5 -77v102q50 30 143 54t189 24q205 0 289 -88.5t84 -278.5v-698h-61zM201 299q0 -124 66 -186t218 -62q148 0 239 98.5
t91 268.5v104h-252q-88 0 -151.5 -9.5t-104 -27t-64.5 -46t-33 -61.5t-9 -79zM502 1239l172 266h114l-213 -266h-73z" />
    <glyph glyph-name="acircumflex" unicode="&#xe2;" horiz-adv-x="1075" 
d="M834 0l-15 250q-73 -270 -354 -270q-177 0 -261.5 77t-84.5 234t96.5 227t339.5 70h260v127q0 147 -72.5 213.5t-228.5 66.5q-90 0 -179.5 -33t-144.5 -77v102q50 30 143 54t189 24q205 0 289 -88.5t84 -278.5v-698h-61zM201 299q0 -124 66 -186t218 -62q148 0 239 98.5
t91 268.5v104h-252q-88 0 -151.5 -9.5t-104 -27t-64.5 -46t-33 -61.5t-9 -79zM250 1239l242 266h90l241 -266h-78l-208 205l-211 -205h-76z" />
    <glyph glyph-name="atilde" unicode="&#xe3;" horiz-adv-x="1075" 
d="M834 0l-15 250q-73 -270 -354 -270q-177 0 -261.5 77t-84.5 234t96.5 227t339.5 70h260v127q0 147 -72.5 213.5t-228.5 66.5q-90 0 -179.5 -33t-144.5 -77v102q50 30 143 54t189 24q205 0 289 -88.5t84 -278.5v-698h-61zM201 299q0 -124 66 -186t218 -62q148 0 239 98.5
t91 268.5v104h-252q-88 0 -151.5 -9.5t-104 -27t-64.5 -46t-33 -61.5t-9 -79zM317 1303l-57 14q9 60 46 96.5t95 36.5q51 0 146 -45q12 -5 36.5 -16.5t36 -16.5t28 -9.5t28.5 -4.5q31 0 50.5 19.5t31.5 64.5l55 -17q-12 -63 -48 -97t-89 -34q-30 0 -59 9.5t-89 37.5
q-84 43 -125 43q-32 0 -52.5 -18t-33.5 -63z" />
    <glyph glyph-name="adieresis" unicode="&#xe4;" horiz-adv-x="1075" 
d="M834 0l-15 250q-73 -270 -354 -270q-177 0 -261.5 77t-84.5 234t96.5 227t339.5 70h260v127q0 147 -72.5 213.5t-228.5 66.5q-90 0 -179.5 -33t-144.5 -77v102q50 30 143 54t189 24q205 0 289 -88.5t84 -278.5v-698h-61zM201 299q0 -124 66 -186t218 -62q148 0 239 98.5
t91 268.5v104h-252q-88 0 -151.5 -9.5t-104 -27t-64.5 -46t-33 -61.5t-9 -79zM309 1372q0 31 17.5 48.5t48.5 17.5t48 -17.5t17 -48.5t-17 -48t-48 -17t-48.5 17t-17.5 48zM629 1372q0 31 17 48.5t48 17.5t48.5 -17.5t17.5 -48.5t-17.5 -48t-48.5 -17t-48 17t-17 48z" />
    <glyph glyph-name="aring" unicode="&#xe5;" horiz-adv-x="1075" 
d="M834 0l-15 250q-73 -270 -354 -270q-177 0 -261.5 77t-84.5 234t96.5 227t339.5 70h260v127q0 147 -72.5 213.5t-228.5 66.5q-90 0 -179.5 -33t-144.5 -77v102q50 30 143 54t189 24q205 0 289 -88.5t84 -278.5v-698h-61zM201 299q0 -124 66 -186t218 -62q148 0 239 98.5
t91 268.5v104h-252q-88 0 -151.5 -9.5t-104 -27t-64.5 -46t-33 -61.5t-9 -79zM352 1372q0 82 47.5 133t137.5 51t137 -51t47 -133q0 -85 -46.5 -134.5t-137.5 -49.5t-138 49.5t-47 134.5zM414 1372q0 -58 32 -90.5t91 -32.5q58 0 90 32t32 91t-32 91t-90 32q-59 0 -91 -32.5
t-32 -90.5z" />
    <glyph glyph-name="ae" unicode="&#xe6;" horiz-adv-x="1812" 
d="M1683 514h-786q2 -235 97 -347t302 -112q194 0 320 107v-92q-47 -36 -132.5 -61t-187.5 -25q-169 0 -276 63t-158 191q-95 -254 -395 -254q-178 0 -263 75.5t-85 231.5q0 105 39.5 168t136 96t262.5 33h260v127q0 146 -73 212t-230 66q-90 0 -180 -32.5t-144 -75.5v102
q49 29 143 52.5t191 23.5q158 0 242.5 -52.5t112.5 -160.5q102 213 381 213q119 0 201.5 -33t131 -100.5t69.5 -159.5t21 -219v-37zM1262 995q-347 0 -365 -413h705q1 71 -7 128t-30.5 112t-59.5 91.5t-99 59t-144 22.5zM201 299q0 -124 65.5 -184t218.5 -60q150 0 241 97
t91 266v104h-252q-88 0 -152 -9.5t-104.5 -27t-64.5 -46t-33.5 -61.5t-9.5 -79z" />
    <glyph glyph-name="ccedilla" unicode="&#xe7;" horiz-adv-x="1024" 
d="M561 -154l19 136q-447 22 -447 550q0 258 119 395.5t364 137.5q146 0 269 -47v-92q-45 27 -116.5 47t-143.5 20q-212 0 -312 -115.5t-100 -340.5q0 -486 426 -486q67 0 147 23t119 53v-94q-42 -19 -116.5 -35.5t-153.5 -17.5l-10 -84q204 0 204 -146q0 -69 -53 -114.5
t-139 -45.5q-71 0 -131 29l8 51q55 -24 119 -24q59 0 93 28.5t34 79.5q0 36 -23 58.5t-52 30t-64 7.5q-44 0 -60 -4z" />
    <glyph glyph-name="egrave" unicode="&#xe8;" horiz-adv-x="1128" 
d="M999 514h-786q2 -235 97.5 -349t303.5 -114q196 0 318 107v-92q-47 -36 -132.5 -61t-187.5 -25q-247 0 -363 136.5t-116 418.5q0 272 116 401t326 129q120 0 203 -33.5t131 -101.5t69 -159.5t21 -219.5v-37zM578 997q-350 0 -365 -415h705q1 71 -7 128.5t-30.5 112.5
t-59.5 92t-99 59.5t-144 22.5zM602 1245h-74l-213 266h115z" />
    <glyph glyph-name="eacute" unicode="&#xe9;" horiz-adv-x="1128" 
d="M999 514h-786q2 -235 97.5 -349t303.5 -114q196 0 318 107v-92q-47 -36 -132.5 -61t-187.5 -25q-247 0 -363 136.5t-116 418.5q0 272 116 401t326 129q120 0 203 -33.5t131 -101.5t69 -159.5t21 -219.5v-37zM578 997q-350 0 -365 -415h705q1 71 -7 128.5t-30.5 112.5
t-59.5 92t-99 59.5t-144 22.5zM530 1239l172 266h115l-213 -266h-74z" />
    <glyph glyph-name="ecircumflex" unicode="&#xea;" horiz-adv-x="1128" 
d="M999 514h-786q2 -235 97.5 -349t303.5 -114q196 0 318 107v-92q-47 -36 -132.5 -61t-187.5 -25q-247 0 -363 136.5t-116 418.5q0 272 116 401t326 129q120 0 203 -33.5t131 -101.5t69 -159.5t21 -219.5v-37zM578 997q-350 0 -365 -415h705q1 71 -7 128.5t-30.5 112.5
t-59.5 92t-99 59.5t-144 22.5zM279 1239l241 266h90l242 -266h-78l-209 205l-211 -205h-75z" />
    <glyph glyph-name="edieresis" unicode="&#xeb;" horiz-adv-x="1128" 
d="M999 514h-786q2 -235 97.5 -349t303.5 -114q196 0 318 107v-92q-47 -36 -132.5 -61t-187.5 -25q-247 0 -363 136.5t-116 418.5q0 272 116 401t326 129q120 0 203 -33.5t131 -101.5t69 -159.5t21 -219.5v-37zM578 997q-350 0 -365 -415h705q1 71 -7 128.5t-30.5 112.5
t-59.5 92t-99 59.5t-144 22.5zM350 1372q0 31 17.5 48.5t48.5 17.5t48 -17.5t17 -48.5t-17 -48t-48 -17t-48.5 17t-17.5 48zM670 1372q0 31 17 48.5t48 17.5t48.5 -17.5t17.5 -48.5t-17.5 -48t-48.5 -17t-48 17t-17 48z" />
    <glyph glyph-name="igrave" unicode="&#xec;" horiz-adv-x="518" 
d="M219 0v1044h78v-1044h-78zM295 1245h-74l-213 266h115z" />
    <glyph glyph-name="iacute" unicode="&#xed;" horiz-adv-x="518" 
d="M219 0v1044h78v-1044h-78zM223 1239l172 266h115l-213 -266h-74z" />
    <glyph glyph-name="icircumflex" unicode="&#xee;" horiz-adv-x="518" 
d="M219 0v1044h78v-1044h-78zM-29 1239l242 266h90l242 -266h-78l-209 205l-211 -205h-76z" />
    <glyph glyph-name="idieresis" unicode="&#xef;" horiz-adv-x="518" 
d="M219 0v1044h78v-1044h-78zM33 1372q0 31 17 48.5t48 17.5t48.5 -17.5t17.5 -48.5t-17.5 -48t-48.5 -17t-48 17t-17 48zM352 1372q0 31 17.5 48.5t48.5 17.5t48 -17.5t17 -48.5t-17 -48t-48 -17t-48.5 17t-17.5 48z" />
    <glyph glyph-name="eth" unicode="&#xf0;" horiz-adv-x="1189" 
d="M408 1200l-27 49l225 109q-166 98 -311 119l31 65q189 -34 360 -145l262 125l27 -49l-238 -115q322 -288 322 -838q0 -240 -124 -388t-341 -148q-222 0 -345.5 138.5t-123.5 397.5q0 251 123.5 393t331.5 142q255 0 354 -213l4 2q-32 156 -99 270.5t-180 204.5zM205 518
q0 -120 30 -211t83.5 -145t122 -80.5t151.5 -26.5q81 0 149 27t122.5 81.5t85 145.5t30.5 209q0 231 -98 348t-289 117q-177 0 -282 -116.5t-105 -348.5z" />
    <glyph glyph-name="ntilde" unicode="&#xf1;" horiz-adv-x="1212" 
d="M190 0v1044h66l12 -237q93 258 379 258q200 0 292.5 -88.5t92.5 -302.5v-674h-78v664q0 186 -74.5 258.5t-246.5 72.5q-174 0 -269.5 -99.5t-95.5 -268.5v-627h-78zM389 1303l-57 14q9 60 46 96.5t95 36.5q50 0 145 -45q12 -5 36.5 -16.5t36.5 -16.5t28.5 -9.5t28.5 -4.5
q31 0 50 19.5t31 64.5l56 -17q-12 -63 -48 -97t-89 -34q-30 0 -59 9.5t-89 37.5q-84 43 -125 43q-32 0 -52.5 -18t-33.5 -63z" />
    <glyph glyph-name="ograve" unicode="&#xf2;" horiz-adv-x="1185" 
d="M133 524q0 541 461 541q244 0 351.5 -134.5t107.5 -406.5q0 -262 -113.5 -403t-347.5 -141q-242 0 -350.5 136.5t-108.5 407.5zM213 530v-6q0 -240 91 -356.5t290 -116.5q198 0 288.5 118t90.5 357v6q0 236 -87 349.5t-294 113.5q-197 0 -288 -116t-91 -349zM629 1245
h-74l-213 266h115z" />
    <glyph glyph-name="oacute" unicode="&#xf3;" horiz-adv-x="1185" 
d="M133 524q0 541 461 541q244 0 351.5 -134.5t107.5 -406.5q0 -262 -113.5 -403t-347.5 -141q-242 0 -350.5 136.5t-108.5 407.5zM213 530v-6q0 -240 91 -356.5t290 -116.5q198 0 288.5 118t90.5 357v6q0 236 -87 349.5t-294 113.5q-197 0 -288 -116t-91 -349zM555 1239
l172 266h115l-213 -266h-74z" />
    <glyph glyph-name="ocircumflex" unicode="&#xf4;" horiz-adv-x="1185" 
d="M133 524q0 541 461 541q244 0 351.5 -134.5t107.5 -406.5q0 -262 -113.5 -403t-347.5 -141q-242 0 -350.5 136.5t-108.5 407.5zM213 530v-6q0 -240 91 -356.5t290 -116.5q198 0 288.5 118t90.5 357v6q0 236 -87 349.5t-294 113.5q-197 0 -288 -116t-91 -349zM305 1239
l242 266h90l242 -266h-78l-209 205l-211 -205h-76z" />
    <glyph glyph-name="otilde" unicode="&#xf5;" horiz-adv-x="1185" 
d="M133 524q0 541 461 541q244 0 351.5 -134.5t107.5 -406.5q0 -262 -113.5 -403t-347.5 -141q-242 0 -350.5 136.5t-108.5 407.5zM213 530v-6q0 -240 91 -356.5t290 -116.5q198 0 288.5 118t90.5 357v6q0 236 -87 349.5t-294 113.5q-197 0 -288 -116t-91 -349zM373 1303
l-58 14q9 60 46.5 96.5t95.5 36.5q50 0 145 -45q12 -5 36.5 -16.5t36 -16.5t28 -9.5t28.5 -4.5q31 0 50.5 19.5t31.5 64.5l55 -17q-12 -63 -48 -97t-89 -34q-30 0 -58.5 9.5t-88.5 37.5q-84 43 -125 43q-32 0 -52.5 -18t-33.5 -63z" />
    <glyph glyph-name="odieresis" unicode="&#xf6;" horiz-adv-x="1185" 
d="M133 524q0 541 461 541q244 0 351.5 -134.5t107.5 -406.5q0 -262 -113.5 -403t-347.5 -141q-242 0 -350.5 136.5t-108.5 407.5zM213 530v-6q0 -240 91 -356.5t290 -116.5q198 0 288.5 118t90.5 357v6q0 236 -87 349.5t-294 113.5q-197 0 -288 -116t-91 -349zM367 1372
q0 31 17 48.5t48 17.5t48.5 -17.5t17.5 -48.5t-17.5 -48t-48.5 -17t-48 17t-17 48zM686 1372q0 31 17.5 48.5t48.5 17.5t48 -17.5t17 -48.5t-17 -48t-48 -17t-48.5 17t-17.5 48z" />
    <glyph glyph-name="divide" unicode="&#xf7;" horiz-adv-x="1204" 
d="M524 330q0 36 21 56t57 20q35 0 56.5 -20.5t21.5 -55.5q0 -34 -21 -55t-57 -21q-35 0 -56.5 21t-21.5 55zM524 995q0 35 21.5 55.5t56.5 20.5t56.5 -20.5t21.5 -55.5t-20.5 -55t-57.5 -20q-36 0 -57 20t-21 55zM150 625v75h905v-75h-905z" />
    <glyph glyph-name="oslash" unicode="&#xf8;" horiz-adv-x="1185" 
d="M133 524q0 539 461 539q208 0 317 -100l109 135l43 -31l-115 -143q105 -128 105 -400q0 -261 -113.5 -400.5t-347.5 -139.5q-211 0 -320 100l-106 -135l-43 31l115 143q-105 128 -105 401zM213 530v-6q0 -226 76 -338l575 717q-93 90 -272 90q-198 0 -288.5 -115
t-90.5 -348zM973 532q0 220 -74 330l-575 -715q92 -92 270 -92q198 0 288.5 116t90.5 355v6z" />
    <glyph glyph-name="ugrave" unicode="&#xf9;" horiz-adv-x="1196" 
d="M940 0l-12 250q-74 -270 -393 -270q-355 0 -355 348v716h78v-712q0 -150 72 -215.5t217 -65.5q183 0 282 102.5t99 264.5v626h78v-1044h-66zM635 1245h-74l-213 266h115z" />
    <glyph glyph-name="uacute" unicode="&#xfa;" horiz-adv-x="1196" 
d="M940 0l-12 250q-74 -270 -393 -270q-355 0 -355 348v716h78v-712q0 -150 72 -215.5t217 -65.5q183 0 282 102.5t99 264.5v626h78v-1044h-66zM561 1239l172 266h115l-213 -266h-74z" />
    <glyph glyph-name="ucircumflex" unicode="&#xfb;" horiz-adv-x="1196" 
d="M940 0l-12 250q-74 -270 -393 -270q-355 0 -355 348v716h78v-712q0 -150 72 -215.5t217 -65.5q183 0 282 102.5t99 264.5v626h78v-1044h-66zM305 1239l242 266h90l242 -266h-78l-209 205l-211 -205h-76z" />
    <glyph glyph-name="udieresis" unicode="&#xfc;" horiz-adv-x="1196" 
d="M940 0l-12 250q-74 -270 -393 -270q-355 0 -355 348v716h78v-712q0 -150 72 -215.5t217 -65.5q183 0 282 102.5t99 264.5v626h78v-1044h-66zM367 1372q0 31 17 48.5t48 17.5t48.5 -17.5t17.5 -48.5t-17.5 -48t-48.5 -17t-48 17t-17 48zM686 1372q0 31 17.5 48.5
t48.5 17.5t48 -17.5t17 -48.5t-17 -48t-48 -17t-48.5 17t-17.5 48z" />
    <glyph glyph-name="yacute" unicode="&#xfd;" horiz-adv-x="1062" 
d="M322 -309q34 0 61 13t44 31t34 52t26.5 60t24.5 71.5t25 71.5l-461 1054h86l416 -958l337 958h82l-411 -1130q-61 -169 -117.5 -232t-161.5 -63q-59 0 -106 21v88q46 -37 121 -37zM496 1239l172 266h114l-213 -266h-73z" />
    <glyph glyph-name="thorn" unicode="&#xfe;" horiz-adv-x="1226" 
d="M190 -369v1809h78v-635q76 258 404 258q219 0 320.5 -123.5t101.5 -396.5q0 -283 -106.5 -421t-330.5 -138q-147 0 -247.5 66.5t-141.5 197.5v-617h-78zM268 479q0 -64 12.5 -123.5t41.5 -115t71.5 -96t107.5 -65t144 -24.5q196 0 282.5 121t86.5 365q0 237 -81 344.5
t-274 107.5q-185 0 -288 -107.5t-103 -310.5v-96z" />
    <glyph glyph-name="ydieresis" unicode="&#xff;" horiz-adv-x="1062" 
d="M322 -309q34 0 61 13t44 31t34 52t26.5 60t24.5 71.5t25 71.5l-461 1054h86l416 -958l337 958h82l-411 -1130q-61 -169 -117.5 -232t-161.5 -63q-59 0 -106 21v88q46 -37 121 -37zM311 1372q0 31 17.5 48.5t48.5 17.5t48 -17.5t17 -48.5t-17 -48t-48 -17t-48.5 17
t-17.5 48zM631 1372q0 31 17 48.5t48 17.5t48.5 -17.5t17.5 -48.5t-17.5 -48t-48.5 -17t-48 17t-17 48z" />
    <glyph glyph-name="Amacron" unicode="&#x100;" horiz-adv-x="1296" 
d="M1143 0l-160 434h-672l-159 -434h-86l546 1434h82l537 -1434h-88zM649 1343l-309 -833h614zM371 1686v69h553v-69h-553z" />
    <glyph glyph-name="amacron" unicode="&#x101;" horiz-adv-x="1075" 
d="M834 0l-15 250q-73 -270 -354 -270q-177 0 -261.5 77t-84.5 234t96.5 227t339.5 70h260v127q0 147 -72.5 213.5t-228.5 66.5q-90 0 -179.5 -33t-144.5 -77v102q50 30 143 54t189 24q205 0 289 -88.5t84 -278.5v-698h-61zM201 299q0 -124 66 -186t218 -62q148 0 239 98.5
t91 268.5v104h-252q-88 0 -151.5 -9.5t-104 -27t-64.5 -46t-33 -61.5t-9 -79zM281 1337v70h512v-70h-512z" />
    <glyph glyph-name="Abreve" unicode="&#x102;" horiz-adv-x="1296" 
d="M1143 0l-160 434h-672l-159 -434h-86l546 1434h82l537 -1434h-88zM649 1343l-309 -833h614zM360 1823l62 20q53 -176 225 -176t225 176l62 -20q-67 -226 -287 -226t-287 226z" />
    <glyph glyph-name="abreve" unicode="&#x103;" horiz-adv-x="1075" 
d="M834 0l-15 250q-73 -270 -354 -270q-177 0 -261.5 77t-84.5 234t96.5 227t339.5 70h260v127q0 147 -72.5 213.5t-228.5 66.5q-90 0 -179.5 -33t-144.5 -77v102q50 30 143 54t189 24q205 0 289 -88.5t84 -278.5v-698h-61zM201 299q0 -124 66 -186t218 -62q148 0 239 98.5
t91 268.5v104h-252q-88 0 -151.5 -9.5t-104 -27t-64.5 -46t-33 -61.5t-9 -79zM250 1475l57 20q55 -180 230 -180q174 0 229 180l57 -20q-67 -226 -286 -226q-220 0 -287 226z" />
    <glyph glyph-name="Aogonek" unicode="&#x104;" horiz-adv-x="1296" 
d="M1143 0l-160 434h-672l-159 -434h-86l546 1434h82l537 -1434h-12q-82 -65 -129.5 -129.5t-47.5 -144.5q0 -115 136 -115q84 0 139 37v-62q-63 -37 -158 -37q-96 0 -143 45t-47 121q0 153 184 285h-10zM649 1343l-309 -833h614z" />
    <glyph glyph-name="aogonek" unicode="&#x105;" horiz-adv-x="1075" 
d="M961 -315v-58q-63 -37 -136 -37q-81 0 -125.5 44t-44.5 112q0 139 179 260l-15 244q-73 -270 -354 -270q-177 0 -261.5 77t-84.5 234t96.5 227t339.5 70h260v127q0 147 -72.5 213.5t-228.5 66.5q-90 0 -179.5 -33t-144.5 -77v102q50 30 143 54t189 24q205 0 289 -88.5
t84 -278.5v-698h-6q-76 -59 -118 -117.5t-42 -126.5q0 -47 29.5 -77.5t85.5 -30.5q62 0 117 37zM201 299q0 -124 66 -186t218 -62q148 0 239 98.5t91 268.5v104h-252q-88 0 -151.5 -9.5t-104 -27t-64.5 -46t-33 -61.5t-9 -79z" />
    <glyph glyph-name="Cacute" unicode="&#x106;" horiz-adv-x="1304" 
d="M1106 1405v-96q-147 67 -334 67q-266 0 -401 -157t-135 -504q0 -344 137.5 -501t406.5 -157q87 0 176 21t154 53v-92q-143 -59 -342 -59q-305 0 -461.5 173.5t-156.5 546.5q0 396 155.5 575t470.5 179q185 0 330 -49zM698 1577l189 287h119l-230 -287h-78z" />
    <glyph glyph-name="cacute" unicode="&#x107;" horiz-adv-x="1024" 
d="M885 1018v-92q-45 27 -116.5 47t-143.5 20q-212 0 -312 -115.5t-100 -340.5q0 -486 426 -486q67 0 147 23t119 53v-94q-45 -20 -123.5 -36.5t-160.5 -16.5q-488 0 -488 552q0 258 119 395.5t364 137.5q146 0 269 -47zM539 1239l172 266h114l-213 -266h-73z" />
    <glyph glyph-name="Ccircumflex" unicode="&#x108;" horiz-adv-x="1304" 
d="M1106 1405v-96q-147 67 -334 67q-266 0 -401 -157t-135 -504q0 -344 137.5 -501t406.5 -157q87 0 176 21t154 53v-92q-143 -59 -342 -59q-305 0 -461.5 173.5t-156.5 546.5q0 396 155.5 575t470.5 179q185 0 330 -49zM428 1577l260 287h98l256 -287h-84l-221 225
l-221 -225h-88z" />
    <glyph glyph-name="ccircumflex" unicode="&#x109;" horiz-adv-x="1024" 
d="M885 1018v-92q-45 27 -116.5 47t-143.5 20q-212 0 -312 -115.5t-100 -340.5q0 -486 426 -486q67 0 147 23t119 53v-94q-45 -20 -123.5 -36.5t-160.5 -16.5q-488 0 -488 552q0 258 119 395.5t364 137.5q146 0 269 -47zM287 1239l241 266h90l242 -266h-78l-209 205
l-211 -205h-75z" />
    <glyph glyph-name="Cdotaccent" unicode="&#x10a;" horiz-adv-x="1304" 
d="M1106 1405v-96q-147 67 -334 67q-266 0 -401 -157t-135 -504q0 -344 137.5 -501t406.5 -157q87 0 176 21t154 53v-92q-143 -59 -342 -59q-305 0 -461.5 173.5t-156.5 546.5q0 396 155.5 575t470.5 179q185 0 330 -49zM668 1720q0 70 69 70q70 0 70 -70q0 -69 -70 -69
q-69 0 -69 69z" />
    <glyph glyph-name="cdotaccent" unicode="&#x10b;" horiz-adv-x="1024" 
d="M885 1018v-92q-45 27 -116.5 47t-143.5 20q-212 0 -312 -115.5t-100 -340.5q0 -486 426 -486q67 0 147 23t119 53v-94q-45 -20 -123.5 -36.5t-160.5 -16.5q-488 0 -488 552q0 258 119 395.5t364 137.5q146 0 269 -47zM510 1372q0 31 17 48.5t48 17.5t48.5 -17.5
t17.5 -48.5t-17.5 -48t-48.5 -17t-48 17t-17 48z" />
    <glyph glyph-name="Ccaron" unicode="&#x10c;" horiz-adv-x="1304" 
d="M1106 1405v-96q-147 67 -334 67q-266 0 -401 -157t-135 -504q0 -344 137.5 -501t406.5 -157q87 0 176 21t154 53v-92q-143 -59 -342 -59q-305 0 -461.5 173.5t-156.5 546.5q0 396 155.5 575t470.5 179q185 0 330 -49zM688 1577l-260 287h88l221 -226l219 226h86
l-256 -287h-98z" />
    <glyph glyph-name="ccaron" unicode="&#x10d;" horiz-adv-x="1024" 
d="M885 1018v-92q-45 27 -116.5 47t-143.5 20q-212 0 -312 -115.5t-100 -340.5q0 -486 426 -486q67 0 147 23t119 53v-94q-45 -20 -123.5 -36.5t-160.5 -16.5q-488 0 -488 552q0 258 119 395.5t364 137.5q146 0 269 -47zM528 1239l-241 266h75l211 -205l209 205h78
l-242 -266h-90z" />
    <glyph glyph-name="Dcaron" unicode="&#x10e;" horiz-adv-x="1413" 
d="M221 0v1434q235 10 357 10q161 0 278 -27.5t195.5 -81t125.5 -140t67 -194.5t20 -256q0 -403 -163.5 -579t-547.5 -176q-114 0 -332 10zM303 78q167 -10 244 -10q182 0 304 40t193.5 126t101.5 207t30 298q0 116 -11 201.5t-37.5 158t-70.5 121t-112 82.5t-160.5 49
t-215.5 15q-84 0 -266 -10v-1278zM639 1577l-260 287h88l221 -226l219 226h86l-256 -287h-98z" />
    <glyph glyph-name="dcaron" unicode="&#x10f;" horiz-adv-x="1355" 
d="M971 0l-13 252q-43 -138 -139.5 -205t-255.5 -67q-214 0 -322 136.5t-108 399.5q0 287 114 418t333 131q159 0 253.5 -71t124.5 -185v727h78v-1536h-65zM580 51q185 0 281.5 103.5t96.5 330.5v105q0 64 -11 120.5t-37.5 109.5t-68 91t-107 61t-148.5 23
q-195 0 -284 -114.5t-89 -366.5q0 -229 92 -346t275 -117zM1262 1167l94 369h90l-115 -369h-69z" />
    <glyph glyph-name="Dcroat" unicode="&#x110;" horiz-adv-x="1449" 
d="M43 696v74h217v664q188 8 356 8q200 0 333.5 -41t211.5 -130.5t110 -215t32 -310.5q0 -403 -163.5 -578t-547.5 -175q-157 0 -332 8v696h-217zM342 78q133 -8 242 -8q182 0 304.5 39.5t194 125.5t101.5 206.5t30 297.5q0 116 -10.5 201t-37 158t-71 120.5t-112 81.5
t-159.5 49t-216 15q-121 0 -266 -8v-586h440v-74h-440v-618z" />
    <glyph glyph-name="dcroat" unicode="&#x111;" horiz-adv-x="1261" 
d="M971 0l-13 252q-43 -138 -139 -203t-256 -65q-214 0 -322 135t-108 397q0 287 114 417t333 130q160 0 254 -70t124 -184v436h-460v62h460v229h78v-229h207v-62h-207v-1245h-65zM580 55q186 0 282 101.5t96 328.5v105q0 64 -11 120t-37.5 109t-68 91t-107 60.5
t-148.5 22.5q-195 0 -284 -113.5t-89 -365.5q0 -459 367 -459z" />
    <glyph glyph-name="Emacron" unicode="&#x112;" horiz-adv-x="1208" 
d="M221 0v1434h819v-78h-737v-582h682v-76h-682v-620h737v-78h-819zM348 1686v69h553v-69h-553z" />
    <glyph glyph-name="emacron" unicode="&#x113;" horiz-adv-x="1128" 
d="M999 514h-786q2 -235 97.5 -349t303.5 -114q196 0 318 107v-92q-47 -36 -132.5 -61t-187.5 -25q-247 0 -363 136.5t-116 418.5q0 272 116 401t326 129q120 0 203 -33.5t131 -101.5t69 -159.5t21 -219.5v-37zM578 997q-350 0 -365 -415h705q1 71 -7 128.5t-30.5 112.5
t-59.5 92t-99 59.5t-144 22.5zM309 1337v70h512v-70h-512z" />
    <glyph glyph-name="Edotaccent" unicode="&#x116;" horiz-adv-x="1208" 
d="M221 0v1434h819v-78h-737v-582h682v-76h-682v-620h737v-78h-819zM559 1720q0 70 70 70q69 0 69 -70q0 -69 -69 -69q-70 0 -70 69z" />
    <glyph glyph-name="edotaccent" unicode="&#x117;" horiz-adv-x="1128" 
d="M999 514h-786q2 -235 97.5 -349t303.5 -114q196 0 318 107v-92q-47 -36 -132.5 -61t-187.5 -25q-247 0 -363 136.5t-116 418.5q0 272 116 401t326 129q120 0 203 -33.5t131 -101.5t69 -159.5t21 -219.5v-37zM578 997q-350 0 -365 -415h705q1 71 -7 128.5t-30.5 112.5
t-59.5 92t-99 59.5t-144 22.5zM502 1372q0 31 17 48.5t48 17.5t48.5 -17.5t17.5 -48.5t-17.5 -48t-48.5 -17t-48 17t-17 48z" />
    <glyph glyph-name="Eogonek" unicode="&#x118;" horiz-adv-x="1208" 
d="M221 0v1434h819v-78h-737v-582h682v-76h-682v-620h737v-78h-12q-52 -41 -86.5 -76.5t-62 -88.5t-27.5 -109q0 -115 135 -115q84 0 139 37v-62q-63 -37 -157 -37q-96 0 -143.5 45t-47.5 121q0 153 185 285h-742z" />
    <glyph glyph-name="eogonek" unicode="&#x119;" horiz-adv-x="1128" 
d="M807 -315v-58q-63 -37 -135 -37q-81 0 -125.5 44t-44.5 112q0 123 139 234h-29q-247 0 -363 136.5t-116 418.5q0 272 116 401t326 129q120 0 203 -33.5t131 -101.5t69 -159.5t21 -219.5v-37h-786q2 -235 97.5 -349t303.5 -114q196 0 318 107v-92q-79 -61 -213 -78
q-144 -116 -144 -232q0 -47 29.5 -77.5t85.5 -30.5q62 0 117 37zM578 997q-350 0 -365 -415h705q1 71 -7 128.5t-30.5 112.5t-59.5 92t-99 59.5t-144 22.5z" />
    <glyph glyph-name="Ecaron" unicode="&#x11a;" horiz-adv-x="1208" 
d="M221 0v1434h819v-78h-737v-582h682v-76h-682v-620h737v-78h-819zM578 1577l-261 287h89l221 -226l219 226h86l-256 -287h-98z" />
    <glyph glyph-name="ecaron" unicode="&#x11b;" horiz-adv-x="1128" 
d="M999 514h-786q2 -235 97.5 -349t303.5 -114q196 0 318 107v-92q-47 -36 -132.5 -61t-187.5 -25q-247 0 -363 136.5t-116 418.5q0 272 116 401t326 129q120 0 203 -33.5t131 -101.5t69 -159.5t21 -219.5v-37zM578 997q-350 0 -365 -415h705q1 71 -7 128.5t-30.5 112.5
t-59.5 92t-99 59.5t-144 22.5zM520 1239l-241 266h75l211 -205l209 205h78l-242 -266h-90z" />
    <glyph glyph-name="Gcircumflex" unicode="&#x11c;" horiz-adv-x="1368" 
d="M774 621v77h426v-637q-69 -34 -173 -57.5t-212 -23.5q-341 0 -503 173t-162 547q0 390 164.5 572t514.5 182q161 0 306 -55v-99q-52 32 -144 54t-168 22q-307 0 -447 -158.5t-140 -502.5q0 -348 139.5 -503t447.5 -155q160 0 297 54v510h-346zM481 1577l260 287h99
l256 -287h-84l-221 225l-222 -225h-88z" />
    <glyph glyph-name="gcircumflex" unicode="&#x11d;" horiz-adv-x="1226" 
d="M236 -309v106q43 -46 140 -80t216 -34q204 0 285 79.5t81 247.5v244q-43 -138 -140 -206t-255 -68q-214 0 -322 137t-108 399q0 287 114.5 418t334.5 131q157 0 251.5 -71t124.5 -185l13 238h65v-1029q0 -220 -108.5 -313.5t-331.5 -93.5q-221 0 -360 80zM580 51
q185 0 281.5 104t96.5 332v101q0 65 -11 122t-38.5 110.5t-69 91.5t-106.5 60.5t-147 22.5q-194 0 -283.5 -115t-89.5 -366q0 -228 93 -345.5t274 -117.5zM326 1239l241 266h90l242 -266h-78l-209 205l-211 -205h-75z" />
    <glyph glyph-name="Gbreve" unicode="&#x11e;" horiz-adv-x="1368" 
d="M774 621v77h426v-637q-69 -34 -173 -57.5t-212 -23.5q-341 0 -503 173t-162 547q0 390 164.5 572t514.5 182q161 0 306 -55v-99q-52 32 -144 54t-168 22q-307 0 -447 -158.5t-140 -502.5q0 -348 139.5 -503t447.5 -155q160 0 297 54v510h-346zM492 1823l61 20
q53 -176 225 -176q173 0 226 176l61 -20q-67 -226 -287 -226q-219 0 -286 226z" />
    <glyph glyph-name="gbreve" unicode="&#x11f;" horiz-adv-x="1226" 
d="M236 -309v106q43 -46 140 -80t216 -34q204 0 285 79.5t81 247.5v244q-43 -138 -140 -206t-255 -68q-214 0 -322 137t-108 399q0 287 114.5 418t334.5 131q157 0 251.5 -71t124.5 -185l13 238h65v-1029q0 -220 -108.5 -313.5t-331.5 -93.5q-221 0 -360 80zM580 51
q185 0 281.5 104t96.5 332v101q0 65 -11 122t-38.5 110.5t-69 91.5t-106.5 60.5t-147 22.5q-194 0 -283.5 -115t-89.5 -366q0 -228 93 -345.5t274 -117.5zM297 1475l57 20q55 -180 230 -180q174 0 229 180l57 -20q-67 -226 -286 -226q-220 0 -287 226z" />
    <glyph glyph-name="Gdotaccent" unicode="&#x120;" horiz-adv-x="1368" 
d="M774 621v77h426v-637q-69 -34 -173 -57.5t-212 -23.5q-341 0 -503 173t-162 547q0 390 164.5 572t514.5 182q161 0 306 -55v-99q-52 32 -144 54t-168 22q-307 0 -447 -158.5t-140 -502.5q0 -348 139.5 -503t447.5 -155q160 0 297 54v510h-346zM719 1720q0 70 69 70
q70 0 70 -70q0 -69 -70 -69q-69 0 -69 69z" />
    <glyph glyph-name="gdotaccent" unicode="&#x121;" horiz-adv-x="1226" 
d="M236 -309v106q43 -46 140 -80t216 -34q204 0 285 79.5t81 247.5v244q-43 -138 -140 -206t-255 -68q-214 0 -322 137t-108 399q0 287 114.5 418t334.5 131q157 0 251.5 -71t124.5 -185l13 238h65v-1029q0 -220 -108.5 -313.5t-331.5 -93.5q-221 0 -360 80zM580 51
q185 0 281.5 104t96.5 332v101q0 65 -11 122t-38.5 110.5t-69 91.5t-106.5 60.5t-147 22.5q-194 0 -283.5 -115t-89.5 -366q0 -228 93 -345.5t274 -117.5zM549 1372q0 31 17 48.5t48 17.5t48.5 -17.5t17.5 -48.5t-17.5 -48t-48.5 -17t-48 17t-17 48z" />
    <glyph glyph-name="Gcommaaccent" unicode="&#x122;" horiz-adv-x="1368" 
d="M774 621v77h426v-637q-69 -34 -173 -57.5t-212 -23.5q-341 0 -503 173t-162 547q0 390 164.5 572t514.5 182q161 0 306 -55v-99q-52 32 -144 54t-168 22q-307 0 -447 -158.5t-140 -502.5q0 -348 139.5 -503t447.5 -155q160 0 297 54v510h-346zM694 -463q102 65 113 195
q-45 0 -65.5 19.5t-20.5 51.5t20 53t62 21q82 0 82 -108q0 -72 -41.5 -155.5t-120.5 -125.5z" />
    <glyph glyph-name="gcommaaccent" unicode="&#x123;" horiz-adv-x="1226" 
d="M236 -309v106q43 -46 140 -80t216 -34q204 0 285 79.5t81 247.5v244q-43 -138 -140 -206t-255 -68q-214 0 -322 137t-108 399q0 287 114.5 418t334.5 131q157 0 251.5 -71t124.5 -185l13 238h65v-1029q0 -220 -108.5 -313.5t-331.5 -93.5q-221 0 -360 80zM580 51
q185 0 281.5 104t96.5 332v101q0 65 -11 122t-38.5 110.5t-69 91.5t-106.5 60.5t-147 22.5q-194 0 -283.5 -115t-89.5 -366q0 -228 93 -345.5t274 -117.5zM700 1536q-95 -63 -108 -182q44 0 64 -19.5t20 -50.5t-20 -51.5t-60 -20.5q-37 0 -59.5 26t-22.5 79q0 69 40.5 146
t117.5 118z" />
    <glyph glyph-name="Hcircumflex" unicode="&#x124;" horiz-adv-x="1501" 
d="M221 0v1434h82v-658h895v658h82v-1434h-82v698h-895v-698h-82zM442 1577l260 287h99l256 -287h-84l-221 225l-222 -225h-88z" />
    <glyph glyph-name="hcircumflex" unicode="&#x125;" horiz-adv-x="1212" 
d="M190 0v1536h78v-729q32 124 133.5 191t253.5 67q108 0 181 -24t116 -75t61.5 -124t18.5 -178v-664h-78v645q0 198 -73.5 274t-251.5 76q-95 0 -166.5 -27.5t-113 -77t-61.5 -111.5t-20 -138v-641h-78zM-57 1589l241 266h90l242 -266h-78l-209 205l-211 -205h-75z" />
    <glyph glyph-name="Hbar" unicode="&#x126;" horiz-adv-x="1540" 
d="M242 0v1092h-189v67h189v275h80v-275h897v275h79v-275h191v-67h-191v-1092h-79v698h-897v-698h-80zM322 776h897v316h-897v-316z" />
    <glyph glyph-name="hbar" unicode="&#x127;" horiz-adv-x="1245" 
d="M223 0v1245h-205v62h205v229h78v-229h490v-62h-490v-502q32 125 133.5 191.5t253.5 66.5q211 0 294 -94t83 -305v-602h-78v584q0 196 -74 271t-251 75q-95 0 -166.5 -27t-113 -76t-61.5 -110.5t-20 -136.5v-580h-78z" />
    <glyph glyph-name="Imacron" unicode="&#x12a;" horiz-adv-x="546" 
d="M231 0v1434h82v-1434h-82zM-4 1686v69h553v-69h-553z" />
    <glyph glyph-name="imacron" unicode="&#x12b;" horiz-adv-x="518" 
d="M219 0v1044h78v-1044h-78zM2 1337v70h512v-70h-512z" />
    <glyph glyph-name="Iogonek" unicode="&#x12e;" horiz-adv-x="546" 
d="M231 0v1434h82v-1434h-14q-52 -41 -86.5 -76.5t-62 -88.5t-27.5 -109q0 -115 135 -115q84 0 139 37v-62q-63 -37 -157 -37q-96 0 -143.5 45t-47.5 121q0 153 184 285h-2z" />
    <glyph glyph-name="iogonek" unicode="&#x12f;" horiz-adv-x="518" 
d="M219 0v1044h78v-1044h-10q-76 -59 -118 -117.5t-42 -126.5q0 -47 29.5 -77.5t85.5 -30.5q61 0 116 37v-58q-63 -37 -135 -37q-81 0 -125.5 44t-44.5 112q0 137 168 254h-2zM193 1372q0 31 17 48.5t48 17.5t48.5 -17.5t17.5 -48.5t-17.5 -48t-48.5 -17t-48 17t-17 48z" />
    <glyph glyph-name="Idotaccent" unicode="&#x130;" horiz-adv-x="546" 
d="M231 0v1434h82v-1434h-82zM203 1720q0 70 69 70q70 0 70 -70q0 -69 -70 -69q-69 0 -69 69z" />
    <glyph glyph-name="dotlessi" unicode="&#x131;" horiz-adv-x="518" 
d="M219 0v1044h78v-1044h-78z" />
    <glyph glyph-name="Jcircumflex" unicode="&#x134;" horiz-adv-x="794" 
d="M492 358v1076h81v-1092q0 -362 -331 -362q-122 0 -205 32v97q37 -22 95 -37t108 -15q128 0 190 72t62 229zM225 1577l260 287h99l256 -287h-84l-221 225l-222 -225h-88z" />
    <glyph glyph-name="jcircumflex" unicode="&#x135;" horiz-adv-x="462" 
d="M193 -121v1165h77v-1175q0 -116 -50 -182t-175 -66q-83 0 -121 14v97q52 -35 119 -35q75 0 112.5 38.5t37.5 143.5zM-55 1239l241 266h90l242 -266h-78l-209 205l-211 -205h-75z" />
    <glyph glyph-name="Kcommaaccent" unicode="&#x136;" horiz-adv-x="1343" 
d="M221 0v1434h82v-652h105l722 652h107l-762 -682l795 -752h-113l-754 715h-100v-715h-82zM578 -463q101 65 112 195q-45 0 -65.5 19.5t-20.5 51.5t20 53t62 21q82 0 82 -108q0 -72 -41.5 -155.5t-120.5 -125.5z" />
    <glyph glyph-name="kcommaaccent" unicode="&#x137;" horiz-adv-x="1028" 
d="M190 1536h78v-926h66l510 434h102l-551 -462l576 -582h-101l-540 545h-62v-545h-78v1536zM416 -446q95 63 108 182q-84 0 -84 69q0 31 20 51.5t60 20.5q37 0 59.5 -25.5t22.5 -78.5q0 -69 -40.5 -146.5t-117.5 -118.5z" />
    <glyph glyph-name="Lacute" unicode="&#x139;" horiz-adv-x="1105" 
d="M221 0v1434h82v-1356h709v-78h-791zM227 1577l189 287h119l-230 -287h-78z" />
    <glyph glyph-name="lacute" unicode="&#x13a;" horiz-adv-x="573" 
d="M268 201q0 -83 32 -114.5t103 -31.5q61 0 113 33v-86q-55 -22 -121 -22q-112 0 -158.5 53.5t-46.5 154.5v1348h78v-1335zM199 1628l172 266h114l-213 -266h-73z" />
    <glyph glyph-name="Lcommaaccent" unicode="&#x13b;" horiz-adv-x="1105" 
d="M221 0v1434h82v-1356h709v-78h-791zM461 -463q101 65 112 195q-45 0 -65.5 19.5t-20.5 51.5t20 53t62 21q82 0 82 -108q0 -72 -41.5 -155.5t-120.5 -125.5z" />
    <glyph glyph-name="lcommaaccent" unicode="&#x13c;" horiz-adv-x="573" 
d="M268 201q0 -83 32 -114.5t103 -31.5q61 0 113 33v-86q-55 -22 -121 -22q-112 0 -158.5 53.5t-46.5 154.5v1348h78v-1335zM233 -446q47 31 74.5 73.5t34.5 108.5q-84 0 -84 69q0 31 20 51.5t60 20.5q37 0 59.5 -25.5t22.5 -78.5q0 -69 -40.5 -146.5t-117.5 -118.5z" />
    <glyph glyph-name="Lcaron" unicode="&#x13d;" horiz-adv-x="1105" 
d="M221 0v1434h82v-1356h709v-78h-791zM692 1065l94 369h91l-115 -369h-70z" />
    <glyph glyph-name="lcaron" unicode="&#x13e;" horiz-adv-x="618" 
d="M268 201q0 -83 32 -114.5t103 -31.5q61 0 113 33v-86q-55 -22 -121 -22q-112 0 -158.5 53.5t-46.5 154.5v1348h78v-1335zM494 1167l94 369h90l-115 -369h-69z" />
    <glyph glyph-name="Ldot" unicode="&#x13f;" horiz-adv-x="1105" 
d="M221 0v1434h82v-1356h709v-78h-791zM739 709q0 33 18.5 51t51.5 18q32 0 53 -19t21 -50q0 -34 -20 -53t-54 -19q-33 0 -51.5 19.5t-18.5 52.5z" />
    <glyph glyph-name="ldot" unicode="&#x140;" horiz-adv-x="602" 
d="M268 201q0 -83 32 -114.5t103 -31.5q61 0 113 33v-86q-55 -22 -121 -22q-112 0 -158.5 53.5t-46.5 154.5v1348h78v-1335zM449 709q0 33 18 51t51 18q32 0 53 -19t21 -50q0 -34 -20 -53t-54 -19q-33 0 -51 19.5t-18 52.5z" />
    <glyph glyph-name="Lslash" unicode="&#x141;" horiz-adv-x="1196" 
d="M311 0v586l-217 -142v76l217 142v772h82v-719l393 258v-76l-393 -258v-561h709v-78h-791z" />
    <glyph glyph-name="lslash" unicode="&#x142;" horiz-adv-x="612" 
d="M307 209q0 -83 32 -114.5t103 -31.5q61 0 113 33v-86q-55 -22 -121 -22q-112 0 -158.5 54t-46.5 155v557l-209 -133v71l209 133v711h78v-662l221 142v-72l-221 -141v-594z" />
    <glyph glyph-name="Nacute" unicode="&#x143;" horiz-adv-x="1482" 
d="M221 0v1434h96l725 -1088l138 -207v1295h80v-1434h-84l-750 1124q-1 1 -20.5 30.5t-41.5 63t-42 64t-21 31.5q2 -6 2 -183v-1130h-82zM705 1577l188 287h119l-230 -287h-77z" />
    <glyph glyph-name="nacute" unicode="&#x144;" horiz-adv-x="1212" 
d="M190 0v1044h66l12 -237q93 258 379 258q200 0 292.5 -88.5t92.5 -302.5v-674h-78v664q0 186 -74.5 258.5t-246.5 72.5q-174 0 -269.5 -99.5t-95.5 -268.5v-627h-78zM573 1239l172 266h115l-213 -266h-74z" />
    <glyph glyph-name="Ncommaaccent" unicode="&#x145;" horiz-adv-x="1482" 
d="M221 0v1434h96l725 -1088l138 -207v1295h80v-1434h-84l-750 1124q-1 1 -20.5 30.5t-41.5 63t-42 64t-21 31.5q2 -6 2 -183v-1130h-82zM647 -463q102 65 113 195q-45 0 -65.5 19.5t-20.5 51.5t20 53t62 21q82 0 82 -108q0 -72 -41.5 -155.5t-120.5 -125.5z" />
    <glyph glyph-name="ncommaaccent" unicode="&#x146;" horiz-adv-x="1212" 
d="M190 0v1044h66l12 -237q93 258 379 258q200 0 292.5 -88.5t92.5 -302.5v-674h-78v664q0 186 -74.5 258.5t-246.5 72.5q-174 0 -269.5 -99.5t-95.5 -268.5v-627h-78zM508 -446q95 63 108 182q-84 0 -84 69q0 31 20 51.5t60 20.5q37 0 59.5 -25.5t22.5 -78.5
q0 -69 -40 -146.5t-117 -118.5z" />
    <glyph glyph-name="Ncaron" unicode="&#x147;" horiz-adv-x="1482" 
d="M221 0v1434h96l725 -1088l138 -207v1295h80v-1434h-84l-750 1124q-1 1 -20.5 30.5t-41.5 63t-42 64t-21 31.5q2 -6 2 -183v-1130h-82zM692 1577l-260 287h88l221 -226l220 226h86l-256 -287h-99z" />
    <glyph glyph-name="ncaron" unicode="&#x148;" horiz-adv-x="1212" 
d="M190 0v1044h66l12 -237q93 258 379 258q200 0 292.5 -88.5t92.5 -302.5v-674h-78v664q0 186 -74.5 258.5t-246.5 72.5q-174 0 -269.5 -99.5t-95.5 -268.5v-627h-78zM563 1239l-241 266h75l211 -205l209 205h78l-242 -266h-90z" />
    <glyph glyph-name="Omacron" unicode="&#x14c;" horiz-adv-x="1505" 
d="M150 717q0 363 152 550t446 187q322 0 465 -183.5t143 -553.5q0 -737 -604 -737q-602 0 -602 737zM236 717q0 -332 126.5 -496t395.5 -164q259 0 385.5 161.5t126.5 498.5q0 336 -122 497.5t-403 161.5q-509 0 -509 -659zM475 1686v69h553v-69h-553z" />
    <glyph glyph-name="omacron" unicode="&#x14d;" horiz-adv-x="1185" 
d="M133 524q0 541 461 541q244 0 351.5 -134.5t107.5 -406.5q0 -262 -113.5 -403t-347.5 -141q-242 0 -350.5 136.5t-108.5 407.5zM213 530v-6q0 -240 91 -356.5t290 -116.5q198 0 288.5 118t90.5 357v6q0 236 -87 349.5t-294 113.5q-197 0 -288 -116t-91 -349zM336 1337v70
h512v-70h-512z" />
    <glyph glyph-name="Ohungarumlaut" unicode="&#x150;" horiz-adv-x="1505" 
d="M150 717q0 363 152 550t446 187q322 0 465 -183.5t143 -553.5q0 -737 -604 -737q-602 0 -602 737zM236 717q0 -332 126.5 -496t395.5 -164q259 0 385.5 161.5t126.5 498.5q0 336 -122 497.5t-403 161.5q-509 0 -509 -659zM565 1587l172 266h107l-205 -266h-74zM860 1587
l205 266h115l-242 -266h-78z" />
    <glyph glyph-name="ohungarumlaut" unicode="&#x151;" horiz-adv-x="1185" 
d="M133 524q0 541 461 541q244 0 351.5 -134.5t107.5 -406.5q0 -262 -113.5 -403t-347.5 -141q-242 0 -350.5 136.5t-108.5 407.5zM213 530v-6q0 -240 91 -356.5t290 -116.5q198 0 288.5 118t90.5 357v6q0 236 -87 349.5t-294 113.5q-197 0 -288 -116t-91 -349zM426 1239
l172 266h102l-204 -266h-70zM684 1239l205 266h110l-241 -266h-74z" />
    <glyph glyph-name="OE" unicode="&#x152;" horiz-adv-x="1892" 
d="M748 1454q116 0 206 -20h795v-78h-719v-582h666v-76h-666v-620h721v-78h-793q-90 -20 -206 -20q-602 0 -602 737q0 363 152 550t446 187zM758 57q117 0 192 21v1278q-74 20 -205 20q-509 0 -509 -659q0 -332 126.5 -496t395.5 -164z" />
    <glyph glyph-name="oe" unicode="&#x153;" horiz-adv-x="1968" 
d="M133 524q0 539 461 539q330 0 420 -260q94 260 401 260q120 0 203 -33t131.5 -100.5t70 -159.5t21.5 -219v-37h-788q2 -235 97.5 -347t303.5 -112q196 0 318 107v-92q-47 -36 -132.5 -61t-185.5 -25q-178 0 -286 67.5t-156 204.5q-95 -272 -420 -272q-243 0 -351 135
t-108 405zM1417 995q-346 0 -364 -413h706q0 71 -8 128t-31 112t-60 91.5t-99 59t-144 22.5zM213 530v-6q0 -240 90.5 -354.5t290.5 -114.5q198 0 288.5 116t90.5 355v6q0 236 -87 348.5t-294 112.5q-198 0 -288.5 -115t-90.5 -348z" />
    <glyph glyph-name="Racute" unicode="&#x154;" horiz-adv-x="1308" 
d="M303 0h-82v1432q214 12 379 12q246 0 355.5 -94t109.5 -287q0 -171 -81 -268.5t-249 -128.5l441 -666h-97l-436 653h-340v-653zM303 731h299q107 0 183 26t117.5 72.5t60 101.5t18.5 124q0 78 -18.5 133.5t-61.5 96.5t-118 61t-185 20q-209 0 -295 -6v-629zM616 1577
l189 287h119l-230 -287h-78z" />
    <glyph glyph-name="racute" unicode="&#x155;" horiz-adv-x="794" 
d="M190 0v1044h60l14 -235q54 256 336 256q79 0 127 -25v-94q-51 45 -156 45q-144 0 -223.5 -92t-79.5 -283v-616h-78zM365 1239l172 266h114l-213 -266h-73z" />
    <glyph glyph-name="Rcommaaccent" unicode="&#x156;" horiz-adv-x="1308" 
d="M303 0h-82v1432q214 12 379 12q246 0 355.5 -94t109.5 -287q0 -171 -81 -268.5t-249 -128.5l441 -666h-97l-436 653h-340v-653zM303 731h299q107 0 183 26t117.5 72.5t60 101.5t18.5 124q0 78 -18.5 133.5t-61.5 96.5t-118 61t-185 20q-209 0 -295 -6v-629zM559 -463
q102 65 113 195q-45 0 -65.5 19.5t-20.5 51.5t20 53t62 21q82 0 82 -108q0 -72 -41.5 -155.5t-120.5 -125.5z" />
    <glyph glyph-name="rcommaaccent" unicode="&#x157;" horiz-adv-x="794" 
d="M190 0v1044h60l14 -235q54 256 336 256q79 0 127 -25v-94q-51 45 -156 45q-144 0 -223.5 -92t-79.5 -283v-616h-78zM291 -446q95 63 108 182q-84 0 -84 69q0 31 20 51.5t60 20.5q37 0 59.5 -25.5t22.5 -78.5q0 -69 -40.5 -146.5t-117.5 -118.5z" />
    <glyph glyph-name="Rcaron" unicode="&#x158;" horiz-adv-x="1308" 
d="M303 0h-82v1432q214 12 379 12q246 0 355.5 -94t109.5 -287q0 -171 -81 -268.5t-249 -128.5l441 -666h-97l-436 653h-340v-653zM303 731h299q107 0 183 26t117.5 72.5t60 101.5t18.5 124q0 78 -18.5 133.5t-61.5 96.5t-118 61t-185 20q-209 0 -295 -6v-629zM606 1577
l-260 287h88l221 -226l219 226h87l-256 -287h-99z" />
    <glyph glyph-name="rcaron" unicode="&#x159;" horiz-adv-x="794" 
d="M190 0v1044h60l14 -235q54 256 336 256q79 0 127 -25v-94q-51 45 -156 45q-144 0 -223.5 -92t-79.5 -283v-616h-78zM354 1239l-241 266h75l211 -205l209 205h78l-242 -266h-90z" />
    <glyph glyph-name="Sacute" unicode="&#x15a;" horiz-adv-x="1114" 
d="M887 367q0 73 -25 128t-68 89t-98 60.5t-116.5 46.5t-122.5 41.5t-116 52t-98 71t-68 104.5t-25 148q0 181 111 263.5t337 82.5q95 0 184 -20.5t129 -42.5v-113q-53 43 -141.5 70.5t-179.5 27.5q-178 0 -266 -60t-88 -204q0 -72 25.5 -126.5t68 -88t98 -59.5t116.5 -46
t122.5 -41t117 -51.5t98 -71t68 -105.5t25.5 -150q0 -393 -436 -393q-122 0 -222 26.5t-163 67.5v129q50 -53 152.5 -99.5t209.5 -46.5q201 0 286 79t85 231zM522 1577l189 287h118l-229 -287h-78z" />
    <glyph glyph-name="sacute" unicode="&#x15b;" horiz-adv-x="903" 
d="M717 1016v-105q-113 84 -254 84q-136 0 -198 -48t-62 -144q0 -54 19.5 -92.5t52.5 -61t76 -38t90.5 -27t94.5 -24t90 -34t76 -51.5t52.5 -81.5t19.5 -119.5q0 -148 -90.5 -221t-277.5 -73q-82 0 -156 16t-119 43v106q49 -43 125.5 -68.5t153.5 -25.5q143 0 212.5 52.5
t69.5 166.5q0 70 -31.5 117.5t-82 71.5t-111.5 41t-121.5 36t-111 46.5t-82 82t-31.5 134.5q0 266 346 266q77 0 147 -16t103 -33zM418 1239l172 266h115l-213 -266h-74z" />
    <glyph glyph-name="Scircumflex" unicode="&#x15c;" horiz-adv-x="1114" 
d="M887 367q0 73 -25 128t-68 89t-98 60.5t-116.5 46.5t-122.5 41.5t-116 52t-98 71t-68 104.5t-25 148q0 181 111 263.5t337 82.5q95 0 184 -20.5t129 -42.5v-113q-53 43 -141.5 70.5t-179.5 27.5q-178 0 -266 -60t-88 -204q0 -72 25.5 -126.5t68 -88t98 -59.5t116.5 -46
t122.5 -41t117 -51.5t98 -71t68 -105.5t25.5 -150q0 -393 -436 -393q-122 0 -222 26.5t-163 67.5v129q50 -53 152.5 -99.5t209.5 -46.5q201 0 286 79t85 231zM252 1577l260 287h98l256 -287h-84l-221 225l-221 -225h-88z" />
    <glyph glyph-name="scircumflex" unicode="&#x15d;" horiz-adv-x="903" 
d="M717 1016v-105q-113 84 -254 84q-136 0 -198 -48t-62 -144q0 -54 19.5 -92.5t52.5 -61t76 -38t90.5 -27t94.5 -24t90 -34t76 -51.5t52.5 -81.5t19.5 -119.5q0 -148 -90.5 -221t-277.5 -73q-82 0 -156 16t-119 43v106q49 -43 125.5 -68.5t153.5 -25.5q143 0 212.5 52.5
t69.5 166.5q0 70 -31.5 117.5t-82 71.5t-111.5 41t-121.5 36t-111 46.5t-82 82t-31.5 134.5q0 266 346 266q77 0 147 -16t103 -33zM166 1239l242 266h90l241 -266h-77l-209 205l-211 -205h-76z" />
    <glyph glyph-name="Scedilla" unicode="&#x15e;" horiz-adv-x="1114" 
d="M502 -174l20 154q-235 6 -368 94v129q50 -53 152.5 -99.5t209.5 -46.5q201 0 286 79t85 231q0 73 -25 128t-68 89t-98 60.5t-116.5 46.5t-122.5 41.5t-116 52t-98 71t-68 104.5t-25 148q0 181 111 263.5t337 82.5q95 0 184 -20.5t129 -42.5v-113q-53 43 -141.5 70.5
t-179.5 27.5q-178 0 -266 -60t-88 -204q0 -72 25.5 -126.5t68 -88t98 -59.5t116.5 -46t122.5 -41t117 -51.5t98 -71t68 -105.5t25.5 -150q0 -179 -96 -280.5t-297 -110.5l-15 -101q236 -3 236 -162q0 -79 -60.5 -124.5t-152.5 -45.5q-97 0 -156 33l8 53q55 -28 142 -28
q63 0 104 27t41 85t-48.5 84.5t-117.5 26.5q-47 0 -61 -4z" />
    <glyph glyph-name="scedilla" unicode="&#x15f;" horiz-adv-x="903" 
d="M397 -154l19 134h-10q-82 0 -156 16t-119 43v106q49 -43 125.5 -68.5t153.5 -25.5q143 0 212.5 52.5t69.5 166.5q0 70 -31.5 117.5t-82 71.5t-111.5 41t-121.5 36t-111 46.5t-82 82t-31.5 134.5q0 266 346 266q77 0 147 -16t103 -33v-105q-113 84 -254 84
q-136 0 -198 -48t-62 -144q0 -54 19.5 -92.5t52.5 -61t76 -38t90.5 -27t94.5 -24t90 -34t76 -51.5t52.5 -81.5t19.5 -119.5q0 -134 -75 -206t-228 -84l-10 -88q205 0 205 -146q0 -69 -53.5 -114.5t-139.5 -45.5q-71 0 -131 29l8 51q55 -24 119 -24q59 0 93 28.5t34 79.5
q0 36 -23 58.5t-52 30t-64 7.5q-44 0 -60 -4z" />
    <glyph glyph-name="Scaron" unicode="&#x160;" horiz-adv-x="1114" 
d="M887 367q0 73 -25 128t-68 89t-98 60.5t-116.5 46.5t-122.5 41.5t-116 52t-98 71t-68 104.5t-25 148q0 181 111 263.5t337 82.5q95 0 184 -20.5t129 -42.5v-113q-53 43 -141.5 70.5t-179.5 27.5q-178 0 -266 -60t-88 -204q0 -72 25.5 -126.5t68 -88t98 -59.5t116.5 -46
t122.5 -41t117 -51.5t98 -71t68 -105.5t25.5 -150q0 -393 -436 -393q-122 0 -222 26.5t-163 67.5v129q50 -53 152.5 -99.5t209.5 -46.5q201 0 286 79t85 231zM512 1577l-260 287h88l221 -226l219 226h86l-256 -287h-98z" />
    <glyph glyph-name="scaron" unicode="&#x161;" horiz-adv-x="903" 
d="M717 1016v-105q-113 84 -254 84q-136 0 -198 -48t-62 -144q0 -54 19.5 -92.5t52.5 -61t76 -38t90.5 -27t94.5 -24t90 -34t76 -51.5t52.5 -81.5t19.5 -119.5q0 -148 -90.5 -221t-277.5 -73q-82 0 -156 16t-119 43v106q49 -43 125.5 -68.5t153.5 -25.5q143 0 212.5 52.5
t69.5 166.5q0 70 -31.5 117.5t-82 71.5t-111.5 41t-121.5 36t-111 46.5t-82 82t-31.5 134.5q0 266 346 266q77 0 147 -16t103 -33zM408 1239l-242 266h76l211 -205l209 205h77l-241 -266h-90z" />
    <glyph glyph-name="Tcedilla" unicode="&#x162;" horiz-adv-x="1140" 
d="M528 0v1356h-471v78h1026v-78h-473v-1356h-10l-18 -119q235 -3 235 -162q0 -79 -60.5 -124.5t-152.5 -45.5q-96 0 -155 33l8 53q55 -28 141 -28q63 0 104 27t41 85t-48 84.5t-117 26.5q-48 0 -62 -4l25 174h-13z" />
    <glyph glyph-name="tcedilla" unicode="&#x163;" horiz-adv-x="790" 
d="M446 -154l19 138q-98 11 -141 70.5t-43 187.5v733h-215v69h215v224l77 30v-254h326v-69h-326v-735q0 -102 38 -145.5t118 -43.5q91 0 180 51v-88q-55 -34 -170 -34h-4l-10 -84q205 0 205 -146q0 -69 -53.5 -114.5t-139.5 -45.5q-71 0 -131 29l8 51q55 -24 119 -24
q59 0 93 28.5t34 79.5q0 36 -23 58.5t-52 30t-64 7.5q-44 0 -60 -4z" />
    <glyph glyph-name="Tcaron" unicode="&#x164;" horiz-adv-x="1140" 
d="M528 0v1356h-471v78h1026v-78h-473v-1356h-82zM522 1577l-260 287h88l221 -226l220 226h86l-256 -287h-99z" />
    <glyph glyph-name="tcaron" unicode="&#x165;" horiz-adv-x="790" 
d="M281 242v733h-215v69h215v224l77 30v-254h326v-69h-326v-735q0 -102 38 -145.5t118 -43.5q91 0 180 51v-88q-55 -34 -170 -34q-130 0 -186.5 59t-56.5 203zM584 1270l94 368h90l-115 -368h-69z" />
    <glyph glyph-name="Umacron" unicode="&#x16a;" horiz-adv-x="1439" 
d="M203 545v889h80v-885q0 -89 11 -160t30 -122.5t49.5 -89t65.5 -61t82 -37.5t94 -19t106 -5q72 0 125.5 7.5t105.5 26.5t87.5 54.5t63 89.5t41 133.5t13.5 184.5v883h82v-881q0 -311 -119.5 -442t-398.5 -131q-280 0 -399 129.5t-119 435.5zM442 1686v69h553v-69h-553z
" />
    <glyph glyph-name="umacron" unicode="&#x16b;" horiz-adv-x="1196" 
d="M940 0l-12 250q-74 -270 -393 -270q-355 0 -355 348v716h78v-712q0 -150 72 -215.5t217 -65.5q183 0 282 102.5t99 264.5v626h78v-1044h-66zM342 1337v70h512v-70h-512z" />
    <glyph glyph-name="Ubreve" unicode="&#x16c;" horiz-adv-x="1439" 
d="M203 545v889h80v-885q0 -89 11 -160t30 -122.5t49.5 -89t65.5 -61t82 -37.5t94 -19t106 -5q72 0 125.5 7.5t105.5 26.5t87.5 54.5t63 89.5t41 133.5t13.5 184.5v883h82v-881q0 -311 -119.5 -442t-398.5 -131q-280 0 -399 129.5t-119 435.5zM434 1823l62 20
q53 -176 225 -176t225 176l62 -20q-67 -226 -287 -226t-287 226z" />
    <glyph glyph-name="ubreve" unicode="&#x16d;" horiz-adv-x="1196" 
d="M940 0l-12 250q-74 -270 -393 -270q-355 0 -355 348v716h78v-712q0 -150 72 -215.5t217 -65.5q183 0 282 102.5t99 264.5v626h78v-1044h-66zM305 1475l57 20q55 -180 230 -180q174 0 229 180l58 -20q-67 -226 -287 -226t-287 226z" />
    <glyph glyph-name="Uring" unicode="&#x16e;" horiz-adv-x="1439" 
d="M203 545v889h80v-885q0 -89 11 -160t30 -122.5t49.5 -89t65.5 -61t82 -37.5t94 -19t106 -5q72 0 125.5 7.5t105.5 26.5t87.5 54.5t63 89.5t41 133.5t13.5 184.5v883h82v-881q0 -311 -119.5 -442t-398.5 -131q-280 0 -399 129.5t-119 435.5zM532 1720q0 86 48 137.5
t141 51.5t140.5 -51.5t47.5 -137.5q0 -87 -47 -137.5t-141 -50.5t-141.5 50.5t-47.5 137.5zM598 1720q0 -58 32 -90.5t91 -32.5t91 32.5t32 90.5t-32 90.5t-91 32.5t-91 -32.5t-32 -90.5z" />
    <glyph glyph-name="uring" unicode="&#x16f;" horiz-adv-x="1196" 
d="M940 0l-12 250q-74 -270 -393 -270q-355 0 -355 348v716h78v-712q0 -150 72 -215.5t217 -65.5q183 0 282 102.5t99 264.5v626h78v-1044h-66zM408 1372q0 82 47 133t137 51t137 -51t47 -133q0 -85 -46.5 -134.5t-137.5 -49.5t-137.5 49.5t-46.5 134.5zM469 1372
q0 -58 32.5 -90.5t90.5 -32.5t90.5 32.5t32.5 90.5t-32.5 90.5t-90.5 32.5t-90.5 -32.5t-32.5 -90.5z" />
    <glyph glyph-name="Uhungarumlaut" unicode="&#x170;" horiz-adv-x="1439" 
d="M203 545v889h80v-885q0 -89 11 -160t30 -122.5t49.5 -89t65.5 -61t82 -37.5t94 -19t106 -5q72 0 125.5 7.5t105.5 26.5t87.5 54.5t63 89.5t41 133.5t13.5 184.5v883h82v-881q0 -311 -119.5 -442t-398.5 -131q-280 0 -399 129.5t-119 435.5zM535 1587l172 266h106
l-205 -266h-73zM829 1587l205 266h115l-242 -266h-78z" />
    <glyph glyph-name="uhungarumlaut" unicode="&#x171;" horiz-adv-x="1196" 
d="M940 0l-12 250q-74 -270 -393 -270q-355 0 -355 348v716h78v-712q0 -150 72 -215.5t217 -65.5q183 0 282 102.5t99 264.5v626h78v-1044h-66zM426 1239l172 266h102l-204 -266h-70zM684 1239l205 266h110l-241 -266h-74z" />
    <glyph glyph-name="Uogonek" unicode="&#x172;" horiz-adv-x="1439" 
d="M981 -352v-62q-63 -37 -158 -37q-96 0 -143 45t-47 121q0 71 43 140t117 127q-11 0 -35 -1t-37 -1q-280 0 -399 129.5t-119 435.5v889h80v-885q0 -89 11 -160t30 -122.5t49.5 -89t65.5 -61t82 -37.5t94 -19t106 -5q72 0 125.5 7.5t105.5 26.5t87.5 54.5t63 89.5t41 133.5
t13.5 184.5v883h82v-881q0 -266 -87 -398t-282 -163q-163 -132 -163 -266q0 -115 135 -115q84 0 139 37z" />
    <glyph glyph-name="uogonek" unicode="&#x173;" horiz-adv-x="1196" 
d="M1073 -315v-58q-63 -37 -135 -37q-81 0 -125.5 44t-44.5 112q0 138 172 256l-12 248q-74 -270 -393 -270q-355 0 -355 348v716h78v-712q0 -150 72 -215.5t217 -65.5q183 0 282 102.5t99 264.5v626h78v-1044h-5q-76 -59 -117.5 -117.5t-41.5 -126.5q0 -47 29 -77.5
t85 -30.5q62 0 117 37z" />
    <glyph glyph-name="Ydieresis" unicode="&#x178;" horiz-adv-x="1175" 
d="M549 0v596l-494 838h97l438 -754l432 754h98l-489 -838v-596h-82zM301 1720q0 70 70 70q69 0 69 -70q0 -69 -69 -69q-70 0 -70 69zM735 1720q0 70 70 70q69 0 69 -70q0 -69 -69 -69q-70 0 -70 69z" />
    <glyph glyph-name="Zacute" unicode="&#x179;" horiz-adv-x="1159" 
d="M88 0v76l877 1280h-852v78h946v-76l-873 -1280h885v-78h-983zM543 1577l188 287h119l-229 -287h-78z" />
    <glyph glyph-name="zacute" unicode="&#x17a;" horiz-adv-x="972" 
d="M106 0v74l662 901h-643v69h733v-71l-661 -901h669v-72h-760zM451 1239l172 266h114l-213 -266h-73z" />
    <glyph glyph-name="Zdotaccent" unicode="&#x17b;" horiz-adv-x="1159" 
d="M88 0v76l877 1280h-852v78h946v-76l-873 -1280h885v-78h-983zM512 1720q0 70 70 70q69 0 69 -70q0 -69 -69 -69q-70 0 -70 69z" />
    <glyph glyph-name="zdotaccent" unicode="&#x17c;" horiz-adv-x="972" 
d="M106 0v74l662 901h-643v69h733v-71l-661 -901h669v-72h-760zM422 1372q0 31 17 48.5t48 17.5t48.5 -17.5t17.5 -48.5t-17.5 -48t-48.5 -17t-48 17t-17 48z" />
    <glyph glyph-name="Zcaron" unicode="&#x17d;" horiz-adv-x="1159" 
d="M88 0v76l877 1280h-852v78h946v-76l-873 -1280h885v-78h-983zM532 1577l-260 287h88l222 -226l219 226h86l-256 -287h-99z" />
    <glyph glyph-name="zcaron" unicode="&#x17e;" horiz-adv-x="972" 
d="M106 0v74l662 901h-643v69h733v-71l-661 -901h669v-72h-760zM442 1239l-241 266h75l211 -205l209 205h78l-242 -266h-90z" />
    <glyph glyph-name="uni018F" unicode="&#x18f;" horiz-adv-x="1417" 
d="M145 758h1037q0 107 -19 197.5t-61.5 169t-107.5 133.5t-161.5 86.5t-218.5 31.5q-187 0 -325 -55v78q148 55 334 55q319 0 484 -184.5t165 -540.5q0 -125 -20 -234t-65 -204.5t-111.5 -164t-164 -107.5t-217.5 -39q-260 0 -404.5 174.5t-144.5 515.5v88zM231 635
q5 -283 121.5 -430.5t341.5 -147.5q221 0 351.5 162t136.5 463h-951v-47z" />
    <glyph glyph-name="florin" unicode="&#x192;" horiz-adv-x="1032" 
d="M-63 -430l18 76q27 -8 57 -8q94 0 150.5 63t85.5 207l223 1065h-211l16 71h209l41 183q35 174 122 249.5t220 75.5q59 0 109 -14l-12 -72q-47 15 -107 15q-110 0 -169 -68t-89 -215l-35 -154h309l-14 -71h-309l-219 -1049q-19 -90 -41.5 -151t-59.5 -111.5t-93 -75
t-134 -24.5q-34 0 -67 8z" />
    <glyph glyph-name="uni01DD" unicode="&#x1dd;" horiz-adv-x="1128" 
d="M129 532h786q-2 236 -97 348.5t-302 112.5q-196 0 -319 -108v92q47 36 132 61t187 25q248 0 364.5 -135t116.5 -416q0 -272 -116.5 -400t-327.5 -128q-120 0 -203 33.5t-131 101t-69 159t-21 218.5v36zM551 53q349 0 364 414h-704q-1 -71 7 -128.5t30.5 -112.5
t59.5 -91.5t99 -59t144 -22.5z" />
    <glyph glyph-name="Gcaron" unicode="&#x1e6;" horiz-adv-x="1368" 
d="M774 621v77h426v-637q-69 -34 -173 -57.5t-212 -23.5q-341 0 -503 173t-162 547q0 390 164.5 572t514.5 182q161 0 306 -55v-99q-52 32 -144 54t-168 22q-307 0 -447 -158.5t-140 -502.5q0 -348 139.5 -503t447.5 -155q160 0 297 54v510h-346zM741 1577l-260 287h88
l222 -226l219 226h86l-256 -287h-99z" />
    <glyph glyph-name="gcaron" unicode="&#x1e7;" horiz-adv-x="1226" 
d="M236 -309v106q43 -46 140 -80t216 -34q204 0 285 79.5t81 247.5v244q-43 -138 -140 -206t-255 -68q-214 0 -322 137t-108 399q0 287 114.5 418t334.5 131q157 0 251.5 -71t124.5 -185l13 238h65v-1029q0 -220 -108.5 -313.5t-331.5 -93.5q-221 0 -360 80zM580 51
q185 0 281.5 104t96.5 332v101q0 65 -11 122t-38.5 110.5t-69 91.5t-106.5 60.5t-147 22.5q-194 0 -283.5 -115t-89.5 -366q0 -228 93 -345.5t274 -117.5zM543 1239l-242 266h76l211 -205l209 205h77l-241 -266h-90z" />
    <glyph glyph-name="Scommaaccent" unicode="&#x218;" horiz-adv-x="1114" 
d="M887 367q0 73 -25 128t-68 89t-98 60.5t-116.5 46.5t-122.5 41.5t-116 52t-98 71t-68 104.5t-25 148q0 181 111 263.5t337 82.5q95 0 184 -20.5t129 -42.5v-113q-53 43 -141.5 70.5t-179.5 27.5q-178 0 -266 -60t-88 -204q0 -72 25.5 -126.5t68 -88t98 -59.5t116.5 -46
t122.5 -41t117 -51.5t98 -71t68 -105.5t25.5 -150q0 -393 -436 -393q-122 0 -222 26.5t-163 67.5v129q50 -53 152.5 -99.5t209.5 -46.5q201 0 286 79t85 231zM459 -463q101 65 112 195q-45 0 -65.5 19.5t-20.5 51.5t20 53t62 21q82 0 82 -108q0 -72 -41.5 -155.5
t-120.5 -125.5z" />
    <glyph glyph-name="scommaaccent" unicode="&#x219;" horiz-adv-x="903" 
d="M717 1016v-105q-113 84 -254 84q-136 0 -198 -48t-62 -144q0 -54 19.5 -92.5t52.5 -61t76 -38t90.5 -27t94.5 -24t90 -34t76 -51.5t52.5 -81.5t19.5 -119.5q0 -148 -90.5 -221t-277.5 -73q-82 0 -156 16t-119 43v106q49 -43 125.5 -68.5t153.5 -25.5q143 0 212.5 52.5
t69.5 166.5q0 70 -31.5 117.5t-82 71.5t-111.5 41t-121.5 36t-111 46.5t-82 82t-31.5 134.5q0 266 346 266q77 0 147 -16t103 -33zM352 -446q47 31 74.5 73.5t34.5 108.5q-84 0 -84 69q0 31 20 51.5t60 20.5q37 0 59.5 -25.5t22.5 -78.5q0 -69 -40.5 -146.5t-117.5 -118.5z
" />
    <glyph glyph-name="Tcommaaccent" unicode="&#x21a;" horiz-adv-x="1140" 
d="M528 0v1356h-471v78h1026v-78h-473v-1356h-82zM473 -463q102 65 113 195q-45 0 -65.5 19.5t-20.5 51.5t20 53t62 21q82 0 82 -108q0 -72 -41.5 -155.5t-120.5 -125.5z" />
    <glyph glyph-name="tcommaaccent" unicode="&#x21b;" horiz-adv-x="790" 
d="M281 242v733h-215v69h215v224l77 30v-254h326v-69h-326v-735q0 -102 38 -145.5t118 -43.5q91 0 180 51v-88q-55 -34 -170 -34q-130 0 -186.5 59t-56.5 203zM401 -446q47 31 74.5 73.5t34.5 108.5q-84 0 -84 69q0 31 20 51.5t60 20.5q37 0 59.5 -25.5t22.5 -78.5
q0 -69 -40.5 -146.5t-117.5 -118.5z" />
    <glyph glyph-name="uni0237" unicode="&#x237;" horiz-adv-x="462" 
d="M193 -121v1165h77v-1175q0 -116 -50 -182t-175 -66q-83 0 -121 14v97q52 -35 119 -35q75 0 112.5 38.5t37.5 143.5z" />
    <glyph glyph-name="uni0259" unicode="&#x259;" horiz-adv-x="1128" 
d="M129 532h786q-2 236 -97 348.5t-302 112.5q-196 0 -319 -108v92q47 36 132 61t187 25q248 0 364.5 -135t116.5 -416q0 -272 -116.5 -400t-327.5 -128q-120 0 -203 33.5t-131 101t-69 159t-21 218.5v36zM551 53q349 0 364 414h-704q-1 -71 7 -128.5t30.5 -112.5
t59.5 -91.5t99 -59t144 -22.5z" />
    <glyph glyph-name="afii57929" unicode="&#x2bc;" horiz-adv-x="337" 
d="M92 1065l94 369h90l-114 -369h-70z" />
    <glyph glyph-name="circumflex" unicode="&#x2c6;" horiz-adv-x="1189" 
d="M307 1239l242 266h90l242 -266h-78l-209 205l-211 -205h-76z" />
    <glyph glyph-name="caron" unicode="&#x2c7;" horiz-adv-x="1189" 
d="M549 1239l-242 266h76l211 -205l209 205h78l-242 -266h-90z" />
    <glyph glyph-name="breve" unicode="&#x2d8;" horiz-adv-x="1189" 
d="M307 1475l58 20q55 -180 229 -180t229 180l58 -20q-67 -226 -287 -226t-287 226z" />
    <glyph glyph-name="dotaccent" unicode="&#x2d9;" horiz-adv-x="516" 
d="M193 1372q0 31 17 48.5t48 17.5t48.5 -17.5t17.5 -48.5t-17.5 -48t-48.5 -17t-48 17t-17 48z" />
    <glyph glyph-name="ring" unicode="&#x2da;" horiz-adv-x="1189" 
d="M410 1372q0 82 47 133t137 51t137 -51t47 -133q0 -85 -46.5 -134.5t-137.5 -49.5t-137.5 49.5t-46.5 134.5zM471 1372q0 -58 32.5 -90.5t90.5 -32.5t90.5 32.5t32.5 90.5t-32.5 90.5t-90.5 32.5t-90.5 -32.5t-32.5 -90.5z" />
    <glyph glyph-name="ogonek" unicode="&#x2db;" horiz-adv-x="1161" 
d="M924 -315v-58q-63 -37 -136 -37q-81 0 -125.5 44t-44.5 112q0 143 189 268l45 -14q-76 -59 -118 -117.5t-42 -126.5q0 -47 29.5 -77.5t85.5 -30.5q62 0 117 37z" />
    <glyph glyph-name="tilde" unicode="&#x2dc;" horiz-adv-x="1189" 
d="M375 1303l-58 14q9 60 46.5 96.5t95.5 36.5q50 0 145 -45q12 -5 36.5 -16.5t36 -16.5t28 -9.5t28.5 -4.5q31 0 50.5 19.5t31.5 64.5l55 -17q-12 -63 -48 -97t-89 -34q-30 0 -58.5 9.5t-88.5 37.5q-84 43 -125 43q-32 0 -52.5 -18t-33.5 -63z" />
    <glyph glyph-name="hungarumlaut" unicode="&#x2dd;" horiz-adv-x="1189" 
d="M418 1239l172 266h102l-205 -266h-69zM676 1239l205 266h110l-241 -266h-74z" />
    <glyph glyph-name="acutecomb" unicode="&#x301;" horiz-adv-x="0" 
d="M-614 1239l172 266h114l-213 -266h-73z" />
    <glyph glyph-name="uni0394" unicode="&#x394;" horiz-adv-x="1327" 
d="M51 0l576 1444h82l569 -1444h-1227zM164 78h997l-491 1265h-4z" />
    <glyph glyph-name="uni0394" unicode="&#x2206;" horiz-adv-x="1327" 
d="M51 0l576 1444h82l569 -1444h-1227zM164 78h997l-491 1265h-4z" />
    <glyph glyph-name="uni03A9" unicode="&#x3a9;" horiz-adv-x="1570" 
d="M150 0v78h417v172q-199 55 -308 204.5t-109 379.5q0 182 75.5 322t220.5 219t340 79q292 0 463.5 -171t171.5 -449q0 -230 -108.5 -379.5t-306.5 -204.5v-172h415v-78h-495v307q189 34 299 173t110 354q0 110 -36 207.5t-103.5 172.5t-173.5 118.5t-236 43.5
q-132 0 -238 -43.5t-172.5 -118.5t-102 -172t-35.5 -208q0 -215 110 -354t297 -173v-307h-495z" />
    <glyph glyph-name="uni03A9" unicode="&#x2126;" horiz-adv-x="1570" 
d="M150 0v78h417v172q-199 55 -308 204.5t-109 379.5q0 182 75.5 322t220.5 219t340 79q292 0 463.5 -171t171.5 -449q0 -230 -108.5 -379.5t-306.5 -204.5v-172h415v-78h-495v307q189 34 299 173t110 354q0 110 -36 207.5t-103.5 172.5t-173.5 118.5t-236 43.5
q-132 0 -238 -43.5t-172.5 -118.5t-102 -172t-35.5 -208q0 -215 110 -354t297 -173v-307h-495z" />
    <glyph glyph-name="pi" unicode="&#x3c0;" horiz-adv-x="1292" 
d="M285 0v971q-56 0 -112.5 -18.5t-92.5 -45.5l-33 68q107 69 291 69h858v-71h-172v-727q0 -98 21.5 -143.5t76.5 -45.5q7 0 49 6l3 -75q-48 -6 -68 -6q-87 0 -123.5 67t-36.5 193v731h-581v-973h-80z" />
    <glyph glyph-name="afii10023" unicode="&#x401;" horiz-adv-x="1208" 
d="M221 0v1434h819v-78h-737v-582h682v-76h-682v-620h737v-78h-819zM344 1720q0 70 70 70q69 0 69 -70q0 -69 -69 -69q-70 0 -70 69zM778 1720q0 70 70 70t70 -70q0 -69 -70 -69t-70 69z" />
    <glyph glyph-name="afii10051" unicode="&#x402;" horiz-adv-x="1611" 
d="M528 0v1356h-471v78h1026v-78h-473v-570q62 27 105 42.5t128 32t175 16.5q227 0 344 -112t117 -302v-33q0 -129 -48.5 -229.5t-150 -160.5t-242.5 -60q-88 0 -151 18v78q74 -21 149 -21q171 0 264 106t93 269v23q0 67 -19 124.5t-61.5 110t-123.5 83t-192 30.5
q-116 0 -217.5 -26.5t-169.5 -63.5v-711h-82z" />
    <glyph glyph-name="afii10052" unicode="&#x403;" horiz-adv-x="1087" 
d="M221 0v1434h760v-78h-678v-1356h-82zM514 1577l188 287h119l-229 -287h-78z" />
    <glyph glyph-name="afii10053" unicode="&#x404;" horiz-adv-x="1251" 
d="M782 57q194 0 330 86v-110q-144 -53 -326 -53q-340 0 -488 187t-148 572q0 367 146.5 541t479.5 174q189 0 338 -63v-111q-148 96 -336 96q-152 0 -257.5 -40t-166 -120.5t-88 -185.5t-30.5 -250h661v-75h-661q3 -122 19 -216.5t54 -178t98.5 -137.5t155 -85t219.5 -31z
" />
    <glyph glyph-name="afii10054" unicode="&#x405;" horiz-adv-x="1114" 
d="M887 367q0 73 -25 128t-68 89t-98 60.5t-116.5 46.5t-122.5 41.5t-116 52t-98 71t-68 104.5t-25 148q0 181 111 263.5t337 82.5q95 0 184 -20.5t129 -42.5v-113q-53 43 -141.5 70.5t-179.5 27.5q-178 0 -266 -60t-88 -204q0 -72 25.5 -126.5t68 -88t98 -59.5t116.5 -46
t122.5 -41t117 -51.5t98 -71t68 -105.5t25.5 -150q0 -393 -436 -393q-122 0 -222 26.5t-163 67.5v129q50 -53 152.5 -99.5t209.5 -46.5q201 0 286 79t85 231z" />
    <glyph glyph-name="afii10055" unicode="&#x406;" horiz-adv-x="546" 
d="M231 0v1434h82v-1434h-82z" />
    <glyph glyph-name="afii10056" unicode="&#x407;" horiz-adv-x="546" 
d="M231 0v1434h82v-1434h-82zM-14 1720q0 70 69 70q70 0 70 -70q0 -69 -70 -69q-69 0 -69 69zM420 1720q0 70 69 70q70 0 70 -70q0 -69 -70 -69q-69 0 -69 69z" />
    <glyph glyph-name="afii10057" unicode="&#x408;" horiz-adv-x="794" 
d="M492 358v1076h81v-1092q0 -362 -331 -362q-122 0 -205 32v97q37 -22 95 -37t108 -15q128 0 190 72t62 229z" />
    <glyph glyph-name="afii10058" unicode="&#x409;" horiz-adv-x="2088" 
d="M37 -12v96q42 -21 82 -21q58 0 99.5 49.5t75.5 172.5t56 343t33 550l8 256h803v-650q140 11 260 11q264 0 376 -88.5t112 -290.5q0 -223 -131 -324.5t-388 -101.5q-160 0 -309 10v1356h-645l-4 -117q-10 -273 -25.5 -475t-39 -340.5t-51 -226t-67.5 -135.5t-81 -65
t-99 -17q-34 0 -65 8zM1194 78q112 -10 231 -10q109 0 189 20t125.5 51t72.5 79t35 92.5t8 103.5q0 45 -5 78.5t-18.5 71t-41.5 63.5t-71.5 48t-111.5 33t-157 11q-131 0 -256 -10v-631z" />
    <glyph glyph-name="afii10059" unicode="&#x40a;" horiz-adv-x="2174" 
d="M221 0v1434h82v-658h895v658h82v-650q137 11 258 11q265 0 376 -88.5t111 -290.5q0 -223 -130 -324.5t-388 -101.5q-160 0 -309 10v698h-895v-698h-82zM1280 78q110 -10 231 -10q109 0 188.5 20t125.5 51t73 78.5t35.5 93t8.5 103.5q0 45 -5 78.5t-19 71t-42.5 63.5
t-72 48t-112 33t-157.5 11q-132 0 -254 -10v-631z" />
    <glyph glyph-name="afii10060" unicode="&#x40b;" horiz-adv-x="1611" 
d="M528 0v1356h-471v78h1026v-78h-473v-561q69 27 103.5 39t118.5 27.5t174 15.5q220 0 328 -93t108 -303v-481h-82v453q0 59 -7 104t-30 93t-62.5 79.5t-109.5 51.5t-166 20q-106 0 -207.5 -24.5t-167.5 -55.5v-721h-82z" />
    <glyph glyph-name="afii10061" unicode="&#x40c;" horiz-adv-x="1343" 
d="M221 0v1434h82v-652h105l722 652h107l-762 -682l795 -752h-113l-754 715h-100v-715h-82zM631 1577l188 287h119l-229 -287h-78z" />
    <glyph glyph-name="afii10062" unicode="&#x40e;" horiz-adv-x="1271" 
d="M283 10l4 99q73 -52 145 -52q34 0 66 16.5t55 40.5t45.5 60.5t36 65.5t29.5 67l-588 1127h94l537 -1037l434 1037h86l-504 -1180q-62 -144 -133 -209t-168 -65q-71 0 -139 30zM354 1853h82q14 -109 68.5 -152.5t146.5 -43.5q93 0 149 43.5t70 152.5h78
q-14 -139 -93.5 -202.5t-203.5 -63.5t-203.5 63.5t-93.5 202.5z" />
    <glyph glyph-name="afii10145" unicode="&#x40f;" horiz-adv-x="1433" 
d="M676 -266v266h-455v1434h82v-1356h827v1356h82v-1434h-454v-266h-82z" />
    <glyph glyph-name="afii10017" unicode="&#x410;" horiz-adv-x="1296" 
d="M1143 0l-160 434h-672l-159 -434h-86l546 1434h82l537 -1434h-88zM649 1343l-309 -833h614z" />
    <glyph glyph-name="afii10018" unicode="&#x411;" horiz-adv-x="1251" 
d="M221 0v1434h783v-78h-701v-533q194 6 322 6q256 0 367.5 -93.5t111.5 -315.5q0 -430 -504 -430q-208 0 -379 10zM303 78q109 -10 299 -10q103 0 179.5 19.5t120.5 50t70.5 77.5t35 93t8.5 106q0 43 -3.5 77t-14.5 70.5t-29 63.5t-49 52t-73 40.5t-102 25t-135 9.5
q-92 0 -307 -7v-667z" />
    <glyph glyph-name="afii10019" unicode="&#x412;" horiz-adv-x="1261" 
d="M221 0v1434q245 10 408 10q132 0 218 -20.5t136 -67.5t70 -114t20 -169q0 -141 -62 -218t-210 -107q313 -29 313 -326q0 -101 -24.5 -177t-81 -135t-156.5 -89.5t-242 -30.5q-161 0 -389 10zM303 78q185 -10 305 -10t203 23t130 70t67 108.5t20 146.5q0 149 -89.5 219
t-274.5 70h-361v-627zM303 776h307q208 0 294.5 70t86.5 217q0 89 -14 143t-55 92t-112.5 53t-188.5 15q-126 0 -318 -10v-580z" />
    <glyph glyph-name="afii10020" unicode="&#x413;" horiz-adv-x="1087" 
d="M221 0v1434h760v-78h-678v-1356h-82z" />
    <glyph glyph-name="afii10021" unicode="&#x414;" horiz-adv-x="1427" 
d="M45 -266v344h129q211 359 211 1216l2 140h766v-1356h168v-344h-80v266h-1116v-266h-80zM1073 78v1278h-608v-101q0 -335 -51.5 -667t-153.5 -510h813z" />
    <glyph glyph-name="afii10022" unicode="&#x415;" horiz-adv-x="1208" 
d="M221 0v1434h819v-78h-737v-582h682v-76h-682v-620h737v-78h-819z" />
    <glyph glyph-name="afii10024" unicode="&#x416;" horiz-adv-x="1738" 
d="M207 1434l483 -654h139v654h80v-654h140l481 654h96l-504 -680l543 -754h-102l-512 717h-142v-717h-80v717h-141l-516 -717h-98l540 752l-503 682h96z" />
    <glyph glyph-name="afii10025" unicode="&#x417;" horiz-adv-x="1155" 
d="M342 702v76h160q171 0 269.5 76.5t98.5 220.5q0 51 -8 92t-30 81.5t-59 67.5t-99.5 43.5t-145.5 16.5q-205 0 -376 -100v113q181 65 385 65q207 0 314 -88t107 -279q0 -138 -76.5 -223t-209.5 -112q167 -20 251.5 -109.5t84.5 -234.5q0 -222 -127 -325t-381 -103
q-116 0 -216 21.5t-165 57.5v117q68 -61 172.5 -90t218.5 -29q105 0 182.5 21.5t120.5 53.5t68.5 81.5t33 93.5t7.5 101q0 141 -100.5 217.5t-289.5 76.5h-190z" />
    <glyph glyph-name="afii10026" unicode="&#x418;" horiz-adv-x="1499" 
d="M221 0v1434h82v-1090q0 -221 -2 -227q2 2 66.5 98t66.5 98l752 1121h92v-1434h-82v1087q0 222 2 230q-130 -195 -135 -205l-750 -1112h-92z" />
    <glyph glyph-name="afii10027" unicode="&#x419;" horiz-adv-x="1499" 
d="M221 0v1434h82v-1090q0 -221 -2 -227q2 2 66.5 98t66.5 98l752 1121h92v-1434h-82v1087q0 222 2 230l-135 -205l-750 -1112h-92zM453 1853h82q14 -109 68.5 -152.5t146.5 -43.5q93 0 149 43.5t70 152.5h78q-14 -139 -93.5 -202.5t-203.5 -63.5t-203.5 63.5t-93.5 202.5z
" />
    <glyph glyph-name="afii10028" unicode="&#x41a;" horiz-adv-x="1343" 
d="M221 0v1434h82v-652h105l722 652h107l-762 -682l795 -752h-113l-754 715h-100v-715h-82z" />
    <glyph glyph-name="afii10029" unicode="&#x41b;" horiz-adv-x="1417" 
d="M37 -12v96q42 -21 82 -21q58 0 99.5 49.5t75.5 172.5t56 343t33 550l8 256h803v-1434h-80v1356h-645l-4 -117q-10 -273 -25.5 -475t-39 -340.5t-51 -226t-67.5 -135.5t-81 -65t-99 -17q-34 0 -65 8z" />
    <glyph glyph-name="afii10030" unicode="&#x41c;" horiz-adv-x="1683" 
d="M221 0v1434h96l527 -920l526 920h92v-1434h-82v1133q0 155 2 167l-90 -161l-409 -719h-80l-410 715q-3 10 -92 165q2 -12 2 -170v-1130h-82z" />
    <glyph glyph-name="afii10031" unicode="&#x41d;" horiz-adv-x="1501" 
d="M221 0v1434h82v-658h895v658h82v-1434h-82v698h-895v-698h-82z" />
    <glyph glyph-name="afii10032" unicode="&#x41e;" horiz-adv-x="1505" 
d="M150 717q0 363 152 550t446 187q322 0 465 -183.5t143 -553.5q0 -737 -604 -737q-602 0 -602 737zM236 717q0 -332 126.5 -496t395.5 -164q259 0 385.5 161.5t126.5 498.5q0 336 -122 497.5t-403 161.5q-509 0 -509 -659z" />
    <glyph glyph-name="afii10033" unicode="&#x41f;" horiz-adv-x="1468" 
d="M221 0v1434h1026v-1434h-80v1356h-864v-1356h-82z" />
    <glyph glyph-name="afii10034" unicode="&#x420;" horiz-adv-x="1226" 
d="M221 0v1434q218 10 344 10q282 0 398 -97.5t116 -330.5q0 -116 -25.5 -198.5t-84.5 -143.5t-161 -91t-249 -30q-125 0 -256 8v-561h-82zM303 639q122 -10 256 -10q243 0 338.5 85.5t95.5 297.5q0 55 -5.5 95.5t-20.5 83.5t-45 72.5t-76.5 54t-118 36.5t-166.5 12
q-135 0 -258 -10v-717z" />
    <glyph glyph-name="afii10035" unicode="&#x421;" horiz-adv-x="1304" 
d="M1106 1405v-96q-147 67 -334 67q-266 0 -401 -157t-135 -504q0 -344 137.5 -501t406.5 -157q87 0 176 21t154 53v-92q-143 -59 -342 -59q-305 0 -461.5 173.5t-156.5 546.5q0 396 155.5 575t470.5 179q185 0 330 -49z" />
    <glyph glyph-name="afii10036" unicode="&#x422;" horiz-adv-x="1140" 
d="M528 0v1356h-471v78h1026v-78h-473v-1356h-82z" />
    <glyph glyph-name="afii10037" unicode="&#x423;" horiz-adv-x="1271" 
d="M283 10l4 99q73 -52 145 -52q34 0 66 16.5t55 40.5t45.5 60.5t36 65.5t29.5 67l-588 1127h94l537 -1037l434 1037h86l-504 -1180q-62 -144 -133 -209t-168 -65q-71 0 -139 30z" />
    <glyph glyph-name="afii10038" unicode="&#x424;" horiz-adv-x="1708" 
d="M813 -41v170h-51q-332 0 -477.5 146t-145.5 452q0 305 145.5 450.5t479.5 145.5h49v152h84v-152h51q172 0 291.5 -36t193 -112t106 -185t32.5 -263q0 -203 -62 -333t-200 -197.5t-361 -67.5h-51v-170h-84zM813 205v1042h-51q-158 0 -264 -33t-165.5 -102t-83.5 -160
t-24 -223t26 -225.5t86.5 -162.5t166 -102.5t260.5 -33.5h49zM897 205h51q156 0 262 33.5t166 103t84.5 162t24.5 223.5q0 107 -14.5 185.5t-50.5 144t-96.5 106t-154 62.5t-221.5 22h-51v-1042z" />
    <glyph glyph-name="afii10039" unicode="&#x425;" horiz-adv-x="1230" 
d="M57 0l504 750l-459 684h103l409 -627l414 627h96l-458 -682l508 -752h-103l-459 686l-456 -686h-99z" />
    <glyph glyph-name="afii10040" unicode="&#x426;" horiz-adv-x="1476" 
d="M221 0v1434h82v-1356h827v1356h82v-1356h158v-344h-80v266h-1069z" />
    <glyph glyph-name="afii10041" unicode="&#x427;" horiz-adv-x="1290" 
d="M989 0v662q-56 -37 -159 -59.5t-222 -22.5q-221 0 -329.5 92t-108.5 301v461h80v-433q0 -188 86 -267t287 -79q107 0 206 24t160 58v697h80v-1434h-80z" />
    <glyph glyph-name="afii10042" unicode="&#x428;" horiz-adv-x="1830" 
d="M221 0v1434h82v-1356h571v1356h82v-1356h572v1356h82v-1434h-1389z" />
    <glyph glyph-name="afii10043" unicode="&#x429;" horiz-adv-x="1875" 
d="M221 0v1434h82v-1356h571v1356h82v-1356h572v1356h82v-1356h159v-344h-79v266h-1469z" />
    <glyph glyph-name="afii10044" unicode="&#x42a;" horiz-adv-x="1370" 
d="M393 0v1356h-317v78h399v-576q125 10 258 10q266 0 377 -101.5t111 -332.5q0 -232 -130.5 -338t-388.5 -106q-160 0 -309 10zM475 78q110 -10 232 -10q109 0 188.5 21t124.5 53.5t72 83t35 98.5t8 110q0 64 -6.5 110t-31 96t-67 81t-119 51.5t-182.5 20.5
q-117 0 -254 -11v-704z" />
    <glyph glyph-name="afii10045" unicode="&#x42b;" horiz-adv-x="1601" 
d="M221 0v1434h82v-576q167 10 285 10q246 0 353.5 -102.5t107.5 -331.5q0 -232 -130.5 -338t-386.5 -106q-113 0 -311 10zM303 78q150 -10 234 -10q108 0 187 21t124.5 53.5t72 83t34.5 98.5t8 110q0 52 -5 91t-18.5 83t-40.5 75t-69 57.5t-107 39.5t-150 13
q-133 0 -270 -11v-704zM1298 0v1434h82v-1434h-82z" />
    <glyph glyph-name="afii10046" unicode="&#x42c;" horiz-adv-x="1198" 
d="M221 0v1434h82v-576q125 10 258 10q266 0 377 -101.5t111 -332.5q0 -232 -130.5 -338t-388.5 -106q-160 0 -309 10zM303 78q110 -10 232 -10q109 0 188.5 21t125 53.5t72.5 83t35.5 98.5t8.5 110q0 64 -7 110t-31.5 96t-67 81t-119.5 51.5t-183 20.5q-117 0 -254 -11
v-704z" />
    <glyph glyph-name="afii10047" unicode="&#x42d;" horiz-adv-x="1251" 
d="M469 57q125 0 219.5 31t155 85t99 137.5t54.5 178t19 216.5h-662v75h662q-2 115 -19.5 204t-56 164.5t-99.5 124.5t-153.5 76t-214.5 27q-188 0 -336 -96v111q149 63 338 63q333 0 480 -174t147 -541q0 -385 -148.5 -572t-488.5 -187q-182 0 -326 53v110q136 -86 330 -86
z" />
    <glyph glyph-name="afii10048" unicode="&#x42e;" horiz-adv-x="1912" 
d="M1202 1454q296 0 429.5 -177.5t133.5 -559.5q0 -203 -37.5 -345.5t-113.5 -228.5t-181 -124.5t-249 -38.5q-121 0 -215.5 34t-158 94.5t-104.5 151.5t-60 198t-21 240h-322v-698h-82v1434h82v-660h322q8 337 146.5 508.5t430.5 171.5zM705 723q0 -348 117 -507t368 -159
q257 0 373 152.5t116 507.5q0 353 -109.5 506t-369.5 153q-252 0 -373.5 -157t-121.5 -496z" />
    <glyph glyph-name="afii10049" unicode="&#x42f;" horiz-adv-x="1284" 
d="M106 0l396 600q-165 23 -244.5 123t-79.5 283q0 230 130 334t427 104q144 0 328 -10v-1434h-82v590h-397l-381 -590h-97zM981 668v688q-156 10 -270 10q-107 0 -185.5 -17t-128.5 -46.5t-80 -76t-41.5 -99.5t-11.5 -123q0 -178 83.5 -257t256.5 -79h377z" />
    <glyph glyph-name="afii10065" unicode="&#x430;" horiz-adv-x="1075" 
d="M834 0l-15 250q-73 -270 -354 -270q-177 0 -261.5 77t-84.5 234t96.5 227t339.5 70h260v127q0 147 -72.5 213.5t-228.5 66.5q-90 0 -179.5 -33t-144.5 -77v102q50 30 143 54t189 24q205 0 289 -88.5t84 -278.5v-698h-61zM201 299q0 -124 66 -186t218 -62q148 0 239 98.5
t91 268.5v104h-252q-88 0 -151.5 -9.5t-104 -27t-64.5 -46t-33 -61.5t-9 -79z" />
    <glyph glyph-name="afii10066" unicode="&#x431;" horiz-adv-x="1193" 
d="M985 1556v-88q-11 -3 -20.5 -5.5t-22.5 -5t-22 -4.5t-28.5 -5t-31.5 -5t-40.5 -6t-45.5 -6.5t-58 -8t-67 -9.5q-147 -19 -203 -41q-108 -41 -160 -153q-68 -150 -69 -490h2q21 78 52.5 136t81.5 105t124.5 71t173.5 24q216 0 313 -124.5t97 -410.5q0 -270 -117.5 -410
t-337.5 -140q-243 0 -353 148t-110 460q0 141 5 248.5t18.5 195.5t31.5 151t49 112t65 80.5t86.5 55t107 36.5t131.5 24q249 33 348 65zM610 51q371 0 371 479q0 253 -84 359t-264 106q-107 0 -186.5 -36t-125.5 -102t-68 -150t-22 -187q0 -237 93.5 -353t285.5 -116z" />
    <glyph glyph-name="afii10067" unicode="&#x432;" horiz-adv-x="1085" 
d="M190 0v1047q131 8 349 8q150 0 234 -29.5t116.5 -86.5t32.5 -155q0 -196 -199 -237q122 -9 183 -76t61 -178q0 -161 -95.5 -232t-308.5 -71q-145 0 -373 10zM268 70q203 -11 297 -11q99 0 163 15t98 48t46.5 74t12.5 103q0 115 -73.5 163t-225.5 48h-318v-440zM268 578
h322q126 0 190 45t64 151q0 53 -10.5 88t-41 65t-91.5 44t-156 14q-173 0 -277 -8v-399z" />
    <glyph glyph-name="afii10068" unicode="&#x433;" horiz-adv-x="892" 
d="M190 0v1044h625v-71h-547v-973h-78z" />
    <glyph glyph-name="afii10069" unicode="&#x434;" horiz-adv-x="1165" 
d="M47 -266v338h109q141 244 159 835l4 137h615v-972h145v-338h-78v266h-876v-266h-78zM856 72v901h-465l-2 -72q-6 -246 -46.5 -478t-106.5 -351h620z" />
    <glyph glyph-name="afii10070" unicode="&#x435;" horiz-adv-x="1128" 
d="M999 514h-786q2 -235 97.5 -349t303.5 -114q196 0 318 107v-92q-47 -36 -132.5 -61t-187.5 -25q-247 0 -363 136.5t-116 418.5q0 272 116 401t326 129q120 0 203 -33.5t131 -101.5t69 -159.5t21 -219.5v-37zM578 997q-350 0 -365 -415h705q1 71 -7 128.5t-30.5 112.5
t-59.5 92t-99 59.5t-144 22.5z" />
    <glyph glyph-name="afii10072" unicode="&#x436;" horiz-adv-x="1464" 
d="M160 0h-92l403 541l-389 503h94l359 -473h157v473h78v-473h160l358 473h92l-387 -503l404 -541h-94l-377 508h-156v-508h-78v508h-153z" />
    <glyph glyph-name="afii10073" unicode="&#x437;" horiz-adv-x="1005" 
d="M109 53v107q138 -109 362 -109q326 0 326 236q0 223 -297 223h-181v65h185q133 0 193.5 60t60.5 162q0 101 -67.5 149.5t-231.5 48.5q-186 0 -322 -98v104q152 64 316 64q212 0 299.5 -64.5t87.5 -191.5q0 -224 -230 -260q134 -6 201.5 -71.5t67.5 -184.5
q0 -146 -101.5 -229.5t-310.5 -83.5q-212 0 -358 73z" />
    <glyph glyph-name="afii10074" unicode="&#x438;" horiz-adv-x="1204" 
d="M190 0v1044h78v-806q0 -4 -1 -62t-1 -59h2q5 7 39 55t37 51l596 821h74v-1044h-78v807q0 6 1 63t1 58h-2q-1 -2 -18 -26.5t-35 -50.5t-19 -28l-600 -823h-74z" />
    <glyph glyph-name="afii10075" unicode="&#x439;" horiz-adv-x="1204" 
d="M190 0v1044h78v-806q0 -4 -1 -62t-1 -59h2l76 106l596 821h74v-1044h-78v807q0 6 1 63t1 58h-2l-72 -105l-600 -823h-74zM315 1495h78q14 -100 68.5 -140t140.5 -40q188 0 213 180h74q-7 -67 -32.5 -116t-65 -76.5t-86.5 -40.5t-103 -13t-103 13t-86.5 40.5t-65 76.5
t-32.5 116z" />
    <glyph glyph-name="afii10076" unicode="&#x43a;" horiz-adv-x="1067" 
d="M895 0l-500 508h-127v-508h-78v1044h78v-473h123l477 473h105l-510 -499l538 -545h-106z" />
    <glyph glyph-name="afii10077" unicode="&#x43b;" horiz-adv-x="1163" 
d="M47 -8v98q27 -12 53 -12q78 0 122.5 79.5t65.5 267.5t21 521v98h662v-1044h-78v973h-508v-86q-1 -248 -16 -415.5t-49 -277.5t-88 -159t-134 -49q-24 0 -51 6z" />
    <glyph glyph-name="afii10078" unicode="&#x43c;" horiz-adv-x="1333" 
d="M190 0v1044h105l375 -704l368 704h105v-1044h-78v805v151q-1 -2 -18 -38t-33.5 -70t-18.5 -37l-293 -549h-71l-295 553q-5 15 -68 141v-151v-805h-78z" />
    <glyph glyph-name="afii10079" unicode="&#x43d;" horiz-adv-x="1204" 
d="M190 0v1044h78v-471h668v471h78v-1044h-78v502h-668v-502h-78z" />
    <glyph glyph-name="afii10080" unicode="&#x43e;" horiz-adv-x="1185" 
d="M133 524q0 541 461 541q244 0 351.5 -134.5t107.5 -406.5q0 -262 -113.5 -403t-347.5 -141q-242 0 -350.5 136.5t-108.5 407.5zM213 530v-6q0 -240 91 -356.5t290 -116.5q198 0 288.5 118t90.5 357v6q0 236 -87 349.5t-294 113.5q-197 0 -288 -116t-91 -349z" />
    <glyph glyph-name="afii10081" unicode="&#x43f;" horiz-adv-x="1181" 
d="M190 0v1044h799v-1044h-78v973h-643v-973h-78z" />
    <glyph glyph-name="afii10082" unicode="&#x440;" horiz-adv-x="1226" 
d="M190 -369v1413h64l14 -239q77 260 404 260q219 0 320.5 -124.5t101.5 -397.5q0 -284 -106.5 -423.5t-330.5 -139.5q-147 0 -247.5 68t-141.5 200v-617h-78zM268 479q0 -64 12.5 -124t41.5 -116t71.5 -97t107.5 -66t144 -25q195 0 282 123t87 367q0 237 -81 345.5
t-274 108.5q-185 0 -288 -108.5t-103 -311.5v-96z" />
    <glyph glyph-name="afii10083" unicode="&#x441;" horiz-adv-x="1024" 
d="M885 1018v-92q-45 27 -116.5 47t-143.5 20q-212 0 -312 -115.5t-100 -340.5q0 -486 426 -486q67 0 147 23t119 53v-94q-45 -20 -123.5 -36.5t-160.5 -16.5q-488 0 -488 552q0 258 119 395.5t364 137.5q146 0 269 -47z" />
    <glyph glyph-name="afii10084" unicode="&#x442;" horiz-adv-x="940" 
d="M432 0v973h-366v71h808v-71h-364v-973h-78z" />
    <glyph glyph-name="afii10085" unicode="&#x443;" horiz-adv-x="1062" 
d="M322 -309q34 0 61 13t44 31t34 52t26.5 60t24.5 71.5t25 71.5l-461 1054h86l416 -958l337 958h82l-411 -1130q-61 -169 -117.5 -232t-161.5 -63q-59 0 -106 21v88q46 -37 121 -37z" />
    <glyph glyph-name="afii10086" unicode="&#x444;" horiz-adv-x="1462" 
d="M770 -369h-78v363q-31 -4 -108 -4q-244 0 -347.5 127t-103.5 403q0 270 107 401.5t356 131.5q69 0 96 -4v487h78v-487q93 6 102 6q247 0 352 -125.5t105 -401.5q0 -269 -110.5 -403.5t-358.5 -134.5q-44 0 -90 4v-363zM592 59q73 0 100 4v916q-46 8 -94 8
q-112 0 -188.5 -30.5t-119 -93.5t-60 -145t-17.5 -198t16.5 -196t57.5 -142.5t116.5 -92.5t188.5 -30zM770 61q27 -2 88 -2q91 0 158.5 21t112 59.5t71.5 98t38 130t11 162.5t-10.5 160.5t-36.5 126.5t-69.5 94t-111 56t-159.5 20q-42 0 -92 -6v-920z" />
    <glyph glyph-name="afii10087" unicode="&#x445;" horiz-adv-x="1011" 
d="M66 0l395 549l-357 495h95l311 -438l311 438h88l-356 -493l393 -551h-94l-348 487l-346 -487h-92z" />
    <glyph glyph-name="afii10088" unicode="&#x446;" horiz-adv-x="1208" 
d="M190 0v1044h78v-972h627v972h78v-972h147v-338h-78v266h-852z" />
    <glyph glyph-name="afii10089" unicode="&#x447;" horiz-adv-x="1067" 
d="M147 674v370h80v-356q0 -117 61.5 -166t215.5 -49q178 0 293 45v526h80v-1044h-80v449q-42 -15 -126 -30.5t-173 -15.5q-181 0 -266 59t-85 212z" />
    <glyph glyph-name="afii10090" unicode="&#x448;" horiz-adv-x="1566" 
d="M190 0v1044h78v-972h475v972h78v-972h475v972h78v-1044h-1184z" />
    <glyph glyph-name="afii10091" unicode="&#x449;" horiz-adv-x="1605" 
d="M190 0v1044h78v-972h475v972h78v-972h475v972h78v-972h146v-338h-78v266h-1252z" />
    <glyph glyph-name="afii10092" unicode="&#x44a;" horiz-adv-x="1165" 
d="M319 0v973h-253v71h331v-399q163 10 260 10q214 0 308 -73t94 -258q0 -174 -100 -254t-326 -80q-148 0 -314 10zM397 72q137 -11 238 -11q188 0 266 58.5t78 206.5q0 80 -19.5 131t-63.5 79t-101.5 38t-145.5 10q-72 0 -252 -11v-501z" />
    <glyph glyph-name="afii10093" unicode="&#x44b;" horiz-adv-x="1374" 
d="M268 645q110 10 226 10q225 0 313 -71t88 -260q0 -171 -101 -252.5t-315 -81.5q-138 0 -289 10v1044h78v-399zM268 72q124 -11 215 -11q179 0 254.5 59.5t75.5 205.5q0 80 -17.5 130.5t-59.5 78.5t-99.5 38.5t-149.5 10.5q-101 0 -219 -11v-501zM1104 0v1044h78v-1044
h-78z" />
    <glyph glyph-name="afii10094" unicode="&#x44c;" horiz-adv-x="1036" 
d="M190 0v1044h78v-399q125 10 240 10q234 0 327 -71.5t93 -259.5q0 -334 -406 -334q-166 0 -332 10zM268 72q140 -11 248 -11q166 0 249 60.5t83 204.5q0 81 -18.5 131t-62.5 78.5t-105 38.5t-160 10q-97 0 -234 -11v-501z" />
    <glyph glyph-name="afii10095" unicode="&#x44d;" horiz-adv-x="1030" 
d="M412 51q112 0 187.5 25.5t123 82.5t69 141t23.5 208h-534v70h534q-1 82 -11 142t-36.5 114.5t-70.5 88t-115.5 53t-169.5 19.5q-156 0 -283 -88v99q108 59 291 59q259 0 368 -129t109 -395q0 -292 -110.5 -426.5t-372.5 -134.5q-168 0 -295 53v102q46 -36 123.5 -60
t169.5 -24z" />
    <glyph glyph-name="afii10096" unicode="&#x44e;" horiz-adv-x="1542" 
d="M967 1065q228 0 336 -126t108 -415q0 -285 -111.5 -414.5t-328.5 -129.5q-215 0 -323.5 126t-112.5 390h-267v-496h-78v1044h78v-477h267q3 89 17 160.5t45 136t79 107.5t121.5 68.5t169.5 25.5zM614 524q0 -241 85 -357t268 -116q119 0 197 44.5t121.5 150t43.5 276.5
q0 254 -83 363.5t-281 109.5q-188 0 -269.5 -108.5t-81.5 -362.5z" />
    <glyph glyph-name="afii10097" unicode="&#x44f;" horiz-adv-x="1099" 
d="M106 0l300 432q-128 21 -191 93.5t-63 207.5q0 167 103.5 244.5t336.5 77.5q106 0 317 -11v-1044h-78v420h-346l-286 -420h-93zM831 489v486q-143 10 -239 10q-193 0 -276 -56.5t-83 -197.5q0 -59 17 -103t44.5 -70t69.5 -42t85.5 -21.5t99.5 -5.5h282z" />
    <glyph glyph-name="afii10071" unicode="&#x451;" horiz-adv-x="1128" 
d="M999 514h-786q2 -235 97.5 -349t303.5 -114q196 0 318 107v-92q-47 -36 -132.5 -61t-187.5 -25q-247 0 -363 136.5t-116 418.5q0 272 116 401t326 129q120 0 203 -33.5t131 -101.5t69 -159.5t21 -219.5v-37zM578 997q-350 0 -365 -415h705q1 71 -7 128.5t-30.5 112.5
t-59.5 92t-99 59.5t-144 22.5zM350 1372q0 31 17.5 48.5t48.5 17.5t48 -17.5t17 -48.5t-17 -48t-48 -17t-48.5 17t-17.5 48zM670 1372q0 31 17 48.5t48 17.5t48.5 -17.5t17.5 -48.5t-17.5 -48t-48.5 -17t-48 17t-17 48z" />
    <glyph glyph-name="afii10099" unicode="&#x452;" horiz-adv-x="1239" 
d="M791 1245h-490v-502q32 125 133.5 191.5t253.5 66.5q211 0 294 -94t83 -305v-86q0 -633 -395 -868l-54 41q197 120 284 325t87 502v68q0 196 -74 271t-251 75q-95 0 -166.5 -27t-113 -76t-61.5 -110.5t-20 -136.5v-580h-78v1245h-205v62h205v229h78v-229h490v-62z" />
    <glyph glyph-name="afii10100" unicode="&#x453;" horiz-adv-x="892" 
d="M190 0v1044h625v-71h-547v-973h-78zM416 1239l172 266h114l-213 -266h-73z" />
    <glyph glyph-name="afii10101" unicode="&#x454;" horiz-adv-x="1030" 
d="M618 51q92 0 169.5 24t123.5 60v-102q-127 -53 -295 -53q-262 0 -372.5 134.5t-110.5 426.5q0 266 109 395t368 129q183 0 291 -59v-99q-127 88 -283 88q-98 0 -169.5 -19.5t-115.5 -53t-70.5 -88t-36.5 -114.5t-11 -142h535v-70h-535q2 -124 23.5 -208t69 -141
t123 -82.5t187.5 -25.5z" />
    <glyph glyph-name="afii10102" unicode="&#x455;" horiz-adv-x="903" 
d="M717 1016v-105q-113 84 -254 84q-136 0 -198 -48t-62 -144q0 -54 19.5 -92.5t52.5 -61t76 -38t90.5 -27t94.5 -24t90 -34t76 -51.5t52.5 -81.5t19.5 -119.5q0 -148 -90.5 -221t-277.5 -73q-82 0 -156 16t-119 43v106q49 -43 125.5 -68.5t153.5 -25.5q143 0 212.5 52.5
t69.5 166.5q0 70 -31.5 117.5t-82 71.5t-111.5 41t-121.5 36t-111 46.5t-82 82t-31.5 134.5q0 266 346 266q77 0 147 -16t103 -33z" />
    <glyph glyph-name="afii10103" unicode="&#x456;" horiz-adv-x="518" 
d="M219 0v1044h78v-1044h-78zM193 1372q0 31 17 48.5t48 17.5t48.5 -17.5t17.5 -48.5t-17.5 -48t-48.5 -17t-48 17t-17 48z" />
    <glyph glyph-name="afii10104" unicode="&#x457;" horiz-adv-x="518" 
d="M219 0v1044h78v-1044h-78zM33 1372q0 31 17 48.5t48 17.5t48.5 -17.5t17.5 -48.5t-17.5 -48t-48.5 -17t-48 17t-17 48zM352 1372q0 31 17.5 48.5t48.5 17.5t48 -17.5t17 -48.5t-17 -48t-48 -17t-48.5 17t-17.5 48z" />
    <glyph glyph-name="afii10105" unicode="&#x458;" horiz-adv-x="462" 
d="M193 -121v1165h77v-1175q0 -116 -50 -182t-175 -66q-83 0 -121 14v97q52 -35 119 -35q75 0 112.5 38.5t37.5 143.5zM166 1372q0 31 17 48.5t48 17.5t48.5 -17.5t17.5 -48.5t-17.5 -48t-48.5 -17t-48 17t-17 48z" />
    <glyph glyph-name="afii10106" unicode="&#x459;" horiz-adv-x="1738" 
d="M47 -14v98q27 -12 53 -12q78 0 122.5 81t65.5 270.5t21 522.5v98h662v-458q125 10 239 10q234 0 328 -64.5t94 -232.5q0 -309 -407 -309q-166 0 -332 10v973h-508v-86q-2 -492 -66 -699.5t-221 -207.5q-24 0 -51 6zM971 72q140 -11 248 -11q166 0 248.5 55t82.5 185
q0 69 -18.5 112.5t-62.5 68t-105.5 33.5t-159.5 9q-108 0 -233 -10v-442z" />
    <glyph glyph-name="afii10107" unicode="&#x45a;" horiz-adv-x="1781" 
d="M190 0v1044h78v-471h668v471h78v-458q125 10 239 10q234 0 327 -64t93 -233q0 -309 -405 -309q-166 0 -332 10v502h-668v-502h-78zM1014 72q140 -11 246 -11q167 0 250 55t83 185q0 133 -76.5 178t-269.5 45q-108 0 -233 -10v-442z" />
    <glyph glyph-name="afii10108" unicode="&#x45b;" horiz-adv-x="1245" 
d="M223 0v1245h-205v62h205v229h78v-229h490v-62h-490v-502q32 125 133.5 191.5t253.5 66.5q211 0 294 -94t83 -305v-602h-78v584q0 196 -74 271t-251 75q-95 0 -166.5 -27t-113 -76t-61.5 -110.5t-20 -136.5v-580h-78z" />
    <glyph glyph-name="afii10109" unicode="&#x45c;" horiz-adv-x="1067" 
d="M895 0l-500 508h-127v-508h-78v1044h78v-473h123l477 473h105l-510 -499l538 -545h-106zM502 1239l172 266h114l-213 -266h-73z" />
    <glyph glyph-name="afii10110" unicode="&#x45e;" horiz-adv-x="1062" 
d="M322 -309q34 0 61 13t44 31t34 52t26.5 60t24.5 71.5t25 71.5l-461 1054h86l416 -958l337 958h82l-411 -1130q-61 -169 -117.5 -232t-161.5 -63q-59 0 -106 21v88q46 -37 121 -37zM250 1495h78q14 -100 68.5 -140t140.5 -40q188 0 213 180h73q-14 -130 -91.5 -188
t-194.5 -58q-56 0 -103 13t-86.5 40.5t-65 76.5t-32.5 116z" />
    <glyph glyph-name="afii10193" unicode="&#x45f;" horiz-adv-x="1163" 
d="M543 -266v266h-353v1044h78v-972h627v972h78v-1044h-352v-266h-78z" />
    <glyph glyph-name="afii10050" unicode="&#x490;" horiz-adv-x="1087" 
d="M221 0v1434h684v266h76v-344h-678v-1356h-82z" />
    <glyph glyph-name="afii10098" unicode="&#x491;" horiz-adv-x="892" 
d="M190 0v1044h551v267h74v-338h-547v-973h-78z" />
    <glyph glyph-name="uni0492" unicode="&#x492;" horiz-adv-x="1183" 
d="M61 707v75h256v652h760v-78h-678v-574h506v-75h-506v-707h-82v707h-256z" />
    <glyph glyph-name="uni0493" unicode="&#x493;" horiz-adv-x="954" 
d="M254 0v477h-197v70h197v500h625v-72h-547v-428h352v-70h-352v-477h-78z" />
    <glyph glyph-name="uni049A" unicode="&#x49a;" horiz-adv-x="1363" 
d="M221 0v1434h82v-652h105l722 652h107l-762 -682l715 -676h141v-342h-80v266h-94l-754 715h-100v-715h-82z" />
    <glyph glyph-name="uni049B" unicode="&#x49b;" horiz-adv-x="1089" 
d="M895 0l-500 508h-127v-508h-78v1047h78v-476h123l477 476h105l-510 -502l467 -473h135v-338h-78v266h-92z" />
    <glyph glyph-name="uni04A2" unicode="&#x4a2;" horiz-adv-x="1544" 
d="M221 0v1434h82v-658h895v658h82v-1356h158v-344h-80v266h-160v698h-895v-698h-82z" />
    <glyph glyph-name="uni04A3" unicode="&#x4a3;" horiz-adv-x="1249" 
d="M190 0v1047h78v-474h668v474h78v-975h149v-338h-78v266h-149v502h-668v-502h-78z" />
    <glyph glyph-name="uni04AE" unicode="&#x4ae;" horiz-adv-x="1175" 
d="M549 0v596l-494 838h97l438 -754l432 754h98l-489 -838v-596h-82z" />
    <glyph glyph-name="uni04AF" unicode="&#x4af;" horiz-adv-x="1032" 
d="M479 -12l-411 1059h86l364 -955l367 955h80l-410 -1059v-418h-76v418z" />
    <glyph glyph-name="uni04B0" unicode="&#x4b0;" horiz-adv-x="1175" 
d="M178 541v73h359l-482 820h97l438 -754l432 754h98l-479 -820h358v-73h-368v-541h-82v541h-371z" />
    <glyph glyph-name="uni04B1" unicode="&#x4b1;" horiz-adv-x="1032" 
d="M864 -70h-309v-360h-76v360h-309v70h303l-405 1047h86l364 -955l367 955h80l-406 -1047h305v-70z" />
    <glyph glyph-name="uni04BA" unicode="&#x4ba;" horiz-adv-x="1308" 
d="M223 0v1434h80v-637q51 20 77 28.5t80.5 23.5t113.5 21.5t128 6.5q221 0 330 -93t109 -303v-481h-84v453q0 59 -7 104t-30 93t-62 79.5t-108.5 51.5t-165.5 20q-110 0 -212 -23.5t-169 -54.5v-723h-80z" />
    <glyph glyph-name="uni04BB" unicode="&#x4bb;" horiz-adv-x="1212" 
d="M190 0v1536h78v-729q32 124 133.5 191t253.5 67q108 0 181 -24t116 -75t61.5 -124t18.5 -178v-664h-78v645q0 198 -73.5 274t-251.5 76q-95 0 -166.5 -27.5t-113 -77t-61.5 -111.5t-20 -138v-641h-78z" />
    <glyph glyph-name="uni04C0" unicode="&#x4c0;" horiz-adv-x="546" 
d="M231 0v1434h82v-1434h-82z" />
    <glyph glyph-name="uni04CF" unicode="&#x4cf;" horiz-adv-x="462" 
d="M270 0h-77v1536h77v-1536z" />
    <glyph glyph-name="uni04D8" unicode="&#x4d8;" horiz-adv-x="1417" 
d="M145 758h1037q0 107 -19 197.5t-61.5 169t-107.5 133.5t-161.5 86.5t-218.5 31.5q-187 0 -325 -55v78q148 55 334 55q319 0 484 -184.5t165 -540.5q0 -125 -20 -234t-65 -204.5t-111.5 -164t-164 -107.5t-217.5 -39q-260 0 -404.5 174.5t-144.5 515.5v88zM231 635
q5 -283 121.5 -430.5t341.5 -147.5q221 0 351.5 162t136.5 463h-951v-47z" />
    <glyph glyph-name="afii10846" unicode="&#x4d9;" horiz-adv-x="1128" 
d="M129 532h786q-2 236 -97 348.5t-302 112.5q-196 0 -319 -108v92q47 36 132 61t187 25q248 0 364.5 -135t116.5 -416q0 -272 -116.5 -400t-327.5 -128q-120 0 -203 33.5t-131 101t-69 159t-21 218.5v36zM551 53q349 0 364 414h-704q-1 -71 7 -128.5t30.5 -112.5
t59.5 -91.5t99 -59t144 -22.5z" />
    <glyph glyph-name="uni04E8" unicode="&#x4e8;" horiz-adv-x="1505" 
d="M150 717q0 363 152 550t446 187q322 0 465 -183.5t143 -553.5q0 -737 -604 -737q-602 0 -602 737zM758 57q252 0 379 153t133 472h-1034q6 -315 132.5 -470t389.5 -155zM745 1376q-494 0 -509 -620h1034q-6 315 -129.5 467.5t-395.5 152.5z" />
    <glyph glyph-name="uni04E9" unicode="&#x4e9;" horiz-adv-x="1185" 
d="M133 524q0 539 461 539q244 0 351.5 -133.5t107.5 -405.5q0 -261 -113.5 -400.5t-347.5 -139.5q-243 0 -351 135t-108 405zM592 993q-192 0 -283 -107.5t-96 -324.5h760q-5 220 -93 326t-288 106zM594 55q191 0 281 107t96 327h-758q6 -222 97 -328t284 -106z" />
    <glyph glyph-name="uni1E9E" unicode="&#x1e9e;" horiz-adv-x="1323" 
d="M221 0v969q0 228 117.5 356.5t339.5 128.5q142 0 253.5 -65t178.5 -189l-365 -389v-2q112 -1 196 -29t129.5 -67.5t73 -95.5t35 -101.5t7.5 -97.5q0 -195 -123 -316.5t-340 -121.5q-87 0 -166 18v80q77 -21 168 -21q178 0 275.5 97t97.5 264q0 162 -98 244.5t-308 82.5
h-49v48l365 387q-39 94 -126.5 145t-203.5 51q-85 0 -150.5 -24t-107.5 -63.5t-68.5 -96t-37.5 -116.5t-11 -130v-946h-82z" />
    <glyph glyph-name="figuredash" unicode="&#x2012;" horiz-adv-x="1488" 
d="M203 690v72h1081v-72h-1081z" />
    <glyph glyph-name="endash" unicode="&#x2013;" horiz-adv-x="1488" 
d="M203 553v72h1081v-72h-1081z" />
    <glyph glyph-name="emdash" unicode="&#x2014;" horiz-adv-x="1835" 
d="M203 553v72h1427v-72h-1427z" />
    <glyph glyph-name="quoteleft" unicode="&#x2018;" horiz-adv-x="550" 
d="M422 1409q-144 -67 -158 -203q90 0 90 -76q0 -33 -20 -54t-62 -21q-84 0 -84 112q0 80 42.5 162t131.5 129z" />
    <glyph glyph-name="quoteright" unicode="&#x2019;" horiz-adv-x="550" 
d="M129 1104q144 67 158 203q-90 0 -90 75q0 33 20 54.5t62 21.5q83 0 83 -112q0 -80 -42.5 -162t-131.5 -129z" />
    <glyph glyph-name="quotesinglbase" unicode="&#x201a;" horiz-adv-x="589" 
d="M129 -223q144 67 158 203q-90 0 -90 75q0 33 20 54.5t62 21.5q83 0 83 -113q0 -80 -42.5 -161.5t-131.5 -128.5z" />
    <glyph glyph-name="quotedblleft" unicode="&#x201c;" horiz-adv-x="856" 
d="M422 1409q-144 -67 -158 -203q90 0 90 -76q0 -33 -20 -54t-62 -21q-84 0 -84 112q0 80 42.5 162t131.5 129zM727 1409q-144 -67 -158 -203q90 0 90 -76q0 -33 -19.5 -54t-61.5 -21q-84 0 -84 112q0 80 42.5 162t131.5 129z" />
    <glyph glyph-name="quotedblright" unicode="&#x201d;" horiz-adv-x="856" 
d="M129 1104q144 67 158 203q-90 0 -90 75q0 33 20 54.5t62 21.5q83 0 83 -112q0 -80 -42.5 -162t-131.5 -129zM434 1104q144 67 158 203q-90 0 -90 75q0 33 20 54.5t62 21.5q84 0 84 -112q0 -80 -42.5 -162t-131.5 -129z" />
    <glyph glyph-name="quotedblbase" unicode="&#x201e;" horiz-adv-x="892" 
d="M430 -223q144 67 158 203q-90 0 -90 75q0 33 20 54.5t62 21.5q84 0 84 -113q0 -80 -43 -161.5t-132 -128.5zM129 -223q144 67 158 203q-90 0 -90 75q0 33 20 54.5t62 21.5q83 0 83 -113q0 -80 -42.5 -161.5t-131.5 -128.5z" />
    <glyph glyph-name="dagger" unicode="&#x2020;" horiz-adv-x="1091" 
d="M506 0v977h-383v67h383v390h82v-390h383v-67h-383v-977h-82z" />
    <glyph glyph-name="daggerdbl" unicode="&#x2021;" horiz-adv-x="1091" 
d="M123 389v68h383v520h-383v67h383v390h82v-390h383v-67h-383v-520h383v-68h-383v-389h-82v389h-383z" />
    <glyph glyph-name="bullet" unicode="&#x2022;" horiz-adv-x="694" 
d="M176 721q0 71 49.5 120.5t122.5 49.5q72 0 122 -49.5t50 -120.5q0 -69 -50 -119.5t-122 -50.5q-73 0 -122.5 50t-49.5 120z" />
    <glyph glyph-name="ellipsis" unicode="&#x2026;" horiz-adv-x="1787" 
d="M197 55q0 36 20.5 56t58.5 20q34 0 55 -21t21 -55q0 -32 -20.5 -51.5t-55.5 -19.5q-37 0 -58 19.5t-21 51.5zM817 55q0 36 21 56t59 20q34 0 55 -21t21 -55q0 -32 -20.5 -51.5t-55.5 -19.5q-37 0 -58.5 19.5t-21.5 51.5zM1436 55q0 36 21 56t59 20q34 0 54.5 -21
t20.5 -55q0 -33 -20 -52t-55 -19q-37 0 -58.5 19.5t-21.5 51.5z" />
    <glyph glyph-name="perthousand" unicode="&#x2030;" horiz-adv-x="2451" 
d="M281 0l1032 1434h73l-1028 -1434h-77zM911 313q0 151 80 242.5t230 91.5q153 0 233 -90t80 -244q0 -153 -81.5 -244.5t-233.5 -91.5q-150 0 -229 90.5t-79 245.5zM981 313q0 -129 62 -201.5t176 -72.5q121 0 183 72t62 202q0 129 -62 201t-183 72q-115 0 -176.5 -73
t-61.5 -200zM1696 313q0 151 80.5 242.5t230.5 91.5q153 0 233 -90t80 -244t-81 -245t-234 -91q-149 0 -229 91t-80 245zM1767 313q0 -129 62 -201.5t178 -72.5q119 0 180.5 72t61.5 202q0 129 -61 201t-181 72q-117 0 -178.5 -73t-61.5 -200zM135 1120q0 152 79.5 243
t229.5 91q153 0 233.5 -89.5t80.5 -244.5q0 -153 -81 -243.5t-233 -90.5q-151 0 -230 89.5t-79 244.5zM203 1120q0 -127 63 -199.5t178 -72.5q120 0 182 71.5t62 200.5t-62 201t-182 72q-115 0 -178 -73.5t-63 -199.5z" />
    <glyph glyph-name="guilsinglleft" unicode="&#x2039;" horiz-adv-x="696" 
d="M457 156l-283 395l283 395h86l-279 -395l279 -395h-86z" />
    <glyph glyph-name="guilsinglright" unicode="&#x203a;" horiz-adv-x="696" 
d="M154 156l278 395l-278 395h84l284 -395l-284 -395h-84z" />
    <glyph glyph-name="fraction" unicode="&#x2044;" horiz-adv-x="374" 
d="M-317 -43l935 1516h74l-936 -1516h-73z" />
    <glyph glyph-name="uni2070" unicode="&#x2070;" 
d="M92 1212q0 225 98 334t271 109q187 0 278.5 -106.5t91.5 -336.5q0 -442 -368 -442q-179 0 -275 108.5t-96 333.5zM172 1212q0 -198 75 -288t220 -90q285 0 285 378q0 200 -73.5 289.5t-217.5 89.5q-137 0 -213 -92t-76 -287z" />
    <glyph glyph-name="uni2074" unicode="&#x2074;" 
d="M86 1004v59l553 575h100v-571h111v-63h-111v-222h-77v222h-576zM662 1067v504h-3l-479 -504h482z" />
    <glyph glyph-name="uni2075" unicode="&#x2075;" 
d="M176 1235l25 403h559v-67h-500l-16 -271q173 11 219 11q157 0 242.5 -63t85.5 -191q0 -132 -86.5 -209.5t-247.5 -77.5q-215 0 -295 35v69q19 -8 39 -14t35 -10t38 -7t34 -4.5t37 -2t34.5 -0.5h39.5h38q114 0 184 53t70 160q0 104 -63 151t-197 47q-128 0 -275 -12z" />
    <glyph glyph-name="uni2076" unicode="&#x2076;" 
d="M475 770q-166 0 -257 106.5t-91 305.5q0 102 23.5 186.5t71.5 149.5t128 101t185 36q115 0 204 -27v-67q-66 26 -207 26q-155 0 -243 -95.5t-101 -285.5q53 57 136 92t186 35q135 0 222 -64t87 -194q0 -145 -94 -225t-250 -80zM193 1143q0 -80 30.5 -149.5t96.5 -116
t157 -46.5q114 0 189 59.5t75 182.5q0 55 -21 95.5t-57.5 62t-78 31.5t-90.5 10q-87 0 -166 -36t-135 -93z" />
    <glyph glyph-name="uni2077" unicode="&#x2077;" 
d="M311 782l408 789h-602v67h686v-53l-412 -803h-80z" />
    <glyph glyph-name="uni2078" unicode="&#x2078;" 
d="M461 770q-363 0 -363 242q0 90 66.5 150t173.5 71q-101 17 -160 70t-59 129q0 104 86.5 163.5t255.5 59.5t255.5 -59.5t86.5 -163.5q0 -76 -59 -129t-160 -70q107 -11 173 -71t66 -150q0 -242 -362 -242zM461 834q85 0 144 16.5t88 45t40.5 57t11.5 61.5q0 84 -76 134
t-208 50t-208.5 -50t-76.5 -134q0 -26 6.5 -49t25.5 -48t49.5 -42.5t83 -29t120.5 -11.5zM461 1591q-264 0 -264 -161q0 -81 74.5 -122.5t189.5 -41.5t189.5 41.5t74.5 122.5q0 161 -264 161z" />
    <glyph glyph-name="uni2079" unicode="&#x2079;" 
d="M449 1655q174 0 269 -95t95 -282q0 -108 -21.5 -198t-64.5 -160.5t-114.5 -110t-166.5 -39.5q-37 0 -66 1.5t-57.5 6t-43.5 7t-47.5 10l-45.5 10.5v67q115 -36 260 -36q136 0 214 107.5t92 309.5q-57 -62 -138 -103.5t-178 -41.5q-137 0 -226 66t-89 200q0 133 90.5 207
t237.5 74zM748 1317q-2 116 -79 196t-220 80q-106 0 -178 -53.5t-72 -163.5q0 -58 20 -99.5t56 -64.5t77.5 -33t91.5 -10q84 0 164.5 43t139.5 105z" />
    <glyph glyph-name="uni2080" unicode="&#x2080;" 
d="M92 229q0 225 98 334t271 109q187 0 278.5 -106.5t91.5 -336.5q0 -442 -368 -442q-179 0 -275 108.5t-96 333.5zM172 229q0 -198 75 -288.5t220 -90.5q285 0 285 379q0 200 -73.5 289.5t-217.5 89.5q-137 0 -213 -92t-76 -287z" />
    <glyph glyph-name="uni2081" unicode="&#x2081;" 
d="M516 -201v768l-272 -151l-35 57l326 182h61v-856h-80z" />
    <glyph glyph-name="uni2082" unicode="&#x2082;" 
d="M123 -201v74l235 174q81 59 131.5 101t95.5 89t65 92t20 93q0 96 -66 139t-174 43q-156 0 -272 -53v70q124 51 284 51q143 0 225.5 -58t82.5 -178q0 -111 -80 -207t-262 -229l-183 -131v-2h539v-68h-641z" />
    <glyph glyph-name="uni2083" unicode="&#x2083;" 
d="M293 217v57h137q121 0 189.5 45.5t68.5 118.5q0 92 -64.5 129t-189.5 37q-174 0 -270 -41v68q108 41 291 41q154 0 232.5 -57t78.5 -160q0 -84 -60 -134.5t-163 -68.5v-4q125 -14 185 -71.5t60 -135.5q0 -68 -31 -118.5t-83.5 -79.5t-113.5 -42.5t-128 -13.5
q-177 0 -282 45v68q99 -47 276 -47q147 0 215 55t68 133q0 88 -70.5 132t-202.5 44h-143z" />
    <glyph glyph-name="uni2084" unicode="&#x2084;" 
d="M86 20v60l553 575h100v-571h111v-64h-111v-221h-77v221h-576zM662 84v504h-3l-479 -504h482z" />
    <glyph glyph-name="uni2085" unicode="&#x2085;" 
d="M176 252l25 403h559v-67h-500l-16 -271q173 11 219 11q157 0 242.5 -63t85.5 -191q0 -132 -86.5 -209.5t-247.5 -77.5q-215 0 -295 35v69q19 -8 39 -14t35 -10t38 -7t34 -4.5t37 -2t34.5 -0.5h39.5h38q114 0 184 53t70 160q0 104 -63 151t-197 47q-128 0 -275 -12z" />
    <glyph glyph-name="uni2086" unicode="&#x2086;" 
d="M475 -213q-166 0 -257 106.5t-91 305.5q0 102 23.5 186.5t71.5 149.5t128 101t185 36q115 0 204 -27v-67q-66 26 -207 26q-155 0 -243 -95.5t-101 -285.5q53 57 136 92t186 35q135 0 222 -64t87 -194q0 -145 -94 -225t-250 -80zM193 160q0 -80 30.5 -149.5t96.5 -116
t157 -46.5q114 0 189 59.5t75 182.5q0 55 -21 95.5t-57.5 62t-78 31.5t-90.5 10q-87 0 -166 -36t-135 -93z" />
    <glyph glyph-name="uni2087" unicode="&#x2087;" 
d="M311 -201l408 789h-602v67h686v-53l-412 -803h-80z" />
    <glyph glyph-name="uni2088" unicode="&#x2088;" 
d="M461 -213q-363 0 -363 242q0 90 66.5 150t173.5 71q-101 17 -160 70t-59 129q0 104 86.5 163.5t255.5 59.5t255.5 -59.5t86.5 -163.5q0 -76 -59 -129t-160 -70q107 -11 173 -71t66 -150q0 -242 -362 -242zM461 -150q85 0 144 16.5t88 45t40.5 57.5t11.5 62q0 84 -76 134
t-208 50t-208.5 -50t-76.5 -134q0 -26 6.5 -49t25.5 -48t49.5 -43t83 -29.5t120.5 -11.5zM461 608q-264 0 -264 -162q0 -81 74.5 -122t189.5 -41t189.5 41t74.5 122q0 162 -264 162z" />
    <glyph glyph-name="uni2089" unicode="&#x2089;" 
d="M449 672q174 0 269 -95t95 -282q0 -108 -21.5 -198t-64.5 -160.5t-114.5 -110t-166.5 -39.5q-37 0 -66 1.5t-57.5 6t-43.5 7t-47.5 10l-45.5 10.5v67q115 -36 260 -36q136 0 214 107.5t92 309.5q-57 -62 -138 -103.5t-178 -41.5q-137 0 -226 66t-89 200q0 133 90.5 207
t237.5 74zM748 334q-2 116 -79 196t-220 80q-106 0 -178 -53.5t-72 -163.5q0 -58 20 -99.5t56 -64.5t77.5 -33t91.5 -10q84 0 164.5 43t139.5 105z" />
    <glyph glyph-name="Euro" unicode="&#x20ac;" horiz-adv-x="1187" 
d="M774 1454q158 0 301 -47v-96q-140 65 -305 65q-205 0 -321.5 -118t-145.5 -375h635l-14 -62h-627q-4 -70 -4 -106q0 -70 2 -101h571l-14 -61h-551q29 -258 149 -377t328 -119q77 0 159.5 20t143.5 50v-88q-136 -59 -315 -59q-496 0 -549 573h-149l14 61h129q-2 27 -2 86
q0 43 4 121h-145l16 62h135q30 296 169 433.5t386 137.5z" />
    <glyph glyph-name="uni20B4" unicode="&#x20b4;" horiz-adv-x="1171" 
d="M162 571v58h231q20 17 125.5 102.5t124.5 102.5h-481v57h547q107 85 152.5 151t45.5 142q0 192 -276 192q-163 0 -322 -55v80q71 25 164 39t156 14q364 0 364 -264q0 -83 -43 -152.5t-135 -146.5h195v-57h-256q-21 -19 -129 -106t-123 -99h508v-58h-568
q-135 -112 -135 -266q0 -46 17.5 -87t55.5 -78.5t108.5 -60t166.5 -22.5q181 0 301 54v-80q-143 -51 -311 -51q-110 0 -194 26.5t-133.5 71.5t-74 100.5t-24.5 118.5q0 85 28 151t93 123h-178z" />
    <glyph glyph-name="uni20B8" unicode="&#x20b8;" horiz-adv-x="1150" 
d="M535 0v1120h-469v68h1019v-68h-469v-1120h-81zM66 1364v70h1019v-70h-1019z" />
    <glyph glyph-name="uni20BD" unicode="&#x20bd;" horiz-adv-x="1189" 
d="M559 639h-229v-209h446v-70h-446v-360h-80v360h-158v70h158v209h-158v68h158v727q149 10 315 10q187 0 293 -38.5t151.5 -122t45.5 -230.5q0 -115 -22.5 -190t-79.5 -127t-152.5 -74.5t-241.5 -22.5zM561 1370q-81 0 -231 -10v-653h229q162 0 251.5 35.5t125 107.5
t35.5 201q0 65 -9.5 112t-36 88t-72 66t-118.5 39t-174 14z" />
    <glyph glyph-name="afii61352" unicode="&#x2116;" horiz-adv-x="2148" 
d="M219 0v1434h94l723 -1088q3 -3 68 -102t67 -103v207v1086h82v-1434h-86l-743 1122q-120 180 -123 189v-181v-1130h-82zM1483 535v65h518v-65h-518zM1466 1120q0 153 68 243.5t207 90.5q137 0 205.5 -91t68.5 -243t-69 -244t-205 -92q-137 0 -206 92t-69 244zM1538 1120
q0 -121 51 -196.5t152 -75.5t152 75t51 197q0 123 -50.5 198t-152.5 75t-152.5 -75.5t-50.5 -197.5z" />
    <glyph glyph-name="uni2120" unicode="&#x2120;" horiz-adv-x="1767" 
d="M885 770v664h84l239 -406l238 406h84v-664h-70v559l-233 -391h-41l-230 391h-2v-559h-69zM672 1413v-82q-77 53 -191 53q-103 0 -148.5 -25.5t-45.5 -80.5q0 -38 23.5 -62.5t61 -37.5t82.5 -22.5t90 -21.5t82.5 -30t61 -53t23.5 -86q0 -104 -66.5 -154.5t-204.5 -50.5
q-151 0 -221 37v88q36 -28 98 -44t127 -16q197 0 197 133q0 38 -23.5 64t-60.5 39t-82 23t-90 22.5t-82 31t-60.5 54t-23.5 86.5q0 168 264 168q59 0 112.5 -10.5t76.5 -22.5z" />
    <glyph glyph-name="trademark" unicode="&#x2122;" horiz-adv-x="1650" 
d="M766 770v664h84l240 -406l237 406h86v-664h-70v559l-233 -391h-41l-231 391h-2v-559h-70zM342 770v598h-223v66h518v-66h-225v-598h-70z" />
    <glyph glyph-name="onethird" unicode="&#x2153;" horiz-adv-x="1945" 
d="M358 -43l936 1516h74l-936 -1516h-74zM455 578v768l-273 -152l-35 57l326 183h62v-856h-80zM1303 418v57h137q121 0 189.5 45.5t68.5 118.5q0 92 -64.5 129t-189.5 37q-174 0 -270 -41v67q108 41 290 41q154 0 233 -57t79 -160q0 -84 -60.5 -134t-163.5 -68v-4
q125 -14 185.5 -71.5t60.5 -135.5q0 -68 -31 -118.5t-83.5 -79.5t-113.5 -42.5t-128 -13.5q-178 0 -283 45v67q99 -47 277 -47q147 0 214.5 55.5t67.5 133.5q0 176 -272 176h-143z" />
    <glyph glyph-name="twothirds" unicode="&#x2154;" horiz-adv-x="1945" 
d="M463 -43l936 1516h74l-936 -1516h-74zM82 578v73l235 174q81 59 131.5 101t95.5 89t65 92t20 93q0 96 -66 139t-174 43q-156 0 -272 -53v70q124 51 284 51q143 0 225.5 -58t82.5 -178q0 -111 -80 -207t-262 -229l-183 -131v-2h539v-67h-641zM1339 418v57h138
q121 0 189.5 45.5t68.5 118.5q0 92 -64.5 129t-189.5 37q-175 0 -271 -41v67q108 41 291 41q154 0 232.5 -57t78.5 -160q0 -84 -60 -134t-163 -68v-4q125 -14 185.5 -71.5t60.5 -135.5q0 -68 -31 -118.5t-83.5 -79.5t-113.5 -42.5t-128 -13.5q-178 0 -283 45v67
q99 -47 277 -47q147 0 214.5 55.5t67.5 133.5q0 176 -272 176h-144z" />
    <glyph glyph-name="oneeighth" unicode="&#x215b;" horiz-adv-x="1945" 
d="M354 -43l936 1516h74l-936 -1516h-74zM453 578v768l-273 -152l-35 57l326 183h61v-856h-79zM1464 -12q-362 0 -362 241q0 90 66 150.5t173 71.5q-101 17 -160 69.5t-59 128.5q0 104 86.5 163.5t255.5 59.5t255.5 -59.5t86.5 -163.5q0 -76 -59 -128.5t-160 -69.5
q107 -11 173.5 -71.5t66.5 -150.5q0 -241 -363 -241zM1464 51q68 0 120.5 11.5t83 29t49.5 42.5t25.5 48t6.5 49q0 84 -76.5 134.5t-208.5 50.5t-208 -50.5t-76 -134.5q0 -33 11.5 -61.5t40.5 -57t88 -45t144 -16.5zM1464 809q-264 0 -264 -162q0 -81 74.5 -122.5
t189.5 -41.5t190 41.5t75 122.5q0 162 -265 162z" />
    <glyph glyph-name="threeeighths" unicode="&#x215c;" horiz-adv-x="1945" 
d="M438 -43l936 1516h74l-936 -1516h-74zM1491 -12q-363 0 -363 241q0 90 66.5 150.5t173.5 71.5q-101 17 -160 69.5t-59 128.5q0 104 86.5 163.5t255.5 59.5t255.5 -59.5t86.5 -163.5q0 -76 -59 -128.5t-160 -69.5q107 -11 173 -71.5t66 -150.5q0 -241 -362 -241zM1491 51
q68 0 120.5 11.5t83 29t49.5 42.5t25.5 48t6.5 49q0 84 -76.5 134.5t-208.5 50.5t-208.5 -50.5t-76.5 -134.5q0 -26 6.5 -49t25.5 -48t49.5 -42.5t83 -29t120.5 -11.5zM1491 809q-264 0 -264 -162q0 -81 74.5 -122.5t189.5 -41.5t189.5 41.5t74.5 122.5q0 162 -264 162z
M293 995v58h137q121 0 189.5 45.5t68.5 118.5q0 92 -64 128.5t-190 36.5q-174 0 -270 -41v68q108 41 291 41q154 0 232.5 -57t78.5 -160q0 -84 -60 -134.5t-163 -68.5v-4q125 -14 185 -71.5t60 -135.5q0 -68 -31 -118.5t-83.5 -79.5t-113.5 -42.5t-128 -13.5q-177 0 -282 45
v68q99 -47 276 -47q147 0 215 55t68 133q0 88 -70.5 132t-202.5 44h-143z" />
    <glyph glyph-name="fiveeighths" unicode="&#x215d;" horiz-adv-x="1945" 
d="M428 -43l936 1516h74l-936 -1516h-74zM160 1030l24 404h559v-68h-499l-17 -270q157 10 219 10q157 0 242.5 -63t85.5 -191q0 -132 -86.5 -209.5t-247.5 -77.5q-215 0 -295 35v70q17 -7 33 -12.5t34.5 -9.5t30.5 -7t33.5 -5t30 -3t34 -1.5t30.5 -0.5h35h34q114 0 184 53
t70 160q0 104 -63 151t-197 47q-127 0 -274 -12zM1483 -12q-363 0 -363 241q0 90 66.5 150.5t173.5 71.5q-101 17 -160 69.5t-59 128.5q0 104 86.5 163.5t255.5 59.5t255.5 -59.5t86.5 -163.5q0 -76 -59 -128.5t-160 -69.5q107 -11 173 -71.5t66 -150.5q0 -241 -362 -241z
M1483 51q85 0 144 16.5t88 45t40.5 57t11.5 61.5q0 84 -76 134.5t-208 50.5t-208.5 -50.5t-76.5 -134.5q0 -26 6.5 -49t25.5 -48t49.5 -42.5t83 -29t120.5 -11.5zM1483 809q-264 0 -264 -162q0 -81 74.5 -122.5t189.5 -41.5t189.5 41.5t74.5 122.5q0 162 -264 162z" />
    <glyph glyph-name="seveneighths" unicode="&#x215e;" horiz-adv-x="1945" 
d="M354 -43l936 1516h74l-936 -1516h-74zM1454 -12q-362 0 -362 241q0 90 66 150.5t173 71.5q-101 17 -160 69.5t-59 128.5q0 104 86.5 163.5t255.5 59.5t255.5 -59.5t86.5 -163.5q0 -76 -59 -128.5t-160 -69.5q107 -11 173.5 -71.5t66.5 -150.5q0 -241 -363 -241zM1454 51
q68 0 120.5 11.5t83 29t49.5 42.5t25.5 48t6.5 49q0 84 -76.5 134.5t-208.5 50.5t-208.5 -50.5t-76.5 -134.5q0 -26 6.5 -49t25.5 -48t49.5 -42.5t83 -29t120.5 -11.5zM1454 809q-264 0 -264 -162q0 -81 74.5 -122.5t189.5 -41.5t189.5 41.5t74.5 122.5q0 162 -264 162z
M350 578l408 788h-602v68h686v-54l-412 -802h-80z" />
    <glyph glyph-name="minus" unicode="&#x2212;" horiz-adv-x="1200" 
d="M147 625v75h906v-75h-906z" />
    <glyph glyph-name="infinity" unicode="&#x221e;" horiz-adv-x="1533" 
d="M899 551l-131 127l-131 -129q-103 -98 -238 -98q-71 0 -126 25t-86 65.5t-46.5 86.5t-15.5 95q0 47 15.5 93t46.5 87t86 66.5t126 25.5q134 0 238 -102l131 -125l131 129q100 98 238 98q71 0 125.5 -24.5t86 -65t47 -87t15.5 -95.5q0 -48 -15.5 -94t-46.5 -87t-86 -66
t-126 -25q-136 0 -238 100zM813 723l129 -125q45 -39 88.5 -59.5t102.5 -20.5q55 0 97 18.5t65 49.5t34.5 65.5t11.5 71.5q0 83 -53 144t-153 61q-111 0 -203 -92zM723 723l-131 121q-84 84 -189 84t-156.5 -62.5t-51.5 -142.5q0 -83 53 -144t153 -61q108 0 201 90z" />
    <glyph glyph-name="approxequal" unicode="&#x2248;" horiz-adv-x="1200" 
d="M190 373l-34 65q40 66 100 108t139 42q50 0 110 -21.5t105.5 -48t99.5 -48t95 -21.5q117 0 205 141l32 -64q-35 -64 -97 -107.5t-136 -43.5q-52 0 -112.5 21.5t-106 48t-100 48t-95.5 21.5q-37 0 -70.5 -13.5t-60 -39t-41.5 -43.5t-33 -45zM190 735l-34 64
q90 149 239 149q50 0 110 -21.5t105.5 -47t99.5 -47t95 -21.5q115 0 205 139l32 -63q-35 -64 -97 -107t-136 -43q-52 0 -112.5 21.5t-106 47t-100 47t-95.5 21.5q-37 0 -70.5 -13.5t-60 -38t-41.5 -43t-33 -44.5z" />
    <glyph glyph-name="notequal" unicode="&#x2260;" horiz-adv-x="1189" 
d="M141 823v74h566l145 240h72l-146 -240h269v-74h-312l-192 -319h504v-74h-549l-144 -240h-73l143 240h-283v74h328l193 319h-521z" />
    <glyph glyph-name="lessequal" unicode="&#x2264;" horiz-adv-x="1208" 
d="M150 188v76h911v-76h-911zM150 778v66l911 358v-78l-811 -311v-4l811 -311v-78z" />
    <glyph glyph-name="greaterequal" unicode="&#x2265;" horiz-adv-x="1208" 
d="M147 188v76h912v-76h-912zM147 420v78l809 311v4l-809 311v78l912 -358v-66z" />
    <glyph glyph-name="lozenge" unicode="&#x25ca;" horiz-adv-x="1306" 
d="M651 -20l-504 737l504 737l508 -737zM651 111l414 606l-414 604l-409 -604z" />
    <glyph glyph-name="uniF406" unicode="&#xf406;" horiz-adv-x="1513" 
d="M469 1823l61 20q53 -176 226 -176q172 0 225 176l61 -20q-67 -226 -286 -226q-220 0 -287 226z" />
    <glyph glyph-name="uniF407" unicode="&#xf407;" horiz-adv-x="1189" 
d="M551 -174l24 174h60l-19 -119q236 -3 236 -162q0 -79 -60.5 -124.5t-152.5 -45.5q-97 0 -156 33l9 53q55 -28 141 -28q63 0 104 27t41 85t-48.5 84.5t-117.5 26.5q-47 0 -61 -4z" />
    <glyph glyph-name="uniF408" unicode="&#xf408;" horiz-adv-x="1513" 
d="M449 1577l260 287h98l256 -287h-84l-221 225l-221 -225h-88z" />
    <glyph glyph-name="uniF409" unicode="&#xf409;" horiz-adv-x="1298" 
d="M553 -463q102 65 113 195q-45 0 -65.5 19.5t-20.5 51.5t20 53t62 21q81 0 81 -108q0 -73 -41 -156t-120 -125z" />
    <glyph glyph-name="uniF40A" unicode="&#xf40a;" horiz-adv-x="352" 
d="M106 1065l95 369h90l-115 -369h-70z" />
    <glyph glyph-name="uniF40B" unicode="&#xf40b;" horiz-adv-x="954" 
d="M408 1720q0 70 69 70q70 0 70 -70q0 -69 -70 -69q-69 0 -69 69z" />
    <glyph glyph-name="uniF40C" unicode="&#xf40c;" horiz-adv-x="1513" 
d="M567 1720q0 86 48 137.5t141 51.5t140.5 -51.5t47.5 -137.5q0 -87 -47 -137.5t-141 -50.5t-141.5 50.5t-47.5 137.5zM633 1720q0 -58 32.5 -90.5t90.5 -32.5t90.5 32.5t32.5 90.5t-32.5 90.5t-90.5 32.5t-90.5 -32.5t-32.5 -90.5z" />
    <glyph glyph-name="uniF40D" unicode="&#xf40d;" horiz-adv-x="1513" 
d="M530 1642l-61 17q11 62 52.5 103.5t99.5 41.5q7 0 14.5 -1t13.5 -1.5t14.5 -3t13 -4t14.5 -5.5t13.5 -5.5t15 -7t14 -7t16 -8.5t16.5 -8q13 -6 36 -17.5l34 -17t27 -10t30 -4.5q65 0 88 92l61 -16q-15 -66 -56.5 -105t-94.5 -39q-19 0 -41 7t-37 13.5t-65 31.5
q-14 7 -34 18t-30.5 16.5t-26 10t-30.5 4.5q-68 0 -97 -95z" />
    <glyph glyph-name="uniF40E" unicode="&#xf40e;" horiz-adv-x="1417" 
d="M1022 -352v-62q-63 -37 -158 -37q-96 0 -143 45t-47 121q0 83 56.5 160.5t152.5 140.5l45 -14q-82 -64 -131 -129.5t-49 -146.5q0 -115 135 -115q84 0 139 37z" />
    <glyph glyph-name="zero.tab" unicode="&#xf4e0;" horiz-adv-x="1331" 
d="M184 717q0 388 112.5 562.5t365.5 174.5q140 0 233 -42t148.5 -135t78.5 -227t23 -333q0 -400 -109.5 -568.5t-371.5 -168.5q-259 0 -369.5 174.5t-110.5 562.5zM270 717q0 -360 89.5 -510t312.5 -150q218 0 302.5 149t84.5 511q0 148 -12 253.5t-39.5 185.5t-74.5 127
t-113.5 70t-160.5 23q-214 0 -301.5 -151.5t-87.5 -507.5z" />
    <glyph glyph-name="one.tab" unicode="&#xf4e1;" horiz-adv-x="1331" 
d="M291 0v78h418v1268l-418 -265v90l438 275h59v-1368h312v-78h-809z" />
    <glyph glyph-name="two.tab" unicode="&#xf4e2;" horiz-adv-x="1331" 
d="M207 0v80q115 111 242.5 228.5t197.5 180.5t145 135.5t110.5 115t67 95.5t42 101t10.5 108q0 169 -90.5 249.5t-284.5 80.5q-101 0 -210.5 -38.5t-174.5 -92.5v121q84 43 196.5 66.5t200.5 23.5q223 0 336 -98t113 -309q0 -58 -12.5 -110t-32.5 -97t-60.5 -97t-82 -96.5
t-112.5 -111t-135.5 -124.5t-167.5 -152.5t-194 -180.5h817v-78h-921z" />
    <glyph glyph-name="three.tab" unicode="&#xf4e3;" horiz-adv-x="1331" 
d="M440 707v75h195q180 0 279.5 81t99.5 214q0 162 -85.5 229.5t-281.5 67.5q-227 0 -405 -104v116q77 29 195.5 48.5t226.5 19.5q124 0 210 -24t135 -72t70 -111.5t21 -150.5q0 -293 -305 -346q177 -19 258.5 -108.5t81.5 -266.5q0 -395 -490 -395q-111 0 -231.5 20.5
t-194.5 54.5v117q175 -111 414 -111q91 0 159.5 11.5t113.5 35t74 52t43.5 69.5t20 80t5.5 92q0 150 -106 228t-304 78h-199z" />
    <glyph glyph-name="four.tab" unicode="&#xf4e4;" horiz-adv-x="1331" 
d="M137 389v72l750 973h90v-965h205v-80h-205v-389h-80v389h-760zM897 469v860l-657 -860h657z" />
    <glyph glyph-name="five.tab" unicode="&#xf4e5;" horiz-adv-x="1331" 
d="M233 739l43 695h783v-80h-711l-33 -525q151 21 334 21q232 0 348.5 -93t116.5 -304q0 -112 -26 -195t-85 -147.5t-162.5 -97.5t-250.5 -33q-108 0 -209.5 18.5t-169.5 48.5v111q151 -99 377 -99q227 0 333.5 90t106.5 293q0 179 -98 255.5t-305 76.5q-205 0 -392 -35z
" />
    <glyph glyph-name="six.tab" unicode="&#xf4e6;" horiz-adv-x="1331" 
d="M690 -20q-253 0 -373 155.5t-120 497.5q0 422 139.5 621.5t431.5 199.5q156 0 266 -47v-111q-116 78 -272 78q-490 0 -490 -672q0 -30 4 -88q53 133 169 211t270 78q218 0 327 -108.5t109 -339.5q0 -97 -24 -176.5t-66.5 -134.5t-101 -92.5t-126 -54.5t-143.5 -17z
M293 557q0 -500 401 -500q170 0 271.5 97.5t101.5 294.5q0 205 -92.5 291.5t-269.5 86.5q-77 0 -143 -19t-110 -47t-78 -66t-52.5 -71.5t-28.5 -66.5z" />
    <glyph glyph-name="seven.tab" unicode="&#xf4e7;" horiz-adv-x="1331" 
d="M438 0l623 1350h-864v84h954v-72l-625 -1362h-88z" />
    <glyph glyph-name="eight.tab" unicode="&#xf4e8;" horiz-adv-x="1331" 
d="M186 371q0 164 75.5 259.5t264.5 121.5q-167 19 -236 110.5t-69 245.5q0 161 118 253.5t331 92.5q223 0 328.5 -82t105.5 -250q0 -152 -67.5 -243t-229.5 -123q96 -9 163.5 -40.5t105.5 -83t54.5 -114t16.5 -143.5q0 -184 -118 -289.5t-357 -105.5q-486 0 -486 391z
M266 381q0 -160 96.5 -241t311.5 -81q393 0 393 318q0 176 -101 261t-290 79q-84 -3 -148.5 -15.5t-109 -35t-75 -50.5t-47 -66.5t-23.5 -78.5t-7 -90zM303 1085q0 -153 95.5 -231.5t287.5 -71.5q80 3 140.5 21.5t97 46.5t59.5 68.5t31 82.5t8 95q0 147 -82 213.5t-274 66.5
q-363 0 -363 -291z" />
    <glyph glyph-name="nine.tab" unicode="&#xf4e9;" horiz-adv-x="1331" 
d="M647 1454q269 0 381.5 -156.5t112.5 -523.5q0 -404 -140 -599t-432 -195q-156 0 -266 47v110q116 -78 272 -78q112 0 198 36t152 113.5t101.5 209t38.5 313.5q0 59 -2 88q-47 -138 -164 -213.5t-276 -75.5q-218 0 -327.5 109t-109.5 340q0 97 24 176.5t66.5 134.5
t101 92.5t126 54.5t143.5 17zM1051 899q-2 235 -98 356t-310 121q-170 0 -271.5 -97t-101.5 -294q0 -205 93.5 -292t271.5 -87q101 0 179.5 28t125.5 74t73.5 93t37.5 98z" />
    <glyph glyph-name="dollar.tab" unicode="&#xf4ec;" horiz-adv-x="1331" 
d="M1010 367q0 73 -25 128t-68 89t-98.5 60.5t-116.5 46.5t-122 41.5t-116.5 52t-98.5 71t-68 104.5t-25 148q0 166 93.5 249t281.5 95v186h66v-184h6q96 0 184 -20t131 -43v-113q-53 43 -142.5 70.5t-180.5 27.5q-178 0 -266.5 -60t-88.5 -204q0 -72 25.5 -126.5t68.5 -88
t98.5 -59.5t117 -46t123 -41t117 -51.5t98.5 -71t68.5 -105.5t25.5 -150q0 -368 -385 -391v-228h-66v226q-118 1 -214.5 27.5t-156.5 66.5v129q50 -53 153 -99.5t210 -46.5q201 0 286 79t85 231z" />
    <glyph glyph-name="Euro.tab" unicode="&#xf4ed;" horiz-adv-x="1331" 
d="M827 1454q158 0 301 -47v-96q-140 65 -305 65q-205 0 -321.5 -118t-145.5 -375h635l-14 -62h-627q-4 -70 -4 -106q0 -70 2 -101h572l-15 -61h-551q29 -258 149 -377t328 -119q77 0 160 20t144 50v-88q-136 -59 -316 -59q-496 0 -549 573h-149l14 61h129q-2 27 -2 86
q0 43 4 121h-145l16 62h135q30 296 169 433.5t386 137.5z" />
    <glyph glyph-name="cent.tab" unicode="&#xf4ee;" horiz-adv-x="1331" 
d="M684 -246v232q-434 25 -434 546q0 244 107.5 380.5t326.5 148.5v188h57v-186q125 -2 256 -45v-92q-43 27 -113 46t-141 19q-212 0 -311.5 -115t-99.5 -337q0 -484 424 -484q64 0 144 22.5t118 49.5v-90q-44 -20 -121.5 -36.5t-155.5 -16.5v-230h-57z" />
    <glyph glyph-name="sterling.tab" unicode="&#xf4ef;" horiz-adv-x="1331" 
d="M221 0v78h199v659h-199v58h199v174q0 39 4 78t16 88.5t31.5 92.5t54 85.5t80 73t112.5 49t148 18.5q140 0 250 -39v-78q-128 41 -258 41q-176 0 -266 -115t-90 -300v-168h434v-58h-434v-659h624v-78h-905z" />
    <glyph glyph-name="yen.tab" unicode="&#xf4fa;" horiz-adv-x="1331" 
d="M299 362v58h328v194l-6 11h-322v57h285l-457 752h98l445 -736l442 736h96l-458 -752h288v-57h-323l-4 -11v-194h327v-58h-327v-362h-84v362h-328z" />
    <glyph glyph-name="florin.tab" unicode="&#xf4fb;" horiz-adv-x="1331" 
d="M90 -430l19 76q27 -8 57 -8q94 0 150 63t85 207l224 1065h-211l16 71h209l41 183q35 174 122 249.5t220 75.5q58 0 108 -14l-12 -72q-47 15 -106 15q-110 0 -169 -68t-89 -215l-35 -154h309l-14 -71h-309l-220 -1049q-15 -72 -31.5 -123.5t-42.5 -99t-59.5 -76.5t-82 -46
t-111.5 -17q-35 0 -68 8z" />
    <glyph glyph-name="uni20B4.tab" unicode="&#xf4fc;" horiz-adv-x="1331" 
d="M221 571v58h232l249 205h-481v57h547q107 86 153 151.5t46 141.5q0 192 -277 192q-162 0 -321 -55v80q72 25 164 39t155 14q365 0 365 -264q0 -83 -43.5 -152.5t-135.5 -146.5h195v-57h-256q-21 -19 -129 -106t-123 -99h508v-58h-567q-135 -112 -135 -266q0 -46 17.5 -87
t55.5 -78.5t108.5 -60t166.5 -22.5q181 0 301 54v-80q-143 -51 -311 -51q-110 0 -194 26.5t-133.5 71.5t-74 100.5t-24.5 118.5q0 86 28 151.5t92 122.5h-178z" />
    <glyph glyph-name="uni20BD.tab" unicode="&#xf4fd;" horiz-adv-x="1331" 
d="M631 639h-230v-209h447v-70h-447v-360h-79v360h-158v70h158v209h-158v68h158v727q149 10 315 10q141 0 233.5 -20.5t150 -68t81.5 -120t24 -182.5q0 -115 -22.5 -190t-79 -127t-152 -74.5t-241.5 -22.5zM633 1370q-82 0 -232 -10v-653h230q162 0 251.5 35.5t124.5 107.5
t35 201q0 83 -16 137.5t-59.5 98t-125.5 63.5t-208 20z" />
    <glyph glyph-name="uni20B8.tab" unicode="&#xf5f3;" horiz-adv-x="1331" 
d="M625 0v1120h-469v68h1020v-68h-469v-1120h-82zM156 1364v70h1020v-70h-1020z" />
    <glyph glyph-name="zero.denominator" unicode="&#xf655;" 
d="M92 432q0 225 98 333.5t271 108.5q187 0 278.5 -106t91.5 -336q0 -442 -368 -442q-179 0 -275 108.5t-96 333.5zM172 432q0 -198 75 -288.5t220 -90.5q285 0 285 379q0 200 -73.5 289.5t-217.5 89.5q-137 0 -213 -92t-76 -287z" />
    <glyph glyph-name="one.denominator" unicode="&#xf656;" 
d="M516 2v768l-272 -152l-35 58l326 182h61v-856h-80z" />
    <glyph glyph-name="two.denominator" unicode="&#xf657;" 
d="M123 2v74l235 174q81 59 131.5 101t95.5 89t65 92t20 93q0 96 -66 139t-174 43q-156 0 -272 -53v69q124 51 284 51q143 0 225.5 -57.5t82.5 -177.5q0 -111 -80 -207t-262 -229l-183 -131v-2h539v-68h-641z" />
    <glyph glyph-name="three.denominator" unicode="&#xf658;" 
d="M293 420v57h137q121 0 189.5 45.5t68.5 118.5q0 92 -64.5 129t-189.5 37q-174 0 -270 -41v68q106 40 291 40q154 0 232.5 -57t78.5 -160q0 -84 -60 -134t-163 -68v-4q125 -14 185 -71.5t60 -135.5q0 -68 -31 -118.5t-83.5 -79.5t-113.5 -42.5t-128 -13.5q-177 0 -282 45
v67q99 -47 276 -47q147 0 215 55.5t68 133.5q0 88 -70.5 132t-202.5 44h-143z" />
    <glyph glyph-name="four.denominator" unicode="&#xf659;" 
d="M86 223v60l553 575h100v-571h111v-64h-111v-221h-77v221h-576zM662 287v504h-3l-479 -504h482z" />
    <glyph glyph-name="five.denominator" unicode="&#xf65a;" 
d="M176 455l25 403h559v-67h-500l-16 -271q158 10 219 10q157 0 242.5 -63t85.5 -191q0 -132 -86.5 -209t-247.5 -77q-215 0 -295 35v69q17 -7 33 -12.5t34.5 -9.5t30.5 -7t33.5 -5t30 -3t34 -1.5t30.5 -0.5h35h34q114 0 184 53t70 160q0 104 -63 151.5t-197 47.5
q-128 0 -275 -12z" />
    <glyph glyph-name="six.denominator" unicode="&#xf65b;" 
d="M475 -10q-167 0 -257.5 106t-90.5 305q0 102 23.5 186.5t71.5 149.5t128 101t185 36q118 0 204 -26v-68q-68 27 -207 27q-155 0 -243 -95.5t-101 -285.5q53 57 136 92t186 35q135 0 222 -64t87 -194q0 -145 -94 -225t-250 -80zM193 362q0 -80 30.5 -149t96.5 -115.5
t157 -46.5q114 0 189 59.5t75 182.5q0 55 -21 95.5t-57.5 62t-78 31.5t-90.5 10q-87 0 -166 -36.5t-135 -93.5z" />
    <glyph glyph-name="seven.denominator" unicode="&#xf65c;" 
d="M311 2l408 789h-602v67h686v-53l-412 -803h-80z" />
    <glyph glyph-name="eight.denominator" unicode="&#xf65d;" 
d="M461 -10q-363 0 -363 241q0 90 66.5 150.5t173.5 71.5q-101 17 -160 69.5t-59 128.5q0 104 86.5 163.5t255.5 59.5t255.5 -59.5t86.5 -163.5q0 -76 -59 -128.5t-160 -69.5q107 -11 173 -71.5t66 -150.5q0 -241 -362 -241zM461 53q85 0 144 16.5t88 45t40.5 57t11.5 61.5
q0 84 -76 134.5t-208 50.5t-208.5 -50.5t-76.5 -134.5q0 -26 6.5 -49t25.5 -48t49.5 -42.5t83 -29t120.5 -11.5zM461 811q-264 0 -264 -162q0 -81 74.5 -122.5t189.5 -41.5t189.5 41.5t74.5 122.5q0 162 -264 162z" />
    <glyph glyph-name="nine.denominator" unicode="&#xf65e;" 
d="M449 874q174 0 269 -94.5t95 -281.5q0 -108 -21.5 -198t-64.5 -160.5t-114.5 -110t-166.5 -39.5q-37 0 -66 1.5t-57.5 6t-43.5 7t-47.5 10l-45.5 10.5v67q118 -37 260 -37q136 0 214 108t92 310q-57 -62 -138 -103.5t-178 -41.5q-137 0 -226 66t-89 200q0 133 90.5 206.5
t237.5 73.5zM748 537q-2 116 -79 196t-220 80q-106 0 -178 -53.5t-72 -163.5q0 -58 20 -99.5t56 -64.5t77.5 -33t91.5 -10q84 0 164.5 43t139.5 105z" />
    <glyph glyph-name="zero.numerator" unicode="&#xf661;" 
d="M92 1008q0 225 98 333.5t271 108.5q187 0 278.5 -106t91.5 -336q0 -443 -368 -443q-179 0 -275 109t-96 334zM172 1008q0 -198 75 -288.5t220 -90.5q285 0 285 379q0 200 -73.5 289t-217.5 89q-137 0 -213 -91.5t-76 -286.5z" />
    <glyph glyph-name="one.numerator" unicode="&#xf662;" 
d="M516 578v768l-272 -152l-35 57l326 183h61v-856h-80z" />
    <glyph glyph-name="two.numerator" unicode="&#xf663;" 
d="M123 578v73l235 174q81 59 131.5 101t95.5 89t65 92t20 93q0 96 -66 139t-174 43q-156 0 -272 -53v70q124 51 284 51q143 0 225.5 -58t82.5 -178q0 -111 -80 -207t-262 -229l-183 -131v-2h539v-67h-641z" />
    <glyph glyph-name="three.numerator" unicode="&#xf664;" 
d="M293 995v58h137q121 0 189.5 45.5t68.5 118.5q0 92 -64 128.5t-190 36.5q-174 0 -270 -41v68q108 41 291 41q154 0 232.5 -57t78.5 -160q0 -84 -60 -134.5t-163 -68.5v-4q125 -14 185 -71.5t60 -135.5q0 -68 -31 -118.5t-83.5 -79.5t-113.5 -42.5t-128 -13.5
q-177 0 -282 45v68q99 -47 276 -47q147 0 215 55t68 133q0 88 -70.5 132t-202.5 44h-143z" />
    <glyph glyph-name="four.numerator" unicode="&#xf665;" 
d="M86 799v59l553 576h100v-572h111v-63h-111v-221h-77v221h-576zM662 862v504h-3l-479 -504h482z" />
    <glyph glyph-name="five.numerator" unicode="&#xf666;" 
d="M176 1030l25 404h559v-68h-500l-16 -270q157 10 219 10q157 0 242.5 -63t85.5 -191q0 -132 -86.5 -209.5t-247.5 -77.5q-215 0 -295 35v70q17 -7 33 -12.5t34.5 -9.5t30.5 -7t33.5 -5t30 -3t34 -1.5t30.5 -0.5h35h34q114 0 184 53t70 160q0 104 -63 151t-197 47
q-128 0 -275 -12z" />
    <glyph glyph-name="six.numerator" unicode="&#xf667;" 
d="M475 565q-166 0 -257 106.5t-91 305.5q0 102 23.5 186.5t71.5 149.5t128 101t185 36q115 0 204 -27v-67q-66 26 -207 26q-155 0 -243 -95.5t-101 -285.5q53 57 136 92t186 35q135 0 222 -64t87 -194q0 -145 -94 -225t-250 -80zM193 938q0 -80 30.5 -149t96.5 -115.5
t157 -46.5q114 0 189 59t75 182q0 55 -21 95.5t-57.5 62t-78 31.5t-90.5 10q-87 0 -166 -36t-135 -93z" />
    <glyph glyph-name="seven.numerator" unicode="&#xf668;" 
d="M311 578l408 788h-602v68h686v-54l-412 -802h-80z" />
    <glyph glyph-name="eight.numerator" unicode="&#xf669;" 
d="M461 565q-363 0 -363 242q0 90 66.5 150t173.5 71q-101 17 -160 70t-59 129q0 104 86.5 163.5t255.5 59.5t255.5 -59.5t86.5 -163.5q0 -76 -59 -129t-160 -70q107 -11 173 -71t66 -150q0 -242 -362 -242zM461 629q85 0 144 16.5t88 45t40.5 57t11.5 61.5q0 84 -76 134
t-208 50t-208.5 -50t-76.5 -134q0 -26 6.5 -49t25.5 -48t49.5 -42.5t83 -29t120.5 -11.5zM461 1386q-264 0 -264 -161q0 -81 74.5 -122.5t189.5 -41.5t189.5 41.5t74.5 122.5q0 161 -264 161z" />
    <glyph glyph-name="nine.numerator" unicode="&#xf66a;" 
d="M449 1450q174 0 269 -95t95 -282q0 -108 -21.5 -198t-64.5 -160.5t-114.5 -110t-166.5 -39.5q-37 0 -66 1.5t-57.5 6t-43.5 7t-47.5 10l-45.5 10.5v68q118 -37 260 -37q136 0 214 108t92 310q-57 -62 -138 -104t-178 -42q-137 0 -226 66t-89 200q0 133 90.5 207t237.5 74
zM748 1112q-2 116 -79 196.5t-220 80.5q-67 0 -121.5 -20.5t-91.5 -71.5t-37 -126q0 -58 20 -99.5t56 -64t77.5 -32.5t91.5 -10q84 0 164.5 42.5t139.5 104.5z" />
    <glyph glyph-name="uniF6BA" unicode="&#xf6ba;" horiz-adv-x="960" 
d="M219 690v74h520v-74h-520z" />
    <glyph glyph-name="uniF6BB" unicode="&#xf6bb;" horiz-adv-x="1488" 
d="M203 690v72h1081v-72h-1081z" />
    <glyph glyph-name="uniF6BC" unicode="&#xf6bc;" horiz-adv-x="1835" 
d="M203 690v72h1427v-72h-1427z" />
    <glyph glyph-name="uniF6C3" unicode="&#xf6c3;" horiz-adv-x="1163" 
d="M483 -446q47 31 74.5 73.5t34.5 108.5q-84 0 -84 69q0 31 20 51.5t60 20.5q37 0 59.5 -25.5t22.5 -78.5q0 -69 -40.5 -146.5t-117.5 -118.5z" />
    <glyph glyph-name="uniF6C9" unicode="&#xf6c9;" horiz-adv-x="1593" 
d="M721 1577l188 287h119l-229 -287h-78z" />
    <glyph glyph-name="uniF6CA" unicode="&#xf6ca;" horiz-adv-x="1513" 
d="M709 1577l-260 287h88l221 -226l219 226h86l-256 -287h-98z" />
    <glyph glyph-name="uniF6CB" unicode="&#xf6cb;" horiz-adv-x="1597" 
d="M510 1720q0 70 70 70q69 0 69 -70q0 -69 -69 -69q-70 0 -70 69zM944 1720q0 70 70 70q69 0 69 -70q0 -69 -69 -69q-70 0 -70 69z" />
    <glyph glyph-name="uniF6CE" unicode="&#xf6ce;" horiz-adv-x="1513" 
d="M510 1864h119l188 -287h-78z" />
    <glyph glyph-name="uniF6CF" unicode="&#xf6cf;" horiz-adv-x="1513" 
d="M627 1587l172 266h106l-205 -266h-73zM922 1587l204 266h115l-242 -266h-77z" />
    <glyph glyph-name="uniF6D0" unicode="&#xf6d0;" horiz-adv-x="1513" 
d="M479 1686v69h553v-69h-553z" />
    <glyph glyph-name="uniF6D1" unicode="&#xf6d1;" horiz-adv-x="1224" 
d="M315 1853h82q14 -109 68.5 -152.5t146.5 -43.5q93 0 149 43.5t70 152.5h78q-14 -139 -93.5 -202.5t-203.5 -63.5t-203.5 63.5t-93.5 202.5z" />
    <glyph glyph-name="uniF6D4" unicode="&#xf6d4;" horiz-adv-x="1191" 
d="M307 1495h78q14 -100 68.5 -140t140.5 -40q188 0 213 180h74q-7 -67 -32.5 -116t-65 -76.5t-86.5 -40.5t-103 -13t-103 13t-86.5 40.5t-65 76.5t-32.5 116z" />
    <glyph glyph-name="uniFEFF" unicode="&#xfeff;" horiz-adv-x="30" 
 />
    <glyph glyph-name="percent.tab" horiz-adv-x="1331" 
d="M115 0l1022 1434h80l-1020 -1434h-82zM57 1120q0 152 68 243t197 91q132 0 201 -89.5t69 -244.5t-68.5 -244.5t-199.5 -89.5t-199 89t-68 245zM510 1120q0 130 -44.5 195t-141.5 65q-185 0 -185 -260q0 -262 185 -262q186 0 186 262zM743 313q0 152 68 243t195 91
q133 0 201.5 -89t68.5 -245q0 -153 -69.5 -243t-200.5 -90q-128 0 -195.5 89.5t-67.5 243.5zM1194 313q0 130 -45 196t-143 66q-183 0 -183 -262q0 -260 183 -260q98 0 143 65t45 195z" />
    <glyph glyph-name="plus.tab" horiz-adv-x="1331" 
d="M211 629v73h416v412h73v-412h416v-73h-416v-412h-73v412h-416z" />
    <glyph glyph-name="less.tab" horiz-adv-x="1331" 
d="M221 614v68l912 358v-77l-811 -312v-4l811 -311v-80z" />
    <glyph glyph-name="equal.tab" horiz-adv-x="1331" 
d="M211 430v76h905v-76h-905zM211 821v76h905v-76h-905z" />
    <glyph glyph-name="greater.tab" horiz-adv-x="1331" 
d="M199 256v80l809 311v4l-809 312v77l911 -358v-68z" />
    <glyph glyph-name="multiply.tab" horiz-adv-x="1331" 
d="M295 344l321 320l-321 319l53 51l318 -319l319 319l51 -51l-319 -319l319 -320l-51 -51l-319 319l-318 -319z" />
    <glyph glyph-name="divide.tab" horiz-adv-x="1331" 
d="M588 330q0 36 21 56t57 20q35 0 56 -20.5t21 -55.5q0 -34 -20.5 -55t-56.5 -21q-35 0 -56.5 21t-21.5 55zM588 995q0 35 21.5 55.5t56.5 20.5t56 -20.5t21 -55.5t-20 -55t-57 -20q-36 0 -57 20t-21 55zM213 625v75h905v-75h-905z" />
    <glyph glyph-name="perthousand.tab" horiz-adv-x="1331" 
d="M1055 989l-959 -434l-26 55l958 432zM53 1161q0 140 62.5 216.5t183.5 76.5q123 0 185.5 -75t62.5 -218q0 -141 -63 -217t-185 -76t-184 75.5t-62 217.5zM133 1161q0 -117 40.5 -169t125.5 -52q88 0 127 51.5t39 169.5q0 117 -38.5 168t-127.5 51q-84 0 -125 -52.5
t-41 -166.5zM240 272q0 140 61.5 216.5t181.5 76.5q125 0 187.5 -75t62.5 -218q0 -141 -63 -216.5t-185 -75.5t-183.5 75t-61.5 217zM319 272q0 -116 40 -167.5t126 -51.5q88 0 127 50.5t39 168.5t-38.5 170t-127.5 52q-85 0 -125.5 -53t-40.5 -169zM809 272q0 140 63 216.5
t183 76.5q123 0 186.5 -75.5t63.5 -217.5q0 -141 -63.5 -216.5t-186.5 -75.5q-121 0 -183.5 75t-62.5 217zM891 272q0 -116 40 -167.5t124 -51.5q89 0 128.5 51t39.5 168t-39.5 169.5t-128.5 52.5q-84 0 -124 -53t-40 -169z" />
    <glyph glyph-name="minus.tab" horiz-adv-x="1331" 
d="M211 625v75h905v-75h-905z" />
    <glyph glyph-name="f_b" horiz-adv-x="1921" 
d="M887 0v1470q-70 1 -178.5 7t-173.5 6q-115 0 -156 -60.5t-41 -197.5v-178h317v-72h-317v-975h-78v975h-192v72h192v200q0 158 66 231.5t204 73.5q59 0 172.5 -7.5t184.5 -8.5h4h51h23v-729q77 256 401 256q220 0 322 -123.5t102 -396.5q0 -283 -107 -421t-331 -138
q-148 0 -248.5 66t-140.5 198l-15 -248h-61zM965 573v-90q0 -63 12.5 -122.5t41 -115.5t70.5 -98t106.5 -67t143.5 -25q196 0 282.5 121t86.5 365q0 238 -80.5 345t-273.5 107q-185 0 -287 -107.5t-102 -312.5z" />
    <glyph glyph-name="f_f_b" horiz-adv-x="2547" 
d="M260 0v975h-192v72h192v237q0 140 63.5 204t198.5 64q68 0 133 -24v-92q-62 45 -149 45q-99 0 -133.5 -49.5t-34.5 -169.5v-215h549v200q0 158 66 231.5t204 73.5q59 0 188 -8t222 -8h24v-729q77 256 402 256q220 0 321 -123t101 -397q0 -283 -106.5 -421t-330.5 -138
q-148 0 -249.5 66t-141.5 198l-14 -248h-62v1470q-68 1 -176.5 7t-173.5 6q-115 0 -155.5 -60.5t-40.5 -197.5v-178h317v-72h-317v-975h-78v975h-549v-975h-78zM1589 573v-90q0 -63 12.5 -122.5t41.5 -115.5t71.5 -98t107.5 -67t144 -25q196 0 282.5 121t86.5 365
q0 238 -81 345t-274 107q-185 0 -288 -108t-103 -312z" />
    <glyph glyph-name="f_f_h" horiz-adv-x="2533" 
d="M260 0v975h-192v72h192v237q0 140 63.5 204t198.5 64q68 0 133 -24v-92q-62 45 -149 45q-99 0 -133.5 -49.5t-34.5 -169.5v-215h549v200q0 158 66 231.5t204 73.5q58 0 170.5 -7.5t183.5 -8.5h5h51h24v-729q30 123 131.5 189.5t253.5 66.5q211 0 294 -94t83 -305v-664
h-78v645q0 134 -33.5 210t-102.5 107t-189 31q-184 0 -271.5 -97t-87.5 -255v-641h-80v1470q-68 1 -176.5 7t-173.5 6q-115 0 -155.5 -60.5t-40.5 -197.5v-178h317v-72h-317v-975h-78v975h-549v-975h-78z" />
    <glyph glyph-name="f_f_j" horiz-adv-x="1783" 
d="M260 0v975h-192v72h192v237q0 140 63.5 204t198.5 64q68 0 133 -24v-92q-62 45 -149 45q-99 0 -133.5 -49.5t-34.5 -169.5v-215h549v237q0 140 63.5 204t196.5 64q69 0 133 -24v-92q-62 45 -150 45q-97 0 -131 -49.5t-34 -169.5v-215h626v-1180q0 -55 -10.5 -97
t-35 -77.5t-70.5 -54.5t-111 -19q-84 0 -119 14v97q53 -35 117 -35q76 0 112.5 38t36.5 144v1098h-546v-975h-78v975h-549v-975h-78zM1483 1395q0 30 18 47.5t51 17.5q30 0 49 -18t19 -47q0 -31 -19.5 -50.5t-48.5 -19.5q-33 0 -51 19t-18 51z" />
    <glyph glyph-name="f_f_k" horiz-adv-x="2349" 
d="M260 0v975h-192v72h192v237q0 140 63.5 204t198.5 64q68 0 133 -24v-92q-62 45 -149 45q-99 0 -133.5 -49.5t-34.5 -169.5v-215h549v200q0 158 66 231.5t204 73.5q58 0 170.5 -7.5t183.5 -8.5h5h51h24v-926h66l508 437h102l-551 -465l576 -582h-101l-540 545h-60v-545
h-80v1470q-68 1 -176.5 7t-173.5 6q-115 0 -155.5 -60.5t-40.5 -197.5v-178h317v-72h-317v-975h-78v975h-549v-975h-78z" />
    <glyph glyph-name="f_h" horiz-adv-x="1906" 
d="M887 0v1470q-70 1 -178.5 7t-173.5 6q-115 0 -156 -60.5t-41 -197.5v-178h317v-72h-317v-975h-78v975h-192v72h192v200q0 158 66 231.5t204 73.5q59 0 174 -7.5t187 -8.5h74v-729q31 124 132 190t255 66q209 0 291.5 -94t82.5 -305v-664h-77v645q0 134 -34 210t-103 107
t-189 31q-184 0 -271 -97t-87 -255v-641h-78z" />
    <glyph glyph-name="f_j" horiz-adv-x="1157" 
d="M858 1395q0 30 18 47.5t50 17.5q29 0 48 -18t19 -47q0 -31 -19 -50.5t-48 -19.5q-32 0 -50 19.5t-18 50.5zM887 -123v1098h-549v-975h-78v975h-192v72h192v237q0 140 63.5 204t196.5 64q72 0 133 -24v-92q-62 45 -149 45q-97 0 -131.5 -50t-34.5 -169v-215h627v-1180
q0 -115 -51 -181.5t-175 -66.5q-86 0 -121 14v97q52 -35 119 -35q75 0 112.5 38.5t37.5 143.5z" />
    <glyph glyph-name="f_k" horiz-adv-x="1722" 
d="M942 1536h23v-926h65l508 437h102l-548 -465l573 -582h-100l-541 545h-59v-545h-78v1470q-70 1 -178.5 7t-173.5 6q-115 0 -156 -60.5t-41 -197.5v-178h317v-72h-317v-975h-78v975h-192v72h192v200q0 158 66 231.5t204 73.5q60 0 190 -8t222 -8z" />
    </font>
</defs>
</svg>
