<svg width="88" height="88" viewBox="0 0 88 88" fill="none" xmlns="http://www.w3.org/2000/svg">
<g clip-path="url(#clip0)">
<path d="M53.6123 29.2669C48.3816 29.2669 48.1254 27.5682 48.1254 24.3115V6.53412C48.1254 4.2595 46.2746 2.40869 43.9999 2.40869C41.7253 2.40869 39.8745 4.2595 39.8745 6.53412V24.3115C39.8745 27.5682 39.6182 29.2669 34.3861 29.2669C34.006 29.2669 33.6864 29.5746 33.6864 29.9547V36.8307C33.6864 37.2109 34.0088 37.5185 34.3889 37.5185C38.4757 37.5185 41.7098 36.5815 43.9978 34.7321C46.2865 36.5815 49.5263 37.5185 53.6123 37.5185C53.9925 37.5185 54.3135 37.2109 54.3135 36.8307V29.9547C54.3135 29.5746 53.9925 29.2669 53.6123 29.2669Z" fill="white" fill-opacity="0.6"/>
<path d="M36.0842 47.6231C35.5998 43.2766 35.1007 38.7802 35.1007 34.4238C35.1007 23.3675 33.8905 8.66943 23.4361 8.66943C10.7254 8.66943 0.000720037 42.4177 0.000720037 63.6088C-0.00420795 64.2776 -0.082352 80.0436 4.23527 84.3957C5.02234 85.1884 5.91924 85.5911 6.90272 85.5911C9.50118 85.5911 10.793 84.5985 12.5819 83.2264C14.8262 81.5037 17.8985 79.1439 25.6953 76.896C38.9135 73.0846 37.54 60.7182 36.0842 47.6231Z" fill="white" fill-opacity="0.6"/>
<path d="M87.9991 63.6144C87.9991 42.4184 77.2751 8.66943 64.5651 8.66943C54.1093 8.66943 52.9013 23.3675 52.9013 34.4238C52.9013 38.7802 52.4014 43.2759 51.9185 47.6231C50.4626 60.7182 49.0877 73.0846 62.3074 76.896C70.1028 79.1439 73.1757 81.5037 75.4194 83.225C77.2082 84.5985 78.5001 85.5911 81.0985 85.5911C82.0813 85.5911 82.9782 85.1884 83.7653 84.3957C88.0822 80.0436 88.0048 64.2783 87.9991 63.6144Z" fill="white" fill-opacity="0.6"/>
</g>
<defs>
<clipPath id="clip0">
<rect width="88" height="88" fill="white"/>
</clipPath>
</defs>
</svg>
